<?xml version="1.0" encoding="UTF-8"?>
<svg id="Camada_1" data-name="Camada 1" xmlns="http://www.w3.org/2000/svg" xmlns:xlink="http://www.w3.org/1999/xlink" viewBox="0 0 200 290">
  <defs>
    <style>
      .cls-1 {
        fill: url(#linear-gradient-2);
      }

      .cls-2 {
        fill: #43caff;
      }

      .cls-3 {
        fill: url(#linear-gradient-4);
      }

      .cls-4 {
        fill: url(#linear-gradient-3);
      }

      .cls-5 {
        fill: #243a83;
      }

      .cls-6 {
        fill: url(#linear-gradient);
      }
    </style>
    <linearGradient id="linear-gradient" x1="7.11" y1="103.26" x2="188.83" y2="103.26" gradientUnits="userSpaceOnUse">
      <stop offset="0" stop-color="#3db6f3"/>
      <stop offset=".2" stop-color="#3db6f3"/>
      <stop offset="1" stop-color="#3a60ff"/>
    </linearGradient>
    <linearGradient id="linear-gradient-2" x1="7.11" y1="131.6" x2="188.83" y2="131.6" xlink:href="#linear-gradient"/>
    <linearGradient id="linear-gradient-3" x1="7.11" y1="104.33" x2="188.83" y2="104.33" xlink:href="#linear-gradient"/>
    <linearGradient id="linear-gradient-4" x1="7.11" y1="77.29" x2="188.83" y2="77.29" xlink:href="#linear-gradient"/>
  </defs>
  <g>
    <g>
      <path class="cls-5" d="M42.51,259.64c1.73-3.04,4.1-5.4,7.09-7.1,3-1.69,6.36-2.54,10.08-2.54,4.36,0,8.17,1.12,11.45,3.35,3.28,2.23,5.57,5.33,6.87,9.27h-8.99c-.89-1.86-2.15-3.26-3.77-4.19-1.62-.93-3.49-1.4-5.61-1.4-2.27,0-4.29.53-6.06,1.59-1.77,1.06-3.15,2.56-4.13,4.5-.99,1.94-1.48,4.21-1.48,6.82s.49,4.83,1.48,6.79c.99,1.96,2.36,3.46,4.13,4.53,1.77,1.06,3.79,1.59,6.06,1.59,2.12,0,3.99-.47,5.61-1.42s2.88-2.35,3.77-4.22h8.99c-1.3,3.99-3.58,7.09-6.84,9.3-3.26,2.22-7.09,3.32-11.48,3.32-3.72,0-7.09-.85-10.08-2.54-3-1.69-5.36-4.05-7.09-7.07-1.73-3.02-2.6-6.44-2.6-10.28s.87-7.27,2.6-10.31Z"/>
      <path class="cls-5" d="M82.02,265.59c1.25-2.42,2.94-4.28,5.08-5.59,2.14-1.3,4.53-1.96,7.18-1.96,2.31,0,4.33.47,6.06,1.4,1.73.93,3.12,2.1,4.16,3.52v-4.41h7.88v30.95h-7.88v-4.53c-1.01,1.45-2.39,2.65-4.16,3.6-1.77.95-3.81,1.42-6.12,1.42-2.61,0-4.98-.67-7.12-2.01-2.14-1.34-3.84-3.23-5.08-5.67-1.25-2.44-1.87-5.24-1.87-8.41s.62-5.9,1.87-8.32ZM103.38,269.13c-.75-1.36-1.75-2.4-3.02-3.13-1.27-.73-2.63-1.09-4.08-1.09s-2.79.35-4.02,1.06c-1.23.71-2.23,1.74-2.99,3.1-.76,1.36-1.15,2.97-1.15,4.83s.38,3.49,1.15,4.89c.76,1.4,1.77,2.47,3.02,3.21,1.25.75,2.58,1.12,3.99,1.12s2.81-.36,4.08-1.09c1.27-.73,2.27-1.77,3.02-3.13.74-1.36,1.12-2.99,1.12-4.89s-.37-3.53-1.12-4.89Z"/>
      <path class="cls-5" d="M129.53,259.5c1.62-.93,3.47-1.4,5.56-1.4v8.21h-2.07c-2.46,0-4.31.58-5.56,1.73-1.25,1.15-1.87,3.17-1.87,6.03v15.42h-7.82v-30.95h7.82v4.8c1.01-1.64,2.32-2.92,3.94-3.85Z"/>
      <path class="cls-5" d="M149.05,264.97v14.97c0,1.04.25,1.8.75,2.26.5.47,1.35.7,2.54.7h3.63v6.59h-4.92c-6.59,0-9.89-3.2-9.89-9.61v-14.92h-3.69v-6.42h3.69v-7.65h7.88v7.65h6.93v6.42h-6.93Z"/>
      <path class="cls-5" d="M159.74,265.59c1.25-2.42,2.94-4.28,5.08-5.59,2.14-1.3,4.53-1.96,7.18-1.96,2.31,0,4.33.47,6.06,1.4,1.73.93,3.12,2.1,4.16,3.52v-4.41h7.88v30.95h-7.88v-4.53c-1.01,1.45-2.39,2.65-4.16,3.6-1.77.95-3.81,1.42-6.12,1.42-2.61,0-4.98-.67-7.12-2.01-2.14-1.34-3.84-3.23-5.08-5.67-1.25-2.44-1.87-5.24-1.87-8.41s.62-5.9,1.87-8.32ZM181.11,269.13c-.75-1.36-1.75-2.4-3.02-3.13-1.27-.73-2.63-1.09-4.08-1.09s-2.79.35-4.02,1.06c-1.23.71-2.23,1.74-2.99,3.1-.76,1.36-1.15,2.97-1.15,4.83s.38,3.49,1.15,4.89c.76,1.4,1.77,2.47,3.02,3.21,1.25.75,2.58,1.12,3.99,1.12s2.81-.36,4.08-1.09c1.27-.73,2.27-1.77,3.02-3.13.74-1.36,1.12-2.99,1.12-4.89s-.37-3.53-1.12-4.89Z"/>
    </g>
    <path class="cls-2" d="M27.47,267.66c-1.84,0-3.34-1.5-3.34-3.34v-6.37h-4.52v9.71h-9.71v4.52h6.37c1.84,0,3.34,1.5,3.34,3.34v6.37h4.52v-9.71h9.71v-4.52h-6.37Z"/>
  </g>
  <g>
    <path class="cls-6" d="M196.45,41.46c-2.58-2.94-6.16-4.55-10.08-4.55H51.14c-2.6,0-4.94,1.55-5.95,3.95s-.5,5.15,1.31,7.02l62.68,64.61c2.35,2.42,6.09,2.64,8.71.53l68.39-55.26-11.92,95.8c-.14,1.58-1.52,2.93-3.07,3.13H38.04c-3.57,0-6.47,2.9-6.47,6.47s2.9,6.47,6.47,6.47h133.52c.19,0,.37,0,.56-.02,8.04-.7,14.38-6.88,15.09-14.66l12.66-101.71c.57-4.36-.68-8.64-3.41-11.76ZM175.49,49.84l-61.14,49.41-47.93-49.41h109.07Z"/>
    <path class="cls-1" d="M33.7,131.6c0,3.57,2.9,6.47,6.47,6.47h45.51c3.57,0,6.47-2.9,6.47-6.47s-2.9-6.47-6.47-6.47h-45.51c-3.57,0-6.47,2.9-6.47,6.47Z"/>
    <path class="cls-4" d="M77.76,104.33c0-3.57-2.9-6.47-6.47-6.47H6.47c-3.57,0-6.47,2.9-6.47,6.47s2.9,6.47,6.47,6.47h64.83c3.57,0,6.47-2.9,6.47-6.47Z"/>
    <path class="cls-3" d="M31.58,83.75h18.68c3.57,0,6.47-2.9,6.47-6.47s-2.9-6.47-6.47-6.47h-18.68c-3.57,0-6.47,2.9-6.47,6.47s2.9,6.47,6.47,6.47Z"/>
  </g>
</svg>