<?xml version="1.0" encoding="UTF-8"?>
<svg id="Camada_1" data-name="Camada 1" xmlns="http://www.w3.org/2000/svg" xmlns:xlink="http://www.w3.org/1999/xlink" viewBox="0 0 220 290">
  <defs>
    <style>
      .cls-1 {
        opacity: .9;
      }

      .cls-2 {
        fill: url(#linear-gradient-2);
      }

      .cls-3 {
        fill: #43caff;
      }

      .cls-4 {
        fill: url(#linear-gradient-4);
      }

      .cls-5 {
        fill: url(#linear-gradient-3);
      }

      .cls-6 {
        fill: url(#linear-gradient-5);
      }

      .cls-7 {
        fill: #243a83;
      }

      .cls-8 {
        fill: url(#linear-gradient-6);
      }

      .cls-9 {
        fill: url(#linear-gradient);
      }
    </style>
    <linearGradient id="linear-gradient" x1="7.14" y1="100" x2="225.49" y2="100" gradientUnits="userSpaceOnUse">
      <stop offset="0" stop-color="#3db6f3"/>
      <stop offset=".2" stop-color="#3db6f3"/>
      <stop offset="1" stop-color="#3a60ff"/>
    </linearGradient>
    <linearGradient id="linear-gradient-2" x1="7.14" y1="125.25" x2="225.49" y2="125.25" xlink:href="#linear-gradient"/>
    <linearGradient id="linear-gradient-3" x1="7.14" y1="32.67" x2="225.49" y2="32.67" xlink:href="#linear-gradient"/>
    <linearGradient id="linear-gradient-4" x1="7.14" y1="100" x2="225.49" y2="100" xlink:href="#linear-gradient"/>
    <linearGradient id="linear-gradient-5" x1="7.14" y1="100" x2="225.49" y2="100" xlink:href="#linear-gradient"/>
    <linearGradient id="linear-gradient-6" x1="7.14" y1="100" x2="225.49" y2="100" xlink:href="#linear-gradient"/>
  </defs>
  <g>
    <path class="cls-9" d="M91.79,94.23h-14.38c-5.56,0-10.08-4.52-10.08-10.08s4.52-10.08,10.08-10.08h25.39c3.14,0,5.7-2.56,5.7-5.7s-2.56-5.7-5.7-5.7h-12.5v-9.38c0-3.14-2.56-5.7-5.7-5.7s-5.7,2.56-5.7,5.7v9.38h-1.49c-11.84,0-21.47,9.63-21.47,21.47s9.63,21.47,21.47,21.47h14.38c5.56,0,10.08,4.52,10.08,10.08s-4.52,10.08-10.08,10.08h-25.86c-3.14,0-5.7,2.56-5.7,5.7s2.56,5.69,5.7,5.69h12.98v9.53c0,3.14,2.56,5.7,5.7,5.7s5.7-2.56,5.7-5.7v-9.53h1.77c11.69-.16,21.2-9.79,21.2-21.47s-9.63-21.47-21.47-21.47Z"/>
    <path class="cls-2" d="M160.34,200h-75.74c-4.1,0-7.43-3.32-7.43-7.43s3.33-7.43,7.43-7.43h68.32V57.92c0-4.1,3.33-7.43,7.43-7.43s7.43,3.32,7.43,7.43v134.65c0,4.1-3.33,7.43-7.43,7.43Z"/>
    <path class="cls-5" d="M166.51,62.04c.12-.18.2-.38.31-.56.13-.24.27-.46.38-.72.1-.24.16-.49.23-.74.06-.22.15-.42.19-.64.09-.47.14-.95.14-1.42,0-.01,0-.02,0-.03s0-.02,0-.03c0-.48-.05-.95-.14-1.42-.04-.22-.13-.43-.19-.65-.07-.25-.13-.5-.23-.74-.1-.25-.25-.48-.38-.72-.1-.19-.18-.38-.31-.56-.27-.41-.58-.79-.93-1.13h0S115.1,2.18,115.1,2.18c-.35-.35-.73-.65-1.13-.93-.19-.12-.39-.21-.58-.32-.23-.13-.45-.27-.7-.37-.25-.1-.5-.16-.76-.24-.21-.06-.41-.14-.63-.19-.48-.1-.97-.15-1.46-.15H8.85C4.75,0,1.43,3.32,1.43,7.43s3.33,7.43,7.43,7.43h93.56v43.07c0,4.1,3.33,7.43,7.43,7.43h50.49c.49,0,.98-.05,1.46-.15.22-.04.42-.12.62-.19.26-.07.51-.13.76-.24.24-.1.47-.24.7-.37.19-.11.4-.19.58-.32.4-.27.78-.58,1.13-.92,0,0,0,0,0,0h0c.35-.35.65-.73.93-1.13ZM117.27,25.36l25.14,25.14h-25.14v-25.14Z"/>
    <path class="cls-4" d="M186.11,189.52h-6.13c-4.1,0-7.43-3.32-7.43-7.43,0-3.66,2.65-6.7,6.13-7.31V25.33h-26.65c-4.1,0-7.43-3.32-7.43-7.43s3.33-7.43,7.43-7.43h34.08c4.1,0,7.43,3.32,7.43,7.43v164.19c0,4.1-3.33,7.43-7.43,7.43Z"/>
    <g class="cls-1">
      <path class="cls-6" d="M211.15,172.05c-4.1,0-7.43-3.32-7.43-7.43V35.37c0-4.1,3.33-7.43,7.43-7.43s7.43,3.32,7.43,7.43v129.25c0,4.1-3.33,7.43-7.43,7.43Z"/>
    </g>
    <path class="cls-8" d="M84.6,200H8.85c-4.1,0-7.43-3.32-7.43-7.43V7.43C1.43,3.32,4.75,0,8.85,0s7.43,3.32,7.43,7.43v177.72h68.32c4.1,0,7.43,3.32,7.43,7.43s-3.33,7.43-7.43,7.43Z"/>
  </g>
  <g>
    <g>
      <path class="cls-7" d="M61.38,250v6.39h-16.46v10.13h12.61v6.28h-12.61v16.69h-7.92v-39.49h24.38Z"/>
      <path class="cls-7" d="M66.28,265.28c1.26-2.45,2.98-4.34,5.15-5.66s4.59-1.98,7.27-1.98c2.34,0,4.38.47,6.14,1.41,1.75.94,3.16,2.13,4.21,3.56v-4.47h7.98v31.34h-7.98v-4.58c-1.02,1.47-2.42,2.69-4.21,3.65-1.79.96-3.86,1.44-6.2,1.44-2.64,0-5.05-.68-7.21-2.04s-3.88-3.27-5.15-5.74c-1.27-2.47-1.9-5.31-1.9-8.51s.63-5.98,1.9-8.43ZM87.92,268.87c-.75-1.38-1.77-2.43-3.05-3.17-1.28-.74-2.66-1.1-4.13-1.1s-2.83.36-4.07,1.08-2.25,1.76-3.03,3.14c-.77,1.38-1.16,3.01-1.16,4.89s.39,3.54,1.16,4.95c.77,1.42,1.79,2.5,3.05,3.25s2.61,1.13,4.05,1.13,2.85-.37,4.13-1.1c1.28-.74,2.3-1.79,3.05-3.17.75-1.38,1.13-3.03,1.13-4.95s-.38-3.57-1.13-4.95Z"/>
      <path class="cls-7" d="M113.43,264.65v15.16c0,1.06.26,1.82.77,2.29.51.47,1.37.71,2.57.71h3.68v6.68h-4.98c-6.68,0-10.01-3.24-10.01-9.73v-15.11h-3.73v-6.51h3.73v-7.75h7.98v7.75h7.02v6.51h-7.02Z"/>
      <path class="cls-7" d="M155.19,258.15v31.34h-7.98v-3.96c-1.02,1.36-2.35,2.42-3.99,3.2s-3.42,1.16-5.35,1.16c-2.45,0-4.62-.52-6.51-1.56-1.89-1.04-3.36-2.57-4.44-4.58-1.07-2.02-1.61-4.42-1.61-7.21v-18.39h7.92v17.26c0,2.49.62,4.4,1.87,5.74,1.24,1.34,2.94,2.01,5.09,2.01s3.9-.67,5.15-2.01c1.24-1.34,1.87-3.25,1.87-5.74v-17.26h7.98Z"/>
      <path class="cls-7" d="M174.34,259.11c1.64-.94,3.52-1.41,5.63-1.41v8.32h-2.09c-2.49,0-4.37.59-5.63,1.75-1.26,1.17-1.89,3.21-1.89,6.11v15.62h-7.92v-31.34h7.92v4.87c1.02-1.66,2.35-2.96,3.99-3.9Z"/>
      <path class="cls-7" d="M184.58,265.28c1.26-2.45,2.98-4.34,5.15-5.66s4.59-1.98,7.27-1.98c2.34,0,4.38.47,6.14,1.41,1.75.94,3.16,2.13,4.21,3.56v-4.47h7.98v31.34h-7.98v-4.58c-1.02,1.47-2.42,2.69-4.21,3.65-1.79.96-3.86,1.44-6.2,1.44-2.64,0-5.05-.68-7.21-2.04s-3.88-3.27-5.15-5.74c-1.27-2.47-1.9-5.31-1.9-8.51s.63-5.98,1.9-8.43ZM206.22,268.87c-.75-1.38-1.77-2.43-3.05-3.17-1.28-.74-2.66-1.1-4.13-1.1s-2.83.36-4.07,1.08-2.25,1.76-3.03,3.14c-.77,1.38-1.16,3.01-1.16,4.89s.39,3.54,1.16,4.95c.77,1.42,1.79,2.5,3.05,3.25s2.61,1.13,4.05,1.13,2.85-.37,4.13-1.1c1.28-.74,2.3-1.79,3.05-3.17.75-1.38,1.13-3.03,1.13-4.95s-.38-3.57-1.13-4.95Z"/>
    </g>
    <path class="cls-3" d="M22.47,267.37c-1.86,0-3.38-1.52-3.38-3.38v-6.45h-4.58v9.83H4.67v4.58h6.45c1.86,0,3.38,1.52,3.38,3.38v6.45h4.58v-9.83h9.83v-4.58h-6.45Z"/>
  </g>
</svg>