<?xml version="1.0" encoding="UTF-8"?>
<svg id="Camada_1" data-name="Camada 1" xmlns="http://www.w3.org/2000/svg" viewBox="0 0 1080 200">
  <defs>
    <style>
      .cls-1 {
        fill: #243a83;
      }

      .cls-2 {
        fill: #3db6f3;
      }
    </style>
  </defs>
  <g>
    <path class="cls-2" d="M138.39,103.35c-21.96,0-39.83-17.87-39.83-39.83s17.87-39.83,39.83-39.83,39.83,17.87,39.83,39.83-17.87,39.83-39.83,39.83M138.39,6.35c-15.47,0-29.53,6.18-39.83,16.2V6.35h-17.6l.27,55.53h.02c-.01.54-.02,1.09-.02,1.63l-.27,132.08h17.6v-91.13c10.3,10.02,24.35,16.22,39.83,16.22,31.52,0,57.17-25.65,57.17-57.17S169.91,6.35,138.39,6.35"/>
    <path class="cls-2" d="M276.47,103.18c-1.23.12-2.48.17-3.74.17s-2.51-.06-3.74-.17c-9.04-.85-17.21-4.72-23.48-10.61-7.76-7.27-12.61-17.6-12.61-29.05,0-21.96,17.87-39.83,39.83-39.83s39.83,17.87,39.83,39.83c0,11.45-4.85,21.78-12.61,29.05-6.27,5.88-14.44,9.76-23.48,10.61M329.89,6.35h-57.17c-31.52,0-57.17,25.65-57.17,57.17,0,15.38,6.11,29.37,16.03,39.66,4.06,4.21,8.75,7.79,13.92,10.61,8.1,4.4,17.37,6.91,27.22,6.91s19.12-2.5,27.22-6.91c7.76,7.27,12.61,17.61,12.61,29.05,0,21.96-17.87,39.83-39.83,39.83s-39.83-17.87-39.83-39.83h-17.34c0,31.52,25.65,57.17,57.17,57.17s57.17-25.65,57.17-57.17c0-15.38-6.11-29.37-16.03-39.66,9.92-10.29,16.03-24.27,16.03-39.66s-6.19-29.26-16.22-39.56h16.22V6.35Z"/>
    <g>
      <path class="cls-2" d="M421.18,58.21c-4.53,0-8.22-3.69-8.22-8.22v-15.69h-11.14v23.91h-23.91v11.14h15.69c4.53,0,8.22,3.69,8.22,8.22v15.69h11.14v-23.91h23.91v-11.14h-15.69Z"/>
      <path class="cls-2" d="M406.97,11.87c-28.53,0-51.74,23.21-51.74,51.74s23.21,51.74,51.74,51.74,51.74-23.21,51.74-51.74-23.21-51.74-51.74-51.74M406.97,120.69c-31.48,0-57.08-25.61-57.08-57.08s25.61-57.08,57.08-57.08,57.08,25.61,57.08,57.08-25.61,57.08-57.08,57.08"/>
    </g>
  </g>
  <g>
    <path class="cls-1" d="M486.53,14.58c-1.66-1.65-2.48-3.67-2.48-6.05s.82-4.4,2.48-6.05c1.65-1.65,3.66-2.48,6.05-2.48s4.24.83,5.85,2.48c1.6,1.65,2.41,3.67,2.41,6.05s-.81,4.4-2.41,6.05c-1.61,1.65-3.56,2.48-5.85,2.48s-4.41-.83-6.05-2.48ZM498.64,29.31v75.4h-12.52V29.31h12.52Z"/>
    <path class="cls-1" d="M578.99,36.26c5.69,5.55,8.53,13.55,8.53,24.01v44.44h-12.38v-42.65c0-7.52-1.88-13.28-5.64-17.27-3.76-3.99-8.9-5.98-15.41-5.98s-11.86,2.06-15.75,6.19c-3.9,4.13-5.84,10.14-5.84,18.02v41.69h-12.52V29.31h12.52v10.73c2.47-3.85,5.84-6.83,10.11-8.94s8.96-3.17,14.1-3.17c9.18,0,16.61,2.78,22.29,8.33Z"/>
    <path class="cls-1" d="M619.16,102.99c-4.59-1.97-8.21-4.73-10.87-8.26-2.66-3.53-4.13-7.59-4.41-12.17h12.93c.37,3.76,2.14,6.83,5.3,9.22,3.16,2.38,7.32,3.58,12.45,3.58,4.76,0,8.53-1.06,11.28-3.17,2.75-2.11,4.13-4.77,4.13-7.98s-1.47-5.76-4.41-7.36-7.47-3.19-13.62-4.75c-5.6-1.47-10.16-2.96-13.69-4.47-3.53-1.51-6.56-3.76-9.09-6.74-2.52-2.98-3.78-6.9-3.78-11.76,0-3.85,1.15-7.38,3.44-10.6,2.28-3.21,5.54-5.76,9.76-7.64,4.22-1.88,9.04-2.82,14.44-2.82,8.35,0,15.09,2.11,20.23,6.33,5.13,4.22,7.88,10,8.25,17.34h-12.52c-.28-3.94-1.86-7.11-4.75-9.49s-6.77-3.58-11.63-3.58c-4.5,0-8.07.96-10.73,2.89-2.66,1.93-3.99,4.45-3.99,7.57,0,2.47.79,4.52,2.41,6.12,1.6,1.61,3.62,2.89,6.05,3.85s5.81,2.04,10.12,3.23c5.41,1.47,9.81,2.91,13.21,4.33,3.39,1.42,6.3,3.56,8.74,6.4,2.43,2.84,3.69,6.56,3.78,11.14,0,4.13-1.15,7.84-3.44,11.15-2.3,3.3-5.53,5.9-9.7,7.77-4.18,1.88-8.97,2.82-14.38,2.82-5.78,0-10.96-.99-15.55-2.96Z"/>
    <path class="cls-1" d="M680.26,14.58c-1.66-1.65-2.48-3.67-2.48-6.05s.82-4.4,2.48-6.05c1.65-1.65,3.66-2.48,6.05-2.48s4.24.83,5.85,2.48c1.6,1.65,2.41,3.67,2.41,6.05s-.81,4.4-2.41,6.05c-1.61,1.65-3.56,2.48-5.85,2.48s-4.41-.83-6.05-2.48ZM692.36,29.31v75.4h-12.52V29.31h12.52Z"/>
    <path class="cls-1" d="M761.91,32.33c4.91,2.84,8.55,6.42,10.94,10.73v-13.76h12.66v77.05c0,6.88-1.47,13-4.4,18.37-2.94,5.37-7.13,9.56-12.59,12.59s-11.81,4.54-19.06,4.54c-9.9,0-18.16-2.34-24.76-7.02-6.61-4.68-10.51-11.05-11.7-19.12h12.38c1.38,4.59,4.22,8.28,8.53,11.08,4.31,2.8,9.5,4.2,15.55,4.2,6.88,0,12.5-2.16,16.86-6.47,4.36-4.31,6.53-10.37,6.53-18.16v-15.82c-2.48,4.4-6.15,8.07-11.01,11.01-4.87,2.94-10.55,4.4-17.06,4.4s-12.78-1.65-18.23-4.95-9.75-7.93-12.86-13.9c-3.12-5.96-4.68-12.75-4.68-20.36s1.56-14.47,4.68-20.29c3.11-5.82,7.4-10.34,12.86-13.55s11.54-4.82,18.23-4.82,12.22,1.42,17.13,4.27ZM769.41,52.01c-2.29-4.22-5.39-7.45-9.28-9.7-3.9-2.25-8.19-3.37-12.87-3.37s-8.95,1.1-12.8,3.3-6.93,5.41-9.22,9.63c-2.3,4.22-3.44,9.17-3.44,14.86s1.14,10.8,3.44,15.07c2.29,4.27,5.36,7.52,9.22,9.77s8.12,3.37,12.8,3.37,8.96-1.12,12.87-3.37c3.9-2.25,6.99-5.5,9.28-9.77,2.3-4.27,3.44-9.24,3.44-14.93s-1.15-10.64-3.44-14.86Z"/>
    <path class="cls-1" d="M859.53,31.58c4.59,2.43,8.19,6.08,10.81,10.94,2.61,4.87,3.92,10.78,3.92,17.75v44.44h-12.38v-42.65c0-7.52-1.88-13.28-5.64-17.27-3.76-3.99-8.9-5.98-15.41-5.98s-11.86,2.06-15.75,6.19c-3.9,4.13-5.84,10.14-5.84,18.02v41.69h-12.52V2.89h12.52v37.15c2.47-3.85,5.89-6.83,10.25-8.94s9.24-3.17,14.66-3.17,10.82,1.22,15.41,3.65Z"/>
    <path class="cls-1" d="M910.03,39.63v44.44c0,3.67.77,6.26,2.33,7.77,1.56,1.51,4.27,2.27,8.12,2.27h9.22v10.6h-11.29c-6.97,0-12.2-1.6-15.68-4.81-3.49-3.21-5.23-8.48-5.23-15.82v-44.44h-9.77v-10.32h9.77V10.32h12.52v18.99h19.67v10.32h-19.67Z"/>
    <path class="cls-1" d="M955.99,102.99c-4.59-1.97-8.21-4.73-10.87-8.26-2.66-3.53-4.13-7.59-4.4-12.17h12.93c.36,3.76,2.13,6.83,5.3,9.22,3.16,2.38,7.31,3.58,12.45,3.58,4.77,0,8.53-1.06,11.29-3.17,2.75-2.11,4.12-4.77,4.12-7.98s-1.47-5.76-4.4-7.36-7.48-3.19-13.62-4.75c-5.59-1.47-10.16-2.96-13.69-4.47-3.53-1.51-6.56-3.76-9.08-6.74-2.52-2.98-3.78-6.9-3.78-11.76,0-3.85,1.14-7.38,3.44-10.6s5.55-5.76,9.77-7.64c4.22-1.88,9.04-2.82,14.45-2.82,8.34,0,15.08,2.11,20.22,6.33,5.14,4.22,7.89,10,8.26,17.34h-12.52c-.27-3.94-1.86-7.11-4.75-9.49s-6.76-3.58-11.62-3.58c-4.5,0-8.07.96-10.73,2.89s-3.99,4.45-3.99,7.57c0,2.47.81,4.52,2.41,6.12,1.61,1.61,3.63,2.89,6.06,3.85s5.8,2.04,10.11,3.23c5.41,1.47,9.81,2.91,13.21,4.33,3.39,1.42,6.3,3.56,8.73,6.4,2.43,2.84,3.7,6.56,3.78,11.14,0,4.13-1.15,7.84-3.44,11.15-2.3,3.3-5.53,5.9-9.7,7.77-4.18,1.88-8.97,2.82-14.38,2.82-5.78,0-10.96-.99-15.54-2.96Z"/>
  </g>
</svg>