<?xml version="1.0" encoding="UTF-8"?>
<svg id="Camada_1" data-name="Camada 1" xmlns="http://www.w3.org/2000/svg" xmlns:xlink="http://www.w3.org/1999/xlink" viewBox="0 0 250 290">
  <defs>
    <style>
      .cls-1 {
        fill: url(#linear-gradient-2);
      }

      .cls-2 {
        fill: #43caff;
      }

      .cls-3 {
        fill: url(#linear-gradient-4);
      }

      .cls-4 {
        fill: url(#linear-gradient-3);
      }

      .cls-5 {
        fill: #243a83;
      }

      .cls-6 {
        fill: url(#linear-gradient);
      }
    </style>
    <linearGradient id="linear-gradient" x1="6474.08" y1="5444.76" x2="6354.92" y2="5348.93" gradientTransform="translate(6542.11 5498.05) rotate(-180)" gradientUnits="userSpaceOnUse">
      <stop offset="0" stop-color="#3db6f3"/>
      <stop offset=".2" stop-color="#3db6f3"/>
      <stop offset="1" stop-color="#3a60ff"/>
    </linearGradient>
    <linearGradient id="linear-gradient-2" x1="50.36" y1="103.73" x2="206.71" y2="103.73" gradientTransform="matrix(1,0,0,1,0,0)" xlink:href="#linear-gradient"/>
    <linearGradient id="linear-gradient-3" x1="100.61" y1="100" x2="160.56" y2="100" gradientTransform="matrix(1,0,0,1,0,0)" xlink:href="#linear-gradient"/>
    <linearGradient id="linear-gradient-4" x1="32.17" y1="102.92" x2="217.83" y2="102.92" gradientTransform="matrix(1,0,0,1,0,0)" xlink:href="#linear-gradient"/>
  </defs>
  <g>
    <g>
      <path class="cls-5" d="M91.1,269.39c-.94,1.74-2.42,3.15-4.43,4.22s-4.55,1.6-7.61,1.6h-6.25v14.31h-7.48v-37.28h13.73c2.88,0,5.34.5,7.37,1.5s3.55,2.37,4.57,4.11c1.02,1.74,1.52,3.72,1.52,5.93,0,1.99-.47,3.86-1.41,5.61ZM83.33,267.76c1-.94,1.5-2.27,1.5-3.98,0-3.63-2.03-5.45-6.09-5.45h-5.93v10.84h5.93c2.07,0,3.6-.47,4.59-1.42Z"/>
      <path class="cls-5" d="M102.71,288.1c-2.28-1.26-4.07-3.05-5.37-5.37-1.3-2.31-1.95-4.98-1.95-8.01s.67-5.7,2-8.01,3.16-4.1,5.48-5.37c2.31-1.26,4.89-1.9,7.74-1.9s5.43.63,7.74,1.9c2.32,1.26,4.14,3.05,5.48,5.37,1.33,2.31,2,4.98,2,8.01s-.69,5.7-2.06,8.01c-1.37,2.32-3.22,4.1-5.55,5.37-2.33,1.26-4.94,1.9-7.82,1.9s-5.41-.63-7.69-1.9ZM114.22,282.5c1.19-.66,2.14-1.65,2.86-2.96s1.07-2.92,1.07-4.81c0-2.81-.74-4.97-2.22-6.49-1.48-1.51-3.28-2.27-5.42-2.27s-3.92.76-5.37,2.27c-1.44,1.51-2.16,3.68-2.16,6.49s.7,4.98,2.11,6.49c1.41,1.51,3.18,2.27,5.31,2.27,1.35,0,2.62-.33,3.82-.99Z"/>
      <path class="cls-5" d="M142.04,260.84c1.55-.89,3.32-1.33,5.31-1.33v7.85h-1.98c-2.35,0-4.12.55-5.31,1.66-1.19,1.1-1.79,3.03-1.79,5.77v14.74h-7.48v-29.59h7.48v4.59c.96-1.57,2.22-2.79,3.76-3.69Z"/>
      <path class="cls-5" d="M160.55,266.08v14.31c0,1,.24,1.72.72,2.16.48.45,1.29.67,2.43.67h3.47v6.3h-4.7c-6.3,0-9.45-3.06-9.45-9.19v-14.26h-3.52v-6.14h3.52v-7.32h7.53v7.32h6.62v6.14h-6.62Z"/>
      <path class="cls-5" d="M171.9,266.66c1.19-2.31,2.81-4.09,4.86-5.34,2.05-1.25,4.33-1.87,6.86-1.87,2.21,0,4.14.45,5.79,1.33,1.66.89,2.98,2.01,3.98,3.36v-4.22h7.53v29.59h-7.53v-4.33c-.96,1.39-2.29,2.54-3.98,3.44-1.69.91-3.64,1.36-5.85,1.36-2.49,0-4.76-.64-6.81-1.92-2.05-1.28-3.67-3.09-4.86-5.42-1.19-2.33-1.79-5.01-1.79-8.04s.6-5.64,1.79-7.96ZM192.32,270.05c-.71-1.3-1.67-2.3-2.89-2.99-1.21-.69-2.51-1.04-3.9-1.04s-2.67.34-3.85,1.02c-1.17.68-2.13,1.66-2.86,2.96-.73,1.3-1.09,2.84-1.09,4.62s.37,3.34,1.09,4.67c.73,1.34,1.69,2.36,2.89,3.07,1.19.71,2.46,1.07,3.82,1.07s2.69-.35,3.9-1.04,2.17-1.69,2.89-2.99c.71-1.3,1.07-2.86,1.07-4.67s-.36-3.37-1.07-4.67Z"/>
      <path class="cls-5" d="M215.18,250v39.52h-7.48v-39.52h7.48Z"/>
    </g>
    <path class="cls-2" d="M51.62,268.64c-1.76,0-3.19-1.43-3.19-3.19v-6.09h-4.33v9.28h-9.28v4.33h6.09c1.76,0,3.19,1.43,3.19,3.19v6.09h4.33v-9.28h9.28v-4.33h-6.09Z"/>
  </g>
  <g>
    <path class="cls-6" d="M126.13,25.47c19.85,0,38.52,7.71,52.59,21.72,14.07,14.01,21.86,32.66,21.94,52.52.08,19.91-7.6,38.66-21.62,52.8-14.02,14.14-32.71,21.96-52.62,22.04h-.31c-19.85,0-38.52-7.71-52.59-21.72-14.07-14.01-21.86-32.66-21.94-52.52-.08-19.91,7.6-38.66,21.62-52.8,14.02-14.14,32.71-21.96,52.62-22.04h.31ZM126.11,162.73h.26c16.75-.07,32.48-6.66,44.28-18.55,11.8-11.89,18.26-27.67,18.19-44.42-.07-16.71-6.63-32.4-18.46-44.19-11.84-11.79-27.55-18.28-44.25-18.28h-.26c-16.75.07-32.48,6.66-44.28,18.55-11.8,11.89-18.26,27.67-18.19,44.42.07,16.71,6.62,32.4,18.46,44.19,11.84,11.79,27.55,18.28,44.25,18.28Z"/>
    <path class="cls-1" d="M56.76,172.96c8.86,6.45,21.41,2.32,26.77.55,3.71-1.22,7.55-2.78,11.75-4.76.29-.14.56-.3.82-.48-4.47-1.97-8.75-4.38-12.79-7.22-1.18.45-2.34.87-3.47,1.24-3.32,1.09-12.15,4-16.12,1.11-2.81-2.04-1.11-8.66-.25-11.41,3.25-10.37,9.86-20.07,15.91-28.18,8.63-11.59,18.87-22.84,31.31-34.4,12.43-11.55,25.1-21.51,37.65-29.6,8.38-5.4,19.5-12.03,31.22-15.38,7.38-2.11,12.15-2.14,14.19-.08,1.6,1.61,1.2,5.3.82,7.35-.71,3.82-2.15,7.56-3.84,11.06,2.48,4.28,4.51,8.8,6.08,13.48.14-.18.27-.37.38-.57,3.58-6.15,7.45-13.55,8.99-21.81.98-5.29,1.08-12.67-4.06-17.84-3.84-3.87-8.83-5.02-13.52-5.02-5.06,0-9.77,1.35-12.3,2.07-13.21,3.78-25.31,10.97-34.37,16.81-13.13,8.46-26.35,18.85-39.29,30.87-12.97,12.05-23.68,23.83-32.74,36-6.64,8.92-13.93,19.66-17.71,31.71-2.46,7.86-3.67,18.5,4.58,24.5Z"/>
    <path class="cls-4" d="M114.44,26.38c.24-.6.49-1.19.74-1.76,1.41-3.2,5.16-11.71,9.96-12.73,3.4-.72,7.18,4.97,8.64,7.45,5.53,9.35,8.31,20.76,10.3,30.68,2.84,14.17,4.35,29.3,4.61,46.28.27,16.96-.81,33.04-3.2,47.78-1.59,9.84-4.11,22.54-9.46,33.49-3.37,6.89-6.54,10.46-9.43,10.6-2.26.12-4.74-2.65-6.01-4.31-2.34-3.05-4.15-6.59-5.62-10.16-4.73-.7-9.34-1.86-13.8-3.44,2.15,6.66,5.04,14.27,10.03,20.78,3.27,4.27,8.7,9.28,15.97,8.92,11.33-.56,17.25-12.66,19.47-17.21,6.03-12.35,8.79-26.15,10.51-36.79,2.5-15.43,3.62-32.2,3.35-49.86-.28-17.7-1.86-33.54-4.84-48.42-2.18-10.9-5.28-23.51-11.72-34.38C137.71,2.76,131.08,0,125.86,0c-1.13,0-2.19.13-3.17.34-10.72,2.27-16.05,14.36-18.33,19.52-1.35,3.07-2.59,6.38-3.75,10.08,4.46-1.62,9.08-2.81,13.82-3.55Z"/>
    <path class="cls-3" d="M42.92,90.2c2.51,2.77,5.36,5.52,8.68,8.4.09-4.97.66-9.85,1.7-14.61-.56-.58-1.1-1.16-1.63-1.73-2.35-2.59-8.6-9.48-7.58-14.27.72-3.4,7.46-4.54,10.32-4.87,10.79-1.25,22.34.85,32.22,3.07,14.1,3.17,28.54,7.95,44.16,14.61,15.61,6.66,29.86,14.18,42.35,22.35,8.34,5.46,18.92,12.92,26.74,22.26,4.93,5.88,6.89,10.23,5.85,12.93-.82,2.12-4.35,3.25-6.38,3.74-4,.96-8.25,1.14-12.36.97-2.37,3.33-5.02,6.49-7.95,9.45-.51.52-1.03,1.02-1.56,1.52.33.1.68.17,1.04.21,7.07.77,15.41,1.3,23.58-.66,5.23-1.25,12.02-4.17,14.65-10.96,4.1-10.58-4.55-20.9-7.81-24.79-8.82-10.53-20.31-18.66-29.33-24.56-13.08-8.56-27.94-16.41-44.19-23.34-16.29-6.95-31.4-11.94-46.2-15.27-8.5-1.91-18.18-3.73-28.01-3.73-2.72,0-5.44.14-8.16.45-14.83,1.72-19.34,8.64-20.52,14.14-2.29,10.72,6.59,20.5,10.38,24.68Z"/>
  </g>
</svg>