<?xml version="1.0" encoding="UTF-8"?>
<svg id="Camada_1" data-name="Camada 1" xmlns="http://www.w3.org/2000/svg" xmlns:xlink="http://www.w3.org/1999/xlink" viewBox="0 0 250 290">
  <defs>
    <style>
      .cls-1 {
        fill: url(#Gradiente_sem_nome_49-8);
      }

      .cls-2 {
        fill: url(#Gradiente_sem_nome_49-5);
      }

      .cls-3 {
        fill: url(#Gradiente_sem_nome_49-9);
      }

      .cls-4 {
        fill: url(#Gradiente_sem_nome_49-13);
      }

      .cls-5 {
        fill: url(#Gradiente_sem_nome_49-7);
      }

      .cls-6 {
        fill: url(#Gradiente_sem_nome_49-12);
      }

      .cls-7 {
        fill: url(#Gradiente_sem_nome_49-2);
      }

      .cls-8 {
        fill: url(#Gradiente_sem_nome_49-6);
      }

      .cls-9 {
        fill: url(#Gradiente_sem_nome_49-11);
      }

      .cls-10 {
        fill: url(#Gradiente_sem_nome_49-10);
      }

      .cls-11 {
        fill: url(#Gradiente_sem_nome_49-3);
      }

      .cls-12 {
        fill: #ededed;
      }

      .cls-13 {
        fill: url(#Gradiente_sem_nome_49);
      }

      .cls-14 {
        fill: url(#Gradiente_sem_nome_49-4);
      }
    </style>
    <linearGradient id="Gradiente_sem_nome_49" data-name="Gradiente sem nome 49" x1="169.09" y1="78.3" x2="189.89" y2="78.3" gradientUnits="userSpaceOnUse">
      <stop offset="0" stop-color="#fff"/>
      <stop offset="1" stop-color="#b3b3b3"/>
    </linearGradient>
    <linearGradient id="Gradiente_sem_nome_49-2" data-name="Gradiente sem nome 49" x1="24.31" y1="119.66" x2="223.11" y2="119.66" xlink:href="#Gradiente_sem_nome_49"/>
    <linearGradient id="Gradiente_sem_nome_49-3" data-name="Gradiente sem nome 49" x1="24.31" y1="119.66" x2="223.11" y2="119.66" xlink:href="#Gradiente_sem_nome_49"/>
    <linearGradient id="Gradiente_sem_nome_49-4" data-name="Gradiente sem nome 49" x1="24.31" y1="106.23" x2="223.11" y2="106.23" xlink:href="#Gradiente_sem_nome_49"/>
    <linearGradient id="Gradiente_sem_nome_49-5" data-name="Gradiente sem nome 49" x1="24.31" y1="68.87" x2="223.11" y2="68.87" xlink:href="#Gradiente_sem_nome_49"/>
    <linearGradient id="Gradiente_sem_nome_49-6" data-name="Gradiente sem nome 49" x1="24.31" y1="165.59" x2="223.11" y2="165.59" xlink:href="#Gradiente_sem_nome_49"/>
    <linearGradient id="Gradiente_sem_nome_49-7" data-name="Gradiente sem nome 49" x1="24.31" y1="25.29" x2="223.11" y2="25.29" xlink:href="#Gradiente_sem_nome_49"/>
    <linearGradient id="Gradiente_sem_nome_49-8" data-name="Gradiente sem nome 49" x1="24.31" y1="138.57" x2="223.11" y2="138.57" xlink:href="#Gradiente_sem_nome_49"/>
    <linearGradient id="Gradiente_sem_nome_49-9" data-name="Gradiente sem nome 49" x1="24.31" y1="75.87" x2="223.11" y2="75.87" xlink:href="#Gradiente_sem_nome_49"/>
    <linearGradient id="Gradiente_sem_nome_49-10" data-name="Gradiente sem nome 49" x1="24.31" y1="75.87" x2="223.11" y2="75.87" xlink:href="#Gradiente_sem_nome_49"/>
    <linearGradient id="Gradiente_sem_nome_49-11" data-name="Gradiente sem nome 49" x1="24.31" y1="78.22" x2="223.11" y2="78.22" xlink:href="#Gradiente_sem_nome_49"/>
    <linearGradient id="Gradiente_sem_nome_49-12" data-name="Gradiente sem nome 49" x1="24.31" y1="184.27" x2="223.11" y2="184.27" xlink:href="#Gradiente_sem_nome_49"/>
    <linearGradient id="Gradiente_sem_nome_49-13" data-name="Gradiente sem nome 49" x1="52.84" x2="258.4" xlink:href="#Gradiente_sem_nome_49"/>
  </defs>
  <g>
    <g>
      <path class="cls-12" d="M34.03,260.98c1.66-2.9,3.92-5.16,6.78-6.78,2.86-1.62,6.08-2.43,9.64-2.43,4.17,0,7.81,1.07,10.95,3.2s5.32,5.09,6.57,8.87h-8.6c-.85-1.78-2.06-3.12-3.61-4.01-1.55-.89-3.34-1.33-5.37-1.33-2.17,0-4.1.51-5.79,1.52-1.69,1.01-3.01,2.45-3.95,4.3-.94,1.85-1.41,4.02-1.41,6.52s.47,4.62,1.41,6.49c.94,1.87,2.26,3.31,3.95,4.33s3.62,1.52,5.79,1.52c2.03,0,3.82-.45,5.37-1.36,1.55-.91,2.75-2.25,3.61-4.03h8.6c-1.25,3.81-3.43,6.77-6.54,8.89s-6.77,3.18-10.97,3.18c-3.56,0-6.78-.81-9.64-2.43-2.87-1.62-5.13-3.87-6.78-6.76-1.65-2.88-2.48-6.16-2.48-9.83s.83-6.95,2.48-9.85Z"/>
      <path class="cls-12" d="M96.49,260.98c1.74.98,3.1,2.42,4.09,4.33.98,1.9,1.47,4.19,1.47,6.86v17.36h-7.48v-16.34c0-2.35-.59-4.16-1.76-5.42s-2.78-1.9-4.81-1.9-3.69.63-4.89,1.9-1.79,3.07-1.79,5.42v16.34h-7.48v-39.52h7.48v13.62c.96-1.28,2.24-2.29,3.85-3.02,1.6-.73,3.38-1.09,5.34-1.09,2.24,0,4.24.49,5.98,1.47Z"/>
      <path class="cls-12" d="M108.48,266.66c1.19-2.31,2.81-4.09,4.86-5.34s4.33-1.87,6.86-1.87c2.21,0,4.14.45,5.79,1.33,1.66.89,2.98,2.01,3.98,3.36v-4.22h7.53v29.59h-7.53v-4.33c-.96,1.39-2.29,2.54-3.98,3.44-1.69.91-3.64,1.36-5.85,1.36-2.49,0-4.76-.64-6.81-1.92s-3.67-3.09-4.86-5.42c-1.19-2.33-1.79-5.01-1.79-8.04s.59-5.64,1.79-7.96ZM128.91,270.05c-.71-1.3-1.67-2.3-2.88-2.99-1.21-.69-2.51-1.04-3.9-1.04s-2.67.34-3.85,1.02-2.13,1.66-2.86,2.96c-.73,1.3-1.09,2.84-1.09,4.62s.36,3.34,1.09,4.67c.73,1.34,1.69,2.36,2.88,3.07s2.47,1.07,3.82,1.07,2.69-.35,3.9-1.04,2.17-1.69,2.88-2.99c.71-1.3,1.07-2.86,1.07-4.67s-.36-3.37-1.07-4.67Z"/>
      <path class="cls-12" d="M153,266.08v14.31c0,1,.24,1.72.72,2.16.48.45,1.29.67,2.43.67h3.47v6.3h-4.7c-6.3,0-9.45-3.06-9.45-9.19v-14.26h-3.53v-6.14h3.53v-7.32h7.53v7.32h6.62v6.14h-6.62Z"/>
      <path class="cls-12" d="M190.8,273.55c1.35,1.71,2.03,3.67,2.03,5.88,0,1.99-.49,3.75-1.47,5.26-.98,1.51-2.39,2.7-4.25,3.55s-4.04,1.28-6.57,1.28h-16.08v-37.28h15.38c2.53,0,4.71.41,6.54,1.23,1.83.82,3.22,1.96,4.17,3.42s1.42,3.12,1.42,4.97c0,2.17-.58,3.99-1.74,5.45-1.16,1.46-2.7,2.49-4.62,3.1,2.1.39,3.83,1.44,5.18,3.15ZM171.95,267.62h6.83c1.78,0,3.15-.4,4.11-1.2.96-.8,1.44-1.95,1.44-3.44s-.48-2.65-1.44-3.47c-.96-.82-2.33-1.23-4.11-1.23h-6.83v9.35ZM183.73,282.15c1.02-.85,1.52-2.06,1.52-3.63s-.53-2.86-1.6-3.77c-1.07-.91-2.51-1.36-4.33-1.36h-7.37v10.04h7.53c1.81,0,3.23-.43,4.24-1.28Z"/>
      <path class="cls-12" d="M203.73,288.1c-2.28-1.26-4.07-3.05-5.37-5.37-1.3-2.31-1.95-4.98-1.95-8.01s.67-5.7,2-8.01,3.16-4.1,5.47-5.37c2.32-1.26,4.9-1.9,7.74-1.9s5.43.63,7.74,1.9c2.32,1.26,4.14,3.05,5.47,5.37,1.34,2.31,2,4.98,2,8.01s-.69,5.7-2.06,8.01c-1.37,2.32-3.22,4.1-5.55,5.37-2.33,1.26-4.94,1.9-7.82,1.9s-5.41-.63-7.69-1.9ZM215.24,282.5c1.19-.66,2.14-1.65,2.86-2.96s1.07-2.92,1.07-4.81c0-2.81-.74-4.97-2.22-6.49-1.48-1.51-3.28-2.27-5.42-2.27s-3.92.76-5.37,2.27c-1.44,1.51-2.16,3.68-2.16,6.49s.7,4.98,2.11,6.49c1.41,1.51,3.18,2.27,5.31,2.27,1.35,0,2.63-.33,3.82-.99Z"/>
      <path class="cls-12" d="M240.52,266.08v14.31c0,1,.24,1.72.72,2.16.48.45,1.29.67,2.43.67h3.47v6.3h-4.7c-6.3,0-9.45-3.06-9.45-9.19v-14.26h-3.53v-6.14h3.53v-7.32h7.53v7.32h6.62v6.14h-6.62Z"/>
    </g>
    <path class="cls-12" d="M19.65,268.64c-1.76,0-3.19-1.43-3.19-3.19v-6.09h-4.33v9.28H2.86v4.33h6.09c1.76,0,3.19,1.43,3.19,3.19v6.09h4.33v-9.28h9.28v-4.33h-6.09Z"/>
  </g>
  <g>
    <path class="cls-13" d="M169.09,95.34h8.27c6.91,0,12.53-5.62,12.53-12.53v-9.02c0-6.91-5.62-12.53-12.53-12.53h-8.27v34.08ZM177.36,68.27c3.04,0,5.52,2.47,5.52,5.52v9.02c0,3.04-2.48,5.52-5.52,5.52h-1.25v-20.06h1.25Z"/>
    <g>
      <path class="cls-7" d="M105.01,135.08c-2.44,0-4.41-1.98-4.41-4.41v-22.02c0-2.44,1.98-4.41,4.41-4.41s4.41,1.98,4.41,4.41v22.02c0,2.44-1.98,4.41-4.41,4.41Z"/>
      <path class="cls-11" d="M142.49,135.08c-2.44,0-4.41-1.98-4.41-4.41v-22.02c0-2.44,1.98-4.41,4.41-4.41s4.41,1.98,4.41,4.41v22.02c0,2.44-1.98,4.41-4.41,4.41Z"/>
    </g>
    <path class="cls-14" d="M181.03,175.1c-3.65,0-6.62-2.96-6.62-6.62s2.96-6.62,6.62-6.62c16.95,0,30.74-13.79,30.74-30.74V43.97c0-3.66,2.96-6.62,6.62-6.62s6.62,2.96,6.62,6.62v87.16c0,24.25-19.73,43.97-43.97,43.97Z"/>
    <path class="cls-2" d="M31.62,137.75c-3.65,0-6.62-2.96-6.62-6.62V43.97C25,19.73,44.73,0,68.97,0c3.65,0,6.62,2.96,6.62,6.62s-2.96,6.62-6.62,6.62c-16.95,0-30.74,13.79-30.74,30.74v87.16c0,3.66-2.96,6.62-6.62,6.62Z"/>
    <path class="cls-8" d="M31.62,206.67c-3.65,0-6.62-2.96-6.62-6.62v-68.93c0-3.66,2.96-6.62,6.62-6.62s6.62,2.96,6.62,6.62v68.93c0,3.66-2.96,6.62-6.62,6.62Z"/>
    <path class="cls-5" d="M218.38,50.59c-3.65,0-6.62-2.96-6.62-6.62,0-16.95-13.79-30.74-30.74-30.74h-112.06c-3.65,0-6.62-2.96-6.62-6.62s2.96-6.62,6.62-6.62h112.06c24.25,0,43.97,19.73,43.97,43.97,0,3.66-2.96,6.62-6.62,6.62Z"/>
    <path class="cls-1" d="M180.64,150.89c-2.44,0-4.41-1.98-4.41-4.41,0-6.29-5.12-11.4-11.4-11.4h-82.16c-6.29,0-11.4,5.11-11.4,11.4,0,2.44-1.98,4.41-4.41,4.41s-4.41-1.98-4.41-4.41c0-11.15,9.07-20.23,20.23-20.23h82.16c11.15,0,20.23,9.07,20.23,20.23,0,2.44-1.98,4.41-4.41,4.41Z"/>
    <g>
      <path class="cls-3" d="M114.29,84.62c-1.83,0-3.31-1.48-3.31-3.31,0-4.17-3.39-7.56-7.56-7.56s-7.56,3.39-7.56,7.56c0,1.83-1.48,3.31-3.31,3.31s-3.31-1.48-3.31-3.31c0-7.82,6.36-14.18,14.18-14.18s14.18,6.36,14.18,14.18c0,1.83-1.48,3.31-3.31,3.31Z"/>
      <path class="cls-10" d="M154.95,84.62c-1.83,0-3.31-1.48-3.31-3.31,0-4.17-3.39-7.56-7.56-7.56s-7.56,3.39-7.56,7.56c0,1.83-1.48,3.31-3.31,3.31s-3.31-1.48-3.31-3.31c0-7.82,6.36-14.18,14.18-14.18s14.18,6.36,14.18,14.18c0,1.83-1.48,3.31-3.31,3.31Z"/>
    </g>
    <path class="cls-9" d="M154.18,113.06h-60.86c-12.02,0-21.8-9.78-21.8-21.8v-26.08c0-12.02,9.78-21.8,21.8-21.8h60.86c12.02,0,21.8,9.78,21.8,21.8v26.08c0,12.02-9.78,21.8-21.8,21.8ZM93.32,52.2c-7.16,0-12.98,5.82-12.98,12.98v26.08c0,7.16,5.82,12.98,12.98,12.98h60.86c7.16,0,12.98-5.82,12.98-12.98v-26.08c0-7.16-5.82-12.98-12.98-12.98h-60.86Z"/>
    <path class="cls-6" d="M31.62,206.67c-1.88,0-3.75-.8-5.06-2.35-2.36-2.79-2.01-6.97.78-9.33l39.2-33.14h114.48c3.65,0,6.62,2.96,6.62,6.62s-2.96,6.62-6.62,6.62h-109.64l-35.5,30.01c-1.24,1.05-2.76,1.56-4.27,1.56Z"/>
    <path class="cls-4" d="M79.46,95.34h-8.27c-6.91,0-12.53-5.62-12.53-12.53v-9.02c0-6.91,5.62-12.53,12.53-12.53h8.27v34.08ZM71.2,68.27c-3.04,0-5.52,2.47-5.52,5.52v9.02c0,3.04,2.48,5.52,5.52,5.52h1.25v-20.06h-1.25Z"/>
  </g>
</svg>