<?xml version="1.0" encoding="UTF-8"?>
<svg id="Camada_1" data-name="Camada 1" xmlns="http://www.w3.org/2000/svg" xmlns:xlink="http://www.w3.org/1999/xlink" viewBox="0 0 200 290">
  <defs>
    <style>
      .cls-1 {
        fill: url(#linear-gradient-2);
      }

      .cls-2 {
        fill: #43caff;
      }

      .cls-3 {
        fill: url(#linear-gradient-4);
      }

      .cls-4 {
        fill: url(#linear-gradient-3);
      }

      .cls-5 {
        fill: #243a83;
      }

      .cls-6 {
        fill: url(#linear-gradient);
      }
    </style>
    <linearGradient id="linear-gradient" x1="-3.2" y1="151.97" x2="207.54" y2="151.97" gradientUnits="userSpaceOnUse">
      <stop offset="0" stop-color="#3db6f3"/>
      <stop offset=".2" stop-color="#3db6f3"/>
      <stop offset="1" stop-color="#3a60ff"/>
    </linearGradient>
    <linearGradient id="linear-gradient-2" x1="-3.2" y1="53.84" x2="207.54" y2="53.84" xlink:href="#linear-gradient"/>
    <linearGradient id="linear-gradient-3" x1="-3.2" y1="59.48" x2="207.54" y2="59.48" xlink:href="#linear-gradient"/>
    <linearGradient id="linear-gradient-4" x1="-3.2" y1="104.55" x2="207.54" y2="104.55" xlink:href="#linear-gradient"/>
  </defs>
  <g>
    <g>
      <path class="cls-5" d="M54.99,260.04v8.83h11.85v5.6h-11.85v9.33h13.37v5.75h-20.43v-35.26h20.43v5.75h-13.37Z"/>
      <path class="cls-5" d="M117.26,264.35c2.1,2.1,3.15,5.04,3.15,8.8v16.39h-7.06v-15.44c0-2.19-.55-3.86-1.66-5.02-1.11-1.16-2.62-1.74-4.54-1.74s-3.44.58-4.56,1.74c-1.13,1.16-1.69,2.83-1.69,5.02v15.44h-7.06v-15.44c0-2.19-.55-3.86-1.66-5.02-1.11-1.16-2.62-1.74-4.54-1.74s-3.49.58-4.62,1.74c-1.13,1.16-1.69,2.83-1.69,5.02v15.44h-7.06v-27.94h7.06v3.38c.91-1.18,2.08-2.1,3.51-2.77,1.43-.67,3-1.01,4.72-1.01,2.19,0,4.14.46,5.85,1.39,1.72.93,3.04,2.24,3.99,3.96.91-1.61,2.23-2.91,3.96-3.88,1.73-.97,3.61-1.46,5.62-1.46,3.43,0,6.2,1.05,8.3,3.15Z"/>
      <path class="cls-5" d="M126.49,267.96c1.13-2.19,2.66-3.87,4.59-5.04,1.93-1.18,4.09-1.77,6.48-1.77,2.09,0,3.91.42,5.47,1.26,1.56.84,2.82,1.9,3.76,3.18v-3.98h7.11v27.94h-7.11v-4.09c-.91,1.31-2.16,2.4-3.76,3.25-1.6.86-3.44,1.29-5.52,1.29-2.35,0-4.5-.61-6.43-1.82-1.93-1.21-3.46-2.92-4.59-5.12-1.13-2.2-1.69-4.73-1.69-7.59s.56-5.33,1.69-7.52ZM145.78,271.16c-.67-1.23-1.58-2.17-2.72-2.82-1.14-.66-2.37-.98-3.68-.98s-2.52.32-3.63.96c-1.11.64-2.01,1.57-2.7,2.8-.69,1.23-1.03,2.68-1.03,4.36s.34,3.15,1.03,4.41c.69,1.26,1.6,2.23,2.72,2.9,1.13.67,2.33,1.01,3.61,1.01s2.54-.33,3.68-.98c1.14-.66,2.05-1.6,2.72-2.82.67-1.23,1.01-2.7,1.01-4.41s-.34-3.19-1.01-4.41Z"/>
      <path class="cls-5" d="M160.79,257.09c-.82-.79-1.24-1.77-1.24-2.95s.41-2.16,1.24-2.95c.82-.79,1.86-1.19,3.1-1.19s2.28.4,3.1,1.19c.82.79,1.24,1.77,1.24,2.95s-.41,2.16-1.24,2.95c-.82.79-1.86,1.19-3.1,1.19s-2.28-.39-3.1-1.19ZM167.37,261.6v27.94h-7.06v-27.94h7.06Z"/>
      <path class="cls-5" d="M180.89,252.22v37.33h-7.06v-37.33h7.06Z"/>
    </g>
    <path class="cls-2" d="M34.97,269.83c-1.66,0-3.01-1.35-3.01-3.01v-5.75h-4.09v8.77h-8.77v4.09h5.75c1.66,0,3.01,1.35,3.01,3.01v5.75h4.09v-8.77h8.77v-4.09h-5.75Z"/>
  </g>
  <g>
    <path class="cls-6" d="M154.08,166.26l-.8.62c-15.11,11.81-34.04,18.31-53.28,18.31-46.13,0-82.39-34.88-83.51-79.79-.27,4.31-3.82,7.73-8.2,7.73S.04,109.44.04,104.88c0-.55-.04-1.08-.04-1.63H0C0,157.89,44.03,200.69,100.23,200.69c22.86,0,44.87-7.25,61.97-20.42l.75-.58c3.72-2.48,4.69-7.47,2.23-11.17-2.46-3.69-7.44-4.7-11.1-2.26Z"/>
    <path class="cls-1" d="M100.94,5.84c-.26,0-.5.02-.76.02,4.2.1,7.58,3.52,7.58,7.74s-3.47,7.76-7.75,7.76h0c.31,0,.62-.02.94-.02,46.6,0,83.1,35.37,83.1,80.52-.13-4.41,3.34-8.08,7.75-8.21,4.4-.13,8.08,3.34,8.21,7.74h0c0-54.47-42.59-95.55-99.06-95.55Z"/>
    <path class="cls-4" d="M107.75,13.59c0-4.28-3.47-7.76-7.75-7.76h0C43.85,6.31,0,48.91,0,103.24c0,.55.03,1.1.04,1.65,0,4.55,3.69,8.25,8.25,8.25s8.25-3.69,8.25-8.25h-.02c-.01-.55-.08-1.09-.08-1.65,0-44.87,37.41-81.39,83.57-81.88h0c4.28,0,7.75-3.48,7.75-7.76Z"/>
    <path class="cls-3" d="M199.99,101.39c-.13-4.4-3.8-7.87-8.21-7.74-4.41.13-7.87,3.8-7.75,8.21,0,21.33-8.21,33.57-22.54,33.57-10.75,0-16.2-7.9-16.2-23.47v-45.07l-1.2-.38c-15.3-4.88-29.76-9.48-46.92-9.48-27.88,0-48.12,20.04-48.12,47.65s20.08,47.42,46.71,47.42c13.64,0,25.81-5.36,34.27-15.08l.93-1.06.71,1.22c5.67,9.72,15.43,14.45,29.81,14.45,24.47,0,38.5-18.31,38.5-50.23h0ZM126.35,119.04c-8.83,14.15-22.19,15.68-27.53,15.68-19.52,0-30.05-15.6-30.05-30.28,0-19.67,15.48-30.29,30.05-30.29,8.12,0,16.17,1.98,26.52,5.18l.71.22v28.16c0,3.67.22,7.31.45,10.71l.02.32-.17.28Z"/>
  </g>
</svg>