<?xml version="1.0" encoding="UTF-8"?>
<svg id="Camada_1" data-name="Camada 1" xmlns="http://www.w3.org/2000/svg" xmlns:xlink="http://www.w3.org/1999/xlink" viewBox="0 0 250 290">
  <defs>
    <style>
      .cls-1 {
        fill: url(#Gradiente_sem_nome_49-8);
      }

      .cls-2 {
        fill: url(#Gradiente_sem_nome_49-5);
      }

      .cls-3 {
        fill: url(#Gradiente_sem_nome_49-9);
      }

      .cls-4 {
        fill: url(#Gradiente_sem_nome_49-7);
      }

      .cls-5 {
        fill: url(#Gradiente_sem_nome_49-12);
      }

      .cls-6 {
        fill: url(#Gradiente_sem_nome_49-2);
      }

      .cls-7 {
        fill: url(#Gradiente_sem_nome_49-6);
      }

      .cls-8 {
        fill: url(#Gradiente_sem_nome_49-11);
      }

      .cls-9 {
        fill: url(#Gradiente_sem_nome_49-10);
      }

      .cls-10 {
        fill: url(#Gradiente_sem_nome_49-3);
      }

      .cls-11 {
        fill: #ededed;
      }

      .cls-12 {
        fill: url(#Gradiente_sem_nome_49);
      }

      .cls-13 {
        fill: url(#Gradiente_sem_nome_49-4);
      }
    </style>
    <linearGradient id="Gradiente_sem_nome_49" data-name="Gradiente sem nome 49" x1="20.21" y1="131.6" x2="223.62" y2="131.6" gradientUnits="userSpaceOnUse">
      <stop offset="0" stop-color="#fff"/>
      <stop offset="1" stop-color="#b3b3b3"/>
    </linearGradient>
    <linearGradient id="Gradiente_sem_nome_49-2" data-name="Gradiente sem nome 49" x1="20.21" x2="223.62" xlink:href="#Gradiente_sem_nome_49"/>
    <linearGradient id="Gradiente_sem_nome_49-3" data-name="Gradiente sem nome 49" x1="20.21" y1="142.78" x2="223.62" y2="142.78" xlink:href="#Gradiente_sem_nome_49"/>
    <linearGradient id="Gradiente_sem_nome_49-4" data-name="Gradiente sem nome 49" x1="20.21" y1="161.64" x2="223.62" y2="161.64" xlink:href="#Gradiente_sem_nome_49"/>
    <linearGradient id="Gradiente_sem_nome_49-5" data-name="Gradiente sem nome 49" x1="20.21" x2="223.62" xlink:href="#Gradiente_sem_nome_49"/>
    <linearGradient id="Gradiente_sem_nome_49-6" data-name="Gradiente sem nome 49" x1="20.21" x2="223.62" xlink:href="#Gradiente_sem_nome_49"/>
    <linearGradient id="Gradiente_sem_nome_49-7" data-name="Gradiente sem nome 49" x1="20.21" y1="145.02" x2="223.62" y2="145.02" xlink:href="#Gradiente_sem_nome_49"/>
    <linearGradient id="Gradiente_sem_nome_49-8" data-name="Gradiente sem nome 49" x1="20.21" y1="159.36" x2="223.62" y2="159.36" xlink:href="#Gradiente_sem_nome_49"/>
    <linearGradient id="Gradiente_sem_nome_49-9" data-name="Gradiente sem nome 49" x1="20.21" y1="52.32" x2="223.62" y2="52.32" xlink:href="#Gradiente_sem_nome_49"/>
    <linearGradient id="Gradiente_sem_nome_49-10" data-name="Gradiente sem nome 49" x1="20.21" y1="52.32" x2="223.62" y2="52.32" xlink:href="#Gradiente_sem_nome_49"/>
    <linearGradient id="Gradiente_sem_nome_49-11" data-name="Gradiente sem nome 49" x1="20.21" y1="63.67" x2="223.62" y2="63.67" xlink:href="#Gradiente_sem_nome_49"/>
    <linearGradient id="Gradiente_sem_nome_49-12" data-name="Gradiente sem nome 49" x1="20.21" y1="83.71" x2="223.62" y2="83.71" xlink:href="#Gradiente_sem_nome_49"/>
  </defs>
  <g>
    <g>
      <path class="cls-12" d="M188.49,123.46c-4.57,0-8.14,3.58-8.14,8.14s3.58,8.14,8.14,8.14,8.14-3.58,8.14-8.14-3.58-8.14-8.14-8.14Z"/>
      <path class="cls-6" d="M153.74,123.46c-4.49,0-8.14,3.65-8.14,8.14s3.58,8.14,8.14,8.14,8.14-3.58,8.14-8.14-3.58-8.14-8.14-8.14Z"/>
    </g>
    <path class="cls-10" d="M171.39,203.12c-.31,0-.63,0-.94,0-13.34-.22-26.01-4.74-36.63-13.09-2.72-2.14-3.19-6.07-1.06-8.79,2.14-2.72,6.08-3.19,8.79-1.06,8.45,6.64,18.51,10.24,29.09,10.41,12.64.16,24.75-4.6,33.89-13.5,9.15-8.92,14.3-20.89,14.49-33.72.2-22.62-14.91-42.04-36.75-47.19-2.76-.59-5.68-1.01-8.55-1.21-3.45-.24-6.05-3.24-5.8-6.69.24-3.45,3.23-6.08,6.69-5.8,3.45.24,6.95.75,10.41,1.49,27.69,6.53,46.77,31.01,46.52,59.56-.24,16.2-6.74,31.3-18.28,42.54-11.31,11.02-26.16,17.06-41.89,17.06Z"/>
    <path class="cls-13" d="M148.05,173.92c-.96,0-1.93-.24-2.82-.75-2.73-1.56-3.68-5.04-2.12-7.77,5.65-9.9,16.43-16.05,28.11-16.05s22.07,5.96,28.05,15.94c1.62,2.7.74,6.19-1.95,7.81-2.69,1.62-6.19.74-7.81-1.95-3.91-6.52-10.75-10.41-18.29-10.41s-14.6,3.95-18.23,10.31c-1.05,1.84-2.97,2.87-4.95,2.87Z"/>
    <g>
      <path class="cls-2" d="M96.03,123.46c-4.57,0-8.14,3.58-8.14,8.14s3.58,8.14,8.14,8.14,8.14-3.58,8.14-8.14-3.58-8.14-8.14-8.14Z"/>
      <path class="cls-7" d="M61.28,123.46c-4.49,0-8.14,3.65-8.14,8.14s3.58,8.14,8.14,8.14,8.14-3.58,8.14-8.14-3.58-8.14-8.14-8.14Z"/>
    </g>
    <path class="cls-4" d="M78.77,203.34c-33.27,0-60.33-27.06-60.33-60.33,0-24.66,14.76-46.58,37.6-55.84,3.21-1.3,6.86.25,8.16,3.45,1.3,3.21-.24,6.86-3.45,8.16-18.09,7.34-29.79,24.71-29.79,44.24,0,26.36,21.45,47.8,47.8,47.8s47.8-21.45,47.8-47.8c0-7.72-1.74-14.91-5.17-21.37-1.62-3.05-.46-6.85,2.59-8.47,3.05-1.62,6.85-.46,8.47,2.59,4.4,8.29,6.64,17.46,6.64,27.25,0,33.27-27.06,60.33-60.33,60.33Z"/>
    <path class="cls-1" d="M100.8,165.06h-44.3c-3.15,0-5.69-2.55-5.69-5.69s2.55-5.69,5.69-5.69h44.3c3.15,0,5.69,2.55,5.69,5.69s-2.55,5.69-5.69,5.69Z"/>
    <g>
      <path class="cls-3" d="M142.15,44.17c-4.49,0-8.14,3.65-8.14,8.14s3.58,8.14,8.14,8.14,8.14-3.58,8.14-8.14-3.58-8.14-8.14-8.14Z"/>
      <path class="cls-9" d="M107.39,44.17c-4.34,0-8.14,3.81-8.14,8.14,0,4.57,3.58,8.14,8.14,8.14s8.14-3.58,8.14-8.14-3.58-8.14-8.14-8.14Z"/>
    </g>
    <path class="cls-8" d="M124.85,124c-16.11,0-31.26-6.28-42.66-17.67-11.39-11.4-17.67-26.55-17.67-42.66s6.28-31.26,17.67-42.66c11.4-11.39,26.55-17.67,42.66-17.67s31.26,6.28,42.66,17.67c11.39,11.4,17.67,26.55,17.67,42.66s-6.28,31.26-17.67,42.66c-11.4,11.39-26.55,17.67-42.66,17.67ZM124.85,15.88c-12.24,0-24.48,4.66-33.8,13.98-18.64,18.64-18.64,48.97,0,67.6,18.64,18.64,48.97,18.64,67.6,0,18.64-18.64,18.64-48.97,0-67.6-9.32-9.32-21.56-13.98-33.8-13.98Z"/>
    <path class="cls-5" d="M124.66,96c-11.58,0-22.06-5.96-28.05-15.94-1.62-2.7-.74-6.19,1.95-7.81,2.7-1.62,6.19-.75,7.81,1.95,3.91,6.52,10.75,10.41,18.29,10.41s14.59-3.95,18.23-10.31c1.56-2.73,5.04-3.68,7.77-2.12,2.73,1.56,3.68,5.04,2.12,7.77-5.66,9.9-16.43,16.04-28.11,16.04Z"/>
  </g>
  <g>
    <g>
      <path class="cls-11" d="M36.59,254.34v35.21h-7.06v-35.21h7.06Z"/>
      <path class="cls-11" d="M66.6,264.35c2.05,2.1,3.08,5.04,3.08,8.8v16.39h-7.06v-15.43c0-2.22-.56-3.93-1.67-5.12-1.11-1.19-2.62-1.79-4.54-1.79s-3.49.6-4.61,1.79c-1.13,1.19-1.69,2.9-1.69,5.12v15.43h-7.06v-27.94h7.06v3.48c.94-1.21,2.14-2.16,3.61-2.85,1.46-.69,3.07-1.03,4.82-1.03,3.33,0,6.02,1.05,8.07,3.15Z"/>
      <path class="cls-11" d="M84.1,267.4v13.52c0,.94.23,1.62.68,2.04.45.42,1.22.63,2.29.63h3.28v5.95h-4.44c-5.95,0-8.93-2.89-8.93-8.68v-13.47h-3.33v-5.8h3.33v-6.91h7.11v6.91h6.26v5.8h-6.26Z"/>
      <path class="cls-11" d="M120.72,277.69h-20.43c.17,2.02.87,3.6,2.12,4.74,1.24,1.14,2.78,1.72,4.59,1.72,2.62,0,4.49-1.13,5.6-3.38h7.62c-.81,2.69-2.35,4.9-4.64,6.63-2.29,1.73-5.09,2.6-8.42,2.6-2.69,0-5.1-.6-7.24-1.79-2.14-1.19-3.8-2.88-4.99-5.07-1.19-2.19-1.79-4.71-1.79-7.57s.59-5.43,1.77-7.62c1.18-2.19,2.83-3.87,4.94-5.04,2.12-1.18,4.56-1.77,7.31-1.77s5.04.57,7.14,1.71c2.1,1.14,3.73,2.77,4.89,4.87,1.16,2.1,1.74,4.51,1.74,7.24,0,1.01-.07,1.92-.2,2.72ZM113.61,272.95c-.03-1.82-.69-3.27-1.97-4.36s-2.84-1.64-4.69-1.64c-1.75,0-3.22.53-4.41,1.59-1.2,1.06-1.93,2.53-2.19,4.41h13.27Z"/>
      <path class="cls-11" d="M149.12,264.35c2.05,2.1,3.08,5.04,3.08,8.8v16.39h-7.06v-15.43c0-2.22-.56-3.93-1.66-5.12s-2.62-1.79-4.54-1.79-3.49.6-4.61,1.79c-1.13,1.19-1.69,2.9-1.69,5.12v15.43h-7.06v-27.94h7.06v3.48c.94-1.21,2.14-2.16,3.61-2.85,1.46-.69,3.07-1.03,4.82-1.03,3.33,0,6.02,1.05,8.07,3.15Z"/>
      <path class="cls-11" d="M166.62,267.4v13.52c0,.94.23,1.62.68,2.04.45.42,1.22.63,2.29.63h3.28v5.95h-4.44c-5.95,0-8.93-2.89-8.93-8.68v-13.47h-3.33v-5.8h3.33v-6.91h7.11v6.91h6.26v5.8h-6.26Z"/>
      <path class="cls-11" d="M177.95,257.09c-.82-.79-1.24-1.77-1.24-2.95s.41-2.16,1.24-2.95c.82-.79,1.86-1.19,3.1-1.19s2.28.4,3.1,1.19c.82.79,1.24,1.77,1.24,2.95s-.41,2.16-1.24,2.95c-.82.79-1.86,1.18-3.1,1.18s-2.28-.39-3.1-1.18ZM184.53,261.6v27.94h-7.06v-27.94h7.06Z"/>
      <path class="cls-11" d="M196.13,288.21c-2.15-1.19-3.84-2.88-5.07-5.07-1.23-2.19-1.84-4.71-1.84-7.57s.63-5.38,1.89-7.57,2.98-3.88,5.17-5.07c2.19-1.19,4.62-1.79,7.31-1.79s5.13.6,7.31,1.79c2.19,1.19,3.91,2.88,5.17,5.07,1.26,2.19,1.89,4.71,1.89,7.57s-.65,5.38-1.94,7.57c-1.3,2.19-3.04,3.88-5.25,5.07-2.2,1.19-4.66,1.79-7.39,1.79s-5.11-.6-7.26-1.79ZM207,282.91c1.13-.62,2.03-1.55,2.7-2.8s1.01-2.76,1.01-4.54c0-2.66-.7-4.7-2.09-6.13-1.4-1.43-3.1-2.14-5.12-2.14s-3.71.71-5.07,2.14c-1.36,1.43-2.04,3.47-2.04,6.13s.66,4.7,1.99,6.13c1.33,1.43,3,2.14,5.02,2.14,1.28,0,2.48-.31,3.61-.93Z"/>
      <path class="cls-11" d="M246.22,264.35c2.05,2.1,3.07,5.04,3.07,8.8v16.39h-7.06v-15.43c0-2.22-.56-3.93-1.66-5.12-1.11-1.19-2.62-1.79-4.54-1.79s-3.49.6-4.62,1.79-1.69,2.9-1.69,5.12v15.43h-7.06v-27.94h7.06v3.48c.94-1.21,2.14-2.16,3.61-2.85,1.46-.69,3.07-1.03,4.82-1.03,3.33,0,6.02,1.05,8.07,3.15Z"/>
    </g>
    <path class="cls-11" d="M16.57,269.83c-1.66,0-3.01-1.35-3.01-3.01v-5.75h-4.09v8.77H.71v4.09h5.75c1.66,0,3.01,1.35,3.01,3.01v5.75h4.09v-8.77h8.77v-4.09h-5.75Z"/>
  </g>
</svg>