<?xml version="1.0" encoding="UTF-8"?>
<svg id="Camada_1" data-name="Camada 1" xmlns="http://www.w3.org/2000/svg" xmlns:xlink="http://www.w3.org/1999/xlink" viewBox="0 0 200 290">
  <defs>
    <style>
      .cls-1 {
        fill: url(#linear-gradient-2);
      }

      .cls-2 {
        fill: #43caff;
      }

      .cls-3 {
        fill: url(#linear-gradient-4);
      }

      .cls-4 {
        fill: url(#linear-gradient-3);
      }

      .cls-5 {
        fill: url(#linear-gradient-5);
      }

      .cls-6 {
        fill: #243a83;
      }

      .cls-7 {
        fill: url(#linear-gradient-7);
      }

      .cls-8 {
        fill: url(#linear-gradient-6);
      }

      .cls-9 {
        fill: url(#linear-gradient);
      }
    </style>
    <linearGradient id="linear-gradient" x1="4.82" y1="69.54" x2="205.44" y2="69.54" gradientUnits="userSpaceOnUse">
      <stop offset="0" stop-color="#3db6f3"/>
      <stop offset=".2" stop-color="#3db6f3"/>
      <stop offset="1" stop-color="#3a60ff"/>
    </linearGradient>
    <linearGradient id="linear-gradient-2" x1="4.82" y1="106.09" x2="205.44" y2="106.09" xlink:href="#linear-gradient"/>
    <linearGradient id="linear-gradient-3" x1="4.82" y1="107.92" x2="205.44" y2="107.92" xlink:href="#linear-gradient"/>
    <linearGradient id="linear-gradient-4" x1="4.82" y1="67.72" x2="205.44" y2="67.72" xlink:href="#linear-gradient"/>
    <linearGradient id="linear-gradient-5" x1="4.82" y1="164.17" x2="205.44" y2="164.17" xlink:href="#linear-gradient"/>
    <linearGradient id="linear-gradient-6" x1="4.82" y1="182.45" x2="205.44" y2="182.45" xlink:href="#linear-gradient"/>
    <linearGradient id="linear-gradient-7" x1="4.82" y1="26.9" x2="205.44" y2="26.9" xlink:href="#linear-gradient"/>
  </defs>
  <g>
    <g>
      <path class="cls-6" d="M83.06,289.61l-8.62-15.22h-3.69v15.22h-7.83v-39.05h14.66c3.02,0,5.59.53,7.72,1.59,2.13,1.06,3.72,2.5,4.78,4.31,1.06,1.81,1.59,3.83,1.59,6.07,0,2.57-.75,4.9-2.24,6.97-1.49,2.07-3.71,3.5-6.66,4.28l9.34,15.83h-9.06ZM70.75,268.52h6.55c2.13,0,3.71-.51,4.76-1.54,1.04-1.03,1.57-2.45,1.57-4.28s-.52-3.18-1.57-4.17c-1.04-.99-2.63-1.48-4.76-1.48h-6.55v11.47Z"/>
      <path class="cls-6" d="M99.48,259.71c1.73-3.04,4.1-5.41,7.1-7.1,3-1.7,6.37-2.55,10.1-2.55,4.36,0,8.19,1.12,11.47,3.36,3.28,2.24,5.58,5.33,6.88,9.29h-9.01c-.9-1.86-2.15-3.26-3.78-4.2-1.62-.93-3.5-1.4-5.62-1.4-2.28,0-4.3.53-6.07,1.59-1.77,1.06-3.15,2.56-4.14,4.5-.99,1.94-1.48,4.21-1.48,6.83s.49,4.84,1.48,6.8c.99,1.96,2.37,3.47,4.14,4.53,1.77,1.06,3.79,1.59,6.07,1.59,2.13,0,4-.48,5.62-1.43s2.88-2.36,3.78-4.22h9.01c-1.31,3.99-3.59,7.1-6.85,9.31-3.26,2.22-7.1,3.33-11.5,3.33-3.73,0-7.1-.85-10.1-2.55-3-1.7-5.37-4.06-7.1-7.08-1.73-3.02-2.6-6.45-2.6-10.29s.87-7.28,2.6-10.32Z"/>
      <path class="cls-6" d="M147.87,288.6c-2.18-.93-3.91-2.27-5.17-4.03-1.27-1.75-1.92-3.82-1.96-6.21h8.39c.11,1.6.68,2.87,1.71,3.8,1.03.93,2.43,1.4,4.22,1.4s3.26-.44,4.31-1.31c1.04-.88,1.57-2.02,1.57-3.44,0-1.16-.36-2.11-1.06-2.85-.71-.75-1.59-1.33-2.66-1.76-1.06-.43-2.53-.9-4.39-1.43-2.54-.75-4.6-1.48-6.18-2.21-1.59-.73-2.95-1.83-4.08-3.3-1.14-1.47-1.71-3.44-1.71-5.9,0-2.31.58-4.33,1.73-6.04,1.16-1.72,2.78-3.03,4.87-3.94,2.09-.91,4.48-1.37,7.16-1.37,4.03,0,7.3.98,9.82,2.94s3.91,4.69,4.17,8.2h-8.62c-.08-1.34-.64-2.45-1.71-3.33-1.06-.88-2.47-1.31-4.22-1.31-1.53,0-2.75.39-3.66,1.17-.91.78-1.37,1.92-1.37,3.41,0,1.04.34,1.91,1.03,2.6.69.69,1.55,1.25,2.57,1.68,1.03.43,2.47.92,4.34,1.48,2.54.75,4.61,1.49,6.21,2.24,1.6.75,2.98,1.87,4.14,3.36,1.16,1.49,1.73,3.45,1.73,5.87,0,2.09-.54,4.03-1.62,5.82-1.08,1.79-2.67,3.22-4.76,4.28-2.09,1.06-4.57,1.59-7.44,1.59-2.72,0-5.17-.47-7.36-1.4Z"/>
    </g>
    <path class="cls-2" d="M48.55,267.74c-1.84,0-3.34-1.5-3.34-3.34v-6.38h-4.53v9.72h-9.72v4.53h6.38c1.84,0,3.34,1.5,3.34,3.34v6.38h4.53v-9.72h9.72v-4.53h-6.38Z"/>
  </g>
  <g>
    <path class="cls-9" d="M8.64,139.09c-4.77,0-8.64-3.86-8.64-8.63V45.18C0,20.27,20.27,0,45.18,0c4.77,0,8.64,3.86,8.64,8.63s-3.87,8.63-8.64,8.63c-15.39,0-27.91,12.52-27.91,27.92v85.28c0,4.77-3.87,8.63-8.64,8.63Z"/>
    <path class="cls-1" d="M154.82,175.63c-4.77,0-8.64-3.86-8.64-8.63s3.87-8.63,8.64-8.63c15.39,0,27.91-12.52,27.91-27.92V45.18c0-4.77,3.87-8.63,8.64-8.63s8.64,3.86,8.64,8.63v85.28c0,24.91-20.27,45.18-45.18,45.18Z"/>
    <path class="cls-4" d="M148.73,116.55H51.27c-4.77,0-8.64-3.86-8.64-8.63s3.87-8.63,8.64-8.63h97.45c4.77,0,8.64,3.86,8.64,8.63s-3.87,8.63-8.64,8.63Z"/>
    <path class="cls-3" d="M148.73,76.35H51.27c-4.77,0-8.64-3.86-8.64-8.63s3.87-8.63,8.64-8.63h97.45c4.77,0,8.64,3.86,8.64,8.63s-3.87,8.63-8.64,8.63Z"/>
    <path class="cls-5" d="M8.64,206.52c-4.77,0-8.64-3.86-8.64-8.63v-67.44c0-4.77,3.87-8.63,8.64-8.63s8.64,3.86,8.64,8.63v67.44c0,4.77-3.87,8.63-8.64,8.63Z"/>
    <path class="cls-8" d="M8.64,206.52c-2.45,0-4.89-1.04-6.59-3.06-3.08-3.64-2.63-9.09,1.02-12.16l36.55-30.89c1.56-1.32,3.53-2.04,5.57-2.04h109.64c4.77,0,8.64,3.86,8.64,8.63s-3.87,8.63-8.64,8.63H48.35l-34.14,28.85c-1.62,1.37-3.59,2.04-5.57,2.04Z"/>
    <path class="cls-7" d="M191.36,53.81c-4.77,0-8.64-3.86-8.64-8.63,0-15.39-12.51-27.92-27.91-27.92H45.18c-4.77,0-8.64-3.86-8.64-8.63S40.41,0,45.18,0h109.64c24.91,0,45.18,20.27,45.18,45.18,0,4.77-3.87,8.63-8.64,8.63Z"/>
  </g>
</svg>