<?xml version="1.0" encoding="UTF-8"?>
<svg id="Camada_1" data-name="Camada 1" xmlns="http://www.w3.org/2000/svg" xmlns:xlink="http://www.w3.org/1999/xlink" viewBox="0 0 250 290">
  <defs>
    <style>
      .cls-1 {
        fill: url(#linear-gradient-2);
      }

      .cls-2 {
        fill: #43caff;
      }

      .cls-3 {
        fill: url(#linear-gradient-4);
      }

      .cls-4 {
        fill: url(#linear-gradient-3);
      }

      .cls-5 {
        fill: url(#linear-gradient-5);
      }

      .cls-6 {
        fill: #243a83;
      }

      .cls-7 {
        fill: url(#linear-gradient-7);
      }

      .cls-8 {
        fill: url(#linear-gradient-6);
      }

      .cls-9 {
        fill: url(#linear-gradient);
      }
    </style>
    <linearGradient id="linear-gradient" x1="31.51" y1="100" x2="224.72" y2="100" gradientUnits="userSpaceOnUse">
      <stop offset="0" stop-color="#3db6f3"/>
      <stop offset=".2" stop-color="#3db6f3"/>
      <stop offset="1" stop-color="#3a60ff"/>
    </linearGradient>
    <linearGradient id="linear-gradient-2" x1="31.51" y1="31.85" x2="224.72" y2="31.85" xlink:href="#linear-gradient"/>
    <linearGradient id="linear-gradient-3" x1="31.51" y1="113.27" x2="224.72" y2="113.27" xlink:href="#linear-gradient"/>
    <linearGradient id="linear-gradient-4" x1="31.51" y1="111.25" x2="224.72" y2="111.25" xlink:href="#linear-gradient"/>
    <linearGradient id="linear-gradient-5" x1="31.51" y1="100.22" x2="224.72" y2="100.22" xlink:href="#linear-gradient"/>
    <linearGradient id="linear-gradient-6" x1="31.51" y1="125.42" x2="224.72" y2="125.42" xlink:href="#linear-gradient"/>
    <linearGradient id="linear-gradient-7" x1="31.51" y1="150.61" x2="224.72" y2="150.61" xlink:href="#linear-gradient"/>
  </defs>
  <g>
    <g id="Path_1829" data-name="Path 1829">
      <path class="cls-9" d="M154.66,196.59H43.99c-10.29,0-18.99-8.7-18.99-18.99V39.94c0-1.85.8-3.61,2.2-4.82L61.84,4.98c1.16-1.01,2.65-1.57,4.2-1.57h88.17c10.29,0,18.99,8.7,18.99,18.99v30.28c0,3.53-2.86,6.39-6.39,6.39s-6.39-2.86-6.39-6.39v-30.28c0-3.19-3.02-6.2-6.21-6.2h-85.78l-30.64,26.66v134.75c0,3.19,3.02,6.2,6.2,6.2h110.67c3.19,0,6.2-3.02,6.2-6.2v-4.64c0-3.53,2.86-6.39,6.39-6.39s6.39,2.86,6.39,6.39v4.64c0,10.29-8.7,18.99-18.99,18.99Z"/>
    </g>
    <g id="Path_1830" data-name="Path 1830">
      <path class="cls-1" d="M71.43,57.58h-23.39c-3.53,0-6.39-2.86-6.39-6.39s2.86-6.39,6.39-6.39h17V12.5c0-3.53,2.86-6.39,6.39-6.39s6.39,2.86,6.39,6.39v38.69c0,3.53-2.86,6.39-6.39,6.39Z"/>
    </g>
    <g id="Path_1831" data-name="Path 1831">
      <path class="cls-4" d="M176.25,162.02c-27.34,0-48.75-21.41-48.75-48.75s21.41-48.75,48.75-48.75,48.75,21.87,48.75,48.75-21.41,48.75-48.75,48.75ZM176.25,74.75c-21.6,0-38.52,16.92-38.52,38.52s16.92,38.52,38.52,38.52,38.52-16.92,38.52-38.52-17.28-38.52-38.52-38.52Z"/>
    </g>
    <g id="Path_1832" data-name="Path 1832">
      <path class="cls-3" d="M175.35,130.98c-1.13,0-2.23-.37-3.13-1.07l-18-13.95c-2.23-1.73-2.64-4.94-.91-7.17,1.73-2.23,4.94-2.64,7.17-.91l13.94,10.8,19.37-25.17c1.72-2.24,4.93-2.66,7.17-.94,2.24,1.72,2.66,4.93.94,7.17l-22.49,29.24c-.83,1.08-2.05,1.78-3.4,1.95-.22.03-.43.04-.65.04Z"/>
    </g>
    <g id="Line_27" data-name="Line 27">
      <path class="cls-5" d="M105.17,105.34h-47.69c-2.82,0-5.11-2.29-5.11-5.11s2.29-5.11,5.11-5.11h47.69c2.82,0,5.11,2.29,5.11,5.11s-2.29,5.11-5.11,5.11Z"/>
    </g>
    <g id="Line_28" data-name="Line 28">
      <path class="cls-8" d="M105.62,130.53h-48.14c-2.82,0-5.11-2.29-5.11-5.11s2.29-5.11,5.11-5.11h48.14c2.82,0,5.11,2.29,5.11,5.11s-2.29,5.11-5.11,5.11Z"/>
    </g>
    <g id="Line_29" data-name="Line 29">
      <path class="cls-7" d="M117.32,155.72h-59.83c-2.82,0-5.11-2.29-5.11-5.11s2.29-5.11,5.11-5.11h59.83c2.82,0,5.11,2.29,5.11,5.11s-2.29,5.11-5.11,5.11Z"/>
    </g>
  </g>
  <g>
    <g>
      <path class="cls-6" d="M86.66,279.02l-6.4-11.31h-2.74v11.31h-5.82v-29.02h10.89c2.25,0,4.16.4,5.74,1.19,1.58.79,2.77,1.86,3.56,3.2.79,1.35,1.18,2.85,1.18,4.51,0,1.91-.55,3.64-1.66,5.18-1.11,1.54-2.76,2.6-4.95,3.18l6.95,11.77h-6.74ZM77.51,263.35h4.86c1.58,0,2.76-.38,3.53-1.14.78-.76,1.17-1.82,1.17-3.18s-.39-2.36-1.17-3.1c-.78-.73-1.95-1.1-3.53-1.1h-4.86v8.52Z"/>
      <path class="cls-6" d="M118.76,269.25h-16.84c.14,1.66.72,2.97,1.75,3.91,1.03.94,2.29,1.41,3.78,1.41,2.16,0,3.7-.93,4.62-2.79h6.28c-.66,2.22-1.94,4.04-3.83,5.47-1.88,1.43-4.2,2.14-6.94,2.14-2.22,0-4.21-.49-5.97-1.48-1.76-.98-3.13-2.38-4.12-4.18s-1.48-3.88-1.48-6.24.48-4.48,1.46-6.28c.97-1.8,2.33-3.19,4.07-4.16s3.76-1.46,6.03-1.46,4.15.47,5.88,1.41,3.08,2.28,4.03,4.01,1.43,3.72,1.43,5.97c0,.83-.06,1.58-.17,2.25ZM112.9,265.34c-.03-1.5-.57-2.7-1.62-3.6-1.05-.9-2.34-1.35-3.87-1.35-1.44,0-2.66.44-3.64,1.31-.98.87-1.59,2.09-1.81,3.64h10.94Z"/>
      <path class="cls-6" d="M131.93,256.67c1.32-.71,2.82-1.06,4.51-1.06,1.97,0,3.75.49,5.34,1.46s2.85,2.35,3.78,4.14c.93,1.79,1.39,3.86,1.39,6.22s-.47,4.44-1.39,6.26c-.93,1.82-2.19,3.22-3.78,4.22s-3.38,1.5-5.34,1.5c-1.69,0-3.18-.35-4.47-1.04-1.29-.69-2.33-1.57-3.14-2.62v14.26h-5.82v-34.01h5.82v3.33c.75-1.05,1.78-1.93,3.1-2.64ZM140.17,263.83c-.57-1.01-1.32-1.78-2.25-2.31-.93-.53-1.93-.79-3.01-.79s-2.04.27-2.97.81c-.93.54-1.68,1.32-2.25,2.35s-.85,2.23-.85,3.62.28,2.59.85,3.62c.57,1.03,1.32,1.81,2.25,2.35.93.54,1.92.81,2.97.81s2.09-.28,3.01-.83c.93-.55,1.68-1.34,2.25-2.37.57-1.03.85-2.25.85-3.66s-.28-2.59-.85-3.6Z"/>
      <path class="cls-6" d="M155.42,277.92c-1.77-.98-3.17-2.38-4.18-4.18s-1.52-3.88-1.52-6.24.52-4.43,1.56-6.24c1.04-1.8,2.46-3.19,4.26-4.18,1.8-.98,3.81-1.48,6.03-1.48s4.23.49,6.03,1.48c1.8.98,3.22,2.38,4.26,4.18,1.04,1.8,1.56,3.88,1.56,6.24s-.53,4.44-1.6,6.24c-1.07,1.8-2.51,3.2-4.32,4.18-1.82.98-3.85,1.48-6.09,1.48s-4.21-.49-5.99-1.48ZM164.38,273.56c.93-.51,1.67-1.28,2.23-2.31.55-1.03.83-2.27.83-3.74,0-2.19-.58-3.87-1.73-5.05-1.15-1.18-2.56-1.77-4.22-1.77s-3.06.59-4.18,1.77c-1.12,1.18-1.68,2.86-1.68,5.05s.54,3.87,1.64,5.05c1.09,1.18,2.47,1.77,4.14,1.77,1.05,0,2.04-.26,2.97-.77Z"/>
      <path class="cls-6" d="M186.21,256.69c1.2-.69,2.59-1.04,4.14-1.04v6.11h-1.54c-1.83,0-3.21.43-4.14,1.29-.93.86-1.39,2.36-1.39,4.49v11.48h-5.82v-23.04h5.82v3.58c.75-1.22,1.73-2.18,2.93-2.87Z"/>
      <path class="cls-6" d="M201.24,260.77v11.14c0,.78.19,1.34.56,1.68.38.35,1,.52,1.89.52h2.7v4.91h-3.66c-4.91,0-7.36-2.38-7.36-7.15v-11.1h-2.74v-4.78h2.74v-5.7h5.86v5.7h5.16v4.78h-5.16Z"/>
    </g>
    <path class="cls-2" d="M57.57,264.67c-1.46,0-2.65-1.19-2.65-2.65v-5.06h-3.6v7.72h-7.72v3.6h5.06c1.46,0,2.65,1.19,2.65,2.65v5.06h3.6v-7.72h7.72v-3.6h-5.06Z"/>
  </g>
</svg>