<?xml version="1.0" encoding="UTF-8"?>
<svg id="Camada_1" data-name="Camada 1" xmlns="http://www.w3.org/2000/svg" xmlns:xlink="http://www.w3.org/1999/xlink" viewBox="0 0 250 290">
  <defs>
    <style>
      .cls-1 {
        fill: url(#linear-gradient-2);
      }

      .cls-2 {
        fill: url(#linear-gradient-10);
      }

      .cls-3 {
        fill: #43caff;
      }

      .cls-4 {
        fill: url(#linear-gradient-4);
      }

      .cls-5 {
        fill: url(#linear-gradient-3);
      }

      .cls-6 {
        fill: url(#linear-gradient-5);
      }

      .cls-7 {
        fill: url(#linear-gradient-8);
      }

      .cls-8 {
        fill: #243a83;
      }

      .cls-9 {
        fill: url(#linear-gradient-7);
      }

      .cls-10 {
        fill: url(#linear-gradient-9);
      }

      .cls-11 {
        fill: url(#linear-gradient-6);
      }

      .cls-12 {
        fill: url(#linear-gradient);
      }
    </style>
    <linearGradient id="linear-gradient" x1="166.44" y1="150.4" x2="166.67" y2="150.4" gradientUnits="userSpaceOnUse">
      <stop offset="0" stop-color="#3db6f3"/>
      <stop offset=".2" stop-color="#3db6f3"/>
      <stop offset="1" stop-color="#3a60ff"/>
    </linearGradient>
    <linearGradient id="linear-gradient-2" x1="-728.75" y1="100.11" x2="1086.23" y2="100.11" xlink:href="#linear-gradient"/>
    <linearGradient id="linear-gradient-3" x1="39.89" y1="76.54" x2="197.27" y2="76.54" xlink:href="#linear-gradient"/>
    <linearGradient id="linear-gradient-4" x1="101.95" y1="76.54" x2="259.33" y2="76.54" xlink:href="#linear-gradient"/>
    <linearGradient id="linear-gradient-5" x1="70.92" y1="76.54" x2="228.3" y2="76.54" xlink:href="#linear-gradient"/>
    <linearGradient id="linear-gradient-6" x1="19.45" y1="100.11" x2="230.55" y2="100.11" xlink:href="#linear-gradient"/>
    <linearGradient id="linear-gradient-7" x1="19.45" y1="100.11" x2="230.55" y2="100.11" xlink:href="#linear-gradient"/>
    <linearGradient id="linear-gradient-8" x1="19.45" y1="100.11" x2="230.55" y2="100.11" xlink:href="#linear-gradient"/>
    <linearGradient id="linear-gradient-9" x1="19.45" y1="100.11" x2="230.55" y2="100.11" xlink:href="#linear-gradient"/>
    <linearGradient id="linear-gradient-10" x1="19.45" y1="100.11" x2="230.55" y2="100.11" xlink:href="#linear-gradient"/>
  </defs>
  <g>
    <g>
      <path class="cls-8" d="M94.01,250v6.39h-10.52v33.1h-7.92v-33.1h-10.52v-6.39h28.97Z"/>
      <path class="cls-8" d="M128.12,276.2h-22.92c.19,2.26.98,4.04,2.38,5.32,1.39,1.28,3.11,1.92,5.15,1.92,2.94,0,5.04-1.26,6.28-3.79h8.54c-.91,3.02-2.64,5.5-5.2,7.44-2.57,1.94-5.72,2.91-9.45,2.91-3.02,0-5.72-.67-8.12-2.01-2.4-1.34-4.26-3.23-5.6-5.69-1.34-2.45-2.01-5.28-2.01-8.49s.66-6.09,1.98-8.54c1.32-2.45,3.17-4.34,5.54-5.66,2.38-1.32,5.11-1.98,8.2-1.98s5.65.64,8.01,1.92c2.36,1.28,4.19,3.1,5.49,5.46,1.3,2.36,1.95,5.06,1.95,8.12,0,1.13-.08,2.15-.23,3.06ZM120.15,270.88c-.04-2.04-.77-3.67-2.21-4.89s-3.19-1.84-5.26-1.84c-1.96,0-3.61.59-4.95,1.78-1.34,1.19-2.16,2.84-2.46,4.95h14.88Z"/>
      <path class="cls-8" d="M150.87,289.49l-6.45-9.73-5.72,9.73h-8.48l10.24-15.73-10.35-15.62h8.94l6.39,9.68,5.77-9.68h8.49l-10.3,15.62,10.41,15.73h-8.94Z"/>
      <path class="cls-8" d="M172.76,264.65v15.16c0,1.06.26,1.82.77,2.29.51.47,1.37.71,2.57.71h3.68v6.68h-4.98c-6.68,0-10.01-3.24-10.01-9.73v-15.11h-3.73v-6.51h3.73v-7.75h7.98v7.75h7.02v6.51h-7.02Z"/>
      <path class="cls-8" d="M190.7,287.99c-2.41-1.34-4.31-3.23-5.68-5.69-1.38-2.45-2.07-5.28-2.07-8.49s.71-6.03,2.12-8.49,3.35-4.35,5.8-5.69c2.45-1.34,5.19-2.01,8.2-2.01s5.75.67,8.2,2.01c2.45,1.34,4.38,3.23,5.8,5.69s2.12,5.28,2.12,8.49-.73,6.04-2.18,8.49c-1.45,2.45-3.41,4.35-5.88,5.69-2.47,1.34-5.23,2.01-8.29,2.01s-5.73-.67-8.15-2.01ZM202.89,282.05c1.26-.7,2.27-1.74,3.03-3.14s1.13-3.09,1.13-5.09c0-2.98-.78-5.27-2.35-6.87-1.57-1.6-3.48-2.4-5.74-2.4s-4.16.8-5.68,2.4c-1.53,1.6-2.29,3.9-2.29,6.87s.75,5.27,2.24,6.87c1.49,1.6,3.37,2.4,5.63,2.4,1.43,0,2.78-.35,4.05-1.05Z"/>
    </g>
    <path class="cls-3" d="M52.6,267.38c-1.86,0-3.38-1.52-3.38-3.38v-6.45h-4.58v9.83h-9.83v4.58h6.45c1.86,0,3.38,1.52,3.38,3.38v6.45h4.58v-9.83h9.83v-4.58h-6.45Z"/>
  </g>
  <g>
    <g>
      <path class="cls-12" d="M166.54,150.4s.02,0,.03,0h0s-.01,0-.03,0Z"/>
      <path class="cls-1" d="M230.55,76.57s0-.02,0-.02C230.55,34.4,191.87.11,144.32.11c-1.88,0-3.6.67-4.95,1.78,1.35-1.11,3.07-1.78,4.95-1.78C108.42.11,75.93,20.13,63.46,49.92c0,.01-.01.02-.02.03-2.75,6.58-4.44,13.42-5.07,20.42-23.13,10.88-38.93,32.45-38.93,57.23,0,0,0,.01,0,.02,0,.01,0,.03,0,.04.14,14.96,5.95,29.54,16.05,40.52-.75,5.05-1.96,10-3.63,14.77-.06.18-.12.36-.16.55-.52,1.49-1.09,2.97-1.75,4.53-.49,1.21-.7,2.54-.61,3.85.3,4.65,4.19,8.24,8.79,8.24.18,0,.37,0,.56-.02.25-.02.5-.05.75-.09,1.97-.35,3.93-.71,5.88-1.1.01,0,.03,0,.05,0,9.76-1.73,19.27-4.66,28.31-8.72.02,0,.01,0,.02,0-.3-.07-1.41-.34-2.38-.6,6.9,1.84,14.03,2.77,21.2,2.77,17.78,0,34.91-5.72,48.24-16.1,0,0,0,0,0,0,8.73-6.8,15.39-15.26,19.6-24.62,3.02-.5,6.01-1.15,8.97-1.93.61-.16,1.18-.4,1.72-.69-.53.29-1.1.53-1.72.69-1.12.3-2.39.6-2.77.7,10.67,4.79,21.89,8.25,33.41,10.29.02,0,.04,0,.05.01,2.31.45,4.62.88,6.94,1.3.29.05.59.09.88.11.22.01.44.02.66.02,5.43,0,10.02-4.23,10.38-9.72.1-1.55-.15-3.12-.72-4.54-.78-1.84-1.46-3.59-2.07-5.35-.05-.22-.12-.44-.19-.65-1.97-5.63-3.41-11.48-4.29-17.43,11.92-12.96,18.77-30.16,18.93-47.81,0-.02,0-.03,0-.05ZM132.66,165.85c-11.02,8.59-25.28,13.32-40.14,13.32-6.03,0-12.02-.78-17.8-2.33-1.57-.42-3.15-.23-4.51.41,0,0,0,0,0,0-8.06,3.81-16.56,6.61-25.3,8.31,2.01-6.14,3.39-12.52,4.1-19,.22-2.02-.5-4.03-1.96-5.45-9.03-8.76-14.28-21-14.39-33.52h0c0-17.61,10.31-33.18,25.99-42.49,2.39,18.79,12.57,36.25,28.75,48.87,0,0,0,0,0,0,15.73,12.25,35.95,19,56.93,19,.09,0,.18,0,.27,0-3.13,4.77-7.13,9.14-11.93,12.88ZM84.46,126.74c.18-1.3.7-2.58,1.57-3.69,2.31-2.96,6.34-3.81,9.59-2.2-3.25-1.61-7.28-.77-9.58,2.2-.87,1.11-1.38,2.39-1.57,3.69ZM214.99,76.54c-.14,14.78-6.33,29.22-16.99,39.56-1.72,1.67-2.58,4.05-2.32,6.43.84,7.64,2.46,15.17,4.83,22.42-10.31-2.01-20.35-5.31-29.86-9.81,0,0,0,0-.01,0-1.6-.76-3.47-.97-5.32-.48-6.83,1.82-13.9,2.74-21.01,2.74-17.53,0-34.35-5.58-47.36-15.72-14.81-11.54-23.3-27.99-23.3-45.15,0-7.07,1.4-14,4.15-20.59,0,0,0-.01,0-.02,10.08-24.08,36.8-40.25,66.51-40.25-1.88,0-3.6-.67-4.95-1.78,1.35,1.11,3.07,1.78,4.95,1.78,38.97,0,70.67,27.3,70.67,60.86h0ZM216.16,80.64c.32.51.68.98,1.1,1.4-.42-.42-.79-.9-1.1-1.4Z"/>
      <path class="cls-5" d="M113.92,67.39c-5.05,0-9.15,4.11-9.15,9.15s4.1,9.15,9.15,9.15,9.15-4.1,9.15-9.15-4.1-9.15-9.15-9.15Z"/>
      <path class="cls-4" d="M175.98,67.39c-5.05,0-9.15,4.11-9.15,9.15s4.1,9.15,9.15,9.15,9.15-4.1,9.15-9.15-4.1-9.15-9.15-9.15Z"/>
      <path class="cls-6" d="M144.95,67.39c-5.05,0-9.15,4.11-9.15,9.15s4.1,9.15,9.15,9.15,9.15-4.1,9.15-9.15-4.1-9.15-9.15-9.15Z"/>
    </g>
    <g>
      <path class="cls-11" d="M166.54,150.4s.02,0,.03,0h0s-.01,0-.03,0Z"/>
      <path class="cls-9" d="M230.55,76.57s0-.02,0-.02C230.55,34.4,191.87.11,144.32.11c-1.88,0-3.6.67-4.95,1.78,1.35-1.11,3.07-1.78,4.95-1.78C108.42.11,75.93,20.13,63.46,49.92c0,.01-.01.02-.02.03-2.75,6.58-4.44,13.42-5.07,20.42-23.13,10.88-38.93,32.45-38.93,57.23,0,0,0,.01,0,.02,0,.01,0,.03,0,.04.14,14.96,5.95,29.54,16.05,40.52-.75,5.05-1.96,10-3.63,14.77-.06.18-.12.36-.16.55-.52,1.49-1.09,2.97-1.75,4.53-.49,1.21-.7,2.54-.61,3.85.3,4.65,4.19,8.24,8.79,8.24.18,0,.37,0,.56-.02.25-.02.5-.05.75-.09,1.97-.35,3.93-.71,5.88-1.1.01,0,.03,0,.05,0,9.76-1.73,19.27-4.66,28.31-8.72.02,0,.01,0,.02,0-.3-.07-1.41-.34-2.38-.6,6.9,1.84,14.03,2.77,21.2,2.77,17.78,0,34.91-5.72,48.24-16.1,0,0,0,0,0,0,8.73-6.8,15.39-15.26,19.6-24.62,3.02-.5,6.01-1.15,8.97-1.93.61-.16,1.18-.4,1.72-.69-.53.29-1.1.53-1.72.69-1.12.3-2.39.6-2.77.7,10.67,4.79,21.89,8.25,33.41,10.29.02,0,.04,0,.05.01,2.31.45,4.62.88,6.94,1.3.29.05.59.09.88.11.22.01.44.02.66.02,5.43,0,10.02-4.23,10.38-9.72.1-1.55-.15-3.12-.72-4.54-.78-1.84-1.46-3.59-2.07-5.35-.05-.22-.12-.44-.19-.65-1.97-5.63-3.41-11.48-4.29-17.43,11.92-12.96,18.77-30.16,18.93-47.81,0-.02,0-.03,0-.05ZM132.66,165.85c-11.02,8.59-25.28,13.32-40.14,13.32-6.03,0-12.02-.78-17.8-2.33-1.57-.42-3.15-.23-4.51.41,0,0,0,0,0,0-8.06,3.81-16.56,6.61-25.3,8.31,2.01-6.14,3.39-12.52,4.1-19,.22-2.02-.5-4.03-1.96-5.45-9.03-8.76-14.28-21-14.39-33.52h0c0-17.61,10.31-33.18,25.99-42.49,2.39,18.79,12.57,36.25,28.75,48.87,0,0,0,0,0,0,15.73,12.25,35.95,19,56.93,19,.09,0,.18,0,.27,0-3.13,4.77-7.13,9.14-11.93,12.88ZM84.46,126.74c.18-1.3.7-2.58,1.57-3.69,2.31-2.96,6.34-3.81,9.59-2.2-3.25-1.61-7.28-.77-9.58,2.2-.87,1.11-1.38,2.39-1.57,3.69ZM214.99,76.54c-.14,14.78-6.33,29.22-16.99,39.56-1.72,1.67-2.58,4.05-2.32,6.43.84,7.64,2.46,15.17,4.83,22.42-10.31-2.01-20.35-5.31-29.86-9.81,0,0,0,0-.01,0-1.6-.76-3.47-.97-5.32-.48-6.83,1.82-13.9,2.74-21.01,2.74-17.53,0-34.35-5.58-47.36-15.72-14.81-11.54-23.3-27.99-23.3-45.15,0-7.07,1.4-14,4.15-20.59,0,0,0-.01,0-.02,10.08-24.08,36.8-40.25,66.51-40.25-1.88,0-3.6-.67-4.95-1.78,1.35,1.11,3.07,1.78,4.95,1.78,38.97,0,70.67,27.3,70.67,60.86h0ZM216.16,80.64c.32.51.68.98,1.1,1.4-.42-.42-.79-.9-1.1-1.4Z"/>
      <path class="cls-7" d="M113.92,67.39c-5.05,0-9.15,4.11-9.15,9.15s4.1,9.15,9.15,9.15,9.15-4.1,9.15-9.15-4.1-9.15-9.15-9.15Z"/>
      <path class="cls-10" d="M175.98,67.39c-5.05,0-9.15,4.11-9.15,9.15s4.1,9.15,9.15,9.15,9.15-4.1,9.15-9.15-4.1-9.15-9.15-9.15Z"/>
      <path class="cls-2" d="M144.95,67.39c-5.05,0-9.15,4.11-9.15,9.15s4.1,9.15,9.15,9.15,9.15-4.1,9.15-9.15-4.1-9.15-9.15-9.15Z"/>
    </g>
  </g>
</svg>