<?xml version="1.0" encoding="UTF-8"?>
<svg id="Camada_1" data-name="Camada 1" xmlns="http://www.w3.org/2000/svg" xmlns:xlink="http://www.w3.org/1999/xlink" viewBox="0 0 200 290">
  <defs>
    <style>
      .cls-1 {
        fill: url(#linear-gradient-2);
      }

      .cls-2 {
        fill: #43caff;
      }

      .cls-3 {
        fill: url(#linear-gradient-4);
      }

      .cls-4 {
        fill: url(#linear-gradient-3);
        fill-rule: evenodd;
      }

      .cls-5 {
        fill: url(#linear-gradient-5);
      }

      .cls-6 {
        fill: #243a83;
      }

      .cls-7 {
        fill: url(#linear-gradient-6);
      }

      .cls-8 {
        fill: url(#linear-gradient);
      }
    </style>
    <linearGradient id="linear-gradient" x1="-5.94" y1="152" x2="210.4" y2="152" gradientUnits="userSpaceOnUse">
      <stop offset="0" stop-color="#3db6f3"/>
      <stop offset=".2" stop-color="#3db6f3"/>
      <stop offset="1" stop-color="#3a60ff"/>
    </linearGradient>
    <linearGradient id="linear-gradient-2" x1="-5.94" y1="51.38" x2="210.4" y2="51.38" xlink:href="#linear-gradient"/>
    <linearGradient id="linear-gradient-3" x1="-5.94" y1="104.09" x2="210.4" y2="104.09" xlink:href="#linear-gradient"/>
    <linearGradient id="linear-gradient-4" x1="-5.94" y1="140.7" x2="210.4" y2="140.7" xlink:href="#linear-gradient"/>
    <linearGradient id="linear-gradient-5" x1="-5.94" y1="60.61" x2="210.4" y2="60.61" xlink:href="#linear-gradient"/>
    <linearGradient id="linear-gradient-6" x1="-5.94" y1="187.08" x2="210.4" y2="187.08" xlink:href="#linear-gradient"/>
  </defs>
  <g>
    <g>
      <path class="cls-6" d="M82.28,252.24l-10.41,37.28h-8.81l-7-26.54-7.32,26.54-8.76.05-10.04-37.33h8.01l6.57,28.95,7.58-28.95h8.33l7.16,28.78,6.62-28.78h8.06Z"/>
      <path class="cls-6" d="M108.71,260.97c1.74.98,3.11,2.42,4.09,4.33.98,1.91,1.47,4.19,1.47,6.86v17.36h-7.48v-16.34c0-2.35-.59-4.16-1.76-5.42-1.18-1.26-2.78-1.9-4.81-1.9s-3.69.63-4.89,1.9c-1.19,1.26-1.79,3.07-1.79,5.42v16.34h-7.48v-39.52h7.48v13.62c.96-1.28,2.24-2.29,3.85-3.02,1.6-.73,3.38-1.09,5.34-1.09,2.24,0,4.24.49,5.98,1.47Z"/>
      <path class="cls-6" d="M120.17,266.66c1.19-2.31,2.81-4.09,4.86-5.34,2.05-1.25,4.33-1.87,6.86-1.87,2.21,0,4.14.45,5.79,1.34,1.66.89,2.98,2.01,3.98,3.36v-4.22h7.53v29.59h-7.53v-4.33c-.96,1.39-2.29,2.54-3.98,3.44-1.69.91-3.64,1.36-5.85,1.36-2.49,0-4.76-.64-6.81-1.92-2.05-1.28-3.67-3.09-4.86-5.42-1.19-2.33-1.79-5.01-1.79-8.04s.6-5.64,1.79-7.96ZM140.6,270.05c-.71-1.3-1.67-2.3-2.88-2.99-1.21-.69-2.51-1.04-3.9-1.04s-2.67.34-3.85,1.01c-1.18.68-2.13,1.66-2.86,2.96-.73,1.3-1.1,2.84-1.1,4.62s.36,3.34,1.1,4.67c.73,1.34,1.69,2.36,2.88,3.07,1.19.71,2.47,1.07,3.82,1.07s2.69-.35,3.9-1.04c1.21-.69,2.17-1.69,2.88-2.99.71-1.3,1.07-2.86,1.07-4.67s-.36-3.37-1.07-4.67Z"/>
      <path class="cls-6" d="M164.15,266.07v14.31c0,1,.24,1.72.72,2.16.48.45,1.29.67,2.43.67h3.47v6.3h-4.7c-6.3,0-9.45-3.06-9.45-9.19v-14.26h-3.53v-6.14h3.53v-7.32h7.53v7.32h6.62v6.14h-6.62Z"/>
      <path class="cls-6" d="M179.9,288.69c-1.92-.87-3.44-2.06-4.57-3.55-1.12-1.5-1.74-3.15-1.84-4.97h7.53c.14,1.14.7,2.08,1.68,2.83.98.75,2.2,1.12,3.66,1.12s2.54-.28,3.34-.85c.8-.57,1.2-1.3,1.2-2.19,0-.96-.49-1.68-1.47-2.16-.98-.48-2.54-1.01-4.67-1.58-2.21-.53-4.01-1.09-5.42-1.66-1.41-.57-2.62-1.44-3.63-2.62s-1.52-2.76-1.52-4.75c0-1.64.47-3.13,1.42-4.49.94-1.35,2.3-2.42,4.06-3.2,1.76-.78,3.84-1.17,6.22-1.17,3.52,0,6.34.88,8.44,2.64,2.1,1.76,3.26,4.14,3.47,7.13h-7.16c-.11-1.18-.6-2.11-1.47-2.8-.87-.69-2.04-1.04-3.5-1.04-1.35,0-2.39.25-3.12.75-.73.5-1.09,1.19-1.09,2.08,0,1,.5,1.75,1.5,2.27,1,.52,2.55,1.04,4.65,1.58,2.14.53,3.9,1.09,5.29,1.66,1.39.57,2.59,1.45,3.6,2.64,1.01,1.19,1.54,2.77,1.58,4.73,0,1.71-.47,3.24-1.42,4.59-.94,1.35-2.3,2.41-4.06,3.18-1.76.77-3.82,1.15-6.17,1.15s-4.59-.44-6.52-1.31Z"/>
    </g>
    <path class="cls-2" d="M18.74,268.64c-1.76,0-3.19-1.43-3.19-3.19v-6.09h-4.33v9.28H1.94v4.33h6.09c1.76,0,3.19,1.43,3.19,3.19v6.09h4.33v-9.28h9.28v-4.33h-6.09Z"/>
  </g>
  <g>
    <path class="cls-8" d="M99.84,203.27c-19.59,0-38.37-5.64-54.87-16.56-3.99-2.63-5.07-7.98-2.44-11.96,2.62-3.97,7.97-5.07,11.96-2.43,16.29,10.77,35.31,15.32,54.88,13.16,39.15-4.32,70.62-37.29,73.19-76.69.31-4.77,4.29-8.34,9.17-8.05,4.76.31,8.36,4.42,8.05,9.17-3.11,47.64-41.16,87.51-88.52,92.74-3.83.42-7.65.63-11.43.63Z"/>
    <path class="cls-1" d="M9.49,99.27c-.38,0-.77-.03-1.17-.08-4.72-.64-8.04-4.99-7.4-9.71,2.81-20.84,12.12-39.99,26.92-55.38C45.18,16.09,68.26,5.22,92.84,3.49c4.62-.22,8.88,3.25,9.22,8.01.33,4.76-3.25,8.89-8.01,9.22-20.31,1.42-39.4,10.43-53.76,25.35-12.24,12.72-19.94,28.54-22.26,45.72-.58,4.34-4.28,7.48-8.54,7.48Z"/>
    <path class="cls-4" d="M131.92,148.67c4.39-.4,14.19-5.8,16.19-11.4,2-5.6,2-10.4,1.4-11.4-.6-1-2.2-1.6-4.6-2.8-2.4-1.2-14.19-7-16.39-7.8-2.2-.8-3.8-1.2-5.4,1.2-1.6,2.4-6.19,7.8-7.59,9.4-1.4,1.6-2.8,1.8-5.2.6-2.4-1.2-10.12-3.73-19.28-11.9-7.13-6.36-11.94-14.2-13.34-16.6-1.4-2.4-.15-3.7,1.05-4.89,1.08-1.08,2.4-2.8,3.6-4.2,1.2-1.4,1.6-2.4,2.4-4,.8-1.6.4-3-.2-4.2-.6-1.2-5.4-13-7.4-17.8-2-4.8-4-4-5.39-4s-3-.2-4.6-.2-4.2.6-6.39,3c-2.2,2.4-8.39,8.2-8.39,20s8.59,23.2,9.79,24.8c1.2,1.6,16.59,26.6,40.96,36.2,24.38,9.6,24.38,6.4,28.78,6Z"/>
    <path class="cls-3" d="M14.62,199.4c-2.27,0-4.5-.9-6.15-2.57-2.28-2.32-3.07-5.73-2.03-8.82l10.03-29.83C3.16,138-2.36,113.78.93,89.48c.63-4.73,4.97-8.03,9.71-7.4,4.72.64,8.04,4.99,7.4,9.71-2.88,21.39,2.44,42.69,14.98,59.97,1.64,2.26,2.09,5.18,1.2,7.83l-5.97,17.75,18.86-6.04c4.47-1.45,9.39,1.05,10.85,5.59,1.45,4.54-1.05,9.41-5.59,10.86l-35.11,11.25c-.86.28-1.75.41-2.63.41Z"/>
    <path class="cls-5" d="M191.19,117.98c-.19,0-.38,0-.57-.02-4.76-.31-8.36-4.42-8.05-9.17,1.56-23.9-7.28-47.28-24.23-64.15-16.95-16.87-40.36-25.63-64.27-23.91-4.87.34-8.89-3.25-9.22-8.01-.33-4.75,3.26-8.88,8.01-9.21,28.85-2.02,57.18,8.51,77.67,28.9,20.49,20.39,31.16,48.64,29.28,77.51-.3,4.57-4.09,8.07-8.6,8.07Z"/>
    <path class="cls-7" d="M99.84,203.27c-18.19,0-35.69-4.87-51.31-14.31l-31.28,10.02c-4.57,1.45-9.4-1.05-10.85-5.59-1.45-4.54,1.05-9.41,5.59-10.86l35.11-11.25c2.51-.81,5.21-.42,7.39,1.02,16.29,10.77,35.31,15.32,54.88,13.16,4.76-.52,9.01,2.9,9.53,7.64.52,4.74-2.89,9.01-7.63,9.53-3.83.42-7.65.63-11.43.63Z"/>
  </g>
</svg>