<?xml version="1.0" encoding="UTF-8"?>
<svg id="Camada_1" data-name="Camada 1" xmlns="http://www.w3.org/2000/svg" viewBox="0 0 1920 632">
  <defs>
    
  </defs>
  <g>
    <path class="cls-2" d="M771.5,450.03c-.14-.12-.35-.18-.61-.18-.21,0-.44.09-.7.27-.26.18-.58.39-.94.61-.37.22-.8.42-1.31.61-.51.18-1.12.27-1.82.27-1.2,0-2.19-.39-2.96-1.16-.77-.77-1.16-1.94-1.16-3.51v-23.32h11.29v-5.56h-11.29v-13.36h-3.88c-.47,0-.86.12-1.16.37-.3.25-.5.59-.61,1.04l-1.72,11.87-6.47.9v3.1c0,.55.15.96.45,1.23.3.27.67.41,1.12.41h4.62v23.82c0,3.34.87,5.92,2.61,7.72,1.74,1.8,4.21,2.7,7.43,2.7,1.85,0,3.64-.31,5.37-.94s3.21-1.51,4.47-2.66l-2.27-3.68c-.16-.26-.31-.45-.45-.57Z"></path>
    <path class="cls-2" d="M808.55,421.49c-1.49-1.51-3.26-2.67-5.31-3.47-2.05-.8-4.29-1.2-6.72-1.2-2.9,0-5.51.51-7.84,1.53-2.33,1.02-4.29,2.42-5.9,4.19-1.61,1.78-2.84,3.86-3.7,6.25-.86,2.39-1.29,4.97-1.29,7.74,0,3.45.48,6.5,1.43,9.15.95,2.65,2.29,4.87,4,6.66,1.71,1.79,3.74,3.15,6.07,4.08,2.34.93,4.88,1.39,7.62,1.39,1.44,0,2.89-.12,4.37-.35,1.48-.24,2.91-.6,4.29-1.1,1.38-.5,2.69-1.14,3.92-1.94,1.23-.8,2.31-1.74,3.25-2.84l-2.19-2.82c-.34-.47-.82-.7-1.45-.7-.47,0-1.01.2-1.63.59s-1.37.82-2.27,1.27c-.9.46-1.97.88-3.21,1.27-1.24.39-2.71.59-4.41.59-1.8,0-3.44-.29-4.9-.86-1.46-.57-2.72-1.45-3.78-2.63-1.06-1.18-1.89-2.65-2.49-4.41-.6-1.76-.94-3.83-1.02-6.21h26.1c.7,0,1.19-.2,1.45-.61.26-.41.39-1.2.39-2.37,0-2.85-.43-5.38-1.27-7.6-.85-2.22-2.02-4.09-3.51-5.6ZM785.58,432.93c.5-3.29,1.67-5.86,3.51-7.72,1.84-1.85,4.37-2.78,7.58-2.78,1.57,0,2.95.26,4.15.78,1.2.52,2.22,1.25,3.06,2.19s1.47,2.05,1.9,3.33.65,2.68.65,4.19h-20.85Z"></path>
    <path class="cls-2" d="M848.28,448.05c-.5,0-.98.2-1.45.61-.47.41-1.06.84-1.76,1.31-.71.47-1.59.91-2.66,1.31-1.07.41-2.43.61-4.08.61s-3.24-.32-4.62-.96c-1.39-.64-2.56-1.58-3.53-2.82-.97-1.24-1.71-2.77-2.23-4.58-.52-1.82-.78-3.89-.78-6.21s.25-4.27.74-6.07c.5-1.8,1.22-3.33,2.17-4.59.95-1.25,2.15-2.22,3.59-2.9,1.44-.68,3.1-1.02,4.98-1.02,1.44,0,2.65.16,3.62.49s1.82.68,2.51,1.06c.69.38,1.27.73,1.72,1.06.46.33.89.49,1.31.49s.74-.08.96-.26c.22-.17.45-.4.69-.69l2.04-2.82c-1.7-1.67-3.63-2.96-5.8-3.88-2.17-.91-4.68-1.37-7.52-1.37-3.03,0-5.72.52-8.07,1.55-2.35,1.03-4.33,2.46-5.94,4.27-1.61,1.82-2.82,3.98-3.64,6.49-.82,2.51-1.23,5.24-1.23,8.19,0,3.24.46,6.13,1.37,8.68.91,2.55,2.16,4.7,3.74,6.45,1.58,1.75,3.45,3.08,5.6,4,2.16.91,4.47,1.37,6.96,1.37,1.44,0,2.85-.12,4.25-.35,1.4-.24,2.74-.6,4.02-1.1,1.28-.5,2.49-1.14,3.62-1.92,1.14-.78,2.16-1.74,3.08-2.86l-2.19-2.82c-.34-.47-.82-.7-1.45-.7Z"></path>
    <path class="cls-2" d="M889.19,421c-1.12-1.32-2.51-2.34-4.17-3.08-1.66-.73-3.59-1.1-5.78-1.1-2.64,0-4.97.52-6.99,1.57-2.02,1.05-3.87,2.42-5.54,4.11v-23.08h-7.64v57.84h7.64v-29.19c1.46-1.59,3.05-2.85,4.76-3.78,1.71-.93,3.55-1.39,5.51-1.39,2.69,0,4.69.79,5.99,2.37,1.31,1.58,1.96,3.79,1.96,6.64v25.35h7.68v-25.35c0-2.25-.29-4.3-.86-6.15-.58-1.85-1.42-3.44-2.55-4.76Z"></path>
    <path class="cls-2" d="M910.25,449.21c-.43-.53-.97-.95-1.61-1.25-.64-.3-1.38-.45-2.21-.45-.73,0-1.4.12-2,.37-.6.25-1.12.58-1.55,1-.43.42-.76.91-1,1.47-.24.56-.35,1.16-.35,1.78,0,.73.12,1.41.35,2.04.23.63.57,1.17,1,1.63.43.46.94.82,1.53,1.08.59.26,1.23.39,1.94.39h.35c-.16.84-.41,1.63-.76,2.37-.35.74-.73,1.42-1.14,2.04-.41.61-.82,1.16-1.23,1.63-.42.47-.76.85-1.02,1.14-.18.18-.33.37-.45.57-.12.2-.18.38-.18.57,0,.44.2.85.59,1.21l1.29,1.21c1.23-1.02,2.32-2.13,3.29-3.33.97-1.2,1.78-2.44,2.43-3.72.65-1.28,1.15-2.57,1.49-3.88.34-1.31.51-2.55.51-3.72,0-.81-.1-1.57-.31-2.27-.21-.71-.53-1.33-.96-1.86Z"></path>
    <path class="cls-2" d="M972.06,422.05c-1.31-1.69-2.89-2.98-4.76-3.88-1.87-.9-3.96-1.35-6.29-1.35-2.66,0-5.04.56-7.13,1.69-2.09,1.12-3.96,2.6-5.6,4.43v-23.51h-7.64v57.84h4.94c1.1,0,1.75-.53,1.96-1.61l.35-3.33c.68.86,1.4,1.63,2.16,2.31.76.68,1.59,1.25,2.49,1.72.9.47,1.89.83,2.96,1.08,1.07.25,2.25.37,3.53.37,2.64,0,5.02-.52,7.13-1.55,2.12-1.03,3.91-2.49,5.39-4.37,1.48-1.88,2.61-4.14,3.41-6.78.8-2.64,1.19-5.56,1.19-8.78,0-3.03-.35-5.75-1.06-8.15-.71-2.4-1.71-4.45-3.02-6.13ZM965.34,448.09c-1.92,2.53-4.66,3.8-8.21,3.8-1.72,0-3.32-.33-4.78-.98-1.46-.65-2.82-1.8-4.08-3.45v-18.85c1.38-1.83,2.88-3.24,4.49-4.23,1.61-.99,3.51-1.49,5.7-1.49,3.11,0,5.51,1.1,7.21,3.31,1.7,2.21,2.55,5.68,2.55,10.4,0,5.12-.96,8.95-2.88,11.48Z"></path>
    <path class="cls-2" d="M1010.15,446.6c-1.49,1.62-3.08,2.89-4.78,3.82-1.7.93-3.53,1.39-5.49,1.39-2.69,0-4.69-.79-6-2.37-1.31-1.58-1.96-3.79-1.96-6.64v-25.35h-7.68v25.35c0,2.25.29,4.3.86,6.15.57,1.86,1.42,3.44,2.55,4.76,1.12,1.32,2.51,2.34,4.17,3.08,1.66.73,3.59,1.1,5.78,1.1,1.38,0,2.68-.15,3.88-.45,1.2-.3,2.34-.72,3.41-1.25,1.07-.53,2.08-1.18,3.02-1.94.94-.76,1.84-1.59,2.7-2.51l.55,4c.31,1.02.99,1.53,2.04,1.53h4.59v-39.81h-7.64v29.15Z"></path>
    <path class="cls-2" d="M1048.06,450.03c-.14-.12-.35-.18-.61-.18-.21,0-.44.09-.71.27-.26.18-.57.39-.94.61s-.8.42-1.31.61c-.51.18-1.12.27-1.82.27-1.2,0-2.19-.39-2.96-1.16-.77-.77-1.16-1.94-1.16-3.51v-23.32h11.29v-5.56h-11.29v-13.36h-3.88c-.47,0-.86.12-1.16.37-.3.25-.5.59-.61,1.04l-1.72,11.87-6.47.9v3.1c0,.55.15.96.45,1.23.3.27.67.41,1.12.41h4.62v23.82c0,3.34.87,5.92,2.61,7.72,1.74,1.8,4.21,2.7,7.43,2.7,1.85,0,3.64-.31,5.37-.94s3.21-1.51,4.47-2.66l-2.27-3.68c-.16-.26-.31-.45-.45-.57Z"></path>
    <path class="cls-2" d="M1108.04,421.96c-1.31-1.72-2.88-3.03-4.72-3.92-1.84-.89-3.9-1.33-6.17-1.33-1.41,0-2.74.16-3.98.49-1.24.33-2.41.78-3.51,1.37-1.1.59-2.12,1.29-3.08,2.12-.95.82-1.85,1.73-2.68,2.72l-.67-4.43c-.26-1.02-.93-1.53-2-1.53h-4.59v53.17h7.64v-17.28c1.33,1.41,2.85,2.51,4.55,3.29,1.7.78,3.74,1.18,6.11,1.18,2.66,0,5.06-.53,7.19-1.59,2.13-1.06,3.93-2.51,5.41-4.37,1.48-1.85,2.61-4.04,3.41-6.56.8-2.52,1.2-5.26,1.2-8.21,0-3.29-.36-6.2-1.08-8.74-.72-2.53-1.73-4.66-3.04-6.39ZM1101.35,448.11c-1.92,2.52-4.63,3.78-8.13,3.78-1.8,0-3.43-.33-4.88-.98-1.45-.65-2.8-1.8-4.06-3.45v-18.85c1.38-1.83,2.89-3.24,4.53-4.23,1.63-.99,3.56-1.49,5.78-1.49,1.51,0,2.87.27,4.08.8,1.2.54,2.21,1.37,3.04,2.51.82,1.14,1.45,2.6,1.88,4.39.43,1.79.65,3.95.65,6.49,0,4.83-.96,8.51-2.88,11.03Z"></path>
    <path class="cls-2" d="M1149.22,421.49c-1.49-1.51-3.26-2.67-5.31-3.47-2.05-.8-4.29-1.2-6.72-1.2-2.9,0-5.51.51-7.84,1.53-2.33,1.02-4.29,2.42-5.9,4.19-1.61,1.78-2.84,3.86-3.7,6.25-.86,2.39-1.29,4.97-1.29,7.74,0,3.45.48,6.5,1.43,9.15.95,2.65,2.29,4.87,4,6.66,1.71,1.79,3.74,3.15,6.07,4.08,2.34.93,4.88,1.39,7.62,1.39,1.44,0,2.89-.12,4.37-.35,1.48-.24,2.91-.6,4.29-1.1,1.38-.5,2.69-1.14,3.92-1.94,1.23-.8,2.31-1.74,3.25-2.84l-2.19-2.82c-.34-.47-.82-.7-1.45-.7-.47,0-1.01.2-1.63.59-.61.39-1.37.82-2.27,1.27-.9.46-1.97.88-3.21,1.27-1.24.39-2.71.59-4.41.59-1.8,0-3.44-.29-4.9-.86-1.46-.57-2.72-1.45-3.78-2.63-1.06-1.18-1.89-2.65-2.49-4.41-.6-1.76-.94-3.83-1.02-6.21h26.1c.71,0,1.19-.2,1.45-.61.26-.41.39-1.2.39-2.37,0-2.85-.42-5.38-1.27-7.6-.85-2.22-2.02-4.09-3.51-5.6ZM1126.26,432.93c.5-3.29,1.67-5.86,3.51-7.72,1.84-1.85,4.37-2.78,7.58-2.78,1.57,0,2.95.26,4.15.78,1.2.52,2.22,1.25,3.06,2.19.84.94,1.47,2.05,1.9,3.33s.65,2.68.65,4.19h-20.85Z"></path>
    <path class="cls-2" d="M1193.17,422.37c-1.66-1.79-3.67-3.16-6.03-4.11-2.37-.95-5.01-1.43-7.94-1.43s-5.61.48-7.97,1.43c-2.36.95-4.38,2.33-6.05,4.11-1.67,1.79-2.96,3.94-3.86,6.47-.9,2.52-1.35,5.35-1.35,8.48s.45,5.97,1.35,8.5c.9,2.53,2.19,4.69,3.86,6.47,1.67,1.78,3.69,3.14,6.05,4.09,2.36.95,5.02,1.43,7.97,1.43s5.57-.48,7.94-1.43c2.36-.95,4.38-2.32,6.03-4.09,1.66-1.78,2.93-3.93,3.82-6.47.89-2.53,1.33-5.37,1.33-8.5s-.44-5.96-1.33-8.48c-.89-2.52-2.16-4.68-3.82-6.47ZM1187.62,448.05c-1.86,2.53-4.66,3.8-8.42,3.8s-6.66-1.27-8.52-3.8c-1.87-2.53-2.8-6.1-2.8-10.7s.93-8.17,2.8-10.72c1.87-2.55,4.71-3.82,8.52-3.82s6.57,1.27,8.42,3.82c1.85,2.55,2.78,6.12,2.78,10.72s-.93,8.16-2.78,10.7Z"></path>
    <path class="cls-2" d="M1238.21,421.96c-1.31-1.72-2.88-3.03-4.72-3.92-1.84-.89-3.9-1.33-6.17-1.33-1.41,0-2.74.16-3.98.49-1.24.33-2.41.78-3.51,1.37-1.1.59-2.12,1.29-3.08,2.12-.95.82-1.85,1.73-2.68,2.72l-.67-4.43c-.26-1.02-.93-1.53-2-1.53h-4.59v53.17h7.64v-17.28c1.33,1.41,2.85,2.51,4.55,3.29,1.7.78,3.74,1.18,6.11,1.18,2.66,0,5.06-.53,7.19-1.59,2.13-1.06,3.93-2.51,5.41-4.37,1.48-1.85,2.61-4.04,3.41-6.56.8-2.52,1.19-5.26,1.19-8.21,0-3.29-.36-6.2-1.08-8.74-.72-2.53-1.73-4.66-3.04-6.39ZM1231.53,448.11c-1.92,2.52-4.63,3.78-8.13,3.78-1.8,0-3.43-.33-4.88-.98-1.45-.65-2.8-1.8-4.06-3.45v-18.85c1.38-1.83,2.89-3.24,4.53-4.23,1.63-.99,3.56-1.49,5.78-1.49,1.51,0,2.87.27,4.08.8,1.2.54,2.21,1.37,3.04,2.51.82,1.14,1.45,2.6,1.88,4.39.43,1.79.65,3.95.65,6.49,0,4.83-.96,8.51-2.88,11.03Z"></path>
    <rect class="cls-2" x="1251.06" y="399.42" width="7.68" height="57.84"></rect>
    <path class="cls-2" d="M1298.12,421.49c-1.49-1.51-3.26-2.67-5.31-3.47-2.05-.8-4.29-1.2-6.72-1.2-2.9,0-5.51.51-7.84,1.53-2.33,1.02-4.29,2.42-5.9,4.19-1.61,1.78-2.84,3.86-3.7,6.25-.86,2.39-1.29,4.97-1.29,7.74,0,3.45.48,6.5,1.43,9.15.95,2.65,2.29,4.87,4,6.66,1.71,1.79,3.74,3.15,6.07,4.08,2.34.93,4.88,1.39,7.62,1.39,1.44,0,2.89-.12,4.37-.35,1.48-.24,2.91-.6,4.29-1.1,1.38-.5,2.69-1.14,3.92-1.94,1.23-.8,2.31-1.74,3.25-2.84l-2.19-2.82c-.34-.47-.82-.7-1.45-.7-.47,0-1.01.2-1.63.59-.61.39-1.37.82-2.27,1.27-.9.46-1.97.88-3.21,1.27-1.24.39-2.71.59-4.41.59-1.8,0-3.44-.29-4.9-.86-1.46-.57-2.72-1.45-3.78-2.63-1.06-1.18-1.89-2.65-2.49-4.41-.6-1.76-.94-3.83-1.02-6.21h26.1c.71,0,1.19-.2,1.45-.61.26-.41.39-1.2.39-2.37,0-2.85-.42-5.38-1.27-7.6-.85-2.22-2.02-4.09-3.51-5.6ZM1275.16,432.93c.5-3.29,1.67-5.86,3.51-7.72,1.84-1.85,4.37-2.78,7.58-2.78,1.57,0,2.95.26,4.15.78,1.2.52,2.22,1.25,3.06,2.19.84.94,1.47,2.05,1.9,3.33.43,1.28.65,2.68.65,4.19h-20.85Z"></path>
    <path class="cls-2" d="M1341.03,416.39c0-1.88.25-3.53.74-4.96.5-1.42,1.28-2.61,2.35-3.55,1.07-.94,2.44-1.65,4.11-2.12,1.67-.47,3.7-.71,6.07-.71,1.07,0,1.91-.01,2.51-.04.6-.03.93-.3.98-.82l.27-4c-.76-.26-1.69-.46-2.78-.59-1.1-.13-2.14-.2-3.13-.2-3.11,0-5.82.41-8.13,1.23-2.31.82-4.25,1.98-5.8,3.47-1.55,1.49-2.72,3.26-3.49,5.31-.77,2.05-1.16,4.29-1.16,6.72v1.92h-6.19v3.17c0,.58.19,1.01.57,1.31.38.3.87.52,1.47.65l4.15.51v33.54h7.68v-33.62h16.3v33.62h7.68v-39.19h-24.22v-1.69Z"></path>
    <path class="cls-2" d="M1394.67,416.7c-2.53,0-4.7.74-6.5,2.23-1.8,1.49-3.34,3.54-4.62,6.15l-.47-5.6c-.13-.76-.35-1.29-.65-1.59-.3-.3-.87-.45-1.7-.45h-4.39v39.81h7.64v-24.92c.5-1.28,1.03-2.42,1.61-3.43.57-1,1.23-1.85,1.98-2.55.74-.69,1.59-1.22,2.53-1.57.94-.35,2.02-.53,3.25-.53.84,0,1.62.07,2.35.22.73.14,1.28.22,1.65.22.68,0,1.11-.35,1.29-1.06l.51-5.76c-.58-.39-1.25-.69-2.02-.88-.77-.2-1.59-.29-2.45-.29Z"></path>
    <path class="cls-2" d="M1427.41,437.96c-.95-.8-2.04-1.46-3.25-2-1.21-.54-2.46-1.01-3.72-1.43-1.27-.42-2.51-.82-3.72-1.2-1.21-.38-2.3-.8-3.25-1.27-.95-.47-1.72-1.03-2.31-1.69-.59-.65-.88-1.48-.88-2.47,0-.76.17-1.47.51-2.14.34-.67.82-1.24,1.45-1.72.63-.48,1.39-.86,2.29-1.14.9-.27,1.9-.41,3-.41,1.33,0,2.48.14,3.45.43.97.29,1.81.6,2.53.94.72.34,1.33.65,1.84.94.51.29.97.43,1.39.43.37,0,.67-.07.9-.22.24-.14.46-.38.67-.72l1.68-2.78c-1.52-1.46-3.34-2.61-5.47-3.45-2.13-.84-4.51-1.25-7.15-1.25-2.3,0-4.34.32-6.13.96-1.79.64-3.29,1.5-4.51,2.57-1.22,1.07-2.14,2.31-2.78,3.72-.64,1.41-.96,2.89-.96,4.43,0,1.72.29,3.19.88,4.39.59,1.2,1.36,2.22,2.31,3.06.95.84,2.04,1.53,3.27,2.08,1.23.55,2.48,1.03,3.76,1.45,1.28.42,2.53.81,3.76,1.18,1.23.37,2.32.8,3.27,1.29.95.5,1.72,1.09,2.31,1.78.59.69.88,1.56.88,2.61,0,.81-.16,1.58-.47,2.31-.31.73-.79,1.38-1.43,1.94-.64.56-1.44,1.01-2.41,1.33-.97.33-2.1.49-3.41.49-1.57,0-2.87-.18-3.92-.53-1.05-.35-1.93-.74-2.66-1.18-.73-.43-1.36-.83-1.88-1.2-.52-.37-1.03-.55-1.53-.55-.52,0-.94.1-1.25.29-.31.2-.58.48-.78.84l-1.8,2.94c1.57,1.41,3.51,2.57,5.84,3.49,2.32.91,4.86,1.37,7.6,1.37,2.46,0,4.64-.33,6.54-.98,1.91-.65,3.51-1.55,4.8-2.7,1.29-1.15,2.27-2.51,2.94-4.09.67-1.58,1-3.3,1-5.15,0-1.62-.29-2.99-.88-4.11-.59-1.12-1.36-2.08-2.31-2.88Z"></path>
    <path class="cls-2" d="M1458.45,450.03c-.14-.12-.35-.18-.61-.18-.21,0-.44.09-.71.27-.26.18-.58.39-.94.61-.37.22-.8.42-1.31.61-.51.18-1.12.27-1.82.27-1.2,0-2.19-.39-2.96-1.16-.77-.77-1.16-1.94-1.16-3.51v-23.32h11.29v-5.56h-11.29v-13.36h-3.88c-.47,0-.86.12-1.16.37-.3.25-.5.59-.61,1.04l-1.72,11.87-6.47.9v3.1c0,.55.15.96.45,1.23.3.27.67.41,1.12.41h4.62v23.82c0,3.34.87,5.92,2.61,7.72,1.74,1.8,4.21,2.7,7.43,2.7,1.85,0,3.64-.31,5.37-.94,1.72-.63,3.21-1.51,4.47-2.66l-2.27-3.68c-.16-.26-.31-.45-.45-.57Z"></path>
    <path class="cls-2" d="M1474.77,449.03c-.47-.47-1.02-.84-1.65-1.12-.63-.27-1.29-.41-2-.41s-1.41.14-2.04.41c-.63.27-1.17.65-1.63,1.12-.46.47-.82,1.02-1.08,1.65-.26.63-.39,1.29-.39,2s.13,1.41.39,2.04c.26.63.62,1.18,1.08,1.65.46.47,1,.84,1.63,1.1.63.26,1.31.39,2.04.39s1.37-.13,2-.39c.63-.26,1.18-.63,1.65-1.1.47-.47.84-1.02,1.12-1.65.27-.63.41-1.31.41-2.04s-.14-1.37-.41-2c-.27-.63-.65-1.18-1.12-1.65Z"></path>
  </g>
  <g>
    <path class="cls-1" d="M1142.03,351.26v-150.57c0-76.59-44.81-113.58-104.2-113.58-42.2,0-76.59,19.8-92.74,57.83-16.67-38.03-51.06-57.83-92.74-57.83-59.39,0-104.2,36.99-104.2,113.58v150.57h34.91v-150.57c0-54.7,30.22-81.28,71.9-81.28s72.94,27.61,72.94,81.28v150.57h34.91v-150.57c0-53.66,30.74-81.28,72.42-81.28s71.9,26.57,71.9,81.28v150.57h34.91Z"></path>
    <path class="cls-1" d="M1426.11,289.83v61.38h.9v.04h32.3v-127.12c0-2.94-.1-5.84-.24-8.72v-121.27h-32.96v36.69c-24.52-27.56-61.14-43.72-104.86-43.72-81.28,0-138.58,56.79-138.58,137.02s60.96,133.9,133.38,133.9c49.23,0,91.37-23.74,110.07-68.2ZM1321.25,325.73c-61.48,0-103.16-43.76-103.16-103.16s41.68-103.16,103.16-103.16,103.16,43.76,103.16,103.16-41.68,103.16-103.16,103.16Z"></path>
    <rect class="cls-1" x="1520.27" y="93.88" width="34.91" height="257.37"></rect>
    <path class="cls-1" d="M1717.72,205.38c-36.47-4.69-69.81-8.34-69.81-40.12,0-26.57,23.45-46.37,63.04-46.37s63.04,19.8,64.6,45.33h34.38c-1.04-43.76-38.03-77.11-98.47-77.11s-98.47,32.82-98.47,81.28c0,56.79,52.62,64.08,98.99,69.81,36.99,4.69,69.81,8.34,69.81,39.6,0,27.61-25.01,48.45-69.81,48.45s-68.25-19.8-69.81-47.41h-35.43c1.56,45.33,41.68,79.19,105.24,79.19s105.24-33.87,105.24-82.84c0-58.35-59.39-64.61-99.51-69.81Z"></path>
  </g>
  <g>
    <path class="cls-2" d="M238.54,87.11c-36.58,0-69.8,14.61-94.16,38.3v-38.3h-41.62l.63,131.28h.06c-.04,1.28-.06,2.57-.06,3.86h0l-.63,312.23h41.62v-215.42c24.36,23.7,57.57,38.33,94.16,38.33,74.52,0,135.14-60.63,135.14-135.14s-60.63-135.14-135.14-135.14ZM238.54,316.41c-51.92,0-94.16-42.24-94.16-94.16s42.24-94.16,94.16-94.16,94.16,42.24,94.16,94.16-42.24,94.16-94.16,94.16Z"></path>
    <path class="cls-2" d="M685.74,87.11h-135.14c-74.52,0-135.14,60.63-135.14,135.14,0,36.37,14.44,69.43,37.89,93.74,9.59,9.94,20.68,18.42,32.9,25.07,19.14,10.41,41.07,16.33,64.35,16.33s45.21-5.92,64.35-16.33c18.33,17.19,29.81,41.62,29.81,68.67,0,51.92-42.24,94.16-94.16,94.16s-94.16-42.24-94.16-94.16h-40.99c0,74.52,60.63,135.14,135.14,135.14s135.14-60.62,135.14-135.14c0-36.37-14.44-69.43-37.89-93.75,23.45-24.32,37.89-57.38,37.89-93.74s-14.64-69.17-38.33-93.53h38.33v-41.62ZM559.44,316c-2.91.27-5.87.41-8.85.41s-5.94-.14-8.85-.41c-21.36-2-40.68-11.17-55.5-25.07-18.33-17.19-29.81-41.62-29.81-68.67,0-51.92,42.24-94.16,94.16-94.16s94.16,42.24,94.16,94.16c0,27.06-11.47,51.48-29.81,68.67-14.83,13.9-34.14,23.07-55.5,25.07Z"></path>
  </g>
</svg>