<?xml version="1.0" encoding="UTF-8"?>
<svg id="Camada_1" data-name="Camada 1" xmlns="http://www.w3.org/2000/svg" viewBox="0 0 632.13 632">
  <defs>
    
  </defs>
  <path class="cls-1" d="M393.26,286.65c-24.64,0-44.68-20.05-44.68-44.68v-85.28h-60.56v129.96h-129.96v60.57h85.28c24.64,0,44.68,20.05,44.68,44.68v85.28h60.56v-129.96h129.96v-60.57h-85.28Z"></path>
  <path class="cls-1" d="M316.06,626.22C145.01,626.22,5.84,487.06,5.84,316S145.01,5.78,316.06,5.78s310.22,139.16,310.22,310.22-139.16,310.22-310.22,310.22ZM316.06,34.83c-155.04,0-281.17,126.13-281.17,281.17s126.14,281.17,281.17,281.17,281.17-126.14,281.17-281.17S471.1,34.83,316.06,34.83Z"></path>
</svg>