<?xml version="1.0" encoding="UTF-8"?>
<svg id="Camada_1" data-name="Camada 1" xmlns="http://www.w3.org/2000/svg" viewBox="0 0 1920 632">
  <defs>
    
  </defs>
  <g>
    <path class="cls-1" d="M1142.03,351.26v-150.57c0-76.59-44.81-113.58-104.2-113.58-42.2,0-76.59,19.8-92.74,57.83-16.67-38.03-51.06-57.83-92.74-57.83-59.39,0-104.2,36.99-104.2,113.58v150.57h34.91v-150.57c0-54.7,30.22-81.28,71.9-81.28s72.94,27.61,72.94,81.28v150.57h34.91v-150.57c0-53.66,30.74-81.28,72.42-81.28s71.9,26.57,71.9,81.28v150.57h34.91Z"></path>
    <path class="cls-1" d="M1426.11,289.83v61.38h.9v.04h32.3v-127.12c0-2.94-.1-5.84-.24-8.72v-121.27h-32.96v36.69c-24.52-27.56-61.14-43.72-104.86-43.72-81.28,0-138.58,56.79-138.58,137.02s60.96,133.9,133.38,133.9c49.23,0,91.37-23.74,110.07-68.2ZM1321.25,325.73c-61.48,0-103.16-43.76-103.16-103.16s41.68-103.16,103.16-103.16,103.16,43.76,103.16,103.16-41.68,103.16-103.16,103.16Z"></path>
    <rect class="cls-1" x="1520.27" y="93.88" width="34.91" height="257.37"></rect>
    <path class="cls-1" d="M1717.72,205.38c-36.47-4.69-69.81-8.34-69.81-40.12,0-26.57,23.45-46.37,63.04-46.37s63.04,19.8,64.6,45.33h34.38c-1.04-43.76-38.03-77.11-98.47-77.11s-98.47,32.82-98.47,81.28c0,56.79,52.62,64.08,98.99,69.81,36.99,4.69,69.81,8.34,69.81,39.6,0,27.61-25.01,48.45-69.81,48.45s-68.25-19.8-69.81-47.41h-35.43c1.56,45.33,41.68,79.19,105.24,79.19s105.24-33.87,105.24-82.84c0-58.35-59.39-64.61-99.51-69.81Z"></path>
  </g>
  <g>
    <path class="cls-2" d="M238.54,87.11c-36.58,0-69.8,14.61-94.16,38.3v-38.3h-41.62l.63,131.28h.06c-.04,1.28-.06,2.57-.06,3.86h0l-.63,312.23h41.62v-215.42c24.36,23.7,57.57,38.33,94.16,38.33,74.52,0,135.14-60.63,135.14-135.14s-60.63-135.14-135.14-135.14ZM238.54,316.41c-51.92,0-94.16-42.24-94.16-94.16s42.24-94.16,94.16-94.16,94.16,42.24,94.16,94.16-42.24,94.16-94.16,94.16Z"></path>
    <path class="cls-2" d="M685.74,87.11h-135.14c-74.52,0-135.14,60.63-135.14,135.14,0,36.37,14.44,69.43,37.89,93.74,9.59,9.94,20.68,18.42,32.9,25.07,19.14,10.41,41.07,16.33,64.35,16.33s45.21-5.92,64.35-16.33c18.33,17.19,29.81,41.62,29.81,68.67,0,51.92-42.24,94.16-94.16,94.16s-94.16-42.24-94.16-94.16h-40.99c0,74.52,60.63,135.14,135.14,135.14s135.14-60.62,135.14-135.14c0-36.37-14.44-69.43-37.89-93.75,23.45-24.32,37.89-57.38,37.89-93.74s-14.64-69.17-38.33-93.53h38.33v-41.62ZM559.44,316c-2.91.27-5.87.41-8.85.41s-5.94-.14-8.85-.41c-21.36-2-40.68-11.17-55.5-25.07-18.33-17.19-29.81-41.62-29.81-68.67,0-51.92,42.24-94.16,94.16-94.16s94.16,42.24,94.16,94.16c0,27.06-11.47,51.48-29.81,68.67-14.83,13.9-34.14,23.07-55.5,25.07Z"></path>
  </g>
</svg>