<?xml version="1.0" encoding="UTF-8"?>
<svg id="Camada_1" data-name="Camada 1" xmlns="http://www.w3.org/2000/svg" xmlns:xlink="http://www.w3.org/1999/xlink" viewBox="0 0 1080 1080">
  <defs>
    
    <linearGradient id="Gradiente_sem_nome_3" data-name="Gradiente sem nome 3" x1="13.61" y1="540" x2="1066.39" y2="540" gradientUnits="userSpaceOnUse">
      <stop offset="0" stop-color="#45ff1d"></stop>
      <stop offset="1" stop-color="#3559eb"></stop>
    </linearGradient>
  </defs>
  <image width="1501" height="1280" transform="translate(-1350.76 -104.3)"></image>
  <path class="cls-1" d="M762.25,511.07c-1.21,0-4.75,1.38-5.21-1.38-.46-2.75,2-3.51,2.77-4.42,0,0-5.07-.99-7.14-.99s-4.59.22-6.65.68c-2.06.46-6.2,3.91-8.04,5.75-1.84,1.84-5.73,1.14-7.78,1.14s-2.75-.7-4.15-1.84c-1.36-1.14-2.97-.92-4.86-.92s.75,3.67-.17,4.81c-.92,1.16.68,1.84,0,3.6-.7,1.76-3.67-1.52-3.67-1.52,0,0-11.25-4.13-12.63-4.13s-2.53.92-3.45,1.19c-.92.28-4.59.64-7.34-1.89-2.75-2.51,0-3.19,0-4.59s-2.52-3.89-3.89-4.35c-1.38-.46-1.38,1.84-3.45,3.21-2.06,1.38-1.6-.46-3.89-3.21-2.29-2.75-1.14.24-3.89,1.84-2.75,1.6-2.31,5.27-2.75,7.34-.48,2.07-2.31,1.6-2.31,1.6l-5.51-2.52s-4.11-4.35-5.95-6.19c-1.84-1.84-5.51,0-6.43,0s-3.23-.7-5.98-2.31c-2.77-1.6-.44-5.51,0-7.99.44-2.48,1.39-6,1.16-6.92-.24-.92-2.3,2.75-3.91,5.51-1.6,2.75-3.19,8.48-3.19,8.48l-2.53,5.98s-1.62,5.51-1.62,6.87-.44,2.75-2.28,5.75c-1.84,2.99-3.91,1.16-3.91,7.58s1.38,7.34,0,10.32c-1.38,2.97-4.35,3.89-5.27,8.72-.92,4.83,0,7.58-.7,10.1-.7,2.51-9.64,4.13-12.15,8.02-2.53,3.91-2.99,8.04-5.29,12.63-2.29,4.59-3.73,7.56-6.44,8.72-2.74,1.16-7.1.68-9.62,2.29-2.51,1.62-2.75,4.81-6.43,6.43-3.67,1.62-5.51,1.38-5.51,3.67s1.16,2.53,1.16,5.05.68,5.27-3.91,8.72c-.26.2-.51.4-.75.64-.04.04-.09.07-.13.11-.29.26-.55.51-.81.81-.31.35-.66.72-.94,1.1-.29.35-.59.72-.84,1.08-.13.18-.28.37-.39.57-.15.2-.29.4-.4.61-.26.39-.51.79-.77,1.21s-.5.84-.72,1.25c-.24.42-.46.84-.64,1.27-.05.06-.07.11-.11.17-.15.33-.29.64-.46.97-.29.66-.57,1.3-.83,1.93-.07.17-.15.35-.18.51-.15.37-.26.72-.39,1.06-.06.26-.15.48-.2.72-.07.24-.11.46-.18.66-.06.18-.09.37-.11.53,0,.07-.02.17-.02.24-.02.13-.04.24-.04.33-.04.11-.04.2-.04.29,0,2.99,0,5.75.22,7.8.22,2.06,2.53,5.05,2.53,6.64s1.36,3.67-.92,3.67c0,0-2.51,2.07,0,4.15,2.51,2.06,8.94,2.52,8.94,2.52,0,0-1.16,4.59-2.07,5.27-.92.7-3.19,2.31-1.36,3.45,1.84,1.14,1.6,3.21,4.81,1.84,3.21-1.38-.22-2.06,4.37-1.62,4.59.48,5.27-.22,6.86,2.07,1.62,2.29,5.07,4.13,8.26,6.66,3.23,2.52,10.79,3.19,12.41,3.43,1.6.24,6.43,2.07,7.1,3.21.68,1.14,1.16,2.06,3.91,3.45,2.75,1.36,3.67,4.35,5.62,6.65.57-.48.92-.99,1.17-1.54.66-1.62.17-3.43.66-5.23.7-2.4,5.05-3.32,6.66-4.81.15-.15.28-.27.4-.44.09-.07.15-.17.22-.26.07-.13.16-.26.26-.39.09-.13.13-.26.22-.39.15-.29.29-.59.39-.88.09-.15.11-.29.17-.44.29-.84.48-1.71.75-2.5.57-1.71,2.41-5.27,3.78-6.53,1.38-1.27,5.84-1.27,8.59-1.95,2.75-.7,7.58-1.96,8.26-1.96s4.5-1.71,5.42-1.71,3.54,1.71,6.19,1.71,2.64-.22,3.45-1.14c.79-.92,3.43-2.29,5.05-3.21,1.6-.92,2.4-1.16,4.35-1.4,1.95-.26,5.75-.33,6.53,0,.81.33,3.1.37,5.05-.55,1.96-.92,4.35.11,5.51.55,1.16.44,4.59,1.85,6.31,2.77,1.71.92,6.54-2.41,7.58-2.77,1.03-.37,4.13-2.73,6.19-4.22,2.07-1.49,3.1-2.53,4.13-3.8,1.03-1.27-.35-2.62-.46-3.54-.13-.92-1.14-3.56-1.27-4.83-.11-1.25,1.27-2.64,1.62-3.32.35-.68-.11-3.21-1.03-3.78-.92-.57-2.29-.24-3.91-1.73-1.6-1.49.46-3.32,1.27-5.05.81-1.73,3.78-3.89,4.81-5.16,1.05-1.27,2.97-1.96,4.13-2.75,1.16-.81-.33-3.45-1.38-5.4-1.03-1.95-2.29-3.56-4.24-5.75-1.96-2.17-1.49-3.08-1.96-4.59-.44-1.49.7-1.03,1.96-2.86,1.27-1.84,0-2.06,0-4.59s.7-4,1.16-4.92,2.97-.7,3.54-.7,2.99-.57,5.71-1.14c2.7-.59,3.14-1.27,4.39-2.18,1.27-.92.13-2.53,0-2.88-.11-.33-1.6-1.84-2.4-3.54-.81-1.73-1.84-2.88-1.98-3.8-.17-.92,2.44-2.97,2.79-3.89.35-.92-1.84-2.86-2.64-4.37-.81-1.49,1.62-3.43,2.75-3.78,1.16-.33,1.84,0,2.4,0s2.64.81,4.24,1.16c1.56.35,1.73,0,2.53-.57.81-.59-.22-1.84-.92-3.03-.68-1.19-1.27-2.48-1.62-3.29-.39-.81,1.95-4.37,1.95-4.37,0,0,3.45,2.53,3.91,3.1.46.57,1.84,2.07,3.67,3.78,1.84,1.73,2.18,0,3.67,0s4.46.5,4.46.5c.29-.92-1.38-1.98-1.38-2.59v-8.88c0-2.44,1.21-1.98,2.13-2.59.92-.62.17-2.15-.62-2.61-.75-.46-3.34-2.44-5.95-4.13-2.59-1.69-.94-5.65-.61-6.88.29-1.23.75-4.28.61-6.11-.15-1.84-.94-2.29-.94-4.76s.62-1.84,2.3-3.67c1.71-1.84,5.21-2.59,6.3-4.13,1.05-1.52-4-1.38-5.21-1.38ZM728.71,581.25c0,.59-.83.81-1.51,1.51-.68.68-.68,3.52-.68,4.28s1.49,1.91-.24,2.37c-1.71.46-4.7.81-6.3.92-1.62.11-4.59-.22-9.07-.81-4.48-.57-8.04-.57-9.07-.81-1.03-.22-2.29-2.51-1.03-4,1.27-1.51,1.95-1.93,2.41-2.35.46-.4,1.95-1.21,1.95-1.56s-.68-2.62.24-4.13c.92-1.49,2.52-3.56,4.02-3.56s6.88-.22,7.56,0c.7.24,3.32,1.05,3.91,1.05.55,0,4.81.22,4.81.22l2.99,3.21v3.67ZM694.63,899.52c.46,1.03,3.32,5.51,3.32,5.51,0,0-.46,2.41-1.71,5.38-1.27,2.99-2.18,15.6-2.64,18.94-.46,3.32-8.72,10.43-13.44,13.66-.2.13-.42.29-.64.48-.24.17-.48.37-.73.59-3.65,3.01-10.02,9.69-15.02,15.88-.95-1.93-1.6-3.19-1.73-3.41-.68-1.16-1.6-2.52-1.6-2.52,0,0-2.53.68-3.23.22-.68-.46-2.28,1.84-4.11,0-1.84-1.84,0,0,.68-1.14.68-1.16,3.43-3.91,4.35-6.2.92-2.29,0-4.37.7-5.05.7-.68,3.67-1.38,5.73-5.75,2.07-4.35-4.35-2.51-5.03-2.51s-9.42,1.16-12.17,1.16-9.18-3.45-11.25-6.42c-2.06-2.99-19.5-16.08-19.95-17.44-.46-1.39-3.21-1.84-3.21-1.84,0,0-9.18-1.62-11.71-2.53-2.52-.92-9.4-4.81-14.91-6.65-5.51-1.84-19.27-1.62-20.89-1.39-1.12.17-8.81.09-13.29.04.13-.07.26-.13.39-.2.26-.13.5-.24.7-.33.31-.17.59-.29.79-.39.13-.06.22-.11.29-.15.7-.33,2.53-3.08,3.67-7.34,1.16-4.24.59-9.07.92-14.34.06-.72.02-1.43-.06-2.13,2.17-.79,4.99-1.78,5.67-1.78,1.16,0,3.67-.44,4.37,1.39.7,1.84,4.59,2.52,4.59,2.52,0,0,1.14-2.57,2.53-1.98,1.36.61,4.63-1.96,6.09,0,1.47,1.98,5.36,4.06,6.06,4.28.7.22,3.21-.22,5.29,0,2.06.22,5.73-.46,7.56,1.14,1.84,1.62,2.74,2.07,2.74,2.07,0,0,2.55-.68,4.83,0,2.31.68,7.82,5.05,9.88,4.83,2.06-.24,5.29.22,5.29-1.16v-5.05c0-2.06-.48-8.13,3.67-8.08,4.11.04,6.19,0,6.19,0,0,0,2.07-.88,2.75-1.56.68-.68,4.59-3.91,5.75-3.67,1.14.24,3.43,1.16,3.43,1.16,0,0,.24-.5,3.43-1.17,3.23-.66,6.43-1.58,7.12-1.58s4.59.68,5.97,2.75c1.38,2.06,2.51,3.19,3.43,3.43s2.07,1.6,4.15.24c2.06-1.39,5.51-4.37,7.34-5.29,1.49-.73,7.62-1.63,16.94,0,.62,1.41,1.91,2.72,2.9,3.78,1.49,1.62,2.52,2.75,2.52,2.75,0,0-5.62,8.61-5.73,10.44-.11,1.84,0,8.83,0,9.64s.57,5.73,1.03,6.77ZM878.03,223c-.24,1.08-.46,2.13-.68,2.94-.75,2.9-4.06,5.36-5.58,6.88-1.52,1.52-3.6,2.68-6.28,4.66-2.68,1.98-7.64,2.61-7.64,2.61,0,0-2.61,2.37-4.75,5.2-2.13,2.83,0,3.45,0,5.19s-1.67,4.15-3.29,6.35c-1.6,2.22-4.66,5.89-4.66,5.89,0,0,.22.61.61,2.37.39,1.76,2.61,3.6,2.46,4.75-.17,1.14-.53,1.74-1.93,3.67-1.36,1.91-.83,4.06-.53,5.42.31,1.39,1.76,3.67,2.75,5.36,1.01,1.69,1.62,5.21,1.54,6.66-.09,1.45-1.08,2.52-2.22,3.67-1.16,1.14-3.6,2.22-4.9,4.28-1.3,2.06-.68,12.01-.68,13.84s2.2,1.98,2.83,2.53c.61.53,2.13,1.29,3.67,1.6,1.52.31,2.22,1.98,2.61,3.14.37,1.14-.62,3.89-1.01,5.51-.39,1.6-1.98,3.43-3.36,5.2-1.38,1.76-3.89.46-5.51.53-1.62.09-3.52,1.93-6.43,3.07-2.9,1.16-5.89-.84-6.04-1.07-.17-.24-1.38-1.69-1.76-2.46-.39-.75-5.05-.15-7.65.7-2.59.84-2.29,2.06-3.43,3.82-1.16,1.76-4.97,3.84-7.51,5.21-2.51,1.38-6.33,6.11-9.93,8.26-3.6,2.13-11.78,4.2-12.32,4.42-.17.07-.79.5-1.6,1.08-1.58,1.16-3.84,2.9-4.75,3.82-1.38,1.38-2.9,3.6-2.97,5.51-.09,1.91-.39,3.82-1.16,6.96-.77,3.14-4.35,8.79-5.05,11.86-.68,3.07-2.51,3.6-3.89,4.9-1.38,1.29-2.46,2.75-2.46,5.05s.77,5.58.77,5.58c0,0,2.06,4.13,2.68,5.19.61,1.08.15,3.21.15,3.74s1.23,4.2,1.45,5.36c.24,1.14-1.45,2.29-1.67,2.75-.24.46-.84,7.1-.99,9.25-.17,2.15-1.16,3.52-1.16,3.52,0,0-7.8-.84-8.33-.84s-2.29-1.52-3.29-2.99c-1.01-1.45-.92-3.82-1.47-5.42-.53-1.62-1.52-2.07-1.91-2.22-.37-.16-3.05-2-3.05-3.21s2.97-3.29,3.12-3.67c.17-.39-.29-1.23-1.14-4.06-.84-2.83-1.98-1.16-2.83-1.69-.84-.53-3.82-1.07-4.83-2.13-.99-1.08-.61-2.68-1.21-4.75-.62-2.06-1.54-1.07-2.46-1.84-.92-.75-1.07-2.66-1.07-2.66,1.38-2.07,2.29-4.15,3.67-6.66,1.38-2.52.92-3.91,1.84-6.43s1.84-1.16,3.43-2.07c1.62-.92,3.23,0,3.91,0s2.07-3.89,1.84-6.65c-.24-2.75-1.16-6.42-2.07-8.04-.92-1.6-4.11-1.14-7.1-.44-2.99.68-5.75,3.67-6.43,4.35-.68.68-4.35-5.75-5.05-7.1-.7-1.39-4.37-4.59-5.51-6.9-1.14-2.28-1.14-3.67-1.14-5.84s-.48-.59-2.31-.11c-1.84.46-3.43-.7-4.81-1.84-1.38-1.16,3.89-3.23,5.97-4.83,2.07-1.6,3.51-13.53,3.51-13.53,0,0,.17-5.51-.07-7.82-.22-2.28.24-10.54,0-13.53-.22-2.99-2.75-7.34-3.89-9.18-1.14-1.84-5.51-4.83-7.8-7.1-2.29-2.31-3.21.22-5.05,0-1.84-.24-5.73,0-5.73,0l-2.26-5.01c.62-.7,1.23-1.47,1.78-2.33,2.53-3.91,3.91-3.45,5.51-5.07,1.62-1.6,5.98-2.97,9.88-5.27,2.13-1.25,3.78-3.19,5.27-5.23,1.21-1.67,2.31-3.41,3.45-4.86,2.51-3.21,2.99-4.59,5.05-7.8,2.06-3.21,1.14-4.13,1.84-6.2.7-2.06,3.89-4.59,6.2-7.78,2.28-3.23,3.19-5.29,4.11-7.82.92-2.52.92-6.65,1.84-10.1.92-3.43,4.59-8.26,6.66-12.15,2.07-3.89,5.51-16.52,6.19-22.95.39-3.6.35-10.17.22-15.24.53.17,1.06.33,1.56.48.29.09.57.18.86.27.77.24,1.52.46,2.22.68.35.11.7.22,1.03.33.35.09.66.2.97.29,2.52.79,4.31,1.36,5.07,1.6.09.04.17.06.22.07.07.02.11.04.13.04,1.05.35,6.99,3.91,7.58,4.24.57.35,3.21,5.18,4,5.86.81.68,2.18-.46,2.99-1.6.81-1.16,3.91-2.75,5.4-2.64,1.49.11,7.34,8.48,9.4,11.34,2.07,2.88,7.58,14.35,7.47,15.16-.13.79-.24,3.32-.35,4.11-.13.81,2.29,2.18,2.29,2.18l.92-.22s4.13-1.62,4.59-1.49c.46.11,1.49,2.28,1.49,2.28,0,0,4.35-2.06,6.19-3.89s2.53-1.73,5.4-2.64c2.86-.92,5.51,1.27,7.93,2.18,2.4.92,12.04,6.19,12.04,6.19,0,0,5.51,2.07,5.97,2.07.04,0,.09,0,.2.02.06,0,.11,0,.18.02.13.02.29.04.5.06.02,0,.05.02.09.02.07,0,.15.02.22.02.22.04.46.07.72.09.48.06,1.01.13,1.6.2.15.02.29.04.44.06.95.11,2,.26,3.03.39.37.06.73.09,1.08.13.18.04.37.06.55.07.04.02.07.02.11.02.31.04.62.07.92.11.17.04.33.06.48.06.4.07.79.11,1.14.15.2.04.4.06.57.07.04.02.07.02.11.02.44.04.79.09,1.03.11,2.07.24,7.58,2.64,8.26,3.23.15.13.59.29,1.21.5ZM928.22,596.43c-1.06.92-6.43,2.61-7.65,3.84-1.21,1.21-3.82,4.59-4.59,5.97-.75,1.38,3.21,2.29,2.46,4.42-.77,2.15-1.38,3.07-3.67,3.67-2.29.62-4.13,1.84-4.44,2.92-.31,1.06-.31,3.05-.31,4.88s-.29,3.38.92,4.9c1.23,1.52,2.46,2.61,3.84,4.28,1.38,1.69,5.51,7.2,5.51,8.11s-.77,2.9-.31,3.98l-9.64-1.23s-3.89,3.67-4.13,4.59c-.24.92.68,1.62-1.38,1.38-2.06-.24-2.29-.61-4.13.04-1.84.64-5.97,1.34-5.97,3.4s0,5.51,1.38,6.2c1.38.7,2.51,2.06,2.75,3.67.24,1.62,2.07,2.53.24,4.59-1.84,2.06-8.04,1.38-5.98,2.53,2.07,1.14,7.12,3.89,7.34,5.73.24,1.84,2.99,3.21.24,7.56-2.75,4.37-5.05,8.26-6.19,10.1-1.16,1.84-.84,6.42-1.8,7.12-.95.7-3.71,3.21-5.32,5.05-1.62,1.84-2.75.92-5.51,2.07-2.75,1.14-6.2,1.6-6.2,3.19s1.16,6.66,1.62,8.04c.04.09.06.2.09.31-1.74.9-3.38,2.06-3.76,3.36-.92,3.07-2.15,2.29-4.28,5.82-2.15,3.51-2.15,3.97-2.75,5.51-.62,1.52-1.23,4.13-2,5.8-.75,1.69-2.29,3.38-1.38,5.82.92,2.44.51,3.67-.28,4.13-.79.46-3.4,1.06-3.4,1.06,0,0-11.47,2.15-12.85,4.44-1.38,2.29-2.9,4.13-3.97,3.98-1.08-.16-4.3-1.38-6.43-1.69-2.15-.31-6.43-1.69-8.88-1.06-.18.04-.39.11-.64.18-.13.04-.28.07-.42.13-1.14.37-2.77.95-4.57,1.6-.22.07-.44.17-.68.26-.9.31-1.84.66-2.75.99-1.03.37-2.04.72-2.96,1.03-.29.11-.59.2-.86.29-.97.31-1.8.57-2.41.72-3.21.77-12.85,3.21-12.85,3.21l-3.21,2.86-3.67.92s-2.99,2.18-4.24,3.45c-1.27,1.25-3.45,1.38-4.83,1.49-1.38.11-2.75,0-5.73-.24-2.99-.22-2.4.13-4.02.7-1.62.57-2.06,2.18-2.97,4.59-.92,2.41-1.27,2.53-1.62,3.1-.35.57-9.88-1.05-10.79-1.27-.92-.22-2.4-.46-3.78-1.49-1.38-1.05-2.3-5.29-2.52-7.12-.24-1.84-2.75-2.86-3.32-3.21-.59-.33-2.31-3.21-2.75-5.97-.48-2.75-.24-2.06.11-2.86.33-.81,0-4.13-.24-4.96-.22-.81-.35-3.54-.11-4.46.24-.92,2.41-2.97,3.56-4,1.14-1.03,1.84-3.91,1.84-4.59s-2.29-3.34-7.23-3.34-3.1.92-4.13.81c-1.03-.11-2.41.24-2.97,0-.59-.22-1.73-4.35-2.64-6.08-.92-1.73-2.75-8.26-1.73-10.1,1.03-1.84.7-1.6,1.27-3.82.57-2.22-.92-3.29-1.62-3.76-.68-.44-3.67-2.28-3.43-3.08.22-.81,2.97-4.37,2.86-5.05-.11-.7-2.97-4.94-4.81-5.75-1.84-.81-3.34-.33-3.34-.33,0,0-2.17-1.39-2.52-1.39s-3.1.59-5.51,1.73c-2.4,1.16-2.07,1.62-2.75,2.07-.7.46-2.29.79-2.99.46-.68-.35-3.67-.81-4.48-.81s-1.6,1.14-1.95,1.27c-.33.11-6.54.22-8.94.79-2.4.59-4.48-.57-4.48-.57l-1.38.46-1.38,2.29s-2.29,2.07-2.75,2.64c-.46.57-.92-2.41-1.03-3.91-.13-1.49-2.64.35-2.64.35,0,0-3.21,2.07-3.91,2.29-.68.24-1.03-2.51-1.14-3.78-.11-1.27-.57-3.45-.81-5.4-.22-1.95-1.03-1.49-1.03-1.49,0,0-4.24-.68-6.2-.68s-6.08,1.36-7.45,1.6c-1.38.24-4.7,0-6.54,0s-5.86-2.07-6.54-3.1c-.7-1.03-4.37-1.6-5.05-1.6s-2.41,1.71-3.91,2.4c-.28.13-.75.44-1.34.86-.13.07-.26.17-.39.28-.33.24-.7.51-1.08.79-.33.26-.7.53-1.05.81-.44.33-.9.68-1.34,1.03-.28.2-.53.4-.79.61-.06.04-.11.09-.17.13-.2.17-.39.31-.57.44-.4.33-.77.62-1.1.88-.17.13-.31.24-.44.33-.02.02-.04.04-.06.05-.17.13-.29.26-.42.35-.02.02-.04.02-.06.04-.11.09-.22.18-.29.24-.09.07-.15.13-.18.15l-.02.02s-.57-3.78-.57-4.7-.92-4.83-.92-6.31,1.84-2.29,4.13-4.24c.57-.48.92-.99,1.16-1.54.68-1.62.17-3.43.68-5.23.68-2.41,5.05-3.32,6.65-4.81.15-.15.29-.28.4-.44.09-.07.17-.17.22-.26.09-.13.18-.26.26-.39.09-.13.15-.26.22-.39.17-.29.29-.59.4-.88.07-.15.11-.29.17-.44.29-.84.48-1.71.75-2.5.57-1.71,2.4-5.27,3.78-6.53,1.38-1.27,5.84-1.27,8.59-1.95,2.75-.7,7.58-1.96,8.26-1.96s4.48-1.71,5.4-1.71,3.56,1.71,6.2,1.71,2.64-.22,3.43-1.14c.81-.92,3.45-2.29,5.05-3.21,1.62-.92,2.42-1.16,4.37-1.4,1.95-.26,5.73-.33,6.54,0,.81.33,3.1.37,5.05-.55,1.95-.92,4.35.11,5.51.55,1.16.44,4.59,1.85,6.32,2.77,1.71.92,6.53-2.41,7.56-2.77,1.05-.37,4.13-2.74,6.2-4.22,2.06-1.49,3.1-2.53,4.13-3.8,1.03-1.27-.35-2.63-.46-3.54-.13-.92-1.16-3.56-1.27-4.83-.11-1.25,1.27-2.64,1.62-3.32.33-.68-.13-3.21-1.05-3.78-.92-.57-2.29-.24-3.89-1.73-1.62-1.49.46-3.32,1.27-5.05.79-1.73,3.78-3.89,4.81-5.16,1.03-1.27,2.97-1.96,4.13-2.75,1.16-.81-.35-3.45-1.38-5.4-1.03-1.95-2.29-3.56-4.24-5.75-1.96-2.17-1.49-3.08-1.96-4.59-.44-1.49.7-1.03,1.96-2.86,1.27-1.84,0-2.06,0-4.59s.68-4,1.14-4.92c.46-.92,2.99-.7,3.56-.7s2.99-.57,5.69-1.14c2.7-.59,3.14-1.27,4.41-2.18,1.27-.92.11-2.53,0-2.88-.11-.33-1.6-1.84-2.4-3.54-.81-1.73-1.84-2.88-2-3.8-.17-.92,2.46-2.97,2.81-3.89.33-.92-1.84-2.86-2.64-4.37-.81-1.49,1.6-3.43,2.75-3.78,1.14-.33,1.84,0,2.41,0s2.64.81,4.22,1.16c1.56.35,1.74,0,2.55-.57.81-.59-.24-1.84-.92-3.03-.7-1.19-1.27-2.48-1.63-3.29-.39-.81,1.96-4.37,1.96-4.37,0,0,3.45,2.53,3.91,3.1.46.57,1.84,2.07,3.67,3.78,1.84,1.73,2.18,0,3.67,0s4.44.5,4.44.5c-.31.92-1.23.46-2,2.92-.75,2.44-2.13,4.74-1.06,4.88,1.06.17,6.57-1.06,7.2-1.84.61-.75,7.95-7.03,9.01-8.1,1.08-1.08,3.98-3.38,5.97-4.59,2-1.23,8.43-2.92,8.43-2.92l1.05-.62,3.54-2.13s7.18-6.31,9.93-7.05c2.75-.75,11.93-1.36,13.01-.75,1.06.62,3.82,3.52,3.82,3.52,0,0,.15,1.52-.92,3.21-1.06,1.69-2.61,3.52-1.69,5.65.92,2.15,2.29,3.98,4.3,4.44,1.98.46,3.97,1.38,5.05.46,1.06-.92,1.67-3.52,3.51-4.44,1.84-.92,1.38-3.21,6.13-1.98,4.74,1.23,7.34,3.52,8.26,4.59.92,1.06,1.21,2.15,5.97,4.44,4.74,2.29,7.03,3.97,8.87,5.05,1.84,1.06,5.05,1.67,5.05,1.67,0,0,6.74-.61,7.66-1.52s1.84-1.52,2.75-1.23c.92.31,3.67,2,3.67,2l6.26,11.16s.17,3.36.62,4.13c.46.77,5.51,1.52,5.51,1.52,0,0,2.44-.46,2.75-1.21.29-.77-.31-2,2.44-1.84,2.75.15,2.61-.62,6.28.75,3.67,1.38,4.74,1.08,4.88,2.29.17,1.23,2.92,2.75,4.3,2.75s5.05,0,6.88,1.38c1.84,1.38,3.97,2.15,5.19,4.9,1.23,2.75,1.06,5.19,0,6.11ZM814.26,774.2c-.77,1.38-2.46,3.67-2.46,3.67l-2.59,3.34c-1.82.35-6.5,1.73-8.68,3.23-2.64,1.84,0,4.02,0,4.94s-1.62,2.41-1.62,2.41c0,0-4.02.11-5.97,1.14-1.95,1.05-6.43,3.8-6.76,4.15-.35.33-3.91,2.17-4.59,2.86-.7.68.33,1.95.79,2.52.46.57,4.72,1.84,5.4,2.29.68.46-5.75,5.86-7.8,5.51-2.06-.33-12.39-6.08-13.88-6.19-1.51-.13-3.45.68-3.91,1.38-.46.68-3.43,4.59-4.81,5.4-1.38.79-6.55-.13-8.04.33-1.49.46-6.88,4.13-8.26,6.09-1.38,1.95-1.84,3.19-2.29,3.67-.46.44-2.64.57-4.13,1.84-1.49,1.25-18.71,11.46-18.71,11.46,0,0-1.71,3.67-2.75,8.26-.33,1.47-1.63,3.14-3.34,4.77-.48-1.06-1.25-2.42-2.17-2.94-1.6-.92-1.84-8.26-3.19-8.26h-5.98s-2.51,5.75-2.51,3.45v-9.64s-.92-1.6-3.21-1.6-8.04-.48-8.72,0c-.68.44-8.26-.22-8.26-.22,0,0-.24-2.53,0-3.45.24-.92.92-2.75.92-4.15s.72-3.19-1.03-4.81c-1.73-1.62-4.72-5.51-5.64-7.12-.92-1.6-2.28-5.27-2.28-6.87s1.36-5.98,0-8.5c-1.4-2.52-5.51-10.1-6.9-10.78-1.36-.7-6.65-3.19-8.48-2.06-1.84,1.14-8.48,2.5-8.48,2.5l-9.56-2.5s-2.15-3.45-3.18-3.45-16.63-2.53-16.63-2.53l-7.34-2.29s-3.91-1.16-5.75-1.16-3.43,1.16-3.43,1.16c0,0-3.91,1.16-6.9,1.16s-10.32-.7-10.32-.7l-8.54-.84c.24-.2.48-.4.73-.61,2.79-2.29,6.26-5.25,9.05-7.69.29-.24.57-.48.83-.72.5-.44.97-.84,1.4-1.23.29-.26.57-.5.81-.72.84-.75,1.47-1.32,1.78-1.6l.15-.15c1.14-1.14,5.27-3.19,8.48-5.64,3.21-2.42,4.13-2.39,3.67-3.76-.46-1.38,0-3.89,1.14-4.81,1.16-.92,4.37-2.07,4.37-2.07,0,0-.22-4.83-.94-5.97-.72-1.14.72-2.53,4.39-7.34,3.67-4.81,3.89-.7,5.86-1.84,1.96-1.14.09-3.21.09-5.73s-.68-7.34,1.62-10.34c2.29-2.99,8.96-3.21,9.64-3.21s3.21-5.86,3.21-5.86l.02-.02s.09-.07.18-.15c.07-.06.18-.15.29-.24.02-.02.04-.02.06-.04.13-.09.26-.22.42-.35.02-.02.04-.04.06-.05.13-.09.28-.2.44-.33.33-.26.7-.55,1.1-.88.18-.13.37-.28.57-.44.06-.04.11-.09.17-.13.26-.2.51-.4.79-.61.44-.35.9-.7,1.34-1.03.35-.28.72-.55,1.05-.81.39-.28.75-.55,1.08-.79.13-.11.26-.2.39-.28.59-.42,1.06-.73,1.34-.86,1.5-.7,3.21-2.4,3.91-2.4s4.35.57,5.05,1.6c.68,1.03,4.7,3.1,6.54,3.1s5.16.24,6.54,0c1.38-.24,5.51-1.6,7.45-1.6s6.2.68,6.2.68c0,0,.81-.46,1.03,1.49.24,1.95.7,4.13.81,5.4.11,1.27.46,4.02,1.14,3.78.7-.22,3.91-2.29,3.91-2.29,0,0,2.52-1.84,2.64-.35.11,1.5.57,4.48,1.03,3.91.46-.57,2.75-2.64,2.75-2.64l1.38-2.29,1.38-.46s2.07,1.16,4.48.57c2.41-.57,8.61-.68,8.94-.79.35-.13,1.16-1.27,1.95-1.27s3.8.46,4.48.81c.7.33,2.29,0,2.99-.46.68-.46.35-.92,2.75-2.07,2.41-1.14,5.16-1.73,5.51-1.73s2.52,1.39,2.52,1.39c0,0,1.5-.48,3.34.33,1.84.81,4.7,5.05,4.81,5.75.11.68-2.64,4.24-2.86,5.05-.24.81,2.75,2.64,3.43,3.08.7.48,2.18,1.54,1.62,3.76-.57,2.22-.24,1.98-1.27,3.82-1.03,1.84.81,8.37,1.73,10.1.92,1.73,2.06,5.86,2.64,6.08.57.24,1.95-.11,2.97,0,1.03.11-.81-.81,4.13-.81s7.23,2.64,7.23,3.34-.7,3.56-1.84,4.59c-1.16,1.03-3.32,3.08-3.56,4-.24.92-.11,3.65.11,4.46.24.83.57,4.15.24,4.96-.35.81-.59.11-.11,2.86.44,2.75,2.17,5.64,2.75,5.97.57.35,3.08,1.38,3.32,3.21.22,1.84,1.14,6.08,2.52,7.12,1.38,1.03,2.86,1.27,3.78,1.49.92.22,10.45,1.84,10.79,1.27.35-.57.7-.7,1.62-3.1.92-2.4,1.36-4.02,2.97-4.59,1.62-.57,1.03-.92,4.02-.7,2.97.24,4.35.35,5.73.24,1.38-.11,3.56-.24,4.83-1.49,1.25-1.27,4.24-3.45,4.24-3.45l3.67-.92,3.21-2.86s-.46,4.74,0,5.51c.46.77,1.98,2.15,3.21,2.61,1.23.46,7.2.46,8.57.61,1.38.15,3.97.77,3.21,2.15ZM997.39,464.72c-.29.53-.57,1.05-.84,1.54-.24.46-.48.9-.7,1.32-1.01,1.87-1.85,3.45-2.35,4.44-1.95,3.91-10.78,12.17-12.72,15.25-1.96,3.1-5.29,11.25-6.31,13.66-1.03,2.42-4.02,4.02-6.88,5.18-2.88,1.14-2.18-2.18-2.99-2.99-.81-.81-5.62,4.7-7.86,7.1-2.22,2.42-.4,5.29-.06,6.9.35,1.6-.81,3.67-2.07,5.84-1.25,2.18.24,3.1.9,5.4.64,2.29.15,5.86-.02,8.26-.15,2.4.04,6.53,0,7.12-.04.57-3.29,4.24-3.86,6.99-.57,2.75.92,6.08,1.95,9.29,1.03,3.21.81,9.99,1.27,11.93.46,1.95.81,11.47.57,13.09-.22,1.6-1.38,4.81-2.97,9.18-1.62,4.35-2.29,10.78-3.78,16.52-1.51,5.73-.81,14.8-.7,15.25.11.46,1.73,8.61,1.95,10.21.24,1.6-2.17,5.27-2.17,5.27,0,0-3.8,3.23-5.98,4.83-.4.29-.81.72-1.23,1.21-1.43,1.71-2.88,4.37-3.98,6.57l-1.43-.75s-7.65-4.13-8.57-5.51c-.77-1.16-4.53-2.74-6-3.84-.29-.22-.5-.42-.57-.59-.46-1.08.31-3.07.31-3.98s-4.13-6.43-5.51-8.11c-1.38-1.67-2.61-2.75-3.84-4.28-1.21-1.52-.92-3.07-.92-4.9s0-3.82.31-4.88c.31-1.08,2.15-2.29,4.44-2.92,2.29-.61,2.9-1.52,3.67-3.67.75-2.13-3.21-3.05-2.46-4.42.77-1.38,3.38-4.75,4.59-5.97,1.23-1.23,6.59-2.92,7.65-3.84,1.06-.92,1.23-3.36,0-6.11-1.23-2.75-3.36-3.52-5.19-4.9-1.84-1.38-5.51-1.38-6.88-1.38s-4.13-1.52-4.3-2.75c-.15-1.21-1.21-.92-4.88-2.29-3.67-1.38-3.52-.61-6.28-.75-2.75-.17-2.15,1.06-2.44,1.84-.31.75-2.75,1.21-2.75,1.21,0,0-5.05-.75-5.51-1.52-.46-.77-.62-4.13-.62-4.13l-6.26-11.16s-2.75-1.69-3.67-2c-.92-.29-1.84.31-2.75,1.23s-7.66,1.52-7.66,1.52c0,0-3.21-.61-5.05-1.67-1.84-1.08-4.13-2.75-8.87-5.05-4.75-2.29-5.05-3.38-5.97-4.44-.92-1.06-3.52-3.36-8.26-4.59-4.75-1.23-4.3,1.06-6.13,1.98-1.84.92-2.44,3.52-3.51,4.44-1.08.92-3.07,0-5.05-.46-2-.46-3.38-2.29-4.3-4.44-.92-2.13.62-3.97,1.69-5.65,1.07-1.69.92-3.21.92-3.21,0,0-2.75-2.9-3.82-3.52-1.08-.61-10.26,0-13.01.75-2.75.73-9.93,7.05-9.93,7.05l-3.54,2.13-1.05.62s-6.43,1.69-8.43,2.92c-1.98,1.21-4.88,3.51-5.97,4.59-1.07,1.07-8.41,7.34-9.01,8.1-.62.77-6.13,2-7.2,1.84-1.06-.15.31-2.44,1.06-4.88.77-2.46,1.69-2,2-2.92.29-.92-1.38-1.98-1.38-2.59v-8.88c0-2.44,1.21-1.98,2.13-2.59.92-.62.17-2.15-.61-2.61-.77-.46-3.36-2.44-5.95-4.13-2.61-1.69-.94-5.65-.62-6.88.29-1.23.75-4.28.62-6.11-.15-1.84-.94-2.29-.94-4.75s.61-1.84,2.29-3.67c1.69-1.84,5.19-2.59,6.28-4.13,1.07-1.52-3.98-1.38-5.21-1.38s-4.74,1.38-5.2-1.38c-.46-2.75,1.98-3.51,2.77-4.42.77-.92.9-1.23,1.51-1.84.62-.62-.29-2.61-.99-2.92-.7-.29-1.91-1.21-1.91-2.44s.46-3.52,1.91-5.05c1.45-1.52.39-2.29,0-3.07-.39-.75-2.22-1.07-2.83-1.52-.61-.46-3.21-8.57-2.9-9.49.07-.22.39-.37.84-.48.15-.04.33-.07.53-.11.09-.02.2-.04.31-.06h.02c.42-.09.9-.16,1.36-.31.15-.04.29-.07.42-.13.31-.09.62-.24.9-.4.42-.22.79-.53,1.08-.94.09-.15.18-.29.26-.48,1.14-2.61-6.04-3.98-6.04-3.98,0,0-.15-2.59.31-3.05s5.05-.46,6.72-.92c1.69-.46-.92-3.21-1.51-4.13-.61-.92-5.21-.92-6.44-1.69s-4.59-2.61-5.36-4.13c-.75-1.52,5.36-9.78,6.88-11.79,1.54-1.98,7.34-6.88,9.64-9.33,2.29-2.44,5.36-5.19,6.59-6.74,1.21-1.52,0-2.52,0-2.52l-.22-.42c.97-1.01,2.88-3.51,3.73-3.03,1.08.62,3.98,4.75,3.98,6.74s1.38,2.29,1.38,3.67-.61,3.36,0,5.05c.61,1.69.46,3.98,3.36,5.36,2.92,1.38,6.88,1.38,7.65,1.52.77.15,3.07,1.69,4.9.77.18-.09.37-.18.57-.29,1.8-1.01,4.15-2.75,5.23-4,1.23-1.38,4.75-5.51,5.21-5.51s1.98.92,3.36.92,5.2-1.74,6.57-2.55,5.05-4.79,5.97-6.46c.92-1.69,5.21-9.18,4.75-10.55s-1.38-3.38-2.75-4.59c-1.38-1.23-4.3-3.52-2-6.43,2.29-2.92,8.43-6.59,9.03-6.74.61-.15,3.07-3.36,3.07,0s.46,4.59,1.84,4.74c1.38.17,1.21.46,3.51.17,2.29-.31,5.67-.92,6.13,0,.46.92-.17,3.05,2.44,3.97,2.61.92,4.59,1.84,6.11,0,1.54-1.84,3.67-4.59,4.75-5.34,1.06-.77,4.74-2.15,6.42-2.29,1.67-.17,5.2-.77,5.2-.77l8.11-6.28s.29-2.29,4.28-4.13c3.19-1.47,7.49-4.74,9.03-5.95.44.72.99,1.4,1.67,1.98,2.92,2.44,4.13,1.84,6.28,3.97,2.15,2.15,5.2,6.74,5.51,7.51.31.75,1.06,1.21,0,2.29-1.06,1.06-1.69,2.59-1.69,3.21s2.46,4.59,3.38,4.28c.92-.31,6.76-4.13,6.76-4.13,0,0,1.5-.46,2.26-1.38.77-.92,2-2.29,2-4.28s-1.38-2.75,0-2.92c1.38-.15,2.59,0,3.51,0s2.92-.9,3.52-1.36c.61-.48,1.23-.02,2.44-1.85,1.23-1.84,3.52-4.13,5.05-5.65,1.54-1.52,3.67-3.52,5.05-3.98,1.38-.46,2.75-3.67,4.3-1.21,1.52,2.44,2.29,4.42,3.36,5.05,1.07.61.15.61,3.67,1.06s5.65.15,6.11.46c.46.31,2,2.44,3.38,3.21,1.38.77,3.05,1.38,3.97,1.38s4.13-.13,5.82,1.54c1.69,1.67,2.44,5.03,2.44,5.65,0,.5.22,1.21.9,2.31.13.22.29.48.48.73,1.08,1.54,3.38,3.38,3.38,4.59,0,.17.02.39.07.62.24,1.49,1.14,4.04,1.14,5.34,0,1.54.77,4.75,1.84,5.51.68.48,2,2.15,3.14,3.54v.02c.66.84,1.27,1.6,1.62,1.95.92.92,1.38,2,1.38,2.99s-2.15,4.52-2.15,4.52c0,0-.61-.46.15,2.29.77,2.75,1.23,3.21,1.08,4.74-.16,1.52-3.38,2.44-3.84,2.29-.46-.15-2.75-1.52-2.75-1.52,0,0,.17-.62-1.84,0-1.98.61-4.59-.73-4.59,1.54s.92,4.4,1.84,6.09c.92,1.69,1.38,1.69,2.29,3.52.92,1.84,1.08,2.9,1.54,4.59.46,1.69-.16.46,1.52,3.52,1.69,3.05,4.59,4.88,4.59,4.88,0,0,5.97-.61,6.57,0,.62.62,3.21-.46,4.59,0,.4.13,1.54.29,2.94.46ZM892.54,758.64c-2.18.81-9.86,2.06-11.23,2.75-1.38.68,0,2.17,0,3.56s-1.84,1.03-4.48,1.6c-2.64.57-3.56,1.95-4.59,2.64-1.03.68-.57,3.1-.46,3.89.11.81,3.32,1.96,3.32,1.96v2.4c0,.92-1.95,1.49-4.02,2.52-2.06,1.03-21.44.92-21.44.92,0,0-3.67-.33-5.29,0-1.6.35-3.78,3.78-4.81,4.02-1.03.24-4.83.46-7.01.24-2.17-.24-1.84-.92-2.41-1.73-.57-.81-6.19-.92-7.21-.92s-3.1,1.14-4.26,2.51c-.31.39-.75.77-1.25,1.12-1.27.95-2.92,1.73-3.91,1.98-1.38.35-4.48.81-5.97.81s-.57-1.62-.22-2.53c.33-.92,1.14-1.03,3.43-3.08,2.29-2.07-.35-2.07-.81-2.18-.07-.02-.33,0-.72.09l2.59-3.34s1.69-2.29,2.46-3.67c.75-1.38-1.84-2-3.21-2.15-1.38-.15-7.34-.15-8.57-.61-1.23-.46-2.75-1.84-3.21-2.61-.46-.77,0-5.51,0-5.51,0,0,9.64-2.44,12.85-3.21.61-.15,1.43-.4,2.41-.72.28-.09.57-.18.86-.29.92-.31,1.93-.66,2.96-1.03.92-.33,1.85-.68,2.75-.99.24-.09.46-.18.68-.26,1.8-.64,3.43-1.23,4.57-1.6.15-.06.29-.09.42-.13.26-.07.46-.15.64-.18,2.46-.62,6.74.75,8.88,1.06,2.13.31,5.34,1.52,6.43,1.69,1.06.15,2.59-1.69,3.97-3.98,1.38-2.29,12.85-4.44,12.85-4.44,0,0,2.61-.61,3.4-1.06.79-.46,1.19-1.69.28-4.13-.92-2.44.62-4.13,1.38-5.82.77-1.67,1.38-4.28,2-5.8.61-1.54.61-2,2.75-5.51,2.13-3.52,3.36-2.75,4.28-5.82.39-1.3,2.02-2.46,3.76-3.36.28,1.45-.26,3.89.37,4.97.68,1.14,2.07,2.52,2.07,5.27s-.24,2.99,1.84,3.91c1.6.72,6.85,1.14,9.07,1.29.64.05,1.03.07,1.03.07l6.08,1.62h2.72c-.17.4-.31.83-.42,1.27-1.38,5.16-3.1,7.56-2.64,9.18.46,1.6,2.75,5.16,3.56,8.13.81,2.99-6.31,4.37-8.5,5.18ZM709.87,847.26c-3.56,3.41-8.89,6.72-10.54,7.97-2.4,1.84-5.27,6.54-5.73,8.72-.15.73-.02,1.47.31,2.18-9.33-1.63-15.46-.73-16.94,0-1.84.92-5.29,3.89-7.34,5.29-2.07,1.36-3.23,0-4.15-.24s-2.06-1.38-3.43-3.43c-1.38-2.07-5.27-2.75-5.97-2.75s-3.89.92-7.12,1.58c-3.19.68-3.43,1.17-3.43,1.17,0,0-2.29-.92-3.43-1.16-1.16-.24-5.07,2.99-5.75,3.67-.68.68-2.75,1.56-2.75,1.56,0,0-2.07.04-6.19,0-4.15-.06-3.67,6.02-3.67,8.08v5.05c0,1.38-3.23.92-5.29,1.16-2.06.22-7.56-4.15-9.88-4.83-2.28-.68-4.83,0-4.83,0,0,0-.9-.46-2.74-2.07-1.84-1.6-5.51-.92-7.56-1.14-2.07-.22-4.59.22-5.29,0-.7-.22-4.59-2.29-6.06-4.28-1.47-1.96-4.74.61-6.09,0-1.39-.59-2.53,1.98-2.53,1.98,0,0-3.89-.68-4.59-2.52-.7-1.84-3.21-1.39-4.37-1.39-.68,0-3.51.99-5.67,1.78-.44-4.42-2.92-8.21-2.92-8.21,0,0-3.21-8.94-3.78-10.89-.59-1.96-1.84-1.96-2.88-2.53-1.03-.57-5.86-.79-7.91-.79s-2.64.92-5.97,1.49c-3.32.57-2.29-1.38-2.18-1.73.11-.35,1.95-4.48,2.53-5.16.57-.7,1.73-5.29,2.06-8.37.35-3.1.81-7.12,3.21-10.9,2.4-3.78.46-8.26,0-9.88-.46-1.6-.79-4.48-1.27-5.51,0,0,2.75-.11,5.51-1.73,2.75-1.6,2.07-2.28,2.75-4.59.7-2.28.48-4.11,1.16-7.1.68-2.99,2.99-2.52,5.05-3.91,2.06-1.36,1.14-2.75,1.14-3.67s1.4-5.95,2.75-7.56c1.4-1.62,7.58-6.43,10.34-8.04.2-.13.5-.31.84-.57.18-.13.37-.28.57-.42.22-.15.44-.31.66-.5.04-.02.07-.06.13-.11.33-.24.68-.53,1.05-.83.2-.15.39-.31.59-.48h.02l8.54.84s7.34.7,10.32.7,6.9-1.16,6.9-1.16c0,0,1.6-1.16,3.43-1.16s5.75,1.16,5.75,1.16l7.34,2.29s15.6,2.53,16.63,2.53,3.18,3.45,3.18,3.45l9.56,2.5s6.65-1.36,8.48-2.5c1.84-1.14,7.12,1.36,8.48,2.06,1.39.68,5.51,8.26,6.9,10.78,1.36,2.52,0,6.88,0,8.5s1.36,5.27,2.28,6.87c.92,1.62,3.91,5.51,5.64,7.12,1.74,1.62,1.03,3.45,1.03,4.81s-.68,3.23-.92,4.15c-.24.92,0,3.45,0,3.45,0,0,7.58.66,8.26.22.68-.48,6.43,0,8.72,0s3.21,1.6,3.21,1.6v9.64c0,2.29,2.51-3.45,2.51-3.45h5.98c1.36,0,1.6,7.34,3.19,8.26.92.51,1.69,1.87,2.17,2.94ZM658.83,941.86c-.7.68.22,2.75-.7,5.05-.92,2.29-3.67,5.05-4.35,6.2-.68,1.14-2.51-.7-.68,1.14,1.84,1.84,3.43-.46,4.11,0,.7.46,3.23-.22,3.23-.22,0,0,.92,1.36,1.6,2.52.13.22.77,1.49,1.73,3.41-.75.92-1.45,1.84-2.13,2.72-.26.35-.51.7-.75,1.03-1.47,1.98-2.66,3.82-3.43,5.34-3.78,7.45-19.04,34.88-21,38.22-1.95,3.32-13.53,12.96-18.58,15.71-3.54,1.93-7.34,4-10.56,6.46-3.08,2.33-3.95,6.52-7.21,9.07-1.74,1.36-3.74,2.4-5.31,3.98-2.75,2.83-3.67,6.9-4.92,10.63-1.71,5.07-4.02,11.42-7.8,15.33-1.54,1.58-3.62,1.89-5.36,3.27-2.72,2.13-7.67,9.29-11.53,8.17-3.87-1.12-3.16-6.11-3.54-9.07-.57-4.37,0-5.16,1.16-7.8,1.14-2.64,3.43-2.52,4.35-3.67.92-1.16,3.91-2.86,5.29-4.83,1.38-1.95-1.38-4.7-2.53-6.08-1.14-1.38-5.27-1.84-7.1-2.75-1.84-.92-3.32-3.78-3.32-5.73s-2.75-4.48-5.07-6.77c-2.28-2.29-4.92-4.81-4.92-4.81,0,0-6.42-1.62-9.64-5.86-3.21-4.24-3.32-3.67-4.37-4.13-1.03-.46-5.73-1.84-8.26-4.13-2.52-2.29-2.86-1.16-6.99-2.99-4.13-1.84-3.89-1.84-7.56-5.4-3.67-3.54-5.07-5.95-7.23-7.34-2.18-1.36-2.53,1.5-3.1,4.26-.57,2.75-5.05,2.97-6.19,1.6-1.16-1.38-1.62-4.59-3.1-6.99-1.49-2.41-7.34-8.48-9.42-11.47-2.06-2.99-6.65-4.83-10.67-6.88-4.02-2.06-6.43.46-7.58,1.73-1.14,1.25-8.02,3.21-9.86,2.17-1.84-1.03-1.38-1.71.11-3.78,1.49-2.06,14.68-17.09,18.6-20.87,3.89-3.8,15.36-17.33,17.33-18.93,1.95-1.62,4.7-4.83,6.42-6.32,1.71-1.5,4,.11,5.03-1.16,1.05-1.27-2.75-.79,1.39-4.59,4.11-3.78,10.43-8.02,17.44-12.96,6.99-4.94,12.85-7.91,13.77-8.37.92-.46,8.83-2.07,11.01-4.02,1.21-1.08,3.27-2.26,4.96-3.14.18-.09.37-.18.55-.28,4.48.06,12.17.13,13.29-.04,1.62-.22,15.38-.44,20.89,1.39,5.51,1.84,12.39,5.73,14.91,6.65,2.53.92,11.71,2.53,11.71,2.53,0,0,2.75.44,3.21,1.84.46,1.36,17.9,14.45,19.95,17.44,2.07,2.97,8.5,6.42,11.25,6.42s11.47-1.16,12.17-1.16,7.1-1.84,5.03,2.51c-2.06,4.37-5.03,5.07-5.73,5.75ZM760.02,186.01c-.68,6.43-4.11,19.05-6.19,22.95-2.07,3.89-5.75,8.72-6.66,12.15-.92,3.45-.92,7.58-1.84,10.1-.92,2.53-1.84,4.59-4.11,7.82-2.31,3.19-5.51,5.73-6.2,7.78-.7,2.07.22,2.99-1.84,6.2-2.06,3.21-2.53,4.59-5.05,7.8-1.14,1.45-2.24,3.19-3.45,4.86-1.49,2.04-3.14,3.98-5.27,5.23-3.89,2.29-8.26,3.67-9.88,5.27-1.6,1.62-2.97,1.16-5.51,5.07-.55.86-1.16,1.63-1.78,2.33-2.17,2.44-4.48,3.93-5.56,5.01-1.36,1.36-7.1,3.67-5.51,4.11,1.62.48,7.12.92,8.04,1.16.92.24,4.37,3.91,5.05,4.35.68.48,2.99,4.15,2.52,5.51-.44,1.39-2.52,3.45-3.43,4.37-.92.92-.92,2.53-.92,4.13s.46,2.75-2.07,5.97c-2.52,3.21-7.89,10.1-9.45,11.23-1.56,1.16-5.45.7-7.07,2.31-1.6,1.6-4.35,2.75-5.27,5.03-.92,2.31-2.07,0-2.51,4.59-.48,4.59-3.23,8.04-3.45,9.18-.22,1.16.7,3.91,1.38,5.51.68,1.62,5.05,4.83,5.51,7.34.46,2.53-1.16,12.63-3.67,15.84-2.52,3.21-5.27,4.83-6.66,7.1-1.36,2.31-1.84,4.59-3.89,5.75-2.06,1.16-4.59.46-6.43,5.05-1.84,4.59-5.05,10.32-5.51,11.47-.37.94-2.85,6.76-3.8,8.96.17-.46.28-.75.33-.88.02-.04.02-.05.02-.05l-36.66-2.64-128.55-9.29h-8.94l-6.43-2.97s-2.29-4.81-2.99-6.2c-.68-1.36-5.51-.44-6.43-1.84-.92-1.36-2.28-4.11-3.19-5.69-.92-1.56-3.23-1.18-3.67-2.33-.48-1.16-2.53-7.8-2.53-8.94s-.22-5.98-2.06-8.26c-1.84-2.31-2.07-3.45-3.23-7.58-1.14-4.13,0-8.72,0-8.72,0,0-3.67-4-7.43-5.31,0,0-5.03-11.53-6.24-12.13-1.23-.61-2.75-3.67-2.75-5.51s7.64-8.87,10.39-15.29c2.75-6.42,18.98-39.17,22.03-47.43,3.07-8.26,16.83-34.25,19.59-39.16,2.75-4.9,1.23-7.95,1.52-12.85.31-4.9,1.84-3.98,4.3-6.11,2.44-2.15,6.42-4.59,6.42-4.59l-2.15-3.07s-5.19,3.36-10.1,4.28c-4.9.92-6.74-2.13-7.65-2.44-.92-.31-2.13-1.84-4.28-6.74-2.15-4.88-5.51-2.44-7.03-3.36-1.54-.92-6.13-1.84-11.64-4.59-5.51-2.74-5.8-3.07-7.03-5.51-1.23-2.44,0-5.19,0-5.19h-8.57s-1.52-1.23-3.97-3.38c-2.46-2.13-1.84-1.21-4.59-4.88-2.75-3.67-2.75-8.26-3.67-11.01-.92-2.75-3.98-3.38-5.51-6.74-1.52-3.36,0-13.16,0-13.16l1.84-28.45c1.14.22,2.04.39,2.22.39.44,0,7.78-1.76,8.48-3.05.7-1.3,2.83-5.14,3.98-5.6,1.14-.46,4.66,2.68,7.49,2.37,2.83-.29,1.3-3.97,3.43-5.12,2.15-1.14,7.27.39,8.5,0,1.23-.37,3.98-4.66,6.81-6.65,2.83-1.98,3.89-.92,4.13-.92.22,0,4.66,1.91,7.42,2.15,2.75.22,4.59-.7,5.82-1.47,1.21-.75,7.56.17,10.1.92,2.52.77,6.65,3.14,9.4,2.07,2.75-1.07,1.76-6.81,1.76-6.81,0-.92-2.44-4.28-3.98-5.19-1.52-.92,3.07-6.74,3.07-6.74,0,0,8.26,3.36,9.49,3.67,1.21.31,3.36,0,6.11-2.75s9.18-1.84,10.1-1.84c.48,0,2.51,1.91,4.44,3.8.11.44,1.41,5.49,0,7.91-1.47,2.52-1.12,8.94.66,9.18,1.78.22,7.75-3.12,10.04-1.91,2.29,1.21,7.34,7.42,8.94,8.33,1.62.92,7.58,2.52,7.58,2.52,0,0,5.51,1.6,6.42,2.75.92,1.16,4.83,8.5,4.83,9.42s3.19,3.89,4.59,5.51c1.36,1.6,3.43,3.19,3.43,5.51s.68,8.7,0,9.86c-.68,1.16.24,2.75,1.6,5.51,1.4,2.75,11.01,9.18,11.01,11.47s1.16,6.2,1.84,6.88c.7.68,2.31,1.84,2.53,2.99.22,1.14.46,6.87,2.29,7.78,1.84.92,10.54,2.99,10.54,2.99,0,0,5.31,4.13,7.58-2.99,2.31-7.1,3.91-10.78,5.29-12.15,1.38-1.38,5.73-4.81,5.73-4.81,0,0,2.07-6.9,2.99-8.74.92-1.84,3.21-3.67,5.27-4.81,2.07-1.14,4.37-1.38,5.98-2.53,1.6-1.14,3.67-3.67,4.35-5.03.68-1.39,3.21-6.02,5.27-6.68,2.31-.73,4.22-1.74,6.53-2.17.95-.17,1.84-.4,2.68-.72.04.31.11.64.2.99.44,1.52.88,2.13.92,3.87.02,1.21-.4,3.32.57,4.35.35.35,4.83.46,4.83.46h4.02c.44,0,5.62,2.97,6.08,3.78.46.81,4.59,5.86,5.73,8.26,1.16,2.4,4.83,3.21,4.83,3.21,0,0,4.24,0,6.08-.46s5.75-.11,6.88-.11,3.45,3.67,3.45,3.67c0,0-1.5,1.95-2.42,3.21-.92,1.27,3.78,2.75,4.26,2.86.44.11,6.42.92,7.45.24,1.03-.7,9.51.79,17.44,1.95.44.07.95.17,1.56.29.26.04.53.09.81.17.79.17,1.67.39,2.66.62.42.11.88.24,1.36.35.33.09.68.18,1.03.28.72.18,1.45.39,2.2.59,1.25.35,2.55.72,3.93,1.1.81.22,1.62.46,2.46.7.64.18,1.28.39,1.95.57,1.38.4,2.75.81,4.15,1.23.48.15.97.29,1.45.42,3.1.92,6.19,1.85,9.01,2.74.61.18,1.21.37,1.78.55.06.02.11.04.17.06.13,5.07.17,11.64-.22,15.24ZM1065.39,354.58c-.09,7.18-3.71,30.53-4.64,32.44-.37.75-1.93,3.41-3.8,6.59l-1.95-2.57s-3.89-1.49-4.35-1.84c-.46-.35-3.56-1.38-4.83-1.38s-3.78,1.84-3.78,1.84c0,0-4.13,1.38-4.48,1.38s-2.51.11-4.24.35c-1.73.22-2.4,1.36-3.45,2.52-1.03,1.16-2.75,2.75-3.78,4.02-1.03,1.25-2.52,1.6-4.15,2.52-1.63.92-3.76.13-4.92.24-1.14.11-4.7,1.84-5.73,2.42-1.03.61-3.78-.13-5.51-.02-1.73.11-1.73-.24-2.53-.59-.79-.35-2.52-1.71-2.97-2.63-.46-.92-3.21-2.4-3.54-2.97-.35-.59-4.26-.7-4.94-.48-.7.22-1.51-2.63-1.84-2.86-.35-.22-3.8-3.08-4.15-3.21-.33-.11-2.28,2.29-2.86,3.32-.11.18-.24.4-.39.62-.13.22-.28.44-.44.66v.02c-.51.72-1.06,1.41-1.34,1.69-.48.46-2.88.81-3.1.92-.2.11-.92.68-1.49,2.07-.59,1.36-3.78,2.85-3.78,2.85-.68-1.1-.9-1.82-.9-2.31,0-.62-.75-3.98-2.44-5.65-1.69-1.67-4.9-1.54-5.82-1.54s-2.59-.61-3.97-1.38c-1.38-.77-2.92-2.9-3.38-3.21-.46-.31-2.59,0-6.11-.46s-2.61-.46-3.67-1.06c-1.06-.62-1.84-2.61-3.36-5.05-1.54-2.46-2.92.75-4.3,1.21-1.38.46-3.51,2.46-5.05,3.98-1.52,1.52-3.82,3.82-5.05,5.65-1.21,1.84-1.84,1.38-2.44,1.85-.61.46-2.61,1.36-3.52,1.36s-2.13-.15-3.51,0c-1.38.16,0,.92,0,2.92s-1.23,3.36-2,4.28c-.75.92-2.26,1.38-2.26,1.38,0,0-5.84,3.82-6.76,4.13-.92.31-3.38-3.67-3.38-4.28s.62-2.15,1.69-3.21c1.06-1.08.31-1.54,0-2.29-.31-.77-3.36-5.36-5.51-7.51-2.15-2.13-3.36-1.52-6.28-3.97-.68-.59-1.23-1.27-1.67-1.98.39-.29.61-.48.61-.48,0,0,.46-1.06,5.05-4.28,4.59-3.21,7.03-4.74,8.57-6.74,1.14-1.49,2.39-4.44,2.92-5.82.18-.46.29-.75.29-.75,0,0-.17-5.97-1.38-7.95-1.23-2-2.15-3.07-2.15-4.13s.61-3.52,1.84-5.51c.4-.64.88-1.36,1.36-2.06,3.62,1.08,7.14,2.09,8.17,2.2,2.29.24,5.27.92,6.43.68,1.14-.22,4.02-.92,5.16-1.95,1.14-1.03,7.34.11,7.34.11,0,0,4.24,2.31,5.4,3.8,1.14,1.49,1.73,2.06,3.89,5.38,2.18,3.34,4.59,3.56,6.31,4.15,1.73.57,1.62-.59,3.1-2.75,1.36-2,2.83-2.94,4.02-4.41.26.26.42.46.44.61.13,1.05,3.56,2.4,3.91,2.4s2.07-.79,3.91-1.71c1.84-.92,2.52,1.71,2.97,2.4s2.18,2.53,4.02,2.97c1.84.48,9.53-4.24,11.58-5.73,2.06-1.49,3.67-3.21,5.16-5.51,1.49-2.29,2.88-2.29,5.07-4.37,2.18-2.06,4.57.48,6.41.59,1.84.11,3.56,3.89,3.56,5.05s-.81,1.95-1.27,2.18c-.46.22-2.41,1.14-3.21,2.17-.81,1.03,0,1.84,0,2.75s-1.25,1.38-2.41,2.29c-1.16.92-1.6,2.88-1.49,3.21.11.35,1.84,1.84,2.63,2.53.79.68.7,4.7,1.16,5.4.46.68,2.29,1.6,3.78,1.6s2.29-1.38,3.34-2.07c1.03-.68,2.86,0,3.67,0s3.32-1.95,3.32-3.67.79-3.43,1.84-4.81c1.03-1.38,1.71-1.73,2.97-2.85,1.27-1.12,1.96-.83,4.59-.26,2.64.57,5.05,0,6.42,0s2.64-.11,3.8-.68c1.14-.59,5.16-1.38,5.62-1.38s2.97-.24,4-2.18c1.05-1.95.59-2.75.81-3.3.24-.55,2.99-1.98,4.94-2.9,1.95-.92,3.56,0,3.56,0,0,0,6.08,3.34,6.43,3.34.18,0,2.31.86,4.19,1.63ZM1000.95,278.89s-5.16,1.08-7.67,1.19c-2.53.11-3.1-.81-4.13,1.03-1.03,1.84-2.29,5.05-2.75,7.12-.46,2.06-1.73,3.1-4.13,6.99-2.41,3.89-3.19,6.42-4.59,8.72-1.38,2.29-1.27,3.67-3.67,5.27-2.4,1.62-2.07,1.27-6.2,4.15-3.89,2.7-5.12,4.88-4.97,6.37,0,.09.02.18.04.28.35,1.49.59,3.32-.06,5.05-.62,1.73-1.89,3.43-1.78,5.16.13,1.73,2.18,1.95.81,3.56-1.38,1.62-2.86,1.49-3.08,2.64-.24,1.14.57,1.6,1.71,3.78,1.16,2.18,3.91,6.54,2.99,8.61-.92,2.06-2.18,3.89-3.45,5.62-.11.15-.22.29-.33.42-1.19,1.47-2.66,2.41-4.02,4.41-1.49,2.17-1.38,3.32-3.1,2.75-1.73-.59-4.13-.81-6.31-4.15-2.17-3.32-2.75-3.89-3.89-5.38-1.16-1.49-5.4-3.8-5.4-3.8,0,0-6.2-1.14-7.34-.11-1.14,1.03-4.02,1.73-5.16,1.95-1.16.24-4.13-.44-6.43-.68-1.03-.11-4.55-1.12-8.17-2.2,1.06-1.52,2.15-3.03,2.46-3.76.46-1.06,3.67-9.78,1.69-12.08-1.98-2.29-5.51,0-7.34-5.05-1.84-5.05-2.9-9.34-2.9-12.1s-1.08-3.97-2-5.8c-.92-1.84-1.38-5.97-.92-8.72.46-2.75,1.69-6.88.62-8.88-1.08-1.98-5.05-5.65-6.74-7.34-1.69-1.67-1.84-6.26-1.98-7.03-.17-.77.29-6.28,1.52-8.87,1.23-2.61,4.13-6.28,2.61-9.18-1.54-2.92-3.84-5.97-4.75-7.97-.92-1.98-2.13-4.74-2.13-8.1s1.06-12.1,1.52-13.77c.24-.92.5-2.35.68-3.71.33-.04.7-.07,1.05-.13,1.08-.13,2.26-.31,3.45-.5.59-.09,1.16-.18,1.76-.29.97-.16,1.95-.33,2.92-.51.5-.07.99-.17,1.49-.26.81-.13,1.6-.28,2.37-.4.77-.13,1.51-.24,2.2-.35.35-.06.7-.11,1.01-.15.64-.09,1.25-.17,1.78-.2,5.51-.48,15.49.33,17.55.44,2.06.13,11.47,7.58,16.74,10.9,5.29,3.34,12.98,9.53,14.12,10.21,1.16.7,5.05,2.53,5.86,2.75.81.24,2.97,3.34,2.97,3.34,0,0,5.98,6.65,7.58,8.48,1.6,1.84,3.56,2.86,6.43,4.13,2.86,1.27,6.42,3.8,8.02,5.51.51.53,1.23,1.23,2.04,2,.24.22.51.48.77.72.44.4.88.83,1.32,1.25,1.14,1.05,2.18,2.07,2.77,2.81.83,1.06,2.81,2.62,4.57,3.85ZM207.58,418.61c-.72.55-1.43,1.23-1.95,2.02-1.41,2.18-2.84,3.65-3.56,4.68-.04.06-.07.09-.11.15-.68,1.03-4.81,3.78-5.16,4-.35.24-6.77.48-8.13.59-1.39.11-2.64,1.73-3.56,3.21-.92,1.49-2.86,2.63-3.91,3.67-1.03,1.03-2.29,0-3.21,0s-5.16.35-7.91.92c-2.75.57-.92,4.13-1.03,5.62-.13,1.49-8.61,8.5-14.58,9.29-5.97.81-1.38-2.97-2.4-4.7-1.03-1.73-4.59,1.16-5.4,1.18-.81.04-4.7-2.33-5.86-2.9-1.14-.57-3.67-.35-4.24-.35s-5.97,1.73-7.23,1.05c-1.25-.7-4.48-2.07-5.27-2.29-.81-.24-3.45-.11-5.75,2.41-2.29,2.52-3.32,2.07-5.4,2.07s-8.37-.59-8.83-2.42c-.46-1.84-.92-11.34-.92-16.52s1.05-7.8,1.49-10.21c.48-2.41-.92-3.56-1.03-6.31-.11-2.75,1.73-3.43,1.73-5.05s-1.14-2.97-2.18-2.97-4.24,2.86-6.43,4.59c-2.18,1.71-6.77,5.27-8.61,7.8-1.84,2.52-6.65,4.13-10.67,4.59-4.02.46-13.42.22-16.06-1.16-2.64-1.38-2.86-10.32-4.35-13.07-1.49-2.75-6.42-1.84-10.22-2.53-3.78-.68-10.89-.46-12.15-1.84-1.27-1.38,3.21-4.59,4.81-7.21,1.62-2.64.24-4.15-2.06-7.47-2.29-3.32-6.77-7.1-7.56-8.26-.81-1.14-4.26-2.86-5.07-4.24-.79-1.38-2.28-5.05-3.32-7.12-1.03-2.06-.79-3.43-.79-4.92s-.35-3.91-1.84-4.94c-1.5-1.03-4.26-4.83-4.26-6.77s.46-3.08,2.64-5.05c2.18-1.95,1.03-2.75,1.14-4.02,0,0,23.86,7.82,27.32,9.66,3.45,1.84,30.29,8.02,37.17,8.94,6.88.92,22.03,2.99,25.46,5.97,3.45,2.97,16.3,8.72,22.73,14.46,6.43,5.73,41.08,19.95,48.87,23.63,7.82,3.67,19.51,7.8,19.51,7.8l4.77,2.39,3.36,1.67ZM657.81,117.06c-.61,2.94-2.7,4.87-2.39,7.77-.84.31-1.73.55-2.68.72-2.31.42-4.22,1.43-6.53,2.17-2.06.66-4.59,5.29-5.27,6.68-.68,1.36-2.75,3.89-4.35,5.03-1.62,1.16-3.91,1.39-5.98,2.53-2.06,1.14-4.35,2.97-5.27,4.81-.92,1.84-2.99,8.74-2.99,8.74,0,0-4.35,3.43-5.73,4.81-1.38,1.38-2.97,5.05-5.29,12.15-2.28,7.12-7.58,2.99-7.58,2.99,0,0-8.7-2.07-10.54-2.99-1.84-.92-2.07-6.65-2.29-7.78-.22-1.16-1.84-2.31-2.53-2.99-.68-.68-1.84-4.59-1.84-6.88s-9.62-8.72-11.01-11.47c-1.36-2.75-2.28-4.35-1.6-5.51.68-1.16,0-7.58,0-9.86s-2.07-3.91-3.43-5.51c-1.39-1.62-4.59-4.59-4.59-5.51s-3.91-8.26-4.83-9.42c-.92-1.16-6.42-2.75-6.42-2.75,0,0-5.97-1.6-7.58-2.52-1.6-.92-6.65-7.12-8.94-8.33-2.29-1.21-8.26,2.13-10.04,1.91-1.78-.24-2.13-6.66-.66-9.18,1.41-2.42.11-7.47,0-7.91l.02.02c1.82,1.78,3.49,3.52,3.49,3.52,0,0,10.41,2.15,11.33,1.84.92-.31,10.1-1.52,11.62-2.15,1.54-.61,10.72.31,10.72.31,0,0,6.42,1.84,7.34,1.84s10.39-3.07,12.54-5.51c2.15-2.44,7.03-7.65,8.87-15,1.84-7.34,12.85-22.63,15-24.47,2.15-1.84,4.9-8.57,5.19-11.33.31-2.75,2.75-3.05,2.75-3.05l8.88,6.11.95,2.64s.68,3.78.68,5.27-.11,4.13-.11,6.08,1.03,6.77,1.62,12.06c.57,5.27,4,12.04,4,13.64s2.42,3.67,2.99,5.4,1.27,4.7,1.84,5.18c.57.44,3.32.22,4.13.22s3.43,1.03,4.35,1.73c.92.68,1.16,4,2.18,7.8,1.03,3.78,2.18,2.06,2.64,2.18.46.11,5.73,2.41,6.76,3.32,1.05.92,1.73,6.43,2.07,9.18.35,2.74-1.47,11.4-1.49,11.47ZM418.67,109.51l-1.84,28.45s-.31-.06-.9-.13c-.11-.02-.24-.04-.37-.06-.07-.02-.15-.02-.24-.04-.11-.02-.24-.04-.39-.06-.13-.02-.26-.04-.4-.06-.24-.04-.5-.07-.77-.11-1.65-.22-3.85-.51-6.31-.77-.28-.04-.59-.05-.88-.09-.7-.07-1.43-.15-2.17-.22-.42-.04-.86-.07-1.3-.11-.39-.04-.77-.06-1.14-.09-.62-.06-1.27-.09-1.89-.13-.09,0-.2,0-.29-.02-.24-.02-.48-.02-.7-.04-.83-.04-1.63-.07-2.42-.09-5.51-.17-10.15.26-10.74,2,0,0-2.75,9.03-4.59,11.93-1.84,2.92-6.26,10.1-5.2,11.18,1.07,1.06,2.9,1.52,3.21,2.75.31,1.21-2.02,3.05-3.38,3.51-1.36.46-3.82,1.38-4.88,1.38s-3.98-2.13-3.98-2.13c0,0-1.67-4.13-3.36-5.05-1.69-.92-9.49-3.98-10.55-2.75-1.06,1.21-6.88,3.82-7.49,6.57-.62,2.75.75,4.28,1.06,6.43.31,2.15-.46,3.07-1.23,3.98-.75.92-1.06,1.52-1.06,3.21s.15,2.29,1.69,4.59c1.52,2.29,2.59,3.21,1.84,3.97s-2.29,0-3.52-.75c-1.23-.77-1.84-4.29-4.13-4.29s-3.36.46-3.98-.29c-.61-.77-3.82-5.82-4.13-6.28-.29-.46-3.05-4.44-5.8-5.82-2.75-1.38-7.51-3.21-6.88-4.28.61-1.06,5.05-3.52,6.57-4.59,1.52-1.06,2.44-3.52,2.44-5.05s1.08-4.74-1.98-7.49c-3.07-2.75-5.65-11.18-5.82-13.62-.15-2.44-1.32-3.67-1.27-5.36.06-1.67-1.29-4.42,0-6.57,1.27-2.15,4.02-5.65,3.27-6.88-.77-1.23-2.92-6.42-3.84-6.88-.92-.46-7.95-6.11-7.95-6.11,0,0,.31-3.67,1.52-6.59,1.23-2.9,2.29-4.88.77-6.26-1.52-1.38-5.65-3.38-6.43-3.52-.77-.15-5.65-1.52-5.65-1.52,0,0-3.56-1.98-4.39-2.07.4-1.78.57-3.98.72-4.59.22-.99-1.69-2.37-1.93-2.61-.22-.22-3.74.48-4.59,1.23-.83.77-4.74.07-7.25-.31-.31-.04-.61-.11-.86-.18-.02-.02-.05-.02-.07-.02-.17-.06-.31-.11-.44-.17-.04-.02-.07-.04-.11-.05-.13-.07-.26-.13-.37-.2-.04-.02-.06-.04-.09-.06-.07-.06-.15-.09-.22-.15-.07-.05-.13-.09-.18-.15-.22-.18-.39-.37-.53-.55h.02c-.07-.09-.15-.18-.22-.28-.09-.11-.17-.22-.22-.31-.04-.06-.07-.11-.09-.15-.06-.07-.09-.13-.13-.18-.39-.53-.31-3.29.15-4.35.46-1.08.24-3.07-.15-4.75-.39-1.67-2.83-3.36-4.52-4.88-1.69-1.54-1.76-5.67-1.76-5.97,0-.31-.15-3.07-.15-3.98s1.3-1.3,1.91-2.44c.62-1.16.46-2.46.31-3.21-.17-.77-4.66-3.84-7.27-5.97-2.61-2.15-6.57-4.97-9.78-8.26-3.21-3.3-1.45-5.14-1.45-5.14,0,0,5.34,3.67,7.42,4.37,2.06.7,5.19,1.07,7.64,1.07s2.29,1.38,2.39,1.76c.07.39,3.43,3.91,3.82,4.13.39.24,2.68-1.07,3.29-1.38.61-.29,5.65,1.69,6.11,1.84s3.67.84,4.37.62c.68-.24,3.97-2.53,4.97-2.92.99-.39,2.59,1.52,2.97,1.91.39.39,4.97,4.52,5.19,5.67.24,1.14,1.69,2.52,1.69,2.52,0,0,1.62-.68,1.98-1.3.39-.61,1.76-1.38,2.07-1.52.31-.15,1.84,1.16,2.83.61.99-.53.61-7.27.46-8.41-.15-1.14,6.13-4.2,6.96-4.52.84-.31,6.66.99,6.66.99,0,0,4.52.24,5.8-.46,1.3-.68,5.98-2.13,7.27-2.52,1.3-.39,3.67-1.98,4.44-3.38.77-1.36,5.73-2.59,6.57-3.12.84-.55,5.67-.62,8.11-.99,2.44-.39,1.14-2.39,1.45-3.52.31-1.16,7.03-5.36,8.35-6.43,1.3-1.06,1.6-2.53,1.6-3.6s-.99-1.98-1.45-2.83c-.46-.84.29-2.61.75-2.83.46-.24,4.06-.7,4.75-1.16.68-.46,5.73-.15,7.1.53,1.38.7,3.91,7.65,3.74,8.04-.15.39-2.06,4.81-3.05,6.43-1.01,1.6-1.08,4.13-1.08,4.13,0,0,9.03,1.91,9.64,2.22.62.29.62,1.45.62,2.68s.61,3.82.99,5.12c.39,1.29,5.05,4.66,4.97,6.65-.09,1.98-7.34,5.82-7.34,5.82,0,0-.62,4.06-.62,4.52s.7,3.12.39,4.74c-.29,1.62-2.68,3.98-3.21,6.43-.53,2.44-1.3,11.16-1.38,11.71-.07.53.24,5.95.77,7.42.53,1.45,5.43,4.28,6.26,6.43.84,2.13-.61,6.04-.61,6.04,0,0,2.29,4.9,2.75,5.82.46.92,4.75,4.66,5.43,5.8.68,1.16,5.36,4.52,6.19,5.05.84.53,5.67,2.61,6.35,2.75.44.11,2.88.62,4.75.99ZM728.71,577.58v3.67c0,.59-.83.81-1.51,1.5-.68.68-.68,3.52-.68,4.28s1.49,1.91-.24,2.37c-1.71.46-4.7.81-6.3.92-1.62.11-4.59-.22-9.07-.81-4.48-.57-8.04-.57-9.07-.81-1.03-.22-2.3-2.51-1.03-4,1.27-1.51,1.95-1.93,2.4-2.35.46-.4,1.95-1.21,1.95-1.56s-.68-2.63.24-4.13c.92-1.49,2.52-3.56,4.02-3.56s6.88-.22,7.56,0c.7.24,3.32,1.05,3.91,1.05.55,0,4.81.22,4.81.22l2.99,3.21ZM1056.94,393.61c-3.27,5.53-7.53,12.59-8.24,13.82-1.16,1.96-9.66,8.15-11.6,10.22-1.95,2.06-11.34,13.53-14.58,18.12-.2.29-.4.55-.59.79-1.38-1.43-2.85-3.03-3.19-3.54-.68-1.03-3.56-3.67-4.13-4.59-.57-.92-6.3-4.13-7.45-5.05-1.16-.92-7.69-3.54-10.1-5.86-.66-.62-1.54-1.18-2.55-1.69-.39-.2-.79-.39-1.19-.59-.7-.33-1.43-.64-2.2-.99-1.01-.44-2.04-.92-3.08-1.47-.46-.24-.92-.48-1.38-.75-.09-.05-.2-.11-.31-.18-.44-.28-.9-.55-1.32-.86-2.24-1.58-5.82-2.26-8.68-2.55-.06-.24-.07-.46-.07-.62,0-1.21-2.29-3.05-3.38-4.59-.18-.26-.35-.51-.48-.73,0,0,3.19-1.49,3.78-2.85.57-1.39,1.29-1.96,1.49-2.07.22-.11,2.63-.46,3.1-.92.28-.28.83-.97,1.34-1.69v-.02c.17-.22.31-.44.44-.66.15-.22.28-.44.39-.62.59-1.03,2.53-3.43,2.86-3.32.35.13,3.8,2.99,4.15,3.21.33.24,1.14,3.08,1.84,2.86.68-.22,4.59-.11,4.94.48.33.57,3.08,2.06,3.54,2.97.46.92,2.18,2.28,2.97,2.63.81.35.81.7,2.53.59,1.73-.11,4.48.62,5.51.02,1.03-.59,4.59-2.31,5.73-2.42,1.16-.11,3.29.68,4.92-.24,1.63-.92,3.12-1.27,4.15-2.52,1.03-1.27,2.75-2.86,3.78-4.02,1.05-1.16,1.73-2.29,3.45-2.52,1.73-.24,3.89-.35,4.24-.35s4.48-1.38,4.48-1.38c0,0,2.51-1.84,3.78-1.84s4.37,1.03,4.83,1.38c.46.35,4.35,1.84,4.35,1.84l1.95,2.57ZM1065.39,354.58c-1.87-.77-4-1.63-4.19-1.63-.35,0-6.43-3.34-6.43-3.34,0,0-1.62-.92-3.56,0-1.95.92-4.7,2.35-4.94,2.9-.22.55.24,1.36-.81,3.3-1.03,1.95-3.54,2.18-4,2.18s-4.48.79-5.62,1.38c-1.16.57-2.42.68-3.8.68s-3.78.57-6.42,0c-2.63-.57-3.32-.86-4.59.26-1.27,1.12-1.95,1.47-2.97,2.85-1.05,1.38-1.84,3.1-1.84,4.81s-2.53,3.67-3.32,3.67-2.64-.68-3.67,0c-1.05.7-1.84,2.07-3.34,2.07s-3.32-.92-3.78-1.6c-.46-.7-.37-4.72-1.16-5.4-.79-.7-2.52-2.18-2.63-2.53-.11-.33.33-2.29,1.49-3.21,1.16-.92,2.41-1.38,2.41-2.29s-.81-1.73,0-2.75c.81-1.03,2.75-1.95,3.21-2.17.46-.24,1.27-1.05,1.27-2.18s-1.73-4.94-3.56-5.05c-1.84-.11-4.22-2.64-6.41-.59-2.18,2.07-3.58,2.07-5.07,4.37-1.49,2.29-3.1,4.02-5.16,5.51-2.06,1.49-9.75,6.2-11.58,5.73-1.84-.44-3.56-2.28-4.02-2.97s-1.14-3.32-2.97-2.4c-1.84.92-3.56,1.71-3.91,1.71s-3.78-1.36-3.91-2.4c-.02-.15-.18-.35-.44-.61.11-.13.22-.28.33-.42,1.27-1.73,2.53-3.56,3.45-5.62.92-2.07-1.84-6.43-2.99-8.61-1.14-2.18-1.95-2.64-1.71-3.78.22-1.16,1.71-1.03,3.08-2.64,1.38-1.62-.68-1.84-.81-3.56-.11-1.73,1.16-3.43,1.78-5.16.64-1.73.4-3.56.06-5.05-.02-.09-.04-.18-.04-.28.39.04.9.02,1.54-.18,1.51-.46,2.06.68,2.06.68,0,0,4.02,3.67,4.26,4.11.22.44,4,1.06,4.7,1.06s2.86-.81,5.51-2.53c2.64-1.73,1.25-1.38,2.41-3.08,1.16-1.73,1.6-2.42,2.86-3.1,1.27-.7,3.45-.46,4.72-1.21,1.25-.75,2.28-.97,3.29-2.24.99-1.27,3.71-1.6,6.79-2.63,3.08-1.05.81,3.08.81,3.43s-.79,2.75-.81,3.67c-.02.92-2.97.57-4,1.01-1.05.44-.35,1.63-1.73,3.47-1.38,1.84-1.03,1.49-1.03,2.29s.22,3.67.68,4c.46.33,1.51,3.34,2.18,3.91s1.6.11,1.6.11c0,0,3.56-1.38,4.02-1.38s2.88,1.95,3.8,1.84c.92-.11,1.36-1.25,2.75-2.17,1.36-.92,1.84.68,2.81,1.14.99.46.51,3.45.73,4.59.24,1.14,2.07,1.73,2.75,1.73s2.07-1.62,2.5-2.42c.42-.79,1.63-.92,2.22-1.71.57-.81,0-1.49-.35-1.73-.35-.24-1.05-2.52-.92-3.21.11-.7,1.14-1.03,1.49-1.73.35-.68,0-1.25-1.03-2.75-.31-.46-.44-.62-.5-.7,0,.02.11.26-.42-.33-.92-1.03-.35-1.62,0-3.21.33-1.6,1.95-1.49,2.97-1.73,1.03-.22,2.53,1.73,3.34,2.53.79.79,1.6,1.14,1.6,1.14,0,0,1.95-.22,3.43,0,1.51.24,1.84,0,1.84,0,0,0,3.34,1.73,3.91,1.73s5.86.11,6.31-.35c.46-.48,2.97.24,3.32,0,.35-.22,4.13,2.99,4.13,2.99,0,0,2.75-.24,5.86-.48,1.58-.13,3.6-.7,5.27-1.27,1.25,4.41,2.4,8.72,2.99,11.38,1.38,6.31,1.25,12.15,1.84,16.74.04.35.06.83.06,1.41ZM1060.5,325.04c-1.67.57-3.69,1.14-5.27,1.27-3.1.24-5.86.48-5.86.48,0,0-3.78-3.21-4.13-2.99-.35.24-2.86-.48-3.32,0-.46.46-5.75.35-6.31.35s-3.91-1.73-3.91-1.73c0,0-.33.24-1.84,0-1.49-.22-3.43,0-3.43,0,0,0-.81-.35-1.6-1.14-.81-.81-2.31-2.75-3.34-2.53-1.03.24-2.64.13-2.97,1.73-.35,1.6-.92,2.18,0,3.21.53.59.42.35.42.33.06.07.18.24.5.7,1.03,1.5,1.38,2.07,1.03,2.75-.35.7-1.38,1.03-1.49,1.73-.13.7.57,2.97.92,3.21.35.24.92.92.35,1.73-.59.79-1.8.92-2.22,1.71-.42.81-1.8,2.42-2.5,2.42s-2.52-.59-2.75-1.73c-.22-1.14.26-4.13-.73-4.59-.97-.46-1.45-2.06-2.81-1.14-1.39.92-1.84,2.06-2.75,2.17-.92.11-3.34-1.84-3.8-1.84s-4.02,1.38-4.02,1.38c0,0-.92.46-1.6-.11s-1.73-3.58-2.18-3.91c-.46-.33-.68-3.19-.68-4s-.35-.46,1.03-2.29c1.38-1.84.68-3.03,1.73-3.47,1.03-.44,3.98-.09,4-1.01.02-.92.81-3.32.81-3.67s2.28-4.48-.81-3.43c-3.08,1.03-5.8,1.36-6.79,2.63-1.01,1.27-2.04,1.49-3.29,2.24-1.27.75-3.45.51-4.72,1.21-1.27.68-1.71,1.38-2.86,3.1-1.16,1.71.24,1.36-2.41,3.08-2.64,1.73-4.83,2.53-5.51,2.53s-4.48-.62-4.7-1.06c-.24-.44-4.26-4.11-4.26-4.11,0,0-.55-1.14-2.06-.68-.64.2-1.16.22-1.54.18-.15-1.49,1.08-3.67,4.97-6.37,4.13-2.88,3.8-2.53,6.2-4.15,2.4-1.6,2.29-2.97,3.67-5.27,1.39-2.29,2.18-4.83,4.59-8.72,2.4-3.89,3.67-4.94,4.13-6.99.46-2.07,1.73-5.29,2.75-7.12,1.03-1.84,1.6-.92,4.13-1.03,2.52-.11,7.67-1.19,7.67-1.19,1.1.77,2.15,1.38,2.77,1.65,1.6.7,5.03.81,6.65,2.53,1.62,1.71,4.59,1.03,9.4,1.71,4.83.7,5.86-.11,9.99-.92,4.13-.79,10.44.24,12.63.7,2.17.46,6.99,7.1,8.37,9.18,1.38,2.06,4.02,12.39,5.4,16.63.79,2.44,2.66,8.65,4.35,14.67ZM1021.93,436.56c-.26.33-.5.61-.73.84-.15.15-.29.28-.44.4-.28.24-.55.4-.79.51-.09.04-.18.07-.28.09-.09.04-.18.06-.26.07-1.01.15-1.71-.59-2.64-.18-.94.4-2.97,2.13-4.74,3.69-1.25,1.1-2.35,2.11-2.83,2.5-.4.31-1.06,1.16-1.8,2.24-1.51,2.09-3.3,5.05-3.84,6.26-.11.24-.31.66-.59,1.23-.11.2-.24.44-.37.68-.02.07-.06.13-.09.2-.09.17-.18.33-.28.51-.59,1.1-1.32,2.48-2.11,3.97-.39.7-.77,1.41-1.17,2.15-.18.37-.39.73-.59,1.1-.33.62-.68,1.27-1.01,1.89-1.4-.17-2.53-.33-2.94-.46-1.38-.46-3.97.62-4.59,0-.61-.61-6.57,0-6.57,0,0,0-2.9-1.84-4.59-4.88-1.69-3.07-1.06-1.84-1.52-3.52-.46-1.69-.62-2.75-1.54-4.59-.92-1.84-1.38-1.84-2.29-3.52-.92-1.69-1.84-3.82-1.84-6.09s2.61-.94,4.59-1.54c2-.62,1.84,0,1.84,0,0,0,2.29,1.38,2.75,1.52.46.15,3.67-.77,3.84-2.29.15-1.52-.31-1.98-1.08-4.74-.75-2.75-.15-2.29-.15-2.29,0,0,2.15-3.52,2.15-4.52s-.46-2.07-1.38-2.99c-.35-.35-.95-1.1-1.62-1.95v-.02c-1.14-1.4-2.46-3.07-3.14-3.54-1.07-.75-1.84-3.97-1.84-5.51,0-1.3-.9-3.85-1.14-5.34,2.86.29,6.44.97,8.68,2.55.42.31.88.59,1.32.86.11.07.22.13.31.18.46.28.92.51,1.38.75,1.05.55,2.07,1.03,3.08,1.47.77.35,1.51.66,2.2.99.4.2.81.39,1.19.59,1.01.51,1.89,1.06,2.55,1.69,2.41,2.31,8.94,4.94,10.1,5.86,1.16.92,6.88,4.13,7.45,5.05.57.92,3.45,3.56,4.13,4.59.35.51,1.82,2.11,3.19,3.54ZM935.68,655.84c-1.4,2.86-.35,7.1-.11,9.75.24,2.64,0,14.45,0,14.45,0,0-.92,7.12-1.27,8.26-.33,1.16-7.56,4.72-9.07,6.31-1.49,1.62-3.08,5.62-5.16,8.85-2.06,3.19-4.81,10.1-6.77,13.07-1.95,2.97-4,3.32-5.38,5.4-.59.88-1.01,2-1.28,3.01-.4,1.36-.55,2.5-.55,2.5,0,0-3.85,2.99-5.54,7.45h-2.72l-6.08-1.62s-.39-.02-1.03-.07c-2.22-.15-7.47-.57-9.07-1.29-2.07-.92-1.84-1.16-1.84-3.91s-1.39-4.13-2.07-5.27c-.62-1.08-.09-3.52-.37-4.97-.04-.11-.06-.22-.09-.31-.46-1.38-1.62-6.43-1.62-8.04s3.45-2.06,6.2-3.19c2.75-1.16,3.89-.24,5.51-2.07,1.62-1.84,4.37-4.35,5.32-5.05.95-.7.64-5.29,1.8-7.12,1.14-1.84,3.43-5.73,6.19-10.1,2.75-4.35,0-5.73-.24-7.56-.22-1.84-5.27-4.59-7.34-5.73-2.06-1.16,4.15-.48,5.98-2.53,1.84-2.06,0-2.97-.24-4.59-.24-1.62-1.38-2.97-2.75-3.67-1.38-.7-1.38-4.13-1.38-6.2s4.13-2.75,5.97-3.4c1.84-.64,2.07-.28,4.13-.04,2.06.24,1.14-.46,1.38-1.38.24-.92,4.13-4.59,4.13-4.59l9.64,1.23c.07.17.28.37.57.59,1.47,1.1,5.23,2.68,6,3.84.92,1.38,8.57,5.51,8.57,5.51l1.43.75c-.33.62-.62,1.23-.86,1.74ZM771.12,430.3c-1.23,1.54-4.3,4.3-6.59,6.74-2.29,2.44-8.1,7.34-9.64,9.33-1.52,2-7.64,10.26-6.88,11.79.77,1.52,4.13,3.36,5.36,4.13s5.84.77,6.44,1.69c.59.92,3.19,3.67,1.51,4.13-1.67.46-6.26.46-6.72.92s-.31,3.05-.31,3.05c0,0,7.18,1.38,6.04,3.98-.07.18-.17.33-.26.48-.29.4-.66.72-1.08.94-.28.17-.59.31-.9.4-.13.06-.28.09-.42.13-.46.15-.94.22-1.36.31h-.02c-.11.02-.22.04-.31.06-.2.04-.39.07-.53.11-.46.11-.77.26-.84.48-.31.92,2.29,9.03,2.9,9.49.61.46,2.44.77,2.83,1.52.39.77,1.45,1.54,0,3.07-1.45,1.52-1.91,3.82-1.91,5.05s1.21,2.15,1.91,2.44c.7.31,1.62,2.29.99,2.92-.61.61-.73.92-1.51,1.84,0,0-5.07-.99-7.14-.99s-4.59.22-6.65.68c-2.06.46-6.2,3.91-8.04,5.75-1.84,1.84-5.73,1.14-7.78,1.14s-2.75-.7-4.15-1.84c-1.36-1.14-2.97-.92-4.86-.92s.75,3.67-.17,4.81c-.92,1.16.68,1.84,0,3.6-.7,1.76-3.67-1.52-3.67-1.52,0,0-11.25-4.13-12.63-4.13s-2.53.92-3.45,1.19c-.92.28-4.59.64-7.34-1.89-2.75-2.52,0-3.19,0-4.59s-2.52-3.89-3.89-4.35c-1.38-.46-1.38,1.84-3.45,3.21-2.06,1.38-1.6-.46-3.89-3.21-2.29-2.75-1.14.24-3.89,1.84-2.75,1.6-2.31,5.27-2.75,7.34-.48,2.07-2.31,1.6-2.31,1.6l-5.51-2.52s-4.11-4.35-5.95-6.19c-1.84-1.84-5.51,0-6.42,0s-3.23-.7-5.98-2.31c-2.77-1.6-.44-5.51,0-7.99.44-2.48,1.4-6,1.16-6.92-.24-.92-2.29,2.75-3.91,5.51-1.6,2.75-3.19,8.48-3.19,8.48,0,0-2.31-1.14-3.67-1.36-1.39-.24-.7-5.75-.7-5.75,0,0-.33-7.47-.61-13.99-.18-4.2-.31-8.02-.31-9.2,0-2.97-2.53-6.43-2.53-7.56s2.53-4.81,3.45-8.48c.92-3.67.22-8.04,2.06-14.92,1.47-5.49,5.86-17,7.56-21.4.04-.09.06-.17.09-.24.04-.11.09-.24.15-.33.04-.09.07-.18.11-.28.95-2.2,3.43-8.02,3.8-8.96.46-1.16,3.67-6.88,5.51-11.47,1.84-4.59,4.37-3.89,6.43-5.05,2.06-1.16,2.53-3.43,3.89-5.75,1.4-2.28,4.15-3.89,6.66-7.1,2.51-3.21,4.13-13.31,3.67-15.84-.46-2.52-4.83-5.73-5.51-7.34-.68-1.6-1.6-4.35-1.38-5.51.22-1.14,2.97-4.59,3.45-9.18.44-4.59,1.6-2.28,2.51-4.59.92-2.28,3.67-3.43,5.27-5.03,1.62-1.62,5.51-1.16,7.07-2.31,1.56-1.14,6.94-8.02,9.45-11.23,2.53-3.21,2.07-4.37,2.07-5.97s0-3.21.92-4.13c.92-.92,2.99-2.97,3.43-4.37.48-1.36-1.84-5.03-2.52-5.51-.68-.44-4.13-4.11-5.05-4.35-.92-.24-6.42-.68-8.04-1.16-1.6-.44,4.15-2.75,5.51-4.11,1.08-1.08,3.4-2.57,5.56-5.01l2.26,5.01s3.89-.24,5.73,0c1.84.22,2.75-2.31,5.05,0,2.29,2.28,6.66,5.27,7.8,7.1,1.14,1.84,3.67,6.19,3.89,9.18.24,2.99-.22,11.25,0,13.53.24,2.31.07,7.82.07,7.82,0,0-1.43,11.93-3.51,13.53-2.07,1.6-7.34,3.67-5.97,4.83,1.38,1.14,2.97,2.29,4.81,1.84,1.84-.48,2.31-2.07,2.31.11s0,3.56,1.14,5.84c1.14,2.31,4.81,5.51,5.51,6.9.7,1.36,4.37,7.78,5.05,7.1.68-.68,3.43-3.67,6.43-4.35,2.99-.7,6.19-1.16,7.1.44.92,1.62,1.84,5.29,2.07,8.04.24,2.75-1.16,6.65-1.84,6.65s-2.29-.92-3.91,0c-1.6.92-2.52-.44-3.43,2.07s-.46,3.91-1.84,6.43c-1.38,2.52-2.29,4.59-3.67,6.66,0,0,.15,1.91,1.07,2.66.92.77,1.84-.22,2.46,1.84.61,2.07.22,3.67,1.21,4.75,1.01,1.06,3.98,1.6,4.83,2.13.84.53,1.98-1.14,2.83,1.69.84,2.83,1.3,3.67,1.14,4.06-.15.39-3.12,2.44-3.12,3.67s2.68,3.05,3.05,3.21c.39.15,1.38.61,1.91,2.22.55,1.6.46,3.97,1.47,5.42.99,1.47,2.75,2.99,3.29,2.99s8.33.84,8.33.84c0,0,4.13-.07,4.59,0,.09.02.29-.15.55-.42l.22.42s1.21.99,0,2.52ZM627.98,697.71c0,.92.57,4.7.57,4.7,0,0-2.53,5.86-3.21,5.86s-7.34.22-9.64,3.21c-2.29,2.99-1.62,7.8-1.62,10.34s1.87,4.59-.09,5.73c-1.96,1.14-2.18-2.97-5.86,1.84-3.67,4.81-5.1,6.2-4.39,7.34.72,1.14.94,5.97.94,5.97,0,0-3.21,1.16-4.37,2.07-1.14.92-1.6,3.43-1.14,4.81.46,1.38-.46,1.34-3.67,3.76-3.21,2.44-7.34,4.5-8.48,5.64l-.15.15c-.31.28-.94.84-1.78,1.6-.24.22-.51.46-.81.72-.42.39-.9.79-1.4,1.23-.26.24-.53.48-.83.72-2.79,2.44-6.26,5.4-9.05,7.69-.26.2-.5.4-.73.61h-.02c-.2.16-.39.33-.59.48-.37.29-.72.59-1.05.83-.06.06-.09.09-.13.11-.22.18-.44.35-.66.5-.2.15-.39.29-.57.42-.35.26-.64.44-.84.57-2.75,1.62-8.94,6.43-10.34,8.04-1.36,1.62-2.75,6.65-2.75,7.56s.92,2.31-1.14,3.67c-2.06,1.39-4.37.92-5.05,3.91-.68,2.99-.46,4.83-1.16,7.1-.68,2.31,0,2.99-2.75,4.59-2.75,1.62-5.51,1.73-5.51,1.73-.44-1.03-2.63-4.35-2.75-4.81-.11-.46-5.84-.24-6.76.22-.92.46-4.26,2.07-5.29,2.75-1.03.7-6.43-.22-10.67-.92-4.24-.68-3.43-2.29-3.43-4s-1.27-3.45-2.42-5.75c-1.14-2.29.24-4.35.24-5.62s.22-2.88-.57-4.83c-.81-1.95-2.42-2.97-2.53-5.62-.11-2.64,1.03-3.78,1.38-6.54.35-2.75-1.38-2.86-1.6-3.67-.24-.81-.81-3.34-1.16-5.18-.35-1.84-3.67-3.67-6.19-5.03-2.53-1.39-2.31,0-3.91,0s-5.27-1.16-6.54-2.88c-1.27-1.71-2.75-2.52-4.13-2.52s-1.73,3.43-5.18,4.24c-3.43.81-14.91,0-17.77,0s-5.4-1.84-7.34-3.98c-1.95-2.15-1.84.07-4.02-.04-2.18-.11-3.56.11-5.62,0-2.07-.11-1.73-2.4-.24-2.97,1.51-.59,1.62-4.48,1.62-6.43s-1.03-1.62-1.84-3.34c-.81-1.71,1.03-3.08,1.03-3.08,0,0,1.84-6.54,2.64-11.12.81-4.59-.59-8.39-1.62-10.68-1.03-2.29-2.64-4.35-4.7-7.23-2.06-2.86-1.84-9.97-1.62-10.67.24-.68,6.31-1.71,6.31-1.71,0,0,1.38-1.73-.22-3.45-1.62-1.73-3.78-1.95-5.18-3.32-1.36-1.38-.11-3.1.48-4.37.57-1.27,5.62-12.15,6.65-14.12,1.03-1.95,2.64.35,3.67,0,1.03-.33.57-4,0-6.65-.57-2.64-1.03-2.29-.92-2.97.11-.7,1.14-4.94,1.73-8.5.57-3.56,1.49-3.43,2.29-4.13.79-.7,2.75-1.84,2.63-3.32-.11-1.49-2.51-3.1-4-5.29-.92-1.32-1.07-3.47-1.03-5.08.72,0,1.47-.02,2.28-.07,3.45-.22,5.07,0,7.34-1.14,2.31-1.16,8.96-6.43,11.25-10.79,2.29-4.37,7.58-.92,9.86-.92s2.53-.22,3.67-1.84c1.16-1.62,3.45-1.14,5.98-1.14s14.21,3.89,15.13,4.11c.92.24,8.74,5.75,13.09,5.98,4.35.22,3.91-1.16,4.59-2.07.68-.92,4.13-2.29,8.02-3.21,3.91-.92,3.91,3.45,5.75,4.81,1.84,1.39,3.74,2.31,3.74,2.31,0,0,3.14-1.39,4.28-3.45,1.16-2.06,2.31-2.06,2.31-2.06,0,0,6.65-6.43,7.34-6.43s2.28,5.95,2.28,7.78-1.6,2.99-3.19,4.83c-1.62,1.84-2.31,3.67-2.31,4.35s3.23,4.37,3.91,4.37,5.51-.46,6.66-.46,6.87,2.52,9.18,2.52c0,0-2.51,2.07,0,4.15,2.52,2.06,8.94,2.52,8.94,2.52,0,0-1.16,4.59-2.07,5.27-.92.7-3.19,2.31-1.36,3.45,1.84,1.14,1.6,3.21,4.81,1.84,3.21-1.38-.22-2.06,4.37-1.62,4.59.48,5.27-.22,6.87,2.07,1.62,2.29,5.07,4.13,8.26,6.66,3.23,2.52,10.79,3.19,12.41,3.43,1.6.24,6.42,2.07,7.1,3.21.68,1.14,1.16,2.06,3.91,3.45,2.75,1.36,3.67,4.35,5.62,6.65-2.29,1.95-4.13,2.75-4.13,4.24s.92,5.4.92,6.31ZM649.88,416.61s0,.02-.02.05c-.05.13-.17.42-.33.88-.04.09-.07.18-.11.28-.06.09-.11.22-.15.33-.04.07-.06.15-.09.24-1.71,4.41-6.09,15.92-7.56,21.4-1.84,6.88-1.14,11.25-2.06,14.92-.92,3.67-3.45,7.34-3.45,8.48s2.53,4.59,2.53,7.56c0,1.17.13,4.99.31,9.2.28,6.52.61,13.99.61,13.99,0,0-.7,5.51.7,5.75,1.36.22,3.67,1.36,3.67,1.36l-2.53,5.98s-1.62,5.51-1.62,6.87-.44,2.75-2.28,5.75c-1.84,2.99-3.91,1.16-3.91,7.58s1.38,7.34,0,10.32c-1.38,2.97-4.35,3.89-5.27,8.72-.92,4.83,0,7.58-.7,10.1-.7,2.52-9.64,4.13-12.15,8.02-2.53,3.91-2.99,8.04-5.29,12.63-2.29,4.59-3.73,7.56-6.44,8.72-2.74,1.16-7.1.68-9.62,2.29-2.52,1.62-2.75,4.81-6.43,6.43-3.67,1.62-5.51,1.38-5.51,3.67s1.16,2.53,1.16,5.05.68,5.27-3.91,8.72c-.26.2-.51.4-.77.64-.04.04-.09.07-.13.11-.28.26-.53.51-.81.81-.31.35-.64.72-.94,1.1-.29.35-.57.72-.83,1.08-.15.18-.28.37-.4.57-.15.2-.28.4-.4.61-.26.39-.51.79-.75,1.21-.26.42-.5.84-.72,1.25-.24.42-.46.84-.66,1.27-.04.06-.06.11-.09.17-.15.33-.31.64-.46.97-.31.66-.59,1.3-.83,1.93-.07.17-.15.35-.2.51-.15.37-.26.72-.37,1.06-.07.26-.15.48-.22.72-.07.24-.11.46-.17.66-.06.18-.09.37-.11.53-.02.07-.04.17-.04.24-.02.13-.04.24-.04.33-.02.11-.02.2-.02.29,0,2.99,0,5.75.22,7.8.22,2.06,2.53,5.05,2.53,6.65s1.36,3.67-.92,3.67-8.04-2.52-9.18-2.52-5.98.46-6.66.46-3.91-3.67-3.91-4.37.7-2.52,2.31-4.35c1.6-1.84,3.19-2.99,3.19-4.83s-1.6-7.78-2.28-7.78-7.34,6.43-7.34,6.43c0,0-1.16,0-2.31,2.06-1.14,2.06-4.28,3.45-4.28,3.45,0,0-1.91-.92-3.74-2.31-1.84-1.36-1.84-5.73-5.75-4.81-3.89.92-7.34,2.29-8.02,3.21-.68.92-.24,2.29-4.59,2.07-4.35-.24-12.17-5.75-13.09-5.98-.92-.22-12.61-4.11-15.13-4.11s-4.83-.48-5.98,1.14c-1.14,1.62-1.36,1.84-3.67,1.84s-7.56-3.45-9.86.92c-2.29,4.37-8.94,9.64-11.25,10.79-2.28,1.14-3.89.92-7.34,1.14-.81.06-1.56.07-2.28.07.02-1.03.11-1.87.11-2.13,0-.7-4.59-6.09-5.4-6.55-.4-.24-1.51-.46-3.27-1.23-1.76-.77-4.19-2.09-7.29-4.5-6.19-4.83-2.75-5.05-3.67-7.91-.92-2.88-1.84-9.88-1.16-11.01.7-1.16,2.42-2.31,3.67-4.83,1.27-2.52.48-3.67-.33-5.97-.81-2.29-4.02,2.29-4.02,2.29h-8.15c-2.4,0-26.27-1.38-27.76-1.49-1.49-.11-9.42-2.18-9.75-3.91-.35-1.71-.59-5.62-.59-9.86s-.92-8.37-1.95-10.68c-1.03-2.28-7.91-4.46-7.91-6.42s2.75-1.84,4.59-1.84,2.63-1.03,2.75-4.81c.11-3.78-.57-6.54-1.73-9.4-1.16-2.88-3.21-9.66-2.86-11.25.35-1.6,0-5.27-.35-7.34-.35-2.07-2.86-4.48-3.1-4.94-.09-.18-.83-.75-1.78-1.36-.13-.09-.28-.18-.42-.28-.22-.13,4.85-3.07,6.22-4.68,1.38-1.6,1.38-5.03,1.38-6.19s2.07-4.59,2.75-5.27c.68-.7,4.59-7.12,4.83-9.66.22-2.52,0-1.36,2.06-4.35,2.06-2.99,2.53-6.43,2.53-8.72s-1.62-4.13-4.83-9.88c-3.21-5.73-2.99-4.35-2.99-6.43s.7-2.75,1.16-3.67c.46-.92,1.84-2.75,2.52-5.27.7-2.52,0-4.13,0-4.13,0,0-5.73-.22-9.18-2.06-3.43-1.84,0-2.07,0-2.07h-23.86c-2.75,0-5.03-.46-6.42-1.38-1.36-.92-.68-4.59.57-7.34,1.25-2.75.13-3.89,0-6.43-.13-2.53-1.49-4.37-2.4-7.12-.92-2.75,1.62-5.27,2.31-6.43.29-.5-.15-1.34-.73-2.22-.77-1.14-1.8-2.37-1.8-2.95,0-1.07.46-1.93,1.14-3.76.7-1.84-.22-5.97-.92-6.88-.68-.92-1.84-4.81-1.84-4.81l4.15-4.15v-8.26c0-.53-.24-.88-.61-1.1l52.28-.73,31.37-.44s.24-2.07,0-5.29c-.22-3.21.48-4.37,1.16-6.2.68-1.84,2.75-5.95,1.6-8.02-1.14-2.07-2.06-8.02-2.06-8.72s3.89-3.89,4.37-6.2c.44-2.28-4.37-5.95,0-5.95.72,0,1.45.15,2.18.42,3.76,1.3,7.43,5.31,7.43,5.31,0,0-1.14,4.59,0,8.72,1.16,4.13,1.39,5.27,3.23,7.58,1.84,2.28,2.06,7.1,2.06,8.26s2.06,7.78,2.53,8.94c.44,1.16,2.75.77,3.67,2.33.92,1.58,2.28,4.33,3.19,5.69.92,1.39,5.75.48,6.43,1.84.7,1.39,2.99,6.2,2.99,6.2l6.43,2.97h8.94l128.55,9.29,36.66,2.64ZM390.6,484.31c0,2.29-.48,5.73-2.53,8.72-2.06,2.99-1.84,1.84-2.06,4.35-.24,2.53-4.15,8.96-4.83,9.66-.68.68-2.75,4.11-2.75,5.27s0,4.59-1.38,6.19c-1.38,1.62-6.44,4.55-6.22,4.68-1.21-.73-2.64-1.5-3.65-1.8-1.95-.57-5.84-.7-7.21-1.08-1.38-.39-6.55-1.56-11.01-1.56s-3.32.92-5.75,1.49c-2.4.59-5.84-2.41-7.23-4.48-1.36-2.06-3.89-3.78-5.51-5.62-.06-.07-.13-.15-.2-.2-.07-.07-.15-.13-.22-.2-.07-.06-.15-.11-.24-.15-.35-.26-.77-.44-1.21-.59-.22-.09-.48-.17-.72-.22-.24-.07-.46-.13-.7-.17-.15-.04-.31-.07-.48-.09-.18-.04-.37-.07-.53-.09-.22-.04-.44-.07-.64-.09-.28-.04-.53-.07-.77-.09-.72-.06-1.3-.11-1.63-.17-1.14-.24-7.1-1.27-11.8-4.48-4.72-3.21-5.05-5.05-5.51-6.54-.46-1.5-3.56-2.99-3.56-2.99,0,0-3.91,1.62-4.35,1.62-.48,0-4.26-2.18-7.12-4.13-2.86-1.95-5.97-1.95-7.56-1.95s-4.26.44-5.51.57c-1.27.11-4.59-.7-8.04-2.29-3.45-1.62-12.39-6.2-17.44-13.88-5.05-7.69-4.59-8.39-6.88-12.52-2.29-4.13.35-9.29.81-10.43.46-1.16-.13-2.99-.46-4.83-.04-.18-.09-.35-.15-.55t-.02-.04c-.02-.09-.06-.2-.11-.31-.07-.18-.15-.37-.24-.57-.05-.15-.13-.31-.2-.46-.22-.46-.46-.94-.73-1.45-.15-.29-.31-.61-.46-.92-.55-1.08-1.08-2.26-1.43-3.51-.92-3.21,1.62-5.29,2.42-6.43.81-1.14.81-2.41-.11-4.02-.92-1.6-.13-2.75,0-3.89.11-1.16,2.17-4.37,2.17-5.97s-2.86-3.91-4-4.13c-1.16-.24-2.64,1.84-3.56,2.18-.92.33-5.4-.48-6.77-.81-1.38-.35-10.33.22-13.66.68-3.32.46-8.48.92-8.48.92,0,0-1.4.59-2.77,1.65l-3.36-1.67s7.4-3.3,8.32-5.84c.92-2.52,1.14-6.42,3.43-7.1,2.29-.68,9.86.24,10.56,1.16.7.92,3.45,3.67,4.81,3.89,1.4.22,7.82-2.29,7.82-2.29,0,0,1.84-2.29,2.97-2.07,1.14.24,2.06-1.6,2.97,0,.92,1.62,6.42.48,7.12,0,.7-.44,2.29-2.52,2.97-5.73.7-3.21-.44-5.97,2.75-6.42,3.23-.46,8.74,2.75,8.74,2.75,0,0,3.43,1.84,5.27.7,1.84-1.16,2.52-1.93,2.75-3.49.24-1.58,1.16-6.17,2.07-7.09.92-.92,4.59-2.52,4.59-2.52,0,0-1.16-4.83,0-6.19,1.14-1.39,4.81-4.59,4.81-4.59,0,0,2.97-2.53,3.89-4.15.92-1.6,8.04-3.43,8.74-3.43s13.53,2.99,13.53,2.99c0,0,5.27,5.51,5.97,6.87.7,1.39,5.05,6.81,6.2,6.98,1.14.15,4.11,1.06,5.27,4.04,1.16,2.99,8.94,5.32,8.94,5.32l5.07-3.01s2-.39,3.05.26h.02c.37.22.61.57.61,1.1v8.26l-4.15,4.15s1.16,3.89,1.84,4.81c.7.92,1.62,5.05.92,6.88-.68,1.84-1.14,2.7-1.14,3.76,0,.59,1.03,1.82,1.8,2.95.59.88,1.03,1.73.73,2.22-.7,1.16-3.23,3.67-2.31,6.43.92,2.75,2.28,4.59,2.4,7.12.13,2.53,1.25,3.67,0,6.43-1.25,2.75-1.93,6.42-.57,7.34,1.39.92,3.67,1.38,6.42,1.38h23.86s-3.43.24,0,2.07c3.45,1.84,9.18,2.06,9.18,2.06,0,0,.7,1.62,0,4.13-.68,2.52-2.06,4.35-2.52,5.27-.46.92-1.16,1.62-1.16,3.67s-.22.7,2.99,6.43c3.21,5.75,4.83,7.58,4.83,9.88ZM493.02,203.76s-3.98,2.44-6.42,4.59c-2.46,2.13-3.98,1.21-4.3,6.11-.29,4.9,1.23,7.95-1.52,12.85-2.75,4.9-16.52,30.89-19.59,39.16-3.05,8.26-19.27,41.01-22.03,47.43-2.75,6.43-10.39,13.46-10.39,15.29s1.52,4.9,2.75,5.51c1.21.61,6.24,12.13,6.24,12.13-.73-.28-1.47-.42-2.18-.42-4.37,0,.44,3.67,0,5.95-.48,2.31-4.37,5.51-4.37,6.2s.92,6.65,2.06,8.72c1.16,2.07-.92,6.19-1.6,8.02-.68,1.84-1.38,2.99-1.16,6.2.24,3.21,0,5.29,0,5.29l-31.37.44-52.28.73h-.02c-1.05-.64-3.05-.26-3.05-.26l-5.07,3.01s-7.78-2.33-8.94-5.32c-1.16-2.97-4.13-3.89-5.27-4.04-1.16-.17-5.51-5.58-6.2-6.98-.7-1.36-5.97-6.87-5.97-6.87,0,0-12.85-2.99-13.53-2.99s-7.82,1.84-8.74,3.43c-.92,1.62-3.89,4.15-3.89,4.15,0,0-3.67,3.19-4.81,4.59-1.16,1.36,0,6.19,0,6.19,0,0-3.67,1.6-4.59,2.52-.92.92-1.84,5.51-2.07,7.09-.24,1.56-.92,2.33-2.75,3.49-1.84,1.14-5.27-.7-5.27-.7,0,0-5.51-3.21-8.74-2.75-3.19.46-2.06,3.21-2.75,6.42-.68,3.21-2.28,5.29-2.97,5.73-.7.48-6.2,1.62-7.12,0-.92-1.6-1.84.24-2.97,0-1.14-.22-2.97,2.07-2.97,2.07,0,0-6.42,2.52-7.82,2.29-1.36-.22-4.11-2.97-4.81-3.89-.7-.92-8.26-1.84-10.56-1.16-2.29.68-2.52,4.59-3.43,7.1-.92,2.53-8.32,5.84-8.32,5.84l-4.77-2.39s-11.69-4.13-19.51-7.8c-7.78-3.67-42.44-17.9-48.87-23.63-6.42-5.75-19.27-11.49-22.73-14.46-3.43-2.97-18.58-5.05-25.46-5.97-6.88-.92-33.72-7.1-37.17-8.94-3.45-1.84-27.32-9.66-27.32-9.66.13-1.25,0-2.52,0-5.84s5.98-8.26,8.61-9.64c2.64-1.38,8.26-4.24,9.07-5.51.81-1.27-4.35-7.69-3.67-10.34.68-2.64,4.83-6.99,5.62-7.67.81-.7,1.62-3.67,1.62-6.55s2.06-6.99,2.4-8.94c.35-1.95,3.89-3.21,5.4-4.26,1.49-1.03,13.53-8.02,15.14-9.18,1.6-1.14,4.81-4.7,6.19-5.84,1.38-1.16,4.59,0,6.88,0s6.88-2.18,9.42-2.75c2.52-.59,10.21-1.16,10.43-2.18.24-1.03,2.88-3.43,4.59-4.24,1.73-.81,6.42-1.62,7.01-1.27.57.35,1.84,3.1,2.86,4.59,1.03,1.49,5.86.92,8.26,0,2.41-.92,4.37-12.04,5.16-15.6.81-3.56,7.34-33.61,8.26-39.36.92-5.73,3.45-27.54,4.24-30.64.81-3.08-1.14-5.27-3.54-7.67-2.4-2.42-.35-5.29-.35-7.23s-4.13-5.29-7.69-7.91c-3.54-2.64-3.67-3.21-5.38-5.86-1.73-2.64-1.62-17.55-1.51-18.36.11-.81,5.86-2.41,6.66-2.94.79-.51,4.35-.95,4.35-.95,0,0,5.62-1.16,6.09-1.05.44.13,4.24,1.16,6.42,1.96,2.17.79.99-8.35.99-8.35,0,0-.39-2.66-.92-3.36-.53-.7-4.97-2.29-6.43-2.75-1.45-.46-5.82.22-7.51-.22-1.67-.48-2.9-2.46-3.82-3.91-.92-1.45-.61-5.65-.61-8.65s5.65-5.89,6.43-5.89,6.72.77,7.95.62c1.23-.16,29.13.68,29.37.68s1.84-.92,1.6-1.45c-.22-.53-1.98-1.98-2.51-2.99-.53-.99.61-1.29,1.45-1.98.84-.68,3.52,1.84,4.52,2.53.99.68,3.14.46,3.67.15.53-.31,1.45-1.84,1.91-2.53.46-.68,3.74-.83,4.3-.83s2.13-1.93,2.75-3.29c.61-1.39,3.12-2.39,3.97-2.68.84-.31,1.84,1.76,1.84,1.76,0,0,.62,5.42,1.06,6.72.48,1.3,4.15,1.84,4.59,2.53.48.68.7,6.96.7,7.88s.53,7.03.99,8.1c.46,1.08,2.68.62,2.99.62.29,0,4.35.53,5.65.77,1.3.22,4.83,4.81,5.89,6.19,1.07,1.38,4.88,4.13,5.8,5.36.92,1.21,8.11-.24,9.34-1.54,1.23-1.29,3.67-4.66,4.13-5.05.46-.37,3.82-1.14,4.06-1.14.22,0,3.05,2.29,3.43,2.75s.84,1.6.84,1.6c0,0-2.44,2.75-2.44,4.37s2.9,1.45,2.9,1.45c0,0,2.61-1.62,2.83-2.37.24-.77,1.08-3.21,2-4.06.92-.84,3.12-.53,3.58-1.3.46-.75.62-2.37,1.01-2.97.37-.62,2.51-2.07,3.51-3.14.99-1.06,3.29-2.29,4.26-2.68.97-.39,3.16.99,3.85.92.68-.07,4.42-4.06,5.51-5.29,1.07-1.21,2.29-.61,2.29-.61,0,0,1.06,1.84,1.84,1.91.77.09,1.76-1.67,2.61-2.75.83-1.06,5.27-4.06,5.95-5.65.7-1.6.24-7.8.48-8.57.22-.75,3.74,0,4.88.46,1.16.46,3.07.09,4.83-1.52,1.76-1.62,5.12-2.44,6.42-3.07.5-.24.86-1.21,1.12-2.37.83.09,4.39,2.07,4.39,2.07,0,0,4.88,1.38,5.65,1.52.77.15,4.9,2.15,6.43,3.52,1.52,1.38.46,3.36-.77,6.26-1.21,2.92-1.52,6.59-1.52,6.59,0,0,7.03,5.65,7.95,6.11.92.46,3.07,5.65,3.84,6.88.75,1.23-2,4.74-3.27,6.88-1.29,2.15.06,4.9,0,6.57-.05,1.69,1.12,2.92,1.27,5.36.17,2.44,2.75,10.87,5.82,13.62,3.07,2.75,1.98,5.97,1.98,7.49s-.92,3.98-2.44,5.05c-1.52,1.07-5.97,3.52-6.57,4.59-.62,1.06,4.13,2.9,6.88,4.28,2.75,1.38,5.51,5.36,5.8,5.82.31.46,3.52,5.51,4.13,6.28.62.75,1.69.29,3.98.29s2.9,3.52,4.13,4.29c1.23.75,2.75,1.52,3.52.75s-.31-1.67-1.84-3.97c-1.54-2.29-1.69-2.92-1.69-4.59s.31-2.29,1.06-3.21c.77-.92,1.54-1.84,1.23-3.98-.31-2.15-1.69-3.67-1.06-6.43.61-2.75,6.43-5.36,7.49-6.57,1.06-1.23,8.87,1.84,10.55,2.75,1.69.92,3.36,5.05,3.36,5.05,0,0,2.92,2.13,3.98,2.13s3.52-.92,4.88-1.38c1.36-.46,3.69-2.29,3.38-3.51-.31-1.23-2.15-1.69-3.21-2.75-1.06-1.08,3.36-8.26,5.2-11.18,1.84-2.9,4.59-11.93,4.59-11.93.59-1.74,5.23-2.17,10.74-2,.79.02,1.6.06,2.42.09.22.02.46.02.7.04.09.02.2.02.29.02.62.04,1.27.07,1.89.13.37.04.75.05,1.14.09.44.04.88.07,1.3.11.73.07,1.47.15,2.17.22.29.04.61.05.88.09,2.46.26,4.66.55,6.31.77.28.04.53.07.77.11.15.02.28.04.4.06.15.02.28.04.39.06.09.02.17.02.24.04.13.02.26.04.37.06.59.07.9.13.9.13,0,0-1.52,9.8,0,13.16,1.52,3.36,4.59,3.98,5.51,6.74.92,2.75.92,7.34,3.67,11.01,2.75,3.67,2.13,2.75,4.59,4.88,2.44,2.15,3.97,3.38,3.97,3.38h8.57s-1.23,2.75,0,5.19c1.23,2.44,1.52,2.77,7.03,5.51,5.51,2.75,10.1,3.67,11.64,4.59,1.52.92,4.88-1.52,7.03,3.36,2.15,4.9,3.36,6.42,4.28,6.74.92.31,2.75,3.36,7.65,2.44,4.9-.92,10.1-4.28,10.1-4.28l2.15,3.07ZM908.49,349.7c-1.23,1.98-1.84,4.42-1.84,5.51s.92,2.13,2.15,4.13c1.21,1.98,1.38,7.95,1.38,7.95,0,0-.11.29-.29.75-.53,1.38-1.78,4.33-2.92,5.82-1.54,2-3.98,3.52-8.57,6.74-4.59,3.21-5.05,4.28-5.05,4.28,0,0-.22.18-.61.48-1.54,1.21-5.84,4.48-9.03,5.95-3.98,1.84-4.28,4.13-4.28,4.13l-8.11,6.28s-3.52.61-5.2.77c-1.69.15-5.36,1.52-6.42,2.29-1.08.75-3.21,3.51-4.75,5.34-1.52,1.84-3.51.92-6.11,0-2.61-.92-1.98-3.05-2.44-3.97-.46-.92-3.84-.31-6.13,0-2.29.29-2.13,0-3.51-.17-1.38-.15-1.84-1.38-1.84-4.74s-2.46-.15-3.07,0c-.61.15-6.74,3.82-9.03,6.74-2.29,2.9.62,5.2,2,6.43,1.38,1.21,2.29,3.21,2.75,4.59s-3.84,8.87-4.75,10.55c-.92,1.67-4.59,5.65-5.97,6.46s-5.2,2.55-6.57,2.55-2.9-.92-3.36-.92-3.98,4.13-5.21,5.51c-1.08,1.25-3.43,2.99-5.23,4-.2.11-.39.2-.57.29-1.84.92-4.13-.62-4.9-.77-.77-.15-4.74-.15-7.65-1.52-2.9-1.38-2.75-3.67-3.36-5.36-.61-1.69,0-3.67,0-5.05s-1.38-1.69-1.38-3.67-2.9-6.11-3.98-6.74c-.84-.48-2.75,2.02-3.73,3.03-.26.28-.46.44-.55.42-.46-.07-4.59,0-4.59,0,0,0,.99-1.38,1.16-3.52.15-2.15.75-8.79.99-9.25.22-.46,1.91-1.62,1.67-2.75-.22-1.16-1.45-4.83-1.45-5.36s.46-2.66-.15-3.74c-.62-1.06-2.68-5.19-2.68-5.19,0,0-.77-3.29-.77-5.58s1.08-3.76,2.46-5.05c1.38-1.3,3.21-1.84,3.89-4.9.7-3.07,4.28-8.72,5.05-11.86.77-3.14,1.06-5.05,1.16-6.96.07-1.91,1.6-4.13,2.97-5.51.92-.92,3.18-2.66,4.75-3.82.81-.59,1.43-1.01,1.6-1.08.53-.22,8.72-2.29,12.32-4.42,3.6-2.15,7.42-6.88,9.93-8.26,2.53-1.38,6.35-3.45,7.51-5.21,1.14-1.76.84-2.97,3.43-3.82,2.61-.84,7.27-1.45,7.65-.7.39.77,1.6,2.22,1.76,2.46.15.22,3.14,2.22,6.04,1.07,2.9-1.14,4.81-2.97,6.43-3.07,1.62-.07,4.13,1.23,5.51-.53,1.38-1.76,2.97-3.6,3.36-5.2.39-1.62,1.38-4.37,1.01-5.51-.39-1.16-1.08-2.83-2.61-3.14-1.54-.31-3.07-1.06-3.67-1.6-.62-.55-2.83-.7-2.83-2.53s-.62-11.79.68-13.84c1.3-2.06,3.74-3.14,4.9-4.28,1.14-1.16,2.13-2.22,2.22-3.67.07-1.45-.53-4.97-1.54-6.66-.99-1.69-2.44-3.97-2.75-5.36-.29-1.36-.83-3.51.53-5.42,1.4-1.93,1.76-2.53,1.93-3.67.15-1.16-2.07-2.99-2.46-4.75-.39-1.76-.61-2.37-.61-2.37,0,0,3.07-3.67,4.66-5.89,1.62-2.2,3.29-4.59,3.29-6.35s-2.13-2.37,0-5.19c2.15-2.83,4.75-5.2,4.75-5.2,0,0,4.96-.62,7.64-2.61,2.68-1.98,4.75-3.14,6.28-4.66,1.52-1.52,4.83-3.98,5.58-6.88.22-.81.44-1.85.68-2.94.18.06.39.13.61.2.2.06.44.13.68.2.07.02.15.04.24.05l.61.17c1.03.28,2.22.57,3.41.84.46.09.92.2,1.38.29.02,0,.06,0,.07.02.13.02.26.05.37.07.06.02.11.02.17.04.53.09,1.06.18,1.56.28.46.07.88.15,1.28.2.59.09,1.36.09,2.24.04.28,0,.55-.02.84-.06.22-.02.46-.04.7-.06-.18,1.36-.44,2.79-.68,3.71-.46,1.67-1.52,10.39-1.52,13.77s1.21,6.11,2.13,8.1c.92,2,3.21,5.05,4.75,7.97,1.52,2.9-1.38,6.57-2.61,9.18-1.23,2.59-1.69,8.1-1.52,8.87.15.77.29,5.36,1.98,7.03,1.69,1.69,5.65,5.36,6.74,7.34,1.06,2-.17,6.13-.62,8.88-.46,2.75,0,6.88.92,8.72.92,1.84,2,3.05,2,5.8s1.06,7.05,2.9,12.1c1.84,5.05,5.36,2.75,7.34,5.05,1.98,2.29-1.23,11.01-1.69,12.08-.31.73-1.4,2.24-2.46,3.76-.48.7-.95,1.41-1.36,2.06Z"></path>
</svg>