<?xml version="1.0" encoding="UTF-8"?>
<svg id="Camada_1" data-name="Camada 1" xmlns="http://www.w3.org/2000/svg" viewBox="0 0 1495 632">
  <defs>
    
  </defs>
  <g>
    <path class="cls-2" d="M245.59,87.11c-36.58,0-69.8,14.61-94.16,38.3v-38.3h-41.62l.63,131.28h.06c-.04,1.28-.06,2.57-.06,3.86h0l-.63,312.23h41.62v-215.42c24.36,23.7,57.57,38.33,94.16,38.33,74.52,0,135.14-60.63,135.14-135.14s-60.63-135.14-135.14-135.14ZM245.59,316.41c-51.92,0-94.16-42.24-94.16-94.16s42.24-94.16,94.16-94.16,94.16,42.24,94.16,94.16-42.24,94.16-94.16,94.16Z"></path>
    <path class="cls-2" d="M692.78,87.11h-135.14c-74.52,0-135.14,60.63-135.14,135.14,0,36.37,14.44,69.43,37.89,93.74,9.59,9.94,20.68,18.42,32.9,25.07,19.14,10.41,41.07,16.33,64.35,16.33s45.21-5.92,64.35-16.33c18.33,17.19,29.81,41.62,29.81,68.67,0,51.92-42.24,94.16-94.16,94.16s-94.16-42.24-94.16-94.16h-40.99c0,74.52,60.63,135.14,135.14,135.14s135.14-60.62,135.14-135.14c0-36.37-14.44-69.43-37.89-93.75,23.45-24.32,37.89-57.38,37.89-93.74s-14.64-69.17-38.33-93.53h38.33v-41.62ZM566.49,316c-2.91.27-5.87.41-8.85.41s-5.94-.14-8.85-.41c-21.36-2-40.68-11.17-55.5-25.07-18.33-17.19-29.81-41.62-29.81-68.67,0-51.92,42.24-94.16,94.16-94.16s94.16,42.24,94.16,94.16c0,27.06-11.47,51.48-29.81,68.67-14.83,13.9-34.14,23.07-55.5,25.07Z"></path>
  </g>
  <g>
    <path class="cls-1" d="M902.92,209.7c-10.72,0-19.44-8.72-19.44-19.44v-37.09h-26.34v56.53h-56.53v26.34h37.09c10.72,0,19.44,8.72,19.44,19.44v37.09h26.34v-56.53h56.53v-26.34h-37.09Z"></path>
    <path class="cls-1" d="M869.34,357.4c-74.41,0-134.94-60.53-134.94-134.94s60.53-134.94,134.94-134.94,134.94,60.53,134.94,134.94-60.53,134.94-134.94,134.94ZM869.34,100.16c-67.44,0-122.3,54.87-122.3,122.3s54.87,122.3,122.3,122.3,122.3-54.87,122.3-122.3-54.87-122.3-122.3-122.3Z"></path>
  </g>
  <g>
    <g>
      <path class="cls-2" d="M1061.13,172.61c-3.02,0-5.34-.85-6.98-2.54-1.63-1.69-2.45-4.11-2.45-7.25v-22.38h-4.34c-.42,0-.77-.13-1.05-.39-.28-.26-.42-.64-.42-1.16v-2.91l6.07-.85,1.62-11.15c.1-.42.29-.74.57-.98.28-.23.64-.35,1.09-.35h3.64v12.55h10.6v5.23h-10.6v21.9c0,1.47.36,2.57,1.09,3.29.72.72,1.65,1.09,2.78,1.09.66,0,1.23-.09,1.71-.26.48-.17.89-.36,1.23-.57.34-.21.64-.4.88-.57.25-.17.47-.26.66-.26.25,0,.44.06.57.17.13.11.28.29.42.53l2.13,3.46c-1.18,1.08-2.58,1.91-4.2,2.5-1.62.59-3.3.88-5.04.88Z"></path>
      <path class="cls-2" d="M1106.55,166.69c-.88,1.03-1.9,1.92-3.06,2.67-1.15.75-2.38,1.36-3.68,1.82-1.3.47-2.64.81-4.03,1.03-1.39.22-2.76.33-4.1.33-2.58,0-4.96-.44-7.16-1.31-2.2-.87-4.1-2.15-5.71-3.83-1.61-1.68-2.86-3.77-3.75-6.26-.9-2.49-1.34-5.36-1.34-8.59,0-2.6.4-5.02,1.21-7.27.81-2.25,1.97-4.2,3.48-5.87,1.51-1.67,3.36-2.98,5.54-3.94,2.18-.96,4.64-1.44,7.36-1.44,2.28,0,4.39.37,6.31,1.12,1.93.75,3.59,1.83,4.99,3.26,1.4,1.42,2.5,3.18,3.29,5.26.8,2.09,1.2,4.47,1.2,7.14,0,1.1-.12,1.85-.37,2.23-.25.38-.7.57-1.36.57h-24.51c.07,2.23.39,4.18.96,5.83.56,1.66,1.34,3.04,2.34,4.14.99,1.1,2.18,1.93,3.55,2.47,1.37.54,2.91.81,4.6.81,1.59,0,2.98-.18,4.14-.55,1.17-.37,2.17-.77,3.02-1.2.85-.43,1.56-.83,2.13-1.2.58-.37,1.09-.55,1.53-.55.59,0,1.04.22,1.36.66l2.06,2.65ZM1100.63,149.16c0-1.42-.2-2.74-.61-3.94s-1-2.25-1.79-3.13-1.74-1.57-2.87-2.06c-1.13-.49-2.43-.74-3.9-.74-3.02,0-5.39.87-7.12,2.61-1.73,1.74-2.83,4.16-3.29,7.25h19.58Z"></path>
      <path class="cls-2" d="M1141.04,141.62c-.22.27-.44.48-.64.64-.21.16-.51.24-.9.24s-.8-.15-1.23-.46c-.43-.31-.97-.64-1.62-.99-.65-.35-1.44-.69-2.36-.99s-2.06-.46-3.41-.46c-1.77,0-3.33.32-4.67.96s-2.47,1.55-3.37,2.72c-.9,1.18-1.58,2.61-2.04,4.31-.47,1.69-.7,3.6-.7,5.71s.25,4.13.74,5.83c.49,1.71,1.19,3.14,2.1,4.31.91,1.17,2.01,2.05,3.31,2.65,1.3.6,2.75.9,4.34.9s2.82-.19,3.83-.57c1.01-.38,1.84-.79,2.5-1.23.66-.44,1.21-.85,1.66-1.23.44-.38.9-.57,1.36-.57.59,0,1.04.22,1.36.66l2.06,2.65c-.86,1.06-1.82,1.95-2.89,2.69-1.07.74-2.2,1.34-3.41,1.8-1.2.47-2.46.81-3.77,1.03-1.31.22-2.64.33-3.99.33-2.33,0-4.51-.43-6.53-1.29-2.02-.86-3.78-2.11-5.26-3.75-1.48-1.64-2.66-3.66-3.51-6.05-.86-2.39-1.29-5.11-1.29-8.15,0-2.77.39-5.34,1.16-7.69.77-2.36,1.91-4.39,3.42-6.09,1.51-1.7,3.37-3.04,5.58-4.01s4.74-1.45,7.58-1.45c2.67,0,5.03.43,7.07,1.29,2.04.86,3.85,2.07,5.45,3.64l-1.91,2.65Z"></path>
      <path class="cls-2" d="M1157.24,139.37c1.57-1.6,3.31-2.88,5.21-3.86,1.9-.98,4.09-1.47,6.57-1.47,2.06,0,3.87.34,5.43,1.03,1.56.69,2.86,1.65,3.92,2.89,1.05,1.24,1.85,2.73,2.39,4.47.54,1.74.81,3.67.81,5.78v23.82h-7.21v-23.82c0-2.67-.61-4.75-1.84-6.24-1.23-1.48-3.1-2.23-5.63-2.23-1.84,0-3.56.44-5.17,1.31-1.61.87-3.1,2.06-4.47,3.55v27.42h-7.18v-54.33h7.18v21.68Z"></path>
      <path class="cls-2" d="M1194.49,172.02c-.66,0-1.27-.12-1.82-.37-.55-.24-1.03-.58-1.44-1.01-.4-.43-.72-.94-.94-1.53-.22-.59-.33-1.23-.33-1.91,0-.59.11-1.15.33-1.67.22-.53.53-.99.94-1.38.4-.39.89-.7,1.45-.94.56-.23,1.19-.35,1.88-.35.79,0,1.48.14,2.08.42.6.28,1.1.68,1.51,1.18.4.5.7,1.09.9,1.75.2.66.29,1.37.29,2.13,0,1.1-.16,2.27-.48,3.5-.32,1.23-.79,2.44-1.4,3.64-.61,1.2-1.37,2.37-2.28,3.5-.91,1.13-1.94,2.17-3.09,3.13l-1.21-1.14c-.37-.34-.55-.72-.55-1.14,0-.17.06-.35.17-.53s.25-.36.42-.53c.25-.27.56-.63.96-1.07.39-.44.78-.95,1.16-1.53.38-.58.74-1.21,1.07-1.91.33-.7.57-1.44.72-2.23h-.33Z"></path>
    </g>
    <g>
      <path class="cls-2" d="M1053.07,215.53c1.55-1.72,3.3-3.1,5.26-4.16,1.96-1.05,4.2-1.58,6.7-1.58,2.18,0,4.15.42,5.91,1.27,1.75.85,3.24,2.06,4.47,3.64,1.23,1.58,2.17,3.5,2.83,5.76.66,2.26.99,4.81.99,7.66,0,3.02-.37,5.77-1.12,8.24-.75,2.48-1.82,4.6-3.2,6.37-1.39,1.77-3.07,3.13-5.06,4.1-1.99.97-4.22,1.45-6.7,1.45-1.2,0-2.31-.12-3.31-.35s-1.93-.57-2.78-1.01c-.85-.44-1.63-.98-2.34-1.62-.71-.64-1.39-1.36-2.02-2.17l-.33,3.13c-.2,1.01-.81,1.51-1.84,1.51h-4.64v-54.33h7.18v22.09ZM1053.07,238.57c1.18,1.55,2.45,2.63,3.83,3.24,1.37.61,2.87.92,4.49.92,3.34,0,5.91-1.19,7.71-3.57,1.8-2.38,2.71-5.98,2.71-10.78,0-4.44-.8-7.7-2.39-9.77-1.6-2.07-3.85-3.11-6.77-3.11-2.06,0-3.85.47-5.36,1.4-1.51.93-2.91,2.26-4.21,3.98v17.7Z"></path>
      <path class="cls-2" d="M1118.37,210.38v37.4h-4.31c-.98,0-1.62-.48-1.91-1.44l-.52-3.75c-.81.86-1.66,1.64-2.54,2.36-.88.71-1.83,1.32-2.83,1.82-1.01.5-2.07.9-3.2,1.18-1.13.28-2.34.42-3.64.42-2.06,0-3.87-.34-5.43-1.03-1.56-.69-2.87-1.65-3.92-2.89-1.06-1.24-1.85-2.73-2.39-4.47-.54-1.74-.81-3.67-.81-5.78v-23.82h7.21v23.82c0,2.68.61,4.75,1.84,6.24s3.1,2.23,5.63,2.23c1.84,0,3.56-.44,5.15-1.31,1.59-.87,3.09-2.07,4.49-3.59v-27.39h7.18Z"></path>
      <path class="cls-2" d="M1140.12,248.36c-3.02,0-5.34-.85-6.97-2.54-1.63-1.69-2.45-4.11-2.45-7.25v-22.38h-4.34c-.42,0-.77-.13-1.05-.39-.28-.26-.42-.64-.42-1.16v-2.91l6.07-.85,1.62-11.15c.1-.42.29-.74.57-.98.28-.23.64-.35,1.09-.35h3.64v12.55h10.6v5.23h-10.6v21.9c0,1.47.36,2.57,1.09,3.29s1.65,1.09,2.78,1.09c.66,0,1.23-.09,1.71-.26.48-.17.89-.36,1.23-.57s.64-.4.88-.57c.25-.17.47-.26.66-.26.25,0,.44.06.57.17s.28.29.42.53l2.13,3.46c-1.18,1.08-2.58,1.91-4.2,2.5s-3.3.88-5.04.88Z"></path>
      <path class="cls-2" d="M1180.46,215.97c.78-.93,1.63-1.78,2.52-2.56.9-.77,1.86-1.44,2.89-1.99,1.03-.55,2.13-.98,3.29-1.29,1.16-.31,2.41-.46,3.74-.46,2.13,0,4.07.42,5.8,1.25,1.73.83,3.21,2.06,4.43,3.68,1.23,1.62,2.18,3.62,2.85,6,.68,2.38,1.01,5.12,1.01,8.21,0,2.77-.37,5.34-1.12,7.71-.75,2.37-1.82,4.42-3.2,6.17-1.39,1.74-3.08,3.11-5.08,4.1-2,.99-4.25,1.49-6.75,1.49-2.23,0-4.15-.37-5.74-1.1-1.6-.74-3.02-1.77-4.27-3.09v16.23h-7.18v-49.95h4.31c1.01,0,1.63.48,1.88,1.44l.63,4.16ZM1180.83,238.57c1.18,1.55,2.45,2.63,3.81,3.24,1.36.61,2.89.92,4.58.92,3.29,0,5.83-1.18,7.64-3.55,1.8-2.37,2.71-5.82,2.71-10.36,0-2.38-.2-4.41-.61-6.09-.4-1.68-.99-3.06-1.77-4.12-.77-1.07-1.72-1.85-2.85-2.36-1.13-.5-2.41-.75-3.83-.75-2.09,0-3.9.47-5.43,1.4-1.53.93-2.95,2.26-4.25,3.98v17.7Z"></path>
      <path class="cls-2" d="M1245.76,242.44c-.88,1.03-1.9,1.92-3.06,2.67-1.15.75-2.38,1.36-3.68,1.82-1.3.47-2.64.81-4.03,1.03-1.39.22-2.76.33-4.1.33-2.58,0-4.96-.44-7.16-1.31-2.2-.87-4.1-2.15-5.71-3.83-1.61-1.68-2.86-3.77-3.75-6.26-.9-2.49-1.34-5.36-1.34-8.59,0-2.6.4-5.02,1.21-7.27.81-2.25,1.97-4.2,3.48-5.87,1.51-1.67,3.36-2.98,5.54-3.94,2.18-.96,4.64-1.44,7.36-1.44,2.28,0,4.39.37,6.31,1.12,1.93.75,3.59,1.83,4.99,3.26,1.4,1.42,2.5,3.18,3.29,5.26.8,2.09,1.2,4.47,1.2,7.14,0,1.1-.12,1.85-.37,2.23-.25.38-.7.57-1.36.57h-24.51c.07,2.23.39,4.18.96,5.83.56,1.66,1.34,3.04,2.34,4.14s2.18,1.93,3.55,2.47c1.37.54,2.91.81,4.6.81,1.6,0,2.98-.18,4.14-.55,1.17-.37,2.17-.77,3.02-1.2.85-.43,1.56-.83,2.13-1.2.58-.37,1.09-.55,1.53-.55.59,0,1.04.22,1.36.66l2.06,2.65ZM1239.83,224.91c0-1.42-.2-2.74-.61-3.94s-1-2.25-1.78-3.13c-.79-.88-1.74-1.57-2.87-2.06-1.13-.49-2.43-.74-3.9-.74-3.02,0-5.39.87-7.12,2.61-1.73,1.74-2.83,4.16-3.29,7.25h19.58Z"></path>
      <path class="cls-2" d="M1269.98,209.79c2.75,0,5.23.45,7.45,1.34,2.22.9,4.11,2.18,5.67,3.86,1.56,1.68,2.75,3.71,3.59,6.07.83,2.37,1.25,5.02,1.25,7.97s-.42,5.61-1.25,7.99c-.83,2.38-2.03,4.41-3.59,6.07-1.56,1.67-3.45,2.95-5.67,3.85-2.22.9-4.71,1.34-7.45,1.34s-5.27-.45-7.49-1.34c-2.22-.9-4.12-2.18-5.69-3.85-1.57-1.67-2.78-3.69-3.63-6.07-.85-2.38-1.27-5.04-1.27-7.99s.42-5.6,1.27-7.97c.85-2.37,2.05-4.39,3.63-6.07,1.57-1.68,3.47-2.97,5.69-3.86s4.72-1.34,7.49-1.34ZM1269.98,242.69c3.53,0,6.17-1.19,7.91-3.57,1.74-2.38,2.61-5.73,2.61-10.05s-.87-7.67-2.61-10.07c-1.74-2.39-4.38-3.59-7.91-3.59s-6.25,1.2-8.01,3.59c-1.75,2.39-2.63,5.75-2.63,10.07s.88,7.67,2.63,10.05,4.42,3.57,8.01,3.57Z"></path>
      <path class="cls-2" d="M1302.74,215.97c.78-.93,1.63-1.78,2.52-2.56.9-.77,1.86-1.44,2.89-1.99,1.03-.55,2.13-.98,3.29-1.29,1.16-.31,2.41-.46,3.74-.46,2.13,0,4.07.42,5.8,1.25,1.73.83,3.21,2.06,4.43,3.68,1.23,1.62,2.18,3.62,2.85,6,.68,2.38,1.01,5.12,1.01,8.21,0,2.77-.37,5.34-1.12,7.71-.75,2.37-1.82,4.42-3.2,6.17-1.39,1.74-3.08,3.11-5.08,4.1-2,.99-4.25,1.49-6.75,1.49-2.23,0-4.15-.37-5.74-1.1-1.6-.74-3.02-1.77-4.27-3.09v16.23h-7.18v-49.95h4.31c1.01,0,1.63.48,1.88,1.44l.63,4.16ZM1303.11,238.57c1.18,1.55,2.45,2.63,3.81,3.24,1.36.61,2.89.92,4.58.92,3.29,0,5.83-1.18,7.64-3.55,1.8-2.37,2.71-5.82,2.71-10.36,0-2.38-.2-4.41-.61-6.09-.4-1.68-.99-3.06-1.77-4.12-.77-1.07-1.72-1.85-2.85-2.36-1.13-.5-2.41-.75-3.83-.75-2.09,0-3.9.47-5.43,1.4-1.53.93-2.95,2.26-4.25,3.98v17.7Z"></path>
      <path class="cls-2" d="M1344.7,193.44v54.33h-7.21v-54.33h7.21Z"></path>
      <path class="cls-2" d="M1385.63,242.44c-.88,1.03-1.9,1.92-3.06,2.67-1.15.75-2.38,1.36-3.68,1.82-1.3.47-2.64.81-4.03,1.03-1.39.22-2.76.33-4.1.33-2.58,0-4.96-.44-7.16-1.31-2.2-.87-4.1-2.15-5.71-3.83-1.61-1.68-2.86-3.77-3.75-6.26-.9-2.49-1.34-5.36-1.34-8.59,0-2.6.4-5.02,1.21-7.27.81-2.25,1.97-4.2,3.48-5.87,1.51-1.67,3.36-2.98,5.54-3.94,2.18-.96,4.64-1.44,7.36-1.44,2.28,0,4.39.37,6.31,1.12,1.93.75,3.59,1.83,4.99,3.26,1.4,1.42,2.5,3.18,3.29,5.26.8,2.09,1.2,4.47,1.2,7.14,0,1.1-.12,1.85-.37,2.23-.25.38-.7.57-1.36.57h-24.51c.07,2.23.39,4.18.96,5.83.56,1.66,1.34,3.04,2.34,4.14s2.18,1.93,3.55,2.47c1.37.54,2.91.81,4.6.81,1.6,0,2.98-.18,4.14-.55,1.17-.37,2.17-.77,3.02-1.2.85-.43,1.56-.83,2.13-1.2.58-.37,1.09-.55,1.53-.55.59,0,1.04.22,1.36.66l2.06,2.65ZM1379.71,224.91c0-1.42-.2-2.74-.61-3.94-.4-1.2-1-2.25-1.78-3.13-.79-.88-1.74-1.57-2.87-2.06-1.13-.49-2.43-.74-3.9-.74-3.02,0-5.39.87-7.12,2.61-1.73,1.74-2.83,4.16-3.29,7.25h19.58Z"></path>
    </g>
    <g>
      <path class="cls-2" d="M1051.71,326.23v-31.51l-3.9-.48c-.56-.12-1.03-.32-1.38-.61-.36-.28-.53-.69-.53-1.23v-2.98h5.82v-1.8c0-2.28.36-4.39,1.09-6.31.72-1.93,1.82-3.59,3.28-4.99,1.46-1.4,3.28-2.48,5.45-3.26,2.17-.77,4.72-1.16,7.64-1.16.93,0,1.91.06,2.94.18,1.03.12,1.9.31,2.61.55l-.26,3.75c-.05.49-.36.75-.92.77-.56.03-1.35.04-2.36.04-2.23,0-4.14.22-5.71.66s-2.86,1.1-3.86,1.99c-1.01.88-1.74,1.99-2.21,3.33-.47,1.34-.7,2.89-.7,4.66v1.58h22.75v36.81h-7.21v-31.58h-15.31v31.58h-7.21Z"></path>
      <path class="cls-2" d="M1098.64,296.01c1.2-2.45,2.65-4.38,4.34-5.78,1.69-1.4,3.73-2.1,6.11-2.1.81,0,1.58.09,2.3.28.72.18,1.36.46,1.9.83l-.48,5.41c-.17.66-.58.99-1.21.99-.34,0-.86-.07-1.55-.2-.69-.13-1.42-.2-2.21-.2-1.15,0-2.17.17-3.06.5s-1.68.82-2.37,1.47c-.7.65-1.32,1.45-1.86,2.39-.54.95-1.04,2.02-1.51,3.22v23.41h-7.18v-37.4h4.12c.79,0,1.32.14,1.6.42.28.28.48.78.61,1.49l.44,5.26Z"></path>
      <path class="cls-2" d="M1140.67,295.27c-.2.32-.4.55-.63.68-.22.14-.5.2-.85.2-.39,0-.83-.13-1.31-.4-.48-.27-1.06-.56-1.73-.88-.68-.32-1.47-.61-2.37-.88-.91-.27-1.99-.4-3.24-.4-1.03,0-1.97.13-2.82.39-.85.26-1.56.61-2.15,1.07-.59.45-1.04.99-1.36,1.62-.32.63-.48,1.29-.48,2.01,0,.93.28,1.71.83,2.32.55.61,1.28,1.14,2.17,1.58.9.44,1.91.84,3.06,1.2,1.14.36,2.31.73,3.5,1.12,1.19.39,2.36.84,3.5,1.34s2.16,1.13,3.06,1.88c.9.75,1.62,1.65,2.17,2.71.55,1.06.83,2.34.83,3.86,0,1.74-.31,3.36-.94,4.84-.63,1.48-1.55,2.77-2.76,3.85-1.21,1.08-2.72,1.93-4.51,2.54-1.79.61-3.84.92-6.15.92-2.58,0-4.96-.43-7.14-1.29-2.18-.86-4.01-1.95-5.48-3.28l1.69-2.76c.2-.34.44-.61.74-.79s.69-.28,1.18-.28.94.17,1.44.52c.49.34,1.08.72,1.77,1.12.69.4,1.52.77,2.5,1.1.98.33,2.21.5,3.68.5,1.23,0,2.29-.15,3.2-.46.91-.31,1.66-.72,2.26-1.25.6-.53,1.05-1.13,1.34-1.82.29-.69.44-1.41.44-2.17,0-.98-.28-1.8-.83-2.45-.55-.65-1.28-1.21-2.17-1.68-.9-.47-1.92-.87-3.07-1.21-1.15-.34-2.33-.71-3.53-1.1-1.2-.39-2.38-.85-3.53-1.36-1.15-.52-2.18-1.17-3.07-1.95-.9-.78-1.62-1.74-2.17-2.87-.55-1.13-.83-2.5-.83-4.12,0-1.45.3-2.83.9-4.16.6-1.33,1.47-2.49,2.61-3.5,1.14-1.01,2.55-1.81,4.23-2.41,1.68-.6,3.6-.9,5.76-.9,2.48,0,4.72.39,6.72,1.18,2,.79,3.71,1.87,5.13,3.24l-1.58,2.61Z"></path>
      <path class="cls-2" d="M1162.32,326.82c-3.02,0-5.34-.85-6.98-2.54-1.63-1.69-2.45-4.11-2.45-7.25v-22.38h-4.34c-.42,0-.77-.13-1.05-.39-.28-.26-.42-.64-.42-1.16v-2.91l6.07-.85,1.62-11.15c.1-.42.29-.74.57-.98.28-.23.64-.35,1.09-.35h3.64v12.55h10.6v5.23h-10.6v21.9c0,1.47.36,2.57,1.09,3.29.72.72,1.65,1.09,2.78,1.09.66,0,1.23-.09,1.71-.26.48-.17.89-.36,1.23-.57.34-.21.64-.4.88-.57.25-.17.47-.26.66-.26.25,0,.44.06.57.17.13.11.28.29.42.53l2.13,3.46c-1.18,1.08-2.58,1.91-4.2,2.5-1.62.59-3.3.88-5.04.88Z"></path>
      <path class="cls-2" d="M1176.08,321.92c0-.66.12-1.29.37-1.88.24-.59.58-1.1,1.01-1.55.43-.44.94-.79,1.53-1.05.59-.26,1.23-.39,1.91-.39s1.29.13,1.88.39c.59.26,1.1.61,1.55,1.05.44.44.79.96,1.05,1.55.26.59.39,1.21.39,1.88s-.13,1.33-.39,1.91c-.26.59-.61,1.1-1.05,1.55s-.96.79-1.55,1.03-1.21.37-1.88.37-1.33-.12-1.91-.37c-.59-.25-1.1-.59-1.53-1.03-.43-.44-.77-.96-1.01-1.55-.25-.59-.37-1.23-.37-1.91Z"></path>
    </g>
  </g>
</svg>