<?xml version="1.0" encoding="UTF-8"?>
<svg id="Camada_1" data-name="Camada 1" xmlns="http://www.w3.org/2000/svg" xmlns:xlink="http://www.w3.org/1999/xlink" viewBox="0 0 1080 1080">
  <defs>
    
    <linearGradient id="Gradiente_sem_nome_3" data-name="Gradiente sem nome 3" x1=".23" y1="540" x2="1079.77" y2="540" gradientUnits="userSpaceOnUse">
      <stop offset="0" stop-color="#45ff1d"></stop>
      <stop offset="1" stop-color="#3559eb"></stop>
    </linearGradient>
  </defs>
  <g>
    <g>
      <g>
        <path class="cls-3" d="M101.66,467.81c-4.36,0-7.71-1.22-10.06-3.66-2.36-2.44-3.53-5.93-3.53-10.46v-32.29h-6.27c-.6,0-1.11-.19-1.51-.56-.41-.37-.61-.93-.61-1.67v-4.2l8.76-1.22,2.34-16.09c.14-.6.42-1.07.82-1.41.41-.34.93-.51,1.57-.51h5.26v18.11h15.29v7.54h-15.29v31.6c0,2.12.52,3.71,1.57,4.75,1.04,1.04,2.38,1.57,4.01,1.57.96,0,1.78-.12,2.47-.37.69-.25,1.28-.52,1.78-.82.5-.3.92-.58,1.27-.82.35-.25.67-.37.96-.37.35,0,.63.08.82.24.19.16.4.42.61.77l3.08,4.99c-1.7,1.56-3.72,2.76-6.05,3.61-2.34.85-4.76,1.27-7.28,1.27Z"></path>
        <path class="cls-3" d="M167.2,459.26c-1.27,1.49-2.74,2.77-4.41,3.85-1.66,1.08-3.43,1.96-5.31,2.63-1.88.67-3.82,1.17-5.82,1.49-2,.32-3.98.48-5.92.48-3.72,0-7.16-.63-10.33-1.89-3.17-1.26-5.91-3.1-8.23-5.52-2.32-2.42-4.13-5.43-5.42-9.03-1.29-3.59-1.94-7.73-1.94-12.4,0-3.75.58-7.25,1.75-10.49,1.17-3.24,2.84-6.06,5.02-8.47,2.18-2.41,4.84-4.3,7.99-5.68,3.15-1.38,6.69-2.07,10.62-2.07,3.29,0,6.33.54,9.11,1.62,2.78,1.08,5.18,2.65,7.2,4.7,2.02,2.05,3.6,4.59,4.75,7.59,1.15,3.01,1.73,6.44,1.73,10.3,0,1.59-.18,2.66-.53,3.21-.35.55-1.01.82-1.96.82h-35.37c.11,3.22.57,6.03,1.38,8.42.81,2.39,1.94,4.38,3.37,5.97,1.43,1.59,3.14,2.78,5.13,3.56,1.98.78,4.2,1.17,6.64,1.17,2.3,0,4.29-.27,5.97-.8,1.68-.53,3.13-1.11,4.35-1.73,1.22-.62,2.25-1.19,3.08-1.73.83-.53,1.57-.8,2.2-.8.85,0,1.5.32,1.96.96l2.97,3.82ZM158.65,433.98c0-2.05-.29-3.95-.88-5.68s-1.44-3.24-2.58-4.51c-1.13-1.27-2.51-2.27-4.14-2.97-1.63-.71-3.51-1.06-5.63-1.06-4.35,0-7.78,1.26-10.28,3.77-2.5,2.51-4.08,6-4.75,10.46h28.25Z"></path>
        <path class="cls-3" d="M216.96,423.09c-.32.39-.63.7-.93.93-.3.23-.73.35-1.3.35s-1.16-.22-1.78-.66c-.62-.44-1.4-.92-2.34-1.43-.94-.51-2.07-.99-3.4-1.43-1.33-.44-2.97-.66-4.91-.66-2.55,0-4.8.46-6.74,1.38-1.95.92-3.57,2.23-4.86,3.93-1.29,1.7-2.28,3.77-2.95,6.21-.67,2.44-1.01,5.19-1.01,8.23s.35,5.96,1.06,8.42c.71,2.46,1.72,4.53,3.03,6.21,1.31,1.68,2.9,2.96,4.78,3.82,1.88.87,3.96,1.3,6.27,1.3s4.07-.27,5.52-.82c1.45-.55,2.66-1.14,3.61-1.78.96-.64,1.75-1.23,2.39-1.78.64-.55,1.29-.82,1.97-.82.85,0,1.5.32,1.96.96l2.97,3.82c-1.24,1.52-2.63,2.82-4.17,3.88-1.54,1.06-3.18,1.93-4.91,2.6-1.74.67-3.55,1.17-5.44,1.49-1.89.32-3.82.48-5.76.48-3.36,0-6.51-.62-9.43-1.86-2.92-1.24-5.45-3.04-7.59-5.42-2.14-2.37-3.83-5.28-5.07-8.74-1.24-3.45-1.86-7.37-1.86-11.76,0-4,.56-7.7,1.67-11.1,1.12-3.4,2.76-6.33,4.94-8.79,2.18-2.46,4.86-4.39,8.05-5.79,3.19-1.4,6.83-2.1,10.94-2.1,3.86,0,7.26.62,10.2,1.86,2.94,1.24,5.56,2.99,7.86,5.26l-2.76,3.82Z"></path>
        <path class="cls-3" d="M240.33,419.85c2.27-2.3,4.77-4.16,7.51-5.58,2.74-1.42,5.9-2.12,9.48-2.12,2.97,0,5.59.5,7.83,1.49,2.25.99,4.13,2.38,5.66,4.17,1.52,1.79,2.67,3.94,3.45,6.45.78,2.51,1.17,5.29,1.17,8.34v34.36h-10.41v-34.36c0-3.86-.89-6.86-2.66-9s-4.48-3.21-8.13-3.21c-2.66,0-5.14.63-7.46,1.88-2.32,1.26-4.47,2.97-6.45,5.13v39.57h-10.36v-78.39h10.36v31.28Z"></path>
        <path class="cls-3" d="M294.08,466.96c-.96,0-1.83-.18-2.63-.53-.8-.35-1.49-.84-2.07-1.46-.58-.62-1.04-1.35-1.35-2.2-.32-.85-.48-1.77-.48-2.76,0-.85.16-1.65.48-2.42.32-.76.77-1.43,1.35-1.99.58-.57,1.28-1.02,2.1-1.35.81-.34,1.72-.5,2.71-.5,1.13,0,2.13.2,3,.61.87.41,1.59.97,2.18,1.7.58.73,1.02,1.57,1.3,2.52.28.96.42,1.98.42,3.08,0,1.59-.23,3.27-.69,5.04-.46,1.77-1.13,3.52-2.02,5.26-.89,1.73-1.98,3.42-3.29,5.05-1.31,1.63-2.8,3.13-4.46,4.51l-1.75-1.65c-.53-.5-.8-1.04-.8-1.65,0-.25.08-.5.24-.77s.36-.52.61-.77c.35-.39.81-.9,1.38-1.54.57-.64,1.12-1.37,1.67-2.2.55-.83,1.06-1.75,1.54-2.76.48-1.01.82-2.08,1.04-3.21h-.48Z"></path>
      </g>
      <path class="cls-3" d="M90.03,529.73c2.23-2.48,4.76-4.48,7.59-6,2.83-1.52,6.05-2.28,9.67-2.28,3.15,0,5.99.61,8.52,1.83,2.53,1.22,4.68,2.97,6.45,5.26,1.77,2.28,3.13,5.05,4.09,8.31.96,3.26,1.43,6.94,1.43,11.05,0,4.36-.54,8.32-1.62,11.9-1.08,3.58-2.62,6.64-4.62,9.19-2,2.55-4.44,4.52-7.3,5.92-2.87,1.4-6.09,2.1-9.67,2.1-1.74,0-3.33-.17-4.78-.5-1.45-.34-2.79-.82-4.01-1.46-1.22-.64-2.35-1.42-3.37-2.34-1.03-.92-2-1.97-2.92-3.13l-.48,4.51c-.28,1.45-1.17,2.18-2.66,2.18h-6.69v-78.39h10.36v31.87ZM90.03,562.98c1.7,2.23,3.54,3.79,5.52,4.67,1.98.89,4.14,1.33,6.48,1.33,4.82,0,8.52-1.72,11.13-5.15,2.6-3.43,3.9-8.62,3.9-15.56,0-6.41-1.15-11.11-3.45-14.1-2.3-2.99-5.56-4.49-9.77-4.49-2.97,0-5.55.67-7.73,2.02-2.18,1.35-4.2,3.26-6.08,5.74v25.55Z"></path>
      <path class="cls-3" d="M184.25,522.3v53.96h-6.21c-1.42,0-2.34-.69-2.76-2.07l-.74-5.42c-1.17,1.24-2.39,2.37-3.66,3.4-1.27,1.03-2.64,1.9-4.09,2.63-1.45.73-2.99,1.29-4.62,1.7-1.63.41-3.38.61-5.26.61-2.97,0-5.59-.5-7.83-1.49-2.25-.99-4.13-2.38-5.66-4.17-1.52-1.79-2.67-3.94-3.45-6.45-.78-2.51-1.17-5.29-1.17-8.34v-34.36h10.41v34.36c0,3.86.89,6.86,2.66,9,1.77,2.14,4.48,3.21,8.13,3.21,2.66,0,5.13-.63,7.44-1.89,2.3-1.26,4.46-2.98,6.48-5.18v-39.51h10.36Z"></path>
      <path class="cls-3" d="M215.63,577.11c-4.35,0-7.71-1.22-10.06-3.66-2.36-2.44-3.53-5.93-3.53-10.46v-32.29h-6.27c-.6,0-1.11-.19-1.51-.56-.41-.37-.61-.93-.61-1.67v-4.2l8.76-1.22,2.34-16.09c.14-.6.42-1.07.82-1.41.41-.34.93-.51,1.57-.51h5.26v18.11h15.3v7.54h-15.3v31.6c0,2.12.52,3.71,1.57,4.75,1.04,1.04,2.38,1.57,4.01,1.57.96,0,1.78-.12,2.47-.37.69-.25,1.28-.52,1.78-.82.5-.3.92-.58,1.27-.82.35-.25.67-.37.96-.37.35,0,.63.08.82.24s.4.42.61.77l3.08,4.99c-1.7,1.56-3.72,2.76-6.05,3.61-2.34.85-4.76,1.27-7.28,1.27Z"></path>
      <path class="cls-3" d="M273.84,530.37c1.13-1.35,2.34-2.58,3.64-3.69,1.29-1.12,2.68-2.07,4.17-2.87,1.49-.8,3.07-1.42,4.75-1.86,1.68-.44,3.48-.66,5.39-.66,3.08,0,5.87.6,8.37,1.81,2.5,1.2,4.63,2.97,6.4,5.31,1.77,2.34,3.14,5.22,4.12,8.66.97,3.43,1.46,7.38,1.46,11.84,0,4-.54,7.71-1.62,11.13-1.08,3.42-2.62,6.38-4.62,8.9-2,2.51-4.44,4.49-7.33,5.92-2.89,1.43-6.13,2.15-9.75,2.15-3.22,0-5.98-.53-8.29-1.59-2.3-1.06-4.35-2.55-6.16-4.46v23.42h-10.36v-72.07h6.21c1.45,0,2.35.69,2.71,2.07l.9,6ZM274.37,562.98c1.7,2.23,3.53,3.79,5.5,4.67,1.96.89,4.17,1.33,6.61,1.33,4.74,0,8.42-1.71,11.02-5.13,2.6-3.42,3.9-8.4,3.9-14.95,0-3.43-.29-6.36-.88-8.79-.58-2.42-1.43-4.41-2.55-5.95-1.12-1.54-2.49-2.67-4.12-3.4-1.63-.72-3.47-1.09-5.52-1.09-3.01,0-5.62.67-7.83,2.02-2.21,1.35-4.26,3.26-6.13,5.74v25.55Z"></path>
      <path class="cls-3" d="M368.06,568.56c-1.27,1.49-2.74,2.77-4.41,3.85-1.66,1.08-3.43,1.96-5.31,2.63-1.88.67-3.81,1.17-5.81,1.49-2,.32-3.98.48-5.92.48-3.72,0-7.16-.63-10.33-1.89-3.17-1.26-5.91-3.1-8.23-5.52-2.32-2.42-4.12-5.43-5.42-9.03-1.29-3.59-1.94-7.73-1.94-12.4,0-3.75.58-7.25,1.75-10.49,1.17-3.24,2.84-6.06,5.02-8.47,2.18-2.41,4.84-4.3,7.99-5.68,3.15-1.38,6.69-2.07,10.62-2.07,3.29,0,6.33.54,9.11,1.62,2.78,1.08,5.18,2.65,7.2,4.7,2.02,2.05,3.6,4.59,4.75,7.59,1.15,3.01,1.73,6.44,1.73,10.3,0,1.59-.18,2.66-.53,3.21-.35.55-1.01.82-1.97.82h-35.37c.11,3.22.57,6.03,1.38,8.42.81,2.39,1.94,4.38,3.37,5.97,1.43,1.59,3.14,2.78,5.13,3.56,1.98.78,4.2,1.17,6.64,1.17,2.3,0,4.29-.27,5.97-.8,1.68-.53,3.13-1.11,4.36-1.73,1.22-.62,2.25-1.19,3.08-1.73.83-.53,1.57-.8,2.2-.8.85,0,1.5.32,1.97.96l2.97,3.82ZM359.51,543.28c0-2.05-.29-3.95-.88-5.68-.58-1.74-1.44-3.24-2.58-4.51-1.13-1.27-2.51-2.27-4.14-2.97-1.63-.71-3.51-1.06-5.63-1.06-4.36,0-7.78,1.26-10.28,3.77-2.5,2.51-4.08,6-4.75,10.46h28.25Z"></path>
      <path class="cls-3" d="M403,521.45c3.97,0,7.55.65,10.76,1.94,3.2,1.29,5.93,3.15,8.18,5.58,2.25,2.43,3.97,5.35,5.18,8.76,1.2,3.42,1.81,7.25,1.81,11.5s-.6,8.09-1.81,11.52c-1.2,3.43-2.93,6.36-5.18,8.76-2.25,2.41-4.98,4.26-8.18,5.55-3.21,1.29-6.79,1.94-10.76,1.94s-7.6-.65-10.81-1.94c-3.2-1.29-5.94-3.14-8.21-5.55-2.27-2.41-4.01-5.33-5.23-8.76-1.22-3.43-1.83-7.28-1.83-11.52s.61-8.08,1.83-11.5c1.22-3.42,2.97-6.34,5.23-8.76,2.27-2.42,5-4.28,8.21-5.58,3.2-1.29,6.81-1.94,10.81-1.94ZM403,568.93c5.1,0,8.9-1.72,11.42-5.15,2.51-3.43,3.77-8.27,3.77-14.5s-1.26-11.07-3.77-14.53c-2.51-3.45-6.32-5.18-11.42-5.18s-9.02,1.73-11.55,5.18c-2.53,3.45-3.8,8.29-3.8,14.53s1.27,11.06,3.8,14.5c2.53,3.43,6.38,5.15,11.55,5.15Z"></path>
      <path class="cls-3" d="M450.27,530.37c1.13-1.35,2.34-2.58,3.64-3.69,1.29-1.12,2.68-2.07,4.17-2.87,1.49-.8,3.07-1.42,4.75-1.86,1.68-.44,3.48-.66,5.39-.66,3.08,0,5.87.6,8.37,1.81,2.5,1.2,4.63,2.97,6.4,5.31,1.77,2.34,3.14,5.22,4.12,8.66.97,3.43,1.46,7.38,1.46,11.84,0,4-.54,7.71-1.62,11.13-1.08,3.42-2.62,6.38-4.62,8.9-2,2.51-4.44,4.49-7.33,5.92-2.89,1.43-6.13,2.15-9.75,2.15-3.22,0-5.98-.53-8.29-1.59-2.3-1.06-4.35-2.55-6.16-4.46v23.42h-10.36v-72.07h6.21c1.45,0,2.35.69,2.71,2.07l.9,6ZM450.8,562.98c1.7,2.23,3.53,3.79,5.5,4.67,1.96.89,4.17,1.33,6.61,1.33,4.74,0,8.42-1.71,11.02-5.13,2.6-3.42,3.9-8.4,3.9-14.95,0-3.43-.29-6.36-.88-8.79-.58-2.42-1.43-4.41-2.55-5.95-1.12-1.54-2.49-2.67-4.12-3.4-1.63-.72-3.47-1.09-5.52-1.09-3.01,0-5.62.67-7.83,2.02-2.21,1.35-4.26,3.26-6.13,5.74v25.55Z"></path>
      <path class="cls-3" d="M510.81,497.87v78.39h-10.41v-78.39h10.41Z"></path>
      <path class="cls-3" d="M569.87,568.56c-1.27,1.49-2.74,2.77-4.41,3.85-1.66,1.08-3.43,1.96-5.31,2.63-1.88.67-3.81,1.17-5.81,1.49-2,.32-3.98.48-5.92.48-3.72,0-7.16-.63-10.33-1.89-3.17-1.26-5.91-3.1-8.23-5.52-2.32-2.42-4.12-5.43-5.42-9.03-1.29-3.59-1.94-7.73-1.94-12.4,0-3.75.58-7.25,1.75-10.49,1.17-3.24,2.84-6.06,5.02-8.47,2.18-2.41,4.84-4.3,7.99-5.68,3.15-1.38,6.69-2.07,10.62-2.07,3.29,0,6.33.54,9.11,1.62,2.78,1.08,5.18,2.65,7.2,4.7,2.02,2.05,3.6,4.59,4.75,7.59,1.15,3.01,1.73,6.44,1.73,10.3,0,1.59-.18,2.66-.53,3.21-.35.55-1.01.82-1.97.82h-35.37c.11,3.22.57,6.03,1.38,8.42.81,2.39,1.94,4.38,3.37,5.97,1.43,1.59,3.14,2.78,5.13,3.56,1.98.78,4.2,1.17,6.64,1.17,2.3,0,4.29-.27,5.97-.8,1.68-.53,3.13-1.11,4.36-1.73,1.22-.62,2.25-1.19,3.08-1.73.83-.53,1.57-.8,2.2-.8.85,0,1.5.32,1.97.96l2.97,3.82ZM561.32,543.28c0-2.05-.29-3.95-.88-5.68-.58-1.74-1.44-3.24-2.58-4.51-1.13-1.27-2.51-2.27-4.14-2.97-1.63-.71-3.51-1.06-5.63-1.06-4.36,0-7.78,1.26-10.28,3.77-2.5,2.51-4.08,6-4.75,10.46h28.25Z"></path>
      <g>
        <path class="cls-3" d="M88.07,689.46v-45.46l-5.63-.69c-.81-.18-1.48-.47-1.99-.88-.51-.41-.77-1-.77-1.78v-4.3h8.39v-2.6c0-3.29.52-6.33,1.57-9.11,1.04-2.78,2.62-5.18,4.73-7.2,2.11-2.02,4.73-3.59,7.86-4.7,3.13-1.11,6.81-1.67,11.02-1.67,1.35,0,2.76.09,4.25.27,1.49.18,2.74.44,3.77.8l-.37,5.42c-.07.71-.51,1.08-1.33,1.12-.81.04-1.95.05-3.4.05-3.22,0-5.97.32-8.23.96-2.27.64-4.12,1.59-5.58,2.87-1.45,1.27-2.51,2.88-3.19,4.81-.67,1.93-1.01,4.17-1.01,6.72v2.28h32.82v53.11h-10.41v-45.57h-22.09v45.57h-10.41Z"></path>
        <path class="cls-3" d="M155.78,645.85c1.74-3.54,3.82-6.32,6.27-8.34,2.44-2.02,5.38-3.03,8.82-3.03,1.17,0,2.28.13,3.32.4,1.04.27,1.96.66,2.74,1.19l-.69,7.81c-.25.96-.83,1.43-1.75,1.43-.5,0-1.24-.1-2.23-.29-.99-.19-2.05-.29-3.19-.29-1.66,0-3.13.24-4.41.72-1.27.48-2.42,1.19-3.43,2.12-1.01.94-1.9,2.09-2.68,3.45-.78,1.36-1.51,2.91-2.18,4.65v33.78h-10.36v-53.96h5.95c1.13,0,1.9.2,2.31.61.41.41.7,1.12.88,2.15l.64,7.59Z"></path>
        <path class="cls-3" d="M216.43,644.79c-.28.46-.58.79-.9.98-.32.2-.73.29-1.22.29-.57,0-1.19-.19-1.89-.58-.69-.39-1.52-.81-2.5-1.27-.97-.46-2.12-.89-3.43-1.27-1.31-.39-2.87-.58-4.67-.58-1.49,0-2.84.19-4.06.56-1.22.37-2.26.89-3.11,1.54-.85.66-1.51,1.43-1.97,2.34-.46.9-.69,1.87-.69,2.89,0,1.35.4,2.46,1.2,3.35.8.89,1.84,1.65,3.13,2.28,1.29.64,2.76,1.21,4.41,1.73,1.65.51,3.33,1.05,5.05,1.62,1.72.57,3.4,1.21,5.04,1.94,1.65.73,3.12,1.63,4.41,2.71,1.29,1.08,2.34,2.38,3.13,3.9.8,1.52,1.19,3.38,1.19,5.58,0,2.51-.45,4.84-1.35,6.98-.9,2.14-2.23,3.99-3.98,5.55-1.75,1.56-3.92,2.78-6.51,3.66-2.58.88-5.54,1.33-8.87,1.33-3.72,0-7.15-.62-10.3-1.86-3.15-1.24-5.79-2.81-7.91-4.73l2.44-3.98c.28-.5.64-.88,1.06-1.14s.99-.4,1.7-.4,1.36.25,2.07.74c.71.5,1.56,1.04,2.55,1.62.99.58,2.2,1.12,3.61,1.59,1.42.48,3.19.72,5.31.72,1.77,0,3.31-.22,4.62-.66,1.31-.44,2.4-1.04,3.27-1.81.87-.76,1.51-1.64,1.94-2.63.42-.99.64-2.04.64-3.13,0-1.42-.4-2.59-1.19-3.53-.8-.94-1.84-1.74-3.13-2.42-1.29-.67-2.77-1.26-4.43-1.75-1.66-.5-3.36-1.03-5.1-1.59-1.74-.57-3.43-1.22-5.1-1.96-1.66-.74-3.14-1.68-4.43-2.82-1.29-1.13-2.34-2.51-3.13-4.14-.8-1.63-1.19-3.61-1.19-5.95,0-2.09.43-4.09,1.3-6,.87-1.91,2.12-3.59,3.77-5.04,1.65-1.45,3.68-2.61,6.11-3.48,2.42-.87,5.2-1.3,8.31-1.3,3.58,0,6.81.57,9.69,1.7,2.89,1.13,5.36,2.69,7.41,4.67l-2.28,3.77Z"></path>
        <path class="cls-3" d="M247.66,690.31c-4.36,0-7.71-1.22-10.06-3.66-2.36-2.44-3.53-5.93-3.53-10.46v-32.29h-6.27c-.6,0-1.11-.19-1.51-.56-.41-.37-.61-.93-.61-1.67v-4.2l8.76-1.22,2.34-16.09c.14-.6.42-1.07.82-1.41.41-.34.93-.51,1.57-.51h5.26v18.11h15.29v7.54h-15.29v31.6c0,2.12.52,3.71,1.57,4.75,1.04,1.04,2.38,1.57,4.01,1.57.96,0,1.78-.12,2.47-.37.69-.25,1.28-.52,1.78-.82.5-.3.92-.58,1.27-.82.35-.25.67-.37.96-.37.35,0,.63.08.82.24.19.16.4.42.61.77l3.08,4.99c-1.7,1.56-3.72,2.76-6.05,3.61-2.34.85-4.76,1.27-7.28,1.27Z"></path>
        <path class="cls-3" d="M267.52,683.24c0-.96.18-1.86.53-2.71.35-.85.84-1.59,1.46-2.23.62-.64,1.35-1.14,2.2-1.51.85-.37,1.77-.56,2.76-.56s1.86.19,2.71.56c.85.37,1.59.88,2.23,1.51.64.64,1.14,1.38,1.51,2.23.37.85.56,1.75.56,2.71s-.19,1.91-.56,2.76c-.37.85-.88,1.59-1.51,2.23-.64.64-1.38,1.13-2.23,1.49s-1.75.53-2.71.53-1.91-.18-2.76-.53c-.85-.35-1.59-.85-2.2-1.49-.62-.64-1.11-1.38-1.46-2.23-.35-.85-.53-1.77-.53-2.76Z"></path>
      </g>
    </g>
    <rect class="cls-2" x="1.23" y="317.17" width="1077.54" height="445.67" rx="46.05" ry="46.05"></rect>
    <path class="cls-1" d="M1008.75,719.03c-.09,0-.18-.01-.29-.03-.02,0-.04-.01-.06-.02h-.03s-.03-.02-.03-.02c-.07-.01-.13-.04-.19-.06h-.03s-.03-.03-.04-.03l-.04-.02c-.06-.03-.12-.07-.18-.11-.02-.02-.06-.04-.1-.07l-.03-.02s-.04-.02-.05-.04l-19.03-16.58s-.09-.09-.16-.16l-.02-.02c-1.27-1.18-5.4-5.71-4.99-14.33.52-10.93,9.81-13.82,14.65-13.82,2.3,0,5.05.78,7.37,2.1,1.11.63,2.07,1.35,2.85,2.15l.42.43.42-.43c.78-.8,1.74-1.52,2.85-2.15,2.32-1.31,5.08-2.1,7.37-2.1,4.84,0,14.13,2.89,14.65,13.82.41,8.62-3.72,13.14-4.99,14.33l-.02.02c-.07.07-.12.13-.16.15l-19.02,16.58s-.07.05-.07.05h-.01s-.07.07-.11.09c-.05.03-.11.07-.17.1l-.04.02s-.03.01-.04.02h-.03c-.06.04-.12.06-.19.07h-.03s-.03.02-.03.02c-.02,0-.05.01-.07.02-.1.02-.19.03-.28.03h-.06ZM1008.78,715.21l17.94-15.64s.04-.03.06-.05c.04-.03.11-.1.22-.2l.02-.02c.39-.42,1.74-1.99,2.76-4.43v-.02c.81-2.16,1.15-4.57,1.01-7.19-.55-10.14-9.29-10.65-11.04-10.65-.18,0-.3,0-.34,0-.75,0-1.59.13-2.47.39l-.08.02-.07.04c-.11.07-.21.12-.3.15-1.5.56-3.15,1.42-4.41,2.3l-.02.02c-.85.65-1.55,1.32-2.03,1.95l-.03.04-.02.04s-.02.04-.03.05c-.03.05-.11.16-.22.31-.34.52-.62.93-.8,1.16l-.16.19-.16-.19c-.17-.23-.46-.64-.79-1.14-.11-.16-.19-.28-.23-.33,0-.02-.02-.03-.03-.05l-.02-.04-.03-.04c-.48-.63-1.18-1.3-2.03-1.95l-.02-.02c-1.26-.88-2.91-1.73-4.41-2.3-.09-.03-.19-.08-.3-.15l-.07-.04-.08-.02c-.89-.26-1.72-.39-2.48-.39-.04,0-.16,0-.33,0-1.75,0-10.49.51-11.04,10.65-.14,2.61.19,5.03,1,7.19v.02c1.03,2.44,2.38,4.01,2.77,4.43l.02.02c.11.1.18.17.22.2.02.02.03.03.06.05l17.94,15.64Z"></path>
    <path class="cls-1" d="M928.15,673.34c.02-.11.03-.22.03-.33,0-.04,0-.08,0-.13,0-.1-.03-.21-.05-.31,0-.04-.02-.07-.03-.11-.04-.13-.1-.26-.17-.38,0,0,0,0,0,0,0,0,0,0,0,0,0-.02-.02-.03-.03-.04-.07-.11-.15-.2-.24-.29-.03-.03-.06-.05-.09-.08-.08-.07-.17-.13-.26-.19-.03-.02-.07-.04-.1-.06-.13-.06-.26-.12-.39-.15,0,0,0,0,0,0-.14-.04-.29-.05-.43-.05-.01,0-.03,0-.04,0l-51.54.21c-.75,0-1.42.45-1.7,1.14-.27.68-.09,1.47.46,1.98l19.25,17.93,7.04,27.73c.17.66.7,1.17,1.36,1.34.07.02.15.03.22.04.77.1,1.51-.28,1.86-.95l24.72-46.76s0-.02,0-.03c.06-.13.11-.26.15-.39,0-.03,0-.06.01-.09ZM919.52,674.84l-24.83,14.42-15.3-14.25,40.13-.17ZM902.22,714.65l-5.65-22.26,25.12-14.59-19.48,36.85Z"></path>
  </g>
  <rect class="cls-2" x="1.23" y="317.17" width="1077.54" height="445.67" rx="46.05" ry="46.05"></rect>
  <path class="cls-3" d="M1008.75,719.03c-.09,0-.18-.01-.29-.03-.02,0-.04-.01-.06-.02h-.03s-.03-.02-.03-.02c-.07-.01-.13-.04-.19-.06h-.03s-.03-.03-.04-.03l-.04-.02c-.06-.03-.12-.07-.18-.11-.02-.02-.06-.04-.1-.07l-.03-.02s-.04-.02-.05-.04l-19.03-16.58s-.09-.09-.16-.16l-.02-.02c-1.27-1.18-5.4-5.71-4.99-14.33.52-10.93,9.81-13.82,14.65-13.82,2.3,0,5.05.78,7.37,2.1,1.11.63,2.07,1.35,2.85,2.15l.42.43.42-.43c.78-.8,1.74-1.52,2.85-2.15,2.32-1.31,5.08-2.1,7.37-2.1,4.84,0,14.13,2.89,14.65,13.82.41,8.62-3.72,13.14-4.99,14.33l-.02.02c-.07.07-.12.13-.16.15l-19.02,16.58s-.07.05-.07.05h-.01s-.07.07-.11.09c-.05.03-.11.07-.17.1l-.04.02s-.03.01-.04.02h-.03c-.06.04-.12.06-.19.07h-.03s-.03.02-.03.02c-.02,0-.05.01-.07.02-.1.02-.19.03-.28.03h-.06ZM1008.78,715.21l17.94-15.64s.04-.03.06-.05c.04-.03.11-.1.22-.2l.02-.02c.39-.42,1.74-1.99,2.76-4.43v-.02c.81-2.16,1.15-4.57,1.01-7.19-.55-10.14-9.29-10.65-11.04-10.65-.18,0-.3,0-.34,0-.75,0-1.59.13-2.47.39l-.08.02-.07.04c-.11.07-.21.12-.3.15-1.5.56-3.15,1.42-4.41,2.3l-.02.02c-.85.65-1.55,1.32-2.03,1.95l-.03.04-.02.04s-.02.04-.03.05c-.03.05-.11.16-.22.31-.34.52-.62.93-.8,1.16l-.16.19-.16-.19c-.17-.23-.46-.64-.79-1.14-.11-.16-.19-.28-.23-.33,0-.02-.02-.03-.03-.05l-.02-.04-.03-.04c-.48-.63-1.18-1.3-2.03-1.95l-.02-.02c-1.26-.88-2.91-1.73-4.41-2.3-.09-.03-.19-.08-.3-.15l-.07-.04-.08-.02c-.89-.26-1.72-.39-2.48-.39-.04,0-.16,0-.33,0-1.75,0-10.49.51-11.04,10.65-.14,2.61.19,5.03,1,7.19v.02c1.03,2.44,2.38,4.01,2.77,4.43l.02.02c.11.1.18.17.22.2.02.02.03.03.06.05l17.94,15.64Z"></path>
  <path class="cls-3" d="M928.15,673.34c.02-.11.03-.22.03-.33,0-.04,0-.08,0-.13,0-.1-.03-.21-.05-.31,0-.04-.02-.07-.03-.11-.04-.13-.1-.26-.17-.38,0,0,0,0,0,0,0,0,0,0,0,0,0-.02-.02-.03-.03-.04-.07-.11-.15-.2-.24-.29-.03-.03-.06-.05-.09-.08-.08-.07-.17-.13-.26-.19-.03-.02-.07-.04-.1-.06-.13-.06-.26-.12-.39-.15,0,0,0,0,0,0-.14-.04-.29-.05-.43-.05-.01,0-.03,0-.04,0l-51.54.21c-.75,0-1.42.45-1.7,1.14-.27.68-.09,1.47.46,1.98l19.25,17.93,7.04,27.73c.17.66.7,1.17,1.36,1.34.07.02.15.03.22.04.77.1,1.51-.28,1.86-.95l24.72-46.76s0-.02,0-.03c.06-.13.11-.26.15-.39,0-.03,0-.06.01-.09ZM919.52,674.84l-24.83,14.42-15.3-14.25,40.13-.17ZM902.22,714.65l-5.65-22.26,25.12-14.59-19.48,36.85Z"></path>
</svg>