<?xml version="1.0" encoding="UTF-8"?>
<svg id="Camada_1" data-name="Camada 1" xmlns="http://www.w3.org/2000/svg" xmlns:xlink="http://www.w3.org/1999/xlink" viewBox="0 0 250 290">
  <defs>
    <style>
      .cls-1 {
        fill: url(#linear-gradient-132);
      }

      .cls-2 {
        fill: url(#linear-gradient-118);
      }

      .cls-3 {
        fill: url(#linear-gradient-61);
      }

      .cls-4 {
        fill: url(#linear-gradient-15);
      }

      .cls-5 {
        fill: url(#linear-gradient-13);
      }

      .cls-6 {
        fill: url(#linear-gradient-107);
      }

      .cls-7 {
        fill: url(#linear-gradient-28);
      }

      .cls-8 {
        fill: url(#linear-gradient-65);
      }

      .cls-9 {
        fill: url(#linear-gradient-69);
      }

      .cls-10 {
        fill: url(#linear-gradient-53);
      }

      .cls-11 {
        fill: url(#linear-gradient-42);
      }

      .cls-12 {
        fill: url(#linear-gradient-46);
      }

      .cls-13 {
        fill: url(#linear-gradient-70);
      }

      .cls-14 {
        fill: url(#linear-gradient-60);
      }

      .cls-15 {
        fill: url(#linear-gradient-93);
      }

      .cls-16 {
        fill: url(#linear-gradient-95);
      }

      .cls-17 {
        fill: url(#linear-gradient-2);
      }

      .cls-18 {
        fill: url(#linear-gradient-100);
      }

      .cls-19 {
        fill: url(#linear-gradient-87);
      }

      .cls-20 {
        fill: url(#linear-gradient-64);
      }

      .cls-21 {
        fill: url(#linear-gradient-56);
      }

      .cls-22 {
        fill: url(#linear-gradient-43);
      }

      .cls-23 {
        fill: url(#linear-gradient-25);
      }

      .cls-24 {
        fill: url(#linear-gradient-82);
      }

      .cls-25 {
        fill: url(#linear-gradient-10);
      }

      .cls-26 {
        fill: url(#linear-gradient-12);
      }

      .cls-27 {
        fill: url(#linear-gradient-40);
      }

      .cls-28 {
        fill: url(#linear-gradient-27);
      }

      .cls-29 {
        fill: url(#linear-gradient-68);
      }

      .cls-30 {
        fill: url(#linear-gradient-37);
      }

      .cls-31 {
        fill: url(#linear-gradient-75);
      }

      .cls-32 {
        fill: url(#linear-gradient-55);
      }

      .cls-33 {
        fill: url(#linear-gradient-116);
      }

      .cls-34 {
        fill: url(#linear-gradient-39);
      }

      .cls-35 {
        fill: url(#linear-gradient-89);
      }

      .cls-36 {
        fill: url(#linear-gradient-52);
      }

      .cls-37 {
        fill: url(#linear-gradient-113);
      }

      .cls-38 {
        fill: url(#linear-gradient-122);
      }

      .cls-39 {
        fill: url(#linear-gradient-58);
      }

      .cls-40 {
        fill: url(#linear-gradient-47);
      }

      .cls-41 {
        fill: url(#linear-gradient-26);
      }

      .cls-42 {
        fill: url(#linear-gradient-74);
      }

      .cls-43 {
        fill: #43caff;
      }

      .cls-44 {
        fill: url(#linear-gradient-97);
      }

      .cls-45 {
        fill: url(#linear-gradient-72);
      }

      .cls-46 {
        fill: url(#linear-gradient-4);
      }

      .cls-47 {
        fill: url(#linear-gradient-35);
      }

      .cls-48 {
        fill: url(#linear-gradient-30);
      }

      .cls-49 {
        fill: url(#linear-gradient-125);
      }

      .cls-50 {
        fill: url(#linear-gradient-76);
      }

      .cls-51 {
        fill: url(#linear-gradient-109);
      }

      .cls-52 {
        fill: url(#linear-gradient-73);
      }

      .cls-53 {
        fill: url(#linear-gradient-71);
      }

      .cls-54 {
        fill: url(#linear-gradient-44);
      }

      .cls-55 {
        fill: url(#linear-gradient-96);
      }

      .cls-56 {
        fill: url(#linear-gradient-49);
      }

      .cls-57 {
        fill: url(#linear-gradient-3);
      }

      .cls-58 {
        fill: url(#linear-gradient-34);
      }

      .cls-59 {
        clip-path: url(#clippath-1);
      }

      .cls-60 {
        fill: url(#linear-gradient-5);
      }

      .cls-61 {
        fill: url(#linear-gradient-38);
      }

      .cls-62 {
        fill: url(#linear-gradient-91);
      }

      .cls-63 {
        fill: url(#linear-gradient-22);
      }

      .cls-64 {
        fill: url(#linear-gradient-24);
      }

      .cls-65 {
        fill: url(#linear-gradient-133);
      }

      .cls-66 {
        fill: url(#linear-gradient-94);
      }

      .cls-67 {
        fill: url(#linear-gradient-54);
      }

      .cls-68 {
        fill: url(#linear-gradient-92);
      }

      .cls-69 {
        fill: url(#linear-gradient-90);
      }

      .cls-70 {
        fill: url(#linear-gradient-33);
      }

      .cls-71 {
        fill: url(#linear-gradient-79);
      }

      .cls-72 {
        fill: url(#linear-gradient-78);
      }

      .cls-73 {
        fill: url(#linear-gradient-51);
      }

      .cls-74 {
        fill: url(#linear-gradient-8);
      }

      .cls-75 {
        fill: #243a83;
      }

      .cls-76 {
        fill: url(#linear-gradient-66);
      }

      .cls-77 {
        fill: url(#linear-gradient-57);
      }

      .cls-78 {
        fill: url(#linear-gradient-77);
      }

      .cls-79 {
        fill: url(#linear-gradient-131);
      }

      .cls-80 {
        fill: url(#linear-gradient-129);
      }

      .cls-81 {
        fill: url(#linear-gradient-103);
      }

      .cls-82 {
        fill: url(#linear-gradient-135);
      }

      .cls-83 {
        fill: url(#linear-gradient-121);
      }

      .cls-84 {
        fill: url(#linear-gradient-110);
      }

      .cls-85 {
        fill: url(#linear-gradient-88);
      }

      .cls-86 {
        fill: url(#linear-gradient-124);
      }

      .cls-87 {
        fill: url(#linear-gradient-128);
      }

      .cls-88 {
        fill: url(#linear-gradient-14);
      }

      .cls-89 {
        fill: url(#linear-gradient-62);
      }

      .cls-90 {
        fill: url(#linear-gradient-29);
      }

      .cls-91 {
        fill: url(#linear-gradient-20);
      }

      .cls-92 {
        fill: url(#linear-gradient-106);
      }

      .cls-93 {
        fill: url(#linear-gradient-67);
      }

      .cls-94 {
        fill: url(#linear-gradient-17);
      }

      .cls-95 {
        fill: url(#linear-gradient-50);
      }

      .cls-96 {
        fill: url(#linear-gradient-7);
      }

      .cls-97 {
        fill: url(#linear-gradient-134);
      }

      .cls-98 {
        fill: url(#linear-gradient-9);
      }

      .cls-99 {
        fill: url(#linear-gradient-104);
      }

      .cls-100 {
        fill: url(#linear-gradient-59);
      }

      .cls-101 {
        fill: url(#linear-gradient-11);
      }

      .cls-102 {
        fill: url(#linear-gradient-120);
      }

      .cls-103 {
        fill: url(#linear-gradient-108);
      }

      .cls-104 {
        fill: url(#linear-gradient-19);
      }

      .cls-105 {
        fill: url(#linear-gradient-101);
      }

      .cls-106 {
        fill: url(#linear-gradient-80);
      }

      .cls-107 {
        fill: url(#linear-gradient-6);
      }

      .cls-108 {
        fill: url(#linear-gradient-83);
      }

      .cls-109 {
        fill: url(#linear-gradient-112);
      }

      .cls-110 {
        fill: url(#linear-gradient-105);
      }

      .cls-111 {
        fill: url(#linear-gradient-36);
      }

      .cls-112 {
        fill: url(#linear-gradient-21);
      }

      .cls-113 {
        fill: url(#linear-gradient-119);
      }

      .cls-114 {
        fill: url(#linear-gradient-45);
      }

      .cls-115 {
        fill: url(#linear-gradient-127);
      }

      .cls-116 {
        fill: url(#linear-gradient-85);
      }

      .cls-117 {
        fill: url(#linear-gradient-98);
      }

      .cls-118 {
        fill: url(#linear-gradient-81);
      }

      .cls-119 {
        clip-path: url(#clippath-2);
      }

      .cls-120 {
        fill: url(#linear-gradient-84);
      }

      .cls-121 {
        fill: url(#linear-gradient-114);
      }

      .cls-122 {
        fill: url(#linear-gradient-117);
      }

      .cls-123 {
        fill: url(#linear-gradient-48);
      }

      .cls-124 {
        fill: url(#linear-gradient-102);
      }

      .cls-125 {
        fill: url(#linear-gradient-32);
      }

      .cls-126 {
        fill: url(#linear-gradient-86);
      }

      .cls-127 {
        fill: url(#linear-gradient-41);
      }

      .cls-128 {
        fill: url(#linear-gradient-130);
      }

      .cls-129 {
        fill: url(#linear-gradient-16);
      }

      .cls-130 {
        fill: url(#linear-gradient-111);
      }

      .cls-131 {
        fill: url(#linear-gradient);
      }

      .cls-132 {
        fill: url(#linear-gradient-23);
      }

      .cls-133 {
        fill: url(#linear-gradient-31);
      }

      .cls-134 {
        clip-path: url(#clippath);
      }

      .cls-135 {
        fill: url(#linear-gradient-63);
      }

      .cls-136 {
        fill: url(#linear-gradient-115);
      }

      .cls-137 {
        fill: url(#linear-gradient-126);
      }

      .cls-138 {
        fill: url(#linear-gradient-99);
      }

      .cls-139 {
        fill: url(#linear-gradient-18);
      }

      .cls-140 {
        fill: url(#linear-gradient-123);
      }
    </style>
    <linearGradient id="linear-gradient" x1="19.18" y1="183.7" x2="224.73" y2="183.7" gradientUnits="userSpaceOnUse">
      <stop offset="0" stop-color="#3db6f3"/>
      <stop offset=".2" stop-color="#3db6f3"/>
      <stop offset="1" stop-color="#3a60ff"/>
    </linearGradient>
    <linearGradient id="linear-gradient-2" x1="19.18" y1="76.82" x2="224.73" y2="76.82" xlink:href="#linear-gradient"/>
    <linearGradient id="linear-gradient-3" x1="19.18" y1="121.06" x2="224.73" y2="121.06" xlink:href="#linear-gradient"/>
    <linearGradient id="linear-gradient-4" x1="19.18" y1="121.06" x2="224.73" y2="121.06" xlink:href="#linear-gradient"/>
    <linearGradient id="linear-gradient-5" x1="19.18" y1="164.07" x2="224.73" y2="164.07" xlink:href="#linear-gradient"/>
    <linearGradient id="linear-gradient-6" x1="19.18" y1="164.07" x2="224.73" y2="164.07" xlink:href="#linear-gradient"/>
    <linearGradient id="linear-gradient-7" x1="19.18" y1="118.63" x2="224.73" y2="118.63" xlink:href="#linear-gradient"/>
    <linearGradient id="linear-gradient-8" x1="19.18" y1="118.63" x2="224.73" y2="118.63" xlink:href="#linear-gradient"/>
    <linearGradient id="linear-gradient-9" x1="19.18" y1="121.06" x2="224.73" y2="121.06" xlink:href="#linear-gradient"/>
    <linearGradient id="linear-gradient-10" x1="19.18" y1="49.93" x2="224.73" y2="49.93" xlink:href="#linear-gradient"/>
    <linearGradient id="linear-gradient-11" x1="19.18" y1="49.93" x2="224.73" y2="49.93" xlink:href="#linear-gradient"/>
    <clipPath id="clippath">
      <path class="cls-101" d="M162.13,54.99c-2.79,0-5.06-2.27-5.06-5.06s2.27-5.06,5.06-5.06,5.06,2.27,5.06,5.06-2.27,5.06-5.06,5.06Z"/>
    </clipPath>
    <linearGradient id="linear-gradient-12" x1="19.18" y1="49.93" x2="224.73" y2="49.93" xlink:href="#linear-gradient"/>
    <linearGradient id="linear-gradient-13" x1="19.18" y1="49.93" x2="224.73" y2="49.93" xlink:href="#linear-gradient"/>
    <linearGradient id="linear-gradient-14" x1="19.18" y1="49.93" x2="224.73" y2="49.93" xlink:href="#linear-gradient"/>
    <linearGradient id="linear-gradient-15" x1="19.18" y1="49.93" x2="224.73" y2="49.93" xlink:href="#linear-gradient"/>
    <linearGradient id="linear-gradient-16" x1="19.18" y1="49.93" x2="224.73" y2="49.93" xlink:href="#linear-gradient"/>
    <linearGradient id="linear-gradient-17" x1="19.18" y1="49.93" x2="224.73" y2="49.93" xlink:href="#linear-gradient"/>
    <linearGradient id="linear-gradient-18" x1="19.18" y1="49.93" x2="224.73" y2="49.93" xlink:href="#linear-gradient"/>
    <linearGradient id="linear-gradient-19" x1="19.18" y1="49.93" x2="224.73" y2="49.93" xlink:href="#linear-gradient"/>
    <linearGradient id="linear-gradient-20" x1="19.18" y1="49.93" x2="224.73" y2="49.93" xlink:href="#linear-gradient"/>
    <linearGradient id="linear-gradient-21" x1="19.18" y1="49.93" x2="224.73" y2="49.93" xlink:href="#linear-gradient"/>
    <linearGradient id="linear-gradient-22" x1="19.18" y1="49.93" x2="224.73" y2="49.93" xlink:href="#linear-gradient"/>
    <linearGradient id="linear-gradient-23" x1="19.18" y1="49.93" x2="224.73" y2="49.93" xlink:href="#linear-gradient"/>
    <linearGradient id="linear-gradient-24" x1="19.18" y1="49.93" x2="224.73" y2="49.93" xlink:href="#linear-gradient"/>
    <linearGradient id="linear-gradient-25" x1="19.18" y1="49.93" x2="224.73" y2="49.93" xlink:href="#linear-gradient"/>
    <linearGradient id="linear-gradient-26" x1="19.18" y1="49.93" x2="224.73" y2="49.93" xlink:href="#linear-gradient"/>
    <linearGradient id="linear-gradient-27" x1="19.18" y1="49.93" x2="224.73" y2="49.93" xlink:href="#linear-gradient"/>
    <linearGradient id="linear-gradient-28" x1="19.18" y1="49.93" x2="224.73" y2="49.93" xlink:href="#linear-gradient"/>
    <linearGradient id="linear-gradient-29" x1="19.18" y1="49.93" x2="224.73" y2="49.93" xlink:href="#linear-gradient"/>
    <linearGradient id="linear-gradient-30" x1="19.18" y1="49.93" x2="224.73" y2="49.93" xlink:href="#linear-gradient"/>
    <linearGradient id="linear-gradient-31" x1="19.18" y1="49.93" x2="224.73" y2="49.93" xlink:href="#linear-gradient"/>
    <linearGradient id="linear-gradient-32" x1="19.18" y1="49.93" x2="224.73" y2="49.93" xlink:href="#linear-gradient"/>
    <linearGradient id="linear-gradient-33" x1="19.18" y1="49.93" x2="224.73" y2="49.93" xlink:href="#linear-gradient"/>
    <linearGradient id="linear-gradient-34" x1="19.18" y1="49.93" x2="224.73" y2="49.93" xlink:href="#linear-gradient"/>
    <linearGradient id="linear-gradient-35" x1="19.18" y1="49.93" x2="224.73" y2="49.93" xlink:href="#linear-gradient"/>
    <linearGradient id="linear-gradient-36" x1="19.18" y1="49.93" x2="224.73" y2="49.93" xlink:href="#linear-gradient"/>
    <linearGradient id="linear-gradient-37" x1="19.18" y1="49.93" x2="224.73" y2="49.93" xlink:href="#linear-gradient"/>
    <linearGradient id="linear-gradient-38" x1="19.18" y1="49.93" x2="224.73" y2="49.93" xlink:href="#linear-gradient"/>
    <linearGradient id="linear-gradient-39" x1="19.18" y1="49.93" x2="224.73" y2="49.93" xlink:href="#linear-gradient"/>
    <linearGradient id="linear-gradient-40" x1="19.18" y1="49.93" x2="224.73" y2="49.93" xlink:href="#linear-gradient"/>
    <linearGradient id="linear-gradient-41" x1="19.18" y1="49.93" x2="224.73" y2="49.93" xlink:href="#linear-gradient"/>
    <linearGradient id="linear-gradient-42" x1="19.18" y1="49.93" x2="224.73" y2="49.93" xlink:href="#linear-gradient"/>
    <linearGradient id="linear-gradient-43" x1="19.18" y1="49.93" x2="224.73" y2="49.93" xlink:href="#linear-gradient"/>
    <linearGradient id="linear-gradient-44" x1="19.18" y1="49.93" x2="224.73" y2="49.93" xlink:href="#linear-gradient"/>
    <linearGradient id="linear-gradient-45" x1="19.18" y1="49.93" x2="224.73" y2="49.93" xlink:href="#linear-gradient"/>
    <linearGradient id="linear-gradient-46" x1="19.18" y1="49.93" x2="224.73" y2="49.93" xlink:href="#linear-gradient"/>
    <linearGradient id="linear-gradient-47" x1="19.18" y1="49.93" x2="224.73" y2="49.93" xlink:href="#linear-gradient"/>
    <linearGradient id="linear-gradient-48" x1="19.18" y1="49.93" x2="224.73" y2="49.93" xlink:href="#linear-gradient"/>
    <linearGradient id="linear-gradient-49" x1="19.18" y1="49.93" x2="224.73" y2="49.93" xlink:href="#linear-gradient"/>
    <linearGradient id="linear-gradient-50" x1="19.18" y1="49.93" x2="224.73" y2="49.93" xlink:href="#linear-gradient"/>
    <linearGradient id="linear-gradient-51" x1="19.18" y1="49.93" x2="224.73" y2="49.93" xlink:href="#linear-gradient"/>
    <clipPath id="clippath-1">
      <path class="cls-73" d="M179.3,54.99c-2.79,0-5.06-2.27-5.06-5.06s2.27-5.06,5.06-5.06,5.06,2.27,5.06,5.06-2.27,5.06-5.06,5.06Z"/>
    </clipPath>
    <linearGradient id="linear-gradient-52" x1="19.18" y1="49.93" x2="224.73" y2="49.93" xlink:href="#linear-gradient"/>
    <linearGradient id="linear-gradient-53" x1="19.18" y1="49.93" x2="224.73" y2="49.93" xlink:href="#linear-gradient"/>
    <linearGradient id="linear-gradient-54" x1="19.18" y1="49.93" x2="224.73" y2="49.93" xlink:href="#linear-gradient"/>
    <linearGradient id="linear-gradient-55" x1="19.18" y1="49.93" x2="224.73" y2="49.93" xlink:href="#linear-gradient"/>
    <linearGradient id="linear-gradient-56" x1="19.18" y1="49.93" x2="224.73" y2="49.93" xlink:href="#linear-gradient"/>
    <linearGradient id="linear-gradient-57" x1="19.18" y1="49.93" x2="224.73" y2="49.93" xlink:href="#linear-gradient"/>
    <linearGradient id="linear-gradient-58" x1="19.18" y1="49.93" x2="224.73" y2="49.93" xlink:href="#linear-gradient"/>
    <linearGradient id="linear-gradient-59" x1="19.18" y1="49.93" x2="224.73" y2="49.93" xlink:href="#linear-gradient"/>
    <linearGradient id="linear-gradient-60" x1="19.18" y1="49.93" x2="224.73" y2="49.93" xlink:href="#linear-gradient"/>
    <linearGradient id="linear-gradient-61" x1="19.18" y1="49.93" x2="224.73" y2="49.93" xlink:href="#linear-gradient"/>
    <linearGradient id="linear-gradient-62" x1="19.18" y1="49.93" x2="224.73" y2="49.93" xlink:href="#linear-gradient"/>
    <linearGradient id="linear-gradient-63" x1="19.18" y1="49.93" x2="224.73" y2="49.93" xlink:href="#linear-gradient"/>
    <linearGradient id="linear-gradient-64" x1="19.18" y1="49.93" x2="224.73" y2="49.93" xlink:href="#linear-gradient"/>
    <linearGradient id="linear-gradient-65" x1="19.18" y1="49.93" x2="224.73" y2="49.93" xlink:href="#linear-gradient"/>
    <linearGradient id="linear-gradient-66" x1="19.18" y1="49.93" x2="224.73" y2="49.93" xlink:href="#linear-gradient"/>
    <linearGradient id="linear-gradient-67" x1="19.18" y1="49.93" x2="224.73" y2="49.93" xlink:href="#linear-gradient"/>
    <linearGradient id="linear-gradient-68" x1="19.18" y1="49.93" x2="224.73" y2="49.93" xlink:href="#linear-gradient"/>
    <linearGradient id="linear-gradient-69" x1="19.18" y1="49.93" x2="224.73" y2="49.93" xlink:href="#linear-gradient"/>
    <linearGradient id="linear-gradient-70" x1="19.18" y1="49.93" x2="224.73" y2="49.93" xlink:href="#linear-gradient"/>
    <linearGradient id="linear-gradient-71" x1="19.18" y1="49.93" x2="224.73" y2="49.93" xlink:href="#linear-gradient"/>
    <linearGradient id="linear-gradient-72" x1="19.18" y1="49.93" x2="224.73" y2="49.93" xlink:href="#linear-gradient"/>
    <linearGradient id="linear-gradient-73" x1="19.18" y1="49.93" x2="224.73" y2="49.93" xlink:href="#linear-gradient"/>
    <linearGradient id="linear-gradient-74" x1="19.18" y1="49.93" x2="224.73" y2="49.93" xlink:href="#linear-gradient"/>
    <linearGradient id="linear-gradient-75" x1="19.18" y1="49.93" x2="224.73" y2="49.93" xlink:href="#linear-gradient"/>
    <linearGradient id="linear-gradient-76" x1="19.18" y1="49.93" x2="224.73" y2="49.93" xlink:href="#linear-gradient"/>
    <linearGradient id="linear-gradient-77" x1="19.18" y1="49.93" x2="224.73" y2="49.93" xlink:href="#linear-gradient"/>
    <linearGradient id="linear-gradient-78" x1="19.18" y1="49.93" x2="224.73" y2="49.93" xlink:href="#linear-gradient"/>
    <linearGradient id="linear-gradient-79" x1="19.18" y1="49.93" x2="224.73" y2="49.93" xlink:href="#linear-gradient"/>
    <linearGradient id="linear-gradient-80" x1="19.18" y1="49.93" x2="224.73" y2="49.93" xlink:href="#linear-gradient"/>
    <linearGradient id="linear-gradient-81" x1="19.18" y1="49.93" x2="224.73" y2="49.93" xlink:href="#linear-gradient"/>
    <linearGradient id="linear-gradient-82" x1="19.18" y1="49.93" x2="224.73" y2="49.93" xlink:href="#linear-gradient"/>
    <linearGradient id="linear-gradient-83" x1="19.18" y1="49.93" x2="224.73" y2="49.93" xlink:href="#linear-gradient"/>
    <linearGradient id="linear-gradient-84" x1="19.18" y1="49.93" x2="224.73" y2="49.93" xlink:href="#linear-gradient"/>
    <linearGradient id="linear-gradient-85" x1="19.18" y1="49.93" x2="224.73" y2="49.93" xlink:href="#linear-gradient"/>
    <linearGradient id="linear-gradient-86" x1="19.18" y1="49.93" x2="224.73" y2="49.93" xlink:href="#linear-gradient"/>
    <linearGradient id="linear-gradient-87" x1="19.18" y1="49.93" x2="224.73" y2="49.93" xlink:href="#linear-gradient"/>
    <linearGradient id="linear-gradient-88" x1="19.18" y1="49.93" x2="224.73" y2="49.93" xlink:href="#linear-gradient"/>
    <linearGradient id="linear-gradient-89" x1="19.18" y1="49.93" x2="224.73" y2="49.93" xlink:href="#linear-gradient"/>
    <linearGradient id="linear-gradient-90" x1="19.18" y1="49.93" x2="224.73" y2="49.93" xlink:href="#linear-gradient"/>
    <linearGradient id="linear-gradient-91" x1="19.18" y1="49.93" x2="224.73" y2="49.93" xlink:href="#linear-gradient"/>
    <clipPath id="clippath-2">
      <path class="cls-62" d="M196.47,54.99c-2.79,0-5.06-2.27-5.06-5.06s2.27-5.06,5.06-5.06,5.06,2.27,5.06,5.06-2.27,5.06-5.06,5.06Z"/>
    </clipPath>
    <linearGradient id="linear-gradient-92" x1="19.18" y1="49.93" x2="224.73" y2="49.93" xlink:href="#linear-gradient"/>
    <linearGradient id="linear-gradient-93" x1="19.18" y1="49.93" x2="224.73" y2="49.93" xlink:href="#linear-gradient"/>
    <linearGradient id="linear-gradient-94" x1="19.18" y1="49.93" x2="224.73" y2="49.93" xlink:href="#linear-gradient"/>
    <linearGradient id="linear-gradient-95" x1="19.18" y1="49.93" x2="224.73" y2="49.93" xlink:href="#linear-gradient"/>
    <linearGradient id="linear-gradient-96" x1="19.18" y1="49.93" x2="224.73" y2="49.93" xlink:href="#linear-gradient"/>
    <linearGradient id="linear-gradient-97" x1="19.18" y1="49.93" x2="224.73" y2="49.93" xlink:href="#linear-gradient"/>
    <linearGradient id="linear-gradient-98" x1="19.18" y1="49.93" x2="224.73" y2="49.93" xlink:href="#linear-gradient"/>
    <linearGradient id="linear-gradient-99" x1="19.18" y1="49.93" x2="224.73" y2="49.93" xlink:href="#linear-gradient"/>
    <linearGradient id="linear-gradient-100" x1="19.18" y1="49.93" x2="224.73" y2="49.93" xlink:href="#linear-gradient"/>
    <linearGradient id="linear-gradient-101" x1="19.18" y1="49.93" x2="224.73" y2="49.93" xlink:href="#linear-gradient"/>
    <linearGradient id="linear-gradient-102" x1="19.18" y1="49.93" x2="224.73" y2="49.93" xlink:href="#linear-gradient"/>
    <linearGradient id="linear-gradient-103" x1="19.18" y1="49.93" x2="224.73" y2="49.93" xlink:href="#linear-gradient"/>
    <linearGradient id="linear-gradient-104" x1="19.18" y1="49.93" x2="224.73" y2="49.93" xlink:href="#linear-gradient"/>
    <linearGradient id="linear-gradient-105" x1="19.18" y1="49.93" x2="224.73" y2="49.93" xlink:href="#linear-gradient"/>
    <linearGradient id="linear-gradient-106" x1="19.18" y1="49.93" x2="224.73" y2="49.93" xlink:href="#linear-gradient"/>
    <linearGradient id="linear-gradient-107" x1="19.18" y1="49.93" x2="224.73" y2="49.93" xlink:href="#linear-gradient"/>
    <linearGradient id="linear-gradient-108" x1="19.18" y1="49.93" x2="224.73" y2="49.93" xlink:href="#linear-gradient"/>
    <linearGradient id="linear-gradient-109" x1="19.18" y1="49.93" x2="224.73" y2="49.93" xlink:href="#linear-gradient"/>
    <linearGradient id="linear-gradient-110" x1="19.18" y1="49.93" x2="224.73" y2="49.93" xlink:href="#linear-gradient"/>
    <linearGradient id="linear-gradient-111" x1="19.18" y1="49.93" x2="224.73" y2="49.93" xlink:href="#linear-gradient"/>
    <linearGradient id="linear-gradient-112" x1="19.18" y1="49.93" x2="224.73" y2="49.93" xlink:href="#linear-gradient"/>
    <linearGradient id="linear-gradient-113" x1="19.18" y1="49.93" x2="224.73" y2="49.93" xlink:href="#linear-gradient"/>
    <linearGradient id="linear-gradient-114" x1="19.18" y1="49.93" x2="224.73" y2="49.93" xlink:href="#linear-gradient"/>
    <linearGradient id="linear-gradient-115" x1="19.18" y1="49.93" x2="224.73" y2="49.93" xlink:href="#linear-gradient"/>
    <linearGradient id="linear-gradient-116" x1="19.18" y1="49.93" x2="224.73" y2="49.93" xlink:href="#linear-gradient"/>
    <linearGradient id="linear-gradient-117" x1="19.18" y1="49.93" x2="224.73" y2="49.93" xlink:href="#linear-gradient"/>
    <linearGradient id="linear-gradient-118" x1="19.18" y1="49.93" x2="224.73" y2="49.93" xlink:href="#linear-gradient"/>
    <linearGradient id="linear-gradient-119" x1="19.18" y1="49.93" x2="224.73" y2="49.93" xlink:href="#linear-gradient"/>
    <linearGradient id="linear-gradient-120" x1="19.18" y1="49.93" x2="224.73" y2="49.93" xlink:href="#linear-gradient"/>
    <linearGradient id="linear-gradient-121" x1="19.18" y1="49.93" x2="224.73" y2="49.93" xlink:href="#linear-gradient"/>
    <linearGradient id="linear-gradient-122" x1="19.18" y1="49.93" x2="224.73" y2="49.93" xlink:href="#linear-gradient"/>
    <linearGradient id="linear-gradient-123" x1="19.18" y1="49.93" x2="224.73" y2="49.93" xlink:href="#linear-gradient"/>
    <linearGradient id="linear-gradient-124" x1="19.18" y1="49.93" x2="224.73" y2="49.93" xlink:href="#linear-gradient"/>
    <linearGradient id="linear-gradient-125" x1="19.18" y1="49.93" x2="224.73" y2="49.93" xlink:href="#linear-gradient"/>
    <linearGradient id="linear-gradient-126" x1="19.18" y1="49.93" x2="224.73" y2="49.93" xlink:href="#linear-gradient"/>
    <linearGradient id="linear-gradient-127" x1="19.18" y1="49.93" x2="224.73" y2="49.93" xlink:href="#linear-gradient"/>
    <linearGradient id="linear-gradient-128" x1="19.18" y1="49.93" x2="224.73" y2="49.93" xlink:href="#linear-gradient"/>
    <linearGradient id="linear-gradient-129" x1="19.18" y1="49.93" x2="224.73" y2="49.93" xlink:href="#linear-gradient"/>
    <linearGradient id="linear-gradient-130" x1="19.18" y1="70.85" x2="224.73" y2="70.85" xlink:href="#linear-gradient"/>
    <linearGradient id="linear-gradient-131" x1="19.18" y1="43.16" x2="224.73" y2="43.16" xlink:href="#linear-gradient"/>
    <linearGradient id="linear-gradient-132" x1="19.18" y1="31.47" x2="224.73" y2="31.47" xlink:href="#linear-gradient"/>
    <linearGradient id="linear-gradient-133" x1="19.18" y1="80.08" x2="224.73" y2="80.08" xlink:href="#linear-gradient"/>
    <linearGradient id="linear-gradient-134" x1="19.18" x2="224.73" xlink:href="#linear-gradient"/>
    <linearGradient id="linear-gradient-135" x1="19.18" y1="51.45" x2="224.73" y2="51.45" xlink:href="#linear-gradient"/>
  </defs>
  <g>
    <g>
      <path class="cls-75" d="M128.43,250l-14.48,39.49h-9.62l-14.48-39.49h8.49l10.86,31.4,10.81-31.4h8.43Z"/>
      <path class="cls-75" d="M138.39,287.99c-2.41-1.34-4.31-3.23-5.69-5.69-1.38-2.45-2.07-5.28-2.07-8.49s.71-6.03,2.12-8.49,3.35-4.35,5.8-5.69c2.45-1.34,5.18-2.01,8.2-2.01s5.75.67,8.2,2.01c2.45,1.34,4.38,3.23,5.8,5.69,1.41,2.45,2.12,5.28,2.12,8.49s-.73,6.04-2.18,8.49c-1.45,2.45-3.41,4.35-5.88,5.69-2.47,1.34-5.23,2.01-8.29,2.01s-5.73-.67-8.15-2.01ZM150.58,282.05c1.26-.7,2.27-1.74,3.03-3.14s1.13-3.09,1.13-5.09c0-2.98-.78-5.27-2.35-6.87-1.56-1.6-3.48-2.4-5.74-2.4s-4.16.8-5.69,2.4c-1.53,1.6-2.29,3.9-2.29,6.87s.74,5.27,2.24,6.87c1.49,1.6,3.36,2.4,5.63,2.4,1.43,0,2.78-.35,4.05-1.05Z"/>
      <path class="cls-75" d="M175.39,282.98h13.97v6.51h-22.97v-6.39l13.69-18.44h-13.63v-6.51h22.74v6.39l-13.8,18.44Z"/>
    </g>
    <path class="cls-43" d="M78.43,267.37c-1.86,0-3.38-1.52-3.38-3.38v-6.45h-4.58v9.83h-9.83v4.58h6.45c1.86,0,3.38,1.52,3.38,3.38v6.45h4.58v-9.83h9.83v-4.58h-6.45Z"/>
  </g>
  <g>
    <path class="cls-131" d="M155.07,197.17c-2.9,0-5.26-2.35-5.26-5.26,0-6.15-5-11.15-11.16-11.15h-23.18c-2.9,0-5.26-2.35-5.26-5.26s2.36-5.26,5.26-5.26h23.18c11.95,0,21.68,9.72,21.68,21.67,0,2.91-2.36,5.26-5.26,5.26Z"/>
    <path class="cls-17" d="M96.02,92.99c-1.94,0-3.51-1.57-3.51-3.51v-25.33c0-1.94,1.57-3.51,3.51-3.51s3.51,1.57,3.51,3.51v25.33c0,1.94-1.57,3.51-3.51,3.51Z"/>
    <path class="cls-57" d="M45.8,138.1h-8.27c-6.91,0-12.53-5.62-12.53-12.53v-9.02c0-6.91,5.62-12.53,12.53-12.53h8.27v34.08ZM37.53,111.03c-3.04,0-5.52,2.47-5.52,5.52v9.02c0,3.04,2.48,5.52,5.52,5.52h1.25v-20.06h-1.25Z"/>
    <path class="cls-46" d="M154.5,138.1h-8.27v-34.08h8.27c6.91,0,12.53,5.62,12.53,12.53v9.02c0,6.91-5.62,12.53-12.53,12.53ZM153.25,131.09h1.25c3.04,0,5.52-2.47,5.52-5.52v-9.02c0-3.04-2.47-5.52-5.52-5.52h-1.25v20.06Z"/>
    <path class="cls-60" d="M76.57,180.76c-2.9,0-5.26-2.35-5.26-5.26v-22.86c0-2.91,2.36-5.26,5.26-5.26s5.26,2.35,5.26,5.26v22.86c0,2.91-2.36,5.26-5.26,5.26Z"/>
    <path class="cls-107" d="M115.47,180.76c-2.9,0-5.26-2.35-5.26-5.26v-22.85c0-2.91,2.36-5.26,5.26-5.26s5.26,2.35,5.26,5.26v22.85c0,2.91-2.36,5.26-5.26,5.26Z"/>
    <path class="cls-96" d="M86.2,127.77c-1.94,0-3.51-1.57-3.51-3.51,0-4.29-3.49-7.77-7.77-7.77s-7.77,3.49-7.77,7.77c0,1.94-1.57,3.51-3.51,3.51s-3.51-1.57-3.51-3.51c0-8.15,6.63-14.79,14.79-14.79s14.79,6.63,14.79,14.79c0,1.94-1.57,3.51-3.51,3.51Z"/>
    <path class="cls-74" d="M128.4,127.77c-1.94,0-3.51-1.57-3.51-3.51,0-4.29-3.49-7.77-7.77-7.77s-7.77,3.49-7.77,7.77c0,1.94-1.57,3.51-3.51,3.51s-3.51-1.57-3.51-3.51c0-8.15,6.63-14.79,14.79-14.79s14.79,6.63,14.79,14.79c0,1.94-1.57,3.51-3.51,3.51Z"/>
    <path class="cls-98" d="M127.6,157.9h-63.16c-12.85,0-23.31-10.46-23.31-23.31v-27.07c0-12.85,10.46-23.31,23.31-23.31h63.16c12.85,0,23.31,10.45,23.31,23.31v27.07c0,12.85-10.46,23.31-23.31,23.31ZM64.44,94.74c-7.05,0-12.79,5.74-12.79,12.79v27.07c0,7.05,5.74,12.79,12.79,12.79h63.16c7.05,0,12.79-5.74,12.79-12.79v-27.07c0-7.05-5.74-12.79-12.79-12.79h-63.16Z"/>
    <g>
      <g>
        <path class="cls-25" d="M162.13,54.99c-2.79,0-5.06-2.27-5.06-5.06s2.27-5.06,5.06-5.06,5.06,2.27,5.06,5.06-2.27,5.06-5.06,5.06Z"/>
        <g class="cls-134">
          <rect class="cls-26" x="157.07" y="44.86" width=".27" height="10.13"/>
          <rect class="cls-5" x="157.34" y="44.86" width=".27" height="10.13"/>
          <rect class="cls-88" x="157.6" y="44.86" width=".27" height="10.13"/>
          <rect class="cls-4" x="157.87" y="44.86" width=".27" height="10.13"/>
          <rect class="cls-129" x="158.14" y="44.86" width=".27" height="10.13"/>
          <rect class="cls-94" x="158.4" y="44.86" width=".27" height="10.13"/>
          <rect class="cls-139" x="158.67" y="44.86" width=".27" height="10.13"/>
          <rect class="cls-104" x="158.94" y="44.86" width=".27" height="10.13"/>
          <rect class="cls-91" x="159.2" y="44.86" width=".27" height="10.13"/>
          <rect class="cls-112" x="159.47" y="44.86" width=".27" height="10.13"/>
          <rect class="cls-63" x="159.73" y="44.86" width=".27" height="10.13"/>
          <rect class="cls-132" x="160" y="44.86" width=".27" height="10.13"/>
          <rect class="cls-64" x="160.27" y="44.86" width=".27" height="10.13"/>
          <rect class="cls-23" x="160.53" y="44.86" width=".27" height="10.13"/>
          <rect class="cls-41" x="160.8" y="44.86" width=".27" height="10.13"/>
          <rect class="cls-28" x="161.07" y="44.86" width=".27" height="10.13"/>
          <rect class="cls-7" x="161.33" y="44.86" width=".27" height="10.13"/>
          <rect class="cls-90" x="161.6" y="44.86" width=".27" height="10.13"/>
          <rect class="cls-48" x="161.87" y="44.86" width=".27" height="10.13"/>
          <rect class="cls-133" x="162.13" y="44.86" width=".27" height="10.13"/>
          <rect class="cls-125" x="162.4" y="44.86" width=".27" height="10.13"/>
          <rect class="cls-70" x="162.67" y="44.86" width=".27" height="10.13"/>
          <rect class="cls-58" x="162.93" y="44.86" width=".27" height="10.13"/>
          <rect class="cls-47" x="163.2" y="44.86" width=".27" height="10.13"/>
          <rect class="cls-111" x="163.47" y="44.86" width=".27" height="10.13"/>
          <rect class="cls-30" x="163.73" y="44.86" width=".27" height="10.13"/>
          <rect class="cls-61" x="164" y="44.86" width=".27" height="10.13"/>
          <rect class="cls-34" x="164.26" y="44.86" width=".27" height="10.13"/>
          <rect class="cls-27" x="164.53" y="44.86" width=".27" height="10.13"/>
          <rect class="cls-127" x="164.8" y="44.86" width=".27" height="10.13"/>
          <rect class="cls-11" x="165.06" y="44.86" width=".27" height="10.13"/>
          <rect class="cls-22" x="165.33" y="44.86" width=".27" height="10.13"/>
          <rect class="cls-54" x="165.6" y="44.86" width=".27" height="10.13"/>
          <rect class="cls-114" x="165.86" y="44.86" width=".27" height="10.13"/>
          <rect class="cls-12" x="166.13" y="44.86" width=".27" height="10.13"/>
          <rect class="cls-40" x="166.4" y="44.86" width=".27" height="10.13"/>
          <rect class="cls-123" x="166.66" y="44.86" width=".27" height="10.13"/>
          <rect class="cls-56" x="166.93" y="44.86" width=".27" height="10.13"/>
        </g>
      </g>
      <g>
        <path class="cls-95" d="M179.3,54.99c-2.79,0-5.06-2.27-5.06-5.06s2.27-5.06,5.06-5.06,5.06,2.27,5.06,5.06-2.27,5.06-5.06,5.06Z"/>
        <g class="cls-59">
          <rect class="cls-36" x="174.24" y="44.86" width=".27" height="10.13"/>
          <rect class="cls-10" x="174.5" y="44.86" width=".27" height="10.13"/>
          <rect class="cls-67" x="174.77" y="44.86" width=".27" height="10.13"/>
          <rect class="cls-32" x="175.04" y="44.86" width=".27" height="10.13"/>
          <rect class="cls-21" x="175.3" y="44.86" width=".27" height="10.13"/>
          <rect class="cls-77" x="175.57" y="44.86" width=".27" height="10.13"/>
          <rect class="cls-39" x="175.84" y="44.86" width=".27" height="10.13"/>
          <rect class="cls-100" x="176.1" y="44.86" width=".27" height="10.13"/>
          <rect class="cls-14" x="176.37" y="44.86" width=".27" height="10.13"/>
          <rect class="cls-3" x="176.63" y="44.86" width=".27" height="10.13"/>
          <rect class="cls-89" x="176.9" y="44.86" width=".27" height="10.13"/>
          <rect class="cls-135" x="177.17" y="44.86" width=".27" height="10.13"/>
          <rect class="cls-20" x="177.43" y="44.86" width=".27" height="10.13"/>
          <rect class="cls-8" x="177.7" y="44.86" width=".27" height="10.13"/>
          <rect class="cls-76" x="177.97" y="44.86" width=".27" height="10.13"/>
          <rect class="cls-93" x="178.23" y="44.86" width=".27" height="10.13"/>
          <rect class="cls-29" x="178.5" y="44.86" width=".27" height="10.13"/>
          <rect class="cls-9" x="178.77" y="44.86" width=".27" height="10.13"/>
          <rect class="cls-13" x="179.03" y="44.86" width=".27" height="10.13"/>
          <rect class="cls-53" x="179.3" y="44.86" width=".27" height="10.13"/>
          <rect class="cls-45" x="179.57" y="44.86" width=".27" height="10.13"/>
          <rect class="cls-52" x="179.83" y="44.86" width=".27" height="10.13"/>
          <rect class="cls-42" x="180.1" y="44.86" width=".27" height="10.13"/>
          <rect class="cls-31" x="180.37" y="44.86" width=".27" height="10.13"/>
          <rect class="cls-50" x="180.63" y="44.86" width=".27" height="10.13"/>
          <rect class="cls-78" x="180.9" y="44.86" width=".27" height="10.13"/>
          <rect class="cls-72" x="181.16" y="44.86" width=".27" height="10.13"/>
          <rect class="cls-71" x="181.43" y="44.86" width=".27" height="10.13"/>
          <rect class="cls-106" x="181.7" y="44.86" width=".27" height="10.13"/>
          <rect class="cls-118" x="181.96" y="44.86" width=".27" height="10.13"/>
          <rect class="cls-24" x="182.23" y="44.86" width=".27" height="10.13"/>
          <rect class="cls-108" x="182.5" y="44.86" width=".27" height="10.13"/>
          <rect class="cls-120" x="182.76" y="44.86" width=".27" height="10.13"/>
          <rect class="cls-116" x="183.03" y="44.86" width=".27" height="10.13"/>
          <rect class="cls-126" x="183.3" y="44.86" width=".27" height="10.13"/>
          <rect class="cls-19" x="183.56" y="44.86" width=".27" height="10.13"/>
          <rect class="cls-85" x="183.83" y="44.86" width=".27" height="10.13"/>
          <rect class="cls-35" x="184.1" y="44.86" width=".27" height="10.13"/>
        </g>
      </g>
      <g>
        <path class="cls-69" d="M196.47,54.99c-2.79,0-5.06-2.27-5.06-5.06s2.27-5.06,5.06-5.06,5.06,2.27,5.06,5.06-2.27,5.06-5.06,5.06Z"/>
        <g class="cls-119">
          <rect class="cls-68" x="191.4" y="44.86" width=".27" height="10.13"/>
          <rect class="cls-15" x="191.67" y="44.86" width=".27" height="10.13"/>
          <rect class="cls-66" x="191.94" y="44.86" width=".27" height="10.13"/>
          <rect class="cls-16" x="192.2" y="44.86" width=".27" height="10.13"/>
          <rect class="cls-55" x="192.47" y="44.86" width=".27" height="10.13"/>
          <rect class="cls-44" x="192.73" y="44.86" width=".27" height="10.13"/>
          <rect class="cls-117" x="193" y="44.86" width=".27" height="10.13"/>
          <rect class="cls-138" x="193.27" y="44.86" width=".27" height="10.13"/>
          <rect class="cls-18" x="193.53" y="44.86" width=".27" height="10.13"/>
          <rect class="cls-105" x="193.8" y="44.86" width=".27" height="10.13"/>
          <rect class="cls-124" x="194.07" y="44.86" width=".27" height="10.13"/>
          <rect class="cls-81" x="194.33" y="44.86" width=".27" height="10.13"/>
          <rect class="cls-99" x="194.6" y="44.86" width=".27" height="10.13"/>
          <rect class="cls-110" x="194.87" y="44.86" width=".27" height="10.13"/>
          <rect class="cls-92" x="195.13" y="44.86" width=".27" height="10.13"/>
          <rect class="cls-6" x="195.4" y="44.86" width=".27" height="10.13"/>
          <rect class="cls-103" x="195.67" y="44.86" width=".27" height="10.13"/>
          <rect class="cls-51" x="195.93" y="44.86" width=".27" height="10.13"/>
          <rect class="cls-84" x="196.2" y="44.86" width=".27" height="10.13"/>
          <rect class="cls-130" x="196.47" y="44.86" width=".27" height="10.13"/>
          <rect class="cls-109" x="196.73" y="44.86" width=".27" height="10.13"/>
          <rect class="cls-37" x="197" y="44.86" width=".27" height="10.13"/>
          <rect class="cls-121" x="197.27" y="44.86" width=".27" height="10.13"/>
          <rect class="cls-136" x="197.53" y="44.86" width=".27" height="10.13"/>
          <rect class="cls-33" x="197.8" y="44.86" width=".27" height="10.13"/>
          <rect class="cls-122" x="198.06" y="44.86" width=".27" height="10.13"/>
          <rect class="cls-2" x="198.33" y="44.86" width=".27" height="10.13"/>
          <rect class="cls-113" x="198.6" y="44.86" width=".27" height="10.13"/>
          <rect class="cls-102" x="198.86" y="44.86" width=".27" height="10.13"/>
          <rect class="cls-83" x="199.13" y="44.86" width=".27" height="10.13"/>
          <rect class="cls-38" x="199.4" y="44.86" width=".27" height="10.13"/>
          <rect class="cls-140" x="199.66" y="44.86" width=".27" height="10.13"/>
          <rect class="cls-86" x="199.93" y="44.86" width=".27" height="10.13"/>
          <rect class="cls-49" x="200.2" y="44.86" width=".27" height="10.13"/>
          <rect class="cls-137" x="200.46" y="44.86" width=".27" height="10.13"/>
          <rect class="cls-115" x="200.73" y="44.86" width=".27" height="10.13"/>
          <rect class="cls-87" x="201" y="44.86" width=".27" height="10.13"/>
          <rect class="cls-80" x="201.26" y="44.86" width=".27" height="10.13"/>
        </g>
      </g>
    </g>
    <path class="cls-128" d="M144.77,95.27c-1.19,0-2.33-.43-3.23-1.22-.99-.87-1.58-2.07-1.67-3.38-.05-.72.07-1.47.34-2.14.43-1,.8-1.97,1.14-2.94.03-.11.06-.21.09-.32,1.11-3.17,1.91-6.47,2.38-9.83-6.43-6.87-10.14-16.06-10.22-25.5-.02-1.94,1.54-3.52,3.47-3.54,1.95-.05,3.52,1.54,3.54,3.47.07,8.17,3.48,16.11,9.34,21.8.78.75,1.16,1.82,1.04,2.9-.48,4.36-1.44,8.64-2.85,12.74-.02.09-.05.18-.07.26.01,0,.02,0,.04,0,5.98-1.07,11.81-2.93,17.31-5.53,1.75-.82,3.84-.08,4.67,1.67.83,1.75.08,3.84-1.67,4.67-6.09,2.88-12.54,4.94-19.17,6.11-.01,0-.02,0-.03,0-1.24.24-2.48.47-3.73.7-.13.02-.26.04-.39.05-.11,0-.21,0-.32,0Z"/>
    <path class="cls-79" d="M211.95,76.82c-.86,0-1.72-.31-2.4-.95-1.41-1.32-1.49-3.54-.16-4.96,5.62-6,8.6-13.26,8.6-20.99,0-18.42-17.36-33.41-38.69-33.41-1.94,0-3.51-1.57-3.51-3.51s1.57-3.51,3.51-3.51c25.2,0,45.7,18.14,45.7,40.43,0,9.41-3.73,18.56-10.49,25.79-.69.74-1.62,1.11-2.56,1.11Z"/>
    <path class="cls-1" d="M137.11,53.43c-1.94,0-3.51-1.57-3.51-3.51,0-22.29,20.5-40.43,45.7-40.43,1.94,0,3.51,1.57,3.51,3.51s-1.57,3.51-3.51,3.51c-21.33,0-38.69,14.99-38.69,33.41,0,1.94-1.57,3.51-3.51,3.51Z"/>
    <path class="cls-65" d="M179.3,90.36c-4.49,0-8.96-.58-13.28-1.74-1.87-.5-2.98-2.42-2.48-4.29.5-1.87,2.42-2.98,4.29-2.49,3.73,1,7.59,1.5,11.47,1.5,11.73,0,22.7-4.53,30.09-12.42,1.32-1.41,3.54-1.49,4.96-.16,1.41,1.32,1.49,3.54.16,4.96-8.72,9.3-21.55,14.64-35.21,14.64Z"/>
    <path class="cls-97" d="M36.97,197.17c-2.9,0-5.26-2.35-5.26-5.26,0-11.95,9.72-21.67,21.67-21.67h62.09c2.9,0,5.26,2.35,5.26,5.26s-2.36,5.26-5.26,5.26h-62.09c-6.15,0-11.15,5-11.15,11.15,0,2.91-2.36,5.26-5.26,5.26Z"/>
    <path class="cls-82" d="M96.02,67.11c-8.63,0-15.66-7.03-15.66-15.66s7.02-15.66,15.66-15.66,15.66,7.03,15.66,15.66-7.02,15.66-15.66,15.66ZM96.02,42.81c-4.77,0-8.65,3.88-8.65,8.65s3.88,8.65,8.65,8.65,8.65-3.88,8.65-8.65-3.88-8.65-8.65-8.65Z"/>
  </g>
</svg>