<?xml version="1.0" encoding="UTF-8"?>
<svg id="Camada_1" data-name="Camada 1" xmlns="http://www.w3.org/2000/svg" xmlns:xlink="http://www.w3.org/1999/xlink" viewBox="0 0 220 290">
  <defs>
    <style>
      .cls-1 {
        fill: url(#linear-gradient-2);
      }

      .cls-2 {
        fill: #43caff;
      }

      .cls-3 {
        fill: url(#linear-gradient-4);
      }

      .cls-4 {
        fill: url(#linear-gradient-3);
      }

      .cls-5 {
        fill: #243a83;
      }

      .cls-6 {
        fill: url(#linear-gradient);
      }
    </style>
    <linearGradient id="linear-gradient" x1="32.86" y1="100" x2="204.67" y2="100" gradientUnits="userSpaceOnUse">
      <stop offset="0" stop-color="#3db6f3"/>
      <stop offset=".2" stop-color="#3db6f3"/>
      <stop offset="1" stop-color="#3a60ff"/>
    </linearGradient>
    <linearGradient id="linear-gradient-2" x1="32.86" y1="125.25" x2="204.67" y2="125.25" xlink:href="#linear-gradient"/>
    <linearGradient id="linear-gradient-3" x1="32.86" y1="32.67" x2="204.67" y2="32.67" xlink:href="#linear-gradient"/>
    <linearGradient id="linear-gradient-4" x1="32.86" y1="100" x2="204.67" y2="100" xlink:href="#linear-gradient"/>
  </defs>
  <g>
    <g>
      <path class="cls-5" d="M70.17,273.55c1.35,1.71,2.03,3.67,2.03,5.88,0,1.99-.49,3.75-1.47,5.26-.98,1.51-2.4,2.7-4.25,3.55-1.85.85-4.04,1.28-6.57,1.28h-16.07v-37.28h15.38c2.53,0,4.71.41,6.54,1.23,1.84.82,3.22,1.96,4.17,3.42.94,1.46,1.42,3.12,1.42,4.97,0,2.17-.58,3.99-1.74,5.45-1.16,1.46-2.7,2.49-4.62,3.1,2.1.39,3.83,1.44,5.18,3.15ZM51.32,267.62h6.83c1.78,0,3.15-.4,4.11-1.2.96-.8,1.44-1.95,1.44-3.44s-.48-2.65-1.44-3.47c-.96-.82-2.33-1.23-4.11-1.23h-6.83v9.35ZM63.09,282.15c1.02-.85,1.52-2.06,1.52-3.63s-.53-2.86-1.6-3.77c-1.07-.91-2.51-1.36-4.33-1.36h-7.37v10.04h7.53c1.81,0,3.23-.43,4.24-1.28Z"/>
      <path class="cls-5" d="M83.09,288.1c-2.28-1.26-4.07-3.05-5.37-5.37-1.3-2.31-1.95-4.98-1.95-8.01s.67-5.7,2-8.01,3.16-4.1,5.47-5.37c2.32-1.26,4.9-1.9,7.74-1.9s5.43.63,7.74,1.9c2.31,1.26,4.14,3.05,5.47,5.37s2,4.98,2,8.01-.68,5.7-2.06,8.01c-1.37,2.32-3.22,4.1-5.55,5.37-2.33,1.26-4.94,1.9-7.82,1.9s-5.41-.63-7.69-1.9ZM94.6,282.5c1.19-.66,2.14-1.65,2.86-2.96s1.07-2.92,1.07-4.81c0-2.81-.74-4.97-2.22-6.49-1.48-1.51-3.28-2.27-5.42-2.27s-3.93.76-5.37,2.27c-1.44,1.51-2.16,3.68-2.16,6.49s.7,4.98,2.11,6.49c1.4,1.51,3.18,2.27,5.31,2.27,1.35,0,2.62-.33,3.82-.99Z"/>
      <path class="cls-5" d="M118.66,250v39.52h-7.48v-39.52h7.48Z"/>
      <path class="cls-5" d="M152.79,276.97h-21.63c.18,2.14.92,3.81,2.24,5.02,1.32,1.21,2.94,1.82,4.86,1.82,2.78,0,4.75-1.19,5.93-3.58h8.06c-.85,2.85-2.49,5.19-4.91,7.02-2.42,1.83-5.39,2.75-8.92,2.75-2.85,0-5.4-.63-7.66-1.9-2.26-1.26-4.02-3.05-5.29-5.37-1.26-2.31-1.9-4.98-1.9-8.01s.62-5.75,1.87-8.06c1.25-2.31,2.99-4.09,5.23-5.34,2.24-1.25,4.82-1.87,7.74-1.87s5.33.61,7.56,1.81c2.22,1.21,3.95,2.93,5.18,5.15,1.23,2.23,1.84,4.78,1.84,7.66,0,1.07-.07,2.03-.21,2.88ZM145.26,271.95c-.04-1.92-.73-3.46-2.08-4.62s-3.01-1.74-4.97-1.74c-1.85,0-3.41.56-4.67,1.68-1.27,1.12-2.04,2.68-2.32,4.67h14.05Z"/>
      <path class="cls-5" d="M166.62,266.08v14.31c0,1,.24,1.72.72,2.16.48.45,1.29.67,2.43.67h3.47v6.3h-4.7c-6.3,0-9.45-3.06-9.45-9.19v-14.26h-3.52v-6.14h3.52v-7.32h7.53v7.32h6.62v6.14h-6.62Z"/>
      <path class="cls-5" d="M183.55,288.1c-2.28-1.26-4.07-3.05-5.37-5.37-1.3-2.31-1.95-4.98-1.95-8.01s.67-5.7,2-8.01,3.16-4.1,5.47-5.37c2.32-1.26,4.9-1.9,7.74-1.9s5.43.63,7.74,1.9c2.31,1.26,4.14,3.05,5.47,5.37s2,4.98,2,8.01-.68,5.7-2.06,8.01c-1.37,2.32-3.22,4.1-5.55,5.37-2.33,1.26-4.94,1.9-7.82,1.9s-5.41-.63-7.69-1.9ZM195.05,282.5c1.19-.66,2.14-1.65,2.86-2.96s1.07-2.92,1.07-4.81c0-2.81-.74-4.97-2.22-6.49-1.48-1.51-3.28-2.27-5.42-2.27s-3.93.76-5.37,2.27c-1.44,1.51-2.16,3.68-2.16,6.49s.7,4.98,2.11,6.49c1.4,1.51,3.18,2.27,5.31,2.27,1.35,0,2.62-.33,3.82-.99Z"/>
    </g>
    <path class="cls-2" d="M30.13,268.64c-1.76,0-3.19-1.43-3.19-3.19v-6.09h-4.33v9.28h-9.28v4.33h6.09c1.76,0,3.19,1.43,3.19,3.19v6.09h4.33v-9.28h9.28v-4.33h-6.09Z"/>
  </g>
  <g>
    <path class="cls-6" d="M117.19,94.23h-14.38c-5.56,0-10.08-4.52-10.08-10.08s4.52-10.08,10.08-10.08h25.39c3.14,0,5.7-2.56,5.7-5.7s-2.56-5.7-5.7-5.7h-12.5v-9.38c0-3.14-2.56-5.7-5.7-5.7s-5.7,2.56-5.7,5.7v9.38h-1.49c-11.84,0-21.47,9.63-21.47,21.47s9.63,21.47,21.47,21.47h14.38c5.56,0,10.08,4.52,10.08,10.08s-4.52,10.08-10.08,10.08h-25.86c-3.14,0-5.7,2.56-5.7,5.7s2.56,5.69,5.7,5.69h12.98v9.53c0,3.14,2.56,5.7,5.7,5.7s5.7-2.56,5.7-5.7v-9.53h1.77c11.69-.16,21.2-9.79,21.2-21.47s-9.63-21.47-21.47-21.47Z"/>
    <path class="cls-1" d="M185.74,200h-75.74c-4.1,0-7.43-3.32-7.43-7.43s3.32-7.43,7.43-7.43h68.31V57.92c0-4.1,3.32-7.43,7.43-7.43s7.43,3.32,7.43,7.43v134.65c0,4.1-3.32,7.43-7.43,7.43Z"/>
    <path class="cls-4" d="M188.58,64.78c.25-.1.47-.24.7-.37.2-.11.4-.19.58-.32.4-.27.77-.57,1.11-.91,0,0,.02-.01.02-.02,0,0,0,0,0-.01.34-.34.65-.72.92-1.12.12-.18.2-.38.31-.57.13-.24.27-.46.37-.71.1-.24.16-.49.23-.74.06-.22.15-.42.19-.65.09-.47.14-.95.14-1.42,0-.01,0-.02,0-.03s0-.02,0-.03c0-.48-.05-.95-.14-1.42-.04-.22-.13-.43-.19-.64-.07-.25-.13-.5-.23-.74-.1-.25-.25-.48-.37-.71-.1-.19-.19-.38-.31-.57-.27-.41-.58-.79-.93-1.13h0S140.5,2.17,140.5,2.17c0,0,0,0,0,0h0s0,0,0,0c-.34-.34-.72-.65-1.13-.92-.19-.12-.39-.21-.58-.31-.23-.13-.46-.27-.7-.37-.25-.1-.5-.16-.76-.24-.21-.06-.41-.14-.63-.19-.48-.1-.97-.15-1.46-.15H34.26c-4.1,0-7.43,3.32-7.43,7.43s3.33,7.43,7.43,7.43h93.56v43.07c0,4.1,3.33,7.43,7.43,7.43h50.49c.49,0,.97-.05,1.46-.15.22-.04.42-.12.63-.19.26-.07.51-.13.76-.24ZM142.67,25.36l25.14,25.14h-25.14v-25.14Z"/>
    <path class="cls-3" d="M110,200H34.26c-4.1,0-7.43-3.32-7.43-7.43V7.43C26.83,3.32,30.16,0,34.26,0s7.43,3.32,7.43,7.43v177.72h68.31c4.1,0,7.43,3.32,7.43,7.43s-3.32,7.43-7.43,7.43Z"/>
  </g>
</svg>