<?xml version="1.0" encoding="UTF-8"?>
<svg id="Camada_1" data-name="Camada 1" xmlns="http://www.w3.org/2000/svg" xmlns:xlink="http://www.w3.org/1999/xlink" viewBox="0 0 200 290">
  <defs>
    <style>
      .cls-1 {
        fill: url(#linear-gradient-2);
      }

      .cls-2 {
        fill: #43caff;
      }

      .cls-3 {
        fill: url(#linear-gradient-4);
      }

      .cls-4 {
        fill: url(#linear-gradient-3);
      }

      .cls-5 {
        fill: #243a83;
      }

      .cls-6 {
        fill: url(#linear-gradient);
      }
    </style>
    <linearGradient id="linear-gradient" x1="19.35" y1="90.44" x2="189.35" y2="90.44" gradientUnits="userSpaceOnUse">
      <stop offset="0" stop-color="#3db6f3"/>
      <stop offset=".2" stop-color="#3db6f3"/>
      <stop offset="1" stop-color="#3a60ff"/>
    </linearGradient>
    <linearGradient id="linear-gradient-2" x1="19.35" y1="177.65" x2="189.35" y2="177.65" xlink:href="#linear-gradient"/>
    <linearGradient id="linear-gradient-3" x1="19.35" y1="131.54" x2="189.35" y2="131.54" xlink:href="#linear-gradient"/>
    <linearGradient id="linear-gradient-4" x1="19.35" y1="57.13" x2="189.35" y2="57.13" xlink:href="#linear-gradient"/>
  </defs>
  <g>
    <g>
      <path class="cls-5" d="M68.48,250.06v24.48c0,2.68.7,4.73,2.1,6.15,1.4,1.42,3.36,2.12,5.89,2.12s4.55-.71,5.95-2.12c1.4-1.42,2.1-3.46,2.1-6.15v-24.48h7.99v24.42c0,3.36-.73,6.2-2.18,8.53-1.45,2.32-3.4,4.07-5.84,5.24-2.44,1.17-5.15,1.76-8.13,1.76s-5.62-.59-8.02-1.76c-2.4-1.17-4.3-2.92-5.69-5.24-1.4-2.32-2.1-5.16-2.1-8.53v-24.42h7.93Z"/>
      <path class="cls-5" d="M120.55,289.6l-8.73-15.41h-3.74v15.41h-7.93v-39.55h14.84c3.06,0,5.67.54,7.82,1.61,2.15,1.08,3.77,2.53,4.84,4.36,1.08,1.83,1.61,3.88,1.61,6.15,0,2.61-.76,4.96-2.27,7.05-1.51,2.1-3.76,3.54-6.74,4.33l9.46,16.03h-9.18ZM108.08,268.24h6.63c2.15,0,3.76-.52,4.82-1.56,1.06-1.04,1.59-2.48,1.59-4.33s-.53-3.22-1.59-4.22c-1.06-1-2.66-1.5-4.82-1.5h-6.63v11.61Z"/>
      <path class="cls-5" d="M160.72,282.07h-15.75l-2.61,7.54h-8.33l14.22-39.6h9.24l14.22,39.6h-8.39l-2.61-7.54ZM158.56,275.72l-5.72-16.54-5.72,16.54h11.44Z"/>
    </g>
    <path class="cls-2" d="M46.11,267.46c-1.87,0-3.39-1.52-3.39-3.39v-6.46h-4.59v9.85h-9.85v4.59h6.46c1.87,0,3.39,1.52,3.39,3.39v6.46h4.59v-9.85h9.85v-4.59h-6.46Z"/>
  </g>
  <g>
    <path class="cls-6" d="M129.44,48.07c-4.24,0-7.67-3.41-7.73-7.63v62.82c0,11.97-9.74,21.71-21.71,21.71s-21.71-9.74-21.71-21.71h0c0,4.27-3.46,7.74-7.73,7.74s-7.73-3.46-7.74-7.73c0,20.5,16.68,37.18,37.18,37.18s37.18-16.68,37.18-37.18v-62.82h0c-.06,4.22-3.49,7.63-7.73,7.63Z"/>
    <path class="cls-1" d="M129.56,187.71h-21.79v-27.89c0-4.29-3.48-7.77-7.77-7.77s-7.77,3.48-7.77,7.77v27.89h-21.79c-4.29,0-7.77,3.48-7.77,7.77s3.48,7.77,7.77,7.77h59.13c4.29,0,7.77-3.48,7.77-7.77s-3.48-7.77-7.77-7.77Z"/>
    <path class="cls-4" d="M100,167.59c-35.47,0-64.33-28.86-64.33-64.33,0-4.29,3.48-7.77,7.77-7.77s7.77,3.48,7.77,7.77c0,26.9,21.88,48.79,48.78,48.79s48.78-21.89,48.78-48.79c0-4.29,3.48-7.77,7.77-7.77s7.77,3.48,7.77,7.77c0,35.47-28.86,64.33-64.33,64.33Z"/>
    <path class="cls-3" d="M137.18,40.37s0-.02,0-.03h0c-.06-20.45-16.71-37.08-37.18-37.08s-37.18,16.68-37.18,37.18v62.82c0,4.27,3.46,7.74,7.74,7.74s7.74-3.46,7.74-7.74v-62.82c0-11.97,9.74-21.71,21.71-21.71s21.71,9.74,21.71,21.71h0c.06,4.22,3.49,7.63,7.73,7.63s7.67-3.41,7.73-7.63h0s0-.05,0-.07Z"/>
  </g>
</svg>