<?xml version="1.0" encoding="UTF-8"?>
<svg id="Camada_1" data-name="Camada 1" xmlns="http://www.w3.org/2000/svg" xmlns:xlink="http://www.w3.org/1999/xlink" viewBox="0 0 250 290">
  <defs>
    <style>
      .cls-1 {
        fill: url(#linear-gradient-2);
      }

      .cls-2 {
        fill: #43caff;
      }

      .cls-3 {
        fill: url(#linear-gradient-4);
      }

      .cls-4 {
        fill: url(#linear-gradient-3);
      }

      .cls-5 {
        fill: url(#linear-gradient-5);
      }

      .cls-6 {
        fill: #243a83;
      }

      .cls-7 {
        fill: url(#linear-gradient);
      }
    </style>
    <linearGradient id="linear-gradient" x1="69.13" y1="105.6" x2="164.96" y2="105.6" gradientUnits="userSpaceOnUse">
      <stop offset="0" stop-color="#3db6f3"/>
      <stop offset=".2" stop-color="#3db6f3"/>
      <stop offset="1" stop-color="#3a60ff"/>
    </linearGradient>
    <linearGradient id="linear-gradient-2" x1="25" y1="100.11" x2="225" y2="100.11" xlink:href="#linear-gradient"/>
    <linearGradient id="linear-gradient-3" x1="185.04" y1="27.48" x2="193.33" y2="27.48" xlink:href="#linear-gradient"/>
    <linearGradient id="linear-gradient-4" x1="198.73" y1="27.48" x2="207.02" y2="27.48" xlink:href="#linear-gradient"/>
    <linearGradient id="linear-gradient-5" x1="171.34" y1="27.48" x2="179.64" y2="27.48" xlink:href="#linear-gradient"/>
  </defs>
  <g>
    <g>
      <path class="cls-6" d="M128.43,250l-14.48,39.49h-9.62l-14.48-39.49h8.49l10.86,31.4,10.81-31.4h8.43Z"/>
      <path class="cls-6" d="M138.39,287.99c-2.41-1.34-4.31-3.23-5.69-5.69-1.38-2.45-2.07-5.28-2.07-8.49s.71-6.03,2.12-8.49,3.35-4.35,5.8-5.69c2.45-1.34,5.18-2.01,8.2-2.01s5.75.67,8.2,2.01c2.45,1.34,4.38,3.23,5.8,5.69,1.41,2.45,2.12,5.28,2.12,8.49s-.73,6.04-2.18,8.49c-1.45,2.45-3.41,4.35-5.88,5.69-2.47,1.34-5.23,2.01-8.29,2.01s-5.73-.67-8.15-2.01ZM150.58,282.05c1.26-.7,2.27-1.74,3.03-3.14s1.13-3.09,1.13-5.09c0-2.98-.78-5.27-2.35-6.87-1.56-1.6-3.48-2.4-5.74-2.4s-4.16.8-5.69,2.4c-1.53,1.6-2.29,3.9-2.29,6.87s.74,5.27,2.24,6.87c1.49,1.6,3.36,2.4,5.63,2.4,1.43,0,2.78-.35,4.05-1.05Z"/>
      <path class="cls-6" d="M175.39,282.98h13.97v6.51h-22.97v-6.39l13.69-18.44h-13.63v-6.51h22.74v6.39l-13.8,18.44Z"/>
    </g>
    <path class="cls-2" d="M78.43,267.37c-1.86,0-3.38-1.52-3.38-3.38v-6.45h-4.58v9.83h-9.83v4.58h6.45c1.86,0,3.38,1.52,3.38,3.38v6.45h4.58v-9.83h9.83v-4.58h-6.45Z"/>
  </g>
  <g>
    <path class="cls-7" d="M164.96,115.54v-42.8c0-2.29-1.86-4.15-4.15-4.15h-10.08l-9.92-16.83c-1.13-1.92-3.13-3.06-5.36-3.06h0c-2.22,0-4.23,1.14-5.36,3.06l-9.92,16.83h-46.9c-2.29,0-4.15,1.86-4.15,4.15v42.8c0,12.56,5,24.36,14.07,33.23,9.05,8.85,21.07,13.72,33.85,13.72,26.42,0,47.91-21.06,47.91-46.95ZM77.43,115.54v-38.65h45.11c1.45,0,2.85-.79,3.59-2.04l9.34-15.84,9.33,15.84c.73,1.25,2.13,2.04,3.57,2.04h8.3v38.65c0,21.31-17.77,38.65-39.62,38.65-10.6,0-20.56-4.03-28.05-11.36-7.46-7.3-11.57-16.99-11.57-27.3Z"/>
    <path class="cls-1" d="M211.03-.11h-43.71c-7.7,0-13.97,6.21-13.97,13.84v5.45c-11.02-6.11-23.42-9.35-36.31-9.35-40.7,0-74.05,32.71-76.17,73.74h-1.37c-8,0-14.51,6.51-14.51,14.51v30.77c0,8,6.51,14.51,14.51,14.51h10.81c8,0,14.51-6.51,14.51-14.51v-30.77c0-8-6.51-14.51-14.51-14.51h-1.13c2.1-36.45,31.73-65.44,67.86-65.44,13.05,0,25.54,3.74,36.31,10.73v12.39c0,6.2,4.14,11.46,9.82,13.21v5.78c0,3.4,4.47,8.24,9.27,4.49l6.77-5.28c3.28,7.55,5.22,15.7,5.7,24.13h-1.13c-8,0-14.51,6.51-14.51,14.51v30.77c0,6.41,4.18,11.86,9.95,13.78-7.85,17.26-23.01,30.66-41.63,36.44-2.46-4.07-6.93-6.79-12.01-6.79h-17.04c-7.74,0-14.03,6.3-14.03,14.03s6.3,14.03,14.03,14.03h17.04c7.46,0,13.58-5.86,14.01-13.21,22.05-6.69,39.86-22.93,48.35-43.77h6.65c8,0,14.51-6.51,14.51-14.51v-30.77c0-8-6.51-14.51-14.51-14.51h-1.36c-.51-9.98-2.86-19.61-6.87-28.49h24.69c7.7,0,13.97-6.21,13.97-13.84V13.73c0-7.63-6.27-13.84-13.97-13.84h0ZM56.54,98.08v30.77c0,3.43-2.79,6.22-6.22,6.22h-10.81c-3.43,0-6.22-2.79-6.22-6.22v-30.77c0-3.43,2.79-6.22,6.22-6.22h10.81c3.43,0,6.22,2.79,6.22,6.22ZM131.31,186.3c0,3.17-2.58,5.74-5.74,5.74h-17.04c-3.17,0-5.74-2.58-5.74-5.74s2.58-5.74,5.74-5.74h17.04c3.17,0,5.74,2.58,5.74,5.74ZM200.8,98.08v30.77c0,3.43-2.79,6.22-6.22,6.22h-10.81c-3.43,0-6.22-2.79-6.22-6.22v-30.77c0-3.43,2.79-6.22,6.22-6.22h10.81c3.43,0,6.22,2.79,6.22,6.22ZM216.71,41.23c0,3.06-2.54,5.54-5.67,5.54h-27.66c-.92,0-1.82.31-2.55.88l-9.35,7.3v-4.03c0-2.29-1.86-4.15-4.15-4.15-3.13,0-5.67-2.49-5.67-5.54V13.73c0-3.06,2.54-5.54,5.67-5.54h43.71c3.13,0,5.67,2.49,5.67,5.54v27.51Z"/>
    <path class="cls-4" d="M189.18,23.33h0c-2.29,0-4.14,1.86-4.14,4.15s1.86,4.15,4.15,4.15,4.15-1.86,4.15-4.15-1.86-4.15-4.15-4.15Z"/>
    <path class="cls-3" d="M202.88,23.33h0c-2.29,0-4.14,1.86-4.14,4.15s1.86,4.15,4.15,4.15,4.15-1.86,4.15-4.15-1.86-4.15-4.15-4.15Z"/>
    <path class="cls-5" d="M175.49,31.63c2.29,0,4.15-1.86,4.15-4.15s-1.86-4.15-4.15-4.15h0c-2.29,0-4.14,1.86-4.14,4.15s1.86,4.15,4.15,4.15Z"/>
  </g>
</svg>