<?xml version="1.0" encoding="UTF-8"?>
<svg id="Camada_1" data-name="Camada 1" xmlns="http://www.w3.org/2000/svg" xmlns:xlink="http://www.w3.org/1999/xlink" viewBox="0 0 1080 200">
  <defs>
    <style>
      .cls-1 {
        fill: url(#linear-gradient-2);
      }

      .cls-2 {
        fill: url(#linear-gradient-4);
      }

      .cls-3 {
        fill: url(#linear-gradient-3);
      }

      .cls-4 {
        fill: url(#linear-gradient-5);
      }

      .cls-5 {
        fill: url(#linear-gradient-6);
      }

      .cls-6 {
        fill: url(#linear-gradient);
      }
    </style>
    <linearGradient id="linear-gradient" x1="191.63" y1="100.35" x2="388.56" y2="100.35" gradientUnits="userSpaceOnUse">
      <stop offset="0" stop-color="#3db6f3"/>
      <stop offset=".2" stop-color="#3db6f3"/>
      <stop offset="1" stop-color="#3a60ff"/>
    </linearGradient>
    <linearGradient id="linear-gradient-2" x1="386.68" y1="180.67" x2="423.11" y2="180.67" xlink:href="#linear-gradient"/>
    <linearGradient id="linear-gradient-3" x1="439.66" y1="98.58" x2="612.06" y2="98.58" xlink:href="#linear-gradient"/>
    <linearGradient id="linear-gradient-4" x1="627.97" y1="180.67" x2="664.4" y2="180.67" xlink:href="#linear-gradient"/>
    <linearGradient id="linear-gradient-5" x1="662.16" x2="851.87" xlink:href="#linear-gradient"/>
    <linearGradient id="linear-gradient-6" x1="851.94" y1="180.67" x2="888.37" y2="180.67" xlink:href="#linear-gradient"/>
  </defs>
  <path class="cls-6" d="M239.42,187.76c-14.79-8.16-26.45-19.73-34.98-34.75-8.54-15.01-12.81-32.56-12.81-52.66s4.33-37.64,12.99-52.66c8.66-15.01,20.43-26.6,35.35-34.75,14.91-8.16,31.61-12.23,50.13-12.23s35.28,4.08,50.31,12.23c15.02,8.16,26.81,19.74,35.35,34.75,8.53,15.02,12.8,32.57,12.8,52.66s-4.33,37.35-12.98,52.48c-8.66,15.13-20.56,26.77-35.71,34.93-15.15,8.16-31.98,12.24-50.49,12.24s-35.16-4.08-49.95-12.24ZM325.44,169.68c11.06-5.79,20.02-14.54,26.87-26.24,6.85-11.7,10.28-26.06,10.28-43.08s-3.37-31.38-10.1-43.09c-6.73-11.7-15.63-20.44-26.69-26.24-11.06-5.79-23.08-8.69-36.07-8.69s-25.01,2.9-36.07,8.69c-11.06,5.8-19.9,14.54-26.51,26.24-6.62,11.7-9.92,26.06-9.92,43.09s3.3,31.38,9.92,43.08c6.61,11.7,15.38,20.45,26.33,26.24,10.94,5.8,22.9,8.69,35.89,8.69s25.01-2.89,36.07-8.69Z"/>
  <path class="cls-1" d="M391.91,193.62c-3.49-3.55-5.23-7.92-5.23-13.12s1.74-9.51,5.23-12.95,7.87-5.14,13.16-5.14,9.32,1.72,12.81,5.14c3.48,3.43,5.23,7.75,5.23,12.95s-1.75,9.57-5.23,13.12c-3.49,3.55-7.76,5.32-12.81,5.32s-9.68-1.77-13.16-5.32Z"/>
  <path class="cls-3" d="M589.7,21.45c14.91,14.31,22.36,35.05,22.36,62.23v113.48h-24.89v-110.64c0-21.04-5.35-37.11-16.05-48.23-10.7-11.11-25.31-16.67-43.82-16.67s-34.15,5.91-45.44,17.73c-11.3,11.82-16.95,29.2-16.95,52.13v105.67h-25.25V3.55h25.25v32.98c6.25-11.82,15.27-20.86,27.05-27.13,11.78-6.26,25.12-9.4,40.03-9.4,23.56,0,42.8,7.15,57.71,21.45Z"/>
  <path class="cls-2" d="M633.2,193.62c-3.49-3.55-5.23-7.92-5.23-13.12s1.74-9.51,5.23-12.95c3.48-3.42,7.87-5.14,13.16-5.14s9.32,1.72,12.81,5.14c3.48,3.43,5.23,7.75,5.23,12.95s-1.75,9.57-5.23,13.12c-3.49,3.55-7.76,5.32-12.81,5.32s-9.68-1.77-13.16-5.32Z"/>
  <path class="cls-4" d="M851.15,109.93h-163.38c.72,14.66,4.33,27.19,10.82,37.59,6.49,10.41,15.02,18.26,25.61,23.58,10.58,5.32,22.12,7.98,34.62,7.98,16.35,0,30.12-3.9,41.3-11.7,11.18-7.8,18.58-18.32,22.18-31.56h26.69c-4.81,18.92-15.09,34.34-30.84,46.28-15.75,11.94-35.53,17.91-59.33,17.91-18.52,0-35.11-4.08-49.77-12.24-14.67-8.16-26.15-19.73-34.44-34.75-8.3-15.01-12.44-32.56-12.44-52.66s4.09-37.71,12.26-52.84c8.17-15.13,19.59-26.71,34.26-34.75,14.66-8.03,31.38-12.06,50.13-12.06s35.17,4.02,49.23,12.06c14.06,8.04,24.89,18.86,32.46,32.45,7.57,13.6,11.36,28.67,11.36,45.21,0,8.51-.24,15.02-.72,19.5ZM817.43,52.84c-6.13-10.16-14.49-17.85-25.06-23.05-10.58-5.2-22.13-7.8-34.63-7.8-18.76,0-34.75,5.91-47.97,17.73-13.23,11.82-20.56,28.49-22,50h138.5c.24-14.42-2.71-26.71-8.84-36.88Z"/>
  <path class="cls-5" d="M857.17,193.62c-3.49-3.55-5.23-7.92-5.23-13.12s1.74-9.51,5.23-12.95c3.48-3.42,7.87-5.14,13.16-5.14s9.32,1.72,12.81,5.14c3.48,3.43,5.23,7.75,5.23,12.95s-1.75,9.57-5.23,13.12c-3.49,3.55-7.76,5.32-12.81,5.32s-9.68-1.77-13.16-5.32Z"/>
</svg>