<?xml version="1.0" encoding="UTF-8"?>
<svg id="Camada_1" data-name="Camada 1" xmlns="http://www.w3.org/2000/svg" viewBox="0 0 1080 200">
  <defs>
    <style>
      .cls-1 {
        fill: #243a83;
      }

      .cls-2 {
        fill: #3db6f3;
      }
    </style>
  </defs>
  <g>
    <path class="cls-2" d="M106.09,102.15c-22.24,0-40.32-18.09-40.32-40.32s18.09-40.32,40.32-40.32,40.32,18.09,40.32,40.32-18.09,40.32-40.32,40.32M106.09,3.95c-15.67,0-29.89,6.26-40.32,16.4V3.95h-17.82l.27,56.22h.02c-.01.55-.02,1.1-.02,1.65l-.27,133.72h17.82v-92.26c10.43,10.15,24.66,16.42,40.33,16.42,31.91,0,57.88-25.96,57.88-57.88S138,3.95,106.09,3.95"/>
    <path class="cls-2" d="M245.63,101.97c-1.25.12-2.51.18-3.79.18s-2.54-.06-3.79-.18c-9.15-.86-17.42-4.78-23.77-10.74-7.85-7.36-12.77-17.82-12.77-29.41,0-22.24,18.09-40.32,40.33-40.32s40.32,18.09,40.32,40.32c0,11.59-4.91,22.05-12.76,29.41-6.35,5.95-14.62,9.88-23.77,10.74M299.72,3.95h-57.88c-31.91,0-57.88,25.96-57.88,57.88,0,15.58,6.18,29.73,16.23,40.15,4.11,4.26,8.86,7.89,14.09,10.74,8.2,4.46,17.59,6.99,27.56,6.99s19.36-2.53,27.56-6.99c7.85,7.36,12.76,17.82,12.76,29.41,0,22.24-18.09,40.33-40.32,40.33s-40.33-18.09-40.33-40.33h-17.55c0,31.91,25.96,57.88,57.88,57.88s57.88-25.96,57.88-57.88c0-15.58-6.18-29.73-16.23-40.15,10.04-10.41,16.23-24.57,16.23-40.15s-6.27-29.62-16.42-40.05h16.42V3.95Z"/>
    <g>
      <path class="cls-2" d="M391.89,56.45c-4.59,0-8.32-3.73-8.32-8.32v-15.89h-11.28v24.21h-24.21v11.28h15.89c4.59,0,8.32,3.73,8.32,8.32v15.89h11.28v-24.21h24.21v-11.28h-15.89Z"/>
      <path class="cls-2" d="M377.51,9.53c-28.88,0-52.38,23.5-52.38,52.38s23.5,52.38,52.38,52.38,52.38-23.5,52.38-52.38-23.5-52.38-52.38-52.38M377.51,119.7c-31.87,0-57.79-25.92-57.79-57.79s25.92-57.79,57.79-57.79,57.79,25.92,57.79,57.79-25.92,57.79-57.79,57.79"/>
    </g>
  </g>
  <g>
    <path class="cls-1" d="M460.43,39.61c3.42-6.39,8.17-11.34,14.26-14.86s13.06-5.28,20.9-5.28c10.16,0,18.53,2.47,25.13,7.39,6.59,4.93,10.94,11.77,13.05,20.52h-14.79c-1.41-5.03-4.15-9-8.22-11.92-4.08-2.92-9.13-4.38-15.17-4.38-7.84,0-14.18,2.69-19.01,8.07-4.83,5.38-7.24,13-7.24,22.86s2.41,17.66,7.24,23.09,11.17,8.15,19.01,8.15c6.04,0,11.06-1.41,15.09-4.23,4.02-2.81,6.79-6.84,8.3-12.07h14.79c-2.22,8.45-6.64,15.22-13.28,20.3-6.64,5.08-14.94,7.62-24.9,7.62-7.84,0-14.82-1.76-20.9-5.28s-10.84-8.5-14.26-14.94c-3.42-6.44-5.12-13.98-5.12-22.64s1.71-16.02,5.12-22.41Z"/>
    <path class="cls-1" d="M567.04,99.6c-6.29-3.52-11.22-8.53-14.79-15.02-3.58-6.49-5.36-14.01-5.36-22.56s1.84-15.92,5.51-22.41c3.67-6.49,8.67-11.47,15.01-14.94,6.34-3.47,13.43-5.21,21.28-5.21s14.94,1.73,21.28,5.21c6.34,3.47,11.35,8.43,15.02,14.86s5.51,13.93,5.51,22.49-1.89,16.07-5.66,22.56c-3.77,6.49-8.88,11.49-15.32,15.02-6.44,3.52-13.59,5.28-21.43,5.28s-14.77-1.76-21.05-5.28ZM601.98,89.34c4.32-2.32,7.82-5.78,10.49-10.41s4-10.26,4-16.9-1.31-12.27-3.92-16.9c-2.62-4.63-6.04-8.07-10.26-10.34-4.22-2.26-8.8-3.4-13.73-3.4s-9.64,1.13-13.81,3.4c-4.18,2.26-7.52,5.71-10.03,10.34-2.52,4.63-3.77,10.26-3.77,16.9s1.23,12.42,3.7,17.05,5.76,8.07,9.89,10.34c4.13,2.26,8.65,3.4,13.58,3.4s9.56-1.15,13.89-3.47Z"/>
    <path class="cls-1" d="M713.35,28.45c6.23,6.09,9.36,14.86,9.36,26.33v48.74h-13.58v-46.78c0-8.25-2.06-14.56-6.19-18.94-4.13-4.38-9.75-6.56-16.9-6.56s-13.01,2.26-17.28,6.79c-4.28,4.53-6.41,11.12-6.41,19.77v45.72h-13.74V20.82h13.74v11.77c2.71-4.23,6.41-7.49,11.09-9.81,4.68-2.31,9.83-3.47,15.47-3.47,10.06,0,18.21,3.04,24.45,9.13Z"/>
    <path class="cls-1" d="M761.94,32.14v48.74c0,4.02.85,6.87,2.56,8.52,1.71,1.66,4.68,2.49,8.9,2.49h10.11v11.62h-12.37c-7.65,0-13.39-1.76-17.21-5.28-3.82-3.52-5.74-9.3-5.74-17.35v-48.74h-10.71v-11.32h10.71V0h13.74v20.82h21.57v11.32h-21.57Z"/>
    <path class="cls-1" d="M800.12,39.61c3.42-6.39,8.12-11.34,14.11-14.86s12.65-5.28,20-5.28,13.53,1.56,18.86,4.68c5.33,3.12,9.31,7.04,11.93,11.77v-15.09h13.88v82.7h-13.88v-15.39c-2.72,4.83-6.77,8.83-12.15,12s-11.64,4.75-18.78,4.75-13.99-1.81-19.92-5.43c-5.93-3.62-10.62-8.7-14.03-15.24-3.42-6.54-5.13-13.98-5.13-22.33s1.71-15.87,5.13-22.26ZM861.24,45.72c-2.52-4.63-5.91-8.17-10.19-10.64-4.27-2.46-8.98-3.7-14.1-3.7s-9.82,1.21-14.03,3.62c-4.23,2.41-7.6,5.94-10.11,10.57-2.52,4.63-3.77,10.06-3.77,16.3s1.26,11.85,3.77,16.52c2.51,4.68,5.88,8.25,10.11,10.72,4.22,2.47,8.9,3.7,14.03,3.7s9.83-1.23,14.1-3.7c4.28-2.47,7.67-6.04,10.19-10.72,2.51-4.68,3.77-10.13,3.77-16.37s-1.26-11.67-3.77-16.3Z"/>
    <path class="cls-1" d="M902.13,39.61c3.42-6.39,8.17-11.34,14.26-14.86,6.09-3.52,13.06-5.28,20.9-5.28,10.16,0,18.53,2.47,25.13,7.39,6.59,4.93,10.94,11.77,13.05,20.52h-14.79c-1.41-5.03-4.15-9-8.22-11.92-4.08-2.92-9.13-4.38-15.17-4.38-7.84,0-14.18,2.69-19.01,8.07s-7.24,13-7.24,22.86,2.41,17.66,7.24,23.09,11.17,8.15,19.01,8.15c6.04,0,11.06-1.41,15.09-4.23,4.02-2.81,6.79-6.84,8.3-12.07h14.79c-2.22,8.45-6.64,15.22-13.28,20.3-6.64,5.08-14.94,7.62-24.9,7.62-7.84,0-14.82-1.76-20.9-5.28-6.09-3.52-10.84-8.5-14.26-14.94-3.42-6.44-5.12-13.98-5.12-22.64s1.71-16.02,5.12-22.41Z"/>
    <path class="cls-1" d="M1010.48,32.14v48.74c0,4.02.86,6.87,2.57,8.52,1.71,1.66,4.68,2.49,8.9,2.49h10.11v11.62h-12.38c-7.64,0-13.38-1.76-17.2-5.28-3.83-3.52-5.73-9.3-5.73-17.35v-48.74h-10.72v-11.32h10.72V0h13.73v20.82h21.58v11.32h-21.58Z"/>
  </g>
</svg>