<?xml version="1.0" encoding="UTF-8"?>
<svg id="Camada_1" data-name="Camada 1" xmlns="http://www.w3.org/2000/svg" viewBox="0 0 1080 200">
  <defs>
    <style>
      .cls-1 {
        fill: #243a83;
      }

      .cls-2 {
        fill: #3db6f3;
      }
    </style>
  </defs>
  <g>
    <path class="cls-2" d="M266.28,107.59c-21,0-38.08-17.08-38.08-38.08s17.08-38.08,38.08-38.08,38.08,17.08,38.08,38.08-17.08,38.08-38.08,38.08M266.28,14.84c-14.79,0-28.23,5.91-38.08,15.49v-15.49h-16.83l.25,53.1h.02c-.01.52-.02,1.04-.02,1.56l-.25,126.29h16.83v-87.13c9.85,9.58,23.29,15.5,38.08,15.5,30.14,0,54.66-24.52,54.66-54.66s-24.52-54.66-54.66-54.66"/>
    <path class="cls-2" d="M399.19,107.42c-1.18.11-2.37.17-3.58.17s-2.4-.06-3.58-.17c-8.64-.81-16.45-4.52-22.45-10.14-7.42-6.95-12.06-16.83-12.06-27.78,0-21,17.08-38.08,38.08-38.08s38.08,17.08,38.08,38.08c0,10.94-4.64,20.82-12.06,27.78-6,5.62-13.81,9.33-22.45,10.14M450.27,14.84h-54.66c-30.14,0-54.66,24.52-54.66,54.66,0,14.71,5.84,28.08,15.32,37.92,3.88,4.02,8.36,7.45,13.31,10.14,7.74,4.21,16.61,6.6,26.03,6.6s18.28-2.39,26.03-6.6c7.42,6.95,12.06,16.83,12.06,27.78,0,21-17.08,38.08-38.08,38.08s-38.08-17.08-38.08-38.08h-16.58c0,30.14,24.52,54.66,54.66,54.66s54.66-24.52,54.66-54.66c0-14.71-5.84-28.08-15.32-37.92,9.48-9.84,15.32-23.21,15.32-37.92s-5.92-27.98-15.5-37.83h15.5V14.84Z"/>
    <g>
      <path class="cls-2" d="M538.43,64.43c-4.33,0-7.86-3.53-7.86-7.86v-15h-10.66v22.86h-22.86v10.66h15c4.33,0,7.86,3.53,7.86,7.86v15h10.66v-22.86h22.86v-10.66h-15Z"/>
      <path class="cls-2" d="M524.85,20.12c-27.28,0-49.47,22.19-49.47,49.47s22.19,49.47,49.47,49.47,49.47-22.19,49.47-49.47-22.19-49.47-49.47-49.47M524.85,124.17c-30.09,0-54.58-24.48-54.58-54.58s24.48-54.58,54.58-54.58,54.58,24.48,54.58,54.58-24.48,54.58-54.58,54.58"/>
    </g>
  </g>
  <g>
    <path class="cls-1" d="M638.9,41.47h-16.39v67.41h-12.97V41.47h-10.12v-10.69h10.12v-5.56c0-8.74,2.25-15.13,6.77-19.17,4.51-4.04,11.76-6.06,21.73-6.06v10.83c-5.7,0-9.72,1.12-12.04,3.35s-3.49,5.91-3.49,11.04v5.56h16.39v10.69Z"/>
    <path class="cls-1" d="M654.44,15.53c-1.71-1.71-2.57-3.8-2.57-6.27s.86-4.56,2.57-6.27c1.71-1.71,3.8-2.57,6.27-2.57s4.39.86,6.05,2.57,2.49,3.8,2.49,6.27-.84,4.56-2.49,6.27-3.68,2.56-6.05,2.56-4.56-.85-6.27-2.56ZM666.97,30.78v78.1h-12.97V30.78h12.97Z"/>
    <path class="cls-1" d="M702.04,3.42v105.47h-12.97V3.42h12.97Z"/>
    <path class="cls-1" d="M794.95,74.68h-62.42c.48,7.7,3.11,13.71,7.91,18.03,4.8,4.33,10.62,6.49,17.46,6.49,5.6,0,10.28-1.3,14.04-3.92,3.76-2.61,6.39-6.11,7.91-10.48h13.97c-2.09,7.51-6.27,13.61-12.54,18.31-6.27,4.71-14.06,7.06-23.37,7.06-7.41,0-14.04-1.66-19.88-4.99-5.85-3.33-10.43-8.05-13.76-14.18-3.32-6.13-4.98-13.23-4.98-21.31s1.61-15.15,4.84-21.24c3.23-6.08,7.77-10.76,13.61-14.04,5.85-3.28,12.57-4.92,20.17-4.92s13.97,1.62,19.67,4.84c5.7,3.23,10.1,7.67,13.18,13.33s4.63,12.04,4.63,19.17c0,2.47-.14,5.08-.43,7.84ZM778.71,51.38c-2.19-3.56-5.15-6.27-8.91-8.12-3.75-1.85-7.91-2.78-12.47-2.78-6.56,0-12.14,2.09-16.75,6.27-4.61,4.18-7.24,9.98-7.91,17.39h49.31c0-4.94-1.1-9.19-3.28-12.76Z"/>
    <path class="cls-1" d="M824.03,107.1c-4.75-2.04-8.51-4.89-11.26-8.55-2.76-3.66-4.28-7.86-4.56-12.61h13.39c.38,3.9,2.21,7.08,5.49,9.55,3.28,2.47,7.57,3.7,12.9,3.7,4.94,0,8.84-1.09,11.69-3.28,2.85-2.18,4.28-4.94,4.28-8.27s-1.53-5.96-4.56-7.63c-3.05-1.66-7.75-3.3-14.11-4.92-5.8-1.52-10.52-3.06-14.18-4.63-3.66-1.57-6.79-3.9-9.41-6.98-2.62-3.09-3.92-7.15-3.92-12.19,0-3.99,1.19-7.65,3.57-10.97,2.38-3.32,5.75-5.96,10.12-7.91,4.37-1.95,9.36-2.92,14.97-2.92,8.65,0,15.63,2.19,20.95,6.55,5.32,4.37,8.17,10.36,8.55,17.96h-12.98c-.28-4.08-1.92-7.36-4.91-9.84-2.99-2.47-7.01-3.7-12.04-3.7-4.66,0-8.36,1-11.11,2.99-2.76,2-4.13,4.61-4.13,7.84,0,2.56.82,4.68,2.49,6.34,1.66,1.66,3.75,3,6.27,3.99,2.52,1,6.01,2.12,10.48,3.35,5.6,1.52,10.17,3.02,13.68,4.49,3.51,1.47,6.53,3.68,9.05,6.63,2.52,2.95,3.82,6.79,3.92,11.54,0,4.27-1.19,8.12-3.56,11.54-2.38,3.42-5.72,6.11-10.05,8.05-4.33,1.95-9.29,2.92-14.89,2.92-5.98,0-11.36-1.02-16.11-3.06Z"/>
  </g>
</svg>