<?xml version="1.0" encoding="UTF-8"?>
<svg id="Camada_1" data-name="Camada 1" xmlns="http://www.w3.org/2000/svg" viewBox="0 0 1080 200">
  <defs>
    <style>
      .cls-1 {
        fill: #243a83;
      }

      .cls-2 {
        fill: #3db6f3;
      }
    </style>
  </defs>
  <g>
    <path class="cls-2" d="M130.23,102.15c-22.24,0-40.32-18.09-40.32-40.32s18.09-40.32,40.32-40.32,40.32,18.09,40.32,40.32-18.09,40.32-40.32,40.32M130.23,3.95c-15.67,0-29.89,6.26-40.32,16.4V3.95h-17.82l.27,56.22h.02c-.01.55-.02,1.1-.02,1.65l-.27,133.72h17.82v-92.26c10.43,10.15,24.66,16.42,40.33,16.42,31.91,0,57.88-25.96,57.88-57.88S162.15,3.95,130.23,3.95"/>
    <path class="cls-2" d="M269.78,101.97c-1.25.12-2.51.18-3.79.18s-2.54-.06-3.79-.18c-9.15-.86-17.42-4.78-23.77-10.74-7.85-7.36-12.77-17.82-12.77-29.41,0-22.24,18.09-40.32,40.33-40.32s40.32,18.09,40.32,40.32c0,11.59-4.91,22.05-12.76,29.41-6.35,5.95-14.62,9.88-23.77,10.74M323.87,3.95h-57.88c-31.91,0-57.88,25.96-57.88,57.88,0,15.58,6.18,29.73,16.23,40.15,4.11,4.26,8.86,7.89,14.09,10.74,8.2,4.46,17.59,6.99,27.56,6.99s19.36-2.53,27.56-6.99c7.85,7.36,12.76,17.82,12.76,29.41,0,22.24-18.09,40.33-40.32,40.33s-40.33-18.09-40.33-40.33h-17.55c0,31.91,25.96,57.88,57.88,57.88s57.88-25.96,57.88-57.88c0-15.58-6.18-29.73-16.23-40.15,10.04-10.41,16.23-24.57,16.23-40.15s-6.27-29.62-16.42-40.05h16.42V3.95Z"/>
    <g>
      <path class="cls-2" d="M416.04,56.45c-4.59,0-8.32-3.73-8.32-8.32v-15.89h-11.28v24.21h-24.21v11.28h15.89c4.59,0,8.32,3.73,8.32,8.32v15.89h11.28v-24.21h24.21v-11.28h-15.89Z"/>
      <path class="cls-2" d="M401.66,9.53c-28.88,0-52.38,23.5-52.38,52.38s23.5,52.38,52.38,52.38,52.38-23.5,52.38-52.38-23.5-52.38-52.38-52.38M401.66,119.7c-31.87,0-57.79-25.92-57.79-57.79s25.92-57.79,57.79-57.79,57.79,25.92,57.79,57.79-25.92,57.79-57.79,57.79"/>
    </g>
  </g>
  <g>
    <path class="cls-1" d="M496.2,101.64c-5.03-2.16-9-5.18-11.92-9.05-2.92-3.87-4.53-8.32-4.83-13.36h14.19c.4,4.13,2.34,7.5,5.81,10.11,3.47,2.62,8.02,3.92,13.66,3.92,5.23,0,9.36-1.16,12.37-3.47,3.02-2.31,4.53-5.23,4.53-8.75s-1.61-6.31-4.83-8.07c-3.22-1.76-8.2-3.49-14.94-5.21-6.14-1.61-11.14-3.24-15.01-4.9-3.87-1.66-7.19-4.12-9.96-7.39-2.77-3.27-4.15-7.57-4.15-12.9,0-4.23,1.26-8.1,3.77-11.62,2.51-3.52,6.09-6.31,10.71-8.38,4.63-2.06,9.91-3.09,15.84-3.09,9.15,0,16.55,2.32,22.18,6.94,5.63,4.63,8.65,10.97,9.05,19.01h-13.73c-.3-4.32-2.04-7.8-5.21-10.41-3.17-2.61-7.42-3.92-12.75-3.92-4.93,0-8.85,1.06-11.77,3.17-2.92,2.11-4.38,4.88-4.38,8.3,0,2.72.88,4.96,2.64,6.72,1.76,1.76,3.97,3.17,6.64,4.23,2.66,1.06,6.36,2.24,11.09,3.55,5.94,1.61,10.76,3.19,14.49,4.75,3.72,1.56,6.92,3.9,9.58,7.02,2.66,3.12,4.05,7.19,4.15,12.22,0,4.53-1.26,8.6-3.77,12.22-2.52,3.62-6.06,6.47-10.64,8.53-4.58,2.06-9.84,3.09-15.77,3.09-6.34,0-12.02-1.08-17.05-3.24Z"/>
    <path class="cls-1" d="M633.97,20.82l-49.8,121.63h-14.19l16.3-39.84-33.35-81.79h15.24l25.96,67,25.65-67h14.19Z"/>
    <path class="cls-1" d="M659.93,101.64c-5.03-2.16-9-5.18-11.92-9.05-2.92-3.87-4.53-8.32-4.83-13.36h14.19c.4,4.13,2.34,7.5,5.81,10.11,3.47,2.62,8.02,3.92,13.66,3.92,5.23,0,9.36-1.16,12.37-3.47,3.02-2.31,4.53-5.23,4.53-8.75s-1.61-6.31-4.83-8.07c-3.22-1.76-8.2-3.49-14.94-5.21-6.14-1.61-11.14-3.24-15.01-4.9-3.87-1.66-7.19-4.12-9.96-7.39-2.77-3.27-4.15-7.57-4.15-12.9,0-4.23,1.26-8.1,3.77-11.62,2.51-3.52,6.09-6.31,10.71-8.38,4.63-2.06,9.91-3.09,15.84-3.09,9.15,0,16.55,2.32,22.18,6.94,5.63,4.63,8.65,10.97,9.05,19.01h-13.73c-.3-4.32-2.04-7.8-5.21-10.41-3.17-2.61-7.42-3.92-12.75-3.92-4.93,0-8.85,1.06-11.77,3.17-2.92,2.11-4.38,4.88-4.38,8.3,0,2.72.88,4.96,2.64,6.72,1.76,1.76,3.97,3.17,6.64,4.23,2.66,1.06,6.36,2.24,11.09,3.55,5.94,1.61,10.76,3.19,14.49,4.75,3.72,1.56,6.92,3.9,9.58,7.02,2.66,3.12,4.05,7.19,4.15,12.22,0,4.53-1.26,8.6-3.77,12.22-2.52,3.62-6.06,6.47-10.64,8.53-4.58,2.06-9.84,3.09-15.77,3.09-6.34,0-12.02-1.08-17.05-3.24Z"/>
    <path class="cls-1" d="M743.23,32.14v48.74c0,4.03.85,6.87,2.57,8.53,1.71,1.66,4.68,2.49,8.9,2.49h10.11v11.62h-12.37c-7.65,0-13.38-1.76-17.2-5.28-3.82-3.52-5.73-9.3-5.73-17.35v-48.74h-10.71v-11.32h10.71V0h13.73v20.82h21.58v11.32h-21.58Z"/>
    <path class="cls-1" d="M856.41,67.3h-66.1c.5,8.15,3.29,14.51,8.38,19.09,5.08,4.58,11.24,6.87,18.49,6.87,5.94,0,10.89-1.38,14.86-4.15,3.97-2.77,6.77-6.46,8.38-11.09h14.79c-2.21,7.95-6.64,14.41-13.28,19.39-6.64,4.98-14.89,7.47-24.75,7.47-7.85,0-14.86-1.76-21.05-5.28-6.19-3.52-11.04-8.53-14.56-15.02-3.52-6.49-5.28-14.01-5.28-22.56s1.71-16.05,5.13-22.48c3.42-6.44,8.23-11.39,14.41-14.86,6.19-3.47,13.3-5.21,21.35-5.21s14.79,1.71,20.82,5.13c6.04,3.42,10.69,8.13,13.96,14.11,3.27,5.99,4.9,12.75,4.9,20.3,0,2.62-.15,5.38-.45,8.3ZM839.2,42.63c-2.32-3.77-5.46-6.64-9.43-8.6-3.98-1.96-8.38-2.94-13.2-2.94-6.94,0-12.85,2.21-17.73,6.64-4.88,4.43-7.67,10.56-8.38,18.41h52.21c0-5.23-1.16-9.73-3.47-13.51Z"/>
    <path class="cls-1" d="M991.62,23.31c5.03,2.67,9,6.67,11.92,12,2.92,5.33,4.38,11.82,4.38,19.47v48.74h-13.58v-46.78c0-8.25-2.04-14.56-6.11-18.94-4.07-4.38-9.58-6.56-16.52-6.56s-12.83,2.29-17.05,6.87c-4.23,4.58-6.34,11.19-6.34,19.84v45.57h-13.58v-46.78c0-8.25-2.04-14.56-6.11-18.94-4.07-4.38-9.58-6.56-16.52-6.56s-12.83,2.29-17.05,6.87c-4.23,4.58-6.34,11.19-6.34,19.84v45.57h-13.73V20.82h13.73v11.92c2.72-4.32,6.36-7.64,10.94-9.96,4.58-2.31,9.63-3.47,15.17-3.47,6.94,0,13.08,1.56,18.41,4.68,5.33,3.12,9.3,7.7,11.92,13.73,2.31-5.83,6.13-10.36,11.47-13.58,5.33-3.22,11.27-4.83,17.81-4.83s12.17,1.33,17.2,4Z"/>
  </g>
</svg>