<?xml version="1.0" encoding="UTF-8"?>
<svg id="Camada_1" data-name="Camada 1" xmlns="http://www.w3.org/2000/svg" xmlns:xlink="http://www.w3.org/1999/xlink" viewBox="0 0 280 290">
  <defs>
    <style>
      .cls-1 {
        fill: #43caff;
      }

      .cls-2 {
        fill: #243a83;
      }

      .cls-3 {
        fill: url(#linear-gradient);
      }
    </style>
    <linearGradient id="linear-gradient" x1="40.02" y1="100" x2="239.98" y2="100" gradientUnits="userSpaceOnUse">
      <stop offset="0" stop-color="#3db6f3"/>
      <stop offset=".2" stop-color="#3db6f3"/>
      <stop offset="1" stop-color="#3a60ff"/>
    </linearGradient>
  </defs>
  <g>
    <g>
      <path class="cls-2" d="M29.33,275.47h8.7v4.2h-14v-26.41h5.3v22.21Z"/>
      <path class="cls-2" d="M40.93,263.47c.84-1.64,1.99-2.9,3.44-3.78,1.45-.88,3.07-1.33,4.86-1.33,1.56,0,2.93.32,4.11.95s2.11,1.43,2.82,2.38v-2.99h5.34v20.97h-5.34v-3.07c-.68.99-1.62,1.8-2.82,2.44s-2.58.97-4.14.97c-1.77,0-3.38-.45-4.82-1.36-1.45-.91-2.6-2.19-3.44-3.84-.85-1.65-1.27-3.55-1.27-5.7s.42-4,1.27-5.64ZM55.41,265.88c-.51-.92-1.19-1.63-2.04-2.12-.86-.49-1.78-.74-2.76-.74s-1.89.24-2.73.72c-.83.48-1.51,1.18-2.02,2.1-.52.92-.78,2.01-.78,3.27s.26,2.37.78,3.31c.52.95,1.2,1.67,2.04,2.18s1.75.76,2.71.76,1.91-.25,2.76-.74c.86-.49,1.54-1.2,2.04-2.12s.76-2.02.76-3.31-.25-2.39-.76-3.31Z"/>
      <path class="cls-2" d="M83.98,260.77c1.54,1.58,2.31,3.78,2.31,6.6v12.3h-5.3v-11.58c0-1.66-.42-2.94-1.25-3.84-.83-.89-1.97-1.34-3.41-1.34s-2.62.45-3.46,1.34c-.85.9-1.27,2.18-1.27,3.84v11.58h-5.3v-20.97h5.3v2.61c.71-.91,1.61-1.62,2.71-2.14,1.1-.52,2.3-.78,3.61-.78,2.5,0,4.52.79,6.06,2.36Z"/>
      <path class="cls-2" d="M90.85,263.47c.85-1.64,2-2.9,3.46-3.78s3.09-1.33,4.88-1.33c1.36,0,2.66.3,3.9.89,1.24.59,2.22,1.38,2.95,2.37v-9.95h5.37v28h-5.37v-3.1c-.66,1.04-1.58,1.87-2.76,2.5s-2.56.95-4.12.95c-1.77,0-3.38-.45-4.85-1.36-1.46-.91-2.62-2.19-3.46-3.84-.84-1.65-1.27-3.55-1.27-5.7s.42-4,1.27-5.64ZM105.32,265.88c-.51-.92-1.19-1.63-2.04-2.12-.86-.49-1.78-.74-2.76-.74s-1.89.24-2.73.72c-.83.48-1.51,1.18-2.02,2.1-.52.92-.78,2.01-.78,3.27s.26,2.37.78,3.31,1.2,1.67,2.04,2.18c.84.51,1.75.76,2.71.76s1.91-.25,2.76-.74,1.54-1.2,2.04-2.12c.5-.92.76-2.02.76-3.31s-.25-2.39-.76-3.31Z"/>
      <path class="cls-2" d="M116.58,255.32c-.62-.59-.93-1.33-.93-2.21s.31-1.62.93-2.21c.62-.59,1.39-.89,2.33-.89s1.71.3,2.33.89c.62.59.93,1.33.93,2.21s-.31,1.62-.93,2.21c-.62.59-1.39.89-2.33.89s-1.71-.3-2.33-.89ZM121.52,258.7v20.97h-5.3v-20.97h5.3Z"/>
      <path class="cls-2" d="M144.04,260.77c1.54,1.58,2.31,3.78,2.31,6.6v12.3h-5.3v-11.58c0-1.66-.42-2.94-1.25-3.84-.83-.89-1.97-1.34-3.41-1.34s-2.62.45-3.46,1.34c-.85.9-1.27,2.18-1.27,3.84v11.58h-5.3v-20.97h5.3v2.61c.71-.91,1.61-1.62,2.71-2.14,1.1-.52,2.3-.78,3.61-.78,2.5,0,4.52.79,6.06,2.36Z"/>
      <path class="cls-2" d="M163.34,259.29c1.19.62,2.12,1.42,2.8,2.4v-2.99h5.34v21.12c0,1.94-.39,3.68-1.17,5.2-.78,1.53-1.96,2.74-3.52,3.63-1.56.9-3.46,1.34-5.68,1.34-2.98,0-5.42-.69-7.32-2.08-1.91-1.39-2.98-3.28-3.24-5.68h5.26c.28.96.88,1.72,1.8,2.29.92.57,2.04.85,3.35.85,1.54,0,2.79-.46,3.74-1.38.96-.92,1.44-2.32,1.44-4.18v-3.26c-.68.99-1.62,1.81-2.82,2.46s-2.57.98-4.11.98c-1.77,0-3.38-.45-4.84-1.36-1.46-.91-2.62-2.19-3.46-3.84-.85-1.65-1.27-3.55-1.27-5.7s.42-4,1.27-5.64c.85-1.64,1.99-2.9,3.44-3.78s3.07-1.33,4.86-1.33c1.56,0,2.94.31,4.13.93ZM165.38,265.88c-.5-.92-1.18-1.63-2.04-2.12-.86-.49-1.78-.74-2.76-.74s-1.89.24-2.72.72-1.51,1.18-2.02,2.1c-.52.92-.78,2.01-.78,3.27s.26,2.37.78,3.31,1.2,1.67,2.04,2.18c.85.51,1.75.76,2.71.76s1.91-.25,2.76-.74,1.54-1.2,2.04-2.12c.51-.92.76-2.02.76-3.31s-.25-2.39-.76-3.31Z"/>
      <path class="cls-2" d="M203.17,265.4c-.67,1.24-1.72,2.23-3.14,2.99-1.42.76-3.22,1.14-5.39,1.14h-4.43v10.14h-5.3v-26.41h9.73c2.04,0,3.78.35,5.22,1.06,1.44.71,2.52,1.68,3.24,2.91.72,1.24,1.08,2.64,1.08,4.2,0,1.41-.34,2.74-1,3.97ZM197.66,264.25c.71-.67,1.06-1.61,1.06-2.82,0-2.57-1.44-3.86-4.31-3.86h-4.2v7.68h4.2c1.46,0,2.55-.34,3.25-1Z"/>
      <path class="cls-2" d="M207.44,263.47c.85-1.64,1.99-2.9,3.44-3.78,1.45-.88,3.07-1.33,4.86-1.33,1.56,0,2.93.32,4.11.95,1.17.63,2.11,1.43,2.82,2.38v-2.99h5.33v20.97h-5.33v-3.07c-.68.99-1.62,1.8-2.82,2.44-1.2.64-2.58.97-4.15.97-1.77,0-3.37-.45-4.82-1.36-1.45-.91-2.6-2.19-3.44-3.84-.84-1.65-1.27-3.55-1.27-5.7s.42-4,1.27-5.64ZM221.92,265.88c-.51-.92-1.19-1.63-2.04-2.12-.86-.49-1.78-.74-2.76-.74s-1.89.24-2.73.72c-.83.48-1.51,1.18-2.02,2.1-.52.92-.78,2.01-.78,3.27s.26,2.37.78,3.31,1.2,1.67,2.04,2.18c.84.51,1.75.76,2.71.76s1.91-.25,2.76-.74,1.54-1.2,2.04-2.12c.5-.92.76-2.02.76-3.31s-.25-2.39-.76-3.31Z"/>
      <path class="cls-2" d="M245.15,259.29c1.19.62,2.12,1.42,2.8,2.4v-2.99h5.33v21.12c0,1.94-.39,3.68-1.17,5.2s-1.96,2.74-3.52,3.63c-1.56.9-3.46,1.34-5.68,1.34-2.98,0-5.42-.69-7.32-2.08-1.91-1.39-2.98-3.28-3.23-5.68h5.26c.28.96.88,1.72,1.8,2.29.92.57,2.04.85,3.35.85,1.54,0,2.79-.46,3.75-1.38.96-.92,1.44-2.32,1.44-4.18v-3.26c-.68.99-1.62,1.81-2.82,2.46-1.2.66-2.57.98-4.11.98-1.77,0-3.38-.45-4.85-1.36-1.46-.91-2.62-2.19-3.46-3.84-.84-1.65-1.27-3.55-1.27-5.7s.42-4,1.27-5.64c.85-1.64,1.99-2.9,3.44-3.78,1.45-.88,3.07-1.33,4.86-1.33,1.56,0,2.94.31,4.12.93ZM247.2,265.88c-.51-.92-1.19-1.63-2.04-2.12-.86-.49-1.78-.74-2.76-.74s-1.89.24-2.73.72c-.83.48-1.51,1.18-2.02,2.1-.52.92-.78,2.01-.78,3.27s.26,2.37.78,3.31,1.2,1.67,2.04,2.18c.84.51,1.75.76,2.71.76s1.91-.25,2.76-.74,1.54-1.2,2.04-2.12c.5-.92.76-2.02.76-3.31s-.25-2.39-.76-3.31Z"/>
      <path class="cls-2" d="M277.43,270.78h-15.33c.12,1.51.66,2.7,1.59,3.56.93.86,2.08,1.29,3.44,1.29,1.97,0,3.37-.85,4.2-2.54h5.72c-.6,2.02-1.77,3.68-3.48,4.98-1.72,1.3-3.82,1.95-6.32,1.95-2.02,0-3.83-.45-5.43-1.34-1.6-.89-2.85-2.16-3.74-3.8-.9-1.64-1.34-3.53-1.34-5.68s.44-4.07,1.32-5.71c.88-1.64,2.12-2.9,3.71-3.78,1.59-.88,3.42-1.33,5.49-1.33s3.78.43,5.35,1.29c1.58.86,2.8,2.08,3.67,3.65.87,1.58,1.3,3.39,1.3,5.43,0,.76-.05,1.44-.15,2.04ZM272.1,267.22c-.03-1.36-.52-2.45-1.48-3.27s-2.13-1.23-3.52-1.23c-1.31,0-2.42.4-3.31,1.19s-1.44,1.9-1.65,3.31h9.95Z"/>
    </g>
    <path class="cls-1" d="M14.32,264.88c-1.25,0-2.26-1.01-2.26-2.26v-4.32h-3.06v6.58H2.42v3.06h4.32c1.25,0,2.26,1.01,2.26,2.26v4.32h3.06v-6.58h6.58v-3.06h-4.32Z"/>
  </g>
  <g>
    <g>
      <path d="M217.11,163.63c0-50.03,0-100.06,0-150.09,0-1.15-.01-2.33-.25-3.44C215.53,3.83,210.56.02,203.66.01c-25.01-.02-50.02,0-75.03,0-25.01,0-50.02-.01-75.03,0-8.42,0-13.58,5.2-13.58,13.61,0,49.96,0,99.92,0,149.88,0,8.44,5.15,13.64,13.54,13.64,50.02.01,100.03.01,150.05,0,8.26,0,13.48-5.25,13.49-13.51ZM54.54,168.71c-.88,0-1.78.02-2.64-.13-1.79-.3-2.93-1.4-3.29-3.17-.19-.92-.18-1.89-.18-2.84,0-49.35,0-98.7,0-148.05,0-.81,0-1.64.11-2.44.29-2.02,1.57-3.29,3.6-3.57.8-.11,1.63-.1,2.44-.1,49.34,0,98.67,0,148.01,0,.75,0,1.5-.01,2.24.08,2.24.27,3.57,1.62,3.79,3.84.08.81.06,1.63.06,2.44,0,24.67,0,49.35,0,74.02s0,49.08,0,73.62c0,.95.02,1.91-.13,2.85-.31,1.88-1.48,3.02-3.36,3.33-.86.14-1.76.12-2.64.12-49.34,0-98.67,0-148.01,0Z"/>
      <path d="M239.95,50.25c0-.75,0-1.5-.06-2.24-.43-5.45-5.32-10.14-10.77-10.34-2.59-.1-4.33,1.2-4.55,3.39-.23,2.23,1.16,3.81,3.72,4.25,2.83.48,3.86,1.66,3.95,4.5.01.37,0,.75,0,1.12,0,45.22,0,90.45,0,135.67,0,.87,0,1.76-.16,2.6-.31,1.63-1.36,2.63-2.99,2.92-.73.13-1.49.12-2.23.12-45.4,0-90.8,0-136.2,0-.62,0-1.25,0-1.86-.08-1.82-.22-2.92-1.26-3.32-3.04-.11-.49-.14-.99-.25-1.47-.45-2.02-2.04-3.21-4.06-3.06-1.95.15-3.43,1.67-3.49,3.7-.03.86.04,1.75.23,2.59,1.29,5.72,5.81,9.11,12.2,9.11,22.92.01,45.84,0,68.75,0,22.73,0,45.46.02,68.19-.04,2.01,0,4.19-.22,5.99-1.01,4.91-2.16,6.93-6.21,6.93-11.53-.04-45.72-.02-91.44-.02-137.17Z"/>
      <path d="M194.76,50.63c-44.11,0-88.21,0-132.32,0-4.24,0-5.59,1.36-5.59,5.63,0,32.76,0,65.53,0,98.29,0,4.33,1.41,5.74,5.72,5.75,21.95,0,43.9,0,65.85,0s44.04,0,66.06,0c4.36,0,5.79-1.4,5.79-5.68,0-32.83,0-65.66,0-98.5,0-4.11-1.4-5.5-5.52-5.5ZM191.7,151.78h-126.23V59.2h126.23v92.58Z"/>
      <path d="M66.44,38.88c5.52.08,9.94-4.16,10-9.61.06-5.48-4.26-9.92-9.68-9.97-5.34-.04-9.79,4.3-9.89,9.65-.1,5.34,4.25,9.85,9.57,9.93Z"/>
      <path d="M118.86,38.88c5.46.02,9.89-4.36,9.89-9.78,0-5.4-4.49-9.84-9.9-9.8-5.37.04-9.68,4.42-9.68,9.81,0,5.42,4.29,9.75,9.69,9.77Z"/>
      <path d="M92.78,38.88c5.38,0,9.77-4.32,9.81-9.68.05-5.42-4.37-9.89-9.79-9.9-5.36,0-9.76,4.36-9.79,9.71-.03,5.47,4.31,9.87,9.76,9.87Z"/>
      <path d="M79.15,101.23c10.86,0,21.73,0,32.59,0s21.87,0,32.8,0c3.51,0,5.1-1.56,5.11-5.1.03-7.81.03-15.62,0-23.43-.01-3.65-1.58-5.21-5.22-5.21-21.8,0-43.6,0-65.39,0-3.83,0-5.27,1.45-5.28,5.32-.02,7.67-.02,15.35,0,23.03,0,3.99,1.42,5.39,5.39,5.39ZM82.27,76.1h58.83v16.5h-58.83v-16.5Z"/>
      <path d="M178.51,109.73c-16.65-.01-33.3,0-49.94,0-16.38,0-32.75,0-49.13,0-.75,0-1.5-.03-2.24.07-1.95.29-3.36,1.97-3.4,3.98-.05,2.11,1.35,3.88,3.39,4.18.8.12,1.63.09,2.44.09,32.62,0,65.23,0,97.85,0,.75,0,1.5.02,2.24-.06,2.11-.25,3.56-1.88,3.6-4,.06-2.64-1.73-4.26-4.81-4.26Z"/>
      <path d="M163.02,101.22c5.09.02,10.19.02,15.28,0,3.57-.01,5.04-1.48,5.06-5.1.03-3.94,0-7.88,0-11.82,0-3.94.02-7.88,0-11.82-.03-3.46-1.54-4.98-4.98-5-5.09-.03-10.19-.03-15.28,0-3.4.02-4.97,1.58-4.99,5.02-.03,7.95-.04,15.9,0,23.84.02,3.32,1.61,4.86,4.91,4.87ZM166.64,76h8.2v16.63h-8.2v-16.63Z"/>
      <path d="M146.89,126.91c-.88-.28-1.86-.35-2.8-.35-10.8-.02-21.61-.01-32.41-.01s-21.47,0-32.21,0c-.68,0-1.37-.03-2.03.07-2.13.32-3.57,1.95-3.62,4.03-.06,2.1,1.25,3.79,3.37,4.23.79.16,1.62.15,2.43.15,21.41,0,42.81.01,64.22,0,1.01,0,2.06-.06,3.01-.35,1.84-.56,2.75-2.01,2.77-3.86.01-1.84-.88-3.31-2.71-3.9Z"/>
    </g>
    <g>
      <path class="cls-3" d="M217.11,163.63c0-50.03,0-100.06,0-150.09,0-1.15-.01-2.33-.25-3.44C215.53,3.83,210.56.02,203.66.01c-25.01-.02-50.02,0-75.03,0-25.01,0-50.02-.01-75.03,0-8.42,0-13.58,5.2-13.58,13.61,0,49.96,0,99.92,0,149.88,0,8.44,5.15,13.64,13.54,13.64,50.02.01,100.03.01,150.05,0,8.26,0,13.48-5.25,13.49-13.51ZM54.54,168.71c-.88,0-1.78.02-2.64-.13-1.79-.3-2.93-1.4-3.29-3.17-.19-.92-.18-1.89-.18-2.84,0-49.35,0-98.7,0-148.05,0-.81,0-1.64.11-2.44.29-2.02,1.57-3.29,3.6-3.57.8-.11,1.63-.1,2.44-.1,49.34,0,98.67,0,148.01,0,.75,0,1.5-.01,2.24.08,2.24.27,3.57,1.62,3.79,3.84.08.81.06,1.63.06,2.44,0,24.67,0,49.35,0,74.02s0,49.08,0,73.62c0,.95.02,1.91-.13,2.85-.31,1.88-1.48,3.02-3.36,3.33-.86.14-1.76.12-2.64.12-49.34,0-98.67,0-148.01,0Z"/>
      <path class="cls-3" d="M239.95,50.25c0-.75,0-1.5-.06-2.24-.43-5.45-5.32-10.14-10.77-10.34-2.59-.1-4.33,1.2-4.55,3.39-.23,2.23,1.16,3.81,3.72,4.25,2.83.48,3.86,1.66,3.95,4.5.01.37,0,.75,0,1.12,0,45.22,0,90.45,0,135.67,0,.87,0,1.76-.16,2.6-.31,1.63-1.36,2.63-2.99,2.92-.73.13-1.49.12-2.23.12-45.4,0-90.8,0-136.2,0-.62,0-1.25,0-1.86-.08-1.82-.22-2.92-1.26-3.32-3.04-.11-.49-.14-.99-.25-1.47-.45-2.02-2.04-3.21-4.06-3.06-1.95.15-3.43,1.67-3.49,3.7-.03.86.04,1.75.23,2.59,1.29,5.72,5.81,9.11,12.2,9.11,22.92.01,45.84,0,68.75,0,22.73,0,45.46.02,68.19-.04,2.01,0,4.19-.22,5.99-1.01,4.91-2.16,6.93-6.21,6.93-11.53-.04-45.72-.02-91.44-.02-137.17Z"/>
      <path class="cls-3" d="M194.76,50.63c-44.11,0-88.21,0-132.32,0-4.24,0-5.59,1.36-5.59,5.63,0,32.76,0,65.53,0,98.29,0,4.33,1.41,5.74,5.72,5.75,21.95,0,43.9,0,65.85,0s44.04,0,66.06,0c4.36,0,5.79-1.4,5.79-5.68,0-32.83,0-65.66,0-98.5,0-4.11-1.4-5.5-5.52-5.5ZM191.7,151.78h-126.23V59.2h126.23v92.58Z"/>
      <path class="cls-3" d="M66.44,38.88c5.52.08,9.94-4.16,10-9.61.06-5.48-4.26-9.92-9.68-9.97-5.34-.04-9.79,4.3-9.89,9.65-.1,5.34,4.25,9.85,9.57,9.93Z"/>
      <path class="cls-3" d="M118.86,38.88c5.46.02,9.89-4.36,9.89-9.78,0-5.4-4.49-9.84-9.9-9.8-5.37.04-9.68,4.42-9.68,9.81,0,5.42,4.29,9.75,9.69,9.77Z"/>
      <path class="cls-3" d="M92.78,38.88c5.38,0,9.77-4.32,9.81-9.68.05-5.42-4.37-9.89-9.79-9.9-5.36,0-9.76,4.36-9.79,9.71-.03,5.47,4.31,9.87,9.76,9.87Z"/>
      <path class="cls-3" d="M79.15,101.23c10.86,0,21.73,0,32.59,0s21.87,0,32.8,0c3.51,0,5.1-1.56,5.11-5.1.03-7.81.03-15.62,0-23.43-.01-3.65-1.58-5.21-5.22-5.21-21.8,0-43.6,0-65.39,0-3.83,0-5.27,1.45-5.28,5.32-.02,7.67-.02,15.35,0,23.03,0,3.99,1.42,5.39,5.39,5.39ZM82.27,76.1h58.83v16.5h-58.83v-16.5Z"/>
      <path class="cls-3" d="M178.51,109.73c-16.65-.01-33.3,0-49.94,0-16.38,0-32.75,0-49.13,0-.75,0-1.5-.03-2.24.07-1.95.29-3.36,1.97-3.4,3.98-.05,2.11,1.35,3.88,3.39,4.18.8.12,1.63.09,2.44.09,32.62,0,65.23,0,97.85,0,.75,0,1.5.02,2.24-.06,2.11-.25,3.56-1.88,3.6-4,.06-2.64-1.73-4.26-4.81-4.26Z"/>
      <path class="cls-3" d="M163.02,101.22c5.09.02,10.19.02,15.28,0,3.57-.01,5.04-1.48,5.06-5.1.03-3.94,0-7.88,0-11.82,0-3.94.02-7.88,0-11.82-.03-3.46-1.54-4.98-4.98-5-5.09-.03-10.19-.03-15.28,0-3.4.02-4.97,1.58-4.99,5.02-.03,7.95-.04,15.9,0,23.84.02,3.32,1.61,4.86,4.91,4.87ZM166.64,76h8.2v16.63h-8.2v-16.63Z"/>
      <path class="cls-3" d="M146.89,126.91c-.88-.28-1.86-.35-2.8-.35-10.8-.02-21.61-.01-32.41-.01s-21.47,0-32.21,0c-.68,0-1.37-.03-2.03.07-2.13.32-3.57,1.95-3.62,4.03-.06,2.1,1.25,3.79,3.37,4.23.79.16,1.62.15,2.43.15,21.41,0,42.81.01,64.22,0,1.01,0,2.06-.06,3.01-.35,1.84-.56,2.75-2.01,2.77-3.86.01-1.84-.88-3.31-2.71-3.9Z"/>
    </g>
  </g>
</svg>