<?xml version="1.0" encoding="UTF-8"?>
<svg id="Camada_1" data-name="Camada 1" xmlns="http://www.w3.org/2000/svg" xmlns:xlink="http://www.w3.org/1999/xlink" viewBox="0 0 223 153">
  <defs>
    
    <linearGradient id="linear-gradient" x1="77.42" y1="56.37" x2="136.44" y2="56.37" gradientTransform="translate(139.91 -39.65) rotate(85.11)" gradientUnits="userSpaceOnUse">
      <stop offset="0" stop-color="#fe70bd"></stop>
      <stop offset=".2" stop-color="#fe70bd"></stop>
      <stop offset="1" stop-color="#3a60ff"></stop>
    </linearGradient>
    <linearGradient id="linear-gradient-2" x1="77.42" y1="44.15" x2="136.44" y2="44.15" gradientTransform="translate(148.29 -62.49) rotate(89.04)" xlink:href="#linear-gradient"></linearGradient>
    <linearGradient id="linear-gradient-3" x1="77.42" y1="49.46" x2="136.44" y2="49.46" gradientTransform="translate(39.6 -52.48) rotate(29.32)" xlink:href="#linear-gradient"></linearGradient>
    <linearGradient id="linear-gradient-4" x1="77.42" y1="43.81" x2="136.44" y2="43.81" gradientTransform="matrix(1,0,0,1,0,0)" xlink:href="#linear-gradient"></linearGradient>
    <linearGradient id="linear-gradient-5" x1="77.42" y1="68.3" x2="136.44" y2="68.3" gradientTransform="translate(72.56 -58.37) rotate(40.83)" xlink:href="#linear-gradient"></linearGradient>
    <linearGradient id="linear-gradient-6" x1="77.42" y1="71.47" x2="136.44" y2="71.47" gradientTransform="translate(83.43 -45.47) rotate(47.77)" xlink:href="#linear-gradient"></linearGradient>
    <linearGradient id="linear-gradient-7" x1="77.42" y1="57.64" x2="136.44" y2="57.64" gradientTransform="matrix(1,0,0,1,0,0)" xlink:href="#linear-gradient"></linearGradient>
    <linearGradient id="linear-gradient-8" x1="77.42" y1="55.51" x2="136.44" y2="55.51" gradientTransform="matrix(1,0,0,1,0,0)" xlink:href="#linear-gradient"></linearGradient>
    <linearGradient id="linear-gradient-9" y1="82.63" x2="136.44" y2="82.63" gradientTransform="matrix(1,0,0,1,0,0)" xlink:href="#linear-gradient"></linearGradient>
    <linearGradient id="linear-gradient-10" x1="77.42" y1="76.22" x2="136.44" y2="76.22" gradientTransform="matrix(1,0,0,1,0,0)" xlink:href="#linear-gradient"></linearGradient>
    <linearGradient id="linear-gradient-11" x1="77.42" y1="34.39" x2="136.44" y2="34.39" gradientTransform="matrix(1,0,0,1,0,0)" xlink:href="#linear-gradient"></linearGradient>
    <linearGradient id="linear-gradient-12" x1="151.85" y1="126.89" x2="160.6" y2="109.62" gradientTransform="matrix(1,0,0,1,0,0)" xlink:href="#linear-gradient"></linearGradient>
    <linearGradient id="linear-gradient-13" x1="143.93" y1="122.88" x2="152.69" y2="105.61" gradientTransform="matrix(1,0,0,1,0,0)" xlink:href="#linear-gradient"></linearGradient>
    <linearGradient id="linear-gradient-14" x1="151.74" y1="126.84" x2="160.5" y2="109.57" gradientTransform="matrix(1,0,0,1,0,0)" xlink:href="#linear-gradient"></linearGradient>
    <linearGradient id="linear-gradient-15" x1="154.42" y1="128.2" x2="163.18" y2="110.93" gradientTransform="matrix(1,0,0,1,0,0)" xlink:href="#linear-gradient"></linearGradient>
  </defs>
  <g id="Group_2253" data-name="Group 2253">
    <g id="Line_704" data-name="Line 704">
      <rect class="cls-16" x="89.64" y="51.68" width="3.82" height="9.39" transform="translate(27.57 142.78) rotate(-85.11)"></rect>
    </g>
    <g id="Line_705" data-name="Line 705">
      <rect class="cls-3" x="101.91" y="42.24" width="8.02" height="3.82" transform="translate(60 149.31) rotate(-89.04)"></rect>
    </g>
    <g id="Line_706" data-name="Line 706">
      <rect class="cls-7" x="112.95" y="47.55" width="14.33" height="3.82" transform="translate(-8.83 65.14) rotate(-29.32)"></rect>
    </g>
    <g id="Ellipse_111" data-name="Ellipse 111">
      <path class="cls-6" d="M130.17,50c-3.41,0-6.19-2.78-6.19-6.19s2.77-6.19,6.19-6.19,6.19,2.78,6.19,6.19-2.78,6.19-6.19,6.19ZM130.17,41.45c-1.3,0-2.37,1.06-2.37,2.37s1.06,2.37,2.37,2.37,2.37-1.06,2.37-2.37-1.06-2.37-2.37-2.37Z"></path>
    </g>
    <g id="Line_707" data-name="Line 707">
      <rect class="cls-8" x="112.79" y="63.75" width="3.82" height="9.09" transform="translate(-16.74 91.61) rotate(-40.83)"></rect>
    </g>
    <g id="Line_708" data-name="Line 708">
      <rect class="cls-15" x="83.76" y="69.56" width="18.59" height="3.82" transform="translate(-22.41 92.33) rotate(-47.77)"></rect>
    </g>
    <g id="Path_3458" data-name="Path 3458">
      <path class="cls-11" d="M105.65,68.91c-6.21,0-11.26-5.05-11.26-11.26s5.05-11.26,11.26-11.26,11.26,5.05,11.26,11.26-5.05,11.26-11.26,11.26ZM105.65,50.2c-4.1,0-7.44,3.34-7.44,7.44s3.34,7.44,7.44,7.44,7.44-3.34,7.44-7.44-3.34-7.44-7.44-7.44Z"></path>
    </g>
    <g id="Path_3459" data-name="Path 3459">
      <path class="cls-9" d="M82.53,61.69c-3.41,0-6.19-2.78-6.19-6.19s2.77-6.19,6.19-6.19,6.19,2.78,6.19,6.19-2.78,6.19-6.19,6.19ZM82.53,53.14c-1.28,0-2.37,1.08-2.37,2.37s1.08,2.37,2.37,2.37,2.37-1.08,2.37-2.37-1.04-2.37-2.37-2.37Z"></path>
    </g>
    <g id="Path_3460" data-name="Path 3460">
      <path class="cls-12" d="M82.93,90.22c-4.18,0-7.59-3.4-7.59-7.59s3.4-7.59,7.59-7.59,7.59,3.4,7.59,7.59-3.4,7.59-7.59,7.59ZM82.93,78.86c-2.08,0-3.77,1.69-3.77,3.77s1.69,3.77,3.77,3.77,3.77-1.69,3.77-3.77-1.69-3.77-3.77-3.77Z"></path>
    </g>
    <g id="Path_3461" data-name="Path 3461">
      <path class="cls-4" d="M121.28,83.81c-4.19,0-7.59-3.4-7.59-7.59s3.4-7.59,7.59-7.59,7.59,3.4,7.59,7.59-3.4,7.59-7.59,7.59ZM121.28,72.45c-2.08,0-3.77,1.69-3.77,3.77s1.69,3.77,3.77,3.77,3.77-1.69,3.77-3.77-1.69-3.77-3.77-3.77Z"></path>
    </g>
    <g id="Ellipse_112" data-name="Ellipse 112">
      <path class="cls-14" d="M106.18,41.98c-4.19,0-7.59-3.4-7.59-7.59s3.4-7.59,7.59-7.59,7.59,3.4,7.59,7.59-3.4,7.59-7.59,7.59ZM106.18,30.62c-2.08,0-3.77,1.69-3.77,3.77s1.69,3.77,3.77,3.77,3.77-1.69,3.77-3.77-1.69-3.77-3.77-3.77Z"></path>
    </g>
  </g>
  <g>
    <text class="cls-13" transform="translate(46.24 123.26)"><tspan x="0" y="0">Prediction</tspan></text>
    <g>
      <path class="cls-5" d="M165.22,115.98c-.81-3.54-3.74-6.32-7.3-6.92-.33-.06-.67-.09-1-.14h-1.14c-.12.02-.25.03-.37.05-2.08.23-3.87,1.06-5.39,2.5-.79.75-1.42,1.62-1.9,2.61-.16.32-.14.63.06.93.2.29.49.41.83.37.38-.05.6-.29.76-.62,1.49-2.96,4.79-4.56,8.03-3.89,3.94.81,6.51,4.7,5.71,8.63-.98,4.8-6.26,7.32-10.6,5.06-1.43-.75-2.49-1.86-3.2-3.31-.24-.48-.76-.66-1.22-.43-.45.23-.61.75-.38,1.22,1.99,4.13,6.84,6.15,11.17,4.65,4.43-1.53,6.97-6.11,5.93-10.7Z"></path>
      <path class="cls-2" d="M149.66,117.42h-1.74c-.5,0-.91-.41-.91-.91v-1.74h-1.24v2.66h-2.66v1.24h1.74c.5,0,.91.41.91.91v1.74h1.24v-2.66h2.66v-1.24Z"></path>
      <path class="cls-10" d="M154.28,114.61l-2.5,6.47h1.17c.12,0,.23-.03.31-.1s.14-.14.18-.22l.38-1.13h2.46l.38,1.13c.04.09.1.17.18.23.08.06.18.09.32.09h1.16l-2.5-6.47h-1.54ZM154.17,118.61l.6-1.76c.04-.11.09-.25.14-.4.05-.15.1-.32.14-.5.05.18.1.34.15.5.05.15.1.29.14.4l.6,1.77h-1.77Z"></path>
      <rect class="cls-1" x="158.91" y="114.61" width="1.51" height="6.47"></rect>
    </g>
  </g>
</svg>