<?xml version="1.0" encoding="UTF-8"?>
<svg id="Camada_1" data-name="Camada 1" xmlns="http://www.w3.org/2000/svg" xmlns:xlink="http://www.w3.org/1999/xlink" viewBox="0 0 223 153">
  <defs>
    
    <linearGradient id="linear-gradient" x1="81.54" y1="57.22" x2="157.96" y2="57.22" gradientUnits="userSpaceOnUse">
      <stop offset="0" stop-color="#3db6f3"></stop>
      <stop offset=".2" stop-color="#3db6f3"></stop>
      <stop offset="1" stop-color="#3a60ff"></stop>
    </linearGradient>
    <linearGradient id="linear-gradient-2" x1="81.54" y1="66.06" x2="157.96" y2="66.06" xlink:href="#linear-gradient"></linearGradient>
    <linearGradient id="linear-gradient-3" x1="81.54" y1="33.66" x2="157.96" y2="33.66" xlink:href="#linear-gradient"></linearGradient>
    <linearGradient id="linear-gradient-4" x1="81.54" y1="57.22" x2="157.96" y2="57.22" xlink:href="#linear-gradient"></linearGradient>
    <linearGradient id="linear-gradient-5" x1="81.54" y1="57.22" x2="157.96" y2="57.22" xlink:href="#linear-gradient"></linearGradient>
    <linearGradient id="linear-gradient-6" x1="81.54" y1="57.22" x2="157.96" y2="57.22" xlink:href="#linear-gradient"></linearGradient>
  </defs>
  <g>
    <path class="cls-9" d="M111.16,55.2h-5.03c-1.95,0-3.53-1.58-3.53-3.53s1.58-3.53,3.53-3.53h8.89c1.1,0,1.99-.89,1.99-1.99s-.89-1.99-1.99-1.99h-4.38v-3.28c0-1.1-.89-1.99-1.99-1.99s-1.99.89-1.99,1.99v3.28h-.52c-4.14,0-7.52,3.37-7.52,7.52s3.37,7.51,7.52,7.51h5.03c1.95,0,3.53,1.58,3.53,3.53s-1.58,3.53-3.53,3.53h-9.05c-1.1,0-1.99.89-1.99,1.99s.89,1.99,1.99,1.99h4.54v3.34c0,1.1.89,1.99,1.99,1.99s1.99-.89,1.99-1.99v-3.34h.62c4.09-.05,7.42-3.43,7.42-7.51s-3.37-7.52-7.52-7.52Z"></path>
    <path class="cls-2" d="M135.16,92.22h-26.51c-1.44,0-2.6-1.16-2.6-2.6s1.16-2.6,2.6-2.6h23.91v-44.53c0-1.44,1.16-2.6,2.6-2.6s2.6,1.16,2.6,2.6v47.13c0,1.44-1.16,2.6-2.6,2.6Z"></path>
    <path class="cls-5" d="M137.32,43.94c.04-.06.07-.13.11-.2.05-.08.1-.16.13-.25.04-.08.06-.17.08-.26.02-.08.05-.15.07-.23.03-.16.05-.33.05-.5,0,0,0,0,0-.01s0,0,0-.01c0-.17-.02-.33-.05-.5-.02-.08-.04-.15-.07-.23-.03-.09-.05-.17-.08-.26-.04-.09-.09-.17-.13-.25-.04-.07-.06-.13-.11-.2-.09-.14-.2-.28-.32-.4h0s-17.67-17.67-17.67-17.67c-.12-.12-.25-.23-.4-.32-.06-.04-.14-.07-.2-.11-.08-.04-.16-.09-.24-.13-.09-.04-.18-.06-.26-.08-.07-.02-.14-.05-.22-.07-.17-.03-.34-.05-.51-.05h-35.35c-1.44,0-2.6,1.16-2.6,2.6s1.16,2.6,2.6,2.6h32.75v15.07c0,1.44,1.16,2.6,2.6,2.6h17.67c.17,0,.34-.02.51-.05.08-.02.15-.04.22-.06.09-.03.18-.05.27-.08.09-.04.16-.08.24-.13.07-.04.14-.07.2-.11.14-.09.27-.2.39-.32,0,0,0,0,0,0h0c.12-.12.23-.25.32-.4ZM120.08,31.1l8.8,8.8h-8.8v-8.8Z"></path>
    <path class="cls-4" d="M144.18,88.55h-2.15c-1.44,0-2.6-1.16-2.6-2.6,0-1.28.93-2.35,2.15-2.56V31.09h-9.33c-1.44,0-2.6-1.16-2.6-2.6s1.16-2.6,2.6-2.6h11.93c1.44,0,2.6,1.16,2.6,2.6v57.47c0,1.44-1.16,2.6-2.6,2.6Z"></path>
    <g class="cls-1">
      <path class="cls-6" d="M152.94,82.44c-1.44,0-2.6-1.16-2.6-2.6v-45.24c0-1.44,1.16-2.6,2.6-2.6s2.6,1.16,2.6,2.6v45.24c0,1.44-1.16,2.6-2.6,2.6Z"></path>
    </g>
    <path class="cls-8" d="M108.65,92.22h-26.51c-1.44,0-2.6-1.16-2.6-2.6V24.82c0-1.44,1.16-2.6,2.6-2.6s2.6,1.16,2.6,2.6v62.2h23.91c1.44,0,2.6,1.16,2.6,2.6s-1.16,2.6-2.6,2.6Z"></path>
  </g>
  <g>
    <text class="cls-7" transform="translate(76.95 133.02)"><tspan x="0" y="0">Fatura</tspan></text>
    <path class="cls-3" d="M72.14,123c-.84,0-1.53-.69-1.53-1.53v-2.92h-2.08v4.45h-4.45v2.08h2.92c.84,0,1.53.69,1.53,1.53v2.92h2.08v-4.45h4.45v-2.08h-2.92Z"></path>
  </g>
</svg>