<?xml version="1.0" encoding="UTF-8"?>
<svg id="Camada_1" data-name="Camada 1" xmlns="http://www.w3.org/2000/svg" xmlns:xlink="http://www.w3.org/1999/xlink" viewBox="0 0 223 153">
  <defs>
    
    <linearGradient id="Gradiente_sem_nome_49" data-name="Gradiente sem nome 49" x1="78.48" y1="78.84" x2="157.02" y2="78.84" gradientUnits="userSpaceOnUse">
      <stop offset="0" stop-color="#fff"></stop>
      <stop offset="1" stop-color="#b3b3b3"></stop>
    </linearGradient>
    <linearGradient id="Gradiente_sem_nome_49-2" data-name="Gradiente sem nome 49" x1="56.4" y1="78.84" x2="85.9" y2="78.84" xlink:href="#Gradiente_sem_nome_49"></linearGradient>
    <linearGradient id="Gradiente_sem_nome_49-3" data-name="Gradiente sem nome 49" x1="95.43" y1="77.96" x2="124.92" y2="77.96" xlink:href="#Gradiente_sem_nome_49"></linearGradient>
    <linearGradient id="Gradiente_sem_nome_49-4" data-name="Gradiente sem nome 49" x1="127.57" y1="77.96" x2="134.37" y2="77.96" xlink:href="#Gradiente_sem_nome_49"></linearGradient>
  </defs>
  <path class="cls-3" d="M155.97,69.52c-3.63-15.96-16.84-28.47-32.9-31.16-1.5-.25-3.01-.42-4.51-.63h-5.14c-.55.07-1.11.14-1.66.2-9.35,1.05-17.45,4.78-24.27,11.27-3.56,3.39-6.39,7.32-8.54,11.74-.7,1.44-.63,2.86.29,4.18.91,1.29,2.2,1.85,3.76,1.66,1.72-.2,2.69-1.33,3.43-2.8,6.69-13.34,21.58-20.54,36.18-17.53,17.75,3.66,29.34,21.16,25.73,38.86-4.4,21.6-28.21,32.97-47.76,22.78-6.44-3.36-11.2-8.39-14.43-14.89-1.08-2.17-3.44-2.97-5.48-1.93-2.01,1.02-2.73,3.36-1.71,5.5,8.94,18.6,30.8,27.7,50.32,20.95,19.97-6.91,31.4-27.53,26.69-48.19Z"></path>
  <path class="cls-1" d="M85.9,76.05h-7.85c-2.27,0-4.11-1.85-4.11-4.11v-7.85h-5.57v11.96h-11.96v5.57h7.85c2.27,0,4.11,1.85,4.11,4.11v7.85h5.57v-11.96h11.96v-5.57Z"></path>
  <path class="cls-2" d="M106.71,63.39l-11.28,29.14h5.28c.56,0,1.03-.15,1.41-.45s.64-.64.79-1.01l1.72-5.08h11.08l1.72,5.08c.19.43.46.78.82,1.05.36.27.83.41,1.42.41h5.24l-11.28-29.14h-6.92ZM106.19,81.39l2.68-7.94c.2-.51.41-1.11.64-1.8.23-.69.44-1.45.64-2.26.23.8.45,1.54.68,2.23.23.69.44,1.28.64,1.79l2.7,7.98h-7.98Z"></path>
  <rect class="cls-4" x="127.57" y="63.39" width="6.8" height="29.14"></rect>
</svg>