<?xml version="1.0" encoding="UTF-8"?>
<svg id="Camada_1" data-name="Camada 1" xmlns="http://www.w3.org/2000/svg" xmlns:xlink="http://www.w3.org/1999/xlink" viewBox="0 0 282.75 153">
  <defs>
    
    <linearGradient id="linear-gradient" x1="20.24" y1="78.07" x2="102.85" y2="78.07" gradientUnits="userSpaceOnUse">
      <stop offset="0" stop-color="#fe70bd"></stop>
      <stop offset=".2" stop-color="#fe70bd"></stop>
      <stop offset="1" stop-color="#3a60ff"></stop>
    </linearGradient>
    <linearGradient id="linear-gradient-2" x1="20.24" y1="86.27" x2="102.85" y2="86.27" xlink:href="#linear-gradient"></linearGradient>
    <linearGradient id="linear-gradient-3" x1="20.24" y1="78.18" x2="102.85" y2="78.18" xlink:href="#linear-gradient"></linearGradient>
    <linearGradient id="linear-gradient-4" x1="20.24" y1="81.03" x2="102.85" y2="81.03" xlink:href="#linear-gradient"></linearGradient>
    <linearGradient id="linear-gradient-5" x1="20.24" y1="84.65" x2="102.85" y2="84.65" xlink:href="#linear-gradient"></linearGradient>
    <linearGradient id="linear-gradient-6" x1="20.24" y1="104.68" x2="102.85" y2="104.68" xlink:href="#linear-gradient"></linearGradient>
    <linearGradient id="linear-gradient-7" y1="87.83" x2="102.85" y2="87.83" xlink:href="#linear-gradient"></linearGradient>
    <linearGradient id="linear-gradient-8" x1="20.24" y1="76.26" x2="102.85" y2="76.26" xlink:href="#linear-gradient"></linearGradient>
    <linearGradient id="linear-gradient-9" x1="20.24" y1="86.27" x2="102.85" y2="86.27" xlink:href="#linear-gradient"></linearGradient>
    <linearGradient id="linear-gradient-10" x1="20.24" y1="78.18" x2="102.85" y2="78.18" xlink:href="#linear-gradient"></linearGradient>
    <linearGradient id="linear-gradient-11" x1="20.24" y1="81.03" x2="102.85" y2="81.03" xlink:href="#linear-gradient"></linearGradient>
    <linearGradient id="linear-gradient-12" x1="20.24" y1="84.65" x2="102.85" y2="84.65" xlink:href="#linear-gradient"></linearGradient>
    <linearGradient id="linear-gradient-13" x1="20.24" y1="104.68" x2="102.85" y2="104.68" xlink:href="#linear-gradient"></linearGradient>
    <linearGradient id="linear-gradient-14" y1="87.83" x2="102.85" y2="87.83" xlink:href="#linear-gradient"></linearGradient>
    <linearGradient id="linear-gradient-15" x1="20.24" y1="76.26" x2="102.85" y2="76.26" xlink:href="#linear-gradient"></linearGradient>
  </defs>
  <g>
    <text class="cls-13" transform="translate(104.5 89.71)"><tspan class="cls-5" x="0" y="0">D</tspan><tspan class="cls-24" x="17.25" y="0">a</tspan><tspan class="cls-15" x="33.36" y="0">s</tspan><tspan class="cls-1" x="46.26" y="0">h</tspan><tspan class="cls-22" x="61.96" y="0">bo</tspan><tspan class="cls-19" x="93.51" y="0">a</tspan><tspan class="cls-4" x="109.61" y="0">r</tspan><tspan class="cls-10" x="119.08" y="0">d</tspan><tspan x="135.19" y="0">s</tspan></text>
    <g>
      <path class="cls-23" d="M93.58,103.02c-1.04,0-1.89-.84-1.89-1.89v-42.58c0-.95-.71-1.66-1.66-1.66H31.26c-.95,0-1.66.71-1.66,1.66v42.58c0,1.04-.84,1.89-1.89,1.89s-1.89-.84-1.89-1.89v-42.58c0-3.05,2.39-5.43,5.43-5.43h58.77c3.05,0,5.43,2.39,5.43,5.43v42.58c0,1.04-.84,1.89-1.89,1.89Z"></path>
      <path class="cls-6" d="M65.78,94.29c-.83,0-1.51-.68-1.51-1.51v-13.01c0-.83.68-1.51,1.51-1.51s1.51.68,1.51,1.51v13.01c0,.83-.68,1.51-1.51,1.51Z"></path>
      <path class="cls-11" d="M71.94,94.29c-.83,0-1.51-.68-1.51-1.51v-29.2c0-.83.68-1.51,1.51-1.51s1.51.68,1.51,1.51v29.2c0,.83-.68,1.51-1.51,1.51Z"></path>
      <path class="cls-9" d="M84.26,94.29c-.83,0-1.51-.68-1.51-1.51v-23.51c0-.83.68-1.51,1.51-1.51s1.51.68,1.51,1.51v23.51c0,.83-.68,1.51-1.51,1.51Z"></path>
      <path class="cls-12" d="M78.1,94.29c-.83,0-1.51-.68-1.51-1.51v-16.26c0-.83.68-1.51,1.51-1.51s1.51.68,1.51,1.51v16.26c0,.83-.68,1.51-1.51,1.51Z"></path>
      <path class="cls-21" d="M91.73,110.12H29.48c-4.95,0-8.98-4.03-8.98-8.98,0-1.04.84-1.89,1.89-1.89h29.72c.5,0,.98.2,1.33.55l1.22,1.22h11.89l1.22-1.22c.35-.35.83-.55,1.33-.55h29.72c1.04,0,1.89.84,1.89,1.89,0,4.95-4.03,8.98-8.98,8.98ZM24.62,103.02c.76,1.94,2.65,3.33,4.86,3.33h62.25c2.21,0,4.1-1.38,4.86-3.33h-26.7l-1.22,1.22c-.35.35-.83.55-1.33.55h-13.46c-.5,0-.98-.2-1.33-.55l-1.22-1.22h-26.7Z"></path>
      <path class="cls-17" d="M55.65,93.77c-.83,0-1.51-.68-1.51-1.51v-3.55c-.16-.99-3.97-3.81-7.36-3.81s-7.24,2.81-7.36,3.83v3.54c0,.83-.67,1.51-1.51,1.51s-1.51-.68-1.51-1.51v-3.55c0-3.3,6.09-6.83,10.38-6.83s10.38,3.53,10.38,6.83v3.55c0,.83-.68,1.51-1.51,1.51Z"></path>
      <path class="cls-14" d="M46.88,84.83c-1.7,0-3.31-.64-4.53-1.81-1.43-1.36-2.28-3.4-2.32-5.59l-.07-1.97c-.1-4.35,2.76-7.68,6.65-7.77,1.75-.04,3.43.6,4.69,1.8,1.43,1.36,2.28,3.4,2.32,5.59l.07,1.97c.09,4.35-2.76,7.68-6.65,7.77-.05,0-.11,0-.16,0ZM46.76,70.7s-.06,0-.09,0c-2.5.06-3.75,2.39-3.7,4.67l.07,1.97c.03,1.41.54,2.68,1.39,3.49.69.66,1.55.98,2.53.97h0c2.24-.05,3.76-1.97,3.7-4.67l-.07-1.97c-.03-1.41-.54-2.68-1.39-3.49-.66-.64-1.51-.97-2.44-.97Z"></path>
    </g>
  </g>
  <g>
    <text class="cls-13" transform="translate(104.5 89.71)"><tspan class="cls-5" x="0" y="0">D</tspan><tspan class="cls-24" x="17.25" y="0">a</tspan><tspan class="cls-15" x="33.36" y="0">s</tspan><tspan class="cls-1" x="46.26" y="0">h</tspan><tspan class="cls-22" x="61.96" y="0">bo</tspan><tspan class="cls-19" x="93.51" y="0">a</tspan><tspan class="cls-4" x="109.61" y="0">r</tspan><tspan class="cls-10" x="119.08" y="0">d</tspan><tspan x="135.19" y="0">s</tspan></text>
    <g>
      <path class="cls-23" d="M93.58,103.02c-1.04,0-1.89-.84-1.89-1.89v-42.58c0-.95-.71-1.66-1.66-1.66H31.26c-.95,0-1.66.71-1.66,1.66v42.58c0,1.04-.84,1.89-1.89,1.89s-1.89-.84-1.89-1.89v-42.58c0-3.05,2.39-5.43,5.43-5.43h58.77c3.05,0,5.43,2.39,5.43,5.43v42.58c0,1.04-.84,1.89-1.89,1.89Z"></path>
      <path class="cls-18" d="M65.78,94.29c-.83,0-1.51-.68-1.51-1.51v-13.01c0-.83.68-1.51,1.51-1.51s1.51.68,1.51,1.51v13.01c0,.83-.68,1.51-1.51,1.51Z"></path>
      <path class="cls-7" d="M71.94,94.29c-.83,0-1.51-.68-1.51-1.51v-29.2c0-.83.68-1.51,1.51-1.51s1.51.68,1.51,1.51v29.2c0,.83-.68,1.51-1.51,1.51Z"></path>
      <path class="cls-20" d="M84.26,94.29c-.83,0-1.51-.68-1.51-1.51v-23.51c0-.83.68-1.51,1.51-1.51s1.51.68,1.51,1.51v23.51c0,.83-.68,1.51-1.51,1.51Z"></path>
      <path class="cls-8" d="M78.1,94.29c-.83,0-1.51-.68-1.51-1.51v-16.26c0-.83.68-1.51,1.51-1.51s1.51.68,1.51,1.51v16.26c0,.83-.68,1.51-1.51,1.51Z"></path>
      <path class="cls-3" d="M91.73,110.12H29.48c-4.95,0-8.98-4.03-8.98-8.98,0-1.04.84-1.89,1.89-1.89h29.72c.5,0,.98.2,1.33.55l1.22,1.22h11.89l1.22-1.22c.35-.35.83-.55,1.33-.55h29.72c1.04,0,1.89.84,1.89,1.89,0,4.95-4.03,8.98-8.98,8.98ZM24.62,103.02c.76,1.94,2.65,3.33,4.86,3.33h62.25c2.21,0,4.1-1.38,4.86-3.33h-26.7l-1.22,1.22c-.35.35-.83.55-1.33.55h-13.46c-.5,0-.98-.2-1.33-.55l-1.22-1.22h-26.7Z"></path>
      <path class="cls-16" d="M55.65,93.77c-.83,0-1.51-.68-1.51-1.51v-3.55c-.16-.99-3.97-3.81-7.36-3.81s-7.24,2.81-7.36,3.83v3.54c0,.83-.67,1.51-1.51,1.51s-1.51-.68-1.51-1.51v-3.55c0-3.3,6.09-6.83,10.38-6.83s10.38,3.53,10.38,6.83v3.55c0,.83-.68,1.51-1.51,1.51Z"></path>
      <path class="cls-2" d="M46.88,84.83c-1.7,0-3.31-.64-4.53-1.81-1.43-1.36-2.28-3.4-2.32-5.59l-.07-1.97c-.1-4.35,2.76-7.68,6.65-7.77,1.75-.04,3.43.6,4.69,1.8,1.43,1.36,2.28,3.4,2.32,5.59l.07,1.97c.09,4.35-2.76,7.68-6.65,7.77-.05,0-.11,0-.16,0ZM46.76,70.7s-.06,0-.09,0c-2.5.06-3.75,2.39-3.7,4.67l.07,1.97c.03,1.41.54,2.68,1.39,3.49.69.66,1.55.98,2.53.97h0c2.24-.05,3.76-1.97,3.7-4.67l-.07-1.97c-.03-1.41-.54-2.68-1.39-3.49-.66-.64-1.51-.97-2.44-.97Z"></path>
    </g>
  </g>
</svg>