<?xml version="1.0" encoding="UTF-8"?>
<svg id="Camada_1" data-name="Camada 1" xmlns="http://www.w3.org/2000/svg" viewBox="0 0 223 153">
  <defs>
    
  </defs>
  <text class="cls-1" transform="translate(56.48 132.42)"><tspan x="0" y="0">Custom</tspan></text>
  <g>
    <g id="Path_3042" data-name="Path 3042">
      <path class="cls-2" d="M106.18,91.62c-1.55,0-3.1-.52-4.5-1.58-3.76-2.85-4.11-7.64-.86-11.94l19.12-25.49c1.78-2.54,1.18-5.3.89-6.62-.04-.18-.07-.33-.09-.46-.02-.12-.03-.23-.04-.35-.39-2.27-.29-4.64.29-6.87,1.06-4.35,3.77-8.05,7.64-10.39,3.85-2.33,8.39-3.03,12.78-1.96.69.17,1.26.67,1.5,1.35s.13,1.42-.3,1.99l-6.6,8.82c-1.23,1.6-.91,3.81.7,5.04.06.05.12.09.17.15,1.58,1.13,3.72.79,4.93-.79l6.58-8.8c.43-.57,1.1-.89,1.82-.85.71.04,1.36.44,1.71,1.05,1.19,2.04,1.95,4.36,2.2,6.7,1.01,9.26-5.72,17.62-15,18.64-.08,0-.15.01-.23.01h-.04c-.13.01-.27.02-.43.04-1.45.12-4.15.33-6.09,2.79l-19.01,25.44c-2.03,2.68-4.6,4.08-7.15,4.08ZM124.94,44.92l.04.17c.35,1.61,1.28,5.9-1.6,10.02l-19.16,25.55s0,0,0,0c-.67.89-2.66,3.95.03,5.99,2.55,1.93,4.83-.52,5.69-1.66l19.04-25.48c3.13-3.95,7.33-4.29,9.12-4.43.16-.01.3-.02.41-.04.08,0,.17-.01.25-.01h.03c6.89-.82,11.88-7.05,11.12-13.95-.07-.62-.18-1.23-.34-1.83l-4.37,5.84c-2.65,3.47-7.58,4.14-11,1.53-.07-.05-.13-.11-.19-.17-3.34-2.66-3.98-7.51-1.39-10.89l4.35-5.82c-2.15.07-4.26.68-6.15,1.83-2.89,1.75-4.92,4.51-5.71,7.79-.44,1.71-.51,3.57-.2,5.26.02.1.03.21.03.31ZM102.52,79.38h0,0Z"></path>
    </g>
    <g id="Path_3045" data-name="Path 3045">
      <path class="cls-2" d="M95.7,91.14h-4.37c-1.04,0-1.93-.75-2.1-1.78l-1.33-8c-1.63-.5-3.23-1.17-4.8-1.99l-6.54,4.7c-.85.61-2.01.51-2.74-.22l-7.04-7.04c-.73-.73-.83-1.87-.24-2.72l4.65-6.68c-.8-1.51-1.48-3.14-1.99-4.83l-8-1.33c-1.02-.17-1.78-1.06-1.78-2.1v-9.93c0-1.04.75-1.93,1.78-2.1l8-1.33c.5-1.63,1.17-3.25,2-4.81l-4.71-6.68c-.6-.85-.5-2.01.24-2.74l7.04-6.97c.73-.73,1.89-.82,2.73-.22l6.61,4.71c1.58-.83,3.21-1.5,4.87-2l1.27-7.91c.17-1.03,1.05-1.79,2.1-1.79h9.93c1.04,0,1.93.75,2.1,1.78l1.33,8c1.63.5,3.24,1.17,4.8,1.99l6.61-4.71c.81-.58,1.91-.51,2.65.15l3.48,3.11c.88.78.95,2.13.17,3-.78.88-2.13.95-3,.17l-2.22-1.98-6.32,4.5c-.68.48-1.59.52-2.31.1-2.02-1.18-4.13-2.05-6.26-2.59-.82-.21-1.44-.88-1.58-1.71l-1.26-7.56h-6.32l-1.2,7.47c-.14.85-.77,1.53-1.6,1.73-2.16.52-4.29,1.39-6.32,2.58-.72.42-1.63.38-2.31-.1l-6.25-4.45-4.48,4.44,4.45,6.32c.48.68.51,1.58.09,2.29-1.18,2.02-2.05,4.12-2.59,6.26-.21.82-.88,1.44-1.71,1.58l-7.56,1.26v6.33l7.56,1.26c.83.14,1.51.76,1.71,1.58.55,2.22,1.44,4.37,2.57,6.23.44.72.41,1.63-.07,2.32l-4.39,6.32,4.51,4.51,6.17-4.43c.68-.49,1.59-.53,2.32-.11,2.02,1.18,4.12,2.05,6.26,2.59.82.21,1.44.88,1.58,1.71l1.26,7.56h2.57c1.17,0,2.13.95,2.13,2.13s-.95,2.13-2.13,2.13Z"></path>
    </g>
    <g id="Path_3046" data-name="Path 3046">
      <path class="cls-2" d="M96.31,64.26c-1.48,0-2.95-.33-4.33-.99-2.42-1.16-4.24-3.2-5.11-5.72-.84-2.44-.74-5.07.29-7.4.47-1.08,1.73-1.56,2.8-1.09,1.07.47,1.56,1.73,1.09,2.8-.59,1.35-.65,2.88-.16,4.3.5,1.44,1.54,2.61,2.93,3.28,1.39.67,2.96.75,4.42.23,1.46-.51,2.63-1.55,3.3-2.94.67-1.4.75-2.96.23-4.42-.51-1.46-1.55-2.63-2.94-3.3-1.4-.67-2.96-.75-4.42-.23-1.1.4-2.32-.18-2.72-1.29-.4-1.11.18-2.32,1.29-2.72,2.53-.9,5.26-.76,7.69.4,2.42,1.16,4.24,3.2,5.11,5.72.9,2.51.75,5.24-.41,7.67-1.16,2.42-3.2,4.24-5.72,5.11-1.09.39-2.22.58-3.34.58Z"></path>
    </g>
    <g id="Path_3047" data-name="Path 3047">
      <path class="cls-2" d="M114.37,55.2c-1.12,0-2.06-.88-2.12-2.01-.12-2.19-.79-4.44-1.98-6.68-4.23-7.69-13.98-10.5-21.7-6.25-1.03.57-2.32.19-2.89-.84-.57-1.03-.19-2.32.84-2.89,9.78-5.38,22.11-1.82,27.49,7.95,1.5,2.82,2.33,5.66,2.48,8.47.07,1.17-.83,2.18-2,2.24-.04,0-.08,0-.12,0Z"></path>
    </g>
    <g id="Path_3048" data-name="Path 3048">
      <path class="cls-2" d="M96.29,74.42c-3.88,0-7.69-1.13-11.02-3.31-4.53-2.97-7.61-7.51-8.69-12.79-.28-1.48-.41-2.85-.41-4.13,0-4.72,1.62-9.25,4.57-12.78.75-.9,2.1-1.02,3-.27.9.75,1.02,2.09.27,3-2.31,2.76-3.58,6.33-3.58,10.05,0,1.02.11,2.13.33,3.31.84,4.13,3.28,7.71,6.85,10.05,3.58,2.35,7.85,3.15,12.03,2.26,1.15-.25,2.28.49,2.52,1.64.24,1.15-.49,2.28-1.64,2.52-1.41.3-2.82.45-4.22.45Z"></path>
    </g>
  </g>
</svg>