<?xml version="1.0" encoding="UTF-8"?>
<svg id="Camada_1" data-name="Camada 1" xmlns="http://www.w3.org/2000/svg" xmlns:xlink="http://www.w3.org/1999/xlink" viewBox="0 0 1920 1089">
  <defs>
    
    <linearGradient id="linear-gradient" x1="1722.44" y1="482.81" x2="371.02" y2="482.81" gradientUnits="userSpaceOnUse">
      <stop offset=".37" stop-color="#243a83"></stop>
      <stop offset=".85" stop-color="#000" stop-opacity="0"></stop>
    </linearGradient>
  </defs>
  <rect class="cls-3" x="-32.5" y="-23" width="1973" height="1137"></rect>
  <path class="cls-4" d="M931.61,830.7c-191.83,0-347.89-156.07-347.89-347.89s156.06-347.89,347.89-347.89,347.89,156.07,347.89,347.89-156.07,347.89-347.89,347.89ZM931.61,222.16c-143.72,0-260.65,116.93-260.65,260.65s116.93,260.65,260.65,260.65,260.65-116.93,260.65-260.65-116.93-260.65-260.65-260.65Z"></path>
  <g>
    <path class="cls-1" d="M109.32,762.5c-3.83,0-6.95-3.12-6.95-6.95s3.12-6.95,6.95-6.95,6.95,3.12,6.95,6.95-3.12,6.95-6.95,6.95M109.32,745.58c-2.7,0-5.15,1.08-6.95,2.83v-2.83h-3.07l.05,9.69h0c0,.09,0,.19,0,.29l-.05,23.04h3.07v-15.9c1.8,1.75,4.25,2.83,6.95,2.83,5.5,0,9.97-4.47,9.97-9.97s-4.47-9.97-9.97-9.97"></path>
    <path class="cls-1" d="M133,762.47c-.22.02-.43.03-.65.03s-.44-.01-.65-.03c-1.58-.15-3-.82-4.1-1.85-1.35-1.27-2.2-3.07-2.2-5.07,0-3.83,3.12-6.95,6.95-6.95s6.95,3.12,6.95,6.95c0,2-.85,3.8-2.2,5.07-1.09,1.03-2.52,1.7-4.1,1.85M142.32,745.58h-9.97c-5.5,0-9.97,4.47-9.97,9.97,0,2.68,1.07,5.12,2.8,6.92.71.73,1.53,1.36,2.43,1.85,1.41.77,3.03,1.2,4.75,1.2s3.34-.44,4.75-1.2c1.35,1.27,2.2,3.07,2.2,5.07,0,3.83-3.12,6.95-6.95,6.95s-6.95-3.12-6.95-6.95h-3.02c0,5.5,4.47,9.97,9.97,9.97s9.97-4.47,9.97-9.97c0-2.68-1.07-5.12-2.8-6.92,1.73-1.79,2.8-4.23,2.8-6.92s-1.08-5.1-2.83-6.9h2.83v-3.07Z"></path>
    <g>
      <path class="cls-1" d="M157.82,754.63c-.79,0-1.43-.64-1.43-1.43v-2.74h-1.94v4.17h-4.17v1.94h2.74c.79,0,1.43.64,1.43,1.43v2.74h1.94v-4.17h4.17v-1.94h-2.74Z"></path>
      <path class="cls-1" d="M155.34,746.54c-4.98,0-9.02,4.05-9.02,9.02s4.05,9.02,9.02,9.02,9.02-4.05,9.02-9.02-4.05-9.02-9.02-9.02M155.34,765.53c-5.49,0-9.96-4.47-9.96-9.96s4.47-9.96,9.96-9.96,9.96,4.47,9.96,9.96-4.47,9.96-9.96,9.96"></path>
    </g>
    <text class="cls-2" transform="translate(168.39 762.74)"><tspan x="0" y="0">channels</tspan></text>
  </g>
  <g>
    <path class="cls-1" d="M114.32,160.5c-3.83,0-6.95-3.12-6.95-6.95s3.12-6.95,6.95-6.95,6.95,3.12,6.95,6.95-3.12,6.95-6.95,6.95M114.32,143.58c-2.7,0-5.15,1.08-6.95,2.83v-2.83h-3.07l.05,9.69h0c0,.09,0,.19,0,.29l-.05,23.04h3.07v-15.9c1.8,1.75,4.25,2.83,6.95,2.83,5.5,0,9.97-4.47,9.97-9.97s-4.47-9.97-9.97-9.97"></path>
    <path class="cls-1" d="M138,160.47c-.22.02-.43.03-.65.03s-.44-.01-.65-.03c-1.58-.15-3-.82-4.1-1.85-1.35-1.27-2.2-3.07-2.2-5.07,0-3.83,3.12-6.95,6.95-6.95s6.95,3.12,6.95,6.95c0,2-.85,3.8-2.2,5.07-1.09,1.03-2.52,1.7-4.1,1.85M147.32,143.58h-9.97c-5.5,0-9.97,4.47-9.97,9.97,0,2.68,1.07,5.12,2.8,6.92.71.73,1.53,1.36,2.43,1.85,1.41.77,3.03,1.2,4.75,1.2s3.34-.44,4.75-1.2c1.35,1.27,2.2,3.07,2.2,5.07,0,3.83-3.12,6.95-6.95,6.95s-6.95-3.12-6.95-6.95h-3.02c0,5.5,4.47,9.97,9.97,9.97s9.97-4.47,9.97-9.97c0-2.68-1.07-5.12-2.8-6.92,1.73-1.79,2.8-4.23,2.8-6.92s-1.08-5.1-2.83-6.9h2.83v-3.07Z"></path>
    <g>
      <path class="cls-1" d="M162.82,152.63c-.79,0-1.43-.64-1.43-1.43v-2.74h-1.94v4.17h-4.17v1.94h2.74c.79,0,1.43.64,1.43,1.43v2.74h1.94v-4.17h4.17v-1.94h-2.74Z"></path>
      <path class="cls-1" d="M160.34,144.54c-4.98,0-9.02,4.05-9.02,9.02s4.05,9.02,9.02,9.02,9.02-4.05,9.02-9.02-4.05-9.02-9.02-9.02M160.34,163.53c-5.49,0-9.96-4.47-9.96-9.96s4.47-9.96,9.96-9.96,9.96,4.47,9.96,9.96-4.47,9.96-9.96,9.96"></path>
    </g>
    <text class="cls-2" transform="translate(173.39 160.74)"><tspan x="0" y="0">contact</tspan></text>
  </g>
  <g>
    <path class="cls-1" d="M742.69,917.5c-3.83,0-6.95-3.12-6.95-6.95s3.12-6.95,6.95-6.95,6.95,3.12,6.95,6.95-3.12,6.95-6.95,6.95M742.69,900.58c-2.7,0-5.15,1.08-6.95,2.83v-2.83h-3.07l.05,9.69h0c0,.09,0,.19,0,.29l-.05,23.04h3.07v-15.9c1.8,1.75,4.25,2.83,6.95,2.83,5.5,0,9.97-4.47,9.97-9.97s-4.47-9.97-9.97-9.97"></path>
    <path class="cls-1" d="M766.37,917.47c-.22.02-.43.03-.65.03s-.44-.01-.65-.03c-1.58-.15-3-.82-4.1-1.85-1.35-1.27-2.2-3.07-2.2-5.07,0-3.83,3.12-6.95,6.95-6.95s6.95,3.12,6.95,6.95c0,2-.85,3.8-2.2,5.07-1.09,1.03-2.52,1.7-4.1,1.85M775.69,900.58h-9.97c-5.5,0-9.97,4.47-9.97,9.97,0,2.68,1.07,5.12,2.8,6.92.71.73,1.53,1.36,2.43,1.85,1.41.77,3.03,1.2,4.75,1.2s3.34-.44,4.75-1.2c1.35,1.27,2.2,3.07,2.2,5.07,0,3.83-3.12,6.95-6.95,6.95s-6.95-3.12-6.95-6.95h-3.02c0,5.5,4.47,9.97,9.97,9.97s9.97-4.47,9.97-9.97c0-2.68-1.07-5.12-2.8-6.92,1.73-1.79,2.8-4.23,2.8-6.92s-1.08-5.1-2.83-6.9h2.83v-3.07Z"></path>
    <g>
      <path class="cls-1" d="M791.2,909.63c-.79,0-1.43-.64-1.43-1.43v-2.74h-1.94v4.17h-4.17v1.94h2.74c.79,0,1.43.64,1.43,1.43v2.74h1.94v-4.17h4.17v-1.94h-2.74Z"></path>
      <path class="cls-1" d="M788.72,901.54c-4.98,0-9.02,4.05-9.02,9.02s4.05,9.02,9.02,9.02,9.02-4.05,9.02-9.02-4.05-9.02-9.02-9.02M788.72,920.53c-5.49,0-9.96-4.47-9.96-9.96s4.47-9.96,9.96-9.96,9.96,4.47,9.96,9.96-4.47,9.96-9.96,9.96"></path>
    </g>
    <text class="cls-2" transform="translate(802.76 917.74)"><tspan x="0" y="0">files</tspan></text>
  </g>
  <g>
    <g>
      <path class="cls-1" d="M1460.22,187.5c-3.83,0-6.95-3.12-6.95-6.95s3.12-6.95,6.95-6.95,6.95,3.12,6.95,6.95-3.12,6.95-6.95,6.95M1460.22,170.58c-2.7,0-5.15,1.08-6.95,2.83v-2.83h-3.07l.05,9.69h0c0,.09,0,.19,0,.29l-.05,23.04h3.07v-15.9c1.8,1.75,4.25,2.83,6.95,2.83,5.5,0,9.97-4.47,9.97-9.97s-4.47-9.97-9.97-9.97"></path>
      <path class="cls-1" d="M1483.9,187.47c-.22.02-.43.03-.65.03s-.44-.01-.65-.03c-1.58-.15-3-.82-4.1-1.85-1.35-1.27-2.2-3.07-2.2-5.07,0-3.83,3.12-6.95,6.95-6.95s6.95,3.12,6.95,6.95c0,2-.85,3.8-2.2,5.07-1.09,1.03-2.52,1.7-4.1,1.85M1493.22,170.58h-9.97c-5.5,0-9.97,4.47-9.97,9.97,0,2.68,1.07,5.12,2.8,6.92.71.73,1.53,1.36,2.43,1.85,1.41.77,3.03,1.2,4.75,1.2s3.34-.44,4.75-1.2c1.35,1.27,2.2,3.07,2.2,5.07,0,3.83-3.12,6.95-6.95,6.95s-6.95-3.12-6.95-6.95h-3.02c0,5.5,4.47,9.97,9.97,9.97s9.97-4.47,9.97-9.97c0-2.68-1.07-5.12-2.8-6.92,1.73-1.79,2.8-4.23,2.8-6.92s-1.08-5.1-2.83-6.9h2.83v-3.07Z"></path>
      <g>
        <path class="cls-1" d="M1508.72,179.63c-.79,0-1.43-.64-1.43-1.43v-2.74h-1.94v4.17h-4.17v1.94h2.74c.79,0,1.43.64,1.43,1.43v2.74h1.94v-4.17h4.17v-1.94h-2.74Z"></path>
        <path class="cls-1" d="M1506.25,171.54c-4.98,0-9.02,4.05-9.02,9.02s4.05,9.02,9.02,9.02,9.02-4.05,9.02-9.02-4.05-9.02-9.02-9.02M1506.25,190.53c-5.49,0-9.96-4.47-9.96-9.96s4.47-9.96,9.96-9.96,9.96,4.47,9.96,9.96-4.47,9.96-9.96,9.96"></path>
      </g>
    </g>
    <text class="cls-2" transform="translate(1519.29 187.74)"><tspan x="0" y="0">lab</tspan></text>
  </g>
  <g>
    <g>
      <path class="cls-1" d="M854.04,324.97c-3.83,0-6.95-3.12-6.95-6.95s3.12-6.95,6.95-6.95,6.95,3.12,6.95,6.95-3.12,6.95-6.95,6.95M854.04,308.05c-2.7,0-5.15,1.08-6.95,2.83v-2.83h-3.07l.05,9.69h0c0,.09,0,.19,0,.29l-.05,23.04h3.07v-15.9c1.8,1.75,4.25,2.83,6.95,2.83,5.5,0,9.97-4.47,9.97-9.97s-4.47-9.97-9.97-9.97"></path>
      <path class="cls-1" d="M877.72,324.94c-.22.02-.43.03-.65.03s-.44-.01-.65-.03c-1.58-.15-3-.82-4.1-1.85-1.35-1.27-2.2-3.07-2.2-5.07,0-3.83,3.12-6.95,6.95-6.95s6.95,3.12,6.95,6.95c0,2-.85,3.8-2.2,5.07-1.09,1.03-2.52,1.7-4.1,1.85M887.04,308.05h-9.97c-5.5,0-9.97,4.47-9.97,9.97,0,2.68,1.07,5.12,2.8,6.92.71.73,1.53,1.36,2.43,1.85,1.41.77,3.03,1.2,4.75,1.2s3.34-.44,4.75-1.2c1.35,1.27,2.2,3.07,2.2,5.07,0,3.83-3.12,6.95-6.95,6.95s-6.95-3.12-6.95-6.95h-3.02c0,5.5,4.47,9.97,9.97,9.97s9.97-4.47,9.97-9.97c0-2.68-1.07-5.12-2.8-6.92,1.73-1.79,2.8-4.23,2.8-6.92s-1.08-5.1-2.83-6.9h2.83v-3.07Z"></path>
      <g>
        <path class="cls-1" d="M902.55,317.09c-.79,0-1.43-.64-1.43-1.43v-2.74h-1.94v4.17h-4.17v1.94h2.74c.79,0,1.43.64,1.43,1.43v2.74h1.94v-4.17h4.17v-1.94h-2.74Z"></path>
        <path class="cls-1" d="M900.07,309.01c-4.98,0-9.02,4.05-9.02,9.02s4.05,9.02,9.02,9.02,9.02-4.05,9.02-9.02-4.05-9.02-9.02-9.02M900.07,327.99c-5.49,0-9.96-4.47-9.96-9.96s4.47-9.96,9.96-9.96,9.96,4.47,9.96,9.96-4.47,9.96-9.96,9.96"></path>
      </g>
      <text class="cls-2" transform="translate(913.11 325.2)"><tspan x="0" y="0">system</tspan></text>
    </g>
    <text class="cls-2" transform="translate(913.11 325.2)"><tspan x="0" y="0">system</tspan></text>
  </g>
  <g>
    <path class="cls-1" d="M1433.76,750.93c-3.83,0-6.95-3.12-6.95-6.95s3.12-6.95,6.95-6.95,6.95,3.12,6.95,6.95-3.12,6.95-6.95,6.95M1433.76,734.01c-2.7,0-5.15,1.08-6.95,2.83v-2.83h-3.07l.05,9.69h0c0,.09,0,.19,0,.29l-.05,23.04h3.07v-15.9c1.8,1.75,4.25,2.83,6.95,2.83,5.5,0,9.97-4.47,9.97-9.97s-4.47-9.97-9.97-9.97"></path>
    <path class="cls-1" d="M1457.44,750.9c-.22.02-.43.03-.65.03s-.44-.01-.65-.03c-1.58-.15-3-.82-4.1-1.85-1.35-1.27-2.2-3.07-2.2-5.07,0-3.83,3.12-6.95,6.95-6.95s6.95,3.12,6.95,6.95c0,2-.85,3.8-2.2,5.07-1.09,1.03-2.52,1.7-4.1,1.85M1466.76,734.01h-9.97c-5.5,0-9.97,4.47-9.97,9.97,0,2.68,1.07,5.12,2.8,6.92.71.73,1.53,1.36,2.43,1.85,1.41.77,3.03,1.2,4.75,1.2s3.34-.44,4.75-1.2c1.35,1.27,2.2,3.07,2.2,5.07,0,3.83-3.12,6.95-6.95,6.95s-6.95-3.12-6.95-6.95h-3.02c0,5.5,4.47,9.97,9.97,9.97s9.97-4.47,9.97-9.97c0-2.68-1.07-5.12-2.8-6.92,1.73-1.79,2.8-4.23,2.8-6.92s-1.08-5.1-2.83-6.9h2.83v-3.07Z"></path>
    <g>
      <path class="cls-1" d="M1482.26,743.05c-.79,0-1.43-.64-1.43-1.43v-2.74h-1.94v4.17h-4.17v1.94h2.74c.79,0,1.43.64,1.43,1.43v2.74h1.94v-4.17h4.17v-1.94h-2.74Z"></path>
      <path class="cls-1" d="M1479.78,734.97c-4.98,0-9.02,4.05-9.02,9.02s4.05,9.02,9.02,9.02,9.02-4.05,9.02-9.02-4.05-9.02-9.02-9.02M1479.78,753.95c-5.49,0-9.96-4.47-9.96-9.96s4.47-9.96,9.96-9.96,9.96,4.47,9.96,9.96-4.47,9.96-9.96,9.96"></path>
    </g>
    <g>
      <path class="cls-1" d="M1497.77,738.38c.74-1.3,1.74-2.32,3.01-3.06s2.68-1.1,4.24-1.1c1.82,0,3.42.44,4.78,1.32,1.36.88,2.35,2.13,2.98,3.74h-2.62c-.46-1.01-1.13-1.78-2-2.33-.87-.54-1.92-.82-3.13-.82s-2.22.27-3.14.82c-.93.54-1.66,1.32-2.18,2.32-.53,1-.79,2.17-.79,3.52s.26,2.49.79,3.49c.53,1,1.26,1.77,2.18,2.32.93.54,1.98.82,3.14.82s2.26-.27,3.13-.8c.87-.54,1.54-1.31,2-2.32h2.62c-.62,1.6-1.62,2.84-2.98,3.71-1.36.87-2.95,1.31-4.78,1.31-1.55,0-2.96-.36-4.24-1.09-1.27-.73-2.28-1.74-3.01-3.04-.74-1.3-1.1-2.76-1.1-4.39s.37-3.1,1.1-4.4Z"></path>
      <path class="cls-1" d="M1520.55,734.44v10.58c0,1.49.36,2.59,1.09,3.31.73.72,1.74,1.08,3.04,1.08s2.28-.36,3.01-1.08c.73-.72,1.09-1.82,1.09-3.31v-10.58h2.18v10.56c0,1.39-.28,2.56-.84,3.52-.56.95-1.32,1.66-2.27,2.12-.95.46-2.02.7-3.2.7s-2.25-.23-3.2-.7-1.7-1.17-2.26-2.12c-.55-.95-.83-2.12-.83-3.52v-10.56h2.18Z"></path>
      <path class="cls-1" d="M1545.82,751.16l-3.98-6.84h-2.64v6.84h-2.18v-16.73h5.4c1.26,0,2.33.22,3.2.65.87.43,1.52,1.02,1.96,1.75.43.74.65,1.58.65,2.52,0,1.15-.33,2.17-1,3.05-.66.88-1.66,1.46-2.99,1.75l4.2,7.01h-2.62ZM1539.19,742.57h3.22c1.18,0,2.07-.29,2.66-.88.59-.58.89-1.36.89-2.34s-.29-1.76-.88-2.3-1.48-.82-2.68-.82h-3.22v6.34Z"></path>
      <path class="cls-1" d="M1563.89,747.44h-7.3l-1.34,3.72h-2.3l6.05-16.63h2.52l6.02,16.63h-2.3l-1.34-3.72ZM1563.27,745.67l-3.02-8.45-3.02,8.45h6.05Z"></path>
      <path class="cls-1" d="M1582.52,735.46c1.34.68,2.36,1.65,3.07,2.92.71,1.26,1.07,2.75,1.07,4.46s-.36,3.2-1.07,4.45c-.71,1.26-1.74,2.22-3.07,2.88-1.34.66-2.92,1-4.74,1h-5.21v-16.73h5.21c1.82,0,3.4.34,4.74,1.02ZM1582.73,747.65c1.14-1.14,1.7-2.75,1.7-4.81s-.57-3.7-1.72-4.87c-1.14-1.17-2.79-1.75-4.93-1.75h-3.02v13.15h3.02c2.16,0,3.81-.57,4.94-1.72Z"></path>
      <path class="cls-1" d="M1595.28,750.24c-1.28-.73-2.29-1.74-3.04-3.05-.74-1.3-1.12-2.77-1.12-4.4s.37-3.1,1.12-4.4,1.76-2.32,3.04-3.05c1.28-.73,2.7-1.09,4.25-1.09s2.99.36,4.27,1.09c1.28.73,2.29,1.74,3.02,3.04.74,1.3,1.1,2.77,1.1,4.42s-.37,3.12-1.1,4.42c-.74,1.3-1.74,2.31-3.02,3.04-1.28.73-2.7,1.09-4.27,1.09s-2.97-.36-4.25-1.09ZM1602.68,748.62c.94-.54,1.67-1.32,2.21-2.33.54-1.01.8-2.18.8-3.5s-.27-2.52-.8-3.52c-.54-1-1.27-1.77-2.2-2.32-.93-.54-1.98-.82-3.17-.82s-2.24.27-3.17.82c-.93.54-1.66,1.32-2.2,2.32-.54,1-.8,2.17-.8,3.52s.27,2.5.8,3.5c.54,1.01,1.27,1.78,2.21,2.33s1.99.82,3.16.82,2.22-.27,3.16-.82Z"></path>
      <path class="cls-1" d="M1622.02,751.16l-3.98-6.84h-2.64v6.84h-2.18v-16.73h5.4c1.26,0,2.33.22,3.2.65.87.43,1.52,1.02,1.96,1.75.43.74.65,1.58.65,2.52,0,1.15-.33,2.17-1,3.05-.66.88-1.66,1.46-2.99,1.75l4.2,7.01h-2.62ZM1615.39,742.57h3.22c1.18,0,2.07-.29,2.66-.88.59-.58.89-1.36.89-2.34s-.29-1.76-.88-2.3-1.48-.82-2.68-.82h-3.22v6.34Z"></path>
      <path class="cls-1" d="M1632.38,734.44v16.73h-2.18v-16.73h2.18Z"></path>
      <path class="cls-1" d="M1648.39,747.44h-7.3l-1.34,3.72h-2.3l6.05-16.63h2.52l6.02,16.63h-2.3l-1.34-3.72ZM1647.77,745.67l-3.02-8.45-3.02,8.45h6.05Z"></path>
    </g>
  </g>
</svg>