<?xml version="1.0" encoding="UTF-8"?>
<svg id="Camada_1" data-name="Camada 1" xmlns="http://www.w3.org/2000/svg" xmlns:xlink="http://www.w3.org/1999/xlink" viewBox="0 0 223 153">
  <defs>
    
    <linearGradient id="linear-gradient" x1="78.88" y1="85.08" x2="150.46" y2="85.08" gradientUnits="userSpaceOnUse">
      <stop offset="0" stop-color="#fe70bd"></stop>
      <stop offset=".2" stop-color="#fe70bd"></stop>
      <stop offset="1" stop-color="#3a60ff"></stop>
    </linearGradient>
    <linearGradient id="linear-gradient-2" x1="78.88" y1="47.85" x2="150.46" y2="47.85" xlink:href="#linear-gradient"></linearGradient>
    <linearGradient id="linear-gradient-3" x1="78.88" y1="63.26" x2="150.46" y2="63.26" xlink:href="#linear-gradient"></linearGradient>
    <linearGradient id="linear-gradient-4" x1="78.88" y1="63.26" x2="150.46" y2="63.26" xlink:href="#linear-gradient"></linearGradient>
    <linearGradient id="linear-gradient-5" x1="78.88" y1="78.24" x2="150.46" y2="78.24" xlink:href="#linear-gradient"></linearGradient>
    <linearGradient id="linear-gradient-6" x1="78.88" y1="78.24" x2="150.46" y2="78.24" xlink:href="#linear-gradient"></linearGradient>
    <linearGradient id="linear-gradient-7" x1="78.88" y1="62.42" x2="150.46" y2="62.42" xlink:href="#linear-gradient"></linearGradient>
    <linearGradient id="linear-gradient-8" x1="78.88" y1="62.42" x2="150.46" y2="62.42" xlink:href="#linear-gradient"></linearGradient>
    <linearGradient id="linear-gradient-9" x1="78.88" y1="63.26" x2="150.46" y2="63.26" xlink:href="#linear-gradient"></linearGradient>
    <linearGradient id="linear-gradient-10" x1="78.88" y1="38.49" x2="150.46" y2="38.49" xlink:href="#linear-gradient"></linearGradient>
    <linearGradient id="linear-gradient-11" x1="78.88" y1="38.49" x2="150.46" y2="38.49" xlink:href="#linear-gradient"></linearGradient>
    <clipPath id="clippath">
      <path class="cls-102" d="M128.66,40.25c-.97,0-1.76-.79-1.76-1.76s.79-1.76,1.76-1.76,1.76.79,1.76,1.76-.79,1.76-1.76,1.76Z"></path>
    </clipPath>
    <linearGradient id="linear-gradient-12" x1="78.88" y1="38.49" x2="150.46" y2="38.49" xlink:href="#linear-gradient"></linearGradient>
    <linearGradient id="linear-gradient-13" x1="78.88" y1="38.49" x2="150.46" y2="38.49" xlink:href="#linear-gradient"></linearGradient>
    <linearGradient id="linear-gradient-14" x1="78.88" y1="38.49" x2="150.46" y2="38.49" xlink:href="#linear-gradient"></linearGradient>
    <linearGradient id="linear-gradient-15" x1="78.88" y1="38.49" x2="150.46" y2="38.49" xlink:href="#linear-gradient"></linearGradient>
    <linearGradient id="linear-gradient-16" x1="78.88" y1="38.49" x2="150.46" y2="38.49" xlink:href="#linear-gradient"></linearGradient>
    <linearGradient id="linear-gradient-17" x1="78.88" y1="38.49" x2="150.46" y2="38.49" xlink:href="#linear-gradient"></linearGradient>
    <linearGradient id="linear-gradient-18" x1="78.88" y1="38.49" x2="150.46" y2="38.49" xlink:href="#linear-gradient"></linearGradient>
    <linearGradient id="linear-gradient-19" x1="78.88" y1="38.49" x2="150.46" y2="38.49" xlink:href="#linear-gradient"></linearGradient>
    <linearGradient id="linear-gradient-20" x1="78.88" y1="38.49" x2="150.46" y2="38.49" xlink:href="#linear-gradient"></linearGradient>
    <linearGradient id="linear-gradient-21" x1="78.88" y1="38.49" x2="150.46" y2="38.49" xlink:href="#linear-gradient"></linearGradient>
    <linearGradient id="linear-gradient-22" x1="78.88" y1="38.49" x2="150.46" y2="38.49" xlink:href="#linear-gradient"></linearGradient>
    <linearGradient id="linear-gradient-23" x1="78.88" y1="38.49" x2="150.46" y2="38.49" xlink:href="#linear-gradient"></linearGradient>
    <linearGradient id="linear-gradient-24" x1="78.88" y1="38.49" x2="150.46" y2="38.49" xlink:href="#linear-gradient"></linearGradient>
    <linearGradient id="linear-gradient-25" x1="78.88" y1="38.49" x2="150.46" y2="38.49" xlink:href="#linear-gradient"></linearGradient>
    <linearGradient id="linear-gradient-26" x1="78.88" y1="38.49" x2="150.46" y2="38.49" xlink:href="#linear-gradient"></linearGradient>
    <linearGradient id="linear-gradient-27" x1="78.88" y1="38.49" x2="150.46" y2="38.49" xlink:href="#linear-gradient"></linearGradient>
    <linearGradient id="linear-gradient-28" x1="78.88" y1="38.49" x2="150.46" y2="38.49" xlink:href="#linear-gradient"></linearGradient>
    <linearGradient id="linear-gradient-29" x1="78.88" y1="38.49" x2="150.46" y2="38.49" xlink:href="#linear-gradient"></linearGradient>
    <linearGradient id="linear-gradient-30" x1="78.88" y1="38.49" x2="150.46" y2="38.49" xlink:href="#linear-gradient"></linearGradient>
    <linearGradient id="linear-gradient-31" x1="78.88" y1="38.49" x2="150.46" y2="38.49" xlink:href="#linear-gradient"></linearGradient>
    <linearGradient id="linear-gradient-32" x1="78.88" y1="38.49" x2="150.46" y2="38.49" xlink:href="#linear-gradient"></linearGradient>
    <linearGradient id="linear-gradient-33" x1="78.88" y1="38.49" x2="150.46" y2="38.49" xlink:href="#linear-gradient"></linearGradient>
    <linearGradient id="linear-gradient-34" x1="78.88" y1="38.49" x2="150.46" y2="38.49" xlink:href="#linear-gradient"></linearGradient>
    <linearGradient id="linear-gradient-35" x1="78.88" y1="38.49" x2="150.46" y2="38.49" xlink:href="#linear-gradient"></linearGradient>
    <linearGradient id="linear-gradient-36" x1="78.88" y1="38.49" x2="150.46" y2="38.49" xlink:href="#linear-gradient"></linearGradient>
    <linearGradient id="linear-gradient-37" x1="78.88" y1="38.49" x2="150.46" y2="38.49" xlink:href="#linear-gradient"></linearGradient>
    <linearGradient id="linear-gradient-38" x1="78.88" y1="38.49" x2="150.46" y2="38.49" xlink:href="#linear-gradient"></linearGradient>
    <linearGradient id="linear-gradient-39" x1="78.88" y1="38.49" x2="150.46" y2="38.49" xlink:href="#linear-gradient"></linearGradient>
    <linearGradient id="linear-gradient-40" x1="78.88" y1="38.49" x2="150.46" y2="38.49" xlink:href="#linear-gradient"></linearGradient>
    <linearGradient id="linear-gradient-41" x1="78.88" y1="38.49" x2="150.46" y2="38.49" xlink:href="#linear-gradient"></linearGradient>
    <linearGradient id="linear-gradient-42" x1="78.88" y1="38.49" x2="150.46" y2="38.49" xlink:href="#linear-gradient"></linearGradient>
    <linearGradient id="linear-gradient-43" x1="78.88" y1="38.49" x2="150.46" y2="38.49" xlink:href="#linear-gradient"></linearGradient>
    <linearGradient id="linear-gradient-44" x1="78.88" y1="38.49" x2="150.46" y2="38.49" xlink:href="#linear-gradient"></linearGradient>
    <linearGradient id="linear-gradient-45" x1="78.88" y1="38.49" x2="150.46" y2="38.49" xlink:href="#linear-gradient"></linearGradient>
    <linearGradient id="linear-gradient-46" x1="78.88" y1="38.49" x2="150.46" y2="38.49" xlink:href="#linear-gradient"></linearGradient>
    <linearGradient id="linear-gradient-47" x1="78.88" y1="38.49" x2="150.46" y2="38.49" xlink:href="#linear-gradient"></linearGradient>
    <linearGradient id="linear-gradient-48" x1="78.88" y1="38.49" x2="150.46" y2="38.49" xlink:href="#linear-gradient"></linearGradient>
    <linearGradient id="linear-gradient-49" x1="78.88" y1="38.49" x2="150.46" y2="38.49" xlink:href="#linear-gradient"></linearGradient>
    <linearGradient id="linear-gradient-50" x1="78.88" y1="38.49" x2="150.46" y2="38.49" xlink:href="#linear-gradient"></linearGradient>
    <linearGradient id="linear-gradient-51" x1="78.88" y1="38.49" x2="150.46" y2="38.49" xlink:href="#linear-gradient"></linearGradient>
    <clipPath id="clippath-1">
      <path class="cls-74" d="M134.64,40.25c-.97,0-1.76-.79-1.76-1.76s.79-1.76,1.76-1.76,1.76.79,1.76,1.76-.79,1.76-1.76,1.76Z"></path>
    </clipPath>
    <linearGradient id="linear-gradient-52" x1="78.88" y1="38.49" x2="150.46" y2="38.49" xlink:href="#linear-gradient"></linearGradient>
    <linearGradient id="linear-gradient-53" x1="78.88" y1="38.49" x2="150.46" y2="38.49" xlink:href="#linear-gradient"></linearGradient>
    <linearGradient id="linear-gradient-54" x1="78.88" y1="38.49" x2="150.46" y2="38.49" xlink:href="#linear-gradient"></linearGradient>
    <linearGradient id="linear-gradient-55" x1="78.88" y1="38.49" x2="150.46" y2="38.49" xlink:href="#linear-gradient"></linearGradient>
    <linearGradient id="linear-gradient-56" x1="78.88" y1="38.49" x2="150.46" y2="38.49" xlink:href="#linear-gradient"></linearGradient>
    <linearGradient id="linear-gradient-57" x1="78.88" y1="38.49" x2="150.46" y2="38.49" xlink:href="#linear-gradient"></linearGradient>
    <linearGradient id="linear-gradient-58" x1="78.88" y1="38.49" x2="150.46" y2="38.49" xlink:href="#linear-gradient"></linearGradient>
    <linearGradient id="linear-gradient-59" x1="78.88" y1="38.49" x2="150.46" y2="38.49" xlink:href="#linear-gradient"></linearGradient>
    <linearGradient id="linear-gradient-60" x1="78.88" y1="38.49" x2="150.46" y2="38.49" xlink:href="#linear-gradient"></linearGradient>
    <linearGradient id="linear-gradient-61" x1="78.88" y1="38.49" x2="150.46" y2="38.49" xlink:href="#linear-gradient"></linearGradient>
    <linearGradient id="linear-gradient-62" x1="78.88" y1="38.49" x2="150.46" y2="38.49" xlink:href="#linear-gradient"></linearGradient>
    <linearGradient id="linear-gradient-63" x1="78.88" y1="38.49" x2="150.46" y2="38.49" xlink:href="#linear-gradient"></linearGradient>
    <linearGradient id="linear-gradient-64" x1="78.88" y1="38.49" x2="150.46" y2="38.49" xlink:href="#linear-gradient"></linearGradient>
    <linearGradient id="linear-gradient-65" x1="78.88" y1="38.49" x2="150.46" y2="38.49" xlink:href="#linear-gradient"></linearGradient>
    <linearGradient id="linear-gradient-66" x1="78.88" y1="38.49" x2="150.46" y2="38.49" xlink:href="#linear-gradient"></linearGradient>
    <linearGradient id="linear-gradient-67" x1="78.88" y1="38.49" x2="150.46" y2="38.49" xlink:href="#linear-gradient"></linearGradient>
    <linearGradient id="linear-gradient-68" x1="78.88" y1="38.49" x2="150.46" y2="38.49" xlink:href="#linear-gradient"></linearGradient>
    <linearGradient id="linear-gradient-69" x1="78.88" y1="38.49" x2="150.46" y2="38.49" xlink:href="#linear-gradient"></linearGradient>
    <linearGradient id="linear-gradient-70" x1="78.88" y1="38.49" x2="150.46" y2="38.49" xlink:href="#linear-gradient"></linearGradient>
    <linearGradient id="linear-gradient-71" x1="78.88" y1="38.49" x2="150.46" y2="38.49" xlink:href="#linear-gradient"></linearGradient>
    <linearGradient id="linear-gradient-72" x1="78.88" y1="38.49" x2="150.46" y2="38.49" xlink:href="#linear-gradient"></linearGradient>
    <linearGradient id="linear-gradient-73" x1="78.88" y1="38.49" x2="150.46" y2="38.49" xlink:href="#linear-gradient"></linearGradient>
    <linearGradient id="linear-gradient-74" x1="78.88" y1="38.49" x2="150.46" y2="38.49" xlink:href="#linear-gradient"></linearGradient>
    <linearGradient id="linear-gradient-75" x1="78.88" y1="38.49" x2="150.46" y2="38.49" xlink:href="#linear-gradient"></linearGradient>
    <linearGradient id="linear-gradient-76" x1="78.88" y1="38.49" x2="150.46" y2="38.49" xlink:href="#linear-gradient"></linearGradient>
    <linearGradient id="linear-gradient-77" x1="78.88" y1="38.49" x2="150.46" y2="38.49" xlink:href="#linear-gradient"></linearGradient>
    <linearGradient id="linear-gradient-78" x1="78.88" y1="38.49" x2="150.46" y2="38.49" xlink:href="#linear-gradient"></linearGradient>
    <linearGradient id="linear-gradient-79" x1="78.88" y1="38.49" x2="150.46" y2="38.49" xlink:href="#linear-gradient"></linearGradient>
    <linearGradient id="linear-gradient-80" x1="78.88" y1="38.49" x2="150.46" y2="38.49" xlink:href="#linear-gradient"></linearGradient>
    <linearGradient id="linear-gradient-81" x1="78.88" y1="38.49" x2="150.46" y2="38.49" xlink:href="#linear-gradient"></linearGradient>
    <linearGradient id="linear-gradient-82" x1="78.88" y1="38.49" x2="150.46" y2="38.49" xlink:href="#linear-gradient"></linearGradient>
    <linearGradient id="linear-gradient-83" x1="78.88" y1="38.49" x2="150.46" y2="38.49" xlink:href="#linear-gradient"></linearGradient>
    <linearGradient id="linear-gradient-84" x1="78.88" y1="38.49" x2="150.46" y2="38.49" xlink:href="#linear-gradient"></linearGradient>
    <linearGradient id="linear-gradient-85" x1="78.88" y1="38.49" x2="150.46" y2="38.49" xlink:href="#linear-gradient"></linearGradient>
    <linearGradient id="linear-gradient-86" x1="78.88" y1="38.49" x2="150.46" y2="38.49" xlink:href="#linear-gradient"></linearGradient>
    <linearGradient id="linear-gradient-87" x1="78.88" y1="38.49" x2="150.46" y2="38.49" xlink:href="#linear-gradient"></linearGradient>
    <linearGradient id="linear-gradient-88" x1="78.88" y1="38.49" x2="150.46" y2="38.49" xlink:href="#linear-gradient"></linearGradient>
    <linearGradient id="linear-gradient-89" x1="78.88" y1="38.49" x2="150.46" y2="38.49" xlink:href="#linear-gradient"></linearGradient>
    <linearGradient id="linear-gradient-90" x1="78.88" y1="38.49" x2="150.46" y2="38.49" xlink:href="#linear-gradient"></linearGradient>
    <linearGradient id="linear-gradient-91" x1="78.88" y1="38.49" x2="150.46" y2="38.49" xlink:href="#linear-gradient"></linearGradient>
    <clipPath id="clippath-2">
      <path class="cls-63" d="M140.62,40.25c-.97,0-1.76-.79-1.76-1.76s.79-1.76,1.76-1.76,1.76.79,1.76,1.76-.79,1.76-1.76,1.76Z"></path>
    </clipPath>
    <linearGradient id="linear-gradient-92" x1="78.88" y1="38.49" x2="150.46" y2="38.49" xlink:href="#linear-gradient"></linearGradient>
    <linearGradient id="linear-gradient-93" x1="78.88" y1="38.49" x2="150.46" y2="38.49" xlink:href="#linear-gradient"></linearGradient>
    <linearGradient id="linear-gradient-94" x1="78.88" y1="38.49" x2="150.46" y2="38.49" xlink:href="#linear-gradient"></linearGradient>
    <linearGradient id="linear-gradient-95" x1="78.88" y1="38.49" x2="150.46" y2="38.49" xlink:href="#linear-gradient"></linearGradient>
    <linearGradient id="linear-gradient-96" x1="78.88" y1="38.49" x2="150.46" y2="38.49" xlink:href="#linear-gradient"></linearGradient>
    <linearGradient id="linear-gradient-97" x1="78.88" y1="38.49" x2="150.46" y2="38.49" xlink:href="#linear-gradient"></linearGradient>
    <linearGradient id="linear-gradient-98" x1="78.88" y1="38.49" x2="150.46" y2="38.49" xlink:href="#linear-gradient"></linearGradient>
    <linearGradient id="linear-gradient-99" x1="78.88" y1="38.49" x2="150.46" y2="38.49" xlink:href="#linear-gradient"></linearGradient>
    <linearGradient id="linear-gradient-100" x1="78.88" y1="38.49" x2="150.46" y2="38.49" xlink:href="#linear-gradient"></linearGradient>
    <linearGradient id="linear-gradient-101" x1="78.88" y1="38.49" x2="150.46" y2="38.49" xlink:href="#linear-gradient"></linearGradient>
    <linearGradient id="linear-gradient-102" x1="78.88" y1="38.49" x2="150.46" y2="38.49" xlink:href="#linear-gradient"></linearGradient>
    <linearGradient id="linear-gradient-103" x1="78.88" y1="38.49" x2="150.46" y2="38.49" xlink:href="#linear-gradient"></linearGradient>
    <linearGradient id="linear-gradient-104" x1="78.88" y1="38.49" x2="150.46" y2="38.49" xlink:href="#linear-gradient"></linearGradient>
    <linearGradient id="linear-gradient-105" x1="78.88" y1="38.49" x2="150.46" y2="38.49" xlink:href="#linear-gradient"></linearGradient>
    <linearGradient id="linear-gradient-106" x1="78.88" y1="38.49" x2="150.46" y2="38.49" xlink:href="#linear-gradient"></linearGradient>
    <linearGradient id="linear-gradient-107" x1="78.88" y1="38.49" x2="150.46" y2="38.49" xlink:href="#linear-gradient"></linearGradient>
    <linearGradient id="linear-gradient-108" x1="78.88" y1="38.49" x2="150.46" y2="38.49" xlink:href="#linear-gradient"></linearGradient>
    <linearGradient id="linear-gradient-109" x1="78.88" y1="38.49" x2="150.46" y2="38.49" xlink:href="#linear-gradient"></linearGradient>
    <linearGradient id="linear-gradient-110" x1="78.88" y1="38.49" x2="150.46" y2="38.49" xlink:href="#linear-gradient"></linearGradient>
    <linearGradient id="linear-gradient-111" x1="78.88" y1="38.49" x2="150.46" y2="38.49" xlink:href="#linear-gradient"></linearGradient>
    <linearGradient id="linear-gradient-112" x1="78.88" y1="38.49" x2="150.46" y2="38.49" xlink:href="#linear-gradient"></linearGradient>
    <linearGradient id="linear-gradient-113" x1="78.88" y1="38.49" x2="150.46" y2="38.49" xlink:href="#linear-gradient"></linearGradient>
    <linearGradient id="linear-gradient-114" x1="78.88" y1="38.49" x2="150.46" y2="38.49" xlink:href="#linear-gradient"></linearGradient>
    <linearGradient id="linear-gradient-115" x1="78.88" y1="38.49" x2="150.46" y2="38.49" xlink:href="#linear-gradient"></linearGradient>
    <linearGradient id="linear-gradient-116" x1="78.88" y1="38.49" x2="150.46" y2="38.49" xlink:href="#linear-gradient"></linearGradient>
    <linearGradient id="linear-gradient-117" x1="78.88" y1="38.49" x2="150.46" y2="38.49" xlink:href="#linear-gradient"></linearGradient>
    <linearGradient id="linear-gradient-118" x1="78.88" y1="38.49" x2="150.46" y2="38.49" xlink:href="#linear-gradient"></linearGradient>
    <linearGradient id="linear-gradient-119" x1="78.88" y1="38.49" x2="150.46" y2="38.49" xlink:href="#linear-gradient"></linearGradient>
    <linearGradient id="linear-gradient-120" x1="78.88" y1="38.49" x2="150.46" y2="38.49" xlink:href="#linear-gradient"></linearGradient>
    <linearGradient id="linear-gradient-121" x1="78.88" y1="38.49" x2="150.46" y2="38.49" xlink:href="#linear-gradient"></linearGradient>
    <linearGradient id="linear-gradient-122" x1="78.88" y1="38.49" x2="150.46" y2="38.49" xlink:href="#linear-gradient"></linearGradient>
    <linearGradient id="linear-gradient-123" x1="78.88" y1="38.49" x2="150.46" y2="38.49" xlink:href="#linear-gradient"></linearGradient>
    <linearGradient id="linear-gradient-124" x1="78.88" y1="38.49" x2="150.46" y2="38.49" xlink:href="#linear-gradient"></linearGradient>
    <linearGradient id="linear-gradient-125" x1="78.88" y1="38.49" x2="150.46" y2="38.49" xlink:href="#linear-gradient"></linearGradient>
    <linearGradient id="linear-gradient-126" x1="78.88" y1="38.49" x2="150.46" y2="38.49" xlink:href="#linear-gradient"></linearGradient>
    <linearGradient id="linear-gradient-127" x1="78.88" y1="38.49" x2="150.46" y2="38.49" xlink:href="#linear-gradient"></linearGradient>
    <linearGradient id="linear-gradient-128" x1="78.88" y1="38.49" x2="150.46" y2="38.49" xlink:href="#linear-gradient"></linearGradient>
    <linearGradient id="linear-gradient-129" x1="78.88" y1="38.49" x2="150.46" y2="38.49" xlink:href="#linear-gradient"></linearGradient>
    <linearGradient id="linear-gradient-130" x1="78.88" y1="45.78" x2="150.46" y2="45.78" xlink:href="#linear-gradient"></linearGradient>
    <linearGradient id="linear-gradient-131" x1="78.88" y1="36.13" x2="150.46" y2="36.13" xlink:href="#linear-gradient"></linearGradient>
    <linearGradient id="linear-gradient-132" x1="78.88" y1="32.06" x2="150.46" y2="32.06" xlink:href="#linear-gradient"></linearGradient>
    <linearGradient id="linear-gradient-133" x1="78.88" y1="48.99" x2="150.46" y2="48.99" xlink:href="#linear-gradient"></linearGradient>
    <linearGradient id="linear-gradient-134" x1="78.88" x2="150.46" xlink:href="#linear-gradient"></linearGradient>
    <linearGradient id="linear-gradient-135" x1="78.88" y1="39.02" x2="150.46" y2="39.02" xlink:href="#linear-gradient"></linearGradient>
    <linearGradient id="linear-gradient-136" x1="155.94" y1="126.45" x2="164.7" y2="109.18" xlink:href="#linear-gradient"></linearGradient>
    <linearGradient id="linear-gradient-137" x1="148.03" y1="122.44" x2="156.78" y2="105.17" xlink:href="#linear-gradient"></linearGradient>
    <linearGradient id="linear-gradient-138" x1="155.84" y1="126.4" x2="164.59" y2="109.13" xlink:href="#linear-gradient"></linearGradient>
    <linearGradient id="linear-gradient-139" x1="158.52" y1="127.75" x2="167.27" y2="110.48" xlink:href="#linear-gradient"></linearGradient>
  </defs>
  <g>
    <path class="cls-134" d="M126.2,89.77c-1.01,0-1.83-.82-1.83-1.83,0-2.14-1.74-3.88-3.88-3.88h-8.07c-1.01,0-1.83-.82-1.83-1.83s.82-1.83,1.83-1.83h8.07c4.16,0,7.55,3.39,7.55,7.55,0,1.01-.82,1.83-1.83,1.83Z"></path>
    <path class="cls-18" d="M105.64,53.49c-.67,0-1.22-.55-1.22-1.22v-8.82c0-.67.55-1.22,1.22-1.22s1.22.55,1.22,1.22v8.82c0,.67-.55,1.22-1.22,1.22Z"></path>
    <path class="cls-58" d="M88.15,69.2h-2.88c-2.41,0-4.36-1.96-4.36-4.36v-3.14c0-2.41,1.96-4.36,4.36-4.36h2.88v11.87ZM85.27,59.77c-1.06,0-1.92.86-1.92,1.92v3.14c0,1.06.86,1.92,1.92,1.92h.44v-6.98h-.44Z"></path>
    <path class="cls-47" d="M126.01,69.2h-2.88v-11.87h2.88c2.41,0,4.36,1.96,4.36,4.36v3.14c0,2.41-1.96,4.36-4.36,4.36ZM125.57,66.76h.44c1.06,0,1.92-.86,1.92-1.92v-3.14c0-1.06-.86-1.92-1.92-1.92h-.44v6.98Z"></path>
    <path class="cls-61" d="M98.86,84.05c-1.01,0-1.83-.82-1.83-1.83v-7.96c0-1.01.82-1.83,1.83-1.83s1.83.82,1.83,1.83v7.96c0,1.01-.82,1.83-1.83,1.83Z"></path>
    <path class="cls-108" d="M112.41,84.05c-1.01,0-1.83-.82-1.83-1.83v-7.96c0-1.01.82-1.83,1.83-1.83s1.83.82,1.83,1.83v7.96c0,1.01-.82,1.83-1.83,1.83Z"></path>
    <path class="cls-97" d="M102.22,65.6c-.67,0-1.22-.55-1.22-1.22,0-1.49-1.21-2.71-2.71-2.71s-2.71,1.21-2.71,2.71c0,.67-.55,1.22-1.22,1.22s-1.22-.55-1.22-1.22c0-2.84,2.31-5.15,5.15-5.15s5.15,2.31,5.15,5.15c0,.67-.55,1.22-1.22,1.22Z"></path>
    <path class="cls-75" d="M116.91,65.6c-.67,0-1.22-.55-1.22-1.22,0-1.49-1.21-2.71-2.71-2.71s-2.71,1.21-2.71,2.71c0,.67-.55,1.22-1.22,1.22s-1.22-.55-1.22-1.22c0-2.84,2.31-5.15,5.15-5.15s5.15,2.31,5.15,5.15c0,.67-.55,1.22-1.22,1.22Z"></path>
    <path class="cls-99" d="M116.64,76.09h-22c-4.48,0-8.12-3.64-8.12-8.12v-9.43c0-4.48,3.64-8.12,8.12-8.12h22c4.48,0,8.12,3.64,8.12,8.12v9.43c0,4.48-3.64,8.12-8.12,8.12ZM94.64,54.1c-2.46,0-4.45,2-4.45,4.45v9.43c0,2.46,2,4.45,4.45,4.45h22c2.46,0,4.45-2,4.45-4.45v-9.43c0-2.46-2-4.45-4.45-4.45h-22Z"></path>
    <g>
      <g>
        <path class="cls-27" d="M128.66,40.25c-.97,0-1.76-.79-1.76-1.76s.79-1.76,1.76-1.76,1.76.79,1.76,1.76-.79,1.76-1.76,1.76Z"></path>
        <g class="cls-137">
          <rect class="cls-28" x="126.9" y="36.73" width=".09" height="3.53"></rect>
          <rect class="cls-6" x="126.99" y="36.73" width=".09" height="3.53"></rect>
          <rect class="cls-88" x="127.09" y="36.73" width=".09" height="3.53"></rect>
          <rect class="cls-5" x="127.18" y="36.73" width=".09" height="3.53"></rect>
          <rect class="cls-132" x="127.27" y="36.73" width=".09" height="3.53"></rect>
          <rect class="cls-95" x="127.36" y="36.73" width=".09" height="3.53"></rect>
          <rect class="cls-142" x="127.46" y="36.73" width=".09" height="3.53"></rect>
          <rect class="cls-105" x="127.55" y="36.73" width=".09" height="3.53"></rect>
          <rect class="cls-91" x="127.64" y="36.73" width=".09" height="3.53"></rect>
          <rect class="cls-114" x="127.73" y="36.73" width=".09" height="3.53"></rect>
          <rect class="cls-64" x="127.83" y="36.73" width=".09" height="3.53"></rect>
          <rect class="cls-135" x="127.92" y="36.73" width=".09" height="3.53"></rect>
          <rect class="cls-65" x="128.01" y="36.73" width=".09" height="3.53"></rect>
          <rect class="cls-24" x="128.11" y="36.73" width=".09" height="3.53"></rect>
          <rect class="cls-43" x="128.2" y="36.73" width=".09" height="3.53"></rect>
          <rect class="cls-30" x="128.29" y="36.73" width=".09" height="3.53"></rect>
          <rect class="cls-8" x="128.38" y="36.73" width=".09" height="3.53"></rect>
          <rect class="cls-90" x="128.48" y="36.73" width=".09" height="3.53"></rect>
          <rect class="cls-49" x="128.57" y="36.73" width=".09" height="3.53"></rect>
          <rect class="cls-136" x="128.66" y="36.73" width=".09" height="3.53"></rect>
          <rect class="cls-128" x="128.76" y="36.73" width=".09" height="3.53"></rect>
          <rect class="cls-71" x="128.85" y="36.73" width=".09" height="3.53"></rect>
          <rect class="cls-59" x="128.94" y="36.73" width=".09" height="3.53"></rect>
          <rect class="cls-48" x="129.03" y="36.73" width=".09" height="3.53"></rect>
          <rect class="cls-113" x="129.13" y="36.73" width=".09" height="3.53"></rect>
          <rect class="cls-32" x="129.22" y="36.73" width=".09" height="3.53"></rect>
          <rect class="cls-62" x="129.31" y="36.73" width=".09" height="3.53"></rect>
          <rect class="cls-36" x="129.41" y="36.73" width=".09" height="3.53"></rect>
          <rect class="cls-29" x="129.5" y="36.73" width=".09" height="3.53"></rect>
          <rect class="cls-130" x="129.59" y="36.73" width=".09" height="3.53"></rect>
          <rect class="cls-12" x="129.68" y="36.73" width=".09" height="3.53"></rect>
          <rect class="cls-23" x="129.78" y="36.73" width=".09" height="3.53"></rect>
          <rect class="cls-55" x="129.87" y="36.73" width=".09" height="3.53"></rect>
          <rect class="cls-116" x="129.96" y="36.73" width=".09" height="3.53"></rect>
          <rect class="cls-13" x="130.06" y="36.73" width=".09" height="3.53"></rect>
          <rect class="cls-42" x="130.15" y="36.73" width=".09" height="3.53"></rect>
          <rect class="cls-126" x="130.24" y="36.73" width=".09" height="3.53"></rect>
          <rect class="cls-57" x="130.33" y="36.73" width=".09" height="3.53"></rect>
        </g>
      </g>
      <g>
        <path class="cls-96" d="M134.64,40.25c-.97,0-1.76-.79-1.76-1.76s.79-1.76,1.76-1.76,1.76.79,1.76,1.76-.79,1.76-1.76,1.76Z"></path>
        <g class="cls-60">
          <rect class="cls-38" x="132.88" y="36.73" width=".09" height="3.53"></rect>
          <rect class="cls-11" x="132.97" y="36.73" width=".09" height="3.53"></rect>
          <rect class="cls-68" x="133.06" y="36.73" width=".09" height="3.53"></rect>
          <rect class="cls-34" x="133.16" y="36.73" width=".09" height="3.53"></rect>
          <rect class="cls-22" x="133.25" y="36.73" width=".09" height="3.53"></rect>
          <rect class="cls-77" x="133.34" y="36.73" width=".09" height="3.53"></rect>
          <rect class="cls-41" x="133.43" y="36.73" width=".09" height="3.53"></rect>
          <rect class="cls-101" x="133.53" y="36.73" width=".09" height="3.53"></rect>
          <rect class="cls-15" x="133.62" y="36.73" width=".09" height="3.53"></rect>
          <rect class="cls-3" x="133.71" y="36.73" width=".09" height="3.53"></rect>
          <rect class="cls-89" x="133.81" y="36.73" width=".09" height="3.53"></rect>
          <rect class="cls-138" x="133.9" y="36.73" width=".09" height="3.53"></rect>
          <rect class="cls-21" x="133.99" y="36.73" width=".09" height="3.53"></rect>
          <rect class="cls-9" x="134.08" y="36.73" width=".09" height="3.53"></rect>
          <rect class="cls-76" x="134.18" y="36.73" width=".09" height="3.53"></rect>
          <rect class="cls-93" x="134.27" y="36.73" width=".09" height="3.53"></rect>
          <rect class="cls-31" x="134.36" y="36.73" width=".09" height="3.53"></rect>
          <rect class="cls-10" x="134.46" y="36.73" width=".09" height="3.53"></rect>
          <rect class="cls-14" x="134.55" y="36.73" width=".09" height="3.53"></rect>
          <rect class="cls-54" x="134.64" y="36.73" width=".09" height="3.53"></rect>
          <rect class="cls-46" x="134.73" y="36.73" width=".09" height="3.53"></rect>
          <rect class="cls-53" x="134.83" y="36.73" width=".09" height="3.53"></rect>
          <rect class="cls-44" x="134.92" y="36.73" width=".09" height="3.53"></rect>
          <rect class="cls-33" x="135.01" y="36.73" width=".09" height="3.53"></rect>
          <rect class="cls-51" x="135.11" y="36.73" width=".09" height="3.53"></rect>
          <rect class="cls-78" x="135.2" y="36.73" width=".09" height="3.53"></rect>
          <rect class="cls-73" x="135.29" y="36.73" width=".09" height="3.53"></rect>
          <rect class="cls-72" x="135.38" y="36.73" width=".09" height="3.53"></rect>
          <rect class="cls-107" x="135.48" y="36.73" width=".09" height="3.53"></rect>
          <rect class="cls-121" x="135.57" y="36.73" width=".09" height="3.53"></rect>
          <rect class="cls-25" x="135.66" y="36.73" width=".09" height="3.53"></rect>
          <rect class="cls-109" x="135.75" y="36.73" width=".09" height="3.53"></rect>
          <rect class="cls-123" x="135.85" y="36.73" width=".09" height="3.53"></rect>
          <rect class="cls-119" x="135.94" y="36.73" width=".09" height="3.53"></rect>
          <rect class="cls-129" x="136.03" y="36.73" width=".09" height="3.53"></rect>
          <rect class="cls-20" x="136.13" y="36.73" width=".09" height="3.53"></rect>
          <rect class="cls-85" x="136.22" y="36.73" width=".09" height="3.53"></rect>
          <rect class="cls-37" x="136.31" y="36.73" width=".09" height="3.53"></rect>
        </g>
      </g>
      <g>
        <path class="cls-70" d="M140.62,40.25c-.97,0-1.76-.79-1.76-1.76s.79-1.76,1.76-1.76,1.76.79,1.76,1.76-.79,1.76-1.76,1.76Z"></path>
        <g class="cls-122">
          <rect class="cls-69" x="138.86" y="36.73" width=".09" height="3.53"></rect>
          <rect class="cls-16" x="138.95" y="36.73" width=".09" height="3.53"></rect>
          <rect class="cls-67" x="139.04" y="36.73" width=".09" height="3.53"></rect>
          <rect class="cls-17" x="139.13" y="36.73" width=".09" height="3.53"></rect>
          <rect class="cls-56" x="139.23" y="36.73" width=".09" height="3.53"></rect>
          <rect class="cls-45" x="139.32" y="36.73" width=".09" height="3.53"></rect>
          <rect class="cls-120" x="139.41" y="36.73" width=".09" height="3.53"></rect>
          <rect class="cls-141" x="139.51" y="36.73" width=".09" height="3.53"></rect>
          <rect class="cls-19" x="139.6" y="36.73" width=".09" height="3.53"></rect>
          <rect class="cls-106" x="139.69" y="36.73" width=".09" height="3.53"></rect>
          <rect class="cls-127" x="139.78" y="36.73" width=".09" height="3.53"></rect>
          <rect class="cls-81" x="139.88" y="36.73" width=".09" height="3.53"></rect>
          <rect class="cls-100" x="139.97" y="36.73" width=".09" height="3.53"></rect>
          <rect class="cls-111" x="140.06" y="36.73" width=".09" height="3.53"></rect>
          <rect class="cls-92" x="140.16" y="36.73" width=".09" height="3.53"></rect>
          <rect class="cls-7" x="140.25" y="36.73" width=".09" height="3.53"></rect>
          <rect class="cls-104" x="140.34" y="36.73" width=".09" height="3.53"></rect>
          <rect class="cls-52" x="140.43" y="36.73" width=".09" height="3.53"></rect>
          <rect class="cls-84" x="140.53" y="36.73" width=".09" height="3.53"></rect>
          <rect class="cls-133" x="140.62" y="36.73" width=".09" height="3.53"></rect>
          <rect class="cls-110" x="140.71" y="36.73" width=".09" height="3.53"></rect>
          <rect class="cls-39" x="140.81" y="36.73" width=".09" height="3.53"></rect>
          <rect class="cls-124" x="140.9" y="36.73" width=".09" height="3.53"></rect>
          <rect class="cls-139" x="140.99" y="36.73" width=".09" height="3.53"></rect>
          <rect class="cls-35" x="141.08" y="36.73" width=".09" height="3.53"></rect>
          <rect class="cls-125" x="141.18" y="36.73" width=".09" height="3.53"></rect>
          <rect class="cls-2" x="141.27" y="36.73" width=".09" height="3.53"></rect>
          <rect class="cls-115" x="141.36" y="36.73" width=".09" height="3.53"></rect>
          <rect class="cls-103" x="141.45" y="36.73" width=".09" height="3.53"></rect>
          <rect class="cls-83" x="141.55" y="36.73" width=".09" height="3.53"></rect>
          <rect class="cls-40" x="141.64" y="36.73" width=".09" height="3.53"></rect>
          <rect class="cls-143" x="141.73" y="36.73" width=".09" height="3.53"></rect>
          <rect class="cls-86" x="141.83" y="36.73" width=".09" height="3.53"></rect>
          <rect class="cls-50" x="141.92" y="36.73" width=".09" height="3.53"></rect>
          <rect class="cls-140" x="142.01" y="36.73" width=".09" height="3.53"></rect>
          <rect class="cls-118" x="142.1" y="36.73" width=".09" height="3.53"></rect>
          <rect class="cls-87" x="142.2" y="36.73" width=".09" height="3.53"></rect>
          <rect class="cls-80" x="142.29" y="36.73" width=".09" height="3.53"></rect>
        </g>
      </g>
    </g>
    <path class="cls-131" d="M122.62,54.28c-.42,0-.81-.15-1.13-.42-.35-.3-.55-.72-.58-1.18-.02-.25.02-.51.12-.75.15-.35.28-.68.4-1.02,0-.04.02-.07.03-.11.39-1.1.66-2.25.83-3.42-2.24-2.39-3.53-5.59-3.56-8.88,0-.67.54-1.23,1.21-1.23.68-.02,1.23.54,1.23,1.21.03,2.84,1.21,5.61,3.25,7.59.27.26.4.64.36,1.01-.17,1.52-.5,3.01-.99,4.44,0,.03-.02.06-.03.09,0,0,0,0,.01,0,2.08-.37,4.11-1.02,6.03-1.93.61-.29,1.34-.03,1.63.58.29.61.03,1.34-.58,1.63-2.12,1-4.37,1.72-6.68,2.13,0,0,0,0-.01,0-.43.08-.87.17-1.3.24-.05,0-.09.01-.14.02-.04,0-.07,0-.11,0Z"></path>
    <path class="cls-79" d="M146.01,47.86c-.3,0-.6-.11-.83-.33-.49-.46-.52-1.23-.06-1.73,1.96-2.09,2.99-4.62,2.99-7.31,0-6.42-6.04-11.64-13.47-11.64-.67,0-1.22-.55-1.22-1.22s.55-1.22,1.22-1.22c8.78,0,15.92,6.32,15.92,14.08,0,3.28-1.3,6.47-3.65,8.98-.24.26-.57.39-.89.39Z"></path>
    <path class="cls-1" d="M119.95,39.71c-.67,0-1.22-.55-1.22-1.22,0-7.76,7.14-14.08,15.92-14.08.67,0,1.22.55,1.22,1.22s-.55,1.22-1.22,1.22c-7.43,0-13.47,5.22-13.47,11.64,0,.67-.55,1.22-1.22,1.22Z"></path>
    <path class="cls-66" d="M134.64,52.57c-1.56,0-3.12-.2-4.63-.6-.65-.17-1.04-.84-.87-1.49.17-.65.84-1.04,1.49-.87,1.3.35,2.64.52,4,.52,4.08,0,7.9-1.58,10.48-4.33.46-.49,1.23-.52,1.73-.06.49.46.52,1.23.06,1.73-3.04,3.24-7.5,5.1-12.26,5.1Z"></path>
    <path class="cls-98" d="M85.07,89.77c-1.01,0-1.83-.82-1.83-1.83,0-4.16,3.39-7.55,7.55-7.55h21.62c1.01,0,1.83.82,1.83,1.83s-.82,1.83-1.83,1.83h-21.62c-2.14,0-3.88,1.74-3.88,3.88,0,1.01-.82,1.83-1.83,1.83Z"></path>
    <path class="cls-82" d="M105.64,44.47c-3.01,0-5.45-2.45-5.45-5.45s2.45-5.45,5.45-5.45,5.45,2.45,5.45,5.45-2.45,5.45-5.45,5.45ZM105.64,36.01c-1.66,0-3.01,1.35-3.01,3.01s1.35,3.01,3.01,3.01,3.01-1.35,3.01-3.01-1.35-3.01-3.01-3.01Z"></path>
  </g>
  <g>
    <text class="cls-117" transform="translate(61.91 124.44)"><tspan x="0" y="0">VoiceBot</tspan></text>
    <g>
      <path class="cls-4" d="M169.31,115.53c-.81-3.54-3.74-6.32-7.3-6.92-.33-.06-.67-.09-1-.14h-1.14c-.12.02-.25.03-.37.05-2.08.23-3.87,1.06-5.39,2.5-.79.75-1.42,1.62-1.9,2.61-.16.32-.14.63.06.93.2.29.49.41.83.37.38-.05.6-.29.76-.62,1.49-2.96,4.79-4.56,8.03-3.89,3.94.81,6.51,4.7,5.71,8.63-.98,4.8-6.26,7.32-10.6,5.06-1.43-.75-2.49-1.86-3.2-3.31-.24-.48-.76-.66-1.22-.43-.45.23-.61.75-.38,1.22,1.99,4.13,6.84,6.15,11.17,4.65,4.43-1.53,6.97-6.11,5.93-10.7Z"></path>
      <path class="cls-112" d="M153.76,116.98h-1.74c-.5,0-.91-.41-.91-.91v-1.74h-1.24v2.66h-2.66v1.24h1.74c.5,0,.91.41.91.91v1.74h1.24v-2.66h2.66v-1.24Z"></path>
      <path class="cls-26" d="M158.38,114.17l-2.5,6.47h1.17c.12,0,.23-.03.31-.1s.14-.14.18-.22l.38-1.13h2.46l.38,1.13c.04.09.1.17.18.23.08.06.18.09.32.09h1.16l-2.5-6.47h-1.54ZM158.26,118.17l.6-1.76c.04-.11.09-.25.14-.4.05-.15.1-.32.14-.5.05.18.1.34.15.5.05.15.1.29.14.4l.6,1.77h-1.77Z"></path>
      <rect class="cls-94" x="163.01" y="114.17" width="1.51" height="6.47"></rect>
    </g>
  </g>
</svg>