<?xml version="1.0" encoding="UTF-8"?>
<svg id="Camada_1" data-name="Camada 1" xmlns="http://www.w3.org/2000/svg" xmlns:xlink="http://www.w3.org/1999/xlink" viewBox="0 0 282.75 153">
  <defs>
    
    <linearGradient id="linear-gradient" x1="97.76" y1="63.07" x2="180.37" y2="63.07" gradientUnits="userSpaceOnUse">
      <stop offset="0" stop-color="#3db6f3"></stop>
      <stop offset=".2" stop-color="#3db6f3"></stop>
      <stop offset="1" stop-color="#3a60ff"></stop>
    </linearGradient>
    <linearGradient id="linear-gradient-2" x1="97.76" y1="71.27" x2="180.37" y2="71.27" xlink:href="#linear-gradient"></linearGradient>
    <linearGradient id="linear-gradient-3" x1="97.76" y1="63.18" x2="180.37" y2="63.18" xlink:href="#linear-gradient"></linearGradient>
    <linearGradient id="linear-gradient-4" x1="97.76" y1="66.03" x2="180.37" y2="66.03" xlink:href="#linear-gradient"></linearGradient>
    <linearGradient id="linear-gradient-5" x1="97.76" y1="69.65" x2="180.37" y2="69.65" xlink:href="#linear-gradient"></linearGradient>
    <linearGradient id="linear-gradient-6" x1="97.76" y1="89.68" x2="180.37" y2="89.68" xlink:href="#linear-gradient"></linearGradient>
    <linearGradient id="linear-gradient-7" y1="72.83" x2="180.37" y2="72.83" xlink:href="#linear-gradient"></linearGradient>
    <linearGradient id="linear-gradient-8" x1="97.76" y1="61.26" x2="180.37" y2="61.26" xlink:href="#linear-gradient"></linearGradient>
  </defs>
  <text class="cls-10" transform="translate(71.98 125.21)"><tspan class="cls-3" x="0" y="0">D</tspan><tspan class="cls-18" x="17.25" y="0">a</tspan><tspan class="cls-12" x="33.36" y="0">s</tspan><tspan class="cls-1" x="46.26" y="0">h</tspan><tspan class="cls-16" x="61.96" y="0">bo</tspan><tspan class="cls-14" x="93.51" y="0">a</tspan><tspan class="cls-2" x="109.61" y="0">r</tspan><tspan class="cls-7" x="119.08" y="0">d</tspan><tspan x="135.19" y="0">s</tspan></text>
  <g>
    <path class="cls-17" d="M171.09,88.02c-1.04,0-1.89-.84-1.89-1.89v-42.58c0-.95-.71-1.66-1.66-1.66h-58.77c-.95,0-1.66.71-1.66,1.66v42.58c0,1.04-.84,1.89-1.89,1.89s-1.89-.84-1.89-1.89v-42.58c0-3.05,2.39-5.43,5.43-5.43h58.77c3.05,0,5.43,2.39,5.43,5.43v42.58c0,1.04-.84,1.89-1.89,1.89Z"></path>
    <path class="cls-4" d="M143.29,79.29c-.83,0-1.51-.68-1.51-1.51v-13.01c0-.83.68-1.51,1.51-1.51s1.51.68,1.51,1.51v13.01c0,.83-.68,1.51-1.51,1.51Z"></path>
    <path class="cls-8" d="M149.45,79.29c-.83,0-1.51-.68-1.51-1.51v-29.2c0-.83.68-1.51,1.51-1.51s1.51.68,1.51,1.51v29.2c0,.83-.68,1.51-1.51,1.51Z"></path>
    <path class="cls-6" d="M161.78,79.29c-.83,0-1.51-.68-1.51-1.51v-23.51c0-.83.68-1.51,1.51-1.51s1.51.68,1.51,1.51v23.51c0,.83-.68,1.51-1.51,1.51Z"></path>
    <path class="cls-9" d="M155.62,79.29c-.83,0-1.51-.68-1.51-1.51v-16.26c0-.83.68-1.51,1.51-1.51s1.51.68,1.51,1.51v16.26c0,.83-.68,1.51-1.51,1.51Z"></path>
    <path class="cls-15" d="M169.24,95.12h-62.25c-4.95,0-8.98-4.03-8.98-8.98,0-1.04.84-1.89,1.89-1.89h29.72c.5,0,.98.2,1.33.55l1.22,1.22h11.89l1.22-1.22c.35-.35.83-.55,1.33-.55h29.72c1.04,0,1.89.84,1.89,1.89,0,4.95-4.03,8.98-8.98,8.98ZM102.14,88.02c.76,1.94,2.65,3.33,4.86,3.33h62.25c2.21,0,4.1-1.38,4.86-3.33h-26.7l-1.22,1.22c-.35.35-.83.55-1.33.55h-13.46c-.5,0-.98-.2-1.33-.55l-1.22-1.22h-26.7Z"></path>
    <path class="cls-13" d="M133.17,78.77c-.83,0-1.51-.68-1.51-1.51v-3.55c-.16-.99-3.97-3.81-7.36-3.81s-7.24,2.81-7.36,3.83v3.54c0,.83-.67,1.51-1.51,1.51s-1.51-.68-1.51-1.51v-3.55c0-3.3,6.09-6.83,10.38-6.83s10.38,3.53,10.38,6.83v3.55c0,.83-.68,1.51-1.51,1.51Z"></path>
    <path class="cls-11" d="M124.39,69.83c-1.7,0-3.31-.64-4.53-1.81-1.43-1.36-2.28-3.4-2.32-5.59l-.07-1.97c-.1-4.35,2.76-7.68,6.65-7.77,1.75-.04,3.43.6,4.69,1.8,1.43,1.36,2.28,3.4,2.32,5.59l.07,1.97c.09,4.35-2.76,7.68-6.65,7.77-.05,0-.11,0-.16,0ZM124.27,55.7s-.06,0-.09,0c-2.5.06-3.75,2.39-3.7,4.67l.07,1.97c.03,1.41.54,2.68,1.39,3.49.69.66,1.55.98,2.53.97h0c2.24-.05,3.76-1.97,3.7-4.67l-.07-1.97c-.03-1.41-.54-2.68-1.39-3.49-.66-.64-1.51-.97-2.44-.97Z"></path>
  </g>
  <path class="cls-5" d="M66.68,116.15c-.84,0-1.53-.69-1.53-1.53v-2.92h-2.08v4.45h-4.45v2.08h2.92c.84,0,1.53.69,1.53,1.53v2.92h2.08v-4.45h4.45v-2.08h-2.92Z"></path>
</svg>