<?xml version="1.0" encoding="UTF-8"?>
<svg id="Camada_1" data-name="Camada 1" xmlns="http://www.w3.org/2000/svg" xmlns:xlink="http://www.w3.org/1999/xlink" viewBox="0 0 223 153">
  <defs>
    
    <linearGradient id="linear-gradient" x1="93.32" y1="120.45" x2="136.88" y2="34.51" gradientUnits="userSpaceOnUse">
      <stop offset="0" stop-color="#fe70bd"></stop>
      <stop offset=".2" stop-color="#fe70bd"></stop>
      <stop offset="1" stop-color="#3a60ff"></stop>
    </linearGradient>
    <linearGradient id="linear-gradient-2" x1="53.94" y1="100.49" x2="97.5" y2="14.55" xlink:href="#linear-gradient"></linearGradient>
    <linearGradient id="linear-gradient-3" x1="92.81" y1="120.19" x2="136.37" y2="34.26" xlink:href="#linear-gradient"></linearGradient>
    <linearGradient id="linear-gradient-4" x1="106.13" y1="126.94" x2="149.7" y2="40.99" xlink:href="#linear-gradient"></linearGradient>
  </defs>
  <path class="cls-4" d="M159.86,66.12c-4.01-17.63-18.6-31.46-36.35-34.43-1.65-.28-3.32-.46-4.99-.69h-5.67c-.61.08-1.22.16-1.83.22-10.33,1.16-19.28,5.29-26.82,12.45-3.94,3.74-7.06,8.09-9.44,12.97-.78,1.6-.7,3.16.32,4.61,1,1.43,2.43,2.04,4.15,1.83,1.9-.23,2.97-1.46,3.79-3.1,7.39-14.73,23.84-22.69,39.98-19.37,19.61,4.04,32.42,23.38,28.43,42.94-4.86,23.86-31.17,36.42-52.77,25.16-7.12-3.71-12.37-9.27-15.95-16.45-1.19-2.39-3.8-3.28-6.05-2.13-2.22,1.13-3.02,3.72-1.89,6.07,9.88,20.55,34.03,30.6,55.6,23.14,22.07-7.63,34.69-30.41,29.49-53.25Z"></path>
  <path class="cls-1" d="M82.44,73.33h-8.67c-2.51,0-4.54-2.04-4.54-4.54v-8.67h-6.16v13.22h-13.22v6.16h8.67c2.51,0,4.54,2.04,4.54,4.54v8.67h6.16v-13.22h13.22v-6.16Z"></path>
  <path class="cls-3" d="M105.44,59.34l-12.47,32.2h5.83c.62,0,1.14-.17,1.56-.5s.71-.7.87-1.12l1.9-5.61h12.24l1.9,5.61c.21.47.51.86.91,1.16.4.3.92.45,1.57.45h5.79l-12.47-32.2h-7.65ZM104.86,79.24l2.96-8.77c.22-.56.46-1.22.71-1.99.25-.77.49-1.6.71-2.5.25.88.5,1.71.75,2.46.25.76.49,1.42.71,1.98l2.98,8.82h-8.82Z"></path>
  <rect class="cls-2" x="128.48" y="59.34" width="7.51" height="32.2"></rect>
</svg>