<?xml version="1.0" encoding="UTF-8"?>
<svg id="Camada_1" data-name="Camada 1" xmlns="http://www.w3.org/2000/svg" xmlns:xlink="http://www.w3.org/1999/xlink" viewBox="0 0 286 153">
  <defs>
    
    <linearGradient id="Gradiente_sem_nome_49" data-name="Gradiente sem nome 49" x1="103.82" y1="57.05" x2="196.01" y2="57.05" gradientUnits="userSpaceOnUse">
      <stop offset="0" stop-color="#fff"></stop>
      <stop offset="1" stop-color="#b3b3b3"></stop>
    </linearGradient>
    <linearGradient id="Gradiente_sem_nome_49-2" data-name="Gradiente sem nome 49" x1="103.82" y1="82.89" x2="196.01" y2="82.89" xlink:href="#Gradiente_sem_nome_49"></linearGradient>
    <linearGradient id="Gradiente_sem_nome_49-3" data-name="Gradiente sem nome 49" x1="103.82" y1="48.88" x2="196.01" y2="48.88" xlink:href="#Gradiente_sem_nome_49"></linearGradient>
    <linearGradient id="Gradiente_sem_nome_49-4" data-name="Gradiente sem nome 49" x1="103.82" y1="34.41" x2="196.01" y2="34.41" xlink:href="#Gradiente_sem_nome_49"></linearGradient>
    <linearGradient id="Gradiente_sem_nome_49-5" data-name="Gradiente sem nome 49" x1="103.82" y1="51.19" x2="196.01" y2="51.19" xlink:href="#Gradiente_sem_nome_49"></linearGradient>
    <linearGradient id="Gradiente_sem_nome_49-6" data-name="Gradiente sem nome 49" x1="103.82" y1="63.16" x2="196.01" y2="63.16" xlink:href="#Gradiente_sem_nome_49"></linearGradient>
    <linearGradient id="Gradiente_sem_nome_49-7" data-name="Gradiente sem nome 49" x1="103.82" y1="32.33" x2="196.01" y2="32.33" xlink:href="#Gradiente_sem_nome_49"></linearGradient>
  </defs>
  <g>
    <text class="cls-6" transform="translate(47.92 134.02)"><tspan x="0" y="0">Enriquecimento</tspan></text>
    <path class="cls-3" d="M43.11,124c-.84,0-1.53-.69-1.53-1.53v-2.92h-2.08v4.45h-4.45v2.08h2.92c.84,0,1.53.69,1.53,1.53v2.92h2.08v-4.45h4.45v-2.08h-2.92Z"></path>
  </g>
  <g>
    <g id="Ellipse_129" data-name="Ellipse 129">
      <path class="cls-8" d="M143.91,84.15c-14.95,0-27.11-12.16-27.11-27.11s12.16-27.11,27.11-27.11,27.11,12.16,27.11,27.11-12.16,27.11-27.11,27.11ZM143.91,34.62c-12.37,0-22.43,10.06-22.43,22.43s10.06,22.43,22.43,22.43,22.43-10.06,22.43-22.43-10.06-22.43-22.43-22.43Z"></path>
    </g>
    <g id="Line_769" data-name="Line 769">
      <path class="cls-4" d="M177.75,93.22c-.6,0-1.2-.23-1.65-.68l-15.98-15.98c-.91-.91-.91-2.39,0-3.31.91-.91,2.39-.91,3.31,0l15.98,15.98c.91.91.91,2.39,0,3.31-.46.46-1.06.68-1.65.68Z"></path>
    </g>
    <g>
      <path class="cls-7" d="M101.97,55.37c-.54,0-1.09-.21-1.5-.62-.83-.83-.83-2.18,0-3.01l8.17-8.17c.76-.76,1.78-1.18,2.87-1.18s2.1.42,2.87,1.18l1.39,1.39c.83.83.83,2.18,0,3.01-.83.83-2.18.83-3.01,0l-1.25-1.25-8.03,8.03c-.42.42-.96.62-1.5.62Z"></path>
      <path class="cls-9" d="M101.97,40.1c-.54,0-1.09-.21-1.5-.62-.83-.83-.83-2.18,0-3.01l5.45-5.45c1.48-1.48,3.45-2.29,5.55-2.29s4.07.82,5.55,2.3l4.3,4.27c.83.83.84,2.17.01,3.01-.83.83-2.17.84-3.01.01l-4.3-4.28c-1.36-1.36-3.74-1.36-5.09,0l-5.45,5.45c-.42.42-.96.62-1.5.62Z"></path>
      <path class="cls-1" d="M142.05,60.23c-1.09,0-2.1-.42-2.87-1.18l-11.27-11.19c-.83-.83-.84-2.17-.01-3.01.83-.83,2.17-.84,3.01,0l11.14,11.06,13.09-13.13c.83-.83,2.18-.83,3.01,0,.83.83.83,2.17,0,3.01l-13.23,13.27c-.76.76-1.78,1.18-2.87,1.18Z"></path>
      <path class="cls-5" d="M142.01,73.97c-2.01,0-4.02-.76-5.55-2.29l-12.05-12.05c-.83-.83-.83-2.18,0-3.01.83-.83,2.18-.83,3.01,0l12.05,12.05c1.4,1.4,3.68,1.4,5.08,0l15.69-15.69c.83-.83,2.18-.83,3.01,0,.83.83.83,2.18,0,3.01l-15.69,15.69c-1.53,1.53-3.54,2.29-5.55,2.29Z"></path>
      <path class="cls-2" d="M172.46,45.9c-.54,0-1.09-.21-1.5-.62-.83-.83-.83-2.18,0-3.01l5.71-5.71c.8-.8,2.21-.8,3.01,0l2.77,2.77,2.63-15.86-15.86,2.63,2.77,2.77c.83.83.83,2.17,0,3l-4.36,4.38c-.83.83-2.18.83-3.01,0-.83-.83-.83-2.17,0-3.01l2.86-2.87-4.2-4.2c-.56-.56-.76-1.39-.52-2.15.24-.76.89-1.32,1.68-1.45l22.87-3.8c.68-.11,1.37.11,1.85.59s.71,1.17.59,1.85l-3.8,22.87c-.13.79-.69,1.43-1.45,1.68-.76.24-1.59.04-2.15-.52l-4.19-4.19-4.21,4.21c-.42.42-.96.62-1.5.62Z"></path>
    </g>
  </g>
</svg>