<?xml version="1.0" encoding="UTF-8"?>
<svg id="Camada_1" data-name="Camada 1" xmlns="http://www.w3.org/2000/svg" xmlns:xlink="http://www.w3.org/1999/xlink" viewBox="0 0 223 153">
  <defs>
    
    <linearGradient id="Gradiente_sem_nome_49" data-name="Gradiente sem nome 49" x1="84.06" y1="54.04" x2="140.9" y2="54.04" gradientUnits="userSpaceOnUse">
      <stop offset="0" stop-color="#fff"></stop>
      <stop offset="1" stop-color="#b3b3b3"></stop>
    </linearGradient>
    <clipPath id="clippath">
      <path class="cls-59" d="M97.69,50.31h-1.31c-1.37,0-2.49,1.12-2.49,2.49v2.49c0,1.37,1.12,2.49,2.49,2.49h1.31v-7.46Z"></path>
    </clipPath>
    <linearGradient id="Gradiente_sem_nome_49-2" data-name="Gradiente sem nome 49" x1="84.06" y1="54.04" x2="140.9" y2="54.04" xlink:href="#Gradiente_sem_nome_49"></linearGradient>
    <linearGradient id="Gradiente_sem_nome_49-3" data-name="Gradiente sem nome 49" x1="84.06" y1="54.04" x2="140.9" y2="54.04" xlink:href="#Gradiente_sem_nome_49"></linearGradient>
    <linearGradient id="Gradiente_sem_nome_49-4" data-name="Gradiente sem nome 49" x1="84.06" y1="54.04" x2="140.9" y2="54.04" xlink:href="#Gradiente_sem_nome_49"></linearGradient>
    <linearGradient id="Gradiente_sem_nome_49-5" data-name="Gradiente sem nome 49" x1="84.06" y1="54.04" x2="140.9" y2="54.04" xlink:href="#Gradiente_sem_nome_49"></linearGradient>
    <linearGradient id="Gradiente_sem_nome_49-6" data-name="Gradiente sem nome 49" x1="84.06" y1="54.04" x2="140.9" y2="54.04" xlink:href="#Gradiente_sem_nome_49"></linearGradient>
    <linearGradient id="Gradiente_sem_nome_49-7" data-name="Gradiente sem nome 49" x1="84.06" y1="54.04" x2="140.9" y2="54.04" xlink:href="#Gradiente_sem_nome_49"></linearGradient>
    <linearGradient id="Gradiente_sem_nome_49-8" data-name="Gradiente sem nome 49" x1="84.06" y1="54.04" x2="140.9" y2="54.04" xlink:href="#Gradiente_sem_nome_49"></linearGradient>
    <linearGradient id="Gradiente_sem_nome_49-9" data-name="Gradiente sem nome 49" x1="84.06" y1="54.04" x2="140.9" y2="54.04" xlink:href="#Gradiente_sem_nome_49"></linearGradient>
    <linearGradient id="Gradiente_sem_nome_49-10" data-name="Gradiente sem nome 49" x1="84.06" y1="54.04" x2="140.9" y2="54.04" xlink:href="#Gradiente_sem_nome_49"></linearGradient>
    <linearGradient id="Gradiente_sem_nome_49-11" data-name="Gradiente sem nome 49" x1="84.06" y1="54.04" x2="140.9" y2="54.04" xlink:href="#Gradiente_sem_nome_49"></linearGradient>
    <linearGradient id="Gradiente_sem_nome_49-12" data-name="Gradiente sem nome 49" x1="84.06" y1="54.04" x2="140.9" y2="54.04" xlink:href="#Gradiente_sem_nome_49"></linearGradient>
    <linearGradient id="Gradiente_sem_nome_49-13" data-name="Gradiente sem nome 49" x1="84.06" y1="54.04" x2="140.9" y2="54.04" xlink:href="#Gradiente_sem_nome_49"></linearGradient>
    <linearGradient id="Gradiente_sem_nome_49-14" data-name="Gradiente sem nome 49" x1="84.06" y1="54.04" x2="140.9" y2="54.04" xlink:href="#Gradiente_sem_nome_49"></linearGradient>
    <linearGradient id="Gradiente_sem_nome_49-15" data-name="Gradiente sem nome 49" x1="84.06" y1="54.04" x2="140.9" y2="54.04" xlink:href="#Gradiente_sem_nome_49"></linearGradient>
    <linearGradient id="Gradiente_sem_nome_49-16" data-name="Gradiente sem nome 49" x1="84.06" y1="54.04" x2="140.9" y2="54.04" xlink:href="#Gradiente_sem_nome_49"></linearGradient>
    <linearGradient id="Gradiente_sem_nome_49-17" data-name="Gradiente sem nome 49" x1="84.06" y1="54.04" x2="140.9" y2="54.04" xlink:href="#Gradiente_sem_nome_49"></linearGradient>
    <linearGradient id="Gradiente_sem_nome_49-18" data-name="Gradiente sem nome 49" x1="84.06" y1="54.04" x2="140.9" y2="54.04" xlink:href="#Gradiente_sem_nome_49"></linearGradient>
    <linearGradient id="Gradiente_sem_nome_49-19" data-name="Gradiente sem nome 49" x1="84.06" y1="54.04" x2="140.9" y2="54.04" xlink:href="#Gradiente_sem_nome_49"></linearGradient>
    <linearGradient id="Gradiente_sem_nome_49-20" data-name="Gradiente sem nome 49" x1="84.06" y1="54.04" x2="140.9" y2="54.04" xlink:href="#Gradiente_sem_nome_49"></linearGradient>
    <linearGradient id="Gradiente_sem_nome_49-21" data-name="Gradiente sem nome 49" x1="84.06" y1="54.04" x2="140.9" y2="54.04" xlink:href="#Gradiente_sem_nome_49"></linearGradient>
    <linearGradient id="Gradiente_sem_nome_49-22" data-name="Gradiente sem nome 49" x1="84.06" y1="54.04" x2="140.9" y2="54.04" xlink:href="#Gradiente_sem_nome_49"></linearGradient>
    <linearGradient id="Gradiente_sem_nome_49-23" data-name="Gradiente sem nome 49" x1="84.06" y1="54.04" x2="140.9" y2="54.04" xlink:href="#Gradiente_sem_nome_49"></linearGradient>
    <linearGradient id="Gradiente_sem_nome_49-24" data-name="Gradiente sem nome 49" x1="84.06" y1="54.04" x2="140.9" y2="54.04" xlink:href="#Gradiente_sem_nome_49"></linearGradient>
    <linearGradient id="Gradiente_sem_nome_49-25" data-name="Gradiente sem nome 49" x1="84.06" y1="54.04" x2="140.9" y2="54.04" xlink:href="#Gradiente_sem_nome_49"></linearGradient>
    <linearGradient id="Gradiente_sem_nome_49-26" data-name="Gradiente sem nome 49" x1="84.06" y1="54.04" x2="140.9" y2="54.04" xlink:href="#Gradiente_sem_nome_49"></linearGradient>
    <linearGradient id="Gradiente_sem_nome_49-27" data-name="Gradiente sem nome 49" x1="84.06" y1="54.04" x2="140.9" y2="54.04" xlink:href="#Gradiente_sem_nome_49"></linearGradient>
    <linearGradient id="Gradiente_sem_nome_49-28" data-name="Gradiente sem nome 49" x1="84.06" y1="54.04" x2="140.9" y2="54.04" xlink:href="#Gradiente_sem_nome_49"></linearGradient>
    <linearGradient id="Gradiente_sem_nome_49-29" data-name="Gradiente sem nome 49" x1="84.06" y1="54.04" x2="140.9" y2="54.04" xlink:href="#Gradiente_sem_nome_49"></linearGradient>
    <linearGradient id="Gradiente_sem_nome_49-30" data-name="Gradiente sem nome 49" x1="84.06" y1="54.04" x2="140.9" y2="54.04" xlink:href="#Gradiente_sem_nome_49"></linearGradient>
    <linearGradient id="Gradiente_sem_nome_49-31" data-name="Gradiente sem nome 49" x1="84.06" y1="54.04" x2="140.9" y2="54.04" xlink:href="#Gradiente_sem_nome_49"></linearGradient>
    <linearGradient id="Gradiente_sem_nome_49-32" data-name="Gradiente sem nome 49" x1="84.06" y1="54.04" x2="140.9" y2="54.04" xlink:href="#Gradiente_sem_nome_49"></linearGradient>
    <linearGradient id="Gradiente_sem_nome_49-33" data-name="Gradiente sem nome 49" x1="84.06" y1="54.04" x2="140.9" y2="54.04" xlink:href="#Gradiente_sem_nome_49"></linearGradient>
    <linearGradient id="Gradiente_sem_nome_49-34" data-name="Gradiente sem nome 49" x1="84.06" y1="54.04" x2="140.9" y2="54.04" xlink:href="#Gradiente_sem_nome_49"></linearGradient>
    <linearGradient id="Gradiente_sem_nome_49-35" data-name="Gradiente sem nome 49" x1="84.06" y1="54.04" x2="140.9" y2="54.04" xlink:href="#Gradiente_sem_nome_49"></linearGradient>
    <linearGradient id="Gradiente_sem_nome_49-36" data-name="Gradiente sem nome 49" x1="84.06" y1="54.04" x2="140.9" y2="54.04" xlink:href="#Gradiente_sem_nome_49"></linearGradient>
    <linearGradient id="Gradiente_sem_nome_49-37" data-name="Gradiente sem nome 49" x1="84.06" y1="54.04" x2="140.9" y2="54.04" xlink:href="#Gradiente_sem_nome_49"></linearGradient>
    <linearGradient id="Gradiente_sem_nome_49-38" data-name="Gradiente sem nome 49" x1="84.06" y1="54.04" x2="140.9" y2="54.04" xlink:href="#Gradiente_sem_nome_49"></linearGradient>
    <linearGradient id="Gradiente_sem_nome_49-39" data-name="Gradiente sem nome 49" x1="84.06" y1="54.04" x2="140.9" y2="54.04" xlink:href="#Gradiente_sem_nome_49"></linearGradient>
    <linearGradient id="Gradiente_sem_nome_49-40" data-name="Gradiente sem nome 49" x1="84.06" y1="54.04" x2="140.9" y2="54.04" xlink:href="#Gradiente_sem_nome_49"></linearGradient>
    <linearGradient id="Gradiente_sem_nome_49-41" data-name="Gradiente sem nome 49" x1="84.06" y1="54.04" x2="140.9" y2="54.04" xlink:href="#Gradiente_sem_nome_49"></linearGradient>
    <linearGradient id="Gradiente_sem_nome_49-42" data-name="Gradiente sem nome 49" x1="84.06" y1="54.04" x2="140.9" y2="54.04" xlink:href="#Gradiente_sem_nome_49"></linearGradient>
    <linearGradient id="Gradiente_sem_nome_49-43" data-name="Gradiente sem nome 49" x1="84.06" y1="54.04" x2="140.9" y2="54.04" xlink:href="#Gradiente_sem_nome_49"></linearGradient>
    <linearGradient id="Gradiente_sem_nome_49-44" data-name="Gradiente sem nome 49" x1="84.06" y1="54.04" x2="140.9" y2="54.04" xlink:href="#Gradiente_sem_nome_49"></linearGradient>
    <linearGradient id="Gradiente_sem_nome_49-45" data-name="Gradiente sem nome 49" x1="84.06" y1="54.04" x2="140.9" y2="54.04" xlink:href="#Gradiente_sem_nome_49"></linearGradient>
    <linearGradient id="Gradiente_sem_nome_49-46" data-name="Gradiente sem nome 49" x1="84.06" y1="54.04" x2="140.9" y2="54.04" xlink:href="#Gradiente_sem_nome_49"></linearGradient>
    <linearGradient id="Gradiente_sem_nome_49-47" data-name="Gradiente sem nome 49" x1="84.06" y1="54.04" x2="140.9" y2="54.04" xlink:href="#Gradiente_sem_nome_49"></linearGradient>
    <linearGradient id="Gradiente_sem_nome_49-48" data-name="Gradiente sem nome 49" x1="84.06" y1="54.04" x2="140.9" y2="54.04" xlink:href="#Gradiente_sem_nome_49"></linearGradient>
    <linearGradient id="Gradiente_sem_nome_49-49" data-name="Gradiente sem nome 49" x1="84.06" y1="54.04" x2="140.9" y2="54.04" xlink:href="#Gradiente_sem_nome_49"></linearGradient>
    <linearGradient id="Gradiente_sem_nome_49-50" data-name="Gradiente sem nome 49" x1="84.06" y1="54.04" x2="140.9" y2="54.04" xlink:href="#Gradiente_sem_nome_49"></linearGradient>
    <linearGradient id="Gradiente_sem_nome_49-51" data-name="Gradiente sem nome 49" x1="84.06" y1="54.04" x2="140.9" y2="54.04" xlink:href="#Gradiente_sem_nome_49"></linearGradient>
    <linearGradient id="Gradiente_sem_nome_49-52" data-name="Gradiente sem nome 49" x1="84.06" y1="54.04" x2="140.9" y2="54.04" xlink:href="#Gradiente_sem_nome_49"></linearGradient>
    <linearGradient id="Gradiente_sem_nome_49-53" data-name="Gradiente sem nome 49" x1="84.06" y1="54.04" x2="140.9" y2="54.04" xlink:href="#Gradiente_sem_nome_49"></linearGradient>
    <linearGradient id="Gradiente_sem_nome_49-54" data-name="Gradiente sem nome 49" x1="84.06" y1="54.04" x2="140.9" y2="54.04" xlink:href="#Gradiente_sem_nome_49"></linearGradient>
    <linearGradient id="Gradiente_sem_nome_49-55" data-name="Gradiente sem nome 49" x1="84.06" y1="54.04" x2="140.9" y2="54.04" xlink:href="#Gradiente_sem_nome_49"></linearGradient>
    <linearGradient id="Gradiente_sem_nome_49-56" data-name="Gradiente sem nome 49" x1="84.06" y1="54.04" x2="140.9" y2="54.04" xlink:href="#Gradiente_sem_nome_49"></linearGradient>
    <linearGradient id="Gradiente_sem_nome_49-57" data-name="Gradiente sem nome 49" x1="84.06" y1="65.89" x2="140.9" y2="65.89" xlink:href="#Gradiente_sem_nome_49"></linearGradient>
    <linearGradient id="Gradiente_sem_nome_49-58" data-name="Gradiente sem nome 49" x1="84.06" y1="65.89" x2="140.9" y2="65.89" xlink:href="#Gradiente_sem_nome_49"></linearGradient>
    <linearGradient id="Gradiente_sem_nome_49-59" data-name="Gradiente sem nome 49" x1="84.06" y1="62.05" x2="140.9" y2="62.05" xlink:href="#Gradiente_sem_nome_49"></linearGradient>
    <linearGradient id="Gradiente_sem_nome_49-60" data-name="Gradiente sem nome 49" x1="84.06" y1="51.37" x2="140.9" y2="51.37" xlink:href="#Gradiente_sem_nome_49"></linearGradient>
    <linearGradient id="Gradiente_sem_nome_49-61" data-name="Gradiente sem nome 49" x1="84.06" y1="79.02" x2="140.9" y2="79.02" xlink:href="#Gradiente_sem_nome_49"></linearGradient>
    <linearGradient id="Gradiente_sem_nome_49-62" data-name="Gradiente sem nome 49" x1="84.06" y1="38.91" x2="140.9" y2="38.91" xlink:href="#Gradiente_sem_nome_49"></linearGradient>
    <linearGradient id="Gradiente_sem_nome_49-63" data-name="Gradiente sem nome 49" x1="84.06" y1="71.3" x2="140.9" y2="71.3" xlink:href="#Gradiente_sem_nome_49"></linearGradient>
    <linearGradient id="Gradiente_sem_nome_49-64" data-name="Gradiente sem nome 49" x1="84.06" y1="53.37" x2="140.9" y2="53.37" xlink:href="#Gradiente_sem_nome_49"></linearGradient>
    <linearGradient id="Gradiente_sem_nome_49-65" data-name="Gradiente sem nome 49" x1="84.06" y1="53.37" x2="140.9" y2="53.37" xlink:href="#Gradiente_sem_nome_49"></linearGradient>
    <linearGradient id="Gradiente_sem_nome_49-66" data-name="Gradiente sem nome 49" x1="84.06" y1="54.04" x2="140.9" y2="54.04" xlink:href="#Gradiente_sem_nome_49"></linearGradient>
    <linearGradient id="Gradiente_sem_nome_49-67" data-name="Gradiente sem nome 49" x1="84.06" y1="84.36" x2="140.9" y2="84.36" xlink:href="#Gradiente_sem_nome_49"></linearGradient>
  </defs>
  <g>
    <g>
      <path class="cls-59" d="M97.69,50.31h-1.31c-1.37,0-2.49,1.12-2.49,2.49v2.49c0,1.37,1.12,2.49,2.49,2.49h1.31v-7.46Z"></path>
      <g class="cls-63">
        <rect class="cls-24" x="93.89" y="50.31" width=".07" height="7.46"></rect>
        <rect class="cls-57" x="93.96" y="50.31" width=".07" height="7.46"></rect>
        <rect class="cls-60" x="94.03" y="50.31" width=".07" height="7.46"></rect>
        <rect class="cls-9" x="94.1" y="50.31" width=".07" height="7.46"></rect>
        <rect class="cls-25" x="94.17" y="50.31" width=".07" height="7.46"></rect>
        <rect class="cls-13" x="94.24" y="50.31" width=".07" height="7.46"></rect>
        <rect class="cls-6" x="94.31" y="50.31" width=".07" height="7.46"></rect>
        <rect class="cls-10" x="94.38" y="50.31" width=".07" height="7.46"></rect>
        <rect class="cls-49" x="94.45" y="50.31" width=".07" height="7.46"></rect>
        <rect class="cls-34" x="94.52" y="50.31" width=".07" height="7.46"></rect>
        <rect class="cls-15" x="94.6" y="50.31" width=".07" height="7.46"></rect>
        <rect class="cls-12" x="94.67" y="50.31" width=".07" height="7.46"></rect>
        <rect class="cls-69" x="94.74" y="50.31" width=".07" height="7.46"></rect>
        <rect class="cls-8" x="94.81" y="50.31" width=".07" height="7.46"></rect>
        <rect class="cls-50" x="94.88" y="50.31" width=".07" height="7.46"></rect>
        <rect class="cls-62" x="94.95" y="50.31" width=".07" height="7.46"></rect>
        <rect class="cls-32" x="95.02" y="50.31" width=".07" height="7.46"></rect>
        <rect class="cls-38" x="95.09" y="50.31" width=".07" height="7.46"></rect>
        <rect class="cls-4" x="95.16" y="50.31" width=".07" height="7.46"></rect>
        <rect class="cls-51" x="95.23" y="50.31" width=".07" height="7.46"></rect>
        <rect class="cls-23" x="95.3" y="50.31" width=".07" height="7.46"></rect>
        <rect class="cls-65" x="95.37" y="50.31" width=".07" height="7.46"></rect>
        <rect class="cls-33" x="95.44" y="50.31" width=".07" height="7.46"></rect>
        <rect class="cls-44" x="95.51" y="50.31" width=".07" height="7.46"></rect>
        <rect class="cls-58" x="95.58" y="50.31" width=".07" height="7.46"></rect>
        <rect class="cls-31" x="95.65" y="50.31" width=".07" height="7.46"></rect>
        <rect class="cls-16" x="95.72" y="50.31" width=".07" height="7.46"></rect>
        <rect class="cls-5" x="95.79" y="50.31" width=".07" height="7.46"></rect>
        <rect class="cls-29" x="95.86" y="50.31" width=".07" height="7.46"></rect>
        <rect class="cls-19" x="95.93" y="50.31" width=".07" height="7.46"></rect>
        <rect class="cls-67" x="96" y="50.31" width=".07" height="7.46"></rect>
        <rect class="cls-66" x="96.07" y="50.31" width=".07" height="7.46"></rect>
        <rect class="cls-68" x="96.14" y="50.31" width=".07" height="7.46"></rect>
        <rect class="cls-14" x="96.21" y="50.31" width=".07" height="7.46"></rect>
        <rect class="cls-45" x="96.28" y="50.31" width=".07" height="7.46"></rect>
        <rect class="cls-41" x="96.35" y="50.31" width=".07" height="7.46"></rect>
        <rect class="cls-47" x="96.42" y="50.31" width=".07" height="7.46"></rect>
        <rect class="cls-70" x="96.49" y="50.31" width=".07" height="7.46"></rect>
        <rect class="cls-43" x="96.56" y="50.31" width=".07" height="7.46"></rect>
        <rect class="cls-21" x="96.63" y="50.31" width=".07" height="7.46"></rect>
        <rect class="cls-56" x="96.7" y="50.31" width=".07" height="7.46"></rect>
        <rect class="cls-2" x="96.78" y="50.31" width=".07" height="7.46"></rect>
        <rect class="cls-22" x="96.85" y="50.31" width=".07" height="7.46"></rect>
        <rect class="cls-40" x="96.92" y="50.31" width=".07" height="7.46"></rect>
        <rect class="cls-37" x="96.99" y="50.31" width=".07" height="7.46"></rect>
        <rect class="cls-30" x="97.06" y="50.31" width=".07" height="7.46"></rect>
        <rect class="cls-28" x="97.13" y="50.31" width=".07" height="7.46"></rect>
        <rect class="cls-39" x="97.2" y="50.31" width=".07" height="7.46"></rect>
        <rect class="cls-27" x="97.27" y="50.31" width=".07" height="7.46"></rect>
        <rect class="cls-3" x="97.34" y="50.31" width=".07" height="7.46"></rect>
        <rect class="cls-52" x="97.41" y="50.31" width=".07" height="7.46"></rect>
        <rect class="cls-42" x="97.48" y="50.31" width=".07" height="7.46"></rect>
        <rect class="cls-1" x="97.55" y="50.31" width=".07" height="7.46"></rect>
        <rect class="cls-7" x="97.62" y="50.31" width=".07" height="7.46"></rect>
      </g>
    </g>
    <path class="cls-35" d="M127.29,50.31h1.31c1.37,0,2.49,1.12,2.49,2.49v2.49c0,1.37-1.12,2.49-2.49,2.49h-1.31v-7.46Z"></path>
    <g>
      <path class="cls-55" d="M107.13,70.3c-.7,0-1.26-.56-1.26-1.26v-6.3c0-.7.56-1.26,1.26-1.26s1.26.56,1.26,1.26v6.3c0,.7-.56,1.26-1.26,1.26Z"></path>
      <path class="cls-54" d="M117.85,70.3c-.7,0-1.26-.56-1.26-1.26v-6.3c0-.7.56-1.26,1.26-1.26s1.26.56,1.26,1.26v6.3c0,.7-.56,1.26-1.26,1.26Z"></path>
    </g>
    <path class="cls-11" d="M128.87,81.74c-1.05,0-1.89-.85-1.89-1.89s.85-1.89,1.89-1.89c4.85,0,8.79-3.94,8.79-8.79v-24.92c0-1.05.85-1.89,1.89-1.89s1.89.85,1.89,1.89v24.92c0,6.93-5.64,12.57-12.57,12.57Z"></path>
    <path class="cls-26" d="M86.15,71.06c-1.05,0-1.89-.85-1.89-1.89v-24.92c0-6.93,5.64-12.57,12.57-12.57,1.05,0,1.89.85,1.89,1.89s-.85,1.89-1.89,1.89c-4.85,0-8.79,3.94-8.79,8.79v24.92c0,1.05-.85,1.89-1.89,1.89Z"></path>
    <path class="cls-48" d="M86.15,90.77c-1.05,0-1.89-.85-1.89-1.89v-19.71c0-1.05.85-1.89,1.89-1.89s1.89.85,1.89,1.89v19.71c0,1.05-.85,1.89-1.89,1.89Z"></path>
    <path class="cls-20" d="M139.55,46.14c-1.05,0-1.89-.85-1.89-1.89,0-4.85-3.94-8.79-8.79-8.79h-32.04c-1.05,0-1.89-.85-1.89-1.89s.85-1.89,1.89-1.89h32.04c6.93,0,12.57,5.64,12.57,12.57,0,1.05-.85,1.89-1.89,1.89Z"></path>
    <path class="cls-36" d="M128.76,74.82c-.7,0-1.26-.56-1.26-1.26,0-1.8-1.46-3.26-3.26-3.26h-23.49c-1.8,0-3.26,1.46-3.26,3.26,0,.7-.56,1.26-1.26,1.26s-1.26-.56-1.26-1.26c0-3.19,2.59-5.78,5.78-5.78h23.49c3.19,0,5.78,2.59,5.78,5.78,0,.7-.56,1.26-1.26,1.26Z"></path>
    <g>
      <path class="cls-53" d="M109.79,55.87c-.52,0-.95-.42-.95-.95,0-1.19-.97-2.16-2.16-2.16s-2.16.97-2.16,2.16c0,.52-.42.95-.95.95s-.95-.42-.95-.95c0-2.24,1.82-4.05,4.05-4.05s4.05,1.82,4.05,4.05c0,.52-.42.95-.95.95Z"></path>
      <path class="cls-64" d="M121.41,55.87c-.52,0-.95-.42-.95-.95,0-1.19-.97-2.16-2.16-2.16s-2.16.97-2.16,2.16c0,.52-.42.95-.95.95s-.95-.42-.95-.95c0-2.24,1.82-4.05,4.05-4.05s4.05,1.82,4.05,4.05c0,.52-.42.95-.95.95Z"></path>
    </g>
    <path class="cls-46" d="M121.19,64h-17.4c-3.44,0-6.23-2.8-6.23-6.23v-7.46c0-3.44,2.8-6.23,6.23-6.23h17.4c3.44,0,6.23,2.8,6.23,6.23v7.46c0,3.44-2.8,6.23-6.23,6.23ZM103.79,46.6c-2.05,0-3.71,1.66-3.71,3.71v7.46c0,2.05,1.66,3.71,3.71,3.71h17.4c2.05,0,3.71-1.66,3.71-3.71v-7.46c0-2.05-1.66-3.71-3.71-3.71h-17.4Z"></path>
    <path class="cls-61" d="M86.15,90.77c-.54,0-1.07-.23-1.45-.67-.67-.8-.57-1.99.22-2.67l11.21-9.48h32.74c1.05,0,1.89.85,1.89,1.89s-.85,1.89-1.89,1.89h-31.35l-10.15,8.58c-.36.3-.79.45-1.22.45Z"></path>
  </g>
  <text class="cls-18" transform="translate(76.52 124.44)"><tspan x="0" y="0">ChatBot</tspan></text>
  <path class="cls-17" d="M69.74,117.37c-.84,0-1.53-.69-1.53-1.53v-2.92h-2.08v4.45h-4.45v2.08h2.92c.84,0,1.53.69,1.53,1.53v2.92h2.08v-4.45h4.45v-2.08h-2.92Z"></path>
</svg>