<?xml version="1.0" encoding="UTF-8"?>
<svg id="Camada_1" data-name="Camada 1" xmlns="http://www.w3.org/2000/svg" xmlns:xlink="http://www.w3.org/1999/xlink" viewBox="0 0 223 153">
  <defs>
    
    <linearGradient id="Gradiente_sem_nome_49" data-name="Gradiente sem nome 49" x1="75.54" y1="61.5" x2="158.41" y2="61.5" gradientUnits="userSpaceOnUse">
      <stop offset="0" stop-color="#fff"></stop>
      <stop offset="1" stop-color="#b3b3b3"></stop>
    </linearGradient>
    <linearGradient id="Gradiente_sem_nome_49-2" data-name="Gradiente sem nome 49" x1="75.54" y1="65.04" x2="158.41" y2="65.04" xlink:href="#Gradiente_sem_nome_49"></linearGradient>
    <linearGradient id="Gradiente_sem_nome_49-3" data-name="Gradiente sem nome 49" x1="75.54" y1="45.28" x2="158.41" y2="45.28" xlink:href="#Gradiente_sem_nome_49"></linearGradient>
    <linearGradient id="Gradiente_sem_nome_49-4" data-name="Gradiente sem nome 49" x1="75.54" y1="61.5" x2="158.41" y2="61.5" xlink:href="#Gradiente_sem_nome_49"></linearGradient>
    <linearGradient id="Gradiente_sem_nome_49-5" data-name="Gradiente sem nome 49" x1="75.54" y1="61.5" x2="158.41" y2="61.5" xlink:href="#Gradiente_sem_nome_49"></linearGradient>
    <linearGradient id="Gradiente_sem_nome_49-6" data-name="Gradiente sem nome 49" x1="75.54" y1="75.09" x2="158.41" y2="75.09" xlink:href="#Gradiente_sem_nome_49"></linearGradient>
    <linearGradient id="Gradiente_sem_nome_49-7" data-name="Gradiente sem nome 49" x1="75.54" y1="75.09" x2="158.41" y2="75.09" xlink:href="#Gradiente_sem_nome_49"></linearGradient>
    <linearGradient id="Gradiente_sem_nome_49-8" data-name="Gradiente sem nome 49" x1="75.54" y1="61.5" x2="158.41" y2="61.5" xlink:href="#Gradiente_sem_nome_49"></linearGradient>
    <linearGradient id="Gradiente_sem_nome_49-9" data-name="Gradiente sem nome 49" x1="75.54" y1="47.91" x2="158.41" y2="47.91" xlink:href="#Gradiente_sem_nome_49"></linearGradient>
    <linearGradient id="Gradiente_sem_nome_49-10" data-name="Gradiente sem nome 49" x1="75.54" y1="47.91" x2="158.41" y2="47.91" xlink:href="#Gradiente_sem_nome_49"></linearGradient>
    <linearGradient id="Gradiente_sem_nome_49-11" data-name="Gradiente sem nome 49" x1="75.54" y1="75.09" x2="158.41" y2="75.09" xlink:href="#Gradiente_sem_nome_49"></linearGradient>
    <linearGradient id="Gradiente_sem_nome_49-12" data-name="Gradiente sem nome 49" x1="75.54" y1="47.91" x2="158.41" y2="47.91" xlink:href="#Gradiente_sem_nome_49"></linearGradient>
    <linearGradient id="Gradiente_sem_nome_49-13" data-name="Gradiente sem nome 49" x1="75.54" y1="72.35" x2="158.41" y2="72.35" xlink:href="#Gradiente_sem_nome_49"></linearGradient>
    <linearGradient id="Gradiente_sem_nome_49-14" data-name="Gradiente sem nome 49" x1="75.54" y1="37.98" x2="158.41" y2="37.98" xlink:href="#Gradiente_sem_nome_49"></linearGradient>
    <linearGradient id="Gradiente_sem_nome_49-15" data-name="Gradiente sem nome 49" x1="75.54" y1="28.05" x2="158.41" y2="28.05" xlink:href="#Gradiente_sem_nome_49"></linearGradient>
    <linearGradient id="Gradiente_sem_nome_49-16" data-name="Gradiente sem nome 49" x1="75.54" y1="28.05" x2="158.41" y2="28.05" xlink:href="#Gradiente_sem_nome_49"></linearGradient>
    <linearGradient id="Gradiente_sem_nome_49-17" data-name="Gradiente sem nome 49" x1="75.54" y1="28.05" x2="158.41" y2="28.05" xlink:href="#Gradiente_sem_nome_49"></linearGradient>
    <linearGradient id="Gradiente_sem_nome_49-18" data-name="Gradiente sem nome 49" x1="75.54" y1="28.05" x2="158.41" y2="28.05" xlink:href="#Gradiente_sem_nome_49"></linearGradient>
  </defs>
  <g>
    <path class="cls-17" d="M126.78,61.5l2.64-2.64c.73-.73.73-1.92,0-2.65-.73-.73-1.92-.73-2.65,0l-2.64,2.64-2.64-2.64c-.73-.73-1.92-.73-2.65,0-.73.73-.73,1.92,0,2.65l2.64,2.64-2.64,2.64c-.73.73-.73,1.92,0,2.65.37.37.85.55,1.33.55s.96-.18,1.33-.55l2.64-2.64,2.64,2.64c.37.37.85.55,1.33.55s.96-.18,1.33-.55c.73-.73.73-1.92,0-2.65l-2.64-2.64Z"></path>
    <path class="cls-10" d="M147.49,89.72h-36.8c-1.37,0-2.48-1.11-2.48-2.48s1.11-2.48,2.48-2.48h36.8c2.5,0,4.53-2.03,4.53-4.53v-37.38c0-1.37,1.11-2.48,2.48-2.48s2.48,1.11,2.48,2.48v37.38c0,5.23-4.26,9.49-9.49,9.49Z"></path>
    <path class="cls-16" d="M78.57,64.99c-1.37,0-2.48-1.11-2.48-2.48v-27.45c0-5.23,4.26-9.49,9.49-9.49,1.37,0,2.48,1.11,2.48,2.48s-1.11,2.48-2.48,2.48c-2.5,0-4.53,2.03-4.53,4.53v27.45c0,1.37-1.11,2.48-2.48,2.48Z"></path>
    <path class="cls-18" d="M95.51,63.98h-3.5c-1.37,0-2.48-1.11-2.48-2.48s1.11-2.48,2.48-2.48h3.5c1.37,0,2.48,1.11,2.48,2.48s-1.11,2.48-2.48,2.48Z"></path>
    <path class="cls-3" d="M110.7,63.98h-3.5c-1.37,0-2.48-1.11-2.48-2.48s1.11-2.48,2.48-2.48h3.5c1.37,0,2.48,1.11,2.48,2.48s-1.11,2.48-2.48,2.48Z"></path>
    <path class="cls-11" d="M95.51,77.57h-3.5c-1.37,0-2.48-1.11-2.48-2.48s1.11-2.48,2.48-2.48h3.5c1.37,0,2.48,1.11,2.48,2.48s-1.11,2.48-2.48,2.48Z"></path>
    <path class="cls-6" d="M110.7,77.57h-3.5c-1.37,0-2.48-1.11-2.48-2.48s1.11-2.48,2.48-2.48h3.5c1.37,0,2.48,1.11,2.48,2.48s-1.11,2.48-2.48,2.48Z"></path>
    <path class="cls-1" d="M141.07,63.98h-3.5c-1.37,0-2.48-1.11-2.48-2.48s1.11-2.48,2.48-2.48h3.5c1.37,0,2.48,1.11,2.48,2.48s-1.11,2.48-2.48,2.48Z"></path>
    <path class="cls-4" d="M110.7,50.39h-3.5c-1.37,0-2.48-1.11-2.48-2.48s1.11-2.48,2.48-2.48h3.5c1.37,0,2.48,1.11,2.48,2.48s-1.11,2.48-2.48,2.48Z"></path>
    <path class="cls-14" d="M141.07,50.39h-3.5c-1.37,0-2.48-1.11-2.48-2.48s1.11-2.48,2.48-2.48h3.5c1.37,0,2.48,1.11,2.48,2.48s-1.11,2.48-2.48,2.48Z"></path>
    <path class="cls-13" d="M125.88,77.57h-3.5c-1.37,0-2.48-1.11-2.48-2.48s1.11-2.48,2.48-2.48h3.5c1.37,0,2.48,1.11,2.48,2.48s-1.11,2.48-2.48,2.48Z"></path>
    <path class="cls-7" d="M125.88,50.39h-3.5c-1.37,0-2.48-1.11-2.48-2.48s1.11-2.48,2.48-2.48h3.5c1.37,0,2.48,1.11,2.48,2.48s-1.11,2.48-2.48,2.48Z"></path>
    <path class="cls-5" d="M110.7,89.72h-25.12c-5.23,0-9.49-4.26-9.49-9.49v-22.78c0-1.37,1.11-2.48,2.48-2.48s2.48,1.11,2.48,2.48v22.78c0,2.5,2.03,4.53,4.53,4.53h25.12c1.37,0,2.48,1.11,2.48,2.48s-1.11,2.48-2.48,2.48Z"></path>
    <path class="cls-20" d="M154.5,50.39c-1.37,0-2.48-1.11-2.48-2.48v-12.85c0-2.5-2.03-4.53-4.53-4.53h-61.91c-1.37,0-2.48-1.11-2.48-2.48s1.11-2.48,2.48-2.48h61.91c5.23,0,9.49,4.26,9.49,9.49v12.85c0,1.37-1.11,2.48-2.48,2.48Z"></path>
    <path class="cls-2" d="M94.34,36.37c-1.37,0-2.48-1.11-2.48-2.48v-11.68c0-1.37,1.11-2.48,2.48-2.48s2.48,1.11,2.48,2.48v11.68c0,1.37-1.11,2.48-2.48,2.48Z"></path>
    <path class="cls-15" d="M109.14,36.37c-1.37,0-2.48-1.11-2.48-2.48v-11.68c0-1.37,1.11-2.48,2.48-2.48s2.48,1.11,2.48,2.48v11.68c0,1.37-1.11,2.48-2.48,2.48Z"></path>
    <path class="cls-19" d="M123.94,36.37c-1.37,0-2.48-1.11-2.48-2.48v-11.68c0-1.37,1.11-2.48,2.48-2.48s2.48,1.11,2.48,2.48v11.68c0,1.37-1.11,2.48-2.48,2.48Z"></path>
    <path class="cls-12" d="M138.73,36.37c-1.37,0-2.48-1.11-2.48-2.48v-11.68c0-1.37,1.11-2.48,2.48-2.48s2.48,1.11,2.48,2.48v11.68c0,1.37-1.11,2.48-2.48,2.48Z"></path>
  </g>
  <g>
    <text class="cls-9" transform="translate(72.12 130.52)"><tspan x="0" y="0">Agenda</tspan></text>
    <path class="cls-8" d="M67.31,120.5c-.84,0-1.53-.69-1.53-1.53v-2.92h-2.08v4.45h-4.45v2.08h2.92c.84,0,1.53.69,1.53,1.53v2.92h2.08v-4.45h4.45v-2.08h-2.92Z"></path>
  </g>
</svg>