<?xml version="1.0" encoding="UTF-8"?>
<svg id="Camada_1" data-name="Camada 1" xmlns="http://www.w3.org/2000/svg" xmlns:xlink="http://www.w3.org/1999/xlink" viewBox="0 0 223 153">
  <defs>
    
    <linearGradient id="linear-gradient" x1="76.34" y1="92.05" x2="167.88" y2="92.05" gradientUnits="userSpaceOnUse">
      <stop offset="0" stop-color="#3db6f3"></stop>
      <stop offset=".2" stop-color="#3db6f3"></stop>
      <stop offset="1" stop-color="#3a60ff"></stop>
    </linearGradient>
    <linearGradient id="linear-gradient-2" x1="76.34" y1="44.45" x2="167.88" y2="44.45" xlink:href="#linear-gradient"></linearGradient>
    <linearGradient id="linear-gradient-3" x1="76.34" y1="64.16" x2="167.88" y2="64.16" xlink:href="#linear-gradient"></linearGradient>
    <linearGradient id="linear-gradient-4" x1="76.34" y1="64.16" x2="167.88" y2="64.16" xlink:href="#linear-gradient"></linearGradient>
    <linearGradient id="linear-gradient-5" x1="76.34" y1="83.31" x2="167.88" y2="83.31" xlink:href="#linear-gradient"></linearGradient>
    <linearGradient id="linear-gradient-6" x1="76.34" y1="83.31" x2="167.88" y2="83.31" xlink:href="#linear-gradient"></linearGradient>
    <linearGradient id="linear-gradient-7" x1="76.34" y1="63.07" x2="167.88" y2="63.07" xlink:href="#linear-gradient"></linearGradient>
    <linearGradient id="linear-gradient-8" x1="76.34" y1="63.07" x2="167.88" y2="63.07" xlink:href="#linear-gradient"></linearGradient>
    <linearGradient id="linear-gradient-9" x1="76.34" y1="64.16" x2="167.88" y2="64.16" xlink:href="#linear-gradient"></linearGradient>
    <linearGradient id="linear-gradient-10" x1="76.34" y1="32.48" x2="167.88" y2="32.48" xlink:href="#linear-gradient"></linearGradient>
    <linearGradient id="linear-gradient-11" x1="76.34" y1="32.48" x2="167.88" y2="32.48" xlink:href="#linear-gradient"></linearGradient>
    <clipPath id="clippath">
      <path class="cls-99" d="M140,34.73c-1.24,0-2.25-1.01-2.25-2.25s1.01-2.25,2.25-2.25,2.25,1.01,2.25,2.25-1.01,2.25-2.25,2.25Z"></path>
    </clipPath>
    <linearGradient id="linear-gradient-12" x1="76.34" y1="32.48" x2="167.88" y2="32.48" xlink:href="#linear-gradient"></linearGradient>
    <linearGradient id="linear-gradient-13" x1="76.34" y1="32.48" x2="167.88" y2="32.48" xlink:href="#linear-gradient"></linearGradient>
    <linearGradient id="linear-gradient-14" x1="76.34" y1="32.48" x2="167.88" y2="32.48" xlink:href="#linear-gradient"></linearGradient>
    <linearGradient id="linear-gradient-15" x1="76.34" y1="32.48" x2="167.88" y2="32.48" xlink:href="#linear-gradient"></linearGradient>
    <linearGradient id="linear-gradient-16" x1="76.34" y1="32.48" x2="167.88" y2="32.48" xlink:href="#linear-gradient"></linearGradient>
    <linearGradient id="linear-gradient-17" x1="76.34" y1="32.48" x2="167.88" y2="32.48" xlink:href="#linear-gradient"></linearGradient>
    <linearGradient id="linear-gradient-18" x1="76.34" y1="32.48" x2="167.88" y2="32.48" xlink:href="#linear-gradient"></linearGradient>
    <linearGradient id="linear-gradient-19" x1="76.34" y1="32.48" x2="167.88" y2="32.48" xlink:href="#linear-gradient"></linearGradient>
    <linearGradient id="linear-gradient-20" x1="76.34" y1="32.48" x2="167.88" y2="32.48" xlink:href="#linear-gradient"></linearGradient>
    <linearGradient id="linear-gradient-21" x1="76.34" y1="32.48" x2="167.88" y2="32.48" xlink:href="#linear-gradient"></linearGradient>
    <linearGradient id="linear-gradient-22" x1="76.34" y1="32.48" x2="167.88" y2="32.48" xlink:href="#linear-gradient"></linearGradient>
    <linearGradient id="linear-gradient-23" x1="76.34" y1="32.48" x2="167.88" y2="32.48" xlink:href="#linear-gradient"></linearGradient>
    <linearGradient id="linear-gradient-24" x1="76.34" y1="32.48" x2="167.88" y2="32.48" xlink:href="#linear-gradient"></linearGradient>
    <linearGradient id="linear-gradient-25" x1="76.34" y1="32.48" x2="167.88" y2="32.48" xlink:href="#linear-gradient"></linearGradient>
    <linearGradient id="linear-gradient-26" x1="76.34" y1="32.48" x2="167.88" y2="32.48" xlink:href="#linear-gradient"></linearGradient>
    <linearGradient id="linear-gradient-27" x1="76.34" y1="32.48" x2="167.88" y2="32.48" xlink:href="#linear-gradient"></linearGradient>
    <linearGradient id="linear-gradient-28" x1="76.34" y1="32.48" x2="167.88" y2="32.48" xlink:href="#linear-gradient"></linearGradient>
    <linearGradient id="linear-gradient-29" x1="76.34" y1="32.48" x2="167.88" y2="32.48" xlink:href="#linear-gradient"></linearGradient>
    <linearGradient id="linear-gradient-30" x1="76.34" y1="32.48" x2="167.88" y2="32.48" xlink:href="#linear-gradient"></linearGradient>
    <linearGradient id="linear-gradient-31" x1="76.34" y1="32.48" x2="167.88" y2="32.48" xlink:href="#linear-gradient"></linearGradient>
    <linearGradient id="linear-gradient-32" x1="76.34" y1="32.48" x2="167.88" y2="32.48" xlink:href="#linear-gradient"></linearGradient>
    <linearGradient id="linear-gradient-33" x1="76.34" y1="32.48" x2="167.88" y2="32.48" xlink:href="#linear-gradient"></linearGradient>
    <linearGradient id="linear-gradient-34" x1="76.34" y1="32.48" x2="167.88" y2="32.48" xlink:href="#linear-gradient"></linearGradient>
    <linearGradient id="linear-gradient-35" x1="76.34" y1="32.48" x2="167.88" y2="32.48" xlink:href="#linear-gradient"></linearGradient>
    <linearGradient id="linear-gradient-36" x1="76.34" y1="32.48" x2="167.88" y2="32.48" xlink:href="#linear-gradient"></linearGradient>
    <linearGradient id="linear-gradient-37" x1="76.34" y1="32.48" x2="167.88" y2="32.48" xlink:href="#linear-gradient"></linearGradient>
    <linearGradient id="linear-gradient-38" x1="76.34" y1="32.48" x2="167.88" y2="32.48" xlink:href="#linear-gradient"></linearGradient>
    <linearGradient id="linear-gradient-39" x1="76.34" y1="32.48" x2="167.88" y2="32.48" xlink:href="#linear-gradient"></linearGradient>
    <linearGradient id="linear-gradient-40" x1="76.34" y1="32.48" x2="167.88" y2="32.48" xlink:href="#linear-gradient"></linearGradient>
    <linearGradient id="linear-gradient-41" x1="76.34" y1="32.48" x2="167.88" y2="32.48" xlink:href="#linear-gradient"></linearGradient>
    <linearGradient id="linear-gradient-42" x1="76.34" y1="32.48" x2="167.88" y2="32.48" xlink:href="#linear-gradient"></linearGradient>
    <linearGradient id="linear-gradient-43" x1="76.34" y1="32.48" x2="167.88" y2="32.48" xlink:href="#linear-gradient"></linearGradient>
    <linearGradient id="linear-gradient-44" x1="76.34" y1="32.48" x2="167.88" y2="32.48" xlink:href="#linear-gradient"></linearGradient>
    <linearGradient id="linear-gradient-45" x1="76.34" y1="32.48" x2="167.88" y2="32.48" xlink:href="#linear-gradient"></linearGradient>
    <linearGradient id="linear-gradient-46" x1="76.34" y1="32.48" x2="167.88" y2="32.48" xlink:href="#linear-gradient"></linearGradient>
    <linearGradient id="linear-gradient-47" x1="76.34" y1="32.48" x2="167.88" y2="32.48" xlink:href="#linear-gradient"></linearGradient>
    <linearGradient id="linear-gradient-48" x1="76.34" y1="32.48" x2="167.88" y2="32.48" xlink:href="#linear-gradient"></linearGradient>
    <linearGradient id="linear-gradient-49" x1="76.34" y1="32.48" x2="167.88" y2="32.48" xlink:href="#linear-gradient"></linearGradient>
    <linearGradient id="linear-gradient-50" x1="76.34" y1="32.48" x2="167.88" y2="32.48" xlink:href="#linear-gradient"></linearGradient>
    <linearGradient id="linear-gradient-51" x1="76.34" y1="32.48" x2="167.88" y2="32.48" xlink:href="#linear-gradient"></linearGradient>
    <clipPath id="clippath-1">
      <path class="cls-72" d="M147.65,34.73c-1.24,0-2.25-1.01-2.25-2.25s1.01-2.25,2.25-2.25,2.25,1.01,2.25,2.25-1.01,2.25-2.25,2.25Z"></path>
    </clipPath>
    <linearGradient id="linear-gradient-52" x1="76.34" y1="32.48" x2="167.88" y2="32.48" xlink:href="#linear-gradient"></linearGradient>
    <linearGradient id="linear-gradient-53" x1="76.34" y1="32.48" x2="167.88" y2="32.48" xlink:href="#linear-gradient"></linearGradient>
    <linearGradient id="linear-gradient-54" x1="76.34" y1="32.48" x2="167.88" y2="32.48" xlink:href="#linear-gradient"></linearGradient>
    <linearGradient id="linear-gradient-55" x1="76.34" y1="32.48" x2="167.88" y2="32.48" xlink:href="#linear-gradient"></linearGradient>
    <linearGradient id="linear-gradient-56" x1="76.34" y1="32.48" x2="167.88" y2="32.48" xlink:href="#linear-gradient"></linearGradient>
    <linearGradient id="linear-gradient-57" x1="76.34" y1="32.48" x2="167.88" y2="32.48" xlink:href="#linear-gradient"></linearGradient>
    <linearGradient id="linear-gradient-58" x1="76.34" y1="32.48" x2="167.88" y2="32.48" xlink:href="#linear-gradient"></linearGradient>
    <linearGradient id="linear-gradient-59" x1="76.34" y1="32.48" x2="167.88" y2="32.48" xlink:href="#linear-gradient"></linearGradient>
    <linearGradient id="linear-gradient-60" x1="76.34" y1="32.48" x2="167.88" y2="32.48" xlink:href="#linear-gradient"></linearGradient>
    <linearGradient id="linear-gradient-61" x1="76.34" y1="32.48" x2="167.88" y2="32.48" xlink:href="#linear-gradient"></linearGradient>
    <linearGradient id="linear-gradient-62" x1="76.34" y1="32.48" x2="167.88" y2="32.48" xlink:href="#linear-gradient"></linearGradient>
    <linearGradient id="linear-gradient-63" x1="76.34" y1="32.48" x2="167.88" y2="32.48" xlink:href="#linear-gradient"></linearGradient>
    <linearGradient id="linear-gradient-64" x1="76.34" y1="32.48" x2="167.88" y2="32.48" xlink:href="#linear-gradient"></linearGradient>
    <linearGradient id="linear-gradient-65" x1="76.34" y1="32.48" x2="167.88" y2="32.48" xlink:href="#linear-gradient"></linearGradient>
    <linearGradient id="linear-gradient-66" x1="76.34" y1="32.48" x2="167.88" y2="32.48" xlink:href="#linear-gradient"></linearGradient>
    <linearGradient id="linear-gradient-67" x1="76.34" y1="32.48" x2="167.88" y2="32.48" xlink:href="#linear-gradient"></linearGradient>
    <linearGradient id="linear-gradient-68" x1="76.34" y1="32.48" x2="167.88" y2="32.48" xlink:href="#linear-gradient"></linearGradient>
    <linearGradient id="linear-gradient-69" x1="76.34" y1="32.48" x2="167.88" y2="32.48" xlink:href="#linear-gradient"></linearGradient>
    <linearGradient id="linear-gradient-70" x1="76.34" y1="32.48" x2="167.88" y2="32.48" xlink:href="#linear-gradient"></linearGradient>
    <linearGradient id="linear-gradient-71" x1="76.34" y1="32.48" x2="167.88" y2="32.48" xlink:href="#linear-gradient"></linearGradient>
    <linearGradient id="linear-gradient-72" x1="76.34" y1="32.48" x2="167.88" y2="32.48" xlink:href="#linear-gradient"></linearGradient>
    <linearGradient id="linear-gradient-73" x1="76.34" y1="32.48" x2="167.88" y2="32.48" xlink:href="#linear-gradient"></linearGradient>
    <linearGradient id="linear-gradient-74" x1="76.34" y1="32.48" x2="167.88" y2="32.48" xlink:href="#linear-gradient"></linearGradient>
    <linearGradient id="linear-gradient-75" x1="76.34" y1="32.48" x2="167.88" y2="32.48" xlink:href="#linear-gradient"></linearGradient>
    <linearGradient id="linear-gradient-76" x1="76.34" y1="32.48" x2="167.88" y2="32.48" xlink:href="#linear-gradient"></linearGradient>
    <linearGradient id="linear-gradient-77" x1="76.34" y1="32.48" x2="167.88" y2="32.48" xlink:href="#linear-gradient"></linearGradient>
    <linearGradient id="linear-gradient-78" x1="76.34" y1="32.48" x2="167.88" y2="32.48" xlink:href="#linear-gradient"></linearGradient>
    <linearGradient id="linear-gradient-79" x1="76.34" y1="32.48" x2="167.88" y2="32.48" xlink:href="#linear-gradient"></linearGradient>
    <linearGradient id="linear-gradient-80" x1="76.34" y1="32.48" x2="167.88" y2="32.48" xlink:href="#linear-gradient"></linearGradient>
    <linearGradient id="linear-gradient-81" x1="76.34" y1="32.48" x2="167.88" y2="32.48" xlink:href="#linear-gradient"></linearGradient>
    <linearGradient id="linear-gradient-82" x1="76.34" y1="32.48" x2="167.88" y2="32.48" xlink:href="#linear-gradient"></linearGradient>
    <linearGradient id="linear-gradient-83" x1="76.34" y1="32.48" x2="167.88" y2="32.48" xlink:href="#linear-gradient"></linearGradient>
    <linearGradient id="linear-gradient-84" x1="76.34" y1="32.48" x2="167.88" y2="32.48" xlink:href="#linear-gradient"></linearGradient>
    <linearGradient id="linear-gradient-85" x1="76.34" y1="32.48" x2="167.88" y2="32.48" xlink:href="#linear-gradient"></linearGradient>
    <linearGradient id="linear-gradient-86" x1="76.34" y1="32.48" x2="167.88" y2="32.48" xlink:href="#linear-gradient"></linearGradient>
    <linearGradient id="linear-gradient-87" x1="76.34" y1="32.48" x2="167.88" y2="32.48" xlink:href="#linear-gradient"></linearGradient>
    <linearGradient id="linear-gradient-88" x1="76.34" y1="32.48" x2="167.88" y2="32.48" xlink:href="#linear-gradient"></linearGradient>
    <linearGradient id="linear-gradient-89" x1="76.34" y1="32.48" x2="167.88" y2="32.48" xlink:href="#linear-gradient"></linearGradient>
    <linearGradient id="linear-gradient-90" x1="76.34" y1="32.48" x2="167.88" y2="32.48" xlink:href="#linear-gradient"></linearGradient>
    <linearGradient id="linear-gradient-91" x1="76.34" y1="32.48" x2="167.88" y2="32.48" xlink:href="#linear-gradient"></linearGradient>
    <clipPath id="clippath-2">
      <path class="cls-61" d="M155.29,34.73c-1.24,0-2.25-1.01-2.25-2.25s1.01-2.25,2.25-2.25,2.25,1.01,2.25,2.25-1.01,2.25-2.25,2.25Z"></path>
    </clipPath>
    <linearGradient id="linear-gradient-92" x1="76.34" y1="32.48" x2="167.88" y2="32.48" xlink:href="#linear-gradient"></linearGradient>
    <linearGradient id="linear-gradient-93" x1="76.34" y1="32.48" x2="167.88" y2="32.48" xlink:href="#linear-gradient"></linearGradient>
    <linearGradient id="linear-gradient-94" x1="76.34" y1="32.48" x2="167.88" y2="32.48" xlink:href="#linear-gradient"></linearGradient>
    <linearGradient id="linear-gradient-95" x1="76.34" y1="32.48" x2="167.88" y2="32.48" xlink:href="#linear-gradient"></linearGradient>
    <linearGradient id="linear-gradient-96" x1="76.34" y1="32.48" x2="167.88" y2="32.48" xlink:href="#linear-gradient"></linearGradient>
    <linearGradient id="linear-gradient-97" x1="76.34" y1="32.48" x2="167.88" y2="32.48" xlink:href="#linear-gradient"></linearGradient>
    <linearGradient id="linear-gradient-98" x1="76.34" y1="32.48" x2="167.88" y2="32.48" xlink:href="#linear-gradient"></linearGradient>
    <linearGradient id="linear-gradient-99" x1="76.34" y1="32.48" x2="167.88" y2="32.48" xlink:href="#linear-gradient"></linearGradient>
    <linearGradient id="linear-gradient-100" x1="76.34" y1="32.48" x2="167.88" y2="32.48" xlink:href="#linear-gradient"></linearGradient>
    <linearGradient id="linear-gradient-101" x1="76.34" y1="32.48" x2="167.88" y2="32.48" xlink:href="#linear-gradient"></linearGradient>
    <linearGradient id="linear-gradient-102" x1="76.34" y1="32.48" x2="167.88" y2="32.48" xlink:href="#linear-gradient"></linearGradient>
    <linearGradient id="linear-gradient-103" x1="76.34" y1="32.48" x2="167.88" y2="32.48" xlink:href="#linear-gradient"></linearGradient>
    <linearGradient id="linear-gradient-104" x1="76.34" y1="32.48" x2="167.88" y2="32.48" xlink:href="#linear-gradient"></linearGradient>
    <linearGradient id="linear-gradient-105" x1="76.34" y1="32.48" x2="167.88" y2="32.48" xlink:href="#linear-gradient"></linearGradient>
    <linearGradient id="linear-gradient-106" x1="76.34" y1="32.48" x2="167.88" y2="32.48" xlink:href="#linear-gradient"></linearGradient>
    <linearGradient id="linear-gradient-107" x1="76.34" y1="32.48" x2="167.88" y2="32.48" xlink:href="#linear-gradient"></linearGradient>
    <linearGradient id="linear-gradient-108" x1="76.34" y1="32.48" x2="167.88" y2="32.48" xlink:href="#linear-gradient"></linearGradient>
    <linearGradient id="linear-gradient-109" x1="76.34" y1="32.48" x2="167.88" y2="32.48" xlink:href="#linear-gradient"></linearGradient>
    <linearGradient id="linear-gradient-110" x1="76.34" y1="32.48" x2="167.88" y2="32.48" xlink:href="#linear-gradient"></linearGradient>
    <linearGradient id="linear-gradient-111" x1="76.34" y1="32.48" x2="167.88" y2="32.48" xlink:href="#linear-gradient"></linearGradient>
    <linearGradient id="linear-gradient-112" x1="76.34" y1="32.48" x2="167.88" y2="32.48" xlink:href="#linear-gradient"></linearGradient>
    <linearGradient id="linear-gradient-113" x1="76.34" y1="32.48" x2="167.88" y2="32.48" xlink:href="#linear-gradient"></linearGradient>
    <linearGradient id="linear-gradient-114" x1="76.34" y1="32.48" x2="167.88" y2="32.48" xlink:href="#linear-gradient"></linearGradient>
    <linearGradient id="linear-gradient-115" x1="76.34" y1="32.48" x2="167.88" y2="32.48" xlink:href="#linear-gradient"></linearGradient>
    <linearGradient id="linear-gradient-116" x1="76.34" y1="32.48" x2="167.88" y2="32.48" xlink:href="#linear-gradient"></linearGradient>
    <linearGradient id="linear-gradient-117" x1="76.34" y1="32.48" x2="167.88" y2="32.48" xlink:href="#linear-gradient"></linearGradient>
    <linearGradient id="linear-gradient-118" x1="76.34" y1="32.48" x2="167.88" y2="32.48" xlink:href="#linear-gradient"></linearGradient>
    <linearGradient id="linear-gradient-119" x1="76.34" y1="32.48" x2="167.88" y2="32.48" xlink:href="#linear-gradient"></linearGradient>
    <linearGradient id="linear-gradient-120" x1="76.34" y1="32.48" x2="167.88" y2="32.48" xlink:href="#linear-gradient"></linearGradient>
    <linearGradient id="linear-gradient-121" x1="76.34" y1="32.48" x2="167.88" y2="32.48" xlink:href="#linear-gradient"></linearGradient>
    <linearGradient id="linear-gradient-122" x1="76.34" y1="32.48" x2="167.88" y2="32.48" xlink:href="#linear-gradient"></linearGradient>
    <linearGradient id="linear-gradient-123" x1="76.34" y1="32.48" x2="167.88" y2="32.48" xlink:href="#linear-gradient"></linearGradient>
    <linearGradient id="linear-gradient-124" x1="76.34" y1="32.48" x2="167.88" y2="32.48" xlink:href="#linear-gradient"></linearGradient>
    <linearGradient id="linear-gradient-125" x1="76.34" y1="32.48" x2="167.88" y2="32.48" xlink:href="#linear-gradient"></linearGradient>
    <linearGradient id="linear-gradient-126" x1="76.34" y1="32.48" x2="167.88" y2="32.48" xlink:href="#linear-gradient"></linearGradient>
    <linearGradient id="linear-gradient-127" x1="76.34" y1="32.48" x2="167.88" y2="32.48" xlink:href="#linear-gradient"></linearGradient>
    <linearGradient id="linear-gradient-128" x1="76.34" y1="32.48" x2="167.88" y2="32.48" xlink:href="#linear-gradient"></linearGradient>
    <linearGradient id="linear-gradient-129" x1="76.34" y1="32.48" x2="167.88" y2="32.48" xlink:href="#linear-gradient"></linearGradient>
    <linearGradient id="linear-gradient-130" y1="41.8" x2="167.88" y2="41.8" xlink:href="#linear-gradient"></linearGradient>
    <linearGradient id="linear-gradient-131" x1="76.34" y1="29.47" x2="167.88" y2="29.47" xlink:href="#linear-gradient"></linearGradient>
    <linearGradient id="linear-gradient-132" x1="76.34" y1="24.26" x2="167.88" y2="24.26" xlink:href="#linear-gradient"></linearGradient>
    <linearGradient id="linear-gradient-133" x1="76.34" y1="45.91" x2="167.88" y2="45.91" xlink:href="#linear-gradient"></linearGradient>
    <linearGradient id="linear-gradient-134" x1="76.34" x2="167.88" xlink:href="#linear-gradient"></linearGradient>
    <linearGradient id="linear-gradient-135" x1="76.34" y1="33.16" x2="167.88" y2="33.16" xlink:href="#linear-gradient"></linearGradient>
  </defs>
  <path class="cls-129" d="M136.86,98.05c-1.29,0-2.34-1.05-2.34-2.34,0-2.74-2.23-4.97-4.97-4.97h-10.32c-1.29,0-2.34-1.05-2.34-2.34s1.05-2.34,2.34-2.34h10.32c5.32,0,9.65,4.33,9.65,9.65,0,1.29-1.05,2.34-2.34,2.34Z"></path>
  <path class="cls-17" d="M110.56,51.65c-.86,0-1.56-.7-1.56-1.56v-11.28c0-.86.7-1.56,1.56-1.56s1.56.7,1.56,1.56v11.28c0,.86-.7,1.56-1.56,1.56Z"></path>
  <path class="cls-56" d="M88.2,71.75h-3.68c-3.08,0-5.58-2.5-5.58-5.58v-4.02c0-3.08,2.5-5.58,5.58-5.58h3.68v15.18ZM84.52,59.69c-1.35,0-2.46,1.1-2.46,2.46v4.02c0,1.35,1.1,2.46,2.46,2.46h.56v-8.93h-.56Z"></path>
  <path class="cls-45" d="M136.61,71.75h-3.68v-15.18h3.68c3.08,0,5.58,2.5,5.58,5.58v4.02c0,3.08-2.5,5.58-5.58,5.58ZM136.05,68.62h.56c1.35,0,2.46-1.1,2.46-2.46v-4.02c0-1.35-1.1-2.46-2.46-2.46h-.56v8.93Z"></path>
  <path class="cls-59" d="M101.9,90.74c-1.29,0-2.34-1.05-2.34-2.34v-10.18c0-1.29,1.05-2.34,2.34-2.34s2.34,1.05,2.34,2.34v10.18c0,1.29-1.05,2.34-2.34,2.34Z"></path>
  <path class="cls-105" d="M119.22,90.74c-1.29,0-2.34-1.05-2.34-2.34v-10.18c0-1.29,1.05-2.34,2.34-2.34s2.34,1.05,2.34,2.34v10.18c0,1.29-1.05,2.34-2.34,2.34Z"></path>
  <path class="cls-94" d="M106.19,67.15c-.86,0-1.56-.7-1.56-1.56,0-1.91-1.55-3.46-3.46-3.46s-3.46,1.55-3.46,3.46c0,.86-.7,1.56-1.56,1.56s-1.56-.7-1.56-1.56c0-3.63,2.95-6.58,6.58-6.58s6.58,2.95,6.58,6.58c0,.86-.7,1.56-1.56,1.56Z"></path>
  <path class="cls-73" d="M124.98,67.15c-.86,0-1.56-.7-1.56-1.56,0-1.91-1.55-3.46-3.46-3.46s-3.46,1.55-3.46,3.46c0,.86-.7,1.56-1.56,1.56s-1.56-.7-1.56-1.56c0-3.63,2.95-6.58,6.58-6.58s6.58,2.95,6.58,6.58c0,.86-.7,1.56-1.56,1.56Z"></path>
  <path class="cls-96" d="M124.63,80.56h-28.13c-5.72,0-10.38-4.66-10.38-10.38v-12.05c0-5.72,4.66-10.38,10.38-10.38h28.13c5.72,0,10.38,4.66,10.38,10.38v12.05c0,5.72-4.66,10.38-10.38,10.38ZM96.5,52.43c-3.14,0-5.69,2.55-5.69,5.69v12.05c0,3.14,2.55,5.69,5.69,5.69h28.13c3.14,0,5.69-2.55,5.69-5.69v-12.05c0-3.14-2.55-5.69-5.69-5.69h-28.13Z"></path>
  <g>
    <g>
      <path class="cls-25" d="M140,34.73c-1.24,0-2.25-1.01-2.25-2.25s1.01-2.25,2.25-2.25,2.25,1.01,2.25,2.25-1.01,2.25-2.25,2.25Z"></path>
      <g class="cls-132">
        <rect class="cls-26" x="137.75" y="30.22" width=".12" height="4.51"></rect>
        <rect class="cls-5" x="137.87" y="30.22" width=".12" height="4.51"></rect>
        <rect class="cls-86" x="137.99" y="30.22" width=".12" height="4.51"></rect>
        <rect class="cls-4" x="138.11" y="30.22" width=".12" height="4.51"></rect>
        <rect class="cls-127" x="138.22" y="30.22" width=".12" height="4.51"></rect>
        <rect class="cls-92" x="138.34" y="30.22" width=".12" height="4.51"></rect>
        <rect class="cls-137" x="138.46" y="30.22" width=".12" height="4.51"></rect>
        <rect class="cls-102" x="138.58" y="30.22" width=".12" height="4.51"></rect>
        <rect class="cls-89" x="138.7" y="30.22" width=".12" height="4.51"></rect>
        <rect class="cls-110" x="138.82" y="30.22" width=".12" height="4.51"></rect>
        <rect class="cls-62" x="138.94" y="30.22" width=".12" height="4.51"></rect>
        <rect class="cls-130" x="139.05" y="30.22" width=".12" height="4.51"></rect>
        <rect class="cls-63" x="139.17" y="30.22" width=".12" height="4.51"></rect>
        <rect class="cls-23" x="139.29" y="30.22" width=".12" height="4.51"></rect>
        <rect class="cls-41" x="139.41" y="30.22" width=".12" height="4.51"></rect>
        <rect class="cls-28" x="139.53" y="30.22" width=".12" height="4.51"></rect>
        <rect class="cls-7" x="139.65" y="30.22" width=".12" height="4.51"></rect>
        <rect class="cls-88" x="139.77" y="30.22" width=".12" height="4.51"></rect>
        <rect class="cls-47" x="139.89" y="30.22" width=".12" height="4.51"></rect>
        <rect class="cls-131" x="140" y="30.22" width=".12" height="4.51"></rect>
        <rect class="cls-123" x="140.12" y="30.22" width=".12" height="4.51"></rect>
        <rect class="cls-69" x="140.24" y="30.22" width=".12" height="4.51"></rect>
        <rect class="cls-57" x="140.36" y="30.22" width=".12" height="4.51"></rect>
        <rect class="cls-46" x="140.48" y="30.22" width=".12" height="4.51"></rect>
        <rect class="cls-109" x="140.6" y="30.22" width=".12" height="4.51"></rect>
        <rect class="cls-30" x="140.72" y="30.22" width=".12" height="4.51"></rect>
        <rect class="cls-60" x="140.83" y="30.22" width=".12" height="4.51"></rect>
        <rect class="cls-34" x="140.95" y="30.22" width=".12" height="4.51"></rect>
        <rect class="cls-27" x="141.07" y="30.22" width=".12" height="4.51"></rect>
        <rect class="cls-125" x="141.19" y="30.22" width=".12" height="4.51"></rect>
        <rect class="cls-11" x="141.31" y="30.22" width=".12" height="4.51"></rect>
        <rect class="cls-22" x="141.43" y="30.22" width=".12" height="4.51"></rect>
        <rect class="cls-53" x="141.55" y="30.22" width=".12" height="4.51"></rect>
        <rect class="cls-112" x="141.67" y="30.22" width=".12" height="4.51"></rect>
        <rect class="cls-12" x="141.78" y="30.22" width=".12" height="4.51"></rect>
        <rect class="cls-40" x="141.9" y="30.22" width=".12" height="4.51"></rect>
        <rect class="cls-121" x="142.02" y="30.22" width=".12" height="4.51"></rect>
        <rect class="cls-55" x="142.14" y="30.22" width=".12" height="4.51"></rect>
      </g>
    </g>
    <g>
      <path class="cls-93" d="M147.65,34.73c-1.24,0-2.25-1.01-2.25-2.25s1.01-2.25,2.25-2.25,2.25,1.01,2.25,2.25-1.01,2.25-2.25,2.25Z"></path>
      <g class="cls-58">
        <rect class="cls-36" x="145.39" y="30.22" width=".12" height="4.51"></rect>
        <rect class="cls-10" x="145.51" y="30.22" width=".12" height="4.51"></rect>
        <rect class="cls-66" x="145.63" y="30.22" width=".12" height="4.51"></rect>
        <rect class="cls-32" x="145.75" y="30.22" width=".12" height="4.51"></rect>
        <rect class="cls-21" x="145.87" y="30.22" width=".12" height="4.51"></rect>
        <rect class="cls-75" x="145.99" y="30.22" width=".12" height="4.51"></rect>
        <rect class="cls-39" x="146.11" y="30.22" width=".12" height="4.51"></rect>
        <rect class="cls-98" x="146.22" y="30.22" width=".12" height="4.51"></rect>
        <rect class="cls-14" x="146.34" y="30.22" width=".12" height="4.51"></rect>
        <rect class="cls-3" x="146.46" y="30.22" width=".12" height="4.51"></rect>
        <rect class="cls-87" x="146.58" y="30.22" width=".12" height="4.51"></rect>
        <rect class="cls-133" x="146.7" y="30.22" width=".12" height="4.51"></rect>
        <rect class="cls-20" x="146.82" y="30.22" width=".12" height="4.51"></rect>
        <rect class="cls-8" x="146.94" y="30.22" width=".12" height="4.51"></rect>
        <rect class="cls-74" x="147.06" y="30.22" width=".12" height="4.51"></rect>
        <rect class="cls-91" x="147.17" y="30.22" width=".12" height="4.51"></rect>
        <rect class="cls-29" x="147.29" y="30.22" width=".12" height="4.51"></rect>
        <rect class="cls-9" x="147.41" y="30.22" width=".12" height="4.51"></rect>
        <rect class="cls-13" x="147.53" y="30.22" width=".12" height="4.51"></rect>
        <rect class="cls-52" x="147.65" y="30.22" width=".12" height="4.51"></rect>
        <rect class="cls-44" x="147.77" y="30.22" width=".12" height="4.51"></rect>
        <rect class="cls-51" x="147.89" y="30.22" width=".12" height="4.51"></rect>
        <rect class="cls-42" x="148" y="30.22" width=".12" height="4.51"></rect>
        <rect class="cls-31" x="148.12" y="30.22" width=".12" height="4.51"></rect>
        <rect class="cls-49" x="148.24" y="30.22" width=".12" height="4.51"></rect>
        <rect class="cls-76" x="148.36" y="30.22" width=".12" height="4.51"></rect>
        <rect class="cls-71" x="148.48" y="30.22" width=".12" height="4.51"></rect>
        <rect class="cls-70" x="148.6" y="30.22" width=".12" height="4.51"></rect>
        <rect class="cls-104" x="148.72" y="30.22" width=".12" height="4.51"></rect>
        <rect class="cls-116" x="148.84" y="30.22" width=".12" height="4.51"></rect>
        <rect class="cls-24" x="148.95" y="30.22" width=".12" height="4.51"></rect>
        <rect class="cls-106" x="149.07" y="30.22" width=".12" height="4.51"></rect>
        <rect class="cls-118" x="149.19" y="30.22" width=".12" height="4.51"></rect>
        <rect class="cls-114" x="149.31" y="30.22" width=".12" height="4.51"></rect>
        <rect class="cls-124" x="149.43" y="30.22" width=".12" height="4.51"></rect>
        <rect class="cls-19" x="149.55" y="30.22" width=".12" height="4.51"></rect>
        <rect class="cls-83" x="149.67" y="30.22" width=".12" height="4.51"></rect>
        <rect class="cls-35" x="149.78" y="30.22" width=".12" height="4.51"></rect>
      </g>
    </g>
    <g>
      <path class="cls-68" d="M155.29,34.73c-1.24,0-2.25-1.01-2.25-2.25s1.01-2.25,2.25-2.25,2.25,1.01,2.25,2.25-1.01,2.25-2.25,2.25Z"></path>
      <g class="cls-117">
        <rect class="cls-67" x="153.04" y="30.22" width=".12" height="4.51"></rect>
        <rect class="cls-15" x="153.16" y="30.22" width=".12" height="4.51"></rect>
        <rect class="cls-65" x="153.28" y="30.22" width=".12" height="4.51"></rect>
        <rect class="cls-16" x="153.39" y="30.22" width=".12" height="4.51"></rect>
        <rect class="cls-54" x="153.51" y="30.22" width=".12" height="4.51"></rect>
        <rect class="cls-43" x="153.63" y="30.22" width=".12" height="4.51"></rect>
        <rect class="cls-115" x="153.75" y="30.22" width=".12" height="4.51"></rect>
        <rect class="cls-136" x="153.87" y="30.22" width=".12" height="4.51"></rect>
        <rect class="cls-18" x="153.99" y="30.22" width=".12" height="4.51"></rect>
        <rect class="cls-103" x="154.11" y="30.22" width=".12" height="4.51"></rect>
        <rect class="cls-122" x="154.23" y="30.22" width=".12" height="4.51"></rect>
        <rect class="cls-79" x="154.34" y="30.22" width=".12" height="4.51"></rect>
        <rect class="cls-97" x="154.46" y="30.22" width=".12" height="4.51"></rect>
        <rect class="cls-108" x="154.58" y="30.22" width=".12" height="4.51"></rect>
        <rect class="cls-90" x="154.7" y="30.22" width=".12" height="4.51"></rect>
        <rect class="cls-6" x="154.82" y="30.22" width=".12" height="4.51"></rect>
        <rect class="cls-101" x="154.94" y="30.22" width=".12" height="4.51"></rect>
        <rect class="cls-50" x="155.06" y="30.22" width=".12" height="4.51"></rect>
        <rect class="cls-82" x="155.17" y="30.22" width=".12" height="4.51"></rect>
        <rect class="cls-128" x="155.29" y="30.22" width=".12" height="4.51"></rect>
        <rect class="cls-107" x="155.41" y="30.22" width=".12" height="4.51"></rect>
        <rect class="cls-37" x="155.53" y="30.22" width=".12" height="4.51"></rect>
        <rect class="cls-119" x="155.65" y="30.22" width=".12" height="4.51"></rect>
        <rect class="cls-134" x="155.77" y="30.22" width=".12" height="4.51"></rect>
        <rect class="cls-33" x="155.89" y="30.22" width=".12" height="4.51"></rect>
        <rect class="cls-120" x="156.01" y="30.22" width=".12" height="4.51"></rect>
        <rect class="cls-2" x="156.12" y="30.22" width=".12" height="4.51"></rect>
        <rect class="cls-111" x="156.24" y="30.22" width=".12" height="4.51"></rect>
        <rect class="cls-100" x="156.36" y="30.22" width=".12" height="4.51"></rect>
        <rect class="cls-81" x="156.48" y="30.22" width=".12" height="4.51"></rect>
        <rect class="cls-38" x="156.6" y="30.22" width=".12" height="4.51"></rect>
        <rect class="cls-138" x="156.72" y="30.22" width=".12" height="4.51"></rect>
        <rect class="cls-84" x="156.84" y="30.22" width=".12" height="4.51"></rect>
        <rect class="cls-48" x="156.95" y="30.22" width=".12" height="4.51"></rect>
        <rect class="cls-135" x="157.07" y="30.22" width=".12" height="4.51"></rect>
        <rect class="cls-113" x="157.19" y="30.22" width=".12" height="4.51"></rect>
        <rect class="cls-85" x="157.31" y="30.22" width=".12" height="4.51"></rect>
        <rect class="cls-78" x="157.43" y="30.22" width=".12" height="4.51"></rect>
      </g>
    </g>
  </g>
  <path class="cls-126" d="M132.27,52.67c-.53,0-1.04-.19-1.44-.54-.44-.39-.71-.92-.74-1.51-.02-.32.03-.65.15-.95.19-.45.36-.88.51-1.31.01-.05.03-.1.04-.14.49-1.41.85-2.88,1.06-4.38-2.86-3.06-4.51-7.15-4.55-11.35,0-.86.68-1.57,1.55-1.58.87-.02,1.57.69,1.58,1.55.03,3.64,1.55,7.17,4.16,9.71.35.34.52.81.47,1.29-.21,1.94-.64,3.85-1.27,5.67,0,.04-.02.08-.03.12,0,0,.01,0,.02,0,2.67-.47,5.26-1.3,7.71-2.46.78-.37,1.71-.04,2.08.74.37.78.04,1.71-.74,2.08-2.71,1.28-5.59,2.2-8.54,2.72,0,0,0,0-.01,0-.55.11-1.11.21-1.66.31-.06.01-.12.02-.18.02-.05,0-.09,0-.14,0Z"></path>
  <path class="cls-77" d="M162.19,44.46c-.38,0-.77-.14-1.07-.42-.63-.59-.66-1.58-.07-2.21,2.5-2.67,3.83-5.91,3.83-9.35,0-8.2-7.73-14.88-17.23-14.88-.86,0-1.56-.7-1.56-1.56s.7-1.56,1.56-1.56c11.22,0,20.35,8.08,20.35,18,0,4.19-1.66,8.27-4.67,11.48-.31.33-.72.49-1.14.49Z"></path>
  <path class="cls-1" d="M128.86,34.04c-.86,0-1.56-.7-1.56-1.56,0-9.93,9.13-18,20.35-18,.86,0,1.56.7,1.56,1.56s-.7,1.56-1.56,1.56c-9.5,0-17.23,6.67-17.23,14.88,0,.86-.7,1.56-1.56,1.56Z"></path>
  <path class="cls-64" d="M147.65,50.48c-2,0-3.99-.26-5.91-.77-.83-.22-1.33-1.08-1.11-1.91.22-.83,1.08-1.33,1.91-1.11,1.66.44,3.38.67,5.11.67,5.22,0,10.11-2.02,13.4-5.53.59-.63,1.58-.66,2.21-.07.63.59.66,1.58.07,2.21-3.88,4.14-9.6,6.52-15.68,6.52Z"></path>
  <path class="cls-95" d="M84.27,98.05c-1.29,0-2.34-1.05-2.34-2.34,0-5.32,4.33-9.65,9.65-9.65h27.65c1.29,0,2.34,1.05,2.34,2.34s-1.05,2.34-2.34,2.34h-27.65c-2.74,0-4.97,2.23-4.97,4.97,0,1.29-1.05,2.34-2.34,2.34Z"></path>
  <path class="cls-80" d="M110.56,40.13c-3.85,0-6.97-3.13-6.97-6.97s3.13-6.97,6.97-6.97,6.97,3.13,6.97,6.97-3.13,6.97-6.97,6.97ZM110.56,29.31c-2.12,0-3.85,1.73-3.85,3.85s1.73,3.85,3.85,3.85,3.85-1.73,3.85-3.85-1.73-3.85-3.85-3.85Z"></path>
</svg>