<?xml version="1.0" encoding="UTF-8"?>
<svg id="Camada_1" data-name="Camada 1" xmlns="http://www.w3.org/2000/svg" xmlns:xlink="http://www.w3.org/1999/xlink" viewBox="0 0 223 153">
  <defs>
    
    <linearGradient id="Gradiente_sem_nome_49" data-name="Gradiente sem nome 49" x1="86.42" y1="64.37" x2="145.44" y2="64.37" gradientTransform="translate(156.11 -41.3) rotate(85.11)" gradientUnits="userSpaceOnUse">
      <stop offset="0" stop-color="#fff"></stop>
      <stop offset="1" stop-color="#b3b3b3"></stop>
    </linearGradient>
    <linearGradient id="Gradiente_sem_nome_49-2" data-name="Gradiente sem nome 49" x1="86.42" y1="52.15" x2="145.44" y2="52.15" gradientTransform="translate(165.14 -63.62) rotate(89.04)" xlink:href="#Gradiente_sem_nome_49"></linearGradient>
    <linearGradient id="Gradiente_sem_nome_49-3" data-name="Gradiente sem nome 49" x1="86.42" y1="57.46" x2="145.44" y2="57.46" gradientTransform="translate(44.67 -55.86) rotate(29.32)" xlink:href="#Gradiente_sem_nome_49"></linearGradient>
    <linearGradient id="Gradiente_sem_nome_49-4" data-name="Gradiente sem nome 49" x1="86.42" y1="51.81" x2="145.44" y2="51.81" gradientTransform="matrix(1,0,0,1,0,0)" xlink:href="#Gradiente_sem_nome_49"></linearGradient>
    <linearGradient id="Gradiente_sem_nome_49-5" data-name="Gradiente sem nome 49" x1="86.42" y1="76.3" x2="145.44" y2="76.3" gradientTransform="translate(79.99 -62.31) rotate(40.83)" xlink:href="#Gradiente_sem_nome_49"></linearGradient>
    <linearGradient id="Gradiente_sem_nome_49-6" data-name="Gradiente sem nome 49" x1="86.42" y1="79.47" x2="145.44" y2="79.47" gradientTransform="translate(92.3 -49.51) rotate(47.77)" xlink:href="#Gradiente_sem_nome_49"></linearGradient>
    <linearGradient id="Gradiente_sem_nome_49-7" data-name="Gradiente sem nome 49" x1="86.42" y1="65.64" x2="145.44" y2="65.64" gradientTransform="matrix(1,0,0,1,0,0)" xlink:href="#Gradiente_sem_nome_49"></linearGradient>
    <linearGradient id="Gradiente_sem_nome_49-8" data-name="Gradiente sem nome 49" x1="86.42" y1="63.51" x2="145.44" y2="63.51" gradientTransform="matrix(1,0,0,1,0,0)" xlink:href="#Gradiente_sem_nome_49"></linearGradient>
    <linearGradient id="Gradiente_sem_nome_49-9" data-name="Gradiente sem nome 49" y1="90.63" x2="145.44" y2="90.63" gradientTransform="matrix(1,0,0,1,0,0)" xlink:href="#Gradiente_sem_nome_49"></linearGradient>
    <linearGradient id="Gradiente_sem_nome_49-10" data-name="Gradiente sem nome 49" x1="86.42" y1="84.22" x2="145.44" y2="84.22" gradientTransform="matrix(1,0,0,1,0,0)" xlink:href="#Gradiente_sem_nome_49"></linearGradient>
    <linearGradient id="Gradiente_sem_nome_49-11" data-name="Gradiente sem nome 49" x1="86.42" y1="42.39" x2="145.44" y2="42.39" gradientTransform="matrix(1,0,0,1,0,0)" xlink:href="#Gradiente_sem_nome_49"></linearGradient>
  </defs>
  <g id="Group_2253" data-name="Group 2253">
    <g id="Line_704" data-name="Line 704">
      <rect class="cls-12" x="98.64" y="59.68" width="3.82" height="9.39" transform="translate(27.83 159.06) rotate(-85.11)"></rect>
    </g>
    <g id="Line_705" data-name="Line 705">
      <rect class="cls-7" x="110.91" y="50.24" width="8.02" height="3.82" transform="translate(60.86 166.18) rotate(-89.04)"></rect>
    </g>
    <g id="Line_706" data-name="Line 706">
      <rect class="cls-11" x="121.95" y="55.55" width="14.33" height="3.82" transform="translate(-11.6 70.58) rotate(-29.32)"></rect>
    </g>
    <g id="Ellipse_111" data-name="Ellipse 111">
      <path class="cls-13" d="M139.17,58c-3.41,0-6.19-2.78-6.19-6.19s2.77-6.19,6.19-6.19,6.19,2.78,6.19,6.19-2.78,6.19-6.19,6.19ZM139.17,49.45c-1.3,0-2.37,1.06-2.37,2.37s1.06,2.37,2.37,2.37,2.37-1.06,2.37-2.37-1.06-2.37-2.37-2.37Z"></path>
    </g>
    <g id="Line_707" data-name="Line 707">
      <rect class="cls-2" x="121.79" y="71.75" width="3.82" height="9.09" transform="translate(-19.78 99.44) rotate(-40.83)"></rect>
    </g>
    <g id="Line_708" data-name="Line 708">
      <rect class="cls-8" x="92.76" y="77.56" width="18.59" height="3.82" transform="translate(-25.38 101.62) rotate(-47.77)"></rect>
    </g>
    <g id="Path_3458" data-name="Path 3458">
      <path class="cls-4" d="M114.65,76.91c-6.21,0-11.26-5.05-11.26-11.26s5.05-11.26,11.26-11.26,11.26,5.05,11.26,11.26-5.05,11.26-11.26,11.26ZM114.65,58.2c-4.1,0-7.44,3.34-7.44,7.44s3.34,7.44,7.44,7.44,7.44-3.34,7.44-7.44-3.34-7.44-7.44-7.44Z"></path>
    </g>
    <g id="Path_3459" data-name="Path 3459">
      <path class="cls-1" d="M91.53,69.69c-3.41,0-6.19-2.78-6.19-6.19s2.77-6.19,6.19-6.19,6.19,2.78,6.19,6.19-2.78,6.19-6.19,6.19ZM91.53,61.14c-1.28,0-2.37,1.08-2.37,2.37s1.08,2.37,2.37,2.37,2.37-1.08,2.37-2.37-1.04-2.37-2.37-2.37Z"></path>
    </g>
    <g id="Path_3460" data-name="Path 3460">
      <path class="cls-3" d="M91.93,98.22c-4.18,0-7.59-3.4-7.59-7.59s3.4-7.59,7.59-7.59,7.59,3.4,7.59,7.59-3.4,7.59-7.59,7.59ZM91.93,86.86c-2.08,0-3.77,1.69-3.77,3.77s1.69,3.77,3.77,3.77,3.77-1.69,3.77-3.77-1.69-3.77-3.77-3.77Z"></path>
    </g>
    <g id="Path_3461" data-name="Path 3461">
      <path class="cls-10" d="M130.28,91.81c-4.19,0-7.59-3.4-7.59-7.59s3.4-7.59,7.59-7.59,7.59,3.4,7.59,7.59-3.4,7.59-7.59,7.59ZM130.28,80.45c-2.08,0-3.77,1.69-3.77,3.77s1.69,3.77,3.77,3.77,3.77-1.69,3.77-3.77-1.69-3.77-3.77-3.77Z"></path>
    </g>
    <g id="Ellipse_112" data-name="Ellipse 112">
      <path class="cls-9" d="M115.18,49.98c-4.19,0-7.59-3.4-7.59-7.59s3.4-7.59,7.59-7.59,7.59,3.4,7.59,7.59-3.4,7.59-7.59,7.59ZM115.18,38.62c-2.08,0-3.77,1.69-3.77,3.77s1.69,3.77,3.77,3.77,3.77-1.69,3.77-3.77-1.69-3.77-3.77-3.77Z"></path>
    </g>
  </g>
  <text class="cls-6" transform="translate(69.24 123.26)"><tspan x="0" y="0">Prediction</tspan></text>
  <path class="cls-5" d="M62.19,115.81c-.84,0-1.53-.69-1.53-1.53v-2.92h-2.08v4.45h-4.45v2.08h2.92c.84,0,1.53.69,1.53,1.53v2.92h2.08v-4.45h4.45v-2.08h-2.92Z"></path>
</svg>