<?xml version="1.0" encoding="UTF-8"?>
<svg id="Camada_1" data-name="Camada 1" xmlns="http://www.w3.org/2000/svg" xmlns:xlink="http://www.w3.org/1999/xlink" viewBox="0 0 223 153">
  <defs>
    
    <linearGradient id="linear-gradient" x1="83.76" y1="66.34" x2="145.81" y2="66.34" gradientUnits="userSpaceOnUse">
      <stop offset="0" stop-color="#fe70bd"></stop>
      <stop offset=".2" stop-color="#fe70bd"></stop>
      <stop offset="1" stop-color="#3a60ff"></stop>
    </linearGradient>
    <linearGradient id="linear-gradient-2" x1="83.76" x2="145.81" xlink:href="#linear-gradient"></linearGradient>
    <linearGradient id="linear-gradient-3" x1="83.76" y1="69.75" x2="145.81" y2="69.75" xlink:href="#linear-gradient"></linearGradient>
    <linearGradient id="linear-gradient-4" x1="83.76" y1="75.5" x2="145.81" y2="75.5" xlink:href="#linear-gradient"></linearGradient>
    <linearGradient id="linear-gradient-5" x1="83.76" x2="145.81" xlink:href="#linear-gradient"></linearGradient>
    <linearGradient id="linear-gradient-6" x1="83.76" x2="145.81" xlink:href="#linear-gradient"></linearGradient>
    <linearGradient id="linear-gradient-7" x1="83.76" y1="70.43" x2="145.81" y2="70.43" xlink:href="#linear-gradient"></linearGradient>
    <linearGradient id="linear-gradient-8" x1="83.76" y1="74.8" x2="145.81" y2="74.8" xlink:href="#linear-gradient"></linearGradient>
    <linearGradient id="linear-gradient-9" x1="83.76" y1="42.15" x2="145.81" y2="42.15" xlink:href="#linear-gradient"></linearGradient>
    <linearGradient id="linear-gradient-10" x1="83.76" y1="42.15" x2="145.81" y2="42.15" xlink:href="#linear-gradient"></linearGradient>
    <linearGradient id="linear-gradient-11" x1="83.76" y1="45.61" x2="145.81" y2="45.61" xlink:href="#linear-gradient"></linearGradient>
    <linearGradient id="linear-gradient-12" x1="83.76" y1="51.73" x2="145.81" y2="51.73" xlink:href="#linear-gradient"></linearGradient>
    <linearGradient id="linear-gradient-13" x1="157.33" y1="124.89" x2="166.08" y2="107.62" xlink:href="#linear-gradient"></linearGradient>
    <linearGradient id="linear-gradient-14" x1="149.42" y1="120.88" x2="158.17" y2="103.61" xlink:href="#linear-gradient"></linearGradient>
    <linearGradient id="linear-gradient-15" x1="157.23" y1="124.84" x2="165.98" y2="107.57" xlink:href="#linear-gradient"></linearGradient>
    <linearGradient id="linear-gradient-16" x1="159.9" y1="126.2" x2="168.66" y2="108.93" xlink:href="#linear-gradient"></linearGradient>
  </defs>
  <g>
    <g>
      <path class="cls-17" d="M135.1,63.85c-1.39,0-2.48,1.09-2.48,2.48s1.09,2.48,2.48,2.48,2.48-1.09,2.48-2.48-1.09-2.48-2.48-2.48Z"></path>
      <path class="cls-4" d="M124.5,63.85c-1.37,0-2.48,1.11-2.48,2.48s1.09,2.48,2.48,2.48,2.48-1.09,2.48-2.48-1.09-2.48-2.48-2.48Z"></path>
    </g>
    <path class="cls-8" d="M129.88,88.15c-.1,0-.19,0-.29,0-4.07-.07-7.93-1.45-11.17-3.99-.83-.65-.97-1.85-.32-2.68.65-.83,1.85-.97,2.68-.32,2.58,2.03,5.65,3.12,8.87,3.18,3.86.05,7.55-1.4,10.34-4.12,2.79-2.72,4.36-6.37,4.42-10.29.06-6.9-4.55-12.83-11.21-14.4-.84-.18-1.73-.31-2.61-.37-1.05-.07-1.85-.99-1.77-2.04.07-1.05.99-1.85,2.04-1.77,1.05.07,2.12.23,3.18.45,8.45,1.99,14.27,9.46,14.19,18.17-.07,4.94-2.05,9.55-5.58,12.98-3.45,3.36-7.98,5.2-12.78,5.2Z"></path>
    <path class="cls-7" d="M122.76,79.24c-.29,0-.59-.07-.86-.23-.83-.48-1.12-1.54-.65-2.37,1.72-3.02,5.01-4.89,8.58-4.89s6.73,1.82,8.56,4.86c.49.82.23,1.89-.6,2.38-.82.49-1.89.23-2.38-.6-1.19-1.99-3.28-3.18-5.58-3.18s-4.45,1.2-5.56,3.14c-.32.56-.91.88-1.51.88Z"></path>
    <g>
      <path class="cls-9" d="M106.89,63.85c-1.39,0-2.48,1.09-2.48,2.48s1.09,2.48,2.48,2.48,2.48-1.09,2.48-2.48-1.09-2.48-2.48-2.48Z"></path>
      <path class="cls-15" d="M96.29,63.85c-1.37,0-2.48,1.11-2.48,2.48s1.09,2.48,2.48,2.48,2.48-1.09,2.48-2.48-1.09-2.48-2.48-2.48Z"></path>
    </g>
    <path class="cls-12" d="M101.63,88.22c-10.15,0-18.4-8.26-18.4-18.4,0-7.52,4.5-14.21,11.47-17.04.98-.4,2.09.07,2.49,1.05.4.98-.07,2.09-1.05,2.49-5.52,2.24-9.09,7.54-9.09,13.49,0,8.04,6.54,14.58,14.58,14.58s14.58-6.54,14.58-14.58c0-2.35-.53-4.55-1.58-6.52-.5-.93-.14-2.09.79-2.58.93-.49,2.09-.14,2.58.79,1.34,2.53,2.02,5.33,2.02,8.31,0,10.15-8.26,18.4-18.4,18.4Z"></path>
    <path class="cls-10" d="M108.35,76.54h-13.51c-.96,0-1.74-.78-1.74-1.74s.78-1.74,1.74-1.74h13.51c.96,0,1.74.78,1.74,1.74s-.78,1.74-1.74,1.74Z"></path>
    <g>
      <path class="cls-13" d="M120.96,39.67c-1.37,0-2.48,1.11-2.48,2.48s1.09,2.48,2.48,2.48,2.48-1.09,2.48-2.48-1.09-2.48-2.48-2.48Z"></path>
      <path class="cls-5" d="M110.36,39.67c-1.32,0-2.48,1.16-2.48,2.48,0,1.39,1.09,2.48,2.48,2.48s2.48-1.09,2.48-2.48-1.09-2.48-2.48-2.48Z"></path>
    </g>
    <path class="cls-14" d="M115.69,64.02c-4.92,0-9.54-1.91-13.01-5.39-3.48-3.48-5.39-8.1-5.39-13.01s1.91-9.54,5.39-13.01c3.48-3.48,8.1-5.39,13.01-5.39s9.54,1.91,13.01,5.39c3.48,3.48,5.39,8.1,5.39,13.01s-1.91,9.54-5.39,13.01c-3.48,3.48-8.1,5.39-13.01,5.39ZM115.69,31.04c-3.73,0-7.47,1.42-10.31,4.26-5.69,5.69-5.69,14.94,0,20.62,5.69,5.69,14.94,5.69,20.62,0,5.69-5.69,5.69-14.94,0-20.62-2.84-2.84-6.58-4.26-10.31-4.26Z"></path>
    <path class="cls-6" d="M115.63,55.47c-3.53,0-6.73-1.82-8.56-4.86-.49-.82-.23-1.89.6-2.38.82-.49,1.89-.23,2.38.6,1.19,1.99,3.28,3.18,5.58,3.18s4.45-1.2,5.56-3.14c.48-.83,1.54-1.12,2.37-.65.83.48,1.12,1.54.65,2.37-1.73,3.02-5.01,4.89-8.58,4.89Z"></path>
  </g>
  <g>
    <text class="cls-1" transform="translate(60.53 121.26)"><tspan x="0" y="0">Intention</tspan></text>
    <g>
      <path class="cls-3" d="M170.7,113.98c-.81-3.54-3.74-6.32-7.3-6.92-.33-.06-.67-.09-1-.14h-1.14c-.12.02-.25.03-.37.05-2.08.23-3.87,1.06-5.39,2.5-.79.75-1.42,1.62-1.9,2.61-.16.32-.14.63.06.93.2.29.49.41.83.37.38-.05.6-.29.76-.62,1.49-2.96,4.79-4.56,8.03-3.89,3.94.81,6.51,4.7,5.71,8.63-.98,4.8-6.26,7.32-10.6,5.06-1.43-.75-2.49-1.86-3.2-3.31-.24-.48-.76-.66-1.22-.43-.45.23-.61.75-.38,1.22,1.99,4.13,6.84,6.15,11.17,4.65,4.43-1.53,6.97-6.11,5.93-10.7Z"></path>
      <path class="cls-11" d="M155.14,115.42h-1.74c-.5,0-.91-.41-.91-.91v-1.74h-1.24v2.66h-2.66v1.24h1.74c.5,0,.91.41.91.91v1.74h1.24v-2.66h2.66v-1.24Z"></path>
      <path class="cls-2" d="M159.76,112.61l-2.5,6.47h1.17c.12,0,.23-.03.31-.1s.14-.14.18-.22l.38-1.13h2.46l.38,1.13c.04.09.1.17.18.23.08.06.18.09.32.09h1.16l-2.5-6.47h-1.54ZM159.65,116.61l.6-1.76c.04-.11.09-.25.14-.4.05-.15.1-.32.14-.5.05.18.1.34.15.5.05.15.1.29.14.4l.6,1.77h-1.77Z"></path>
      <rect class="cls-16" x="164.39" y="112.61" width="1.51" height="6.47"></rect>
    </g>
  </g>
</svg>