<?xml version="1.0" encoding="UTF-8"?>
<svg id="Camada_1" data-name="Camada 1" xmlns="http://www.w3.org/2000/svg" xmlns:xlink="http://www.w3.org/1999/xlink" viewBox="0 0 223 153">
  <defs>
    
    <linearGradient id="linear-gradient" x1="14274.49" y1="-6812.93" x2="14222.29" y2="-6854.9" gradientTransform="translate(14357.85 -6773.78) rotate(-180)" gradientUnits="userSpaceOnUse">
      <stop offset="0" stop-color="#b3bac2" stop-opacity=".5"></stop>
      <stop offset="1" stop-color="#b3bac2"></stop>
    </linearGradient>
    <linearGradient id="linear-gradient-2" x1="75.63" y1="61.24" x2="144.11" y2="61.24" gradientUnits="userSpaceOnUse">
      <stop offset="0" stop-color="#fe70bd"></stop>
      <stop offset=".2" stop-color="#fe70bd"></stop>
      <stop offset="1" stop-color="#3a60ff"></stop>
    </linearGradient>
    <linearGradient id="linear-gradient-3" x1="97.64" y1="59.61" x2="123.9" y2="59.61" xlink:href="#linear-gradient-2"></linearGradient>
    <linearGradient id="linear-gradient-4" x1="67.66" y1="60.89" x2="148.98" y2="60.89" xlink:href="#linear-gradient-2"></linearGradient>
    <linearGradient id="linear-gradient-5" x1="76.25" y1="130.86" x2="86.47" y2="130.86" xlink:href="#linear-gradient-2"></linearGradient>
  </defs>
  <g>
    <path class="cls-6" d="M108.81,26.96c8.69,0,16.87,3.38,23.04,9.51,6.16,6.14,9.58,14.31,9.61,23,.04,8.72-3.33,16.93-9.47,23.13-6.14,6.19-14.33,9.62-23.05,9.66h-.13c-8.69,0-16.87-3.38-23.04-9.51-6.16-6.14-9.58-14.31-9.61-23-.04-8.72,3.33-16.93,9.47-23.13,6.14-6.19,14.33-9.62,23.05-9.66h.13ZM108.81,87.09h.11c7.34-.03,14.23-2.92,19.39-8.13,5.17-5.21,8-12.12,7.97-19.46-.03-7.32-2.9-14.19-8.09-19.36-5.18-5.16-12.07-8.01-19.38-8.01h-.11c-7.34.03-14.23,2.92-19.39,8.13-5.17,5.21-8,12.12-7.97,19.46.03,7.32,2.9,14.19,8.09,19.36,5.18,5.16,12.07,8.01,19.38,8.01Z"></path>
    <path class="cls-1" d="M78.43,91.57c3.88,2.83,9.38,1.02,11.73.24,1.62-.53,3.31-1.22,5.15-2.09.13-.06.25-.13.36-.21-1.96-.86-3.83-1.92-5.6-3.16-.52.2-1.02.38-1.52.54-1.46.48-5.32,1.75-7.06.49-1.23-.9-.49-3.79-.11-5,1.42-4.54,4.32-8.79,6.97-12.35,3.78-5.08,8.26-10,13.71-15.07,5.44-5.06,10.99-9.42,16.49-12.96,3.67-2.37,8.54-5.27,13.67-6.74,3.23-.92,5.32-.94,6.22-.04.7.71.53,2.32.36,3.22-.31,1.67-.94,3.31-1.68,4.85,1.09,1.88,1.98,3.85,2.66,5.9.06-.08.12-.16.17-.25,1.57-2.69,3.26-5.93,3.94-9.55.43-2.32.47-5.55-1.78-7.81-1.68-1.69-3.87-2.2-5.92-2.2-2.22,0-4.28.59-5.39.91-5.79,1.65-11.09,4.8-15.06,7.36-5.75,3.71-11.54,8.26-17.21,13.52-5.68,5.28-10.37,10.44-14.34,15.77-2.91,3.91-6.1,8.61-7.76,13.89-1.08,3.44-1.61,8.1,2,10.73Z"></path>
    <path class="cls-4" d="M103.69,27.37c.11-.26.22-.52.33-.77.62-1.4,2.26-5.13,4.36-5.57,1.49-.32,3.14,2.18,3.79,3.26,2.42,4.1,3.64,9.09,4.51,13.44,1.24,6.2,1.9,12.84,2.02,20.27.12,7.43-.35,14.47-1.4,20.93-.7,4.31-1.8,9.87-4.14,14.67-1.48,3.02-2.87,4.58-4.13,4.64-.99.05-2.08-1.16-2.63-1.89-1.03-1.34-1.82-2.89-2.46-4.45-2.07-.31-4.09-.81-6.04-1.51.94,2.92,2.21,6.25,4.4,9.1,1.43,1.87,3.81,4.06,7,3.91,4.96-.24,7.55-5.54,8.53-7.54,2.64-5.41,3.85-11.45,4.6-16.11,1.09-6.76,1.59-14.1,1.47-21.84-.12-7.75-.82-14.69-2.12-21.21-.96-4.77-2.31-10.3-5.13-15.06-2.74-4.63-5.64-5.84-7.93-5.84-.49,0-.96.06-1.39.15-4.7,1-7.03,6.29-8.03,8.55-.59,1.34-1.13,2.8-1.64,4.41,1.95-.71,3.98-1.23,6.05-1.56Z"></path>
    <path class="cls-3" d="M72.37,55.32c1.1,1.21,2.35,2.42,3.8,3.68.04-2.18.29-4.32.75-6.4-.25-.25-.48-.51-.71-.76-1.03-1.14-3.77-4.15-3.32-6.25.32-1.49,3.27-1.99,4.52-2.13,4.73-.55,9.79.37,14.11,1.34,6.17,1.39,12.5,3.48,19.34,6.4,6.84,2.92,13.08,6.21,18.55,9.79,3.65,2.39,8.29,5.66,11.71,9.75,2.16,2.58,3.02,4.48,2.56,5.66-.36.93-1.91,1.43-2.8,1.64-1.75.42-3.61.5-5.41.43-1.04,1.46-2.2,2.84-3.48,4.14-.22.23-.45.45-.68.67.15.04.3.08.45.09,3.1.34,6.75.57,10.33-.29,2.29-.55,5.26-1.83,6.42-4.8,1.8-4.63-1.99-9.16-3.42-10.86-3.87-4.61-8.9-8.17-12.85-10.76-5.73-3.75-12.24-7.19-19.35-10.22-7.13-3.04-13.75-5.23-20.24-6.69-3.72-.84-7.96-1.64-12.27-1.64-1.19,0-2.38.06-3.57.2-6.5.75-8.47,3.78-8.99,6.2-1,4.7,2.89,8.98,4.55,10.81Z"></path>
  </g>
  <g>
    <path class="cls-5" d="M85.07,129.45h-2.31v-2.31c0-.77-.63-1.4-1.4-1.4s-1.4.63-1.4,1.4v2.31h-2.31c-.77,0-1.4.63-1.4,1.4s.63,1.4,1.4,1.4h2.31v2.31c0,.77.63,1.4,1.4,1.4s1.4-.63,1.4-1.4v-2.31h2.31c.77,0,1.4-.63,1.4-1.4s-.63-1.4-1.4-1.4Z"></path>
    <text class="cls-2" transform="translate(88.92 136.5)"><tspan x="0" y="0">Portal</tspan></text>
  </g>
</svg>