<?xml version="1.0" encoding="UTF-8"?>
<svg id="Camada_1" data-name="Camada 1" xmlns="http://www.w3.org/2000/svg" viewBox="0 0 223 153">
  <defs>
    
  </defs>
  <g>
    <path class="cls-1" d="M41.35,88.03c-3.83,0-6.95-3.12-6.95-6.95s3.12-6.95,6.95-6.95,6.95,3.12,6.95,6.95-3.12,6.95-6.95,6.95M41.35,71.11c-2.7,0-5.15,1.08-6.95,2.83v-2.83h-3.07l.05,9.69h0c0,.09,0,.19,0,.29l-.05,23.04h3.07v-15.9c1.8,1.75,4.25,2.83,6.95,2.83,5.5,0,9.97-4.47,9.97-9.97s-4.47-9.97-9.97-9.97"></path>
    <path class="cls-1" d="M65.02,88c-.22.02-.43.03-.65.03s-.44-.01-.65-.03c-1.58-.15-3-.82-4.1-1.85-1.35-1.27-2.2-3.07-2.2-5.07,0-3.83,3.12-6.95,6.95-6.95s6.95,3.12,6.95,6.95c0,2-.85,3.8-2.2,5.07-1.09,1.03-2.52,1.7-4.1,1.85M74.34,71.11h-9.97c-5.5,0-9.97,4.47-9.97,9.97,0,2.68,1.07,5.12,2.8,6.92.71.73,1.53,1.36,2.43,1.85,1.41.77,3.03,1.2,4.75,1.2s3.34-.44,4.75-1.2c1.35,1.27,2.2,3.07,2.2,5.07,0,3.83-3.12,6.95-6.95,6.95s-6.95-3.12-6.95-6.95h-3.02c0,5.5,4.47,9.97,9.97,9.97s9.97-4.47,9.97-9.97c0-2.68-1.07-5.12-2.8-6.92,1.73-1.79,2.8-4.23,2.8-6.92s-1.08-5.1-2.83-6.9h2.83v-3.07Z"></path>
    <g>
      <path class="cls-1" d="M89.85,80.15c-.79,0-1.43-.64-1.43-1.43v-2.74h-1.94v4.17h-4.17v1.94h2.74c.79,0,1.43.64,1.43,1.43v2.74h1.94v-4.17h4.17v-1.94h-2.74Z"></path>
      <path class="cls-1" d="M87.37,72.07c-4.98,0-9.02,4.05-9.02,9.02s4.05,9.02,9.02,9.02,9.02-4.05,9.02-9.02-4.05-9.02-9.02-9.02M87.37,91.05c-5.49,0-9.96-4.47-9.96-9.96s4.47-9.96,9.96-9.96,9.96,4.47,9.96,9.96-4.47,9.96-9.96,9.96"></path>
    </g>
    <text class="cls-2" transform="translate(100.41 88.26)"><tspan x="0" y="0">system</tspan></text>
  </g>
  <text class="cls-2" transform="translate(100.41 88.26)"><tspan x="0" y="0">system</tspan></text>
</svg>