<?xml version="1.0" encoding="UTF-8"?>
<svg id="Camada_1" data-name="Camada 1" xmlns="http://www.w3.org/2000/svg" xmlns:xlink="http://www.w3.org/1999/xlink" viewBox="0 0 223 153">
  <defs>
    
    <linearGradient id="Gradiente_sem_nome_49" data-name="Gradiente sem nome 49" x1="76.6" y1="74.28" x2="152.31" y2="74.28" gradientUnits="userSpaceOnUse">
      <stop offset="0" stop-color="#fff"></stop>
      <stop offset="1" stop-color="#b3b3b3"></stop>
    </linearGradient>
    <linearGradient id="Gradiente_sem_nome_49-2" data-name="Gradiente sem nome 49" x1="76.6" y1="39.07" x2="152.31" y2="39.07" xlink:href="#Gradiente_sem_nome_49"></linearGradient>
    <linearGradient id="Gradiente_sem_nome_49-3" data-name="Gradiente sem nome 49" x1="76.6" y1="57.51" x2="152.31" y2="57.51" xlink:href="#Gradiente_sem_nome_49"></linearGradient>
    <linearGradient id="Gradiente_sem_nome_49-4" data-name="Gradiente sem nome 49" y1="70.32" y2="70.32" xlink:href="#Gradiente_sem_nome_49"></linearGradient>
    <linearGradient id="Gradiente_sem_nome_49-5" data-name="Gradiente sem nome 49" x1="76.6" y1="42.3" x2="152.31" y2="42.3" xlink:href="#Gradiente_sem_nome_49"></linearGradient>
    <linearGradient id="Gradiente_sem_nome_49-6" data-name="Gradiente sem nome 49" x1="76.6" y1="86.55" x2="152.31" y2="86.55" xlink:href="#Gradiente_sem_nome_49"></linearGradient>
  </defs>
  <g>
    <text class="cls-5" transform="translate(74.16 133.02)"><tspan x="0" y="0">Whats</tspan></text>
    <path class="cls-2" d="M69.34,123c-.84,0-1.53-.69-1.53-1.53v-2.92h-2.08v4.45h-4.45v2.08h2.92c.84,0,1.53.69,1.53,1.53v2.92h2.08v-4.45h4.45v-2.08h-2.92Z"></path>
  </g>
  <g>
    <path class="cls-7" d="M113.62,92.22c-6.86,0-13.43-1.97-19.2-5.8-1.39-.92-1.77-2.79-.85-4.19.92-1.39,2.79-1.78,4.18-.85,5.7,3.77,12.36,5.36,19.21,4.61,13.7-1.51,24.71-13.05,25.61-26.84.11-1.67,1.5-2.92,3.21-2.82,1.67.11,2.93,1.55,2.82,3.21-1.09,16.67-14.41,30.62-30.98,32.45-1.34.15-2.68.22-4,.22Z"></path>
    <path class="cls-3" d="M82,55.83c-.13,0-.27-.01-.41-.03-1.65-.22-2.81-1.74-2.59-3.4.98-7.29,4.24-14,9.42-19.38,6.07-6.3,14.14-10.11,22.75-10.71,1.62-.08,3.11,1.14,3.23,2.8.12,1.67-1.14,3.11-2.8,3.23-7.11.5-13.79,3.65-18.81,8.87-4.28,4.45-6.98,9.99-7.79,16-.2,1.52-1.5,2.62-2.99,2.62Z"></path>
    <path class="cls-4" d="M124.85,73.11c1.54-.14,4.96-2.03,5.66-3.99.7-1.96.7-3.64.49-3.99-.21-.35-.77-.56-1.61-.98-.84-.42-4.97-2.45-5.73-2.73-.77-.28-1.33-.42-1.89.42-.56.84-2.17,2.73-2.66,3.29-.49.56-.98.63-1.82.21-.84-.42-3.54-1.31-6.75-4.16-2.49-2.22-4.18-4.97-4.67-5.81-.49-.84-.05-1.29.37-1.71.38-.38.84-.98,1.26-1.47.42-.49.56-.84.84-1.4.28-.56.14-1.05-.07-1.47-.21-.42-1.89-4.55-2.59-6.23-.7-1.68-1.4-1.4-1.89-1.4s-1.05-.07-1.61-.07-1.47.21-2.24,1.05-2.94,2.87-2.94,7,3.01,8.12,3.43,8.68c.42.56,5.8,9.31,14.34,12.67,8.53,3.36,8.53,2.24,10.07,2.1Z"></path>
    <path class="cls-8" d="M83.8,90.87c-.8,0-1.57-.31-2.15-.9-.8-.81-1.07-2-.71-3.09l3.51-10.44c-4.65-7.06-6.59-15.54-5.44-24.04.22-1.66,1.74-2.81,3.4-2.59,1.65.22,2.81,1.74,2.59,3.4-1.01,7.49.85,14.94,5.24,20.99.57.79.73,1.81.42,2.74l-2.09,6.21,6.6-2.11c1.57-.51,3.28.37,3.8,1.95.51,1.59-.37,3.29-1.96,3.8l-12.29,3.94c-.3.1-.61.14-.92.14Z"></path>
    <path class="cls-1" d="M145.59,62.37c-.07,0-.13,0-.2,0-1.67-.11-2.93-1.55-2.82-3.21.55-8.36-2.55-16.55-8.48-22.45-5.93-5.9-14.12-8.97-22.49-8.37-1.7.12-3.11-1.14-3.23-2.8-.12-1.66,1.14-3.11,2.8-3.22,10.1-.71,20.01,2.98,27.18,10.11,7.17,7.14,10.9,17.02,10.25,27.13-.1,1.6-1.43,2.83-3.01,2.83Z"></path>
    <path class="cls-6" d="M113.62,92.22c-6.37,0-12.49-1.7-17.96-5.01l-10.95,3.51c-1.6.51-3.29-.37-3.8-1.95-.51-1.59.37-3.29,1.96-3.8l12.29-3.94c.88-.29,1.82-.15,2.59.36,5.7,3.77,12.36,5.36,19.21,4.61,1.67-.18,3.15,1.01,3.33,2.67.18,1.66-1.01,3.15-2.67,3.34-1.34.15-2.68.22-4,.22Z"></path>
  </g>
</svg>