<?xml version="1.0" encoding="UTF-8"?>
<svg id="Camada_1" data-name="Camada 1" xmlns="http://www.w3.org/2000/svg" xmlns:xlink="http://www.w3.org/1999/xlink" viewBox="0 0 223 153">
  <defs>
    
    <linearGradient id="Gradiente_sem_nome_49" data-name="Gradiente sem nome 49" x1="79.6" y1="79.22" x2="155.31" y2="79.22" gradientUnits="userSpaceOnUse">
      <stop offset="0" stop-color="#fff"></stop>
      <stop offset="1" stop-color="#b3b3b3"></stop>
    </linearGradient>
    <linearGradient id="Gradiente_sem_nome_49-2" data-name="Gradiente sem nome 49" x1="79.6" y1="43.97" x2="155.31" y2="43.97" xlink:href="#Gradiente_sem_nome_49"></linearGradient>
    <linearGradient id="Gradiente_sem_nome_49-3" data-name="Gradiente sem nome 49" y1="46" x2="155.31" y2="46" xlink:href="#Gradiente_sem_nome_49"></linearGradient>
    <linearGradient id="Gradiente_sem_nome_49-4" data-name="Gradiente sem nome 49" x1="79.6" y1="62.19" x2="155.31" y2="62.19" xlink:href="#Gradiente_sem_nome_49"></linearGradient>
  </defs>
  <g>
    <path class="cls-5" d="M136.11,84.35l-.29.22c-5.43,4.24-12.23,6.58-19.14,6.58-16.57,0-29.6-12.53-30-28.67-.1,1.55-1.37,2.78-2.94,2.78s-2.96-1.33-2.96-2.96c0-.2-.01-.39-.01-.59h0c0,19.63,15.82,35,36.01,35,8.21,0,16.12-2.61,22.26-7.34l.27-.21c1.34-.89,1.69-2.69.8-4.01-.88-1.32-2.67-1.69-3.99-.81Z"></path>
    <path class="cls-3" d="M117.02,26.72c-.09,0-.18,0-.27,0,1.51.04,2.72,1.26,2.72,2.78s-1.25,2.79-2.79,2.79h0c.11,0,.22,0,.34,0,16.74,0,29.85,12.71,29.85,28.93-.05-1.58,1.2-2.9,2.78-2.95,1.58-.05,2.9,1.2,2.95,2.78h0c0-19.57-15.3-34.33-35.59-34.33Z"></path>
    <path class="cls-4" d="M119.46,29.51c0-1.54-1.25-2.79-2.79-2.79h0c-20.17.17-35.93,15.47-35.93,34.99,0,.2.01.39.01.59,0,1.64,1.33,2.96,2.96,2.96s2.96-1.33,2.96-2.96h0c0-.2-.03-.39-.03-.59,0-16.12,13.44-29.24,30.02-29.42h0c1.54,0,2.79-1.25,2.79-2.79Z"></path>
    <path class="cls-6" d="M152.6,61.05c-.05-1.58-1.37-2.83-2.95-2.78-1.58.05-2.83,1.37-2.78,2.95,0,7.66-2.95,12.06-8.1,12.06-3.86,0-5.82-2.84-5.82-8.43v-16.19l-.43-.14c-5.5-1.75-10.69-3.41-16.86-3.41-10.02,0-17.29,7.2-17.29,17.12s7.22,17.04,16.78,17.04c4.9,0,9.27-1.92,12.31-5.42l.33-.38.26.44c2.04,3.49,5.54,5.19,10.71,5.19,8.79,0,13.83-6.58,13.83-18.05h0ZM126.15,67.39c-3.17,5.08-7.97,5.63-9.89,5.63-7.01,0-10.79-5.6-10.79-10.88,0-7.07,5.56-10.88,10.79-10.88,2.92,0,5.81.71,9.53,1.86l.26.08v10.12c0,1.32.08,2.63.16,3.85v.12s-.05.1-.05.1Z"></path>
  </g>
  <g>
    <text class="cls-2" transform="translate(82.69 137.52)"><tspan x="0" y="0">Email</tspan></text>
    <path class="cls-1" d="M77.88,127.5c-.84,0-1.53-.69-1.53-1.53v-2.92h-2.08v4.45h-4.45v2.08h2.92c.84,0,1.53.69,1.53,1.53v2.92h2.08v-4.45h4.45v-2.08h-2.92Z"></path>
  </g>
</svg>