<?xml version="1.0" encoding="UTF-8"?>
<svg id="Camada_1" data-name="Camada 1" xmlns="http://www.w3.org/2000/svg" xmlns:xlink="http://www.w3.org/1999/xlink" viewBox="0 0 374.5 153">
  <defs>
    
    <linearGradient id="linear-gradient" x1="55.15" y1="76.3" x2="198.28" y2="76.3" gradientUnits="userSpaceOnUse">
      <stop offset="0" stop-color="#fe70bd"></stop>
      <stop offset=".2" stop-color="#fe70bd"></stop>
      <stop offset="1" stop-color="#3a60ff"></stop>
    </linearGradient>
    <linearGradient id="linear-gradient-2" x1="55.15" y1="93.57" x2="198.28" y2="93.57" xlink:href="#linear-gradient"></linearGradient>
    <linearGradient id="linear-gradient-3" x1="55.15" y1="75.92" x2="198.28" y2="75.92" xlink:href="#linear-gradient"></linearGradient>
    <linearGradient id="linear-gradient-4" x1="55.15" y1="93.57" x2="198.28" y2="93.57" xlink:href="#linear-gradient"></linearGradient>
    <linearGradient id="linear-gradient-5" x1="55.15" x2="198.28" xlink:href="#linear-gradient"></linearGradient>
    <linearGradient id="linear-gradient-6" x1="55.15" y1="93.57" x2="198.28" y2="93.57" xlink:href="#linear-gradient"></linearGradient>
  </defs>
  <text class="cls-7" transform="translate(220.62 65.46)"><tspan x="0" y="0">Sistema</tspan><tspan x="0" y="16">Modular de</tspan><tspan x="0" y="32">Relacionamento</tspan></text>
  <g>
    <path class="cls-6" d="M66.35,95.09c-3.13-1.75-5.59-4.24-7.4-7.47-1.81-3.23-2.71-7-2.71-11.32s.91-8.09,2.75-11.32c1.83-3.23,4.32-5.72,7.47-7.47,3.15-1.75,6.68-2.63,10.6-2.63s7.46.88,10.64,2.63c3.18,1.75,5.67,4.24,7.47,7.47,1.8,3.23,2.71,7,2.71,11.32s-.91,8.03-2.74,11.28c-1.83,3.25-4.35,5.76-7.55,7.51-3.2,1.75-6.76,2.63-10.67,2.63s-7.43-.88-10.56-2.63ZM84.53,91.2c2.34-1.24,4.23-3.13,5.68-5.64,1.45-2.52,2.17-5.6,2.17-9.26s-.71-6.75-2.13-9.26c-1.42-2.52-3.3-4.4-5.64-5.64-2.34-1.24-4.88-1.87-7.62-1.87s-5.29.62-7.62,1.87c-2.34,1.25-4.21,3.13-5.6,5.64-1.4,2.52-2.1,5.6-2.1,9.26s.7,6.75,2.1,9.26c1.4,2.52,3.25,4.4,5.57,5.64,2.31,1.25,4.84,1.87,7.59,1.87s5.29-.62,7.62-1.87Z"></path>
    <path class="cls-1" d="M98.58,96.35c-.74-.76-1.11-1.7-1.11-2.82s.37-2.05,1.11-2.78,1.66-1.11,2.78-1.11,1.97.37,2.71,1.11c.74.74,1.11,1.67,1.11,2.78s-.37,2.06-1.11,2.82c-.74.76-1.64,1.14-2.71,1.14s-2.05-.38-2.78-1.14Z"></path>
    <path class="cls-3" d="M140.39,59.34c3.15,3.08,4.73,7.54,4.73,13.38v24.4h-5.26v-23.79c0-4.52-1.13-7.98-3.39-10.37-2.26-2.39-5.35-3.58-9.26-3.58s-7.22,1.27-9.61,3.81c-2.39,2.54-3.58,6.28-3.58,11.21v22.72h-5.34v-41.63h5.34v7.09c1.32-2.54,3.23-4.48,5.72-5.83,2.49-1.35,5.31-2.02,8.46-2.02,4.98,0,9.05,1.54,12.2,4.61Z"></path>
    <path class="cls-2" d="M149.59,96.35c-.74-.76-1.11-1.7-1.11-2.82s.37-2.05,1.11-2.78c.74-.74,1.66-1.11,2.78-1.11s1.97.37,2.71,1.11c.74.74,1.11,1.67,1.11,2.78s-.37,2.06-1.11,2.82c-.74.76-1.64,1.14-2.71,1.14s-2.05-.38-2.78-1.14Z"></path>
    <path class="cls-4" d="M195.66,78.36h-34.54c.15,3.15.91,5.85,2.29,8.08,1.37,2.24,3.18,3.93,5.41,5.07,2.24,1.14,4.68,1.72,7.32,1.72,3.46,0,6.37-.84,8.73-2.52,2.36-1.68,3.93-3.94,4.69-6.79h5.64c-1.02,4.07-3.19,7.38-6.52,9.95-3.33,2.57-7.51,3.85-12.54,3.85-3.91,0-7.42-.88-10.52-2.63-3.1-1.75-5.53-4.24-7.28-7.47-1.75-3.23-2.63-7-2.63-11.32s.86-8.11,2.59-11.36c1.73-3.25,4.14-5.74,7.24-7.47,3.1-1.73,6.63-2.59,10.6-2.59s7.43.86,10.41,2.59c2.97,1.73,5.26,4.05,6.86,6.98,1.6,2.92,2.4,6.16,2.4,9.72,0,1.83-.05,3.23-.15,4.19ZM188.53,66.08c-1.3-2.18-3.06-3.84-5.3-4.96-2.24-1.12-4.68-1.68-7.32-1.68-3.96,0-7.35,1.27-10.14,3.81-2.8,2.54-4.35,6.13-4.65,10.75h29.28c.05-3.1-.57-5.74-1.87-7.93Z"></path>
    <path class="cls-5" d="M196.93,96.35c-.74-.76-1.11-1.7-1.11-2.82s.37-2.05,1.11-2.78c.74-.74,1.66-1.11,2.78-1.11s1.97.37,2.71,1.11c.74.74,1.11,1.67,1.11,2.78s-.37,2.06-1.11,2.82c-.74.76-1.64,1.14-2.71,1.14s-2.05-.38-2.78-1.14Z"></path>
  </g>
</svg>