<?xml version="1.0" encoding="UTF-8"?>
<svg id="Camada_1" data-name="Camada 1" xmlns="http://www.w3.org/2000/svg" xmlns:xlink="http://www.w3.org/1999/xlink" viewBox="0 0 223 153">
  <defs>
    
    <linearGradient id="Gradiente_sem_nome_49" data-name="Gradiente sem nome 49" x1="78.88" y1="77.08" x2="150.46" y2="77.08" gradientUnits="userSpaceOnUse">
      <stop offset="0" stop-color="#fff"></stop>
      <stop offset="1" stop-color="#b3b3b3"></stop>
    </linearGradient>
    <linearGradient id="Gradiente_sem_nome_49-2" data-name="Gradiente sem nome 49" x1="78.88" y1="39.85" x2="150.46" y2="39.85" xlink:href="#Gradiente_sem_nome_49"></linearGradient>
    <linearGradient id="Gradiente_sem_nome_49-3" data-name="Gradiente sem nome 49" x1="78.88" y1="55.26" x2="150.46" y2="55.26" xlink:href="#Gradiente_sem_nome_49"></linearGradient>
    <linearGradient id="Gradiente_sem_nome_49-4" data-name="Gradiente sem nome 49" x1="78.88" y1="55.26" x2="150.46" y2="55.26" xlink:href="#Gradiente_sem_nome_49"></linearGradient>
    <linearGradient id="Gradiente_sem_nome_49-5" data-name="Gradiente sem nome 49" x1="78.88" y1="70.24" x2="150.46" y2="70.24" xlink:href="#Gradiente_sem_nome_49"></linearGradient>
    <linearGradient id="Gradiente_sem_nome_49-6" data-name="Gradiente sem nome 49" x1="78.88" y1="70.24" x2="150.46" y2="70.24" xlink:href="#Gradiente_sem_nome_49"></linearGradient>
    <linearGradient id="Gradiente_sem_nome_49-7" data-name="Gradiente sem nome 49" x1="78.88" y1="54.42" x2="150.46" y2="54.42" xlink:href="#Gradiente_sem_nome_49"></linearGradient>
    <linearGradient id="Gradiente_sem_nome_49-8" data-name="Gradiente sem nome 49" x1="78.88" y1="54.42" x2="150.46" y2="54.42" xlink:href="#Gradiente_sem_nome_49"></linearGradient>
    <linearGradient id="Gradiente_sem_nome_49-9" data-name="Gradiente sem nome 49" x1="78.88" y1="55.26" x2="150.46" y2="55.26" xlink:href="#Gradiente_sem_nome_49"></linearGradient>
    <linearGradient id="Gradiente_sem_nome_49-10" data-name="Gradiente sem nome 49" x1="78.88" y1="30.49" x2="150.46" y2="30.49" xlink:href="#Gradiente_sem_nome_49"></linearGradient>
    <linearGradient id="Gradiente_sem_nome_49-11" data-name="Gradiente sem nome 49" x1="78.88" y1="30.49" x2="150.46" y2="30.49" xlink:href="#Gradiente_sem_nome_49"></linearGradient>
    <clipPath id="clippath">
      <path class="cls-74" d="M128.66,32.25c-.97,0-1.76-.79-1.76-1.76s.79-1.76,1.76-1.76,1.76.79,1.76,1.76-.79,1.76-1.76,1.76Z"></path>
    </clipPath>
    <linearGradient id="Gradiente_sem_nome_49-12" data-name="Gradiente sem nome 49" x1="78.88" y1="30.49" x2="150.46" y2="30.49" xlink:href="#Gradiente_sem_nome_49"></linearGradient>
    <linearGradient id="Gradiente_sem_nome_49-13" data-name="Gradiente sem nome 49" x1="78.88" y1="30.49" x2="150.46" y2="30.49" xlink:href="#Gradiente_sem_nome_49"></linearGradient>
    <linearGradient id="Gradiente_sem_nome_49-14" data-name="Gradiente sem nome 49" x1="78.88" y1="30.49" x2="150.46" y2="30.49" xlink:href="#Gradiente_sem_nome_49"></linearGradient>
    <linearGradient id="Gradiente_sem_nome_49-15" data-name="Gradiente sem nome 49" x1="78.88" y1="30.49" x2="150.46" y2="30.49" xlink:href="#Gradiente_sem_nome_49"></linearGradient>
    <linearGradient id="Gradiente_sem_nome_49-16" data-name="Gradiente sem nome 49" x1="78.88" y1="30.49" x2="150.46" y2="30.49" xlink:href="#Gradiente_sem_nome_49"></linearGradient>
    <linearGradient id="Gradiente_sem_nome_49-17" data-name="Gradiente sem nome 49" x1="78.88" y1="30.49" x2="150.46" y2="30.49" xlink:href="#Gradiente_sem_nome_49"></linearGradient>
    <linearGradient id="Gradiente_sem_nome_49-18" data-name="Gradiente sem nome 49" x1="78.88" y1="30.49" x2="150.46" y2="30.49" xlink:href="#Gradiente_sem_nome_49"></linearGradient>
    <linearGradient id="Gradiente_sem_nome_49-19" data-name="Gradiente sem nome 49" x1="78.88" y1="30.49" x2="150.46" y2="30.49" xlink:href="#Gradiente_sem_nome_49"></linearGradient>
    <linearGradient id="Gradiente_sem_nome_49-20" data-name="Gradiente sem nome 49" x1="78.88" y1="30.49" x2="150.46" y2="30.49" xlink:href="#Gradiente_sem_nome_49"></linearGradient>
    <linearGradient id="Gradiente_sem_nome_49-21" data-name="Gradiente sem nome 49" x1="78.88" y1="30.49" x2="150.46" y2="30.49" xlink:href="#Gradiente_sem_nome_49"></linearGradient>
    <linearGradient id="Gradiente_sem_nome_49-22" data-name="Gradiente sem nome 49" x1="78.88" y1="30.49" x2="150.46" y2="30.49" xlink:href="#Gradiente_sem_nome_49"></linearGradient>
    <linearGradient id="Gradiente_sem_nome_49-23" data-name="Gradiente sem nome 49" x1="78.88" y1="30.49" x2="150.46" y2="30.49" xlink:href="#Gradiente_sem_nome_49"></linearGradient>
    <linearGradient id="Gradiente_sem_nome_49-24" data-name="Gradiente sem nome 49" x1="78.88" y1="30.49" x2="150.46" y2="30.49" xlink:href="#Gradiente_sem_nome_49"></linearGradient>
    <linearGradient id="Gradiente_sem_nome_49-25" data-name="Gradiente sem nome 49" x1="78.88" y1="30.49" x2="150.46" y2="30.49" xlink:href="#Gradiente_sem_nome_49"></linearGradient>
    <linearGradient id="Gradiente_sem_nome_49-26" data-name="Gradiente sem nome 49" x1="78.88" y1="30.49" x2="150.46" y2="30.49" xlink:href="#Gradiente_sem_nome_49"></linearGradient>
    <linearGradient id="Gradiente_sem_nome_49-27" data-name="Gradiente sem nome 49" x1="78.88" y1="30.49" x2="150.46" y2="30.49" xlink:href="#Gradiente_sem_nome_49"></linearGradient>
    <linearGradient id="Gradiente_sem_nome_49-28" data-name="Gradiente sem nome 49" x1="78.88" y1="30.49" x2="150.46" y2="30.49" xlink:href="#Gradiente_sem_nome_49"></linearGradient>
    <linearGradient id="Gradiente_sem_nome_49-29" data-name="Gradiente sem nome 49" x1="78.88" y1="30.49" x2="150.46" y2="30.49" xlink:href="#Gradiente_sem_nome_49"></linearGradient>
    <linearGradient id="Gradiente_sem_nome_49-30" data-name="Gradiente sem nome 49" x1="78.88" y1="30.49" x2="150.46" y2="30.49" xlink:href="#Gradiente_sem_nome_49"></linearGradient>
    <linearGradient id="Gradiente_sem_nome_49-31" data-name="Gradiente sem nome 49" x1="78.88" y1="30.49" x2="150.46" y2="30.49" xlink:href="#Gradiente_sem_nome_49"></linearGradient>
    <linearGradient id="Gradiente_sem_nome_49-32" data-name="Gradiente sem nome 49" x1="78.88" y1="30.49" x2="150.46" y2="30.49" xlink:href="#Gradiente_sem_nome_49"></linearGradient>
    <linearGradient id="Gradiente_sem_nome_49-33" data-name="Gradiente sem nome 49" x1="78.88" y1="30.49" x2="150.46" y2="30.49" xlink:href="#Gradiente_sem_nome_49"></linearGradient>
    <linearGradient id="Gradiente_sem_nome_49-34" data-name="Gradiente sem nome 49" x1="78.88" y1="30.49" x2="150.46" y2="30.49" xlink:href="#Gradiente_sem_nome_49"></linearGradient>
    <linearGradient id="Gradiente_sem_nome_49-35" data-name="Gradiente sem nome 49" x1="78.88" y1="30.49" x2="150.46" y2="30.49" xlink:href="#Gradiente_sem_nome_49"></linearGradient>
    <linearGradient id="Gradiente_sem_nome_49-36" data-name="Gradiente sem nome 49" x1="78.88" y1="30.49" x2="150.46" y2="30.49" xlink:href="#Gradiente_sem_nome_49"></linearGradient>
    <linearGradient id="Gradiente_sem_nome_49-37" data-name="Gradiente sem nome 49" x1="78.88" y1="30.49" x2="150.46" y2="30.49" xlink:href="#Gradiente_sem_nome_49"></linearGradient>
    <linearGradient id="Gradiente_sem_nome_49-38" data-name="Gradiente sem nome 49" x1="78.88" y1="30.49" x2="150.46" y2="30.49" xlink:href="#Gradiente_sem_nome_49"></linearGradient>
    <linearGradient id="Gradiente_sem_nome_49-39" data-name="Gradiente sem nome 49" x1="78.88" y1="30.49" x2="150.46" y2="30.49" xlink:href="#Gradiente_sem_nome_49"></linearGradient>
    <linearGradient id="Gradiente_sem_nome_49-40" data-name="Gradiente sem nome 49" x1="78.88" y1="30.49" x2="150.46" y2="30.49" xlink:href="#Gradiente_sem_nome_49"></linearGradient>
    <linearGradient id="Gradiente_sem_nome_49-41" data-name="Gradiente sem nome 49" x1="78.88" y1="30.49" x2="150.46" y2="30.49" xlink:href="#Gradiente_sem_nome_49"></linearGradient>
    <linearGradient id="Gradiente_sem_nome_49-42" data-name="Gradiente sem nome 49" x1="78.88" y1="30.49" x2="150.46" y2="30.49" xlink:href="#Gradiente_sem_nome_49"></linearGradient>
    <linearGradient id="Gradiente_sem_nome_49-43" data-name="Gradiente sem nome 49" x1="78.88" y1="30.49" x2="150.46" y2="30.49" xlink:href="#Gradiente_sem_nome_49"></linearGradient>
    <linearGradient id="Gradiente_sem_nome_49-44" data-name="Gradiente sem nome 49" x1="78.88" y1="30.49" x2="150.46" y2="30.49" xlink:href="#Gradiente_sem_nome_49"></linearGradient>
    <linearGradient id="Gradiente_sem_nome_49-45" data-name="Gradiente sem nome 49" x1="78.88" y1="30.49" x2="150.46" y2="30.49" xlink:href="#Gradiente_sem_nome_49"></linearGradient>
    <linearGradient id="Gradiente_sem_nome_49-46" data-name="Gradiente sem nome 49" x1="78.88" y1="30.49" x2="150.46" y2="30.49" xlink:href="#Gradiente_sem_nome_49"></linearGradient>
    <linearGradient id="Gradiente_sem_nome_49-47" data-name="Gradiente sem nome 49" x1="78.88" y1="30.49" x2="150.46" y2="30.49" xlink:href="#Gradiente_sem_nome_49"></linearGradient>
    <linearGradient id="Gradiente_sem_nome_49-48" data-name="Gradiente sem nome 49" x1="78.88" y1="30.49" x2="150.46" y2="30.49" xlink:href="#Gradiente_sem_nome_49"></linearGradient>
    <linearGradient id="Gradiente_sem_nome_49-49" data-name="Gradiente sem nome 49" x1="78.88" y1="30.49" x2="150.46" y2="30.49" xlink:href="#Gradiente_sem_nome_49"></linearGradient>
    <linearGradient id="Gradiente_sem_nome_49-50" data-name="Gradiente sem nome 49" x1="78.88" y1="30.49" x2="150.46" y2="30.49" xlink:href="#Gradiente_sem_nome_49"></linearGradient>
    <linearGradient id="Gradiente_sem_nome_49-51" data-name="Gradiente sem nome 49" x1="78.88" y1="30.49" x2="150.46" y2="30.49" xlink:href="#Gradiente_sem_nome_49"></linearGradient>
    <clipPath id="clippath-1">
      <path class="cls-7" d="M134.64,32.25c-.97,0-1.76-.79-1.76-1.76s.79-1.76,1.76-1.76,1.76.79,1.76,1.76-.79,1.76-1.76,1.76Z"></path>
    </clipPath>
    <linearGradient id="Gradiente_sem_nome_49-52" data-name="Gradiente sem nome 49" x1="78.88" y1="30.49" x2="150.46" y2="30.49" xlink:href="#Gradiente_sem_nome_49"></linearGradient>
    <linearGradient id="Gradiente_sem_nome_49-53" data-name="Gradiente sem nome 49" x1="78.88" y1="30.49" x2="150.46" y2="30.49" xlink:href="#Gradiente_sem_nome_49"></linearGradient>
    <linearGradient id="Gradiente_sem_nome_49-54" data-name="Gradiente sem nome 49" x1="78.88" y1="30.49" x2="150.46" y2="30.49" xlink:href="#Gradiente_sem_nome_49"></linearGradient>
    <linearGradient id="Gradiente_sem_nome_49-55" data-name="Gradiente sem nome 49" x1="78.88" y1="30.49" x2="150.46" y2="30.49" xlink:href="#Gradiente_sem_nome_49"></linearGradient>
    <linearGradient id="Gradiente_sem_nome_49-56" data-name="Gradiente sem nome 49" x1="78.88" y1="30.49" x2="150.46" y2="30.49" xlink:href="#Gradiente_sem_nome_49"></linearGradient>
    <linearGradient id="Gradiente_sem_nome_49-57" data-name="Gradiente sem nome 49" x1="78.88" y1="30.49" x2="150.46" y2="30.49" xlink:href="#Gradiente_sem_nome_49"></linearGradient>
    <linearGradient id="Gradiente_sem_nome_49-58" data-name="Gradiente sem nome 49" x1="78.88" y1="30.49" x2="150.46" y2="30.49" xlink:href="#Gradiente_sem_nome_49"></linearGradient>
    <linearGradient id="Gradiente_sem_nome_49-59" data-name="Gradiente sem nome 49" x1="78.88" y1="30.49" x2="150.46" y2="30.49" xlink:href="#Gradiente_sem_nome_49"></linearGradient>
    <linearGradient id="Gradiente_sem_nome_49-60" data-name="Gradiente sem nome 49" x1="78.88" y1="30.49" x2="150.46" y2="30.49" xlink:href="#Gradiente_sem_nome_49"></linearGradient>
    <linearGradient id="Gradiente_sem_nome_49-61" data-name="Gradiente sem nome 49" x1="78.88" y1="30.49" x2="150.46" y2="30.49" xlink:href="#Gradiente_sem_nome_49"></linearGradient>
    <linearGradient id="Gradiente_sem_nome_49-62" data-name="Gradiente sem nome 49" x1="78.88" y1="30.49" x2="150.46" y2="30.49" xlink:href="#Gradiente_sem_nome_49"></linearGradient>
    <linearGradient id="Gradiente_sem_nome_49-63" data-name="Gradiente sem nome 49" x1="78.88" y1="30.49" x2="150.46" y2="30.49" xlink:href="#Gradiente_sem_nome_49"></linearGradient>
    <linearGradient id="Gradiente_sem_nome_49-64" data-name="Gradiente sem nome 49" x1="78.88" y1="30.49" x2="150.46" y2="30.49" xlink:href="#Gradiente_sem_nome_49"></linearGradient>
    <linearGradient id="Gradiente_sem_nome_49-65" data-name="Gradiente sem nome 49" x1="78.88" y1="30.49" x2="150.46" y2="30.49" xlink:href="#Gradiente_sem_nome_49"></linearGradient>
    <linearGradient id="Gradiente_sem_nome_49-66" data-name="Gradiente sem nome 49" x1="78.88" y1="30.49" x2="150.46" y2="30.49" xlink:href="#Gradiente_sem_nome_49"></linearGradient>
    <linearGradient id="Gradiente_sem_nome_49-67" data-name="Gradiente sem nome 49" x1="78.88" y1="30.49" x2="150.46" y2="30.49" xlink:href="#Gradiente_sem_nome_49"></linearGradient>
    <linearGradient id="Gradiente_sem_nome_49-68" data-name="Gradiente sem nome 49" x1="78.88" y1="30.49" x2="150.46" y2="30.49" xlink:href="#Gradiente_sem_nome_49"></linearGradient>
    <linearGradient id="Gradiente_sem_nome_49-69" data-name="Gradiente sem nome 49" x1="78.88" y1="30.49" x2="150.46" y2="30.49" xlink:href="#Gradiente_sem_nome_49"></linearGradient>
    <linearGradient id="Gradiente_sem_nome_49-70" data-name="Gradiente sem nome 49" x1="78.88" y1="30.49" x2="150.46" y2="30.49" xlink:href="#Gradiente_sem_nome_49"></linearGradient>
    <linearGradient id="Gradiente_sem_nome_49-71" data-name="Gradiente sem nome 49" x1="78.88" y1="30.49" x2="150.46" y2="30.49" xlink:href="#Gradiente_sem_nome_49"></linearGradient>
    <linearGradient id="Gradiente_sem_nome_49-72" data-name="Gradiente sem nome 49" x1="78.88" y1="30.49" x2="150.46" y2="30.49" xlink:href="#Gradiente_sem_nome_49"></linearGradient>
    <linearGradient id="Gradiente_sem_nome_49-73" data-name="Gradiente sem nome 49" x1="78.88" y1="30.49" x2="150.46" y2="30.49" xlink:href="#Gradiente_sem_nome_49"></linearGradient>
    <linearGradient id="Gradiente_sem_nome_49-74" data-name="Gradiente sem nome 49" x1="78.88" y1="30.49" x2="150.46" y2="30.49" xlink:href="#Gradiente_sem_nome_49"></linearGradient>
    <linearGradient id="Gradiente_sem_nome_49-75" data-name="Gradiente sem nome 49" x1="78.88" y1="30.49" x2="150.46" y2="30.49" xlink:href="#Gradiente_sem_nome_49"></linearGradient>
    <linearGradient id="Gradiente_sem_nome_49-76" data-name="Gradiente sem nome 49" x1="78.88" y1="30.49" x2="150.46" y2="30.49" xlink:href="#Gradiente_sem_nome_49"></linearGradient>
    <linearGradient id="Gradiente_sem_nome_49-77" data-name="Gradiente sem nome 49" x1="78.88" y1="30.49" x2="150.46" y2="30.49" xlink:href="#Gradiente_sem_nome_49"></linearGradient>
    <linearGradient id="Gradiente_sem_nome_49-78" data-name="Gradiente sem nome 49" x1="78.88" y1="30.49" x2="150.46" y2="30.49" xlink:href="#Gradiente_sem_nome_49"></linearGradient>
    <linearGradient id="Gradiente_sem_nome_49-79" data-name="Gradiente sem nome 49" x1="78.88" y1="30.49" x2="150.46" y2="30.49" xlink:href="#Gradiente_sem_nome_49"></linearGradient>
    <linearGradient id="Gradiente_sem_nome_49-80" data-name="Gradiente sem nome 49" x1="78.88" y1="30.49" x2="150.46" y2="30.49" xlink:href="#Gradiente_sem_nome_49"></linearGradient>
    <linearGradient id="Gradiente_sem_nome_49-81" data-name="Gradiente sem nome 49" x1="78.88" y1="30.49" x2="150.46" y2="30.49" xlink:href="#Gradiente_sem_nome_49"></linearGradient>
    <linearGradient id="Gradiente_sem_nome_49-82" data-name="Gradiente sem nome 49" x1="78.88" y1="30.49" x2="150.46" y2="30.49" xlink:href="#Gradiente_sem_nome_49"></linearGradient>
    <linearGradient id="Gradiente_sem_nome_49-83" data-name="Gradiente sem nome 49" x1="78.88" y1="30.49" x2="150.46" y2="30.49" xlink:href="#Gradiente_sem_nome_49"></linearGradient>
    <linearGradient id="Gradiente_sem_nome_49-84" data-name="Gradiente sem nome 49" x1="78.88" y1="30.49" x2="150.46" y2="30.49" xlink:href="#Gradiente_sem_nome_49"></linearGradient>
    <linearGradient id="Gradiente_sem_nome_49-85" data-name="Gradiente sem nome 49" x1="78.88" y1="30.49" x2="150.46" y2="30.49" xlink:href="#Gradiente_sem_nome_49"></linearGradient>
    <linearGradient id="Gradiente_sem_nome_49-86" data-name="Gradiente sem nome 49" x1="78.88" y1="30.49" x2="150.46" y2="30.49" xlink:href="#Gradiente_sem_nome_49"></linearGradient>
    <linearGradient id="Gradiente_sem_nome_49-87" data-name="Gradiente sem nome 49" x1="78.88" y1="30.49" x2="150.46" y2="30.49" xlink:href="#Gradiente_sem_nome_49"></linearGradient>
    <linearGradient id="Gradiente_sem_nome_49-88" data-name="Gradiente sem nome 49" x1="78.88" y1="30.49" x2="150.46" y2="30.49" xlink:href="#Gradiente_sem_nome_49"></linearGradient>
    <linearGradient id="Gradiente_sem_nome_49-89" data-name="Gradiente sem nome 49" x1="78.88" y1="30.49" x2="150.46" y2="30.49" xlink:href="#Gradiente_sem_nome_49"></linearGradient>
    <linearGradient id="Gradiente_sem_nome_49-90" data-name="Gradiente sem nome 49" x1="78.88" y1="30.49" x2="150.46" y2="30.49" xlink:href="#Gradiente_sem_nome_49"></linearGradient>
    <linearGradient id="Gradiente_sem_nome_49-91" data-name="Gradiente sem nome 49" x1="78.88" y1="30.49" x2="150.46" y2="30.49" xlink:href="#Gradiente_sem_nome_49"></linearGradient>
    <clipPath id="clippath-2">
      <path class="cls-46" d="M140.62,32.25c-.97,0-1.76-.79-1.76-1.76s.79-1.76,1.76-1.76,1.76.79,1.76,1.76-.79,1.76-1.76,1.76Z"></path>
    </clipPath>
    <linearGradient id="Gradiente_sem_nome_49-92" data-name="Gradiente sem nome 49" x1="78.88" y1="30.49" x2="150.46" y2="30.49" xlink:href="#Gradiente_sem_nome_49"></linearGradient>
    <linearGradient id="Gradiente_sem_nome_49-93" data-name="Gradiente sem nome 49" x1="78.88" y1="30.49" x2="150.46" y2="30.49" xlink:href="#Gradiente_sem_nome_49"></linearGradient>
    <linearGradient id="Gradiente_sem_nome_49-94" data-name="Gradiente sem nome 49" x1="78.88" y1="30.49" x2="150.46" y2="30.49" xlink:href="#Gradiente_sem_nome_49"></linearGradient>
    <linearGradient id="Gradiente_sem_nome_49-95" data-name="Gradiente sem nome 49" x1="78.88" y1="30.49" x2="150.46" y2="30.49" xlink:href="#Gradiente_sem_nome_49"></linearGradient>
    <linearGradient id="Gradiente_sem_nome_49-96" data-name="Gradiente sem nome 49" x1="78.88" y1="30.49" x2="150.46" y2="30.49" xlink:href="#Gradiente_sem_nome_49"></linearGradient>
    <linearGradient id="Gradiente_sem_nome_49-97" data-name="Gradiente sem nome 49" x1="78.88" y1="30.49" x2="150.46" y2="30.49" xlink:href="#Gradiente_sem_nome_49"></linearGradient>
    <linearGradient id="Gradiente_sem_nome_49-98" data-name="Gradiente sem nome 49" x1="78.88" y1="30.49" x2="150.46" y2="30.49" xlink:href="#Gradiente_sem_nome_49"></linearGradient>
    <linearGradient id="Gradiente_sem_nome_49-99" data-name="Gradiente sem nome 49" x1="78.88" y1="30.49" x2="150.46" y2="30.49" xlink:href="#Gradiente_sem_nome_49"></linearGradient>
    <linearGradient id="Gradiente_sem_nome_49-100" data-name="Gradiente sem nome 49" x1="78.88" y1="30.49" x2="150.46" y2="30.49" xlink:href="#Gradiente_sem_nome_49"></linearGradient>
    <linearGradient id="Gradiente_sem_nome_49-101" data-name="Gradiente sem nome 49" x1="78.88" y1="30.49" x2="150.46" y2="30.49" xlink:href="#Gradiente_sem_nome_49"></linearGradient>
    <linearGradient id="Gradiente_sem_nome_49-102" data-name="Gradiente sem nome 49" x1="78.88" y1="30.49" x2="150.46" y2="30.49" xlink:href="#Gradiente_sem_nome_49"></linearGradient>
    <linearGradient id="Gradiente_sem_nome_49-103" data-name="Gradiente sem nome 49" x1="78.88" y1="30.49" x2="150.46" y2="30.49" xlink:href="#Gradiente_sem_nome_49"></linearGradient>
    <linearGradient id="Gradiente_sem_nome_49-104" data-name="Gradiente sem nome 49" x1="78.88" y1="30.49" x2="150.46" y2="30.49" xlink:href="#Gradiente_sem_nome_49"></linearGradient>
    <linearGradient id="Gradiente_sem_nome_49-105" data-name="Gradiente sem nome 49" x1="78.88" y1="30.49" x2="150.46" y2="30.49" xlink:href="#Gradiente_sem_nome_49"></linearGradient>
    <linearGradient id="Gradiente_sem_nome_49-106" data-name="Gradiente sem nome 49" x1="78.88" y1="30.49" x2="150.46" y2="30.49" xlink:href="#Gradiente_sem_nome_49"></linearGradient>
    <linearGradient id="Gradiente_sem_nome_49-107" data-name="Gradiente sem nome 49" x1="78.88" y1="30.49" x2="150.46" y2="30.49" xlink:href="#Gradiente_sem_nome_49"></linearGradient>
    <linearGradient id="Gradiente_sem_nome_49-108" data-name="Gradiente sem nome 49" x1="78.88" y1="30.49" x2="150.46" y2="30.49" xlink:href="#Gradiente_sem_nome_49"></linearGradient>
    <linearGradient id="Gradiente_sem_nome_49-109" data-name="Gradiente sem nome 49" x1="78.88" y1="30.49" x2="150.46" y2="30.49" xlink:href="#Gradiente_sem_nome_49"></linearGradient>
    <linearGradient id="Gradiente_sem_nome_49-110" data-name="Gradiente sem nome 49" x1="78.88" y1="30.49" x2="150.46" y2="30.49" xlink:href="#Gradiente_sem_nome_49"></linearGradient>
    <linearGradient id="Gradiente_sem_nome_49-111" data-name="Gradiente sem nome 49" x1="78.88" y1="30.49" x2="150.46" y2="30.49" xlink:href="#Gradiente_sem_nome_49"></linearGradient>
    <linearGradient id="Gradiente_sem_nome_49-112" data-name="Gradiente sem nome 49" x1="78.88" y1="30.49" x2="150.46" y2="30.49" xlink:href="#Gradiente_sem_nome_49"></linearGradient>
    <linearGradient id="Gradiente_sem_nome_49-113" data-name="Gradiente sem nome 49" x1="78.88" y1="30.49" x2="150.46" y2="30.49" xlink:href="#Gradiente_sem_nome_49"></linearGradient>
    <linearGradient id="Gradiente_sem_nome_49-114" data-name="Gradiente sem nome 49" x1="78.88" y1="30.49" x2="150.46" y2="30.49" xlink:href="#Gradiente_sem_nome_49"></linearGradient>
    <linearGradient id="Gradiente_sem_nome_49-115" data-name="Gradiente sem nome 49" x1="78.88" y1="30.49" x2="150.46" y2="30.49" xlink:href="#Gradiente_sem_nome_49"></linearGradient>
    <linearGradient id="Gradiente_sem_nome_49-116" data-name="Gradiente sem nome 49" x1="78.88" y1="30.49" x2="150.46" y2="30.49" xlink:href="#Gradiente_sem_nome_49"></linearGradient>
    <linearGradient id="Gradiente_sem_nome_49-117" data-name="Gradiente sem nome 49" x1="78.88" y1="30.49" x2="150.46" y2="30.49" xlink:href="#Gradiente_sem_nome_49"></linearGradient>
    <linearGradient id="Gradiente_sem_nome_49-118" data-name="Gradiente sem nome 49" x1="78.88" y1="30.49" x2="150.46" y2="30.49" xlink:href="#Gradiente_sem_nome_49"></linearGradient>
    <linearGradient id="Gradiente_sem_nome_49-119" data-name="Gradiente sem nome 49" x1="78.88" y1="30.49" x2="150.46" y2="30.49" xlink:href="#Gradiente_sem_nome_49"></linearGradient>
    <linearGradient id="Gradiente_sem_nome_49-120" data-name="Gradiente sem nome 49" x1="78.88" y1="30.49" x2="150.46" y2="30.49" xlink:href="#Gradiente_sem_nome_49"></linearGradient>
    <linearGradient id="Gradiente_sem_nome_49-121" data-name="Gradiente sem nome 49" x1="78.88" y1="30.49" x2="150.46" y2="30.49" xlink:href="#Gradiente_sem_nome_49"></linearGradient>
    <linearGradient id="Gradiente_sem_nome_49-122" data-name="Gradiente sem nome 49" x1="78.88" y1="30.49" x2="150.46" y2="30.49" xlink:href="#Gradiente_sem_nome_49"></linearGradient>
    <linearGradient id="Gradiente_sem_nome_49-123" data-name="Gradiente sem nome 49" x1="78.88" y1="30.49" x2="150.46" y2="30.49" xlink:href="#Gradiente_sem_nome_49"></linearGradient>
    <linearGradient id="Gradiente_sem_nome_49-124" data-name="Gradiente sem nome 49" x1="78.88" y1="30.49" x2="150.46" y2="30.49" xlink:href="#Gradiente_sem_nome_49"></linearGradient>
    <linearGradient id="Gradiente_sem_nome_49-125" data-name="Gradiente sem nome 49" x1="78.88" y1="30.49" x2="150.46" y2="30.49" xlink:href="#Gradiente_sem_nome_49"></linearGradient>
    <linearGradient id="Gradiente_sem_nome_49-126" data-name="Gradiente sem nome 49" x1="78.88" y1="30.49" x2="150.46" y2="30.49" xlink:href="#Gradiente_sem_nome_49"></linearGradient>
    <linearGradient id="Gradiente_sem_nome_49-127" data-name="Gradiente sem nome 49" x1="78.88" y1="30.49" x2="150.46" y2="30.49" xlink:href="#Gradiente_sem_nome_49"></linearGradient>
    <linearGradient id="Gradiente_sem_nome_49-128" data-name="Gradiente sem nome 49" x1="78.88" y1="30.49" x2="150.46" y2="30.49" xlink:href="#Gradiente_sem_nome_49"></linearGradient>
    <linearGradient id="Gradiente_sem_nome_49-129" data-name="Gradiente sem nome 49" x1="78.88" y1="30.49" x2="150.46" y2="30.49" xlink:href="#Gradiente_sem_nome_49"></linearGradient>
    <linearGradient id="Gradiente_sem_nome_49-130" data-name="Gradiente sem nome 49" x1="78.88" y1="37.78" x2="150.46" y2="37.78" xlink:href="#Gradiente_sem_nome_49"></linearGradient>
    <linearGradient id="Gradiente_sem_nome_49-131" data-name="Gradiente sem nome 49" x1="78.88" y1="28.13" x2="150.46" y2="28.13" xlink:href="#Gradiente_sem_nome_49"></linearGradient>
    <linearGradient id="Gradiente_sem_nome_49-132" data-name="Gradiente sem nome 49" x1="78.88" y1="24.06" x2="150.46" y2="24.06" xlink:href="#Gradiente_sem_nome_49"></linearGradient>
    <linearGradient id="Gradiente_sem_nome_49-133" data-name="Gradiente sem nome 49" x1="78.88" y1="40.99" x2="150.46" y2="40.99" xlink:href="#Gradiente_sem_nome_49"></linearGradient>
    <linearGradient id="Gradiente_sem_nome_49-134" data-name="Gradiente sem nome 49" x1="78.88" x2="150.46" xlink:href="#Gradiente_sem_nome_49"></linearGradient>
    <linearGradient id="Gradiente_sem_nome_49-135" data-name="Gradiente sem nome 49" x1="78.88" y1="31.02" x2="150.46" y2="31.02" xlink:href="#Gradiente_sem_nome_49"></linearGradient>
  </defs>
  <g>
    <path class="cls-123" d="M126.2,81.77c-1.01,0-1.83-.82-1.83-1.83,0-2.14-1.74-3.88-3.88-3.88h-8.07c-1.01,0-1.83-.82-1.83-1.83s.82-1.83,1.83-1.83h8.07c4.16,0,7.55,3.39,7.55,7.55,0,1.01-.82,1.83-1.83,1.83Z"></path>
    <path class="cls-48" d="M105.64,45.49c-.67,0-1.22-.55-1.22-1.22v-8.82c0-.67.55-1.22,1.22-1.22s1.22.55,1.22,1.22v8.82c0,.67-.55,1.22-1.22,1.22Z"></path>
    <path class="cls-118" d="M88.15,61.2h-2.88c-2.41,0-4.36-1.96-4.36-4.36v-3.14c0-2.41,1.96-4.36,4.36-4.36h2.88v11.87ZM85.27,51.77c-1.06,0-1.92.86-1.92,1.92v3.14c0,1.06.86,1.92,1.92,1.92h.44v-6.98h-.44Z"></path>
    <path class="cls-124" d="M126.01,61.2h-2.88v-11.87h2.88c2.41,0,4.36,1.96,4.36,4.36v3.14c0,2.41-1.96,4.36-4.36,4.36ZM125.57,58.76h.44c1.06,0,1.92-.86,1.92-1.92v-3.14c0-1.06-.86-1.92-1.92-1.92h-.44v6.98Z"></path>
    <path class="cls-13" d="M98.86,76.05c-1.01,0-1.83-.82-1.83-1.83v-7.96c0-1.01.82-1.83,1.83-1.83s1.83.82,1.83,1.83v7.96c0,1.01-.82,1.83-1.83,1.83Z"></path>
    <path class="cls-50" d="M112.41,76.05c-1.01,0-1.83-.82-1.83-1.83v-7.96c0-1.01.82-1.83,1.83-1.83s1.83.82,1.83,1.83v7.96c0,1.01-.82,1.83-1.83,1.83Z"></path>
    <path class="cls-24" d="M102.22,57.6c-.67,0-1.22-.55-1.22-1.22,0-1.49-1.21-2.71-2.71-2.71s-2.71,1.21-2.71,2.71c0,.67-.55,1.22-1.22,1.22s-1.22-.55-1.22-1.22c0-2.84,2.31-5.15,5.15-5.15s5.15,2.31,5.15,5.15c0,.67-.55,1.22-1.22,1.22Z"></path>
    <path class="cls-10" d="M116.91,57.6c-.67,0-1.22-.55-1.22-1.22,0-1.49-1.21-2.71-2.71-2.71s-2.71,1.21-2.71,2.71c0,.67-.55,1.22-1.22,1.22s-1.22-.55-1.22-1.22c0-2.84,2.31-5.15,5.15-5.15s5.15,2.31,5.15,5.15c0,.67-.55,1.22-1.22,1.22Z"></path>
    <path class="cls-15" d="M116.64,68.09h-22c-4.48,0-8.12-3.64-8.12-8.12v-9.43c0-4.48,3.64-8.12,8.12-8.12h22c4.48,0,8.12,3.64,8.12,8.12v9.43c0,4.48-3.64,8.12-8.12,8.12ZM94.64,46.1c-2.46,0-4.45,2-4.45,4.45v9.43c0,2.46,2,4.45,4.45,4.45h22c2.46,0,4.45-2,4.45-4.45v-9.43c0-2.46-2-4.45-4.45-4.45h-22Z"></path>
    <g>
      <g>
        <path class="cls-103" d="M128.66,32.25c-.97,0-1.76-.79-1.76-1.76s.79-1.76,1.76-1.76,1.76.79,1.76,1.76-.79,1.76-1.76,1.76Z"></path>
        <g class="cls-128">
          <rect class="cls-26" x="126.9" y="28.73" width=".09" height="3.53"></rect>
          <rect class="cls-22" x="126.99" y="28.73" width=".09" height="3.53"></rect>
          <rect class="cls-139" x="127.09" y="28.73" width=".09" height="3.53"></rect>
          <rect class="cls-12" x="127.18" y="28.73" width=".09" height="3.53"></rect>
          <rect class="cls-104" x="127.27" y="28.73" width=".09" height="3.53"></rect>
          <rect class="cls-126" x="127.36" y="28.73" width=".09" height="3.53"></rect>
          <rect class="cls-70" x="127.46" y="28.73" width=".09" height="3.53"></rect>
          <rect class="cls-79" x="127.55" y="28.73" width=".09" height="3.53"></rect>
          <rect class="cls-8" x="127.64" y="28.73" width=".09" height="3.53"></rect>
          <rect class="cls-106" x="127.73" y="28.73" width=".09" height="3.53"></rect>
          <rect class="cls-47" x="127.83" y="28.73" width=".09" height="3.53"></rect>
          <rect class="cls-130" x="127.92" y="28.73" width=".09" height="3.53"></rect>
          <rect class="cls-71" x="128.01" y="28.73" width=".09" height="3.53"></rect>
          <rect class="cls-95" x="128.11" y="28.73" width=".09" height="3.53"></rect>
          <rect class="cls-122" x="128.2" y="28.73" width=".09" height="3.53"></rect>
          <rect class="cls-67" x="128.29" y="28.73" width=".09" height="3.53"></rect>
          <rect class="cls-27" x="128.38" y="28.73" width=".09" height="3.53"></rect>
          <rect class="cls-9" x="128.48" y="28.73" width=".09" height="3.53"></rect>
          <rect class="cls-61" x="128.57" y="28.73" width=".09" height="3.53"></rect>
          <rect class="cls-32" x="128.66" y="28.73" width=".09" height="3.53"></rect>
          <rect class="cls-135" x="128.76" y="28.73" width=".09" height="3.53"></rect>
          <rect class="cls-132" x="128.85" y="28.73" width=".09" height="3.53"></rect>
          <rect class="cls-136" x="128.94" y="28.73" width=".09" height="3.53"></rect>
          <rect class="cls-25" x="129.03" y="28.73" width=".09" height="3.53"></rect>
          <rect class="cls-97" x="129.13" y="28.73" width=".09" height="3.53"></rect>
          <rect class="cls-88" x="129.22" y="28.73" width=".09" height="3.53"></rect>
          <rect class="cls-100" x="129.31" y="28.73" width=".09" height="3.53"></rect>
          <rect class="cls-140" x="129.41" y="28.73" width=".09" height="3.53"></rect>
          <rect class="cls-93" x="129.5" y="28.73" width=".09" height="3.53"></rect>
          <rect class="cls-39" x="129.59" y="28.73" width=".09" height="3.53"></rect>
          <rect class="cls-116" x="129.68" y="28.73" width=".09" height="3.53"></rect>
          <rect class="cls-5" x="129.78" y="28.73" width=".09" height="3.53"></rect>
          <rect class="cls-41" x="129.87" y="28.73" width=".09" height="3.53"></rect>
          <rect class="cls-87" x="129.96" y="28.73" width=".09" height="3.53"></rect>
          <rect class="cls-78" x="130.06" y="28.73" width=".09" height="3.53"></rect>
          <rect class="cls-62" x="130.15" y="28.73" width=".09" height="3.53"></rect>
          <rect class="cls-59" x="130.24" y="28.73" width=".09" height="3.53"></rect>
          <rect class="cls-85" x="130.33" y="28.73" width=".09" height="3.53"></rect>
        </g>
      </g>
      <g>
        <path class="cls-56" d="M134.64,32.25c-.97,0-1.76-.79-1.76-1.76s.79-1.76,1.76-1.76,1.76.79,1.76,1.76-.79,1.76-1.76,1.76Z"></path>
        <g class="cls-53">
          <rect class="cls-108" x="132.88" y="28.73" width=".09" height="3.53"></rect>
          <rect class="cls-90" x="132.97" y="28.73" width=".09" height="3.53"></rect>
          <rect class="cls-3" x="133.06" y="28.73" width=".09" height="3.53"></rect>
          <rect class="cls-11" x="133.16" y="28.73" width=".09" height="3.53"></rect>
          <rect class="cls-75" x="133.25" y="28.73" width=".09" height="3.53"></rect>
          <rect class="cls-115" x="133.34" y="28.73" width=".09" height="3.53"></rect>
          <rect class="cls-113" x="133.43" y="28.73" width=".09" height="3.53"></rect>
          <rect class="cls-21" x="133.53" y="28.73" width=".09" height="3.53"></rect>
          <rect class="cls-54" x="133.62" y="28.73" width=".09" height="3.53"></rect>
          <rect class="cls-102" x="133.71" y="28.73" width=".09" height="3.53"></rect>
          <rect class="cls-38" x="133.81" y="28.73" width=".09" height="3.53"></rect>
          <rect class="cls-76" x="133.9" y="28.73" width=".09" height="3.53"></rect>
          <rect class="cls-110" x="133.99" y="28.73" width=".09" height="3.53"></rect>
          <rect class="cls-129" x="134.08" y="28.73" width=".09" height="3.53"></rect>
          <rect class="cls-98" x="134.18" y="28.73" width=".09" height="3.53"></rect>
          <rect class="cls-125" x="134.27" y="28.73" width=".09" height="3.53"></rect>
          <rect class="cls-16" x="134.36" y="28.73" width=".09" height="3.53"></rect>
          <rect class="cls-19" x="134.46" y="28.73" width=".09" height="3.53"></rect>
          <rect class="cls-84" x="134.55" y="28.73" width=".09" height="3.53"></rect>
          <rect class="cls-58" x="134.64" y="28.73" width=".09" height="3.53"></rect>
          <rect class="cls-42" x="134.73" y="28.73" width=".09" height="3.53"></rect>
          <rect class="cls-133" x="134.83" y="28.73" width=".09" height="3.53"></rect>
          <rect class="cls-34" x="134.92" y="28.73" width=".09" height="3.53"></rect>
          <rect class="cls-64" x="135.01" y="28.73" width=".09" height="3.53"></rect>
          <rect class="cls-94" x="135.11" y="28.73" width=".09" height="3.53"></rect>
          <rect class="cls-40" x="135.2" y="28.73" width=".09" height="3.53"></rect>
          <rect class="cls-96" x="135.29" y="28.73" width=".09" height="3.53"></rect>
          <rect class="cls-119" x="135.38" y="28.73" width=".09" height="3.53"></rect>
          <rect class="cls-68" x="135.48" y="28.73" width=".09" height="3.53"></rect>
          <rect class="cls-134" x="135.57" y="28.73" width=".09" height="3.53"></rect>
          <rect class="cls-137" x="135.66" y="28.73" width=".09" height="3.53"></rect>
          <rect class="cls-120" x="135.75" y="28.73" width=".09" height="3.53"></rect>
          <rect class="cls-65" x="135.85" y="28.73" width=".09" height="3.53"></rect>
          <rect class="cls-109" x="135.94" y="28.73" width=".09" height="3.53"></rect>
          <rect class="cls-72" x="136.03" y="28.73" width=".09" height="3.53"></rect>
          <rect class="cls-69" x="136.13" y="28.73" width=".09" height="3.53"></rect>
          <rect class="cls-99" x="136.22" y="28.73" width=".09" height="3.53"></rect>
          <rect class="cls-138" x="136.31" y="28.73" width=".09" height="3.53"></rect>
        </g>
      </g>
      <g>
        <path class="cls-45" d="M140.62,32.25c-.97,0-1.76-.79-1.76-1.76s.79-1.76,1.76-1.76,1.76.79,1.76,1.76-.79,1.76-1.76,1.76Z"></path>
        <g class="cls-107">
          <rect class="cls-121" x="138.86" y="28.73" width=".09" height="3.53"></rect>
          <rect class="cls-2" x="138.95" y="28.73" width=".09" height="3.53"></rect>
          <rect class="cls-6" x="139.04" y="28.73" width=".09" height="3.53"></rect>
          <rect class="cls-1" x="139.13" y="28.73" width=".09" height="3.53"></rect>
          <rect class="cls-51" x="139.23" y="28.73" width=".09" height="3.53"></rect>
          <rect class="cls-57" x="139.32" y="28.73" width=".09" height="3.53"></rect>
          <rect class="cls-4" x="139.41" y="28.73" width=".09" height="3.53"></rect>
          <rect class="cls-66" x="139.51" y="28.73" width=".09" height="3.53"></rect>
          <rect class="cls-63" x="139.6" y="28.73" width=".09" height="3.53"></rect>
          <rect class="cls-43" x="139.69" y="28.73" width=".09" height="3.53"></rect>
          <rect class="cls-101" x="139.78" y="28.73" width=".09" height="3.53"></rect>
          <rect class="cls-81" x="139.88" y="28.73" width=".09" height="3.53"></rect>
          <rect class="cls-52" x="139.97" y="28.73" width=".09" height="3.53"></rect>
          <rect class="cls-86" x="140.06" y="28.73" width=".09" height="3.53"></rect>
          <rect class="cls-36" x="140.16" y="28.73" width=".09" height="3.53"></rect>
          <rect class="cls-20" x="140.25" y="28.73" width=".09" height="3.53"></rect>
          <rect class="cls-112" x="140.34" y="28.73" width=".09" height="3.53"></rect>
          <rect class="cls-33" x="140.43" y="28.73" width=".09" height="3.53"></rect>
          <rect class="cls-82" x="140.53" y="28.73" width=".09" height="3.53"></rect>
          <rect class="cls-37" x="140.62" y="28.73" width=".09" height="3.53"></rect>
          <rect class="cls-73" x="140.71" y="28.73" width=".09" height="3.53"></rect>
          <rect class="cls-114" x="140.81" y="28.73" width=".09" height="3.53"></rect>
          <rect class="cls-105" x="140.9" y="28.73" width=".09" height="3.53"></rect>
          <rect class="cls-44" x="140.99" y="28.73" width=".09" height="3.53"></rect>
          <rect class="cls-77" x="141.08" y="28.73" width=".09" height="3.53"></rect>
          <rect class="cls-35" x="141.18" y="28.73" width=".09" height="3.53"></rect>
          <rect class="cls-117" x="141.27" y="28.73" width=".09" height="3.53"></rect>
          <rect class="cls-18" x="141.36" y="28.73" width=".09" height="3.53"></rect>
          <rect class="cls-92" x="141.45" y="28.73" width=".09" height="3.53"></rect>
          <rect class="cls-111" x="141.55" y="28.73" width=".09" height="3.53"></rect>
          <rect class="cls-91" x="141.64" y="28.73" width=".09" height="3.53"></rect>
          <rect class="cls-55" x="141.73" y="28.73" width=".09" height="3.53"></rect>
          <rect class="cls-28" x="141.83" y="28.73" width=".09" height="3.53"></rect>
          <rect class="cls-83" x="141.92" y="28.73" width=".09" height="3.53"></rect>
          <rect class="cls-49" x="142.01" y="28.73" width=".09" height="3.53"></rect>
          <rect class="cls-131" x="142.1" y="28.73" width=".09" height="3.53"></rect>
          <rect class="cls-127" x="142.2" y="28.73" width=".09" height="3.53"></rect>
          <rect class="cls-23" x="142.29" y="28.73" width=".09" height="3.53"></rect>
        </g>
      </g>
    </g>
    <path class="cls-80" d="M122.62,46.28c-.42,0-.81-.15-1.13-.42-.35-.3-.55-.72-.58-1.18-.02-.25.02-.51.12-.75.15-.35.28-.68.4-1.02,0-.04.02-.07.03-.11.39-1.1.66-2.25.83-3.42-2.24-2.39-3.53-5.59-3.56-8.88,0-.67.54-1.23,1.21-1.23.68-.02,1.23.54,1.23,1.21.03,2.84,1.21,5.61,3.25,7.59.27.26.4.64.36,1.01-.17,1.52-.5,3.01-.99,4.44,0,.03-.02.06-.03.09,0,0,0,0,.01,0,2.08-.37,4.11-1.02,6.03-1.93.61-.29,1.34-.03,1.63.58.29.61.03,1.34-.58,1.63-2.12,1-4.37,1.72-6.68,2.13,0,0,0,0-.01,0-.43.08-.87.17-1.3.24-.05,0-.09.01-.14.02-.04,0-.07,0-.11,0Z"></path>
    <path class="cls-60" d="M146.01,39.86c-.3,0-.6-.11-.83-.33-.49-.46-.52-1.23-.06-1.73,1.96-2.09,2.99-4.62,2.99-7.31,0-6.42-6.04-11.64-13.47-11.64-.67,0-1.22-.55-1.22-1.22s.55-1.22,1.22-1.22c8.78,0,15.92,6.32,15.92,14.08,0,3.28-1.3,6.47-3.65,8.98-.24.26-.57.39-.89.39Z"></path>
    <path class="cls-14" d="M119.95,31.71c-.67,0-1.22-.55-1.22-1.22,0-7.76,7.14-14.08,15.92-14.08.67,0,1.22.55,1.22,1.22s-.55,1.22-1.22,1.22c-7.43,0-13.47,5.22-13.47,11.64,0,.67-.55,1.22-1.22,1.22Z"></path>
    <path class="cls-17" d="M134.64,44.57c-1.56,0-3.12-.2-4.63-.6-.65-.17-1.04-.84-.87-1.49.17-.65.84-1.04,1.49-.87,1.3.35,2.64.52,4,.52,4.08,0,7.9-1.58,10.48-4.33.46-.49,1.23-.52,1.73-.06.49.46.52,1.23.06,1.73-3.04,3.24-7.5,5.1-12.26,5.1Z"></path>
    <path class="cls-29" d="M85.07,81.77c-1.01,0-1.83-.82-1.83-1.83,0-4.16,3.39-7.55,7.55-7.55h21.62c1.01,0,1.83.82,1.83,1.83s-.82,1.83-1.83,1.83h-21.62c-2.14,0-3.88,1.74-3.88,3.88,0,1.01-.82,1.83-1.83,1.83Z"></path>
    <path class="cls-89" d="M105.64,36.47c-3.01,0-5.45-2.45-5.45-5.45s2.45-5.45,5.45-5.45,5.45,2.45,5.45,5.45-2.45,5.45-5.45,5.45ZM105.64,28.01c-1.66,0-3.01,1.35-3.01,3.01s1.35,3.01,3.01,3.01,3.01-1.35,3.01-3.01-1.35-3.01-3.01-3.01Z"></path>
  </g>
  <text class="cls-31" transform="translate(69.91 112.44)"><tspan x="0" y="0">VoiceBot</tspan></text>
  <path class="cls-30" d="M63.74,105.37c-.84,0-1.53-.69-1.53-1.53v-2.92h-2.08v4.45h-4.45v2.08h2.92c.84,0,1.53.69,1.53,1.53v2.92h2.08v-4.45h4.45v-2.08h-2.92Z"></path>
</svg>