<?xml version="1.0" encoding="UTF-8"?>
<svg id="Camada_1" data-name="Camada 1" xmlns="http://www.w3.org/2000/svg" xmlns:xlink="http://www.w3.org/1999/xlink" viewBox="0 0 223 153">
  <defs>
    
    <linearGradient id="linear-gradient" x1="68.98" y1="59.45" x2="150.16" y2="59.45" gradientUnits="userSpaceOnUse">
      <stop offset="0" stop-color="#3db6f3"></stop>
      <stop offset=".2" stop-color="#3db6f3"></stop>
      <stop offset="1" stop-color="#3a60ff"></stop>
    </linearGradient>
  </defs>
  <g>
    <text class="cls-1" transform="translate(45.39 126.85)"><tspan x="0" y="0">Landing Page</tspan></text>
    <path class="cls-2" d="M41.56,118.87c-.67,0-1.22-.55-1.22-1.22v-2.33h-1.65v3.55h-3.55v1.65h2.33c.67,0,1.22.55,1.22,1.22v2.33h1.65v-3.55h3.55v-1.65h-2.33Z"></path>
  </g>
  <g>
    <g>
      <path d="M140.88,85.28c0-20.31,0-40.63,0-60.94,0-.47,0-.95-.1-1.4-.54-2.54-2.56-4.09-5.36-4.1-10.15,0-20.31,0-30.46,0-10.15,0-20.31,0-30.46,0-3.42,0-5.51,2.11-5.51,5.53,0,20.29,0,40.57,0,60.86,0,3.43,2.09,5.54,5.5,5.54,20.31,0,40.62,0,60.92,0,3.35,0,5.48-2.13,5.48-5.49ZM74.87,87.35c-.36,0-.72,0-1.07-.05-.73-.12-1.19-.57-1.34-1.29-.08-.37-.07-.77-.07-1.15,0-20.04,0-40.07,0-60.11,0-.33,0-.66.04-.99.12-.82.64-1.34,1.46-1.45.33-.05.66-.04.99-.04,20.03,0,40.06,0,60.1,0,.3,0,.61,0,.91.03.91.11,1.45.66,1.54,1.56.03.33.03.66.03.99,0,10.02,0,20.04,0,30.06s0,19.93,0,29.89c0,.39,0,.78-.05,1.16-.13.76-.6,1.23-1.36,1.35-.35.06-.71.05-1.07.05-20.03,0-40.06,0-60.1,0Z"></path>
      <path d="M150.15,39.25c0-.3,0-.61-.02-.91-.17-2.21-2.16-4.12-4.37-4.2-1.05-.04-1.76.49-1.85,1.38-.09.91.47,1.55,1.51,1.72,1.15.2,1.57.67,1.6,1.83,0,.15,0,.3,0,.46,0,18.36,0,36.72,0,55.09,0,.35,0,.71-.06,1.06-.13.66-.55,1.07-1.22,1.19-.3.05-.6.05-.91.05-18.43,0-36.87,0-55.3,0-.25,0-.51,0-.76-.03-.74-.09-1.19-.51-1.35-1.23-.04-.2-.06-.4-.1-.6-.18-.82-.83-1.3-1.65-1.24-.79.06-1.39.68-1.42,1.5-.01.35.02.71.09,1.05.52,2.32,2.36,3.7,4.95,3.7,9.31,0,18.61,0,27.92,0,9.23,0,18.46,0,27.69-.02.82,0,1.7-.09,2.43-.41,1.99-.88,2.81-2.52,2.81-4.68-.02-18.56,0-37.13,0-55.69Z"></path>
      <path d="M131.8,39.4c-17.91,0-35.82,0-53.72,0-1.72,0-2.27.55-2.27,2.29,0,13.3,0,26.61,0,39.91,0,1.76.57,2.33,2.32,2.33,8.91,0,17.83,0,26.74,0s17.88,0,26.82,0c1.77,0,2.35-.57,2.35-2.31,0-13.33,0-26.66,0-39.99,0-1.67-.57-2.23-2.24-2.23ZM130.56,80.47h-51.25v-37.59h51.25v37.59Z"></path>
      <path d="M79.7,34.63c2.24.03,4.04-1.69,4.06-3.9.02-2.23-1.73-4.03-3.93-4.05-2.17-.02-3.98,1.74-4.02,3.92-.04,2.17,1.73,4,3.89,4.03Z"></path>
      <path d="M100.99,34.63c2.22,0,4.02-1.77,4.01-3.97,0-2.19-1.82-4-4.02-3.98-2.18.02-3.93,1.79-3.93,3.98,0,2.2,1.74,3.96,3.93,3.97Z"></path>
      <path d="M90.4,34.63c2.19,0,3.97-1.75,3.98-3.93.02-2.2-1.78-4.02-3.97-4.02-2.18,0-3.96,1.77-3.98,3.94-.01,2.22,1.75,4.01,3.96,4.01Z"></path>
      <path d="M84.86,59.95c4.41,0,8.82,0,13.23,0s8.88,0,13.32,0c1.43,0,2.07-.63,2.07-2.07.01-3.17.01-6.34,0-9.51,0-1.48-.64-2.11-2.12-2.11-8.85,0-17.7,0-26.55,0-1.55,0-2.14.59-2.14,2.16,0,3.12,0,6.23,0,9.35,0,1.62.58,2.19,2.19,2.19ZM86.13,49.75h23.89v6.7h-23.89v-6.7Z"></path>
      <path d="M125.21,63.4c-6.76,0-13.52,0-20.28,0-6.65,0-13.3,0-19.95,0-.3,0-.61-.01-.91.03-.79.12-1.36.8-1.38,1.62-.02.86.55,1.58,1.38,1.7.33.05.66.04.99.04,13.24,0,26.49,0,39.73,0,.3,0,.61,0,.91-.03.85-.1,1.44-.77,1.46-1.62.02-1.07-.7-1.73-1.95-1.73Z"></path>
      <path d="M118.91,59.95c2.07,0,4.14,0,6.2,0,1.45,0,2.04-.6,2.05-2.07.01-1.6,0-3.2,0-4.8,0-1.6.01-3.2,0-4.8-.01-1.4-.63-2.02-2.02-2.03-2.07-.01-4.14-.01-6.2,0-1.38,0-2.02.64-2.02,2.04-.01,3.23-.02,6.45,0,9.68,0,1.35.65,1.97,1.99,1.98ZM120.39,49.7h3.33v6.75h-3.33v-6.75Z"></path>
      <path d="M112.36,70.38c-.36-.12-.76-.14-1.14-.14-4.39,0-8.77,0-13.16,0s-8.72,0-13.08,0c-.28,0-.56-.01-.83.03-.86.13-1.45.79-1.47,1.63-.02.85.51,1.54,1.37,1.72.32.07.66.06.99.06,8.69,0,17.38,0,26.07,0,.41,0,.84-.02,1.22-.14.75-.23,1.12-.82,1.12-1.57,0-.75-.36-1.34-1.1-1.58Z"></path>
    </g>
    <g>
      <path class="cls-3" d="M140.88,85.28c0-20.31,0-40.63,0-60.94,0-.47,0-.95-.1-1.4-.54-2.54-2.56-4.09-5.36-4.1-10.15,0-20.31,0-30.46,0-10.15,0-20.31,0-30.46,0-3.42,0-5.51,2.11-5.51,5.53,0,20.29,0,40.57,0,60.86,0,3.43,2.09,5.54,5.5,5.54,20.31,0,40.62,0,60.92,0,3.35,0,5.48-2.13,5.48-5.49ZM74.87,87.35c-.36,0-.72,0-1.07-.05-.73-.12-1.19-.57-1.34-1.29-.08-.37-.07-.77-.07-1.15,0-20.04,0-40.07,0-60.11,0-.33,0-.66.04-.99.12-.82.64-1.34,1.46-1.45.33-.05.66-.04.99-.04,20.03,0,40.06,0,60.1,0,.3,0,.61,0,.91.03.91.11,1.45.66,1.54,1.56.03.33.03.66.03.99,0,10.02,0,20.04,0,30.06s0,19.93,0,29.89c0,.39,0,.78-.05,1.16-.13.76-.6,1.23-1.36,1.35-.35.06-.71.05-1.07.05-20.03,0-40.06,0-60.1,0Z"></path>
      <path class="cls-3" d="M150.15,39.25c0-.3,0-.61-.02-.91-.17-2.21-2.16-4.12-4.37-4.2-1.05-.04-1.76.49-1.85,1.38-.09.91.47,1.55,1.51,1.72,1.15.2,1.57.67,1.6,1.83,0,.15,0,.3,0,.46,0,18.36,0,36.72,0,55.09,0,.35,0,.71-.06,1.06-.13.66-.55,1.07-1.22,1.19-.3.05-.6.05-.91.05-18.43,0-36.87,0-55.3,0-.25,0-.51,0-.76-.03-.74-.09-1.19-.51-1.35-1.23-.04-.2-.06-.4-.1-.6-.18-.82-.83-1.3-1.65-1.24-.79.06-1.39.68-1.42,1.5-.01.35.02.71.09,1.05.52,2.32,2.36,3.7,4.95,3.7,9.31,0,18.61,0,27.92,0,9.23,0,18.46,0,27.69-.02.82,0,1.7-.09,2.43-.41,1.99-.88,2.81-2.52,2.81-4.68-.02-18.56,0-37.13,0-55.69Z"></path>
      <path class="cls-3" d="M131.8,39.4c-17.91,0-35.82,0-53.72,0-1.72,0-2.27.55-2.27,2.29,0,13.3,0,26.61,0,39.91,0,1.76.57,2.33,2.32,2.33,8.91,0,17.83,0,26.74,0s17.88,0,26.82,0c1.77,0,2.35-.57,2.35-2.31,0-13.33,0-26.66,0-39.99,0-1.67-.57-2.23-2.24-2.23ZM130.56,80.47h-51.25v-37.59h51.25v37.59Z"></path>
      <path class="cls-3" d="M79.7,34.63c2.24.03,4.04-1.69,4.06-3.9.02-2.23-1.73-4.03-3.93-4.05-2.17-.02-3.98,1.74-4.02,3.92-.04,2.17,1.73,4,3.89,4.03Z"></path>
      <path class="cls-3" d="M100.99,34.63c2.22,0,4.02-1.77,4.01-3.97,0-2.19-1.82-4-4.02-3.98-2.18.02-3.93,1.79-3.93,3.98,0,2.2,1.74,3.96,3.93,3.97Z"></path>
      <path class="cls-3" d="M90.4,34.63c2.19,0,3.97-1.75,3.98-3.93.02-2.2-1.78-4.02-3.97-4.02-2.18,0-3.96,1.77-3.98,3.94-.01,2.22,1.75,4.01,3.96,4.01Z"></path>
      <path class="cls-3" d="M84.86,59.95c4.41,0,8.82,0,13.23,0s8.88,0,13.32,0c1.43,0,2.07-.63,2.07-2.07.01-3.17.01-6.34,0-9.51,0-1.48-.64-2.11-2.12-2.11-8.85,0-17.7,0-26.55,0-1.55,0-2.14.59-2.14,2.16,0,3.12,0,6.23,0,9.35,0,1.62.58,2.19,2.19,2.19ZM86.13,49.75h23.89v6.7h-23.89v-6.7Z"></path>
      <path class="cls-3" d="M125.21,63.4c-6.76,0-13.52,0-20.28,0-6.65,0-13.3,0-19.95,0-.3,0-.61-.01-.91.03-.79.12-1.36.8-1.38,1.62-.02.86.55,1.58,1.38,1.7.33.05.66.04.99.04,13.24,0,26.49,0,39.73,0,.3,0,.61,0,.91-.03.85-.1,1.44-.77,1.46-1.62.02-1.07-.7-1.73-1.95-1.73Z"></path>
      <path class="cls-3" d="M118.91,59.95c2.07,0,4.14,0,6.2,0,1.45,0,2.04-.6,2.05-2.07.01-1.6,0-3.2,0-4.8,0-1.6.01-3.2,0-4.8-.01-1.4-.63-2.02-2.02-2.03-2.07-.01-4.14-.01-6.2,0-1.38,0-2.02.64-2.02,2.04-.01,3.23-.02,6.45,0,9.68,0,1.35.65,1.97,1.99,1.98ZM120.39,49.7h3.33v6.75h-3.33v-6.75Z"></path>
      <path class="cls-3" d="M112.36,70.38c-.36-.12-.76-.14-1.14-.14-4.39,0-8.77,0-13.16,0s-8.72,0-13.08,0c-.28,0-.56-.01-.83.03-.86.13-1.45.79-1.47,1.63-.02.85.51,1.54,1.37,1.72.32.07.66.06.99.06,8.69,0,17.38,0,26.07,0,.41,0,.84-.02,1.22-.14.75-.23,1.12-.82,1.12-1.57,0-.75-.36-1.34-1.1-1.58Z"></path>
    </g>
  </g>
</svg>