<?xml version="1.0" encoding="UTF-8"?>
<svg id="Camada_1" data-name="Camada 1" xmlns="http://www.w3.org/2000/svg" xmlns:xlink="http://www.w3.org/1999/xlink" viewBox="0 0 223 153">
  <defs>
    
    <linearGradient id="linear-gradient" x1="69.25" y1="69.46" x2="161" y2="69.46" gradientTransform="translate(-3 -7)" gradientUnits="userSpaceOnUse">
      <stop offset="0" stop-color="#3db6f3"></stop>
      <stop offset=".2" stop-color="#3db6f3"></stop>
      <stop offset="1" stop-color="#3a60ff"></stop>
    </linearGradient>
  </defs>
  <g>
    <text class="cls-2" transform="translate(87.3 128.52)"><tspan x="0" y="0">ADS</tspan></text>
    <path class="cls-1" d="M82.49,118.5c-.84,0-1.53-.69-1.53-1.53v-2.92h-2.08v4.45h-4.45v2.08h2.92c.84,0,1.53.69,1.53,1.53v2.92h2.08v-4.45h4.45v-2.08h-2.92Z"></path>
  </g>
  <g>
    <g>
      <path d="M154.4,59.76c-2.26.09-4.53.02-6.79.02-1.82,0-3.03,1.09-3.03,2.69,0,1.59,1.22,2.68,3.03,2.69,2.26,0,4.53-.07,6.79.02,1.66.07,2.89-.45,3.6-1.99v-1.43c-.71-1.55-1.94-2.06-3.6-1.99Z"></path>
      <path d="M130.03,27.71c-4.02-.71-7.73,1.27-9.07,5.11-.47,1.35-1.24,2.31-2.17,3.27-5.02,5.16-11.15,7.6-18.31,7.58-5.05-.01-10.09-.03-15.14,0-3.52.02-6.1,1.62-7.6,4.84-.2.43-.45.52-.88.54-.77.05-1.55.12-2.3.3-5.26,1.27-8.82,6.23-8.24,11.45.61,5.47,4.95,9.54,10.42,9.71.55.02.82.16,1.05.69.79,1.79,2.1,3.12,3.88,3.91.6.27.75.59.74,1.19-.02,4.27-.04,8.54,0,12.81.04,5.2,4.17,8.82,9.24,8.16,3.94-.51,6.83-3.9,6.87-8.12.03-3.05,0-6.09,0-9.14,0-1.34,0-2.67,0-4.06,4.73-.3,8.97.48,12.87,2.23,3.22,1.45,5.88,3.63,8.24,6.19.48.52.89,1.19,1.08,1.87,1.28,4.66,6.95,7.18,11.23,4.96,3.12-1.62,4.56-4.25,4.56-7.71,0-13.17,0-26.34,0-39.5,0-2.75.03-5.49,0-8.24-.05-4.02-2.79-7.39-6.47-8.04ZM76.97,65.12c-3-.07-5.31-2.4-5.32-5.32,0-2.91,2.28-5.24,5.32-5.35v10.67ZM93.14,89.21c-.01,2.01-1.8,3.31-3.59,2.65-1.01-.38-1.72-1.13-1.73-2.18-.06-4.55-.03-9.11-.03-13.76h5.25c.04.18.1.35.1.51,0,4.26.02,8.53,0,12.79ZM98.46,70.54c-2.26,0-4.47,0-6.67,0-2.21,0-4.42.02-6.62,0-1.57-.02-2.74-1.08-2.75-2.59-.03-5.43-.03-10.86,0-16.29,0-1.41,1.09-2.56,2.48-2.58,4.5-.05,9-.02,13.57-.02v21.49ZM120.29,77.5c-2.36-1.95-4.87-3.51-7.64-4.66-2.77-1.15-5.65-1.87-8.7-2.17v-21.78c6.14-.65,11.55-2.86,16.34-6.85v35.45ZM131.13,83.25c0,2.15-.99,3.4-2.69,3.4-1.7,0-2.69-1.25-2.69-3.4,0-7.82,0-15.65,0-23.47s0-15.65,0-23.47c0-.33-.01-.66.02-.98.15-1.38,1.31-2.41,2.66-2.41,1.36,0,2.51,1.04,2.67,2.41.04.33.02.66.02.98,0,15.65,0,31.29,0,46.94Z"></path>
      <path d="M146.56,53.52c1.75-1.71,3.5-3.42,5.17-5.2.48-.51.72-1.24.93-1.61-.11-1.47-.6-2.32-1.61-2.78-1.13-.52-2.17-.28-3.04.57-1.77,1.73-3.52,3.48-5.25,5.25-1.15,1.18-1.16,2.76-.11,3.84,1.08,1.11,2.7,1.1,3.91-.07Z"></path>
      <path d="M146.15,71.11c-.99-.93-2.54-.73-3.49.23-.95.96-1.14,2.5-.2,3.49,1.9,2.02,3.87,3.97,5.88,5.88.77.73,1.79.76,2.76.28.97-.48,1.44-1.3,1.54-2.64-.13-.31-.24-.96-.61-1.36-1.92-2-3.86-3.99-5.88-5.88Z"></path>
    </g>
    <g>
      <path class="cls-3" d="M154.4,59.76c-2.26.09-4.53.02-6.79.02-1.82,0-3.03,1.09-3.03,2.69,0,1.59,1.22,2.68,3.03,2.69,2.26,0,4.53-.07,6.79.02,1.66.07,2.89-.45,3.6-1.99v-1.43c-.71-1.55-1.94-2.06-3.6-1.99Z"></path>
      <path class="cls-3" d="M130.03,27.71c-4.02-.71-7.73,1.27-9.07,5.11-.47,1.35-1.24,2.31-2.17,3.27-5.02,5.16-11.15,7.6-18.31,7.58-5.05-.01-10.09-.03-15.14,0-3.52.02-6.1,1.62-7.6,4.84-.2.43-.45.52-.88.54-.77.05-1.55.12-2.3.3-5.26,1.27-8.82,6.23-8.24,11.45.61,5.47,4.95,9.54,10.42,9.71.55.02.82.16,1.05.69.79,1.79,2.1,3.12,3.88,3.91.6.27.75.59.74,1.19-.02,4.27-.04,8.54,0,12.81.04,5.2,4.17,8.82,9.24,8.16,3.94-.51,6.83-3.9,6.87-8.12.03-3.05,0-6.09,0-9.14,0-1.34,0-2.67,0-4.06,4.73-.3,8.97.48,12.87,2.23,3.22,1.45,5.88,3.63,8.24,6.19.48.52.89,1.19,1.08,1.87,1.28,4.66,6.95,7.18,11.23,4.96,3.12-1.62,4.56-4.25,4.56-7.71,0-13.17,0-26.34,0-39.5,0-2.75.03-5.49,0-8.24-.05-4.02-2.79-7.39-6.47-8.04ZM76.97,65.12c-3-.07-5.31-2.4-5.32-5.32,0-2.91,2.28-5.24,5.32-5.35v10.67ZM93.14,89.21c-.01,2.01-1.8,3.31-3.59,2.65-1.01-.38-1.72-1.13-1.73-2.18-.06-4.55-.03-9.11-.03-13.76h5.25c.04.18.1.35.1.51,0,4.26.02,8.53,0,12.79ZM98.46,70.54c-2.26,0-4.47,0-6.67,0-2.21,0-4.42.02-6.62,0-1.57-.02-2.74-1.08-2.75-2.59-.03-5.43-.03-10.86,0-16.29,0-1.41,1.09-2.56,2.48-2.58,4.5-.05,9-.02,13.57-.02v21.49ZM120.29,77.5c-2.36-1.95-4.87-3.51-7.64-4.66-2.77-1.15-5.65-1.87-8.7-2.17v-21.78c6.14-.65,11.55-2.86,16.34-6.85v35.45ZM131.13,83.25c0,2.15-.99,3.4-2.69,3.4-1.7,0-2.69-1.25-2.69-3.4,0-7.82,0-15.65,0-23.47s0-15.65,0-23.47c0-.33-.01-.66.02-.98.15-1.38,1.31-2.41,2.66-2.41,1.36,0,2.51,1.04,2.67,2.41.04.33.02.66.02.98,0,15.65,0,31.29,0,46.94Z"></path>
      <path class="cls-3" d="M146.56,53.52c1.75-1.71,3.5-3.42,5.17-5.2.48-.51.72-1.24.93-1.61-.11-1.47-.6-2.32-1.61-2.78-1.13-.52-2.17-.28-3.04.57-1.77,1.73-3.52,3.48-5.25,5.25-1.15,1.18-1.16,2.76-.11,3.84,1.08,1.11,2.7,1.1,3.91-.07Z"></path>
      <path class="cls-3" d="M146.15,71.11c-.99-.93-2.54-.73-3.49.23-.95.96-1.14,2.5-.2,3.49,1.9,2.02,3.87,3.97,5.88,5.88.77.73,1.79.76,2.76.28.97-.48,1.44-1.3,1.54-2.64-.13-.31-.24-.96-.61-1.36-1.92-2-3.86-3.99-5.88-5.88Z"></path>
    </g>
  </g>
</svg>