<?xml version="1.0" encoding="UTF-8"?>
<svg id="Camada_1" data-name="Camada 1" xmlns="http://www.w3.org/2000/svg" xmlns:xlink="http://www.w3.org/1999/xlink" viewBox="0 0 374.5 153">
  <defs>
    
    <linearGradient id="linear-gradient" x1="56.25" y1="75.94" x2="97.87" y2="75.94" gradientUnits="userSpaceOnUse">
      <stop offset="0" stop-color="#3db6f3"></stop>
      <stop offset=".2" stop-color="#3db6f3"></stop>
      <stop offset="1" stop-color="#3a60ff"></stop>
    </linearGradient>
    <linearGradient id="linear-gradient-2" x1="97.48" y1="92.91" x2="105.18" y2="92.91" xlink:href="#linear-gradient"></linearGradient>
    <linearGradient id="linear-gradient-3" x1="108.68" y1="75.56" x2="145.12" y2="75.56" xlink:href="#linear-gradient"></linearGradient>
    <linearGradient id="linear-gradient-4" x1="148.48" y1="92.91" x2="156.18" y2="92.91" xlink:href="#linear-gradient"></linearGradient>
    <linearGradient id="linear-gradient-5" x1="155.71" x2="195.81" xlink:href="#linear-gradient"></linearGradient>
    <linearGradient id="linear-gradient-6" x1="195.82" y1="92.91" x2="203.52" y2="92.91" xlink:href="#linear-gradient"></linearGradient>
  </defs>
  <path class="cls-6" d="M66.35,94.41c-3.13-1.72-5.59-4.17-7.4-7.35-1.81-3.17-2.71-6.88-2.71-11.13s.91-7.96,2.75-11.13c1.83-3.17,4.32-5.62,7.47-7.35,3.15-1.72,6.68-2.59,10.6-2.59s7.46.86,10.64,2.59c3.18,1.72,5.67,4.17,7.47,7.35,1.8,3.17,2.71,6.88,2.71,11.13s-.91,7.9-2.74,11.09c-1.83,3.2-4.35,5.66-7.55,7.38-3.2,1.72-6.76,2.59-10.67,2.59s-7.43-.86-10.56-2.59ZM84.53,90.59c2.34-1.22,4.23-3.07,5.68-5.55,1.45-2.47,2.17-5.51,2.17-9.11s-.71-6.63-2.13-9.11c-1.42-2.47-3.3-4.32-5.64-5.55-2.34-1.22-4.88-1.84-7.62-1.84s-5.29.61-7.62,1.84c-2.34,1.23-4.21,3.07-5.6,5.55-1.4,2.47-2.1,5.51-2.1,9.11s.7,6.63,2.1,9.11c1.4,2.47,3.25,4.32,5.57,5.55,2.31,1.23,4.84,1.84,7.59,1.84s5.29-.61,7.62-1.84Z"></path>
  <path class="cls-1" d="M98.58,95.65c-.74-.75-1.11-1.67-1.11-2.77s.37-2.01,1.11-2.74,1.66-1.09,2.78-1.09,1.97.36,2.71,1.09c.74.73,1.11,1.64,1.11,2.74s-.37,2.02-1.11,2.77c-.74.75-1.64,1.12-2.71,1.12s-2.05-.37-2.78-1.12Z"></path>
  <path class="cls-3" d="M140.39,59.26c3.15,3.02,4.73,7.41,4.73,13.16v23.99h-5.26v-23.39c0-4.45-1.13-7.85-3.39-10.19-2.26-2.35-5.35-3.52-9.26-3.52s-7.22,1.25-9.61,3.75c-2.39,2.5-3.58,6.17-3.58,11.02v22.34h-5.34v-40.93h5.34v6.97c1.32-2.5,3.23-4.41,5.72-5.73,2.49-1.32,5.31-1.99,8.46-1.99,4.98,0,9.05,1.51,12.2,4.53Z"></path>
  <path class="cls-2" d="M149.59,95.65c-.74-.75-1.11-1.67-1.11-2.77s.37-2.01,1.11-2.74c.74-.72,1.66-1.09,2.78-1.09s1.97.36,2.71,1.09c.74.73,1.11,1.64,1.11,2.74s-.37,2.02-1.11,2.77c-.74.75-1.64,1.12-2.71,1.12s-2.05-.37-2.78-1.12Z"></path>
  <path class="cls-4" d="M195.66,77.96h-34.54c.15,3.1.91,5.75,2.29,7.95,1.37,2.2,3.18,3.86,5.41,4.99,2.24,1.12,4.68,1.69,7.32,1.69,3.46,0,6.37-.82,8.73-2.47,2.36-1.65,3.93-3.87,4.69-6.67h5.64c-1.02,4-3.19,7.26-6.52,9.78-3.33,2.52-7.51,3.79-12.54,3.79-3.91,0-7.42-.86-10.52-2.59-3.1-1.72-5.53-4.17-7.28-7.35-1.75-3.17-2.63-6.88-2.63-11.13s.86-7.97,2.59-11.17c1.73-3.2,4.14-5.65,7.24-7.35,3.1-1.7,6.63-2.55,10.6-2.55s7.43.85,10.41,2.55c2.97,1.7,5.26,3.99,6.86,6.86,1.6,2.87,2.4,6.06,2.4,9.56,0,1.8-.05,3.17-.15,4.12ZM188.53,65.89c-1.3-2.15-3.06-3.77-5.3-4.87-2.24-1.1-4.68-1.65-7.32-1.65-3.96,0-7.35,1.25-10.14,3.75-2.8,2.5-4.35,6.02-4.65,10.57h29.28c.05-3.05-.57-5.65-1.87-7.8Z"></path>
  <path class="cls-5" d="M196.93,95.65c-.74-.75-1.11-1.67-1.11-2.77s.37-2.01,1.11-2.74c.74-.72,1.66-1.09,2.78-1.09s1.97.36,2.71,1.09c.74.73,1.11,1.64,1.11,2.74s-.37,2.02-1.11,2.77c-.74.75-1.64,1.12-2.71,1.12s-2.05-.37-2.78-1.12Z"></path>
</svg>