<?xml version="1.0" encoding="UTF-8"?>
<svg id="Camada_1" data-name="Camada 1" xmlns="http://www.w3.org/2000/svg" xmlns:xlink="http://www.w3.org/1999/xlink" viewBox="0 0 223 153">
  <defs>
    
    <linearGradient id="linear-gradient" x1="76.42" y1="45.79" x2="144.42" y2="45.79" gradientUnits="userSpaceOnUse">
      <stop offset="0" stop-color="#3db6f3"></stop>
      <stop offset=".2" stop-color="#3db6f3"></stop>
      <stop offset="1" stop-color="#3a60ff"></stop>
    </linearGradient>
    <linearGradient id="linear-gradient-2" x1="76.42" y1="58.18" x2="144.42" y2="58.18" xlink:href="#linear-gradient"></linearGradient>
    <linearGradient id="linear-gradient-3" y1="58.8" x2="144.42" y2="58.8" xlink:href="#linear-gradient"></linearGradient>
    <linearGradient id="linear-gradient-4" y1="45.18" x2="144.42" y2="45.18" xlink:href="#linear-gradient"></linearGradient>
    <linearGradient id="linear-gradient-5" x1="76.42" y1="77.87" x2="144.42" y2="77.87" xlink:href="#linear-gradient"></linearGradient>
    <linearGradient id="linear-gradient-6" y1="84.06" x2="144.42" y2="84.06" xlink:href="#linear-gradient"></linearGradient>
    <linearGradient id="linear-gradient-7" x1="76.42" y1="31.34" x2="144.42" y2="31.34" xlink:href="#linear-gradient"></linearGradient>
  </defs>
  <g>
    <text class="cls-6" transform="translate(84.25 133.02)"><tspan x="0" y="0">RCS</tspan></text>
    <path class="cls-2" d="M79.44,123c-.84,0-1.53-.69-1.53-1.53v-2.92h-2.08v4.45h-4.45v2.08h2.92c.84,0,1.53.69,1.53,1.53v2.92h2.08v-4.45h4.45v-2.08h-2.92Z"></path>
  </g>
  <g>
    <path class="cls-9" d="M77.71,69.37c-1.62,0-2.93-1.31-2.93-2.93v-28.9c0-8.44,6.87-15.31,15.31-15.31,1.62,0,2.93,1.31,2.93,2.93s-1.31,2.93-2.93,2.93c-5.22,0-9.46,4.24-9.46,9.46v28.9c0,1.62-1.31,2.93-2.93,2.93Z"></path>
    <path class="cls-1" d="M127.26,81.75c-1.62,0-2.93-1.31-2.93-2.93s1.31-2.93,2.93-2.93c5.22,0,9.46-4.24,9.46-9.46v-28.9c0-1.62,1.31-2.93,2.93-2.93s2.93,1.31,2.93,2.93v28.9c0,8.44-6.87,15.31-15.31,15.31Z"></path>
    <path class="cls-4" d="M125.19,61.73h-33.03c-1.62,0-2.93-1.31-2.93-2.93s1.31-2.93,2.93-2.93h33.03c1.62,0,2.93,1.31,2.93,2.93s-1.31,2.93-2.93,2.93Z"></path>
    <path class="cls-3" d="M125.19,48.1h-33.03c-1.62,0-2.93-1.31-2.93-2.93s1.31-2.93,2.93-2.93h33.03c1.62,0,2.93,1.31,2.93,2.93s-1.31,2.93-2.93,2.93Z"></path>
    <path class="cls-5" d="M77.71,92.22c-1.62,0-2.93-1.31-2.93-2.93v-22.86c0-1.62,1.31-2.93,2.93-2.93s2.93,1.31,2.93,2.93v22.86c0,1.62-1.31,2.93-2.93,2.93Z"></path>
    <path class="cls-8" d="M77.71,92.22c-.83,0-1.66-.35-2.23-1.04-1.04-1.23-.89-3.08.35-4.12l12.39-10.47c.53-.45,1.2-.69,1.89-.69h37.16c1.62,0,2.93,1.31,2.93,2.93s-1.31,2.93-2.93,2.93h-36.09l-11.57,9.78c-.55.47-1.22.69-1.89.69Z"></path>
    <path class="cls-7" d="M139.65,40.46c-1.62,0-2.93-1.31-2.93-2.93,0-5.22-4.24-9.46-9.46-9.46h-37.16c-1.62,0-2.93-1.31-2.93-2.93s1.31-2.93,2.93-2.93h37.16c8.44,0,15.31,6.87,15.31,15.31,0,1.62-1.31,2.93-2.93,2.93Z"></path>
  </g>
</svg>