<?xml version="1.0" encoding="UTF-8"?>
<svg id="Camada_1" data-name="Camada 1" xmlns="http://www.w3.org/2000/svg" xmlns:xlink="http://www.w3.org/1999/xlink" viewBox="0 0 200 290">
  <defs>
    <style>
      .cls-1 {
        fill: #43caff;
      }

      .cls-2 {
        fill: #243a83;
      }

      .cls-3 {
        fill: url(#linear-gradient);
      }
    </style>
    <linearGradient id="linear-gradient" x1="0" y1="103.26" x2="200" y2="103.26" gradientUnits="userSpaceOnUse">
      <stop offset="0" stop-color="#3db6f3"/>
      <stop offset=".2" stop-color="#3db6f3"/>
      <stop offset="1" stop-color="#3a60ff"/>
    </linearGradient>
  </defs>
  <g>
    <g>
      <path class="cls-2" d="M86.75,282.17h-15.55l-2.57,7.44h-8.22l14.04-39.1h9.12l14.04,39.1h-8.28l-2.57-7.44ZM84.63,275.9l-5.65-16.34-5.65,16.34h11.3Z"/>
      <path class="cls-2" d="M126.78,252.97c3.11,1.6,5.52,3.89,7.22,6.85,1.7,2.97,2.55,6.41,2.55,10.32s-.85,7.34-2.55,10.27c-1.7,2.93-4.1,5.19-7.22,6.8-3.11,1.6-6.72,2.41-10.82,2.41h-13.65v-39.05h13.65c4.1,0,7.71.8,10.82,2.41ZM125.18,279.59c2.24-2.24,3.36-5.39,3.36-9.45s-1.12-7.24-3.36-9.54c-2.24-2.29-5.41-3.44-9.51-3.44h-5.54v25.79h5.54c4.1,0,7.27-1.12,9.51-3.36Z"/>
      <path class="cls-2" d="M147.98,288.6c-2.18-.93-3.91-2.27-5.17-4.03-1.27-1.75-1.92-3.82-1.96-6.21h8.39c.11,1.6.68,2.87,1.71,3.8,1.03.93,2.43,1.4,4.22,1.4s3.26-.44,4.31-1.31c1.04-.88,1.57-2.02,1.57-3.44,0-1.16-.36-2.11-1.06-2.85-.71-.75-1.59-1.33-2.66-1.76-1.06-.43-2.53-.9-4.39-1.43-2.54-.75-4.6-1.48-6.18-2.21-1.59-.73-2.95-1.83-4.08-3.3-1.14-1.47-1.71-3.44-1.71-5.9,0-2.31.58-4.33,1.73-6.04,1.16-1.72,2.78-3.03,4.87-3.94,2.09-.91,4.48-1.37,7.16-1.37,4.03,0,7.3.98,9.82,2.94,2.52,1.96,3.91,4.69,4.17,8.2h-8.62c-.08-1.34-.64-2.45-1.71-3.33-1.06-.88-2.47-1.31-4.22-1.31-1.53,0-2.75.39-3.66,1.17-.91.78-1.37,1.92-1.37,3.41,0,1.04.34,1.91,1.03,2.6.69.69,1.55,1.25,2.57,1.68,1.03.43,2.47.92,4.34,1.48,2.54.75,4.61,1.49,6.21,2.24,1.6.75,2.98,1.87,4.14,3.36,1.16,1.49,1.73,3.45,1.73,5.87,0,2.09-.54,4.03-1.62,5.82-1.08,1.79-2.67,3.22-4.76,4.28-2.09,1.06-4.57,1.59-7.44,1.59-2.72,0-5.17-.47-7.36-1.4Z"/>
    </g>
    <path class="cls-1" d="M48.44,267.74c-1.84,0-3.34-1.5-3.34-3.34v-6.38h-4.53v9.72h-9.72v4.53h6.38c1.84,0,3.34,1.5,3.34,3.34v6.38h4.53v-9.72h9.72v-4.53h-6.38Z"/>
  </g>
  <g>
    <g>
      <path d="M192.14,97.38c-4.93.2-9.87.04-14.81.05-3.96.01-6.61,2.38-6.61,5.85,0,3.47,2.65,5.84,6.61,5.85,4.94.02,9.88-.14,14.81.05,3.63.15,6.3-.97,7.86-4.34v-3.12c-1.56-3.37-4.23-4.49-7.86-4.34Z"/>
      <path d="M139.02,27.51c-8.77-1.54-16.85,2.77-19.77,11.13-1.03,2.94-2.7,5.03-4.74,7.12-10.94,11.25-24.32,16.56-39.92,16.53-11-.02-22-.06-33,.02-7.67.05-13.3,3.54-16.57,10.56-.43.93-.98,1.13-1.92,1.18-1.68.1-3.38.25-5.01.65C6.62,77.47-1.12,88.27.13,99.64c1.32,11.93,10.79,20.79,22.71,21.17,1.19.04,1.78.35,2.29,1.5,1.71,3.9,4.58,6.8,8.46,8.53,1.31.58,1.63,1.28,1.62,2.6-.05,9.31-.09,18.62,0,27.92.1,11.33,9.08,19.22,20.13,17.79,8.58-1.11,14.88-8.49,14.98-17.7.07-6.64.02-13.28.02-19.92,0-2.91,0-5.83,0-8.86,10.32-.66,19.56,1.05,28.05,4.86,7.03,3.15,12.81,7.91,17.97,13.5,1.04,1.13,1.94,2.6,2.35,4.07,2.79,10.16,15.15,15.66,24.48,10.81,6.81-3.54,9.94-9.26,9.95-16.81.01-28.7,0-57.41,0-86.11,0-5.99.06-11.98-.02-17.96-.12-8.77-6.08-16.12-14.1-17.52ZM23.37,109.05c-6.53-.15-11.58-5.24-11.59-11.59-.02-6.34,4.96-11.42,11.59-11.66v23.25ZM58.61,161.57c-.02,4.38-3.93,7.21-7.82,5.77-2.21-.82-3.74-2.47-3.77-4.76-.13-9.93-.06-19.85-.06-30h11.45c.08.4.21.76.21,1.12.01,9.29.04,18.59,0,27.88ZM70.2,120.86c-4.93,0-9.73,0-14.54,0-4.81,0-9.63.04-14.44-.02-3.41-.04-5.97-2.35-5.99-5.65-.08-11.83-.07-23.67,0-35.51.02-3.08,2.37-5.59,5.4-5.62,9.81-.1,19.62-.04,29.57-.04v46.84ZM117.81,136.05c-5.15-4.25-10.63-7.66-16.64-10.16-6.04-2.5-12.32-4.08-18.97-4.72v-47.48c13.38-1.41,25.17-6.23,35.62-14.93v77.29ZM141.42,148.58c0,4.69-2.15,7.41-5.86,7.41-3.7,0-5.86-2.72-5.86-7.41,0-17.05,0-34.11,0-51.16s0-34.11,0-51.16c0-.72-.03-1.44.05-2.15.33-3,2.85-5.26,5.81-5.26,2.96,0,5.48,2.26,5.81,5.26.08.71.05,1.43.05,2.15,0,34.11,0,68.21,0,102.32Z"/>
      <path d="M175.06,83.76c3.81-3.73,7.62-7.47,11.28-11.34,1.05-1.11,1.58-2.71,2.03-3.5-.24-3.21-1.3-5.05-3.51-6.07-2.46-1.13-4.74-.61-6.63,1.24-3.86,3.78-7.68,7.59-11.45,11.45-2.5,2.57-2.54,6.01-.23,8.38,2.36,2.42,5.89,2.41,8.52-.16Z"/>
      <path d="M174.18,122.11c-2.17-2.03-5.53-1.6-7.61.5-2.08,2.1-2.48,5.44-.44,7.61,4.14,4.4,8.44,8.66,12.82,12.82,1.68,1.6,3.91,1.66,6.02.62,2.11-1.04,3.14-2.82,3.36-5.76-.29-.67-.51-2.1-1.34-2.96-4.18-4.37-8.41-8.69-12.82-12.82Z"/>
    </g>
    <g>
      <path class="cls-3" d="M192.14,97.38c-4.93.2-9.87.04-14.81.05-3.96.01-6.61,2.38-6.61,5.85,0,3.47,2.65,5.84,6.61,5.85,4.94.02,9.88-.14,14.81.05,3.63.15,6.3-.97,7.86-4.34v-3.12c-1.56-3.37-4.23-4.49-7.86-4.34Z"/>
      <path class="cls-3" d="M139.02,27.51c-8.77-1.54-16.85,2.77-19.77,11.13-1.03,2.94-2.7,5.03-4.74,7.12-10.94,11.25-24.32,16.56-39.92,16.53-11-.02-22-.06-33,.02-7.67.05-13.3,3.54-16.57,10.56-.43.93-.98,1.13-1.92,1.18-1.68.1-3.38.25-5.01.65C6.62,77.47-1.12,88.27.13,99.64c1.32,11.93,10.79,20.79,22.71,21.17,1.19.04,1.78.35,2.29,1.5,1.71,3.9,4.58,6.8,8.46,8.53,1.31.58,1.63,1.28,1.62,2.6-.05,9.31-.09,18.62,0,27.92.1,11.33,9.08,19.22,20.13,17.79,8.58-1.11,14.88-8.49,14.98-17.7.07-6.64.02-13.28.02-19.92,0-2.91,0-5.83,0-8.86,10.32-.66,19.56,1.05,28.05,4.86,7.03,3.15,12.81,7.91,17.97,13.5,1.04,1.13,1.94,2.6,2.35,4.07,2.79,10.16,15.15,15.66,24.48,10.81,6.81-3.54,9.94-9.26,9.95-16.81.01-28.7,0-57.41,0-86.11,0-5.99.06-11.98-.02-17.96-.12-8.77-6.08-16.12-14.1-17.52ZM23.37,109.05c-6.53-.15-11.58-5.24-11.59-11.59-.02-6.34,4.96-11.42,11.59-11.66v23.25ZM58.61,161.57c-.02,4.38-3.93,7.21-7.82,5.77-2.21-.82-3.74-2.47-3.77-4.76-.13-9.93-.06-19.85-.06-30h11.45c.08.4.21.76.21,1.12.01,9.29.04,18.59,0,27.88ZM70.2,120.86c-4.93,0-9.73,0-14.54,0-4.81,0-9.63.04-14.44-.02-3.41-.04-5.97-2.35-5.99-5.65-.08-11.83-.07-23.67,0-35.51.02-3.08,2.37-5.59,5.4-5.62,9.81-.1,19.62-.04,29.57-.04v46.84ZM117.81,136.05c-5.15-4.25-10.63-7.66-16.64-10.16-6.04-2.5-12.32-4.08-18.97-4.72v-47.48c13.38-1.41,25.17-6.23,35.62-14.93v77.29ZM141.42,148.58c0,4.69-2.15,7.41-5.86,7.41-3.7,0-5.86-2.72-5.86-7.41,0-17.05,0-34.11,0-51.16s0-34.11,0-51.16c0-.72-.03-1.44.05-2.15.33-3,2.85-5.26,5.81-5.26,2.96,0,5.48,2.26,5.81,5.26.08.71.05,1.43.05,2.15,0,34.11,0,68.21,0,102.32Z"/>
      <path class="cls-3" d="M175.06,83.76c3.81-3.73,7.62-7.47,11.28-11.34,1.05-1.11,1.58-2.71,2.03-3.5-.24-3.21-1.3-5.05-3.51-6.07-2.46-1.13-4.74-.61-6.63,1.24-3.86,3.78-7.68,7.59-11.45,11.45-2.5,2.57-2.54,6.01-.23,8.38,2.36,2.42,5.89,2.41,8.52-.16Z"/>
      <path class="cls-3" d="M174.18,122.11c-2.17-2.03-5.53-1.6-7.61.5-2.08,2.1-2.48,5.44-.44,7.61,4.14,4.4,8.44,8.66,12.82,12.82,1.68,1.6,3.91,1.66,6.02.62,2.11-1.04,3.14-2.82,3.36-5.76-.29-.67-.51-2.1-1.34-2.96-4.18-4.37-8.41-8.69-12.82-12.82Z"/>
    </g>
  </g>
</svg>