<?xml version="1.0" encoding="UTF-8"?>
<svg id="Camada_1" data-name="Camada 1" xmlns="http://www.w3.org/2000/svg" xmlns:xlink="http://www.w3.org/1999/xlink" viewBox="0 0 250 290">
  <defs>
    <style>
      .cls-1 {
        fill: url(#linear-gradient-2);
      }

      .cls-2 {
        fill: url(#linear-gradient-10);
      }

      .cls-3 {
        fill: #43caff;
      }

      .cls-4 {
        fill: url(#linear-gradient-4);
      }

      .cls-5 {
        fill: url(#linear-gradient-3);
      }

      .cls-6 {
        fill: url(#linear-gradient-5);
      }

      .cls-7 {
        fill: url(#linear-gradient-8);
      }

      .cls-8 {
        fill: #243a83;
      }

      .cls-9 {
        fill: url(#linear-gradient-7);
      }

      .cls-10 {
        fill: url(#linear-gradient-9);
      }

      .cls-11 {
        fill: url(#linear-gradient-6);
      }

      .cls-12 {
        fill: url(#linear-gradient);
      }
    </style>
    <linearGradient id="linear-gradient" x1="17.76" y1="100" x2="240.18" y2="100" gradientUnits="userSpaceOnUse">
      <stop offset="0" stop-color="#3db6f3"/>
      <stop offset=".2" stop-color="#3db6f3"/>
      <stop offset="1" stop-color="#3a60ff"/>
    </linearGradient>
    <linearGradient id="linear-gradient-2" x1="17.76" y1="35.45" x2="240.18" y2="35.45" xlink:href="#linear-gradient"/>
    <linearGradient id="linear-gradient-3" x1="17.76" y1="121.56" x2="240.18" y2="121.56" xlink:href="#linear-gradient"/>
    <linearGradient id="linear-gradient-4" x1="17.76" y1="128.7" x2="240.18" y2="128.7" xlink:href="#linear-gradient"/>
    <linearGradient id="linear-gradient-5" x1="17.76" y1="114.29" x2="240.18" y2="114.29" xlink:href="#linear-gradient"/>
    <linearGradient id="linear-gradient-6" x1="17.76" y1="131.04" x2="240.18" y2="131.04" xlink:href="#linear-gradient"/>
    <linearGradient id="linear-gradient-7" x1="17.76" y1="114.29" x2="240.18" y2="114.29" xlink:href="#linear-gradient"/>
    <linearGradient id="linear-gradient-8" x1="17.76" y1="121.56" x2="240.18" y2="121.56" xlink:href="#linear-gradient"/>
    <linearGradient id="linear-gradient-9" x1="17.76" y1="116.75" x2="240.18" y2="116.75" xlink:href="#linear-gradient"/>
    <linearGradient id="linear-gradient-10" x1="17.76" y1="174.16" x2="240.18" y2="174.16" xlink:href="#linear-gradient"/>
  </defs>
  <g>
    <path class="cls-12" d="M205.44,200H17.33c-3.66,0-6.62-2.96-6.62-6.62V6.62c0-3.66,2.96-6.62,6.62-6.62h215.34c3.66,0,6.62,2.96,6.62,6.62v159.53c0,3.66-2.96,6.62-6.62,6.62s-6.62-2.96-6.62-6.62V13.24H23.95v173.53h181.49c3.66,0,6.62,2.96,6.62,6.62s-2.96,6.62-6.62,6.62Z"/>
    <path class="cls-1" d="M232.67,42.07H22.01c-3.66,0-6.62-2.96-6.62-6.62s2.96-6.62,6.62-6.62h210.66c3.66,0,6.62,2.96,6.62,6.62s-2.96,6.62-6.62,6.62Z"/>
    <path class="cls-5" d="M84.35,145.95c-2.92,0-5.29-2.37-5.29-5.29v-38.18c0-2.92,2.37-5.29,5.29-5.29s5.29,2.37,5.29,5.29v38.18c0,2.92-2.37,5.29-5.29,5.29Z"/>
    <path class="cls-4" d="M65.13,145.95c-2.92,0-5.29-2.37-5.29-5.29v-23.9c0-2.92,2.37-5.29,5.29-5.29s5.29,2.37,5.29,5.29v23.9c0,2.92-2.37,5.29-5.29,5.29Z"/>
    <path class="cls-6" d="M45.9,145.95c-2.92,0-5.29-2.37-5.29-5.29v-52.73c0-2.92,2.37-5.29,5.29-5.29s5.29,2.37,5.29,5.29v52.73c0,2.92-2.37,5.29-5.29,5.29Z"/>
    <g>
      <path class="cls-11" d="M175.26,145.95c-2.92,0-5.29-2.37-5.29-5.29v-19.22c0-2.92,2.37-5.29,5.29-5.29s5.29,2.37,5.29,5.29v19.22c0,2.92-2.37,5.29-5.29,5.29Z"/>
      <path class="cls-9" d="M156.04,145.95c-2.92,0-5.29-2.37-5.29-5.29v-52.73c0-2.92,2.37-5.29,5.29-5.29s5.29,2.37,5.29,5.29v52.73c0,2.92-2.37,5.29-5.29,5.29Z"/>
      <path class="cls-7" d="M136.82,145.95c-2.92,0-5.29-2.37-5.29-5.29v-38.18c0-2.92,2.37-5.29,5.29-5.29s5.29,2.37,5.29,5.29v38.18c0,2.92-2.37,5.29-5.29,5.29Z"/>
      <path class="cls-10" d="M156.04,174.78c-31.99,0-58.02-26.03-58.02-58.03s26.03-58.02,58.02-58.02,58.03,26.03,58.03,58.02-26.03,58.03-58.03,58.03ZM156.04,69.32c-26.16,0-47.44,21.28-47.44,47.44s21.28,47.44,47.44,47.44,47.44-21.28,47.44-47.44-21.28-47.44-47.44-47.44Z"/>
      <path class="cls-2" d="M232.67,198.68c-1.35,0-2.71-.52-3.74-1.55l-38.44-38.44c-2.07-2.07-2.07-5.42,0-7.49,2.07-2.07,5.42-2.07,7.49,0l38.44,38.44c2.07,2.07,2.07,5.42,0,7.49-1.03,1.03-2.39,1.55-3.74,1.55Z"/>
    </g>
  </g>
  <g>
    <g>
      <path class="cls-8" d="M65.6,274.89h-10.63l-1.76,5.09h-5.62l9.6-26.73h6.23l9.6,26.73h-5.66l-1.76-5.09ZM64.15,270.61l-3.86-11.17-3.86,11.17h7.73Z"/>
      <path class="cls-8" d="M93.85,260.88c1.56,1.59,2.33,3.82,2.33,6.67v12.43h-5.36v-11.7c0-1.68-.42-2.98-1.26-3.88-.84-.9-1.99-1.36-3.44-1.36s-2.65.45-3.5,1.36-1.28,2.2-1.28,3.88v11.7h-5.35v-21.19h5.35v2.64c.71-.92,1.62-1.64,2.73-2.16,1.11-.52,2.33-.78,3.65-.78,2.52,0,4.56.8,6.12,2.39Z"/>
      <path class="cls-8" d="M101.03,263.61c.85-1.66,2.01-2.93,3.48-3.82s3.1-1.34,4.91-1.34c1.58,0,2.97.32,4.15.96,1.19.64,2.14,1.44,2.85,2.41v-3.02h5.39v21.19h-5.39v-3.1c-.69.99-1.64,1.82-2.85,2.47s-2.61.97-4.19.97c-1.78,0-3.41-.46-4.88-1.38s-2.63-2.21-3.48-3.88c-.85-1.67-1.28-3.59-1.28-5.75s.43-4.04,1.28-5.7ZM115.66,266.04c-.51-.93-1.2-1.64-2.06-2.14-.87-.5-1.8-.75-2.79-.75s-1.91.24-2.75.73c-.84.48-1.52,1.19-2.05,2.12s-.78,2.03-.78,3.31.26,2.39.78,3.35c.52.96,1.21,1.69,2.06,2.2.85.51,1.76.76,2.74.76s1.92-.25,2.79-.75c.87-.5,1.55-1.21,2.06-2.14s.77-2.05.77-3.35-.26-2.41-.77-3.35Z"/>
      <path class="cls-8" d="M132.12,251.68v28.3h-5.35v-28.3h5.35Z"/>
      <path class="cls-8" d="M157.39,258.8l-13.12,31.2h-5.7l4.59-10.55-8.49-20.65h6l5.47,14.8,5.55-14.8h5.7Z"/>
      <path class="cls-8" d="M167.07,263.19v10.25c0,.71.17,1.23.52,1.55.35.32.92.48,1.74.48h2.49v4.51h-3.36c-4.51,0-6.77-2.19-6.77-6.58v-10.21h-2.52v-4.4h2.52v-5.24h5.39v5.24h4.74v4.4h-4.74Z"/>
      <path class="cls-8" d="M175.89,255.37c-.62-.6-.94-1.34-.94-2.24s.31-1.64.94-2.24,1.41-.9,2.35-.9,1.73.3,2.35.9.94,1.35.94,2.24-.31,1.64-.94,2.24-1.41.9-2.35.9-1.73-.3-2.35-.9ZM180.88,258.8v21.19h-5.35v-21.19h5.35Z"/>
      <path class="cls-8" d="M185.84,263.63c.89-1.64,2.13-2.92,3.71-3.82,1.58-.9,3.39-1.36,5.43-1.36,2.62,0,4.8.66,6.52,1.97s2.87,3.15,3.46,5.53h-5.78c-.3-.92-.82-1.64-1.55-2.16-.73-.52-1.63-.78-2.7-.78-1.53,0-2.74.55-3.63,1.66-.89,1.11-1.34,2.68-1.34,4.72s.45,3.58,1.34,4.68,2.1,1.66,3.63,1.66c2.17,0,3.58-.97,4.24-2.91h5.78c-.59,2.29-1.75,4.12-3.48,5.47-1.73,1.35-3.9,2.03-6.5,2.03-2.04,0-3.85-.45-5.43-1.36-1.58-.9-2.82-2.18-3.71-3.82-.89-1.64-1.34-3.56-1.34-5.75s.45-4.11,1.34-5.75Z"/>
      <path class="cls-8" d="M212.08,279.39c-1.38-.62-2.47-1.47-3.27-2.54-.8-1.07-1.24-2.26-1.32-3.56h5.39c.1.82.5,1.49,1.2,2.03.7.54,1.57.8,2.62.8s1.82-.2,2.39-.61c.57-.41.86-.93.86-1.57,0-.69-.35-1.2-1.05-1.55-.7-.34-1.82-.72-3.35-1.13-1.58-.38-2.87-.78-3.88-1.18-1.01-.41-1.87-1.03-2.6-1.87-.73-.84-1.09-1.98-1.09-3.4,0-1.17.34-2.24,1.01-3.21.68-.97,1.64-1.73,2.91-2.29,1.26-.56,2.74-.84,4.45-.84,2.52,0,4.54.63,6.04,1.89,1.5,1.26,2.33,2.96,2.48,5.11h-5.12c-.08-.84-.43-1.51-1.05-2.01s-1.46-.75-2.51-.75c-.97,0-1.71.18-2.24.54-.52.36-.78.86-.78,1.49,0,.71.36,1.26,1.07,1.63.71.37,1.82.75,3.33,1.13,1.53.38,2.79.78,3.79,1.19.99.41,1.85,1.04,2.58,1.89.73.85,1.1,1.98,1.13,3.38,0,1.22-.34,2.32-1.01,3.29-.68.97-1.64,1.73-2.91,2.28-1.26.55-2.73.82-4.42.82s-3.29-.31-4.66-.94Z"/>
    </g>
    <path class="cls-3" d="M37.76,266.51c-1.35,0-2.44-1.09-2.44-2.44v-4.66h-3.31v7.1h-7.1v3.31h4.66c1.35,0,2.44,1.09,2.44,2.44v4.66h3.31v-7.1h7.1v-3.31h-4.66Z"/>
  </g>
</svg>