<?xml version="1.0" encoding="UTF-8"?>
<svg id="Camada_1" data-name="Camada 1" xmlns="http://www.w3.org/2000/svg" xmlns:xlink="http://www.w3.org/1999/xlink" viewBox="0 0 220 290">
  <defs>
    <style>
      .cls-1 {
        opacity: .9;
      }

      .cls-2 {
        fill: url(#linear-gradient-2);
      }

      .cls-3 {
        fill: #43caff;
      }

      .cls-4 {
        fill: url(#linear-gradient-4);
      }

      .cls-5 {
        fill: url(#linear-gradient-3);
      }

      .cls-6 {
        fill: url(#linear-gradient-5);
      }

      .cls-7 {
        fill: #243a83;
      }

      .cls-8 {
        fill: url(#linear-gradient);
      }
    </style>
    <linearGradient id="linear-gradient" x1="4.28" y1="100" x2="216.94" y2="100" gradientUnits="userSpaceOnUse">
      <stop offset="0" stop-color="#3db6f3"/>
      <stop offset=".2" stop-color="#3db6f3"/>
      <stop offset="1" stop-color="#3a60ff"/>
    </linearGradient>
    <linearGradient id="linear-gradient-2" x1="4.28" y1="100" x2="216.94" y2="100" xlink:href="#linear-gradient"/>
    <linearGradient id="linear-gradient-3" x1="4.28" y1="100" x2="216.94" y2="100" xlink:href="#linear-gradient"/>
    <linearGradient id="linear-gradient-4" x1="4.28" y1="100" x2="216.94" y2="100" xlink:href="#linear-gradient"/>
    <linearGradient id="linear-gradient-5" x1="4.28" y1="100" x2="216.94" y2="100" xlink:href="#linear-gradient"/>
  </defs>
  <g>
    <g>
      <path class="cls-7" d="M49.53,262.38c1.58-2.76,3.73-4.91,6.46-6.46,2.73-1.54,5.79-2.31,9.17-2.31,3.96,0,7.44,1.02,10.42,3.05s5.07,4.85,6.25,8.44h-8.18c-.81-1.69-1.96-2.96-3.43-3.81-1.47-.85-3.18-1.27-5.11-1.27-2.07,0-3.91.48-5.51,1.45-1.61.97-2.86,2.33-3.76,4.09-.9,1.76-1.35,3.83-1.35,6.2s.45,4.4,1.35,6.18c.9,1.78,2.15,3.15,3.76,4.12s3.45,1.45,5.51,1.45c1.93,0,3.63-.43,5.11-1.3,1.47-.86,2.62-2.14,3.43-3.84h8.18c-1.19,3.63-3.26,6.45-6.23,8.46s-6.45,3.02-10.44,3.02c-3.39,0-6.45-.77-9.17-2.31-2.73-1.54-4.88-3.68-6.46-6.43-1.57-2.74-2.36-5.86-2.36-9.35s.79-6.62,2.36-9.38Z"/>
      <path class="cls-7" d="M86.78,267.79c1.13-2.2,2.68-3.9,4.62-5.08s4.12-1.78,6.53-1.78c2.1,0,3.94.42,5.51,1.27,1.58.85,2.84,1.92,3.79,3.2v-4.02h7.17v28.16h-7.17v-4.12c-.91,1.32-2.18,2.41-3.79,3.28-1.61.86-3.46,1.3-5.57,1.3-2.37,0-4.53-.61-6.48-1.83s-3.49-2.94-4.62-5.16c-1.14-2.22-1.7-4.77-1.7-7.65s.57-5.37,1.7-7.57ZM106.22,271.02c-.68-1.24-1.59-2.19-2.74-2.85-1.15-.66-2.39-.99-3.71-.99s-2.54.32-3.66.97c-1.12.64-2.03,1.58-2.72,2.82-.7,1.24-1.04,2.7-1.04,4.4s.35,3.18,1.04,4.45c.69,1.27,1.61,2.25,2.74,2.92,1.13.68,2.35,1.02,3.63,1.02s2.56-.33,3.71-.99c1.15-.66,2.07-1.61,2.74-2.85.68-1.24,1.02-2.72,1.02-4.45s-.34-3.21-1.02-4.45Z"/>
      <path class="cls-7" d="M131.56,262.25c1.47-.85,3.16-1.27,5.06-1.27v7.47h-1.88c-2.24,0-3.92.53-5.06,1.58-1.14,1.05-1.7,2.88-1.7,5.49v14.03h-7.11v-28.16h7.11v4.37c.92-1.49,2.11-2.66,3.58-3.51Z"/>
      <path class="cls-7" d="M164.62,264.16c2.07,2.12,3.1,5.07,3.1,8.87v16.52h-7.12v-15.55c0-2.24-.56-3.96-1.68-5.16s-2.64-1.8-4.58-1.8-3.51.6-4.65,1.8c-1.14,1.2-1.7,2.92-1.7,5.16v15.55h-7.12v-28.16h7.12v3.51c.95-1.22,2.16-2.18,3.63-2.87,1.48-.69,3.09-1.04,4.85-1.04,3.35,0,6.06,1.06,8.13,3.18Z"/>
      <path class="cls-7" d="M199.94,277.6h-20.58c.17,2.03.88,3.63,2.13,4.78,1.25,1.15,2.8,1.73,4.63,1.73,2.64,0,4.52-1.13,5.64-3.41h7.68c-.81,2.71-2.37,4.94-4.68,6.68-2.3,1.75-5.13,2.62-8.49,2.62-2.71,0-5.14-.6-7.29-1.8-2.15-1.2-3.83-2.9-5.03-5.11-1.2-2.2-1.8-4.74-1.8-7.62s.59-5.47,1.78-7.68c1.19-2.2,2.85-3.9,4.98-5.08s4.59-1.78,7.37-1.78,5.07.58,7.19,1.73c2.12,1.15,3.76,2.79,4.93,4.9,1.17,2.12,1.75,4.55,1.75,7.29,0,1.02-.07,1.93-.2,2.74ZM186.17,255.03l-7.57,4.27v-5.18l7.57-4.12,7.52,4.12v5.18l-7.52-4.27ZM192.78,272.82c-.03-1.83-.7-3.29-1.98-4.4-1.29-1.1-2.86-1.65-4.73-1.65-1.76,0-3.25.53-4.45,1.6s-1.94,2.55-2.21,4.45h13.37Z"/>
    </g>
    <path class="cls-3" d="M35.84,269.67c-1.67,0-3.04-1.36-3.04-3.04v-5.8h-4.12v8.83h-8.83v4.12h5.8c1.67,0,3.04,1.36,3.04,3.04v5.8h4.12v-8.83h8.83v-4.12h-5.8Z"/>
  </g>
  <g>
    <path class="cls-8" d="M135.4,200h75.74c4.1,0,7.43-3.32,7.43-7.43V7.43c0-4.1-3.33-7.43-7.43-7.43-4.1,0-7.43,3.32-7.43,7.43v177.72h-68.32c-4.1,0-7.43,3.32-7.43,7.43,0,4.1,3.33,7.43,7.43,7.43Z"/>
    <path class="cls-2" d="M142.59,94.23h-14.38c-5.56,0-10.08-4.52-10.08-10.08s4.52-10.08,10.08-10.08h25.39c3.14,0,5.7-2.56,5.7-5.7s-2.56-5.7-5.7-5.7h-12.5v-9.38c0-3.14-2.56-5.7-5.7-5.7s-5.7,2.56-5.7,5.7v9.38h-1.49c-11.84,0-21.47,9.63-21.47,21.47s9.63,21.47,21.47,21.47h14.38c5.56,0,10.08,4.52,10.08,10.08s-4.52,10.08-10.08,10.08h-25.86c-3.14,0-5.7,2.56-5.7,5.7s2.56,5.69,5.7,5.69h12.98v9.53c0,3.14,2.56,5.7,5.7,5.7s5.7-2.56,5.7-5.7v-9.53h1.77c11.69-.16,21.2-9.79,21.2-21.47s-9.63-21.47-21.47-21.47Z"/>
    <g class="cls-1">
      <path class="cls-5" d="M33.89,189.52h6.13c4.1,0,7.43-3.32,7.43-7.43,0-3.66-2.65-6.7-6.13-7.31V25.33h26.65c4.1,0,7.43-3.32,7.43-7.43,0-4.1-3.33-7.43-7.43-7.43h-34.08c-4.1,0-7.43,3.32-7.43,7.43v164.19c0,4.1,3.33,7.43,7.43,7.43Z"/>
    </g>
    <path class="cls-4" d="M8.85,172.05c4.1,0,7.43-3.32,7.43-7.43V35.37c0-4.1-3.33-7.43-7.43-7.43-4.1,0-7.43,3.32-7.43,7.43v129.25c0,4.1,3.33,7.43,7.43,7.43Z"/>
    <path class="cls-6" d="M211.15,0h-100.99s0,0,0,0c-.49,0-.97.05-1.45.15-.22.04-.42.12-.63.19-.25.07-.51.13-.76.23-.25.1-.47.24-.71.37-.19.1-.39.19-.57.31-.41.27-.79.58-1.13.93l-50.49,50.49c-.35.35-.65.73-.93,1.13-.12.18-.2.37-.3.56-.13.24-.27.47-.38.72-.1.24-.15.49-.23.73-.07.22-.15.43-.19.66-.09.47-.14.94-.14,1.42,0,.01,0,.02,0,.03v134.65c0,4.1,3.33,7.43,7.43,7.43h75.74c4.1,0,7.43-3.32,7.43-7.43s-3.33-7.43-7.43-7.43h-68.32v-119.8h43.07c4.1,0,7.43-3.32,7.43-7.43V14.85h93.56c4.1,0,7.43-3.32,7.43-7.43s-3.33-7.43-7.43-7.43ZM77.59,50.49l25.14-25.14v25.14h-25.14Z"/>
  </g>
</svg>