<?xml version="1.0" encoding="UTF-8"?>
<svg id="Camada_1" data-name="Camada 1" xmlns="http://www.w3.org/2000/svg" xmlns:xlink="http://www.w3.org/1999/xlink" viewBox="0 0 200 205">
  <defs>
    <style>
      .cls-1 {
        fill: url(#linear-gradient-2);
      }

      .cls-2 {
        fill: url(#linear-gradient-4);
      }

      .cls-3 {
        fill: url(#linear-gradient-3);
      }

      .cls-4 {
        fill: url(#linear-gradient-5);
      }

      .cls-5 {
        fill: url(#linear-gradient);
      }
    </style>
    <linearGradient id="linear-gradient" x1="44.13" y1="107.99" x2="139.96" y2="107.99" gradientUnits="userSpaceOnUse">
      <stop offset="0" stop-color="#3db6f3"/>
      <stop offset=".2" stop-color="#3db6f3"/>
      <stop offset="1" stop-color="#3a60ff"/>
    </linearGradient>
    <linearGradient id="linear-gradient-2" x1="0" y1="102.5" x2="200" y2="102.5" xlink:href="#linear-gradient"/>
    <linearGradient id="linear-gradient-3" x1="160.04" y1="29.87" x2="168.33" y2="29.87" xlink:href="#linear-gradient"/>
    <linearGradient id="linear-gradient-4" x1="173.73" y1="29.87" x2="182.02" y2="29.87" xlink:href="#linear-gradient"/>
    <linearGradient id="linear-gradient-5" x1="146.34" y1="29.87" x2="154.64" y2="29.87" xlink:href="#linear-gradient"/>
  </defs>
  <path class="cls-5" d="M139.96,117.93v-42.8c0-2.29-1.86-4.15-4.15-4.15h-10.08l-9.92-16.83c-1.13-1.92-3.13-3.06-5.36-3.06h0c-2.22,0-4.23,1.14-5.36,3.06l-9.92,16.83h-46.9c-2.29,0-4.15,1.86-4.15,4.15v42.8c0,12.56,5,24.36,14.07,33.23,9.05,8.85,21.07,13.72,33.85,13.72,26.42,0,47.91-21.06,47.91-46.95ZM52.43,117.93v-38.65h45.11c1.45,0,2.85-.79,3.59-2.04l9.34-15.84,9.33,15.84c.73,1.25,2.13,2.04,3.57,2.04h8.3v38.65c0,21.31-17.77,38.65-39.62,38.65-10.6,0-20.56-4.03-28.05-11.36-7.46-7.3-11.57-16.99-11.57-27.3Z"/>
  <path class="cls-1" d="M186.03,2.28h-43.71c-7.7,0-13.97,6.21-13.97,13.84v5.45c-11.02-6.11-23.42-9.35-36.31-9.35C51.35,12.21,18,44.93,15.88,85.95h-1.37c-8,0-14.51,6.51-14.51,14.51v30.77c0,8,6.51,14.51,14.51,14.51h10.81c8,0,14.51-6.51,14.51-14.51v-30.77c0-8-6.51-14.51-14.51-14.51h-1.13c2.1-36.45,31.73-65.44,67.86-65.44,13.05,0,25.54,3.74,36.31,10.73v12.39c0,6.2,4.14,11.46,9.82,13.21v5.78c0,3.4,4.47,8.24,9.27,4.49l6.77-5.28c3.28,7.55,5.22,15.7,5.7,24.13h-1.13c-8,0-14.51,6.51-14.51,14.51v30.77c0,6.41,4.18,11.86,9.95,13.78-7.85,17.26-23.01,30.66-41.63,36.44-2.46-4.07-6.93-6.79-12.01-6.79h-17.04c-7.74,0-14.03,6.3-14.03,14.03s6.3,14.03,14.03,14.03h17.04c7.46,0,13.58-5.86,14.01-13.21,22.05-6.69,39.86-22.93,48.35-43.77h6.65c8,0,14.51-6.51,14.51-14.51v-30.77c0-8-6.51-14.51-14.51-14.51h-1.36c-.51-9.98-2.86-19.61-6.87-28.49h24.69c7.7,0,13.97-6.21,13.97-13.84v-27.51c0-7.63-6.27-13.84-13.97-13.84h0ZM31.54,100.46v30.77c0,3.43-2.79,6.22-6.22,6.22h-10.81c-3.43,0-6.22-2.79-6.22-6.22v-30.77c0-3.43,2.79-6.22,6.22-6.22h10.81c3.43,0,6.22,2.79,6.22,6.22ZM106.31,188.69c0,3.17-2.58,5.74-5.74,5.74h-17.04c-3.17,0-5.74-2.58-5.74-5.74s2.58-5.74,5.74-5.74h17.04c3.17,0,5.74,2.58,5.74,5.74ZM175.8,100.46v30.77c0,3.43-2.79,6.22-6.22,6.22h-10.81c-3.43,0-6.22-2.79-6.22-6.22v-30.77c0-3.43,2.79-6.22,6.22-6.22h10.81c3.43,0,6.22,2.79,6.22,6.22ZM191.71,43.62c0,3.06-2.54,5.54-5.67,5.54h-27.66c-.92,0-1.82.31-2.55.88l-9.35,7.3v-4.03c0-2.29-1.86-4.15-4.15-4.15-3.13,0-5.67-2.49-5.67-5.54v-27.51c0-3.06,2.54-5.54,5.67-5.54h43.71c3.13,0,5.67,2.49,5.67,5.54v27.51Z"/>
  <path class="cls-3" d="M164.18,25.72h0c-2.29,0-4.14,1.86-4.14,4.15s1.86,4.15,4.15,4.15,4.15-1.86,4.15-4.15-1.86-4.15-4.15-4.15Z"/>
  <path class="cls-2" d="M177.88,25.72h0c-2.29,0-4.14,1.86-4.14,4.15s1.86,4.15,4.15,4.15,4.15-1.86,4.15-4.15-1.86-4.15-4.15-4.15Z"/>
  <path class="cls-4" d="M150.49,34.01c2.29,0,4.15-1.86,4.15-4.15s-1.86-4.15-4.15-4.15h0c-2.29,0-4.14,1.86-4.14,4.15s1.86,4.15,4.15,4.15Z"/>
</svg>