<?xml version="1.0" encoding="UTF-8"?>
<svg id="Camada_1" data-name="Camada 1" xmlns="http://www.w3.org/2000/svg" xmlns:xlink="http://www.w3.org/1999/xlink" viewBox="0 0 360 290">
  <defs>
    <style>
      .cls-1 {
        fill: url(#linear-gradient-2);
      }

      .cls-2 {
        fill: #43caff;
      }

      .cls-3 {
        fill: url(#linear-gradient-4);
      }

      .cls-4 {
        fill: url(#linear-gradient-3);
      }

      .cls-5 {
        fill: url(#linear-gradient-5);
      }

      .cls-6 {
        fill: url(#linear-gradient-8);
      }

      .cls-7 {
        fill: #243a83;
      }

      .cls-8 {
        fill: url(#linear-gradient-7);
      }

      .cls-9 {
        fill: url(#linear-gradient-6);
      }

      .cls-10 {
        fill: url(#linear-gradient);
      }
    </style>
    <linearGradient id="linear-gradient" x1="38.38" y1="87.55" x2="328.23" y2="87.55" gradientUnits="userSpaceOnUse">
      <stop offset="0" stop-color="#3db6f3"/>
      <stop offset=".2" stop-color="#3db6f3"/>
      <stop offset="1" stop-color="#3a60ff"/>
    </linearGradient>
    <linearGradient id="linear-gradient-2" x1="38.38" y1="116.34" x2="328.23" y2="116.34" xlink:href="#linear-gradient"/>
    <linearGradient id="linear-gradient-3" x1="38.38" y1="87.94" x2="328.23" y2="87.94" xlink:href="#linear-gradient"/>
    <linearGradient id="linear-gradient-4" x1="38.38" y1="97.93" x2="328.23" y2="97.93" xlink:href="#linear-gradient"/>
    <linearGradient id="linear-gradient-5" x1="38.38" y1="110.64" x2="328.23" y2="110.64" xlink:href="#linear-gradient"/>
    <linearGradient id="linear-gradient-6" x1="38.38" y1="180.93" x2="328.23" y2="180.93" xlink:href="#linear-gradient"/>
    <linearGradient id="linear-gradient-7" x1="38.38" y1="121.79" x2="328.23" y2="121.79" xlink:href="#linear-gradient"/>
    <linearGradient id="linear-gradient-8" x1="38.38" y1="81.19" x2="328.23" y2="81.19" xlink:href="#linear-gradient"/>
  </defs>
  <g>
    <path class="cls-10" d="M295.69,175.1c-3.66,0-6.62-2.96-6.62-6.62V19.07c0-3.33-2.51-5.83-5.83-5.83H77.02c-3.33,0-5.83,2.51-5.83,5.83v149.41c0,3.66-2.96,6.62-6.62,6.62s-6.62-2.96-6.62-6.62V19.07c0-10.69,8.38-19.07,19.07-19.07h206.22c10.69,0,19.07,8.38,19.07,19.07v149.41c0,3.66-2.96,6.62-6.62,6.62Z"/>
    <path class="cls-1" d="M198.16,144.46c-2.92,0-5.29-2.37-5.29-5.29v-45.65c0-2.92,2.37-5.29,5.29-5.29s5.29,2.37,5.29,5.29v45.65c0,2.92-2.37,5.29-5.29,5.29Z"/>
    <path class="cls-4" d="M219.77,144.46c-2.92,0-5.29-2.37-5.29-5.29V36.71c0-2.92,2.37-5.29,5.29-5.29s5.29,2.37,5.29,5.29v102.46c0,2.92-2.37,5.29-5.29,5.29Z"/>
    <path class="cls-3" d="M263.01,144.46c-2.92,0-5.29-2.37-5.29-5.29V56.68c0-2.92,2.37-5.29,5.29-5.29s5.29,2.37,5.29,5.29v82.49c0,2.92-2.37,5.29-5.29,5.29Z"/>
    <path class="cls-5" d="M241.39,144.46c-2.92,0-5.29-2.37-5.29-5.29v-57.07c0-2.92,2.37-5.29,5.29-5.29s5.29,2.37,5.29,5.29v57.07c0,2.92-2.37,5.29-5.29,5.29Z"/>
    <path class="cls-9" d="M289.21,200H70.79c-17.38,0-31.52-14.14-31.52-31.52,0-3.66,2.96-6.62,6.62-6.62h104.28c1.76,0,3.44.7,4.68,1.94l4.29,4.29h41.73l4.29-4.29c1.24-1.24,2.92-1.94,4.68-1.94h104.28c3.66,0,6.62,2.96,6.62,6.62,0,17.38-14.14,31.52-31.52,31.52ZM53.75,175.1c2.66,6.82,9.3,11.67,17.05,11.67h218.41c7.75,0,14.39-4.85,17.05-11.67h-93.68l-4.29,4.29c-1.24,1.24-2.92,1.94-4.68,1.94h-47.21c-1.76,0-3.44-.7-4.68-1.94l-4.29-4.29H53.75Z"/>
    <path class="cls-8" d="M162.62,142.65c-2.92,0-5.29-2.37-5.29-5.29v-12.45c-.57-3.48-13.94-13.38-25.83-13.38s-25.41,9.87-25.84,13.43v12.41c0,2.92-2.37,5.29-5.29,5.29s-5.29-2.37-5.29-5.29v-12.45c0-11.57,21.38-23.97,36.42-23.97s36.42,12.4,36.42,23.97v12.45c0,2.92-2.37,5.29-5.29,5.29Z"/>
    <path class="cls-6" d="M131.83,111.27c-5.98,0-11.61-2.24-15.9-6.33-5.01-4.79-7.98-11.93-8.15-19.6l-.26-6.93c-.34-15.27,9.69-26.96,23.33-27.28,6.16-.15,12.04,2.1,16.46,6.33,5.01,4.79,7.98,11.93,8.15,19.6l.26,6.92c.33,15.27-9.7,26.96-23.33,27.28-.19,0-.38,0-.56,0ZM131.42,61.71c-.11,0-.21,0-.32,0-8.76.21-13.17,8.39-12.99,16.38l.26,6.92c.11,4.96,1.89,9.4,4.89,12.26,2.41,2.3,5.44,3.42,8.89,3.4h0c7.85-.18,13.19-6.92,12.99-16.38l-.26-6.92c-.11-4.96-1.89-9.4-4.88-12.26-2.33-2.23-5.29-3.4-8.57-3.4Z"/>
  </g>
  <g>
    <g>
      <path class="cls-7" d="M86.88,253.39c2.22,1.14,3.94,2.77,5.15,4.89s1.82,4.57,1.82,7.36-.61,5.24-1.82,7.32c-1.21,2.09-2.93,3.71-5.15,4.85-2.22,1.14-4.79,1.72-7.72,1.72h-9.74v-27.86h9.74c2.93,0,5.5.57,7.72,1.72ZM85.74,272.39c1.6-1.6,2.4-3.84,2.4-6.75s-.8-5.17-2.4-6.8c-1.59-1.64-3.86-2.45-6.79-2.45h-3.95v18.4h3.95c2.93,0,5.19-.8,6.79-2.39Z"/>
      <path class="cls-7" d="M98.01,262.45c.89-1.73,2.1-3.06,3.63-3.99s3.24-1.4,5.13-1.4c1.65,0,3.09.33,4.33,1,1.24.67,2.23,1.5,2.97,2.51v-3.15h5.63v22.11h-5.63v-3.23c-.72,1.04-1.71,1.9-2.97,2.57s-2.72,1.02-4.37,1.02c-1.86,0-3.56-.48-5.09-1.44s-2.74-2.31-3.63-4.05c-.89-1.74-1.34-3.75-1.34-6.01s.44-4.22,1.34-5.95ZM113.28,264.99c-.53-.97-1.25-1.72-2.16-2.23s-1.88-.78-2.91-.78-2,.25-2.87.76c-.88.51-1.59,1.24-2.13,2.22s-.82,2.12-.82,3.45.27,2.49.82,3.49c.55,1,1.26,1.76,2.16,2.3.89.53,1.84.8,2.85.8s2.01-.26,2.91-.78,1.62-1.26,2.16-2.23c.53-.97.8-2.14.8-3.49s-.27-2.52-.8-3.49Z"/>
      <path class="cls-7" d="M128.49,278.92c-1.44-.65-2.57-1.54-3.41-2.65-.84-1.12-1.3-2.35-1.38-3.71h5.63c.11.85.52,1.56,1.26,2.12.73.56,1.64.84,2.73.84s1.9-.21,2.49-.64c.6-.43.9-.97.9-1.64,0-.72-.37-1.26-1.1-1.62-.73-.36-1.9-.75-3.49-1.18-1.65-.4-3-.81-4.05-1.24s-1.96-1.08-2.71-1.96c-.76-.88-1.14-2.06-1.14-3.55,0-1.22.35-2.34,1.06-3.35.7-1.01,1.72-1.81,3.03-2.39,1.32-.59,2.87-.88,4.65-.88,2.63,0,4.74.66,6.3,1.98,1.57,1.32,2.44,3.09,2.6,5.33h-5.35c-.08-.88-.45-1.58-1.1-2.1s-1.52-.78-2.61-.78c-1.01,0-1.79.19-2.34.56-.55.37-.82.89-.82,1.56,0,.75.37,1.31,1.12,1.7.74.39,1.9.78,3.47,1.18,1.6.4,2.91.81,3.95,1.24,1.04.43,1.94,1.08,2.69,1.98.76.89,1.15,2.07,1.18,3.53,0,1.28-.35,2.42-1.06,3.43-.7,1.01-1.72,1.8-3.03,2.38-1.32.57-2.86.86-4.61.86s-3.43-.33-4.87-.98Z"/>
      <path class="cls-7" d="M163.26,258.2c1.3.73,2.32,1.81,3.05,3.23.73,1.42,1.1,3.13,1.1,5.13v12.97h-5.59v-12.21c0-1.76-.44-3.11-1.32-4.05-.88-.94-2.08-1.42-3.59-1.42s-2.76.47-3.65,1.42c-.89.94-1.34,2.29-1.34,4.05v12.21h-5.59v-29.53h5.59v10.18c.72-.96,1.68-1.71,2.87-2.25,1.2-.54,2.53-.82,3.99-.82,1.68,0,3.17.37,4.47,1.1Z"/>
      <path class="cls-7" d="M181.02,258.06c1.26-.66,2.71-1,4.33-1,1.89,0,3.6.47,5.13,1.4s2.74,2.25,3.63,3.97c.89,1.72,1.34,3.71,1.34,5.97s-.45,4.26-1.34,6.01c-.89,1.74-2.1,3.09-3.63,4.05s-3.24,1.44-5.13,1.44c-1.65,0-3.09-.33-4.33-.98-1.24-.65-2.23-1.5-2.98-2.53v3.15h-5.59v-29.53h5.59v10.66c.72-1.06,1.71-1.93,2.98-2.59ZM188.92,264.95c-.55-.97-1.27-1.71-2.16-2.22-.89-.51-1.85-.76-2.89-.76s-1.96.26-2.85.78c-.89.52-1.61,1.27-2.16,2.25s-.82,2.14-.82,3.47.27,2.49.82,3.47c.55.98,1.26,1.74,2.16,2.25.89.52,1.84.78,2.85.78s2-.27,2.89-.8c.89-.53,1.61-1.29,2.16-2.28.54-.98.82-2.16.82-3.51s-.27-2.48-.82-3.45Z"/>
      <path class="cls-7" d="M203.56,278.48c-1.7-.94-3.04-2.28-4.01-4.01s-1.46-3.73-1.46-5.99.5-4.26,1.5-5.99c1-1.73,2.36-3.07,4.09-4.01,1.73-.94,3.66-1.42,5.79-1.42s4.06.47,5.79,1.42c1.73.95,3.09,2.28,4.09,4.01,1,1.73,1.5,3.73,1.5,5.99s-.51,4.26-1.54,5.99-2.41,3.07-4.15,4.01c-1.74.95-3.69,1.42-5.85,1.42s-4.05-.47-5.75-1.42ZM212.16,274.29c.89-.49,1.6-1.23,2.14-2.22.53-.98.8-2.18.8-3.59,0-2.1-.55-3.72-1.66-4.85-1.1-1.13-2.45-1.7-4.05-1.7s-2.93.57-4.01,1.7c-1.08,1.13-1.62,2.75-1.62,4.85s.52,3.72,1.58,4.85c1.05,1.13,2.37,1.7,3.97,1.7,1.01,0,1.96-.25,2.85-.74Z"/>
      <path class="cls-7" d="M224.83,262.45c.89-1.73,2.1-3.06,3.63-3.99s3.24-1.4,5.13-1.4c1.65,0,3.1.33,4.33,1,1.24.67,2.23,1.5,2.97,2.51v-3.15h5.63v22.11h-5.63v-3.23c-.72,1.04-1.71,1.9-2.97,2.57s-2.72,1.02-4.37,1.02c-1.86,0-3.56-.48-5.09-1.44s-2.74-2.31-3.63-4.05c-.89-1.74-1.34-3.75-1.34-6.01s.44-4.22,1.34-5.95ZM240.1,264.99c-.53-.97-1.25-1.72-2.15-2.23-.91-.52-1.88-.78-2.91-.78s-2,.25-2.87.76c-.88.51-1.59,1.24-2.14,2.22s-.82,2.12-.82,3.45.27,2.49.82,3.49c.55,1,1.26,1.76,2.16,2.3.89.53,1.84.8,2.86.8s2.01-.26,2.91-.78c.9-.52,1.62-1.26,2.15-2.23s.8-2.14.8-3.49-.27-2.52-.8-3.49Z"/>
      <path class="cls-7" d="M260.1,258.1c1.16-.66,2.48-1,3.97-1v5.87h-1.48c-1.76,0-3.08.41-3.97,1.24s-1.34,2.26-1.34,4.31v11.02h-5.59v-22.11h5.59v3.43c.72-1.17,1.66-2.09,2.81-2.75Z"/>
      <path class="cls-7" d="M267.36,262.45c.89-1.73,2.11-3.06,3.65-3.99s3.26-1.4,5.15-1.4c1.44,0,2.81.31,4.11.94,1.3.63,2.34,1.46,3.11,2.49v-10.5h5.67v29.53h-5.67v-3.27c-.69,1.09-1.66,1.97-2.91,2.63-1.25.66-2.7,1-4.35,1-1.86,0-3.57-.48-5.11-1.44s-2.76-2.31-3.65-4.05c-.89-1.74-1.34-3.75-1.34-6.01s.44-4.22,1.34-5.95ZM282.62,264.99c-.53-.97-1.25-1.72-2.16-2.23-.9-.52-1.87-.78-2.91-.78s-1.99.25-2.87.76c-.88.51-1.59,1.24-2.14,2.22s-.82,2.12-.82,3.45.27,2.49.82,3.49c.55,1,1.26,1.76,2.16,2.3.89.53,1.84.8,2.85.8s2.01-.26,2.91-.78c.91-.52,1.62-1.26,2.16-2.23.53-.97.8-2.14.8-3.49s-.27-2.52-.8-3.49Z"/>
      <path class="cls-7" d="M297.83,278.92c-1.44-.65-2.57-1.54-3.41-2.65-.84-1.12-1.3-2.35-1.38-3.71h5.63c.11.85.52,1.56,1.26,2.12.73.56,1.64.84,2.73.84s1.9-.21,2.49-.64c.6-.43.9-.97.9-1.64,0-.72-.37-1.26-1.1-1.62-.73-.36-1.9-.75-3.49-1.18-1.65-.4-3-.81-4.05-1.24s-1.96-1.08-2.71-1.96c-.76-.88-1.14-2.06-1.14-3.55,0-1.22.35-2.34,1.06-3.35.7-1.01,1.72-1.81,3.03-2.39,1.32-.59,2.87-.88,4.65-.88,2.63,0,4.74.66,6.3,1.98,1.57,1.32,2.44,3.09,2.6,5.33h-5.35c-.08-.88-.45-1.58-1.1-2.1s-1.52-.78-2.61-.78c-1.01,0-1.79.19-2.34.56-.55.37-.82.89-.82,1.56,0,.75.37,1.31,1.12,1.7.74.39,1.9.78,3.47,1.18,1.6.4,2.91.81,3.95,1.24,1.04.43,1.94,1.08,2.69,1.98.76.89,1.15,2.07,1.18,3.53,0,1.28-.35,2.42-1.06,3.43-.7,1.01-1.72,1.8-3.03,2.38-1.32.57-2.86.86-4.61.86s-3.43-.33-4.87-.98Z"/>
    </g>
    <path class="cls-2" d="M57.84,264.48c-1.4,0-2.55-1.14-2.55-2.55v-4.86h-3.45v7.41h-7.41v3.45h4.86c1.4,0,2.55,1.14,2.55,2.55v4.86h3.45v-7.41h7.41v-3.45h-4.86Z"/>
  </g>
</svg>