<?xml version="1.0" encoding="UTF-8"?>
<svg id="Camada_1" data-name="Camada 1" xmlns="http://www.w3.org/2000/svg" xmlns:xlink="http://www.w3.org/1999/xlink" viewBox="0 0 290 290">
  <defs>
    <style>
      .cls-1 {
        fill: url(#linear-gradient-2);
      }

      .cls-2 {
        fill: #43caff;
      }

      .cls-3 {
        fill: url(#linear-gradient-4);
      }

      .cls-4 {
        fill: url(#linear-gradient-3);
      }

      .cls-5 {
        fill: url(#linear-gradient-5);
      }

      .cls-6 {
        fill: #243a83;
      }

      .cls-7 {
        fill: url(#linear-gradient-6);
      }

      .cls-8 {
        fill: url(#linear-gradient);
      }
    </style>
    <linearGradient id="linear-gradient" x1="9.46" y1="180.93" x2="282.9" y2="180.93" gradientUnits="userSpaceOnUse">
      <stop offset="0" stop-color="#3db6f3"/>
      <stop offset=".2" stop-color="#3db6f3"/>
      <stop offset="1" stop-color="#3a60ff"/>
    </linearGradient>
    <linearGradient id="linear-gradient-2" x1="9.46" y1="81.71" x2="282.9" y2="81.71" xlink:href="#linear-gradient"/>
    <linearGradient id="linear-gradient-3" x1="9.46" y1="132.8" x2="282.9" y2="132.8" xlink:href="#linear-gradient"/>
    <linearGradient id="linear-gradient-4" x1="9.46" y1="99.48" x2="282.9" y2="99.48" xlink:href="#linear-gradient"/>
    <linearGradient id="linear-gradient-5" x1="9.46" y1="71.47" x2="282.9" y2="71.47" xlink:href="#linear-gradient"/>
    <linearGradient id="linear-gradient-6" x1="9.46" y1="87.55" x2="282.9" y2="87.55" xlink:href="#linear-gradient"/>
  </defs>
  <g>
    <path class="cls-8" d="M254.21,200H35.79c-17.38,0-31.52-14.14-31.52-31.52v-6.62h113.63l6.23,6.23h41.73l6.23-6.23h113.63v6.62c0,17.38-14.14,31.52-31.52,31.52ZM18.75,175.1c2.66,6.82,9.3,11.67,17.05,11.67h218.41c7.75,0,14.39-4.85,17.05-11.67h-93.68l-6.23,6.23h-52.69l-6.23-6.23H18.75Z"/>
    <g>
      <path class="cls-1" d="M137.35,140.18c-32.24,0-58.47-26.23-58.47-58.47s26.23-58.47,58.47-58.47,58.47,26.23,58.47,58.47-26.23,58.47-58.47,58.47ZM137.35,33.83c-26.4,0-47.88,21.48-47.88,47.88s21.48,47.88,47.88,47.88,47.88-21.48,47.88-47.88-21.48-47.88-47.88-47.88Z"/>
      <path class="cls-4" d="M206.09,151.86c-1.28,0-2.56-.46-3.58-1.39l-30.02-27.52c-2.16-1.98-2.3-5.33-.33-7.48,1.98-2.16,5.33-2.3,7.48-.33l30.02,27.52c2.16,1.98,2.3,5.33.33,7.48-1.04,1.14-2.47,1.72-3.9,1.72Z"/>
      <path class="cls-3" d="M158.62,114.5c-2.92,0-5.29-2.37-5.29-5.29v-5.69c-1.05-2.44-9.54-8.47-17.27-8.47s-16.23,6.03-17.27,8.47v5.69c0,2.92-2.37,5.29-5.29,5.29s-5.29-2.37-5.29-5.29v-5.97c0-9.32,16.21-18.78,27.86-18.78s27.86,9.46,27.86,18.78v5.97c0,2.92-2.37,5.29-5.29,5.29Z"/>
      <path class="cls-5" d="M136.14,94.8c-4.62,0-8.98-1.72-12.34-4.87-4.02-3.78-6.34-9.22-6.53-15.32l-.26-5.08c-.36-11.89,7.53-21.04,18.35-21.38,5.53-.18,10.54,1.95,14.14,5.98,3.27,3.66,5.16,8.71,5.33,14.2l.26,5.08c.36,11.89-7.53,21.04-18.35,21.38-.2,0-.4,0-.6,0ZM135.99,58.72c-.1,0-.2,0-.3,0-5.81.18-8.25,5.34-8.1,10.37l.26,5.08c.1,3.32,1.27,6.21,3.2,8.03,1.48,1.39,3.27,2.07,5.35,1.99,0,0,0,0,0,0,5.81-.18,8.26-5.34,8.1-10.37l-.26-5.08c-.09-3.11-1.03-5.76-2.65-7.57-1.45-1.63-3.34-2.46-5.61-2.46Z"/>
    </g>
    <path class="cls-7" d="M260.69,175.1c-3.66,0-6.62-2.96-6.62-6.62V19.07c0-3.33-2.51-5.83-5.83-5.83H42.02c-3.33,0-5.83,2.51-5.83,5.83v149.41c0,3.66-2.96,6.62-6.62,6.62s-6.62-2.96-6.62-6.62V19.07C22.95,8.38,31.33,0,42.02,0h206.22c10.69,0,19.07,8.38,19.07,19.07v149.41c0,3.66-2.96,6.62-6.62,6.62Z"/>
  </g>
  <g>
    <g>
      <path class="cls-6" d="M82.11,254.93c2.13,1.1,3.77,2.66,4.93,4.69,1.16,2.03,1.74,4.38,1.74,7.06s-.58,5.02-1.74,7.02c-1.16,2-2.8,3.55-4.93,4.65-2.13,1.1-4.59,1.64-7.4,1.64h-9.33v-26.69h9.33c2.8,0,5.27.55,7.4,1.64ZM81.02,273.14c1.53-1.53,2.29-3.68,2.29-6.46s-.76-4.95-2.29-6.52c-1.53-1.57-3.7-2.35-6.5-2.35h-3.79v17.63h3.79c2.8,0,4.97-.76,6.5-2.29Z"/>
      <path class="cls-6" d="M93.1,255.37c-.63-.6-.94-1.34-.94-2.24s.31-1.64.94-2.24c.62-.6,1.41-.9,2.35-.9s1.73.3,2.35.9c.62.6.94,1.35.94,2.24s-.31,1.64-.94,2.24c-.63.6-1.41.9-2.35.9s-1.73-.3-2.35-.9ZM98.09,258.8v21.19h-5.35v-21.19h5.35Z"/>
      <path class="cls-6" d="M106.5,279.39c-1.38-.62-2.47-1.47-3.27-2.54-.8-1.07-1.24-2.26-1.32-3.56h5.39c.1.82.5,1.49,1.21,2.03.7.54,1.57.8,2.62.8s1.82-.2,2.39-.61c.57-.41.86-.93.86-1.57,0-.69-.35-1.2-1.05-1.55-.7-.34-1.82-.72-3.35-1.13-1.58-.38-2.88-.78-3.88-1.18s-1.87-1.03-2.6-1.87c-.73-.84-1.09-1.98-1.09-3.4,0-1.17.34-2.24,1.01-3.21.68-.97,1.64-1.73,2.91-2.29s2.75-.84,4.45-.84c2.52,0,4.54.63,6.04,1.89,1.5,1.26,2.33,2.96,2.48,5.11h-5.12c-.08-.84-.43-1.51-1.05-2.01-.62-.5-1.46-.75-2.5-.75-.97,0-1.72.18-2.24.54-.52.36-.78.86-.78,1.49,0,.71.36,1.26,1.07,1.63.71.37,1.82.75,3.33,1.13,1.53.38,2.79.78,3.79,1.19.99.41,1.85,1.04,2.58,1.89.73.85,1.1,1.98,1.13,3.38,0,1.22-.34,2.32-1.01,3.29-.68.97-1.64,1.73-2.91,2.28-1.26.55-2.73.82-4.42.82s-3.29-.31-4.67-.94Z"/>
      <path class="cls-6" d="M123.49,263.63c.89-1.64,2.13-2.92,3.71-3.82,1.58-.9,3.39-1.36,5.43-1.36,2.63,0,4.8.66,6.52,1.97s2.87,3.15,3.46,5.53h-5.77c-.3-.92-.82-1.64-1.55-2.16-.73-.52-1.62-.78-2.7-.78-1.53,0-2.74.55-3.63,1.66-.89,1.11-1.34,2.68-1.34,4.72s.45,3.58,1.34,4.68c.89,1.11,2.1,1.66,3.63,1.66,2.17,0,3.58-.97,4.24-2.91h5.77c-.59,2.29-1.75,4.12-3.48,5.47-1.73,1.35-3.9,2.03-6.5,2.03-2.04,0-3.85-.45-5.43-1.36-1.58-.9-2.82-2.18-3.71-3.82-.89-1.64-1.34-3.56-1.34-5.75s.45-4.11,1.34-5.75Z"/>
      <path class="cls-6" d="M150.16,278.97c-1.63-.9-2.91-2.19-3.84-3.84s-1.4-3.57-1.4-5.74.48-4.08,1.43-5.74c.96-1.66,2.26-2.94,3.92-3.84,1.66-.9,3.51-1.36,5.54-1.36s3.89.45,5.55,1.36c1.66.91,2.96,2.19,3.92,3.84.96,1.66,1.43,3.57,1.43,5.74s-.49,4.08-1.47,5.74c-.98,1.66-2.31,2.94-3.98,3.84-1.67.91-3.54,1.36-5.6,1.36s-3.87-.45-5.51-1.36ZM158.4,274.95c.85-.47,1.54-1.18,2.05-2.12s.77-2.09.77-3.44c0-2.01-.53-3.56-1.59-4.65-1.06-1.08-2.35-1.63-3.88-1.63s-2.81.54-3.84,1.63c-1.03,1.08-1.55,2.63-1.55,4.65s.5,3.56,1.51,4.65c1.01,1.08,2.27,1.63,3.8,1.63.97,0,1.88-.24,2.73-.71Z"/>
      <path class="cls-6" d="M178.39,275.05l5.35-16.25h5.7l-7.84,21.19h-6.5l-7.8-21.19h5.74l5.35,16.25Z"/>
      <path class="cls-6" d="M210.97,270.99h-15.49c.13,1.53.66,2.73,1.61,3.6.94.87,2.1,1.3,3.48,1.3,1.99,0,3.4-.85,4.24-2.56h5.77c-.61,2.04-1.78,3.72-3.52,5.03-1.73,1.31-3.86,1.97-6.39,1.97-2.04,0-3.87-.45-5.49-1.36-1.62-.9-2.88-2.19-3.79-3.84s-1.36-3.57-1.36-5.74.45-4.12,1.34-5.77c.89-1.66,2.14-2.93,3.75-3.82,1.61-.89,3.45-1.34,5.55-1.34s3.82.43,5.41,1.3,2.83,2.1,3.71,3.69c.88,1.59,1.32,3.42,1.32,5.49,0,.76-.05,1.45-.15,2.06ZM205.58,267.4c-.03-1.38-.52-2.48-1.49-3.31-.97-.83-2.16-1.24-3.56-1.24-1.33,0-2.44.4-3.35,1.2s-1.46,1.92-1.66,3.35h10.06Z"/>
      <path class="cls-6" d="M222.93,259.45c1.11-.64,2.38-.96,3.8-.96v5.62h-1.41c-1.68,0-2.95.4-3.81,1.19s-1.28,2.17-1.28,4.13v10.55h-5.35v-21.19h5.35v3.29c.69-1.12,1.59-2,2.7-2.64Z"/>
      <path class="cls-6" d="M251.18,258.8l-13.12,31.2h-5.7l4.59-10.55-8.49-20.65h6l5.47,14.8,5.54-14.8h5.7Z"/>
    </g>
    <path class="cls-2" d="M51.67,266.51c-1.35,0-2.44-1.09-2.44-2.44v-4.66h-3.31v7.1h-7.1v3.31h4.66c1.35,0,2.44,1.09,2.44,2.44v4.66h3.31v-7.1h7.1v-3.31h-4.66Z"/>
  </g>
</svg>