<?xml version="1.0" encoding="UTF-8"?>
<svg id="Camada_1" data-name="Camada 1" xmlns="http://www.w3.org/2000/svg" viewBox="0 0 1080 200">
  <defs>
    <style>
      .cls-1 {
        fill: #243a83;
      }

      .cls-2 {
        fill: #3db6f3;
      }
    </style>
  </defs>
  <g>
    <path class="cls-2" d="M78.92,105.68c-21.14,0-38.33-16.51-38.33-36.81s17.2-36.81,38.33-36.81,38.33,16.51,38.33,36.81-17.2,36.81-38.33,36.81M78.92,16.04c-14.89,0-28.42,5.71-38.33,14.97v-14.97h-16.94l.26,51.32h.02c-.01.5-.02,1-.02,1.51l-.26,122.06h16.94v-84.21c9.92,9.26,23.44,14.98,38.34,14.98,30.34,0,55.02-23.7,55.02-52.83s-24.68-52.83-55.02-52.83"/>
    <path class="cls-2" d="M211.69,105.52c-1.19.11-2.39.16-3.6.16s-2.42-.05-3.6-.16c-8.7-.78-16.56-4.37-22.6-9.8-7.46-6.72-12.14-16.27-12.14-26.85,0-20.3,17.2-36.81,38.34-36.81s38.33,16.51,38.33,36.81c0,10.58-4.67,20.13-12.13,26.85-6.04,5.43-13.9,9.02-22.6,9.8M263.11,16.04h-55.02c-30.34,0-55.02,23.7-55.02,52.83,0,14.22,5.88,27.14,15.43,36.65,3.9,3.89,8.42,7.2,13.4,9.8,7.79,4.07,16.72,6.38,26.2,6.38s18.41-2.31,26.2-6.38c7.46,6.72,12.13,16.27,12.13,26.85,0,20.3-17.2,36.81-38.33,36.81s-38.34-16.51-38.34-36.81h-16.69c0,29.13,24.68,52.83,55.02,52.83s55.02-23.7,55.02-52.83c0-14.22-5.88-27.14-15.43-36.65,9.55-9.51,15.43-22.43,15.43-36.65s-5.96-27.04-15.61-36.56h15.61v-16.27Z"/>
    <g>
      <path class="cls-2" d="M350.84,63.97c-4.36,0-7.91-3.41-7.91-7.6v-14.5h-10.73v22.1h-23.01v10.3h15.1c4.36,0,7.91,3.41,7.91,7.6v14.5h10.73v-22.1h23.01v-10.3h-15.1Z"/>
      <path class="cls-2" d="M337.17,21.14c-27.46,0-49.79,21.45-49.79,47.81s22.34,47.81,49.79,47.81,49.79-21.45,49.79-47.81-22.34-47.81-49.79-47.81M337.17,121.71c-30.29,0-54.94-23.66-54.94-52.75s24.64-52.75,54.94-52.75,54.94,23.66,54.94,52.75-24.64,52.75-54.94,52.75"/>
    </g>
  </g>
  <g>
    <path class="cls-1" d="M416.1,48.6c3.25-5.83,7.77-10.35,13.56-13.57,5.78-3.22,12.41-4.82,19.87-4.82,9.66,0,17.62,2.25,23.89,6.75,6.26,4.5,10.4,10.74,12.41,18.73h-14.06c-1.34-4.59-3.94-8.22-7.82-10.88-3.87-2.66-8.68-3.99-14.42-3.99-7.46,0-13.48,2.46-18.08,7.37s-6.89,11.87-6.89,20.87,2.3,16.12,6.89,21.08,10.62,7.44,18.08,7.44c5.74,0,10.52-1.29,14.35-3.86,3.82-2.57,6.46-6.24,7.89-11.02h14.06c-2.11,7.71-6.31,13.89-12.62,18.53-6.31,4.64-14.2,6.96-23.67,6.96-7.46,0-14.09-1.6-19.87-4.82-5.79-3.22-10.31-7.76-13.56-13.64-3.25-5.87-4.88-12.76-4.88-20.66s1.62-14.62,4.88-20.46Z"/>
    <path class="cls-1" d="M558.27,33.72c4.78,2.43,8.54,6.08,11.26,10.95,2.73,4.87,4.09,10.79,4.09,17.77v44.49h-12.91v-42.7c0-7.53-1.96-13.29-5.88-17.29-3.92-3.99-9.28-5.99-16.07-5.99s-12.36,2.07-16.43,6.2c-4.07,4.13-6.1,10.15-6.1,18.05v41.74h-13.06V5h13.06v37.19c2.58-3.86,6.14-6.84,10.69-8.95,4.54-2.11,9.63-3.17,15.28-3.17,5.93,0,11.28,1.22,16.07,3.65Z"/>
    <path class="cls-1" d="M594.99,48.6c3.25-5.83,7.72-10.35,13.41-13.57,5.69-3.22,12.02-4.82,19.01-4.82s12.86,1.43,17.93,4.27c5.07,2.85,8.84,6.43,11.33,10.74v-13.78h13.2v75.49h-13.2v-14.05c-2.58,4.41-6.43,8.06-11.55,10.95s-11.07,4.34-17.86,4.34-13.3-1.65-18.94-4.96c-5.64-3.31-10.09-7.94-13.34-13.91-3.25-5.97-4.88-12.76-4.88-20.38s1.62-14.49,4.88-20.32ZM653.1,54.18c-2.39-4.22-5.62-7.46-9.69-9.71-4.07-2.25-8.54-3.38-13.41-3.38s-9.33,1.1-13.34,3.31c-4.02,2.2-7.22,5.42-9.61,9.64-2.39,4.22-3.59,9.18-3.59,14.88s1.19,10.81,3.59,15.08c2.39,4.27,5.6,7.53,9.61,9.78,4.01,2.25,8.46,3.37,13.34,3.37s9.35-1.12,13.41-3.37,7.29-5.51,9.69-9.78c2.39-4.27,3.59-9.25,3.59-14.94s-1.2-10.65-3.59-14.88Z"/>
    <path class="cls-1" d="M753.51,38.4c5.93,5.56,8.9,13.57,8.9,24.04v44.49h-12.91v-42.7c0-7.53-1.96-13.29-5.88-17.29-3.92-3.99-9.28-5.99-16.07-5.99s-12.36,2.07-16.43,6.2c-4.07,4.13-6.1,10.15-6.1,18.05v41.74h-13.06V31.45h13.06v10.74c2.58-3.86,6.1-6.84,10.54-8.95,4.45-2.11,9.35-3.17,14.7-3.17,9.56,0,17.31,2.78,23.24,8.33Z"/>
    <path class="cls-1" d="M845.33,38.4c5.93,5.56,8.9,13.57,8.9,24.04v44.49h-12.91v-42.7c0-7.53-1.96-13.29-5.88-17.29-3.92-3.99-9.28-5.99-16.07-5.99s-12.36,2.07-16.43,6.2c-4.07,4.13-6.1,10.15-6.1,18.05v41.74h-13.06V31.45h13.06v10.74c2.58-3.86,6.1-6.84,10.54-8.95,4.45-2.11,9.35-3.17,14.7-3.17,9.56,0,17.31,2.78,23.24,8.33Z"/>
    <path class="cls-1" d="M946.9,73.87h-62.83c.48,7.44,3.13,13.25,7.96,17.43,4.83,4.18,10.69,6.27,17.57,6.27,5.64,0,10.35-1.26,14.13-3.79,3.78-2.52,6.43-5.9,7.96-10.13h14.06c-2.1,7.26-6.31,13.15-12.62,17.7-6.31,4.55-14.16,6.82-23.53,6.82-7.46,0-14.13-1.6-20.01-4.82s-10.5-7.78-13.85-13.71c-3.35-5.92-5.02-12.79-5.02-20.59s1.62-14.65,4.88-20.52c3.25-5.88,7.82-10.4,13.7-13.57s12.65-4.75,20.3-4.75,14.06,1.56,19.8,4.68c5.74,3.12,10.16,7.42,13.27,12.88,3.11,5.46,4.66,11.64,4.66,18.53,0,2.39-.14,4.91-.43,7.57ZM930.55,51.35c-2.2-3.44-5.19-6.06-8.97-7.85-3.78-1.79-7.96-2.69-12.55-2.69-6.6,0-12.22,2.02-16.86,6.06s-7.29,9.64-7.96,16.8h49.64c0-4.77-1.1-8.88-3.3-12.33Z"/>
    <path class="cls-1" d="M977.6,5v101.93h-13.06V5h13.06Z"/>
    <path class="cls-1" d="M1011.45,105.21c-4.78-1.97-8.56-4.73-11.33-8.26-2.77-3.54-4.31-7.6-4.59-12.19h13.48c.38,3.77,2.22,6.84,5.52,9.23s7.62,3.58,12.98,3.58c4.97,0,8.89-1.06,11.76-3.17,2.87-2.11,4.31-4.77,4.31-7.99s-1.53-5.76-4.59-7.37c-3.06-1.6-7.8-3.19-14.2-4.75-5.83-1.47-10.59-2.96-14.27-4.48-3.68-1.52-6.84-3.77-9.47-6.75-2.63-2.99-3.95-6.91-3.95-11.78,0-3.86,1.2-7.39,3.59-10.61,2.39-3.21,5.78-5.76,10.18-7.65,4.4-1.88,9.42-2.82,15.06-2.82,8.7,0,15.73,2.11,21.09,6.34,5.35,4.22,8.22,10.01,8.61,17.36h-13.06c-.29-3.95-1.94-7.12-4.95-9.51-3.01-2.39-7.05-3.58-12.12-3.58-4.69,0-8.42.96-11.19,2.89-2.77,1.93-4.16,4.45-4.16,7.58,0,2.48.84,4.52,2.51,6.13,1.67,1.61,3.78,2.89,6.31,3.86,2.53.96,6.05,2.05,10.54,3.24,5.64,1.47,10.24,2.92,13.77,4.34,3.54,1.43,6.57,3.56,9.11,6.41,2.54,2.85,3.85,6.57,3.95,11.16,0,4.13-1.2,7.85-3.59,11.16-2.39,3.31-5.76,5.9-10.11,7.78-4.35,1.88-9.35,2.82-14.99,2.82-6.02,0-11.43-.99-16.21-2.96Z"/>
  </g>
</svg>