<?xml version="1.0" encoding="UTF-8"?>
<svg id="Camada_1" data-name="Camada 1" xmlns="http://www.w3.org/2000/svg" xmlns:xlink="http://www.w3.org/1999/xlink" viewBox="0 0 280 290">
  <defs>
    <style>
      .cls-1 {
        fill: url(#Gradiente_sem_nome_49-8);
      }

      .cls-2 {
        fill: url(#Gradiente_sem_nome_49-5);
      }

      .cls-3 {
        fill: url(#Gradiente_sem_nome_49-9);
      }

      .cls-4 {
        fill: url(#Gradiente_sem_nome_49-7);
      }

      .cls-5 {
        fill: url(#Gradiente_sem_nome_49-2);
      }

      .cls-6 {
        fill: url(#Gradiente_sem_nome_49-6);
      }

      .cls-7 {
        fill: url(#Gradiente_sem_nome_49-11);
      }

      .cls-8 {
        fill: url(#Gradiente_sem_nome_49-10);
      }

      .cls-9 {
        fill: url(#Gradiente_sem_nome_49-3);
      }

      .cls-10 {
        fill: #243a83;
      }

      .cls-11 {
        fill: url(#Gradiente_sem_nome_49);
      }

      .cls-12 {
        fill: url(#Gradiente_sem_nome_49-4);
      }
    </style>
    <linearGradient id="Gradiente_sem_nome_49" data-name="Gradiente sem nome 49" x1="50.33" y1="96.59" x2="236.48" y2="96.59" gradientTransform="translate(183.05 -6.21) rotate(85.11)" gradientUnits="userSpaceOnUse">
      <stop offset="0" stop-color="#3db6f3"/>
      <stop offset="1" stop-color="#3a60ff"/>
    </linearGradient>
    <linearGradient id="Gradiente_sem_nome_49-2" data-name="Gradiente sem nome 49" x1="50.33" y1="58.04" x2="236.48" y2="58.04" gradientTransform="translate(195.9 -83.12) rotate(89.04)" xlink:href="#Gradiente_sem_nome_49"/>
    <linearGradient id="Gradiente_sem_nome_49-3" data-name="Gradiente sem nome 49" y1="74.79" x2="236.48" y2="74.79" gradientTransform="translate(60.31 -81) rotate(29.32)" xlink:href="#Gradiente_sem_nome_49"/>
    <linearGradient id="Gradiente_sem_nome_49-4" data-name="Gradiente sem nome 49" x1="50.33" y1="56.98" x2="236.48" y2="56.98" gradientTransform="matrix(1,0,0,1,0,0)" xlink:href="#Gradiente_sem_nome_49"/>
    <linearGradient id="Gradiente_sem_nome_49-5" data-name="Gradiente sem nome 49" x1="50.33" y1="134.21" x2="236.48" y2="134.21" gradientTransform="translate(128.6 -77.13) rotate(40.83)" xlink:href="#Gradiente_sem_nome_49"/>
    <linearGradient id="Gradiente_sem_nome_49-6" data-name="Gradiente sem nome 49" x1="50.33" y1="144.21" x2="236.48" y2="144.21" gradientTransform="translate(139.45 -26.5) rotate(47.77)" xlink:href="#Gradiente_sem_nome_49"/>
    <linearGradient id="Gradiente_sem_nome_49-7" data-name="Gradiente sem nome 49" x1="50.33" y1="100.6" x2="236.48" y2="100.6" gradientTransform="matrix(1,0,0,1,0,0)" xlink:href="#Gradiente_sem_nome_49"/>
    <linearGradient id="Gradiente_sem_nome_49-8" data-name="Gradiente sem nome 49" x1="50.33" y1="93.86" x2="236.48" y2="93.86" gradientTransform="matrix(1,0,0,1,0,0)" xlink:href="#Gradiente_sem_nome_49"/>
    <linearGradient id="Gradiente_sem_nome_49-9" data-name="Gradiente sem nome 49" y1="179.4" x2="236.48" y2="179.4" gradientTransform="matrix(1,0,0,1,0,0)" xlink:href="#Gradiente_sem_nome_49"/>
    <linearGradient id="Gradiente_sem_nome_49-10" data-name="Gradiente sem nome 49" x1="50.33" y1="159.17" x2="236.48" y2="159.17" gradientTransform="matrix(1,0,0,1,0,0)" xlink:href="#Gradiente_sem_nome_49"/>
    <linearGradient id="Gradiente_sem_nome_49-11" data-name="Gradiente sem nome 49" x1="50.33" y1="27.27" x2="236.48" y2="27.27" gradientTransform="matrix(1,0,0,1,0,0)" xlink:href="#Gradiente_sem_nome_49"/>
  </defs>
  <g id="Group_2253" data-name="Group 2253">
    <g id="Line_704" data-name="Line 704">
      <rect class="cls-11" x="88.88" y="81.79" width="12.05" height="29.61" transform="translate(-9.43 182.91) rotate(-85.11)"/>
    </g>
    <g id="Line_705" data-name="Line 705">
      <rect class="cls-5" x="127.57" y="52.01" width="25.29" height="12.05" transform="translate(79.84 197.26) rotate(-89.04)"/>
    </g>
    <g id="Line_706" data-name="Line 706">
      <rect class="cls-9" x="162.39" y="68.76" width="45.19" height="12.05" transform="translate(-12.93 100.15) rotate(-29.32)"/>
    </g>
    <g id="Ellipse_111" data-name="Ellipse 111">
      <path class="cls-12" d="M216.7,76.49c-10.76,0-19.51-8.75-19.51-19.51s8.75-19.51,19.51-19.51,19.51,8.75,19.51,19.51-8.75,19.51-19.51,19.51ZM216.7,49.52c-4.11,0-7.46,3.35-7.46,7.46s3.35,7.46,7.46,7.46,7.46-3.35,7.46-7.46-3.35-7.46-7.46-7.46Z"/>
    </g>
    <g id="Line_707" data-name="Line 707">
      <rect class="cls-2" x="161.89" y="119.86" width="12.05" height="28.68" transform="translate(-46.88 142.44) rotate(-40.83)"/>
    </g>
    <g id="Line_708" data-name="Line 708">
      <rect class="cls-6" x="70.34" y="138.19" width="58.62" height="12.05" transform="translate(-74.11 121.06) rotate(-47.77)"/>
    </g>
    <g id="Path_3458" data-name="Path 3458">
      <path class="cls-4" d="M139.37,136.12c-19.59,0-35.52-15.94-35.52-35.52s15.94-35.52,35.52-35.52,35.52,15.94,35.52,35.52-15.94,35.52-35.52,35.52ZM139.37,77.12c-12.94,0-23.47,10.53-23.47,23.47s10.53,23.47,23.47,23.47,23.47-10.53,23.47-23.47-10.53-23.47-23.47-23.47Z"/>
    </g>
    <g id="Path_3459" data-name="Path 3459">
      <path class="cls-1" d="M66.46,113.37c-10.76,0-19.51-8.75-19.51-19.51s8.75-19.51,19.51-19.51,19.51,8.75,19.51,19.51-8.75,19.51-19.51,19.51ZM66.46,86.39c-4.04,0-7.46,3.42-7.46,7.46s3.42,7.46,7.46,7.46,7.46-3.42,7.46-7.46-3.28-7.46-7.46-7.46Z"/>
    </g>
    <g id="Path_3460" data-name="Path 3460">
      <path class="cls-3" d="M67.73,203.34c-13.2,0-23.93-10.74-23.93-23.94s10.74-23.93,23.93-23.93,23.94,10.74,23.94,23.93-10.74,23.94-23.94,23.94ZM67.73,167.52c-6.55,0-11.88,5.33-11.88,11.88s5.33,11.89,11.88,11.89,11.89-5.33,11.89-11.89-5.33-11.88-11.89-11.88Z"/>
    </g>
    <g id="Path_3461" data-name="Path 3461">
      <path class="cls-8" d="M188.67,183.11c-13.2,0-23.94-10.74-23.94-23.94s10.74-23.93,23.94-23.93,23.93,10.74,23.93,23.93-10.74,23.94-23.93,23.94ZM188.67,147.29c-6.55,0-11.89,5.33-11.89,11.88s5.33,11.89,11.89,11.89,11.88-5.33,11.88-11.89-5.33-11.88-11.88-11.88Z"/>
    </g>
    <g id="Ellipse_112" data-name="Ellipse 112">
      <path class="cls-7" d="M141.05,51.21c-13.2,0-23.94-10.74-23.94-23.93s10.74-23.94,23.94-23.94,23.93,10.74,23.93,23.94-10.74,23.93-23.93,23.93ZM141.05,15.39c-6.55,0-11.89,5.33-11.89,11.89s5.33,11.88,11.89,11.88,11.88-5.33,11.88-11.88-5.33-11.89-11.88-11.89Z"/>
    </g>
  </g>
  <g>
    <g>
      <path class="cls-10" d="M54.44,270.53c-.89,1.65-2.29,2.98-4.19,3.98-1.9,1.01-4.3,1.51-7.19,1.51h-5.9v13.52h-7.06v-35.21h12.96c2.72,0,5.04.47,6.96,1.41,1.92.94,3.36,2.24,4.31,3.88.96,1.65,1.44,3.51,1.44,5.6,0,1.88-.45,3.65-1.34,5.3ZM47.1,268.99c.94-.89,1.41-2.14,1.41-3.76,0-3.43-1.92-5.15-5.75-5.15h-5.6v10.24h5.6c1.95,0,3.4-.45,4.34-1.34Z"/>
      <path class="cls-10" d="M70.88,262.46c1.46-.84,3.13-1.26,5.02-1.26v7.42h-1.87c-2.22,0-3.89.52-5.02,1.56-1.13,1.04-1.69,2.86-1.69,5.45v13.92h-7.06v-27.94h7.06v4.34c.91-1.48,2.09-2.64,3.56-3.48Z"/>
      <path class="cls-10" d="M105.91,277.69h-20.43c.17,2.02.87,3.6,2.12,4.74,1.24,1.14,2.77,1.72,4.59,1.72,2.62,0,4.49-1.13,5.6-3.38h7.62c-.81,2.69-2.35,4.9-4.64,6.63-2.29,1.73-5.09,2.6-8.42,2.6-2.69,0-5.1-.6-7.24-1.79-2.14-1.19-3.8-2.88-4.99-5.07-1.2-2.19-1.79-4.71-1.79-7.57s.59-5.43,1.77-7.62c1.18-2.19,2.83-3.87,4.94-5.04,2.12-1.18,4.56-1.77,7.31-1.77s5.04.57,7.14,1.71c2.1,1.14,3.73,2.77,4.89,4.87,1.16,2.1,1.74,4.51,1.74,7.24,0,1.01-.07,1.92-.2,2.72ZM98.8,272.95c-.03-1.82-.69-3.27-1.97-4.36s-2.84-1.64-4.69-1.64c-1.75,0-3.22.53-4.41,1.59s-1.93,2.53-2.19,4.41h13.26Z"/>
      <path class="cls-10" d="M110.63,267.96c1.13-2.19,2.67-3.87,4.62-5.04s4.12-1.77,6.51-1.77c1.82,0,3.55.39,5.19,1.18,1.65.79,2.96,1.84,3.94,3.15v-13.27h7.16v37.33h-7.16v-4.14c-.88,1.38-2.1,2.49-3.68,3.33-1.58.84-3.42,1.26-5.5,1.26-2.35,0-4.5-.6-6.46-1.82s-3.49-2.92-4.62-5.12c-1.13-2.2-1.69-4.73-1.69-7.59s.56-5.33,1.69-7.52ZM129.92,271.16c-.67-1.23-1.58-2.17-2.72-2.83-1.15-.66-2.37-.98-3.68-.98s-2.52.32-3.63.96c-1.11.64-2.01,1.57-2.7,2.8-.69,1.23-1.03,2.68-1.03,4.36s.34,3.15,1.03,4.41c.69,1.26,1.6,2.23,2.73,2.9,1.13.67,2.33,1.01,3.61,1.01s2.54-.33,3.68-.98c1.14-.66,2.05-1.6,2.72-2.83.67-1.23,1.01-2.7,1.01-4.41s-.34-3.19-1.01-4.41Z"/>
      <path class="cls-10" d="M144.93,257.09c-.82-.79-1.24-1.77-1.24-2.95s.41-2.16,1.24-2.95c.82-.79,1.86-1.19,3.1-1.19s2.28.4,3.1,1.19c.82.79,1.23,1.77,1.23,2.95s-.41,2.16-1.23,2.95c-.83.79-1.86,1.18-3.1,1.18s-2.28-.39-3.1-1.18ZM151.51,261.6v27.94h-7.06v-27.94h7.06Z"/>
      <path class="cls-10" d="M157.92,267.98c1.18-2.17,2.81-3.85,4.89-5.04,2.08-1.19,4.47-1.79,7.16-1.79,3.46,0,6.33.87,8.6,2.6,2.27,1.73,3.79,4.16,4.57,7.29h-7.62c-.4-1.21-1.08-2.16-2.04-2.85s-2.14-1.03-3.56-1.03c-2.02,0-3.61.73-4.79,2.19s-1.77,3.54-1.77,6.23.59,4.72,1.77,6.18c1.18,1.46,2.78,2.19,4.79,2.19,2.86,0,4.72-1.28,5.6-3.83h7.62c-.77,3.03-2.3,5.43-4.59,7.21-2.29,1.78-5.14,2.67-8.57,2.67-2.69,0-5.08-.6-7.16-1.79-2.09-1.19-3.72-2.87-4.89-5.04-1.18-2.17-1.77-4.7-1.77-7.59s.59-5.42,1.77-7.59Z"/>
      <path class="cls-10" d="M196.05,267.4v13.52c0,.94.23,1.62.68,2.04.45.42,1.22.63,2.29.63h3.28v5.95h-4.44c-5.95,0-8.93-2.89-8.93-8.68v-13.47h-3.33v-5.8h3.33v-6.91h7.11v6.91h6.26v5.8h-6.26Z"/>
      <path class="cls-10" d="M207.37,257.09c-.82-.79-1.24-1.77-1.24-2.95s.41-2.16,1.24-2.95c.82-.79,1.86-1.19,3.1-1.19s2.28.4,3.1,1.19c.82.79,1.24,1.77,1.24,2.95s-.41,2.16-1.24,2.95c-.82.79-1.86,1.18-3.1,1.18s-2.28-.39-3.1-1.18ZM213.96,261.6v27.94h-7.06v-27.94h7.06Z"/>
      <path class="cls-10" d="M225.56,288.21c-2.15-1.19-3.84-2.88-5.07-5.07-1.23-2.19-1.84-4.71-1.84-7.57s.63-5.38,1.89-7.57,2.98-3.88,5.17-5.07c2.19-1.19,4.62-1.79,7.31-1.79s5.13.6,7.31,1.79c2.19,1.19,3.91,2.88,5.17,5.07,1.26,2.19,1.89,4.71,1.89,7.57s-.65,5.38-1.94,7.57c-1.3,2.19-3.04,3.88-5.25,5.07-2.2,1.19-4.66,1.79-7.39,1.79s-5.11-.6-7.26-1.79ZM236.43,282.91c1.13-.62,2.03-1.55,2.7-2.8s1.01-2.76,1.01-4.54c0-2.66-.7-4.7-2.09-6.13-1.4-1.43-3.1-2.14-5.12-2.14s-3.71.71-5.07,2.14c-1.36,1.43-2.04,3.47-2.04,6.13s.66,4.7,1.99,6.13c1.33,1.43,3,2.14,5.02,2.14,1.28,0,2.48-.31,3.61-.93Z"/>
      <path class="cls-10" d="M275.65,264.35c2.05,2.1,3.07,5.04,3.07,8.8v16.39h-7.06v-15.43c0-2.22-.56-3.93-1.66-5.12-1.11-1.19-2.62-1.79-4.54-1.79s-3.49.6-4.62,1.79-1.69,2.9-1.69,5.12v15.43h-7.06v-27.94h7.06v3.48c.94-1.21,2.14-2.16,3.61-2.85,1.46-.69,3.07-1.03,4.82-1.03,3.33,0,6.02,1.05,8.07,3.15Z"/>
    </g>
    <path style="fill:#43caff" class="cls-10" d="M17.15,269.83c-1.66,0-3.01-1.35-3.01-3.01v-5.75h-4.09v8.77H1.28v4.09h5.75c1.66,0,3.01,1.35,3.01,3.01v5.75h4.09v-8.77h8.77v-4.09h-5.75Z"/>
  </g>
</svg>