<?xml version="1.0" encoding="UTF-8"?>
<svg id="Camada_1" data-name="Camada 1" xmlns="http://www.w3.org/2000/svg" xmlns:xlink="http://www.w3.org/1999/xlink" viewBox="0 0 200 290">
  <defs>
    <style>
      .cls-1 {
        fill: url(#linear-gradient-2);
      }

      .cls-2 {
        fill: #43caff;
      }

      .cls-3 {
        fill: url(#linear-gradient-4);
      }

      .cls-4 {
        fill: url(#linear-gradient-3);
      }

      .cls-5 {
        fill: url(#linear-gradient-5);
      }

      .cls-6 {
        fill: #243a83;
      }

      .cls-7 {
        fill: url(#linear-gradient-7);
      }

      .cls-8 {
        fill: url(#linear-gradient-6);
      }

      .cls-9 {
        fill: url(#linear-gradient);
      }
    </style>
    <linearGradient id="linear-gradient" x1="13.42" y1="167.5" x2="195.92" y2="167.5" gradientUnits="userSpaceOnUse">
      <stop offset="0" stop-color="#3db6f3"/>
      <stop offset=".2" stop-color="#3db6f3"/>
      <stop offset="1" stop-color="#3a60ff"/>
    </linearGradient>
    <linearGradient id="linear-gradient-2" x1="13.42" y1="58.16" x2="195.92" y2="58.16" xlink:href="#linear-gradient"/>
    <linearGradient id="linear-gradient-3" x1="13.42" y1="147.58" x2="195.92" y2="147.58" xlink:href="#linear-gradient"/>
    <linearGradient id="linear-gradient-4" x1="13.42" y1="86.94" x2="195.92" y2="86.94" xlink:href="#linear-gradient"/>
    <linearGradient id="linear-gradient-5" x1="13.42" y1="97.96" x2="195.92" y2="97.96" xlink:href="#linear-gradient"/>
    <linearGradient id="linear-gradient-6" x1="13.42" y1="97.96" x2="195.92" y2="97.96" xlink:href="#linear-gradient"/>
    <linearGradient id="linear-gradient-7" x1="13.42" y1="97.96" x2="195.92" y2="97.96" xlink:href="#linear-gradient"/>
  </defs>
  <g>
    <g>
      <path class="cls-6" d="M66.28,288.6c-2.18-.93-3.91-2.27-5.17-4.03-1.27-1.75-1.92-3.82-1.96-6.21h8.39c.11,1.6.68,2.87,1.71,3.8,1.03.93,2.43,1.4,4.22,1.4s3.26-.44,4.31-1.31c1.04-.88,1.57-2.02,1.57-3.44,0-1.16-.35-2.11-1.06-2.85-.71-.75-1.59-1.33-2.66-1.76-1.06-.43-2.53-.9-4.39-1.43-2.54-.75-4.6-1.48-6.18-2.21-1.59-.73-2.95-1.83-4.08-3.3-1.14-1.47-1.71-3.44-1.71-5.9,0-2.31.58-4.33,1.73-6.04,1.16-1.72,2.78-3.03,4.87-3.94,2.09-.91,4.48-1.37,7.16-1.37,4.03,0,7.3.98,9.82,2.94,2.52,1.96,3.91,4.69,4.17,8.2h-8.62c-.08-1.34-.64-2.45-1.71-3.33-1.06-.88-2.47-1.31-4.22-1.31-1.53,0-2.75.39-3.66,1.17-.91.78-1.37,1.92-1.37,3.41,0,1.04.34,1.91,1.04,2.6.69.69,1.55,1.25,2.57,1.68,1.03.43,2.47.92,4.34,1.48,2.54.75,4.61,1.49,6.21,2.24,1.6.75,2.98,1.87,4.14,3.36,1.16,1.49,1.73,3.45,1.73,5.87,0,2.09-.54,4.03-1.62,5.82-1.08,1.79-2.67,3.22-4.76,4.28-2.09,1.06-4.57,1.59-7.44,1.59-2.72,0-5.17-.47-7.36-1.4Z"/>
      <path class="cls-6" d="M136.79,250.56v39.05h-7.83v-25.4l-10.46,25.4h-5.93l-10.52-25.4v25.4h-7.83v-39.05h8.9l12.42,29.04,12.42-29.04h8.84Z"/>
      <path class="cls-6" d="M150.64,288.6c-2.18-.93-3.91-2.27-5.17-4.03-1.27-1.75-1.92-3.82-1.96-6.21h8.39c.11,1.6.68,2.87,1.71,3.8,1.03.93,2.43,1.4,4.22,1.4s3.26-.44,4.31-1.31c1.04-.88,1.57-2.02,1.57-3.44,0-1.16-.35-2.11-1.06-2.85-.71-.75-1.59-1.33-2.66-1.76-1.06-.43-2.53-.9-4.39-1.43-2.54-.75-4.6-1.48-6.18-2.21-1.59-.73-2.95-1.83-4.08-3.3-1.14-1.47-1.71-3.44-1.71-5.9,0-2.31.58-4.33,1.73-6.04,1.16-1.72,2.78-3.03,4.87-3.94,2.09-.91,4.48-1.37,7.16-1.37,4.03,0,7.3.98,9.82,2.94,2.52,1.96,3.91,4.69,4.17,8.2h-8.62c-.08-1.34-.64-2.45-1.71-3.33-1.06-.88-2.47-1.31-4.22-1.31-1.53,0-2.75.39-3.66,1.17-.91.78-1.37,1.92-1.37,3.41,0,1.04.34,1.91,1.04,2.6.69.69,1.55,1.25,2.57,1.68,1.03.43,2.47.92,4.34,1.48,2.54.75,4.61,1.49,6.21,2.24,1.6.75,2.98,1.87,4.14,3.36,1.16,1.49,1.73,3.45,1.73,5.87,0,2.09-.54,4.03-1.62,5.82-1.08,1.79-2.67,3.22-4.76,4.28-2.09,1.06-4.57,1.59-7.44,1.59-2.72,0-5.17-.47-7.36-1.4Z"/>
    </g>
    <path class="cls-2" d="M45.78,267.74c-1.84,0-3.34-1.5-3.34-3.34v-6.38h-4.53v9.72h-9.72v4.53h6.38c1.84,0,3.34,1.5,3.34,3.34v6.38h4.53v-9.72h9.72v-4.53h-6.38Z"/>
  </g>
  <g>
    <path class="cls-9" d="M100,186.59c-9.81,0-19.57-1.27-29.01-3.79-4.81-1.28-7.68-6.23-6.4-11.05,1.29-4.81,6.21-7.68,11.05-6.4,7.92,2.11,16.12,3.18,24.36,3.18,20.33,0,39.84-6.47,54.93-18.22,3.94-3.07,9.61-2.36,12.67,1.57,3.06,3.93,2.36,9.6-1.57,12.67-18.24,14.21-41.69,22.03-66.02,22.03Z"/>
    <path class="cls-1" d="M9.03,106.98C4.04,106.98,0,102.94,0,97.96,0,49.09,44.86,9.33,100,9.33c4.98,0,9.03,4.04,9.03,9.03s-4.04,9.03-9.03,9.03c-45.19,0-81.95,31.66-81.95,70.58,0,4.99-4.04,9.03-9.03,9.03Z"/>
    <path class="cls-4" d="M70.99,182.8c-4.81-1.28-7.68-6.23-6.4-11.05.76-2.84,2.8-4.98,5.33-6.01-.16.06-.32.1-.47.17-11.03,5.22-22.66,9.04-34.62,11.37,2.75-8.4,4.64-17.13,5.61-25.99.3-2.77-.69-5.52-2.69-7.46-12.36-11.99-19.54-28.74-19.7-45.88,0,4.99-4.04,9.03-9.03,9.03S.01,102.95,0,97.98c0,.02,0,.04,0,.06.19,20.47,8.14,40.42,21.96,55.45-1.02,6.91-2.69,13.69-4.97,20.21-.08.24-.16.49-.22.75-.71,2.04-1.5,4.07-2.4,6.2-.67,1.65-.96,3.47-.84,5.27.41,6.36,5.73,11.27,12.04,11.27.25,0,.51,0,.76-.02.34-.02.68-.06,1.02-.12,2.69-.48,5.37-.98,8.05-1.5.02,0,.04,0,.06-.01,13.35-2.36,26.37-6.37,38.74-11.93.74.17-1.42-.33-3.22-.81Z"/>
    <path class="cls-3" d="M154.93,150.31c3.94-3.07,9.61-2.35,12.67,1.57,3.06,3.93,2.36,9.6-1.57,12.67,21.6-16.83,33.98-41.1,33.98-66.6,0-10.6-2.09-20.98-6.21-30.84,0-.01-.01-.02-.02-.03-14.46-34.55-52.14-57.76-93.77-57.76,4.98,0,9.03,4.04,9.03,9.03s-4.04,9.03-9.03,9.03c34.45,0,65.43,18.76,77.13,46.68,0,0,0,.01,0,.02,3.2,7.65,4.82,15.68,4.82,23.88,0,19.89-9.85,38.98-27.02,52.36"/>
    <path class="cls-5" d="M135.25,108.57c-5.85,0-10.61-4.76-10.61-10.61s4.76-10.61,10.61-10.61,10.61,4.76,10.61,10.61-4.76,10.61-10.61,10.61Z"/>
    <path class="cls-8" d="M63.28,108.57c-5.85,0-10.61-4.76-10.61-10.61s4.76-10.61,10.61-10.61,10.61,4.76,10.61,10.61-4.76,10.61-10.61,10.61Z"/>
    <path class="cls-7" d="M99.27,108.57c-5.85,0-10.61-4.76-10.61-10.61s4.76-10.61,10.61-10.61,10.61,4.76,10.61,10.61-4.76,10.61-10.61,10.61Z"/>
  </g>
</svg>