<?xml version="1.0" encoding="UTF-8"?>
<svg id="Camada_1" data-name="Camada 1" xmlns="http://www.w3.org/2000/svg" viewBox="0 0 1087 632">
  <defs>
    
  </defs>
  <g>
    <path class="cls-1" d="M239.73,87c-36.6,0-69.84,14.62-94.2,38.32v-38.32h-41.64l.63,131.34h.06c-.04,1.28-.06,2.57-.06,3.87h0l-.63,312.38h41.64v-215.52c24.37,23.71,57.6,38.35,94.2,38.35,74.55,0,135.21-60.65,135.21-135.21s-60.65-135.21-135.21-135.21ZM239.73,316.41c-51.94,0-94.2-42.26-94.2-94.2s42.26-94.2,94.2-94.2,94.2,42.26,94.2,94.2-42.26,94.2-94.2,94.2Z"></path>
    <path class="cls-1" d="M687.14,87h-135.21c-74.55,0-135.21,60.65-135.21,135.21,0,36.39,14.45,69.46,37.91,93.79,9.59,9.95,20.69,18.43,32.92,25.08,19.15,10.42,41.09,16.34,64.38,16.34s45.23-5.92,64.38-16.34c18.34,17.2,29.82,41.64,29.82,68.71,0,51.94-42.26,94.2-94.2,94.2s-94.2-42.26-94.2-94.2h-41.01c0,74.56,60.65,135.21,135.21,135.21s135.21-60.65,135.21-135.21c0-36.39-14.45-69.46-37.91-93.79,23.46-24.33,37.91-57.4,37.91-93.79s-14.64-69.2-38.35-93.57h38.35v-41.64ZM560.78,316c-2.92.27-5.87.41-8.85.41s-5.94-.14-8.85-.41c-21.37-2-40.7-11.18-55.53-25.08-18.34-17.2-29.82-41.64-29.82-68.71,0-51.94,42.26-94.2,94.2-94.2s94.2,42.26,94.2,94.2c0,27.07-11.48,51.51-29.82,68.71-14.83,13.91-34.15,23.08-55.53,25.08Z"></path>
  </g>
  <g>
    <path class="cls-2" d="M897.37,209.64c-10.72,0-19.45-8.72-19.45-19.45v-37.11h-26.36v56.56h-56.56v26.36h37.11c10.72,0,19.45,8.72,19.45,19.45v37.11h26.36v-56.56h56.56v-26.36h-37.11Z"></path>
    <path class="cls-2" d="M863.78,357.42c-74.44,0-135-60.56-135-135s60.56-135,135-135,135,60.56,135,135-60.56,135-135,135ZM863.78,100.05c-67.47,0-122.36,54.89-122.36,122.36s54.89,122.36,122.36,122.36,122.36-54.89,122.36-122.36-54.89-122.36-122.36-122.36Z"></path>
  </g>
</svg>